%TF.GenerationSoftware,KiCad,Pcbnew,(5.1.5-0-10_14)*%
%TF.CreationDate,2021-01-31T16:28:13+01:00*%
%TF.ProjectId,C64-Prog-Adapter-LB,4336342d-5072-46f6-972d-416461707465,1.0*%
%TF.SameCoordinates,Original*%
%TF.FileFunction,Legend,Top*%
%TF.FilePolarity,Positive*%
%FSLAX46Y46*%
G04 Gerber Fmt 4.6, Leading zero omitted, Abs format (unit mm)*
G04 Created by KiCad (PCBNEW (5.1.5-0-10_14)) date 2021-01-31 16:28:13*
%MOMM*%
%LPD*%
G04 APERTURE LIST*
%ADD10C,0.100000*%
%ADD11C,0.050000*%
%ADD12C,0.120000*%
G04 APERTURE END LIST*
D10*
X119771428Y-41514285D02*
X119742857Y-41542857D01*
X119657142Y-41571428D01*
X119600000Y-41571428D01*
X119514285Y-41542857D01*
X119457142Y-41485714D01*
X119428571Y-41428571D01*
X119400000Y-41314285D01*
X119400000Y-41228571D01*
X119428571Y-41114285D01*
X119457142Y-41057142D01*
X119514285Y-41000000D01*
X119600000Y-40971428D01*
X119657142Y-40971428D01*
X119742857Y-41000000D01*
X119771428Y-41028571D01*
X120285714Y-40971428D02*
X120171428Y-40971428D01*
X120114285Y-41000000D01*
X120085714Y-41028571D01*
X120028571Y-41114285D01*
X120000000Y-41228571D01*
X120000000Y-41457142D01*
X120028571Y-41514285D01*
X120057142Y-41542857D01*
X120114285Y-41571428D01*
X120228571Y-41571428D01*
X120285714Y-41542857D01*
X120314285Y-41514285D01*
X120342857Y-41457142D01*
X120342857Y-41314285D01*
X120314285Y-41257142D01*
X120285714Y-41228571D01*
X120228571Y-41200000D01*
X120114285Y-41200000D01*
X120057142Y-41228571D01*
X120028571Y-41257142D01*
X120000000Y-41314285D01*
X120857142Y-41171428D02*
X120857142Y-41571428D01*
X120714285Y-40942857D02*
X120571428Y-41371428D01*
X120942857Y-41371428D01*
X121171428Y-41342857D02*
X121628571Y-41342857D01*
X121914285Y-41571428D02*
X121914285Y-40971428D01*
X122142857Y-40971428D01*
X122200000Y-41000000D01*
X122228571Y-41028571D01*
X122257142Y-41085714D01*
X122257142Y-41171428D01*
X122228571Y-41228571D01*
X122200000Y-41257142D01*
X122142857Y-41285714D01*
X121914285Y-41285714D01*
X122514285Y-41571428D02*
X122514285Y-41171428D01*
X122514285Y-41285714D02*
X122542857Y-41228571D01*
X122571428Y-41200000D01*
X122628571Y-41171428D01*
X122685714Y-41171428D01*
X122971428Y-41571428D02*
X122914285Y-41542857D01*
X122885714Y-41514285D01*
X122857142Y-41457142D01*
X122857142Y-41285714D01*
X122885714Y-41228571D01*
X122914285Y-41200000D01*
X122971428Y-41171428D01*
X123057142Y-41171428D01*
X123114285Y-41200000D01*
X123142857Y-41228571D01*
X123171428Y-41285714D01*
X123171428Y-41457142D01*
X123142857Y-41514285D01*
X123114285Y-41542857D01*
X123057142Y-41571428D01*
X122971428Y-41571428D01*
X123685714Y-41171428D02*
X123685714Y-41657142D01*
X123657142Y-41714285D01*
X123628571Y-41742857D01*
X123571428Y-41771428D01*
X123485714Y-41771428D01*
X123428571Y-41742857D01*
X123685714Y-41542857D02*
X123628571Y-41571428D01*
X123514285Y-41571428D01*
X123457142Y-41542857D01*
X123428571Y-41514285D01*
X123400000Y-41457142D01*
X123400000Y-41285714D01*
X123428571Y-41228571D01*
X123457142Y-41200000D01*
X123514285Y-41171428D01*
X123628571Y-41171428D01*
X123685714Y-41200000D01*
X123971428Y-41342857D02*
X124428571Y-41342857D01*
X124685714Y-41400000D02*
X124971428Y-41400000D01*
X124628571Y-41571428D02*
X124828571Y-40971428D01*
X125028571Y-41571428D01*
X125485714Y-41571428D02*
X125485714Y-40971428D01*
X125485714Y-41542857D02*
X125428571Y-41571428D01*
X125314285Y-41571428D01*
X125257142Y-41542857D01*
X125228571Y-41514285D01*
X125200000Y-41457142D01*
X125200000Y-41285714D01*
X125228571Y-41228571D01*
X125257142Y-41200000D01*
X125314285Y-41171428D01*
X125428571Y-41171428D01*
X125485714Y-41200000D01*
X126028571Y-41571428D02*
X126028571Y-41257142D01*
X126000000Y-41200000D01*
X125942857Y-41171428D01*
X125828571Y-41171428D01*
X125771428Y-41200000D01*
X126028571Y-41542857D02*
X125971428Y-41571428D01*
X125828571Y-41571428D01*
X125771428Y-41542857D01*
X125742857Y-41485714D01*
X125742857Y-41428571D01*
X125771428Y-41371428D01*
X125828571Y-41342857D01*
X125971428Y-41342857D01*
X126028571Y-41314285D01*
X126314285Y-41171428D02*
X126314285Y-41771428D01*
X126314285Y-41200000D02*
X126371428Y-41171428D01*
X126485714Y-41171428D01*
X126542857Y-41200000D01*
X126571428Y-41228571D01*
X126600000Y-41285714D01*
X126600000Y-41457142D01*
X126571428Y-41514285D01*
X126542857Y-41542857D01*
X126485714Y-41571428D01*
X126371428Y-41571428D01*
X126314285Y-41542857D01*
X126771428Y-41171428D02*
X127000000Y-41171428D01*
X126857142Y-40971428D02*
X126857142Y-41485714D01*
X126885714Y-41542857D01*
X126942857Y-41571428D01*
X127000000Y-41571428D01*
X127285714Y-41571428D02*
X127228571Y-41542857D01*
X127200000Y-41514285D01*
X127171428Y-41457142D01*
X127171428Y-41285714D01*
X127200000Y-41228571D01*
X127228571Y-41200000D01*
X127285714Y-41171428D01*
X127371428Y-41171428D01*
X127428571Y-41200000D01*
X127457142Y-41228571D01*
X127485714Y-41285714D01*
X127485714Y-41457142D01*
X127457142Y-41514285D01*
X127428571Y-41542857D01*
X127371428Y-41571428D01*
X127285714Y-41571428D01*
X127742857Y-41571428D02*
X127742857Y-41171428D01*
X127742857Y-41285714D02*
X127771428Y-41228571D01*
X127800000Y-41200000D01*
X127857142Y-41171428D01*
X127914285Y-41171428D01*
X127971428Y-41628571D02*
X128428571Y-41628571D01*
X128857142Y-41571428D02*
X128571428Y-41571428D01*
X128571428Y-40971428D01*
X129257142Y-41257142D02*
X129342857Y-41285714D01*
X129371428Y-41314285D01*
X129400000Y-41371428D01*
X129400000Y-41457142D01*
X129371428Y-41514285D01*
X129342857Y-41542857D01*
X129285714Y-41571428D01*
X129057142Y-41571428D01*
X129057142Y-40971428D01*
X129257142Y-40971428D01*
X129314285Y-41000000D01*
X129342857Y-41028571D01*
X129371428Y-41085714D01*
X129371428Y-41142857D01*
X129342857Y-41200000D01*
X129314285Y-41228571D01*
X129257142Y-41257142D01*
X129057142Y-41257142D01*
X120242857Y-41971428D02*
X120585714Y-41971428D01*
X120414285Y-42571428D02*
X120414285Y-41971428D01*
X120785714Y-42571428D02*
X120785714Y-41971428D01*
X120985714Y-42400000D01*
X121185714Y-41971428D01*
X121185714Y-42571428D01*
X121585714Y-41971428D02*
X121700000Y-41971428D01*
X121757142Y-42000000D01*
X121814285Y-42057142D01*
X121842857Y-42171428D01*
X121842857Y-42371428D01*
X121814285Y-42485714D01*
X121757142Y-42542857D01*
X121700000Y-42571428D01*
X121585714Y-42571428D01*
X121528571Y-42542857D01*
X121471428Y-42485714D01*
X121442857Y-42371428D01*
X121442857Y-42171428D01*
X121471428Y-42057142D01*
X121528571Y-42000000D01*
X121585714Y-41971428D01*
X122528571Y-42028571D02*
X122557142Y-42000000D01*
X122614285Y-41971428D01*
X122757142Y-41971428D01*
X122814285Y-42000000D01*
X122842857Y-42028571D01*
X122871428Y-42085714D01*
X122871428Y-42142857D01*
X122842857Y-42228571D01*
X122500000Y-42571428D01*
X122871428Y-42571428D01*
X123242857Y-41971428D02*
X123300000Y-41971428D01*
X123357142Y-42000000D01*
X123385714Y-42028571D01*
X123414285Y-42085714D01*
X123442857Y-42200000D01*
X123442857Y-42342857D01*
X123414285Y-42457142D01*
X123385714Y-42514285D01*
X123357142Y-42542857D01*
X123300000Y-42571428D01*
X123242857Y-42571428D01*
X123185714Y-42542857D01*
X123157142Y-42514285D01*
X123128571Y-42457142D01*
X123100000Y-42342857D01*
X123100000Y-42200000D01*
X123128571Y-42085714D01*
X123157142Y-42028571D01*
X123185714Y-42000000D01*
X123242857Y-41971428D01*
X123671428Y-42028571D02*
X123700000Y-42000000D01*
X123757142Y-41971428D01*
X123900000Y-41971428D01*
X123957142Y-42000000D01*
X123985714Y-42028571D01*
X124014285Y-42085714D01*
X124014285Y-42142857D01*
X123985714Y-42228571D01*
X123642857Y-42571428D01*
X124014285Y-42571428D01*
X124585714Y-42571428D02*
X124242857Y-42571428D01*
X124414285Y-42571428D02*
X124414285Y-41971428D01*
X124357142Y-42057142D01*
X124300000Y-42114285D01*
X124242857Y-42142857D01*
X125642857Y-42571428D02*
X125442857Y-42285714D01*
X125300000Y-42571428D02*
X125300000Y-41971428D01*
X125528571Y-41971428D01*
X125585714Y-42000000D01*
X125614285Y-42028571D01*
X125642857Y-42085714D01*
X125642857Y-42171428D01*
X125614285Y-42228571D01*
X125585714Y-42257142D01*
X125528571Y-42285714D01*
X125300000Y-42285714D01*
X126128571Y-42542857D02*
X126071428Y-42571428D01*
X125957142Y-42571428D01*
X125900000Y-42542857D01*
X125871428Y-42485714D01*
X125871428Y-42257142D01*
X125900000Y-42200000D01*
X125957142Y-42171428D01*
X126071428Y-42171428D01*
X126128571Y-42200000D01*
X126157142Y-42257142D01*
X126157142Y-42314285D01*
X125871428Y-42371428D01*
X126357142Y-42171428D02*
X126500000Y-42571428D01*
X126642857Y-42171428D01*
X127642857Y-42571428D02*
X127300000Y-42571428D01*
X127471428Y-42571428D02*
X127471428Y-41971428D01*
X127414285Y-42057142D01*
X127357142Y-42114285D01*
X127300000Y-42142857D01*
X127900000Y-42514285D02*
X127928571Y-42542857D01*
X127900000Y-42571428D01*
X127871428Y-42542857D01*
X127900000Y-42514285D01*
X127900000Y-42571428D01*
X128300000Y-41971428D02*
X128357142Y-41971428D01*
X128414285Y-42000000D01*
X128442857Y-42028571D01*
X128471428Y-42085714D01*
X128500000Y-42200000D01*
X128500000Y-42342857D01*
X128471428Y-42457142D01*
X128442857Y-42514285D01*
X128414285Y-42542857D01*
X128357142Y-42571428D01*
X128300000Y-42571428D01*
X128242857Y-42542857D01*
X128214285Y-42514285D01*
X128185714Y-42457142D01*
X128157142Y-42342857D01*
X128157142Y-42200000D01*
X128185714Y-42085714D01*
X128214285Y-42028571D01*
X128242857Y-42000000D01*
X128300000Y-41971428D01*
D11*
X124206000Y-38735000D02*
X133350000Y-38735000D01*
X124206000Y-38735000D02*
G75*
G02X122428000Y-38735000I-889000J0D01*
G01*
X133985000Y-80010000D02*
G75*
G02X133350000Y-80645000I-635000J0D01*
G01*
X113030000Y-80645000D02*
G75*
G02X112395000Y-80010000I0J635000D01*
G01*
X112395000Y-39370000D02*
G75*
G02X113030000Y-38735000I635000J0D01*
G01*
X133350000Y-38735000D02*
G75*
G02X133985000Y-39370000I0J-635000D01*
G01*
X112395000Y-80010000D02*
X112395000Y-39370000D01*
X133350000Y-80645000D02*
X113030000Y-80645000D01*
X133985000Y-39370000D02*
X133985000Y-80010000D01*
X113030000Y-38735000D02*
X122428000Y-38735000D01*
D12*
X115443000Y-80130000D02*
X128397000Y-80137000D01*
X128380000Y-49470000D02*
X122920000Y-49470000D01*
X128380000Y-80070000D02*
X128380000Y-49470000D01*
X115460000Y-80070000D02*
X128380000Y-80070000D01*
X115460000Y-49470000D02*
X115460000Y-80070000D01*
X120920000Y-49470000D02*
X115460000Y-49470000D01*
X122920000Y-49470000D02*
G75*
G02X120920000Y-49470000I-1000000J0D01*
G01*
D10*
X118665714Y-57120000D02*
X118951428Y-57120000D01*
X118608571Y-57291428D02*
X118808571Y-56691428D01*
X119008571Y-57291428D01*
X119522857Y-57291428D02*
X119180000Y-57291428D01*
X119351428Y-57291428D02*
X119351428Y-56691428D01*
X119294285Y-56777142D01*
X119237142Y-56834285D01*
X119180000Y-56862857D01*
X119722857Y-56691428D02*
X120094285Y-56691428D01*
X119894285Y-56920000D01*
X119980000Y-56920000D01*
X120037142Y-56948571D01*
X120065714Y-56977142D01*
X120094285Y-57034285D01*
X120094285Y-57177142D01*
X120065714Y-57234285D01*
X120037142Y-57262857D01*
X119980000Y-57291428D01*
X119808571Y-57291428D01*
X119751428Y-57262857D01*
X119722857Y-57234285D01*
X121205714Y-57120000D02*
X121491428Y-57120000D01*
X121148571Y-57291428D02*
X121348571Y-56691428D01*
X121548571Y-57291428D01*
X122062857Y-57291428D02*
X121720000Y-57291428D01*
X121891428Y-57291428D02*
X121891428Y-56691428D01*
X121834285Y-56777142D01*
X121777142Y-56834285D01*
X121720000Y-56862857D01*
X122577142Y-56891428D02*
X122577142Y-57291428D01*
X122434285Y-56662857D02*
X122291428Y-57091428D01*
X122662857Y-57091428D01*
X123745714Y-57120000D02*
X124031428Y-57120000D01*
X123688571Y-57291428D02*
X123888571Y-56691428D01*
X124088571Y-57291428D01*
X124602857Y-57291428D02*
X124260000Y-57291428D01*
X124431428Y-57291428D02*
X124431428Y-56691428D01*
X124374285Y-56777142D01*
X124317142Y-56834285D01*
X124260000Y-56862857D01*
X125145714Y-56691428D02*
X124860000Y-56691428D01*
X124831428Y-56977142D01*
X124860000Y-56948571D01*
X124917142Y-56920000D01*
X125060000Y-56920000D01*
X125117142Y-56948571D01*
X125145714Y-56977142D01*
X125174285Y-57034285D01*
X125174285Y-57177142D01*
X125145714Y-57234285D01*
X125117142Y-57262857D01*
X125060000Y-57291428D01*
X124917142Y-57291428D01*
X124860000Y-57262857D01*
X124831428Y-57234285D01*
X118665714Y-62500000D02*
X118951428Y-62500000D01*
X118608571Y-62671428D02*
X118808571Y-62071428D01*
X119008571Y-62671428D01*
X119522857Y-62671428D02*
X119180000Y-62671428D01*
X119351428Y-62671428D02*
X119351428Y-62071428D01*
X119294285Y-62157142D01*
X119237142Y-62214285D01*
X119180000Y-62242857D01*
X120037142Y-62071428D02*
X119922857Y-62071428D01*
X119865714Y-62100000D01*
X119837142Y-62128571D01*
X119780000Y-62214285D01*
X119751428Y-62328571D01*
X119751428Y-62557142D01*
X119780000Y-62614285D01*
X119808571Y-62642857D01*
X119865714Y-62671428D01*
X119980000Y-62671428D01*
X120037142Y-62642857D01*
X120065714Y-62614285D01*
X120094285Y-62557142D01*
X120094285Y-62414285D01*
X120065714Y-62357142D01*
X120037142Y-62328571D01*
X119980000Y-62300000D01*
X119865714Y-62300000D01*
X119808571Y-62328571D01*
X119780000Y-62357142D01*
X119751428Y-62414285D01*
X121205714Y-62500000D02*
X121491428Y-62500000D01*
X121148571Y-62671428D02*
X121348571Y-62071428D01*
X121548571Y-62671428D01*
X122062857Y-62671428D02*
X121720000Y-62671428D01*
X121891428Y-62671428D02*
X121891428Y-62071428D01*
X121834285Y-62157142D01*
X121777142Y-62214285D01*
X121720000Y-62242857D01*
X122262857Y-62071428D02*
X122662857Y-62071428D01*
X122405714Y-62671428D01*
X123745714Y-62500000D02*
X124031428Y-62500000D01*
X123688571Y-62671428D02*
X123888571Y-62071428D01*
X124088571Y-62671428D01*
X124602857Y-62671428D02*
X124260000Y-62671428D01*
X124431428Y-62671428D02*
X124431428Y-62071428D01*
X124374285Y-62157142D01*
X124317142Y-62214285D01*
X124260000Y-62242857D01*
X124945714Y-62328571D02*
X124888571Y-62300000D01*
X124860000Y-62271428D01*
X124831428Y-62214285D01*
X124831428Y-62185714D01*
X124860000Y-62128571D01*
X124888571Y-62100000D01*
X124945714Y-62071428D01*
X125060000Y-62071428D01*
X125117142Y-62100000D01*
X125145714Y-62128571D01*
X125174285Y-62185714D01*
X125174285Y-62214285D01*
X125145714Y-62271428D01*
X125117142Y-62300000D01*
X125060000Y-62328571D01*
X124945714Y-62328571D01*
X124888571Y-62357142D01*
X124860000Y-62385714D01*
X124831428Y-62442857D01*
X124831428Y-62557142D01*
X124860000Y-62614285D01*
X124888571Y-62642857D01*
X124945714Y-62671428D01*
X125060000Y-62671428D01*
X125117142Y-62642857D01*
X125145714Y-62614285D01*
X125174285Y-62557142D01*
X125174285Y-62442857D01*
X125145714Y-62385714D01*
X125117142Y-62357142D01*
X125060000Y-62328571D01*
X126385714Y-74671428D02*
X126500000Y-74671428D01*
X126557142Y-74700000D01*
X126614285Y-74757142D01*
X126642857Y-74871428D01*
X126642857Y-75071428D01*
X126614285Y-75185714D01*
X126557142Y-75242857D01*
X126500000Y-75271428D01*
X126385714Y-75271428D01*
X126328571Y-75242857D01*
X126271428Y-75185714D01*
X126242857Y-75071428D01*
X126242857Y-74871428D01*
X126271428Y-74757142D01*
X126328571Y-74700000D01*
X126385714Y-74671428D01*
X126900000Y-74957142D02*
X127100000Y-74957142D01*
X127185714Y-75271428D02*
X126900000Y-75271428D01*
X126900000Y-74671428D01*
X127185714Y-74671428D01*
X127757142Y-75271428D02*
X127414285Y-75271428D01*
X127585714Y-75271428D02*
X127585714Y-74671428D01*
X127528571Y-74757142D01*
X127471428Y-74814285D01*
X127414285Y-74842857D01*
X126185714Y-69391428D02*
X126328571Y-69991428D01*
X126442857Y-69562857D01*
X126557142Y-69991428D01*
X126700000Y-69391428D01*
X126928571Y-69677142D02*
X127128571Y-69677142D01*
X127214285Y-69991428D02*
X126928571Y-69991428D01*
X126928571Y-69391428D01*
X127214285Y-69391428D01*
X127785714Y-69991428D02*
X127442857Y-69991428D01*
X127614285Y-69991428D02*
X127614285Y-69391428D01*
X127557142Y-69477142D01*
X127500000Y-69534285D01*
X127442857Y-69562857D01*
M02*
