%TF.GenerationSoftware,KiCad,Pcbnew,(5.1.5-0-10_14)*%
%TF.CreationDate,2021-01-31T16:28:13+01:00*%
%TF.ProjectId,C64-Prog-Adapter-LB,4336342d-5072-46f6-972d-416461707465,1.0*%
%TF.SameCoordinates,Original*%
%TF.FileFunction,Copper,L2,Bot*%
%TF.FilePolarity,Positive*%
%FSLAX46Y46*%
G04 Gerber Fmt 4.6, Leading zero omitted, Abs format (unit mm)*
G04 Created by KiCad (PCBNEW (5.1.5-0-10_14)) date 2021-01-31 16:28:13*
%MOMM*%
%LPD*%
G04 APERTURE LIST*
%ADD10C,0.050000*%
%ADD11C,1.600000*%
%ADD12R,1.600000X1.600000*%
%ADD13O,1.600000X1.600000*%
%ADD14C,1.700000*%
%ADD15C,0.400000*%
%ADD16C,0.508000*%
%ADD17C,0.250000*%
%ADD18C,0.254000*%
G04 APERTURE END LIST*
D10*
X124206000Y-38735000D02*
X133350000Y-38735000D01*
X124206000Y-38735000D02*
G75*
G02X122428000Y-38735000I-889000J0D01*
G01*
X133985000Y-80010000D02*
G75*
G02X133350000Y-80645000I-635000J0D01*
G01*
X113030000Y-80645000D02*
G75*
G02X112395000Y-80010000I0J635000D01*
G01*
X112395000Y-39370000D02*
G75*
G02X113030000Y-38735000I635000J0D01*
G01*
X133350000Y-38735000D02*
G75*
G02X133985000Y-39370000I0J-635000D01*
G01*
X112395000Y-80010000D02*
X112395000Y-39370000D01*
X133350000Y-80645000D02*
X113030000Y-80645000D01*
X133985000Y-39370000D02*
X133985000Y-80010000D01*
X113030000Y-38735000D02*
X122428000Y-38735000D01*
D11*
X132080000Y-40640000D03*
X132080000Y-43180000D03*
X132080000Y-45720000D03*
X132080000Y-48260000D03*
X132080000Y-50800000D03*
X116840000Y-78740000D03*
X132080000Y-53340000D03*
X116840000Y-76200000D03*
X132080000Y-55880000D03*
X116840000Y-73660000D03*
X132080000Y-58420000D03*
X116840000Y-71120000D03*
X132080000Y-60960000D03*
X116840000Y-68580000D03*
X132080000Y-63500000D03*
X116840000Y-66040000D03*
X132080000Y-66040000D03*
X116840000Y-63500000D03*
X132080000Y-68580000D03*
X116840000Y-60960000D03*
X132080000Y-71120000D03*
X116840000Y-58420000D03*
X132080000Y-73660000D03*
X116840000Y-55880000D03*
X132080000Y-76200000D03*
X116840000Y-53340000D03*
X132080000Y-78740000D03*
X116840000Y-50800000D03*
X116840000Y-48260000D03*
X116840000Y-45720000D03*
X116840000Y-43180000D03*
D12*
X116840000Y-40640000D03*
D13*
X129540000Y-50800000D03*
X114300000Y-78740000D03*
X129540000Y-53340000D03*
X114300000Y-76200000D03*
X129540000Y-55880000D03*
X114300000Y-73660000D03*
X129540000Y-58420000D03*
X114300000Y-71120000D03*
X129540000Y-60960000D03*
X114300000Y-68580000D03*
X129540000Y-63500000D03*
X114300000Y-66040000D03*
X129540000Y-66040000D03*
X114300000Y-63500000D03*
X129540000Y-68580000D03*
X114300000Y-60960000D03*
X129540000Y-71120000D03*
X114300000Y-58420000D03*
X129540000Y-73660000D03*
X114300000Y-55880000D03*
X129540000Y-76200000D03*
X114300000Y-53340000D03*
X129540000Y-78740000D03*
D12*
X114300000Y-50800000D03*
D14*
X119380000Y-58420000D03*
X121920000Y-58420000D03*
X124460000Y-58420000D03*
X119380000Y-60960000D03*
X121920000Y-60960000D03*
X124460000Y-60960000D03*
X127000000Y-73660000D03*
X127000000Y-71120000D03*
D15*
X127600000Y-47200000D03*
X128200000Y-44600000D03*
D16*
X129540000Y-42460000D02*
X129540000Y-50800000D01*
X131360000Y-40640000D02*
X129540000Y-42460000D01*
X132080000Y-40640000D02*
X131360000Y-40640000D01*
D17*
X130800000Y-64780000D02*
X130339999Y-65240001D01*
X130800000Y-59800000D02*
X130800000Y-64780000D01*
X130339999Y-65240001D02*
X129540000Y-66040000D01*
X132080000Y-58520000D02*
X130800000Y-59800000D01*
X132080000Y-58420000D02*
X132080000Y-58520000D01*
X124460000Y-58420000D02*
X124460000Y-50060000D01*
X120120000Y-45720000D02*
X116840000Y-45720000D01*
X124460000Y-50060000D02*
X120120000Y-45720000D01*
X115200000Y-43800000D02*
X115820000Y-43180000D01*
X115200000Y-46400000D02*
X115200000Y-43800000D01*
X118200000Y-47600000D02*
X117600000Y-47000000D01*
X115800000Y-47000000D02*
X115200000Y-46400000D01*
X117600000Y-47000000D02*
X115800000Y-47000000D01*
X118200000Y-59780000D02*
X118200000Y-47600000D01*
X115820000Y-43180000D02*
X116840000Y-43180000D01*
X119380000Y-60960000D02*
X118200000Y-59780000D01*
X126349989Y-61450011D02*
X126349989Y-48450011D01*
X126349989Y-48450011D02*
X127400001Y-47399999D01*
X127400001Y-47399999D02*
X127600000Y-47200000D01*
X123360000Y-62400000D02*
X125400000Y-62400000D01*
X121920000Y-60960000D02*
X123360000Y-62400000D01*
X125400000Y-62400000D02*
X126349989Y-61450011D01*
X118640000Y-40640000D02*
X123000000Y-45000000D01*
X116840000Y-40640000D02*
X118640000Y-40640000D01*
X123000000Y-45000000D02*
X122146936Y-44146936D01*
X124460000Y-60960000D02*
X125899978Y-59520022D01*
X125899978Y-47899978D02*
X123000000Y-45000000D01*
X125899978Y-59520022D02*
X125899978Y-47899978D01*
X130820000Y-67300000D02*
X132080000Y-66040000D01*
X128000000Y-66800000D02*
X128500000Y-67300000D01*
X128500000Y-67300000D02*
X130820000Y-67300000D01*
X128000000Y-62500000D02*
X128000000Y-66800000D01*
X129540000Y-60960000D02*
X128000000Y-62500000D01*
X128200000Y-47377002D02*
X128200000Y-44600000D01*
X126800000Y-48777002D02*
X128200000Y-47377002D01*
X126800000Y-69717919D02*
X126800000Y-48777002D01*
X127000000Y-71120000D02*
X127000000Y-69917919D01*
X127000000Y-69917919D02*
X126800000Y-69717919D01*
D18*
G36*
X122126515Y-39239758D02*
G01*
X122127406Y-39241837D01*
X122141412Y-39275817D01*
X122144106Y-39280801D01*
X122144108Y-39280806D01*
X122144111Y-39280810D01*
X122227693Y-39432847D01*
X122248499Y-39463234D01*
X122268847Y-39493860D01*
X122272460Y-39498228D01*
X122383985Y-39631138D01*
X122410306Y-39656914D01*
X122436205Y-39682994D01*
X122440598Y-39686578D01*
X122575815Y-39795294D01*
X122606607Y-39815444D01*
X122637113Y-39836020D01*
X122642118Y-39838682D01*
X122795877Y-39919065D01*
X122830040Y-39932868D01*
X122863917Y-39947108D01*
X122869338Y-39948745D01*
X122869345Y-39948748D01*
X122869352Y-39948749D01*
X123035787Y-39997734D01*
X123071957Y-40004634D01*
X123107979Y-40012028D01*
X123113619Y-40012582D01*
X123113621Y-40012582D01*
X123286409Y-40028307D01*
X123323206Y-40028050D01*
X123360003Y-40028307D01*
X123365645Y-40027754D01*
X123538196Y-40009618D01*
X123574262Y-40002215D01*
X123610388Y-39995323D01*
X123615815Y-39993685D01*
X123781558Y-39942379D01*
X123815521Y-39928102D01*
X123849599Y-39914334D01*
X123854600Y-39911676D01*
X123854604Y-39911674D01*
X123854607Y-39911672D01*
X124007225Y-39829151D01*
X124037737Y-39808571D01*
X124068522Y-39788426D01*
X124072910Y-39784847D01*
X124072916Y-39784843D01*
X124072921Y-39784838D01*
X124206601Y-39674249D01*
X124232553Y-39648116D01*
X124258821Y-39622392D01*
X124262430Y-39618030D01*
X124262435Y-39618025D01*
X124262439Y-39618020D01*
X124372094Y-39483569D01*
X124392478Y-39452889D01*
X124413247Y-39422557D01*
X124415941Y-39417575D01*
X124415944Y-39417571D01*
X124415946Y-39417567D01*
X124497398Y-39264377D01*
X124504557Y-39247008D01*
X133477000Y-39274363D01*
X133477000Y-80168363D01*
X112903000Y-80105637D01*
X112903000Y-79049114D01*
X113160171Y-79049114D01*
X113180527Y-79116239D01*
X113275438Y-79327408D01*
X113409722Y-79516003D01*
X113578219Y-79674777D01*
X113774454Y-79797628D01*
X113990885Y-79879835D01*
X114173000Y-79818908D01*
X114173000Y-78867000D01*
X114427000Y-78867000D01*
X114427000Y-79818908D01*
X114609115Y-79879835D01*
X114825546Y-79797628D01*
X115021781Y-79674777D01*
X115105019Y-79596342D01*
X116163263Y-79596342D01*
X116249218Y-79769207D01*
X116461358Y-79864687D01*
X116688048Y-79916945D01*
X116920578Y-79923975D01*
X117150012Y-79885505D01*
X117367532Y-79803014D01*
X117430782Y-79769207D01*
X117516737Y-79596342D01*
X116840000Y-78919605D01*
X116163263Y-79596342D01*
X115105019Y-79596342D01*
X115190278Y-79516003D01*
X115324562Y-79327408D01*
X115419473Y-79116239D01*
X115439829Y-79049114D01*
X115378297Y-78867000D01*
X114427000Y-78867000D01*
X114173000Y-78867000D01*
X113221703Y-78867000D01*
X113160171Y-79049114D01*
X112903000Y-79049114D01*
X112903000Y-78820578D01*
X115656025Y-78820578D01*
X115694495Y-79050012D01*
X115776986Y-79267532D01*
X115810793Y-79330782D01*
X115983658Y-79416737D01*
X116660395Y-78740000D01*
X117019605Y-78740000D01*
X117696342Y-79416737D01*
X117869207Y-79330782D01*
X117964687Y-79118642D01*
X118016945Y-78891952D01*
X118023975Y-78659422D01*
X118017983Y-78623682D01*
X128359000Y-78623682D01*
X128359000Y-78856318D01*
X128404386Y-79084485D01*
X128493412Y-79299413D01*
X128622658Y-79492843D01*
X128787157Y-79657342D01*
X128980587Y-79786588D01*
X129195515Y-79875614D01*
X129423682Y-79921000D01*
X129656318Y-79921000D01*
X129884485Y-79875614D01*
X130099413Y-79786588D01*
X130292843Y-79657342D01*
X130457342Y-79492843D01*
X130586588Y-79299413D01*
X130675614Y-79084485D01*
X130721000Y-78856318D01*
X130721000Y-78623682D01*
X130899000Y-78623682D01*
X130899000Y-78856318D01*
X130944386Y-79084485D01*
X131033412Y-79299413D01*
X131162658Y-79492843D01*
X131327157Y-79657342D01*
X131520587Y-79786588D01*
X131735515Y-79875614D01*
X131963682Y-79921000D01*
X132196318Y-79921000D01*
X132424485Y-79875614D01*
X132639413Y-79786588D01*
X132832843Y-79657342D01*
X132997342Y-79492843D01*
X133126588Y-79299413D01*
X133215614Y-79084485D01*
X133261000Y-78856318D01*
X133261000Y-78623682D01*
X133215614Y-78395515D01*
X133126588Y-78180587D01*
X132997342Y-77987157D01*
X132832843Y-77822658D01*
X132639413Y-77693412D01*
X132424485Y-77604386D01*
X132196318Y-77559000D01*
X131963682Y-77559000D01*
X131735515Y-77604386D01*
X131520587Y-77693412D01*
X131327157Y-77822658D01*
X131162658Y-77987157D01*
X131033412Y-78180587D01*
X130944386Y-78395515D01*
X130899000Y-78623682D01*
X130721000Y-78623682D01*
X130675614Y-78395515D01*
X130586588Y-78180587D01*
X130457342Y-77987157D01*
X130292843Y-77822658D01*
X130099413Y-77693412D01*
X129884485Y-77604386D01*
X129656318Y-77559000D01*
X129423682Y-77559000D01*
X129195515Y-77604386D01*
X128980587Y-77693412D01*
X128787157Y-77822658D01*
X128622658Y-77987157D01*
X128493412Y-78180587D01*
X128404386Y-78395515D01*
X128359000Y-78623682D01*
X118017983Y-78623682D01*
X117985505Y-78429988D01*
X117903014Y-78212468D01*
X117869207Y-78149218D01*
X117696342Y-78063263D01*
X117019605Y-78740000D01*
X116660395Y-78740000D01*
X115983658Y-78063263D01*
X115810793Y-78149218D01*
X115715313Y-78361358D01*
X115663055Y-78588048D01*
X115656025Y-78820578D01*
X112903000Y-78820578D01*
X112903000Y-78430886D01*
X113160171Y-78430886D01*
X113221703Y-78613000D01*
X114173000Y-78613000D01*
X114173000Y-77661092D01*
X114427000Y-77661092D01*
X114427000Y-78613000D01*
X115378297Y-78613000D01*
X115439829Y-78430886D01*
X115419473Y-78363761D01*
X115324562Y-78152592D01*
X115190278Y-77963997D01*
X115105020Y-77883658D01*
X116163263Y-77883658D01*
X116840000Y-78560395D01*
X117516737Y-77883658D01*
X117430782Y-77710793D01*
X117218642Y-77615313D01*
X116991952Y-77563055D01*
X116759422Y-77556025D01*
X116529988Y-77594495D01*
X116312468Y-77676986D01*
X116249218Y-77710793D01*
X116163263Y-77883658D01*
X115105020Y-77883658D01*
X115021781Y-77805223D01*
X114825546Y-77682372D01*
X114609115Y-77600165D01*
X114427000Y-77661092D01*
X114173000Y-77661092D01*
X113990885Y-77600165D01*
X113774454Y-77682372D01*
X113578219Y-77805223D01*
X113409722Y-77963997D01*
X113275438Y-78152592D01*
X113180527Y-78363761D01*
X113160171Y-78430886D01*
X112903000Y-78430886D01*
X112903000Y-76083682D01*
X113119000Y-76083682D01*
X113119000Y-76316318D01*
X113164386Y-76544485D01*
X113253412Y-76759413D01*
X113382658Y-76952843D01*
X113547157Y-77117342D01*
X113740587Y-77246588D01*
X113955515Y-77335614D01*
X114183682Y-77381000D01*
X114416318Y-77381000D01*
X114644485Y-77335614D01*
X114859413Y-77246588D01*
X115052843Y-77117342D01*
X115217342Y-76952843D01*
X115346588Y-76759413D01*
X115435614Y-76544485D01*
X115481000Y-76316318D01*
X115481000Y-76083682D01*
X115659000Y-76083682D01*
X115659000Y-76316318D01*
X115704386Y-76544485D01*
X115793412Y-76759413D01*
X115922658Y-76952843D01*
X116087157Y-77117342D01*
X116280587Y-77246588D01*
X116495515Y-77335614D01*
X116723682Y-77381000D01*
X116956318Y-77381000D01*
X117184485Y-77335614D01*
X117399413Y-77246588D01*
X117592843Y-77117342D01*
X117757342Y-76952843D01*
X117886588Y-76759413D01*
X117975614Y-76544485D01*
X118021000Y-76316318D01*
X118021000Y-76083682D01*
X128359000Y-76083682D01*
X128359000Y-76316318D01*
X128404386Y-76544485D01*
X128493412Y-76759413D01*
X128622658Y-76952843D01*
X128787157Y-77117342D01*
X128980587Y-77246588D01*
X129195515Y-77335614D01*
X129423682Y-77381000D01*
X129656318Y-77381000D01*
X129884485Y-77335614D01*
X130099413Y-77246588D01*
X130292843Y-77117342D01*
X130457342Y-76952843D01*
X130586588Y-76759413D01*
X130675614Y-76544485D01*
X130721000Y-76316318D01*
X130721000Y-76083682D01*
X130899000Y-76083682D01*
X130899000Y-76316318D01*
X130944386Y-76544485D01*
X131033412Y-76759413D01*
X131162658Y-76952843D01*
X131327157Y-77117342D01*
X131520587Y-77246588D01*
X131735515Y-77335614D01*
X131963682Y-77381000D01*
X132196318Y-77381000D01*
X132424485Y-77335614D01*
X132639413Y-77246588D01*
X132832843Y-77117342D01*
X132997342Y-76952843D01*
X133126588Y-76759413D01*
X133215614Y-76544485D01*
X133261000Y-76316318D01*
X133261000Y-76083682D01*
X133215614Y-75855515D01*
X133126588Y-75640587D01*
X132997342Y-75447157D01*
X132832843Y-75282658D01*
X132639413Y-75153412D01*
X132424485Y-75064386D01*
X132196318Y-75019000D01*
X131963682Y-75019000D01*
X131735515Y-75064386D01*
X131520587Y-75153412D01*
X131327157Y-75282658D01*
X131162658Y-75447157D01*
X131033412Y-75640587D01*
X130944386Y-75855515D01*
X130899000Y-76083682D01*
X130721000Y-76083682D01*
X130675614Y-75855515D01*
X130586588Y-75640587D01*
X130457342Y-75447157D01*
X130292843Y-75282658D01*
X130099413Y-75153412D01*
X129884485Y-75064386D01*
X129656318Y-75019000D01*
X129423682Y-75019000D01*
X129195515Y-75064386D01*
X128980587Y-75153412D01*
X128787157Y-75282658D01*
X128622658Y-75447157D01*
X128493412Y-75640587D01*
X128404386Y-75855515D01*
X128359000Y-76083682D01*
X118021000Y-76083682D01*
X117975614Y-75855515D01*
X117886588Y-75640587D01*
X117757342Y-75447157D01*
X117592843Y-75282658D01*
X117399413Y-75153412D01*
X117184485Y-75064386D01*
X116956318Y-75019000D01*
X116723682Y-75019000D01*
X116495515Y-75064386D01*
X116280587Y-75153412D01*
X116087157Y-75282658D01*
X115922658Y-75447157D01*
X115793412Y-75640587D01*
X115704386Y-75855515D01*
X115659000Y-76083682D01*
X115481000Y-76083682D01*
X115435614Y-75855515D01*
X115346588Y-75640587D01*
X115217342Y-75447157D01*
X115052843Y-75282658D01*
X114859413Y-75153412D01*
X114644485Y-75064386D01*
X114416318Y-75019000D01*
X114183682Y-75019000D01*
X113955515Y-75064386D01*
X113740587Y-75153412D01*
X113547157Y-75282658D01*
X113382658Y-75447157D01*
X113253412Y-75640587D01*
X113164386Y-75855515D01*
X113119000Y-76083682D01*
X112903000Y-76083682D01*
X112903000Y-73543682D01*
X113119000Y-73543682D01*
X113119000Y-73776318D01*
X113164386Y-74004485D01*
X113253412Y-74219413D01*
X113382658Y-74412843D01*
X113547157Y-74577342D01*
X113740587Y-74706588D01*
X113955515Y-74795614D01*
X114183682Y-74841000D01*
X114416318Y-74841000D01*
X114644485Y-74795614D01*
X114859413Y-74706588D01*
X115052843Y-74577342D01*
X115217342Y-74412843D01*
X115346588Y-74219413D01*
X115435614Y-74004485D01*
X115481000Y-73776318D01*
X115481000Y-73543682D01*
X115659000Y-73543682D01*
X115659000Y-73776318D01*
X115704386Y-74004485D01*
X115793412Y-74219413D01*
X115922658Y-74412843D01*
X116087157Y-74577342D01*
X116280587Y-74706588D01*
X116495515Y-74795614D01*
X116723682Y-74841000D01*
X116956318Y-74841000D01*
X117184485Y-74795614D01*
X117399413Y-74706588D01*
X117592843Y-74577342D01*
X117757342Y-74412843D01*
X117886588Y-74219413D01*
X117975614Y-74004485D01*
X118021000Y-73776318D01*
X118021000Y-73543682D01*
X118020021Y-73538757D01*
X125769000Y-73538757D01*
X125769000Y-73781243D01*
X125816307Y-74019069D01*
X125909102Y-74243097D01*
X126043820Y-74444717D01*
X126215283Y-74616180D01*
X126416903Y-74750898D01*
X126640931Y-74843693D01*
X126878757Y-74891000D01*
X127121243Y-74891000D01*
X127359069Y-74843693D01*
X127583097Y-74750898D01*
X127784717Y-74616180D01*
X127956180Y-74444717D01*
X128090898Y-74243097D01*
X128183693Y-74019069D01*
X128231000Y-73781243D01*
X128231000Y-73543682D01*
X128359000Y-73543682D01*
X128359000Y-73776318D01*
X128404386Y-74004485D01*
X128493412Y-74219413D01*
X128622658Y-74412843D01*
X128787157Y-74577342D01*
X128980587Y-74706588D01*
X129195515Y-74795614D01*
X129423682Y-74841000D01*
X129656318Y-74841000D01*
X129884485Y-74795614D01*
X130099413Y-74706588D01*
X130292843Y-74577342D01*
X130457342Y-74412843D01*
X130586588Y-74219413D01*
X130675614Y-74004485D01*
X130721000Y-73776318D01*
X130721000Y-73543682D01*
X130899000Y-73543682D01*
X130899000Y-73776318D01*
X130944386Y-74004485D01*
X131033412Y-74219413D01*
X131162658Y-74412843D01*
X131327157Y-74577342D01*
X131520587Y-74706588D01*
X131735515Y-74795614D01*
X131963682Y-74841000D01*
X132196318Y-74841000D01*
X132424485Y-74795614D01*
X132639413Y-74706588D01*
X132832843Y-74577342D01*
X132997342Y-74412843D01*
X133126588Y-74219413D01*
X133215614Y-74004485D01*
X133261000Y-73776318D01*
X133261000Y-73543682D01*
X133215614Y-73315515D01*
X133126588Y-73100587D01*
X132997342Y-72907157D01*
X132832843Y-72742658D01*
X132639413Y-72613412D01*
X132424485Y-72524386D01*
X132196318Y-72479000D01*
X131963682Y-72479000D01*
X131735515Y-72524386D01*
X131520587Y-72613412D01*
X131327157Y-72742658D01*
X131162658Y-72907157D01*
X131033412Y-73100587D01*
X130944386Y-73315515D01*
X130899000Y-73543682D01*
X130721000Y-73543682D01*
X130675614Y-73315515D01*
X130586588Y-73100587D01*
X130457342Y-72907157D01*
X130292843Y-72742658D01*
X130099413Y-72613412D01*
X129884485Y-72524386D01*
X129656318Y-72479000D01*
X129423682Y-72479000D01*
X129195515Y-72524386D01*
X128980587Y-72613412D01*
X128787157Y-72742658D01*
X128622658Y-72907157D01*
X128493412Y-73100587D01*
X128404386Y-73315515D01*
X128359000Y-73543682D01*
X128231000Y-73543682D01*
X128231000Y-73538757D01*
X128183693Y-73300931D01*
X128090898Y-73076903D01*
X127956180Y-72875283D01*
X127784717Y-72703820D01*
X127583097Y-72569102D01*
X127359069Y-72476307D01*
X127121243Y-72429000D01*
X126878757Y-72429000D01*
X126640931Y-72476307D01*
X126416903Y-72569102D01*
X126215283Y-72703820D01*
X126043820Y-72875283D01*
X125909102Y-73076903D01*
X125816307Y-73300931D01*
X125769000Y-73538757D01*
X118020021Y-73538757D01*
X117975614Y-73315515D01*
X117886588Y-73100587D01*
X117757342Y-72907157D01*
X117592843Y-72742658D01*
X117399413Y-72613412D01*
X117184485Y-72524386D01*
X116956318Y-72479000D01*
X116723682Y-72479000D01*
X116495515Y-72524386D01*
X116280587Y-72613412D01*
X116087157Y-72742658D01*
X115922658Y-72907157D01*
X115793412Y-73100587D01*
X115704386Y-73315515D01*
X115659000Y-73543682D01*
X115481000Y-73543682D01*
X115435614Y-73315515D01*
X115346588Y-73100587D01*
X115217342Y-72907157D01*
X115052843Y-72742658D01*
X114859413Y-72613412D01*
X114644485Y-72524386D01*
X114416318Y-72479000D01*
X114183682Y-72479000D01*
X113955515Y-72524386D01*
X113740587Y-72613412D01*
X113547157Y-72742658D01*
X113382658Y-72907157D01*
X113253412Y-73100587D01*
X113164386Y-73315515D01*
X113119000Y-73543682D01*
X112903000Y-73543682D01*
X112903000Y-71003682D01*
X113119000Y-71003682D01*
X113119000Y-71236318D01*
X113164386Y-71464485D01*
X113253412Y-71679413D01*
X113382658Y-71872843D01*
X113547157Y-72037342D01*
X113740587Y-72166588D01*
X113955515Y-72255614D01*
X114183682Y-72301000D01*
X114416318Y-72301000D01*
X114644485Y-72255614D01*
X114859413Y-72166588D01*
X115052843Y-72037342D01*
X115217342Y-71872843D01*
X115346588Y-71679413D01*
X115435614Y-71464485D01*
X115481000Y-71236318D01*
X115481000Y-71003682D01*
X115659000Y-71003682D01*
X115659000Y-71236318D01*
X115704386Y-71464485D01*
X115793412Y-71679413D01*
X115922658Y-71872843D01*
X116087157Y-72037342D01*
X116280587Y-72166588D01*
X116495515Y-72255614D01*
X116723682Y-72301000D01*
X116956318Y-72301000D01*
X117184485Y-72255614D01*
X117399413Y-72166588D01*
X117592843Y-72037342D01*
X117757342Y-71872843D01*
X117886588Y-71679413D01*
X117975614Y-71464485D01*
X118021000Y-71236318D01*
X118021000Y-71003682D01*
X117975614Y-70775515D01*
X117886588Y-70560587D01*
X117757342Y-70367157D01*
X117592843Y-70202658D01*
X117399413Y-70073412D01*
X117184485Y-69984386D01*
X116956318Y-69939000D01*
X116723682Y-69939000D01*
X116495515Y-69984386D01*
X116280587Y-70073412D01*
X116087157Y-70202658D01*
X115922658Y-70367157D01*
X115793412Y-70560587D01*
X115704386Y-70775515D01*
X115659000Y-71003682D01*
X115481000Y-71003682D01*
X115435614Y-70775515D01*
X115346588Y-70560587D01*
X115217342Y-70367157D01*
X115052843Y-70202658D01*
X114859413Y-70073412D01*
X114644485Y-69984386D01*
X114416318Y-69939000D01*
X114183682Y-69939000D01*
X113955515Y-69984386D01*
X113740587Y-70073412D01*
X113547157Y-70202658D01*
X113382658Y-70367157D01*
X113253412Y-70560587D01*
X113164386Y-70775515D01*
X113119000Y-71003682D01*
X112903000Y-71003682D01*
X112903000Y-68463682D01*
X113119000Y-68463682D01*
X113119000Y-68696318D01*
X113164386Y-68924485D01*
X113253412Y-69139413D01*
X113382658Y-69332843D01*
X113547157Y-69497342D01*
X113740587Y-69626588D01*
X113955515Y-69715614D01*
X114183682Y-69761000D01*
X114416318Y-69761000D01*
X114644485Y-69715614D01*
X114859413Y-69626588D01*
X115052843Y-69497342D01*
X115217342Y-69332843D01*
X115346588Y-69139413D01*
X115435614Y-68924485D01*
X115481000Y-68696318D01*
X115481000Y-68463682D01*
X115659000Y-68463682D01*
X115659000Y-68696318D01*
X115704386Y-68924485D01*
X115793412Y-69139413D01*
X115922658Y-69332843D01*
X116087157Y-69497342D01*
X116280587Y-69626588D01*
X116495515Y-69715614D01*
X116723682Y-69761000D01*
X116956318Y-69761000D01*
X117184485Y-69715614D01*
X117399413Y-69626588D01*
X117592843Y-69497342D01*
X117757342Y-69332843D01*
X117886588Y-69139413D01*
X117975614Y-68924485D01*
X118021000Y-68696318D01*
X118021000Y-68463682D01*
X117975614Y-68235515D01*
X117886588Y-68020587D01*
X117757342Y-67827157D01*
X117592843Y-67662658D01*
X117399413Y-67533412D01*
X117184485Y-67444386D01*
X116956318Y-67399000D01*
X116723682Y-67399000D01*
X116495515Y-67444386D01*
X116280587Y-67533412D01*
X116087157Y-67662658D01*
X115922658Y-67827157D01*
X115793412Y-68020587D01*
X115704386Y-68235515D01*
X115659000Y-68463682D01*
X115481000Y-68463682D01*
X115435614Y-68235515D01*
X115346588Y-68020587D01*
X115217342Y-67827157D01*
X115052843Y-67662658D01*
X114859413Y-67533412D01*
X114644485Y-67444386D01*
X114416318Y-67399000D01*
X114183682Y-67399000D01*
X113955515Y-67444386D01*
X113740587Y-67533412D01*
X113547157Y-67662658D01*
X113382658Y-67827157D01*
X113253412Y-68020587D01*
X113164386Y-68235515D01*
X113119000Y-68463682D01*
X112903000Y-68463682D01*
X112903000Y-65923682D01*
X113119000Y-65923682D01*
X113119000Y-66156318D01*
X113164386Y-66384485D01*
X113253412Y-66599413D01*
X113382658Y-66792843D01*
X113547157Y-66957342D01*
X113740587Y-67086588D01*
X113955515Y-67175614D01*
X114183682Y-67221000D01*
X114416318Y-67221000D01*
X114644485Y-67175614D01*
X114859413Y-67086588D01*
X115052843Y-66957342D01*
X115217342Y-66792843D01*
X115346588Y-66599413D01*
X115435614Y-66384485D01*
X115481000Y-66156318D01*
X115481000Y-65923682D01*
X115659000Y-65923682D01*
X115659000Y-66156318D01*
X115704386Y-66384485D01*
X115793412Y-66599413D01*
X115922658Y-66792843D01*
X116087157Y-66957342D01*
X116280587Y-67086588D01*
X116495515Y-67175614D01*
X116723682Y-67221000D01*
X116956318Y-67221000D01*
X117184485Y-67175614D01*
X117399413Y-67086588D01*
X117592843Y-66957342D01*
X117757342Y-66792843D01*
X117886588Y-66599413D01*
X117975614Y-66384485D01*
X118021000Y-66156318D01*
X118021000Y-65923682D01*
X117975614Y-65695515D01*
X117886588Y-65480587D01*
X117757342Y-65287157D01*
X117592843Y-65122658D01*
X117399413Y-64993412D01*
X117184485Y-64904386D01*
X116956318Y-64859000D01*
X116723682Y-64859000D01*
X116495515Y-64904386D01*
X116280587Y-64993412D01*
X116087157Y-65122658D01*
X115922658Y-65287157D01*
X115793412Y-65480587D01*
X115704386Y-65695515D01*
X115659000Y-65923682D01*
X115481000Y-65923682D01*
X115435614Y-65695515D01*
X115346588Y-65480587D01*
X115217342Y-65287157D01*
X115052843Y-65122658D01*
X114859413Y-64993412D01*
X114644485Y-64904386D01*
X114416318Y-64859000D01*
X114183682Y-64859000D01*
X113955515Y-64904386D01*
X113740587Y-64993412D01*
X113547157Y-65122658D01*
X113382658Y-65287157D01*
X113253412Y-65480587D01*
X113164386Y-65695515D01*
X113119000Y-65923682D01*
X112903000Y-65923682D01*
X112903000Y-63383682D01*
X113119000Y-63383682D01*
X113119000Y-63616318D01*
X113164386Y-63844485D01*
X113253412Y-64059413D01*
X113382658Y-64252843D01*
X113547157Y-64417342D01*
X113740587Y-64546588D01*
X113955515Y-64635614D01*
X114183682Y-64681000D01*
X114416318Y-64681000D01*
X114644485Y-64635614D01*
X114859413Y-64546588D01*
X115052843Y-64417342D01*
X115217342Y-64252843D01*
X115346588Y-64059413D01*
X115435614Y-63844485D01*
X115481000Y-63616318D01*
X115481000Y-63383682D01*
X115659000Y-63383682D01*
X115659000Y-63616318D01*
X115704386Y-63844485D01*
X115793412Y-64059413D01*
X115922658Y-64252843D01*
X116087157Y-64417342D01*
X116280587Y-64546588D01*
X116495515Y-64635614D01*
X116723682Y-64681000D01*
X116956318Y-64681000D01*
X117184485Y-64635614D01*
X117399413Y-64546588D01*
X117592843Y-64417342D01*
X117757342Y-64252843D01*
X117886588Y-64059413D01*
X117975614Y-63844485D01*
X118021000Y-63616318D01*
X118021000Y-63383682D01*
X117975614Y-63155515D01*
X117886588Y-62940587D01*
X117757342Y-62747157D01*
X117592843Y-62582658D01*
X117399413Y-62453412D01*
X117184485Y-62364386D01*
X116956318Y-62319000D01*
X116723682Y-62319000D01*
X116495515Y-62364386D01*
X116280587Y-62453412D01*
X116087157Y-62582658D01*
X115922658Y-62747157D01*
X115793412Y-62940587D01*
X115704386Y-63155515D01*
X115659000Y-63383682D01*
X115481000Y-63383682D01*
X115435614Y-63155515D01*
X115346588Y-62940587D01*
X115217342Y-62747157D01*
X115052843Y-62582658D01*
X114859413Y-62453412D01*
X114644485Y-62364386D01*
X114416318Y-62319000D01*
X114183682Y-62319000D01*
X113955515Y-62364386D01*
X113740587Y-62453412D01*
X113547157Y-62582658D01*
X113382658Y-62747157D01*
X113253412Y-62940587D01*
X113164386Y-63155515D01*
X113119000Y-63383682D01*
X112903000Y-63383682D01*
X112903000Y-60843682D01*
X113119000Y-60843682D01*
X113119000Y-61076318D01*
X113164386Y-61304485D01*
X113253412Y-61519413D01*
X113382658Y-61712843D01*
X113547157Y-61877342D01*
X113740587Y-62006588D01*
X113955515Y-62095614D01*
X114183682Y-62141000D01*
X114416318Y-62141000D01*
X114644485Y-62095614D01*
X114859413Y-62006588D01*
X115052843Y-61877342D01*
X115217342Y-61712843D01*
X115346588Y-61519413D01*
X115435614Y-61304485D01*
X115481000Y-61076318D01*
X115481000Y-60843682D01*
X115659000Y-60843682D01*
X115659000Y-61076318D01*
X115704386Y-61304485D01*
X115793412Y-61519413D01*
X115922658Y-61712843D01*
X116087157Y-61877342D01*
X116280587Y-62006588D01*
X116495515Y-62095614D01*
X116723682Y-62141000D01*
X116956318Y-62141000D01*
X117184485Y-62095614D01*
X117399413Y-62006588D01*
X117592843Y-61877342D01*
X117757342Y-61712843D01*
X117886588Y-61519413D01*
X117975614Y-61304485D01*
X118021000Y-61076318D01*
X118021000Y-60843682D01*
X117975614Y-60615515D01*
X117886588Y-60400587D01*
X117757342Y-60207157D01*
X117592843Y-60042658D01*
X117399413Y-59913412D01*
X117184485Y-59824386D01*
X116956318Y-59779000D01*
X116723682Y-59779000D01*
X116495515Y-59824386D01*
X116280587Y-59913412D01*
X116087157Y-60042658D01*
X115922658Y-60207157D01*
X115793412Y-60400587D01*
X115704386Y-60615515D01*
X115659000Y-60843682D01*
X115481000Y-60843682D01*
X115435614Y-60615515D01*
X115346588Y-60400587D01*
X115217342Y-60207157D01*
X115052843Y-60042658D01*
X114859413Y-59913412D01*
X114644485Y-59824386D01*
X114416318Y-59779000D01*
X114183682Y-59779000D01*
X113955515Y-59824386D01*
X113740587Y-59913412D01*
X113547157Y-60042658D01*
X113382658Y-60207157D01*
X113253412Y-60400587D01*
X113164386Y-60615515D01*
X113119000Y-60843682D01*
X112903000Y-60843682D01*
X112903000Y-58303682D01*
X113119000Y-58303682D01*
X113119000Y-58536318D01*
X113164386Y-58764485D01*
X113253412Y-58979413D01*
X113382658Y-59172843D01*
X113547157Y-59337342D01*
X113740587Y-59466588D01*
X113955515Y-59555614D01*
X114183682Y-59601000D01*
X114416318Y-59601000D01*
X114644485Y-59555614D01*
X114859413Y-59466588D01*
X115052843Y-59337342D01*
X115217342Y-59172843D01*
X115346588Y-58979413D01*
X115435614Y-58764485D01*
X115481000Y-58536318D01*
X115481000Y-58303682D01*
X115435614Y-58075515D01*
X115346588Y-57860587D01*
X115217342Y-57667157D01*
X115052843Y-57502658D01*
X114859413Y-57373412D01*
X114644485Y-57284386D01*
X114416318Y-57239000D01*
X114183682Y-57239000D01*
X113955515Y-57284386D01*
X113740587Y-57373412D01*
X113547157Y-57502658D01*
X113382658Y-57667157D01*
X113253412Y-57860587D01*
X113164386Y-58075515D01*
X113119000Y-58303682D01*
X112903000Y-58303682D01*
X112903000Y-55763682D01*
X113119000Y-55763682D01*
X113119000Y-55996318D01*
X113164386Y-56224485D01*
X113253412Y-56439413D01*
X113382658Y-56632843D01*
X113547157Y-56797342D01*
X113740587Y-56926588D01*
X113955515Y-57015614D01*
X114183682Y-57061000D01*
X114416318Y-57061000D01*
X114644485Y-57015614D01*
X114859413Y-56926588D01*
X115052843Y-56797342D01*
X115217342Y-56632843D01*
X115346588Y-56439413D01*
X115435614Y-56224485D01*
X115481000Y-55996318D01*
X115481000Y-55763682D01*
X115435614Y-55535515D01*
X115346588Y-55320587D01*
X115217342Y-55127157D01*
X115052843Y-54962658D01*
X114859413Y-54833412D01*
X114644485Y-54744386D01*
X114416318Y-54699000D01*
X114183682Y-54699000D01*
X113955515Y-54744386D01*
X113740587Y-54833412D01*
X113547157Y-54962658D01*
X113382658Y-55127157D01*
X113253412Y-55320587D01*
X113164386Y-55535515D01*
X113119000Y-55763682D01*
X112903000Y-55763682D01*
X112903000Y-53223682D01*
X113119000Y-53223682D01*
X113119000Y-53456318D01*
X113164386Y-53684485D01*
X113253412Y-53899413D01*
X113382658Y-54092843D01*
X113547157Y-54257342D01*
X113740587Y-54386588D01*
X113955515Y-54475614D01*
X114183682Y-54521000D01*
X114416318Y-54521000D01*
X114644485Y-54475614D01*
X114859413Y-54386588D01*
X115052843Y-54257342D01*
X115217342Y-54092843D01*
X115346588Y-53899413D01*
X115435614Y-53684485D01*
X115481000Y-53456318D01*
X115481000Y-53223682D01*
X115435614Y-52995515D01*
X115346588Y-52780587D01*
X115217342Y-52587157D01*
X115052843Y-52422658D01*
X114859413Y-52293412D01*
X114644485Y-52204386D01*
X114416318Y-52159000D01*
X114183682Y-52159000D01*
X113955515Y-52204386D01*
X113740587Y-52293412D01*
X113547157Y-52422658D01*
X113382658Y-52587157D01*
X113253412Y-52780587D01*
X113164386Y-52995515D01*
X113119000Y-53223682D01*
X112903000Y-53223682D01*
X112903000Y-50000000D01*
X113117157Y-50000000D01*
X113117157Y-51600000D01*
X113124513Y-51674689D01*
X113146299Y-51746508D01*
X113181678Y-51812696D01*
X113229289Y-51870711D01*
X113287304Y-51918322D01*
X113353492Y-51953701D01*
X113425311Y-51975487D01*
X113500000Y-51982843D01*
X115100000Y-51982843D01*
X115174689Y-51975487D01*
X115246508Y-51953701D01*
X115312696Y-51918322D01*
X115370711Y-51870711D01*
X115418322Y-51812696D01*
X115453701Y-51746508D01*
X115475487Y-51674689D01*
X115482843Y-51600000D01*
X115482843Y-50000000D01*
X115475487Y-49925311D01*
X115453701Y-49853492D01*
X115418322Y-49787304D01*
X115370711Y-49729289D01*
X115312696Y-49681678D01*
X115246508Y-49646299D01*
X115174689Y-49624513D01*
X115100000Y-49617157D01*
X113500000Y-49617157D01*
X113425311Y-49624513D01*
X113353492Y-49646299D01*
X113287304Y-49681678D01*
X113229289Y-49729289D01*
X113181678Y-49787304D01*
X113146299Y-49853492D01*
X113124513Y-49925311D01*
X113117157Y-50000000D01*
X112903000Y-50000000D01*
X112903000Y-43800000D01*
X114691553Y-43800000D01*
X114694001Y-43824856D01*
X114694000Y-46375154D01*
X114691553Y-46400000D01*
X114694000Y-46424846D01*
X114694000Y-46424853D01*
X114701322Y-46499192D01*
X114730255Y-46594574D01*
X114777241Y-46682479D01*
X114840473Y-46759527D01*
X114859785Y-46775376D01*
X115424628Y-47340220D01*
X115440473Y-47359527D01*
X115517521Y-47422759D01*
X115605425Y-47469745D01*
X115700806Y-47498678D01*
X115710694Y-47499652D01*
X115775146Y-47506000D01*
X115775153Y-47506000D01*
X115799999Y-47508447D01*
X115824845Y-47506000D01*
X115923815Y-47506000D01*
X115922658Y-47507157D01*
X115793412Y-47700587D01*
X115704386Y-47915515D01*
X115659000Y-48143682D01*
X115659000Y-48376318D01*
X115704386Y-48604485D01*
X115793412Y-48819413D01*
X115922658Y-49012843D01*
X116087157Y-49177342D01*
X116280587Y-49306588D01*
X116495515Y-49395614D01*
X116723682Y-49441000D01*
X116956318Y-49441000D01*
X117184485Y-49395614D01*
X117399413Y-49306588D01*
X117592843Y-49177342D01*
X117694001Y-49076184D01*
X117694001Y-49983816D01*
X117592843Y-49882658D01*
X117399413Y-49753412D01*
X117184485Y-49664386D01*
X116956318Y-49619000D01*
X116723682Y-49619000D01*
X116495515Y-49664386D01*
X116280587Y-49753412D01*
X116087157Y-49882658D01*
X115922658Y-50047157D01*
X115793412Y-50240587D01*
X115704386Y-50455515D01*
X115659000Y-50683682D01*
X115659000Y-50916318D01*
X115704386Y-51144485D01*
X115793412Y-51359413D01*
X115922658Y-51552843D01*
X116087157Y-51717342D01*
X116280587Y-51846588D01*
X116495515Y-51935614D01*
X116723682Y-51981000D01*
X116956318Y-51981000D01*
X117184485Y-51935614D01*
X117399413Y-51846588D01*
X117592843Y-51717342D01*
X117694001Y-51616184D01*
X117694001Y-52523816D01*
X117592843Y-52422658D01*
X117399413Y-52293412D01*
X117184485Y-52204386D01*
X116956318Y-52159000D01*
X116723682Y-52159000D01*
X116495515Y-52204386D01*
X116280587Y-52293412D01*
X116087157Y-52422658D01*
X115922658Y-52587157D01*
X115793412Y-52780587D01*
X115704386Y-52995515D01*
X115659000Y-53223682D01*
X115659000Y-53456318D01*
X115704386Y-53684485D01*
X115793412Y-53899413D01*
X115922658Y-54092843D01*
X116087157Y-54257342D01*
X116280587Y-54386588D01*
X116495515Y-54475614D01*
X116723682Y-54521000D01*
X116956318Y-54521000D01*
X117184485Y-54475614D01*
X117399413Y-54386588D01*
X117592843Y-54257342D01*
X117694000Y-54156185D01*
X117694000Y-55063815D01*
X117592843Y-54962658D01*
X117399413Y-54833412D01*
X117184485Y-54744386D01*
X116956318Y-54699000D01*
X116723682Y-54699000D01*
X116495515Y-54744386D01*
X116280587Y-54833412D01*
X116087157Y-54962658D01*
X115922658Y-55127157D01*
X115793412Y-55320587D01*
X115704386Y-55535515D01*
X115659000Y-55763682D01*
X115659000Y-55996318D01*
X115704386Y-56224485D01*
X115793412Y-56439413D01*
X115922658Y-56632843D01*
X116087157Y-56797342D01*
X116280587Y-56926588D01*
X116495515Y-57015614D01*
X116723682Y-57061000D01*
X116956318Y-57061000D01*
X117184485Y-57015614D01*
X117399413Y-56926588D01*
X117592843Y-56797342D01*
X117694000Y-56696185D01*
X117694000Y-57603815D01*
X117592843Y-57502658D01*
X117399413Y-57373412D01*
X117184485Y-57284386D01*
X116956318Y-57239000D01*
X116723682Y-57239000D01*
X116495515Y-57284386D01*
X116280587Y-57373412D01*
X116087157Y-57502658D01*
X115922658Y-57667157D01*
X115793412Y-57860587D01*
X115704386Y-58075515D01*
X115659000Y-58303682D01*
X115659000Y-58536318D01*
X115704386Y-58764485D01*
X115793412Y-58979413D01*
X115922658Y-59172843D01*
X116087157Y-59337342D01*
X116280587Y-59466588D01*
X116495515Y-59555614D01*
X116723682Y-59601000D01*
X116956318Y-59601000D01*
X117184485Y-59555614D01*
X117399413Y-59466588D01*
X117592843Y-59337342D01*
X117694000Y-59236185D01*
X117694000Y-59755154D01*
X117691553Y-59780000D01*
X117694000Y-59804846D01*
X117694000Y-59804853D01*
X117701322Y-59879192D01*
X117730255Y-59974574D01*
X117777241Y-60062479D01*
X117840473Y-60139527D01*
X117859785Y-60155376D01*
X118228242Y-60523833D01*
X118196307Y-60600931D01*
X118149000Y-60838757D01*
X118149000Y-61081243D01*
X118196307Y-61319069D01*
X118289102Y-61543097D01*
X118423820Y-61744717D01*
X118595283Y-61916180D01*
X118796903Y-62050898D01*
X119020931Y-62143693D01*
X119258757Y-62191000D01*
X119501243Y-62191000D01*
X119739069Y-62143693D01*
X119963097Y-62050898D01*
X120164717Y-61916180D01*
X120336180Y-61744717D01*
X120470898Y-61543097D01*
X120563693Y-61319069D01*
X120611000Y-61081243D01*
X120611000Y-60838757D01*
X120563693Y-60600931D01*
X120470898Y-60376903D01*
X120336180Y-60175283D01*
X120164717Y-60003820D01*
X119963097Y-59869102D01*
X119739069Y-59776307D01*
X119501243Y-59729000D01*
X119258757Y-59729000D01*
X119020931Y-59776307D01*
X118943833Y-59808242D01*
X118706000Y-59570409D01*
X118706000Y-59450159D01*
X118796903Y-59510898D01*
X119020931Y-59603693D01*
X119258757Y-59651000D01*
X119501243Y-59651000D01*
X119739069Y-59603693D01*
X119963097Y-59510898D01*
X120164717Y-59376180D01*
X120336180Y-59204717D01*
X120470898Y-59003097D01*
X120563693Y-58779069D01*
X120611000Y-58541243D01*
X120611000Y-58298757D01*
X120689000Y-58298757D01*
X120689000Y-58541243D01*
X120736307Y-58779069D01*
X120829102Y-59003097D01*
X120963820Y-59204717D01*
X121135283Y-59376180D01*
X121336903Y-59510898D01*
X121560931Y-59603693D01*
X121798757Y-59651000D01*
X122041243Y-59651000D01*
X122279069Y-59603693D01*
X122503097Y-59510898D01*
X122704717Y-59376180D01*
X122876180Y-59204717D01*
X123010898Y-59003097D01*
X123103693Y-58779069D01*
X123151000Y-58541243D01*
X123151000Y-58298757D01*
X123103693Y-58060931D01*
X123010898Y-57836903D01*
X122876180Y-57635283D01*
X122704717Y-57463820D01*
X122503097Y-57329102D01*
X122279069Y-57236307D01*
X122041243Y-57189000D01*
X121798757Y-57189000D01*
X121560931Y-57236307D01*
X121336903Y-57329102D01*
X121135283Y-57463820D01*
X120963820Y-57635283D01*
X120829102Y-57836903D01*
X120736307Y-58060931D01*
X120689000Y-58298757D01*
X120611000Y-58298757D01*
X120563693Y-58060931D01*
X120470898Y-57836903D01*
X120336180Y-57635283D01*
X120164717Y-57463820D01*
X119963097Y-57329102D01*
X119739069Y-57236307D01*
X119501243Y-57189000D01*
X119258757Y-57189000D01*
X119020931Y-57236307D01*
X118796903Y-57329102D01*
X118706000Y-57389841D01*
X118706000Y-47624845D01*
X118708447Y-47599999D01*
X118706000Y-47575153D01*
X118706000Y-47575146D01*
X118699652Y-47510694D01*
X118698678Y-47500806D01*
X118669745Y-47405425D01*
X118666845Y-47399999D01*
X118622759Y-47317521D01*
X118559527Y-47240473D01*
X118540220Y-47224628D01*
X117975376Y-46659785D01*
X117959527Y-46640473D01*
X117882479Y-46577241D01*
X117794575Y-46530255D01*
X117721958Y-46508227D01*
X117757342Y-46472843D01*
X117886588Y-46279413D01*
X117908712Y-46226000D01*
X119910409Y-46226000D01*
X123954001Y-50269593D01*
X123954000Y-57297167D01*
X123876903Y-57329102D01*
X123675283Y-57463820D01*
X123503820Y-57635283D01*
X123369102Y-57836903D01*
X123276307Y-58060931D01*
X123229000Y-58298757D01*
X123229000Y-58541243D01*
X123276307Y-58779069D01*
X123369102Y-59003097D01*
X123503820Y-59204717D01*
X123675283Y-59376180D01*
X123876903Y-59510898D01*
X124100931Y-59603693D01*
X124338757Y-59651000D01*
X124581243Y-59651000D01*
X124819069Y-59603693D01*
X125043097Y-59510898D01*
X125244717Y-59376180D01*
X125393978Y-59226919D01*
X125393978Y-59310430D01*
X124896167Y-59808242D01*
X124819069Y-59776307D01*
X124581243Y-59729000D01*
X124338757Y-59729000D01*
X124100931Y-59776307D01*
X123876903Y-59869102D01*
X123675283Y-60003820D01*
X123503820Y-60175283D01*
X123369102Y-60376903D01*
X123276307Y-60600931D01*
X123229000Y-60838757D01*
X123229000Y-61081243D01*
X123276307Y-61319069D01*
X123369102Y-61543097D01*
X123503820Y-61744717D01*
X123653103Y-61894000D01*
X123569592Y-61894000D01*
X123071758Y-61396167D01*
X123103693Y-61319069D01*
X123151000Y-61081243D01*
X123151000Y-60838757D01*
X123103693Y-60600931D01*
X123010898Y-60376903D01*
X122876180Y-60175283D01*
X122704717Y-60003820D01*
X122503097Y-59869102D01*
X122279069Y-59776307D01*
X122041243Y-59729000D01*
X121798757Y-59729000D01*
X121560931Y-59776307D01*
X121336903Y-59869102D01*
X121135283Y-60003820D01*
X120963820Y-60175283D01*
X120829102Y-60376903D01*
X120736307Y-60600931D01*
X120689000Y-60838757D01*
X120689000Y-61081243D01*
X120736307Y-61319069D01*
X120829102Y-61543097D01*
X120963820Y-61744717D01*
X121135283Y-61916180D01*
X121336903Y-62050898D01*
X121560931Y-62143693D01*
X121798757Y-62191000D01*
X122041243Y-62191000D01*
X122279069Y-62143693D01*
X122356167Y-62111758D01*
X122984628Y-62740220D01*
X123000473Y-62759527D01*
X123077521Y-62822759D01*
X123146309Y-62859527D01*
X123165425Y-62869745D01*
X123260807Y-62898678D01*
X123360000Y-62908448D01*
X123384854Y-62906000D01*
X125375154Y-62906000D01*
X125400000Y-62908447D01*
X125424846Y-62906000D01*
X125424854Y-62906000D01*
X125499193Y-62898678D01*
X125594575Y-62869745D01*
X125682479Y-62822759D01*
X125759527Y-62759527D01*
X125775376Y-62740215D01*
X126294000Y-62221591D01*
X126294000Y-69693073D01*
X126291553Y-69717919D01*
X126294000Y-69742765D01*
X126294000Y-69742772D01*
X126301322Y-69817111D01*
X126330255Y-69912493D01*
X126377241Y-70000398D01*
X126406502Y-70036052D01*
X126215283Y-70163820D01*
X126043820Y-70335283D01*
X125909102Y-70536903D01*
X125816307Y-70760931D01*
X125769000Y-70998757D01*
X125769000Y-71241243D01*
X125816307Y-71479069D01*
X125909102Y-71703097D01*
X126043820Y-71904717D01*
X126215283Y-72076180D01*
X126416903Y-72210898D01*
X126640931Y-72303693D01*
X126878757Y-72351000D01*
X127121243Y-72351000D01*
X127359069Y-72303693D01*
X127583097Y-72210898D01*
X127784717Y-72076180D01*
X127956180Y-71904717D01*
X128090898Y-71703097D01*
X128183693Y-71479069D01*
X128231000Y-71241243D01*
X128231000Y-71003682D01*
X128359000Y-71003682D01*
X128359000Y-71236318D01*
X128404386Y-71464485D01*
X128493412Y-71679413D01*
X128622658Y-71872843D01*
X128787157Y-72037342D01*
X128980587Y-72166588D01*
X129195515Y-72255614D01*
X129423682Y-72301000D01*
X129656318Y-72301000D01*
X129884485Y-72255614D01*
X130099413Y-72166588D01*
X130292843Y-72037342D01*
X130457342Y-71872843D01*
X130586588Y-71679413D01*
X130675614Y-71464485D01*
X130721000Y-71236318D01*
X130721000Y-71003682D01*
X130899000Y-71003682D01*
X130899000Y-71236318D01*
X130944386Y-71464485D01*
X131033412Y-71679413D01*
X131162658Y-71872843D01*
X131327157Y-72037342D01*
X131520587Y-72166588D01*
X131735515Y-72255614D01*
X131963682Y-72301000D01*
X132196318Y-72301000D01*
X132424485Y-72255614D01*
X132639413Y-72166588D01*
X132832843Y-72037342D01*
X132997342Y-71872843D01*
X133126588Y-71679413D01*
X133215614Y-71464485D01*
X133261000Y-71236318D01*
X133261000Y-71003682D01*
X133215614Y-70775515D01*
X133126588Y-70560587D01*
X132997342Y-70367157D01*
X132832843Y-70202658D01*
X132639413Y-70073412D01*
X132424485Y-69984386D01*
X132196318Y-69939000D01*
X131963682Y-69939000D01*
X131735515Y-69984386D01*
X131520587Y-70073412D01*
X131327157Y-70202658D01*
X131162658Y-70367157D01*
X131033412Y-70560587D01*
X130944386Y-70775515D01*
X130899000Y-71003682D01*
X130721000Y-71003682D01*
X130675614Y-70775515D01*
X130586588Y-70560587D01*
X130457342Y-70367157D01*
X130292843Y-70202658D01*
X130099413Y-70073412D01*
X129884485Y-69984386D01*
X129656318Y-69939000D01*
X129423682Y-69939000D01*
X129195515Y-69984386D01*
X128980587Y-70073412D01*
X128787157Y-70202658D01*
X128622658Y-70367157D01*
X128493412Y-70560587D01*
X128404386Y-70775515D01*
X128359000Y-71003682D01*
X128231000Y-71003682D01*
X128231000Y-70998757D01*
X128183693Y-70760931D01*
X128090898Y-70536903D01*
X127956180Y-70335283D01*
X127784717Y-70163820D01*
X127583097Y-70029102D01*
X127506000Y-69997168D01*
X127506000Y-69942773D01*
X127508448Y-69917919D01*
X127498678Y-69818726D01*
X127469745Y-69723344D01*
X127465613Y-69715614D01*
X127422759Y-69635440D01*
X127359527Y-69558392D01*
X127340215Y-69542543D01*
X127306000Y-69508328D01*
X127306000Y-62500000D01*
X127491553Y-62500000D01*
X127494000Y-62524846D01*
X127494001Y-66775144D01*
X127491553Y-66800000D01*
X127501322Y-66899192D01*
X127530255Y-66994574D01*
X127552127Y-67035492D01*
X127577242Y-67082479D01*
X127640474Y-67159527D01*
X127659780Y-67175371D01*
X128124628Y-67640220D01*
X128140473Y-67659527D01*
X128217521Y-67722759D01*
X128305425Y-67769745D01*
X128400807Y-67798678D01*
X128500000Y-67808448D01*
X128524854Y-67806000D01*
X128643815Y-67806000D01*
X128622658Y-67827157D01*
X128493412Y-68020587D01*
X128404386Y-68235515D01*
X128359000Y-68463682D01*
X128359000Y-68696318D01*
X128404386Y-68924485D01*
X128493412Y-69139413D01*
X128622658Y-69332843D01*
X128787157Y-69497342D01*
X128980587Y-69626588D01*
X129195515Y-69715614D01*
X129423682Y-69761000D01*
X129656318Y-69761000D01*
X129884485Y-69715614D01*
X130099413Y-69626588D01*
X130292843Y-69497342D01*
X130457342Y-69332843D01*
X130586588Y-69139413D01*
X130675614Y-68924485D01*
X130721000Y-68696318D01*
X130721000Y-68463682D01*
X130899000Y-68463682D01*
X130899000Y-68696318D01*
X130944386Y-68924485D01*
X131033412Y-69139413D01*
X131162658Y-69332843D01*
X131327157Y-69497342D01*
X131520587Y-69626588D01*
X131735515Y-69715614D01*
X131963682Y-69761000D01*
X132196318Y-69761000D01*
X132424485Y-69715614D01*
X132639413Y-69626588D01*
X132832843Y-69497342D01*
X132997342Y-69332843D01*
X133126588Y-69139413D01*
X133215614Y-68924485D01*
X133261000Y-68696318D01*
X133261000Y-68463682D01*
X133215614Y-68235515D01*
X133126588Y-68020587D01*
X132997342Y-67827157D01*
X132832843Y-67662658D01*
X132639413Y-67533412D01*
X132424485Y-67444386D01*
X132196318Y-67399000D01*
X131963682Y-67399000D01*
X131735515Y-67444386D01*
X131520587Y-67533412D01*
X131327157Y-67662658D01*
X131162658Y-67827157D01*
X131033412Y-68020587D01*
X130944386Y-68235515D01*
X130899000Y-68463682D01*
X130721000Y-68463682D01*
X130675614Y-68235515D01*
X130586588Y-68020587D01*
X130457342Y-67827157D01*
X130436185Y-67806000D01*
X130795154Y-67806000D01*
X130820000Y-67808447D01*
X130844846Y-67806000D01*
X130844854Y-67806000D01*
X130919193Y-67798678D01*
X131014575Y-67769745D01*
X131102479Y-67722759D01*
X131179527Y-67659527D01*
X131195376Y-67640215D01*
X131682102Y-67153490D01*
X131735515Y-67175614D01*
X131963682Y-67221000D01*
X132196318Y-67221000D01*
X132424485Y-67175614D01*
X132639413Y-67086588D01*
X132832843Y-66957342D01*
X132997342Y-66792843D01*
X133126588Y-66599413D01*
X133215614Y-66384485D01*
X133261000Y-66156318D01*
X133261000Y-65923682D01*
X133215614Y-65695515D01*
X133126588Y-65480587D01*
X132997342Y-65287157D01*
X132832843Y-65122658D01*
X132639413Y-64993412D01*
X132424485Y-64904386D01*
X132196318Y-64859000D01*
X131963682Y-64859000D01*
X131735515Y-64904386D01*
X131520587Y-64993412D01*
X131327157Y-65122658D01*
X131162658Y-65287157D01*
X131033412Y-65480587D01*
X130944386Y-65695515D01*
X130899000Y-65923682D01*
X130899000Y-66156318D01*
X130944386Y-66384485D01*
X130966510Y-66437898D01*
X130610409Y-66794000D01*
X130456185Y-66794000D01*
X130457342Y-66792843D01*
X130586588Y-66599413D01*
X130675614Y-66384485D01*
X130721000Y-66156318D01*
X130721000Y-65923682D01*
X130675614Y-65695515D01*
X130653490Y-65642102D01*
X130715369Y-65580223D01*
X130715373Y-65580218D01*
X131140220Y-65155372D01*
X131159527Y-65139527D01*
X131222759Y-65062479D01*
X131269745Y-64974575D01*
X131298678Y-64879193D01*
X131306000Y-64804854D01*
X131308448Y-64780000D01*
X131306000Y-64755146D01*
X131306000Y-64396185D01*
X131327157Y-64417342D01*
X131520587Y-64546588D01*
X131735515Y-64635614D01*
X131963682Y-64681000D01*
X132196318Y-64681000D01*
X132424485Y-64635614D01*
X132639413Y-64546588D01*
X132832843Y-64417342D01*
X132997342Y-64252843D01*
X133126588Y-64059413D01*
X133215614Y-63844485D01*
X133261000Y-63616318D01*
X133261000Y-63383682D01*
X133215614Y-63155515D01*
X133126588Y-62940587D01*
X132997342Y-62747157D01*
X132832843Y-62582658D01*
X132639413Y-62453412D01*
X132424485Y-62364386D01*
X132196318Y-62319000D01*
X131963682Y-62319000D01*
X131735515Y-62364386D01*
X131520587Y-62453412D01*
X131327157Y-62582658D01*
X131306000Y-62603815D01*
X131306000Y-61856185D01*
X131327157Y-61877342D01*
X131520587Y-62006588D01*
X131735515Y-62095614D01*
X131963682Y-62141000D01*
X132196318Y-62141000D01*
X132424485Y-62095614D01*
X132639413Y-62006588D01*
X132832843Y-61877342D01*
X132997342Y-61712843D01*
X133126588Y-61519413D01*
X133215614Y-61304485D01*
X133261000Y-61076318D01*
X133261000Y-60843682D01*
X133215614Y-60615515D01*
X133126588Y-60400587D01*
X132997342Y-60207157D01*
X132832843Y-60042658D01*
X132639413Y-59913412D01*
X132424485Y-59824386D01*
X132196318Y-59779000D01*
X131963682Y-59779000D01*
X131735515Y-59824386D01*
X131520587Y-59913412D01*
X131327157Y-60042658D01*
X131306000Y-60063815D01*
X131306000Y-60009591D01*
X131755919Y-59559673D01*
X131963682Y-59601000D01*
X132196318Y-59601000D01*
X132424485Y-59555614D01*
X132639413Y-59466588D01*
X132832843Y-59337342D01*
X132997342Y-59172843D01*
X133126588Y-58979413D01*
X133215614Y-58764485D01*
X133261000Y-58536318D01*
X133261000Y-58303682D01*
X133215614Y-58075515D01*
X133126588Y-57860587D01*
X132997342Y-57667157D01*
X132832843Y-57502658D01*
X132639413Y-57373412D01*
X132424485Y-57284386D01*
X132196318Y-57239000D01*
X131963682Y-57239000D01*
X131735515Y-57284386D01*
X131520587Y-57373412D01*
X131327157Y-57502658D01*
X131162658Y-57667157D01*
X131033412Y-57860587D01*
X130944386Y-58075515D01*
X130899000Y-58303682D01*
X130899000Y-58536318D01*
X130944386Y-58764485D01*
X130995800Y-58888609D01*
X130459785Y-59424624D01*
X130440473Y-59440473D01*
X130377241Y-59517521D01*
X130330255Y-59605426D01*
X130301322Y-59700808D01*
X130294000Y-59775147D01*
X130294000Y-59775154D01*
X130291553Y-59800000D01*
X130294000Y-59824846D01*
X130294000Y-60043815D01*
X130292843Y-60042658D01*
X130099413Y-59913412D01*
X129884485Y-59824386D01*
X129656318Y-59779000D01*
X129423682Y-59779000D01*
X129195515Y-59824386D01*
X128980587Y-59913412D01*
X128787157Y-60042658D01*
X128622658Y-60207157D01*
X128493412Y-60400587D01*
X128404386Y-60615515D01*
X128359000Y-60843682D01*
X128359000Y-61076318D01*
X128404386Y-61304485D01*
X128426510Y-61357898D01*
X127659785Y-62124624D01*
X127640473Y-62140473D01*
X127577241Y-62217521D01*
X127530255Y-62305426D01*
X127501322Y-62400808D01*
X127494000Y-62475147D01*
X127494000Y-62475154D01*
X127491553Y-62500000D01*
X127306000Y-62500000D01*
X127306000Y-58303682D01*
X128359000Y-58303682D01*
X128359000Y-58536318D01*
X128404386Y-58764485D01*
X128493412Y-58979413D01*
X128622658Y-59172843D01*
X128787157Y-59337342D01*
X128980587Y-59466588D01*
X129195515Y-59555614D01*
X129423682Y-59601000D01*
X129656318Y-59601000D01*
X129884485Y-59555614D01*
X130099413Y-59466588D01*
X130292843Y-59337342D01*
X130457342Y-59172843D01*
X130586588Y-58979413D01*
X130675614Y-58764485D01*
X130721000Y-58536318D01*
X130721000Y-58303682D01*
X130675614Y-58075515D01*
X130586588Y-57860587D01*
X130457342Y-57667157D01*
X130292843Y-57502658D01*
X130099413Y-57373412D01*
X129884485Y-57284386D01*
X129656318Y-57239000D01*
X129423682Y-57239000D01*
X129195515Y-57284386D01*
X128980587Y-57373412D01*
X128787157Y-57502658D01*
X128622658Y-57667157D01*
X128493412Y-57860587D01*
X128404386Y-58075515D01*
X128359000Y-58303682D01*
X127306000Y-58303682D01*
X127306000Y-55763682D01*
X128359000Y-55763682D01*
X128359000Y-55996318D01*
X128404386Y-56224485D01*
X128493412Y-56439413D01*
X128622658Y-56632843D01*
X128787157Y-56797342D01*
X128980587Y-56926588D01*
X129195515Y-57015614D01*
X129423682Y-57061000D01*
X129656318Y-57061000D01*
X129884485Y-57015614D01*
X130099413Y-56926588D01*
X130292843Y-56797342D01*
X130457342Y-56632843D01*
X130586588Y-56439413D01*
X130675614Y-56224485D01*
X130721000Y-55996318D01*
X130721000Y-55763682D01*
X130899000Y-55763682D01*
X130899000Y-55996318D01*
X130944386Y-56224485D01*
X131033412Y-56439413D01*
X131162658Y-56632843D01*
X131327157Y-56797342D01*
X131520587Y-56926588D01*
X131735515Y-57015614D01*
X131963682Y-57061000D01*
X132196318Y-57061000D01*
X132424485Y-57015614D01*
X132639413Y-56926588D01*
X132832843Y-56797342D01*
X132997342Y-56632843D01*
X133126588Y-56439413D01*
X133215614Y-56224485D01*
X133261000Y-55996318D01*
X133261000Y-55763682D01*
X133215614Y-55535515D01*
X133126588Y-55320587D01*
X132997342Y-55127157D01*
X132832843Y-54962658D01*
X132639413Y-54833412D01*
X132424485Y-54744386D01*
X132196318Y-54699000D01*
X131963682Y-54699000D01*
X131735515Y-54744386D01*
X131520587Y-54833412D01*
X131327157Y-54962658D01*
X131162658Y-55127157D01*
X131033412Y-55320587D01*
X130944386Y-55535515D01*
X130899000Y-55763682D01*
X130721000Y-55763682D01*
X130675614Y-55535515D01*
X130586588Y-55320587D01*
X130457342Y-55127157D01*
X130292843Y-54962658D01*
X130099413Y-54833412D01*
X129884485Y-54744386D01*
X129656318Y-54699000D01*
X129423682Y-54699000D01*
X129195515Y-54744386D01*
X128980587Y-54833412D01*
X128787157Y-54962658D01*
X128622658Y-55127157D01*
X128493412Y-55320587D01*
X128404386Y-55535515D01*
X128359000Y-55763682D01*
X127306000Y-55763682D01*
X127306000Y-53223682D01*
X128359000Y-53223682D01*
X128359000Y-53456318D01*
X128404386Y-53684485D01*
X128493412Y-53899413D01*
X128622658Y-54092843D01*
X128787157Y-54257342D01*
X128980587Y-54386588D01*
X129195515Y-54475614D01*
X129423682Y-54521000D01*
X129656318Y-54521000D01*
X129884485Y-54475614D01*
X130099413Y-54386588D01*
X130292843Y-54257342D01*
X130457342Y-54092843D01*
X130586588Y-53899413D01*
X130675614Y-53684485D01*
X130721000Y-53456318D01*
X130721000Y-53223682D01*
X130899000Y-53223682D01*
X130899000Y-53456318D01*
X130944386Y-53684485D01*
X131033412Y-53899413D01*
X131162658Y-54092843D01*
X131327157Y-54257342D01*
X131520587Y-54386588D01*
X131735515Y-54475614D01*
X131963682Y-54521000D01*
X132196318Y-54521000D01*
X132424485Y-54475614D01*
X132639413Y-54386588D01*
X132832843Y-54257342D01*
X132997342Y-54092843D01*
X133126588Y-53899413D01*
X133215614Y-53684485D01*
X133261000Y-53456318D01*
X133261000Y-53223682D01*
X133215614Y-52995515D01*
X133126588Y-52780587D01*
X132997342Y-52587157D01*
X132832843Y-52422658D01*
X132639413Y-52293412D01*
X132424485Y-52204386D01*
X132196318Y-52159000D01*
X131963682Y-52159000D01*
X131735515Y-52204386D01*
X131520587Y-52293412D01*
X131327157Y-52422658D01*
X131162658Y-52587157D01*
X131033412Y-52780587D01*
X130944386Y-52995515D01*
X130899000Y-53223682D01*
X130721000Y-53223682D01*
X130675614Y-52995515D01*
X130586588Y-52780587D01*
X130457342Y-52587157D01*
X130292843Y-52422658D01*
X130099413Y-52293412D01*
X129884485Y-52204386D01*
X129656318Y-52159000D01*
X129423682Y-52159000D01*
X129195515Y-52204386D01*
X128980587Y-52293412D01*
X128787157Y-52422658D01*
X128622658Y-52587157D01*
X128493412Y-52780587D01*
X128404386Y-52995515D01*
X128359000Y-53223682D01*
X127306000Y-53223682D01*
X127306000Y-50683682D01*
X128359000Y-50683682D01*
X128359000Y-50916318D01*
X128404386Y-51144485D01*
X128493412Y-51359413D01*
X128622658Y-51552843D01*
X128787157Y-51717342D01*
X128980587Y-51846588D01*
X129195515Y-51935614D01*
X129423682Y-51981000D01*
X129656318Y-51981000D01*
X129884485Y-51935614D01*
X130099413Y-51846588D01*
X130292843Y-51717342D01*
X130457342Y-51552843D01*
X130586588Y-51359413D01*
X130675614Y-51144485D01*
X130721000Y-50916318D01*
X130721000Y-50683682D01*
X130899000Y-50683682D01*
X130899000Y-50916318D01*
X130944386Y-51144485D01*
X131033412Y-51359413D01*
X131162658Y-51552843D01*
X131327157Y-51717342D01*
X131520587Y-51846588D01*
X131735515Y-51935614D01*
X131963682Y-51981000D01*
X132196318Y-51981000D01*
X132424485Y-51935614D01*
X132639413Y-51846588D01*
X132832843Y-51717342D01*
X132997342Y-51552843D01*
X133126588Y-51359413D01*
X133215614Y-51144485D01*
X133261000Y-50916318D01*
X133261000Y-50683682D01*
X133215614Y-50455515D01*
X133126588Y-50240587D01*
X132997342Y-50047157D01*
X132832843Y-49882658D01*
X132639413Y-49753412D01*
X132424485Y-49664386D01*
X132196318Y-49619000D01*
X131963682Y-49619000D01*
X131735515Y-49664386D01*
X131520587Y-49753412D01*
X131327157Y-49882658D01*
X131162658Y-50047157D01*
X131033412Y-50240587D01*
X130944386Y-50455515D01*
X130899000Y-50683682D01*
X130721000Y-50683682D01*
X130675614Y-50455515D01*
X130586588Y-50240587D01*
X130457342Y-50047157D01*
X130292843Y-49882658D01*
X130175000Y-49803918D01*
X130175000Y-48143682D01*
X130899000Y-48143682D01*
X130899000Y-48376318D01*
X130944386Y-48604485D01*
X131033412Y-48819413D01*
X131162658Y-49012843D01*
X131327157Y-49177342D01*
X131520587Y-49306588D01*
X131735515Y-49395614D01*
X131963682Y-49441000D01*
X132196318Y-49441000D01*
X132424485Y-49395614D01*
X132639413Y-49306588D01*
X132832843Y-49177342D01*
X132997342Y-49012843D01*
X133126588Y-48819413D01*
X133215614Y-48604485D01*
X133261000Y-48376318D01*
X133261000Y-48143682D01*
X133215614Y-47915515D01*
X133126588Y-47700587D01*
X132997342Y-47507157D01*
X132832843Y-47342658D01*
X132639413Y-47213412D01*
X132424485Y-47124386D01*
X132196318Y-47079000D01*
X131963682Y-47079000D01*
X131735515Y-47124386D01*
X131520587Y-47213412D01*
X131327157Y-47342658D01*
X131162658Y-47507157D01*
X131033412Y-47700587D01*
X130944386Y-47915515D01*
X130899000Y-48143682D01*
X130175000Y-48143682D01*
X130175000Y-45603682D01*
X130899000Y-45603682D01*
X130899000Y-45836318D01*
X130944386Y-46064485D01*
X131033412Y-46279413D01*
X131162658Y-46472843D01*
X131327157Y-46637342D01*
X131520587Y-46766588D01*
X131735515Y-46855614D01*
X131963682Y-46901000D01*
X132196318Y-46901000D01*
X132424485Y-46855614D01*
X132639413Y-46766588D01*
X132832843Y-46637342D01*
X132997342Y-46472843D01*
X133126588Y-46279413D01*
X133215614Y-46064485D01*
X133261000Y-45836318D01*
X133261000Y-45603682D01*
X133215614Y-45375515D01*
X133126588Y-45160587D01*
X132997342Y-44967157D01*
X132832843Y-44802658D01*
X132639413Y-44673412D01*
X132424485Y-44584386D01*
X132196318Y-44539000D01*
X131963682Y-44539000D01*
X131735515Y-44584386D01*
X131520587Y-44673412D01*
X131327157Y-44802658D01*
X131162658Y-44967157D01*
X131033412Y-45160587D01*
X130944386Y-45375515D01*
X130899000Y-45603682D01*
X130175000Y-45603682D01*
X130175000Y-43063682D01*
X130899000Y-43063682D01*
X130899000Y-43296318D01*
X130944386Y-43524485D01*
X131033412Y-43739413D01*
X131162658Y-43932843D01*
X131327157Y-44097342D01*
X131520587Y-44226588D01*
X131735515Y-44315614D01*
X131963682Y-44361000D01*
X132196318Y-44361000D01*
X132424485Y-44315614D01*
X132639413Y-44226588D01*
X132832843Y-44097342D01*
X132997342Y-43932843D01*
X133126588Y-43739413D01*
X133215614Y-43524485D01*
X133261000Y-43296318D01*
X133261000Y-43063682D01*
X133215614Y-42835515D01*
X133126588Y-42620587D01*
X132997342Y-42427157D01*
X132832843Y-42262658D01*
X132639413Y-42133412D01*
X132424485Y-42044386D01*
X132196318Y-41999000D01*
X131963682Y-41999000D01*
X131735515Y-42044386D01*
X131520587Y-42133412D01*
X131327157Y-42262658D01*
X131162658Y-42427157D01*
X131033412Y-42620587D01*
X130944386Y-42835515D01*
X130899000Y-43063682D01*
X130175000Y-43063682D01*
X130175000Y-42723024D01*
X131335266Y-41562760D01*
X131520587Y-41686588D01*
X131735515Y-41775614D01*
X131963682Y-41821000D01*
X132196318Y-41821000D01*
X132424485Y-41775614D01*
X132639413Y-41686588D01*
X132832843Y-41557342D01*
X132997342Y-41392843D01*
X133126588Y-41199413D01*
X133215614Y-40984485D01*
X133261000Y-40756318D01*
X133261000Y-40523682D01*
X133215614Y-40295515D01*
X133126588Y-40080587D01*
X132997342Y-39887157D01*
X132832843Y-39722658D01*
X132639413Y-39593412D01*
X132424485Y-39504386D01*
X132196318Y-39459000D01*
X131963682Y-39459000D01*
X131735515Y-39504386D01*
X131520587Y-39593412D01*
X131327157Y-39722658D01*
X131162658Y-39887157D01*
X131033412Y-40080587D01*
X131025986Y-40098515D01*
X131005506Y-40109462D01*
X130933043Y-40168931D01*
X130933039Y-40168935D01*
X130908815Y-40188815D01*
X130888934Y-40213040D01*
X129113050Y-41988926D01*
X129088815Y-42008815D01*
X129009463Y-42105507D01*
X128950498Y-42215821D01*
X128914188Y-42335519D01*
X128905000Y-42428809D01*
X128905000Y-42428819D01*
X128901929Y-42460000D01*
X128905000Y-42491181D01*
X128905001Y-49803917D01*
X128787157Y-49882658D01*
X128622658Y-50047157D01*
X128493412Y-50240587D01*
X128404386Y-50455515D01*
X128359000Y-50683682D01*
X127306000Y-50683682D01*
X127306000Y-48986593D01*
X128540220Y-47752374D01*
X128559527Y-47736529D01*
X128622759Y-47659481D01*
X128669745Y-47571577D01*
X128698678Y-47476195D01*
X128706000Y-47401856D01*
X128706000Y-47401848D01*
X128708447Y-47377002D01*
X128706000Y-47352156D01*
X128706000Y-44888489D01*
X128714875Y-44875207D01*
X128758672Y-44769471D01*
X128781000Y-44657223D01*
X128781000Y-44542777D01*
X128758672Y-44430529D01*
X128714875Y-44324793D01*
X128651292Y-44229634D01*
X128570366Y-44148708D01*
X128475207Y-44085125D01*
X128369471Y-44041328D01*
X128257223Y-44019000D01*
X128142777Y-44019000D01*
X128030529Y-44041328D01*
X127924793Y-44085125D01*
X127829634Y-44148708D01*
X127748708Y-44229634D01*
X127685125Y-44324793D01*
X127641328Y-44430529D01*
X127619000Y-44542777D01*
X127619000Y-44657223D01*
X127641328Y-44769471D01*
X127685125Y-44875207D01*
X127694001Y-44888491D01*
X127694000Y-46626316D01*
X127657223Y-46619000D01*
X127542777Y-46619000D01*
X127430529Y-46641328D01*
X127324793Y-46685125D01*
X127229634Y-46748708D01*
X127148708Y-46829634D01*
X127085125Y-46924793D01*
X127041328Y-47030529D01*
X127038211Y-47046197D01*
X126371883Y-47712525D01*
X126369723Y-47705403D01*
X126357469Y-47682478D01*
X126322737Y-47617499D01*
X126259505Y-47540451D01*
X126240198Y-47524606D01*
X123375375Y-44659784D01*
X123375370Y-44659778D01*
X122938350Y-44222758D01*
X119015376Y-40299785D01*
X118999527Y-40280473D01*
X118922479Y-40217241D01*
X118834575Y-40170255D01*
X118739193Y-40141322D01*
X118664854Y-40134000D01*
X118664846Y-40134000D01*
X118640000Y-40131553D01*
X118615154Y-40134000D01*
X118022843Y-40134000D01*
X118022843Y-39840000D01*
X118015487Y-39765311D01*
X117993701Y-39693492D01*
X117958322Y-39627304D01*
X117910711Y-39569289D01*
X117852696Y-39521678D01*
X117786508Y-39486299D01*
X117714689Y-39464513D01*
X117640000Y-39457157D01*
X116040000Y-39457157D01*
X115965311Y-39464513D01*
X115893492Y-39486299D01*
X115827304Y-39521678D01*
X115769289Y-39569289D01*
X115721678Y-39627304D01*
X115686299Y-39693492D01*
X115664513Y-39765311D01*
X115657157Y-39840000D01*
X115657157Y-41440000D01*
X115664513Y-41514689D01*
X115686299Y-41586508D01*
X115721678Y-41652696D01*
X115769289Y-41710711D01*
X115827304Y-41758322D01*
X115893492Y-41793701D01*
X115965311Y-41815487D01*
X116040000Y-41822843D01*
X117640000Y-41822843D01*
X117714689Y-41815487D01*
X117786508Y-41793701D01*
X117852696Y-41758322D01*
X117910711Y-41710711D01*
X117958322Y-41652696D01*
X117993701Y-41586508D01*
X118015487Y-41514689D01*
X118022843Y-41440000D01*
X118022843Y-41146000D01*
X118430409Y-41146000D01*
X122659778Y-45375370D01*
X122659784Y-45375375D01*
X125393979Y-48109571D01*
X125393978Y-57613081D01*
X125244717Y-57463820D01*
X125043097Y-57329102D01*
X124966000Y-57297168D01*
X124966000Y-50084854D01*
X124968448Y-50060000D01*
X124958678Y-49960807D01*
X124929745Y-49865425D01*
X124882759Y-49777521D01*
X124819527Y-49700473D01*
X124800220Y-49684628D01*
X120495376Y-45379785D01*
X120479527Y-45360473D01*
X120402479Y-45297241D01*
X120314575Y-45250255D01*
X120219193Y-45221322D01*
X120144854Y-45214000D01*
X120144846Y-45214000D01*
X120120000Y-45211553D01*
X120095154Y-45214000D01*
X117908712Y-45214000D01*
X117886588Y-45160587D01*
X117757342Y-44967157D01*
X117592843Y-44802658D01*
X117399413Y-44673412D01*
X117184485Y-44584386D01*
X116956318Y-44539000D01*
X116723682Y-44539000D01*
X116495515Y-44584386D01*
X116280587Y-44673412D01*
X116087157Y-44802658D01*
X115922658Y-44967157D01*
X115793412Y-45160587D01*
X115706000Y-45371618D01*
X115706000Y-44009591D01*
X115866618Y-43848973D01*
X115922658Y-43932843D01*
X116087157Y-44097342D01*
X116280587Y-44226588D01*
X116495515Y-44315614D01*
X116723682Y-44361000D01*
X116956318Y-44361000D01*
X117184485Y-44315614D01*
X117399413Y-44226588D01*
X117592843Y-44097342D01*
X117757342Y-43932843D01*
X117886588Y-43739413D01*
X117975614Y-43524485D01*
X118021000Y-43296318D01*
X118021000Y-43063682D01*
X117975614Y-42835515D01*
X117886588Y-42620587D01*
X117757342Y-42427157D01*
X117592843Y-42262658D01*
X117399413Y-42133412D01*
X117184485Y-42044386D01*
X116956318Y-41999000D01*
X116723682Y-41999000D01*
X116495515Y-42044386D01*
X116280587Y-42133412D01*
X116087157Y-42262658D01*
X115922658Y-42427157D01*
X115793412Y-42620587D01*
X115770273Y-42676450D01*
X115730694Y-42680348D01*
X115720806Y-42681322D01*
X115698607Y-42688056D01*
X115625425Y-42710255D01*
X115537521Y-42757241D01*
X115460473Y-42820473D01*
X115444628Y-42839780D01*
X114859780Y-43424629D01*
X114840474Y-43440473D01*
X114777242Y-43517521D01*
X114752127Y-43564508D01*
X114730255Y-43605426D01*
X114701322Y-43700808D01*
X114691553Y-43800000D01*
X112903000Y-43800000D01*
X112903000Y-39211637D01*
X122126515Y-39239758D01*
G37*
X122126515Y-39239758D02*
X122127406Y-39241837D01*
X122141412Y-39275817D01*
X122144106Y-39280801D01*
X122144108Y-39280806D01*
X122144111Y-39280810D01*
X122227693Y-39432847D01*
X122248499Y-39463234D01*
X122268847Y-39493860D01*
X122272460Y-39498228D01*
X122383985Y-39631138D01*
X122410306Y-39656914D01*
X122436205Y-39682994D01*
X122440598Y-39686578D01*
X122575815Y-39795294D01*
X122606607Y-39815444D01*
X122637113Y-39836020D01*
X122642118Y-39838682D01*
X122795877Y-39919065D01*
X122830040Y-39932868D01*
X122863917Y-39947108D01*
X122869338Y-39948745D01*
X122869345Y-39948748D01*
X122869352Y-39948749D01*
X123035787Y-39997734D01*
X123071957Y-40004634D01*
X123107979Y-40012028D01*
X123113619Y-40012582D01*
X123113621Y-40012582D01*
X123286409Y-40028307D01*
X123323206Y-40028050D01*
X123360003Y-40028307D01*
X123365645Y-40027754D01*
X123538196Y-40009618D01*
X123574262Y-40002215D01*
X123610388Y-39995323D01*
X123615815Y-39993685D01*
X123781558Y-39942379D01*
X123815521Y-39928102D01*
X123849599Y-39914334D01*
X123854600Y-39911676D01*
X123854604Y-39911674D01*
X123854607Y-39911672D01*
X124007225Y-39829151D01*
X124037737Y-39808571D01*
X124068522Y-39788426D01*
X124072910Y-39784847D01*
X124072916Y-39784843D01*
X124072921Y-39784838D01*
X124206601Y-39674249D01*
X124232553Y-39648116D01*
X124258821Y-39622392D01*
X124262430Y-39618030D01*
X124262435Y-39618025D01*
X124262439Y-39618020D01*
X124372094Y-39483569D01*
X124392478Y-39452889D01*
X124413247Y-39422557D01*
X124415941Y-39417575D01*
X124415944Y-39417571D01*
X124415946Y-39417567D01*
X124497398Y-39264377D01*
X124504557Y-39247008D01*
X133477000Y-39274363D01*
X133477000Y-80168363D01*
X112903000Y-80105637D01*
X112903000Y-79049114D01*
X113160171Y-79049114D01*
X113180527Y-79116239D01*
X113275438Y-79327408D01*
X113409722Y-79516003D01*
X113578219Y-79674777D01*
X113774454Y-79797628D01*
X113990885Y-79879835D01*
X114173000Y-79818908D01*
X114173000Y-78867000D01*
X114427000Y-78867000D01*
X114427000Y-79818908D01*
X114609115Y-79879835D01*
X114825546Y-79797628D01*
X115021781Y-79674777D01*
X115105019Y-79596342D01*
X116163263Y-79596342D01*
X116249218Y-79769207D01*
X116461358Y-79864687D01*
X116688048Y-79916945D01*
X116920578Y-79923975D01*
X117150012Y-79885505D01*
X117367532Y-79803014D01*
X117430782Y-79769207D01*
X117516737Y-79596342D01*
X116840000Y-78919605D01*
X116163263Y-79596342D01*
X115105019Y-79596342D01*
X115190278Y-79516003D01*
X115324562Y-79327408D01*
X115419473Y-79116239D01*
X115439829Y-79049114D01*
X115378297Y-78867000D01*
X114427000Y-78867000D01*
X114173000Y-78867000D01*
X113221703Y-78867000D01*
X113160171Y-79049114D01*
X112903000Y-79049114D01*
X112903000Y-78820578D01*
X115656025Y-78820578D01*
X115694495Y-79050012D01*
X115776986Y-79267532D01*
X115810793Y-79330782D01*
X115983658Y-79416737D01*
X116660395Y-78740000D01*
X117019605Y-78740000D01*
X117696342Y-79416737D01*
X117869207Y-79330782D01*
X117964687Y-79118642D01*
X118016945Y-78891952D01*
X118023975Y-78659422D01*
X118017983Y-78623682D01*
X128359000Y-78623682D01*
X128359000Y-78856318D01*
X128404386Y-79084485D01*
X128493412Y-79299413D01*
X128622658Y-79492843D01*
X128787157Y-79657342D01*
X128980587Y-79786588D01*
X129195515Y-79875614D01*
X129423682Y-79921000D01*
X129656318Y-79921000D01*
X129884485Y-79875614D01*
X130099413Y-79786588D01*
X130292843Y-79657342D01*
X130457342Y-79492843D01*
X130586588Y-79299413D01*
X130675614Y-79084485D01*
X130721000Y-78856318D01*
X130721000Y-78623682D01*
X130899000Y-78623682D01*
X130899000Y-78856318D01*
X130944386Y-79084485D01*
X131033412Y-79299413D01*
X131162658Y-79492843D01*
X131327157Y-79657342D01*
X131520587Y-79786588D01*
X131735515Y-79875614D01*
X131963682Y-79921000D01*
X132196318Y-79921000D01*
X132424485Y-79875614D01*
X132639413Y-79786588D01*
X132832843Y-79657342D01*
X132997342Y-79492843D01*
X133126588Y-79299413D01*
X133215614Y-79084485D01*
X133261000Y-78856318D01*
X133261000Y-78623682D01*
X133215614Y-78395515D01*
X133126588Y-78180587D01*
X132997342Y-77987157D01*
X132832843Y-77822658D01*
X132639413Y-77693412D01*
X132424485Y-77604386D01*
X132196318Y-77559000D01*
X131963682Y-77559000D01*
X131735515Y-77604386D01*
X131520587Y-77693412D01*
X131327157Y-77822658D01*
X131162658Y-77987157D01*
X131033412Y-78180587D01*
X130944386Y-78395515D01*
X130899000Y-78623682D01*
X130721000Y-78623682D01*
X130675614Y-78395515D01*
X130586588Y-78180587D01*
X130457342Y-77987157D01*
X130292843Y-77822658D01*
X130099413Y-77693412D01*
X129884485Y-77604386D01*
X129656318Y-77559000D01*
X129423682Y-77559000D01*
X129195515Y-77604386D01*
X128980587Y-77693412D01*
X128787157Y-77822658D01*
X128622658Y-77987157D01*
X128493412Y-78180587D01*
X128404386Y-78395515D01*
X128359000Y-78623682D01*
X118017983Y-78623682D01*
X117985505Y-78429988D01*
X117903014Y-78212468D01*
X117869207Y-78149218D01*
X117696342Y-78063263D01*
X117019605Y-78740000D01*
X116660395Y-78740000D01*
X115983658Y-78063263D01*
X115810793Y-78149218D01*
X115715313Y-78361358D01*
X115663055Y-78588048D01*
X115656025Y-78820578D01*
X112903000Y-78820578D01*
X112903000Y-78430886D01*
X113160171Y-78430886D01*
X113221703Y-78613000D01*
X114173000Y-78613000D01*
X114173000Y-77661092D01*
X114427000Y-77661092D01*
X114427000Y-78613000D01*
X115378297Y-78613000D01*
X115439829Y-78430886D01*
X115419473Y-78363761D01*
X115324562Y-78152592D01*
X115190278Y-77963997D01*
X115105020Y-77883658D01*
X116163263Y-77883658D01*
X116840000Y-78560395D01*
X117516737Y-77883658D01*
X117430782Y-77710793D01*
X117218642Y-77615313D01*
X116991952Y-77563055D01*
X116759422Y-77556025D01*
X116529988Y-77594495D01*
X116312468Y-77676986D01*
X116249218Y-77710793D01*
X116163263Y-77883658D01*
X115105020Y-77883658D01*
X115021781Y-77805223D01*
X114825546Y-77682372D01*
X114609115Y-77600165D01*
X114427000Y-77661092D01*
X114173000Y-77661092D01*
X113990885Y-77600165D01*
X113774454Y-77682372D01*
X113578219Y-77805223D01*
X113409722Y-77963997D01*
X113275438Y-78152592D01*
X113180527Y-78363761D01*
X113160171Y-78430886D01*
X112903000Y-78430886D01*
X112903000Y-76083682D01*
X113119000Y-76083682D01*
X113119000Y-76316318D01*
X113164386Y-76544485D01*
X113253412Y-76759413D01*
X113382658Y-76952843D01*
X113547157Y-77117342D01*
X113740587Y-77246588D01*
X113955515Y-77335614D01*
X114183682Y-77381000D01*
X114416318Y-77381000D01*
X114644485Y-77335614D01*
X114859413Y-77246588D01*
X115052843Y-77117342D01*
X115217342Y-76952843D01*
X115346588Y-76759413D01*
X115435614Y-76544485D01*
X115481000Y-76316318D01*
X115481000Y-76083682D01*
X115659000Y-76083682D01*
X115659000Y-76316318D01*
X115704386Y-76544485D01*
X115793412Y-76759413D01*
X115922658Y-76952843D01*
X116087157Y-77117342D01*
X116280587Y-77246588D01*
X116495515Y-77335614D01*
X116723682Y-77381000D01*
X116956318Y-77381000D01*
X117184485Y-77335614D01*
X117399413Y-77246588D01*
X117592843Y-77117342D01*
X117757342Y-76952843D01*
X117886588Y-76759413D01*
X117975614Y-76544485D01*
X118021000Y-76316318D01*
X118021000Y-76083682D01*
X128359000Y-76083682D01*
X128359000Y-76316318D01*
X128404386Y-76544485D01*
X128493412Y-76759413D01*
X128622658Y-76952843D01*
X128787157Y-77117342D01*
X128980587Y-77246588D01*
X129195515Y-77335614D01*
X129423682Y-77381000D01*
X129656318Y-77381000D01*
X129884485Y-77335614D01*
X130099413Y-77246588D01*
X130292843Y-77117342D01*
X130457342Y-76952843D01*
X130586588Y-76759413D01*
X130675614Y-76544485D01*
X130721000Y-76316318D01*
X130721000Y-76083682D01*
X130899000Y-76083682D01*
X130899000Y-76316318D01*
X130944386Y-76544485D01*
X131033412Y-76759413D01*
X131162658Y-76952843D01*
X131327157Y-77117342D01*
X131520587Y-77246588D01*
X131735515Y-77335614D01*
X131963682Y-77381000D01*
X132196318Y-77381000D01*
X132424485Y-77335614D01*
X132639413Y-77246588D01*
X132832843Y-77117342D01*
X132997342Y-76952843D01*
X133126588Y-76759413D01*
X133215614Y-76544485D01*
X133261000Y-76316318D01*
X133261000Y-76083682D01*
X133215614Y-75855515D01*
X133126588Y-75640587D01*
X132997342Y-75447157D01*
X132832843Y-75282658D01*
X132639413Y-75153412D01*
X132424485Y-75064386D01*
X132196318Y-75019000D01*
X131963682Y-75019000D01*
X131735515Y-75064386D01*
X131520587Y-75153412D01*
X131327157Y-75282658D01*
X131162658Y-75447157D01*
X131033412Y-75640587D01*
X130944386Y-75855515D01*
X130899000Y-76083682D01*
X130721000Y-76083682D01*
X130675614Y-75855515D01*
X130586588Y-75640587D01*
X130457342Y-75447157D01*
X130292843Y-75282658D01*
X130099413Y-75153412D01*
X129884485Y-75064386D01*
X129656318Y-75019000D01*
X129423682Y-75019000D01*
X129195515Y-75064386D01*
X128980587Y-75153412D01*
X128787157Y-75282658D01*
X128622658Y-75447157D01*
X128493412Y-75640587D01*
X128404386Y-75855515D01*
X128359000Y-76083682D01*
X118021000Y-76083682D01*
X117975614Y-75855515D01*
X117886588Y-75640587D01*
X117757342Y-75447157D01*
X117592843Y-75282658D01*
X117399413Y-75153412D01*
X117184485Y-75064386D01*
X116956318Y-75019000D01*
X116723682Y-75019000D01*
X116495515Y-75064386D01*
X116280587Y-75153412D01*
X116087157Y-75282658D01*
X115922658Y-75447157D01*
X115793412Y-75640587D01*
X115704386Y-75855515D01*
X115659000Y-76083682D01*
X115481000Y-76083682D01*
X115435614Y-75855515D01*
X115346588Y-75640587D01*
X115217342Y-75447157D01*
X115052843Y-75282658D01*
X114859413Y-75153412D01*
X114644485Y-75064386D01*
X114416318Y-75019000D01*
X114183682Y-75019000D01*
X113955515Y-75064386D01*
X113740587Y-75153412D01*
X113547157Y-75282658D01*
X113382658Y-75447157D01*
X113253412Y-75640587D01*
X113164386Y-75855515D01*
X113119000Y-76083682D01*
X112903000Y-76083682D01*
X112903000Y-73543682D01*
X113119000Y-73543682D01*
X113119000Y-73776318D01*
X113164386Y-74004485D01*
X113253412Y-74219413D01*
X113382658Y-74412843D01*
X113547157Y-74577342D01*
X113740587Y-74706588D01*
X113955515Y-74795614D01*
X114183682Y-74841000D01*
X114416318Y-74841000D01*
X114644485Y-74795614D01*
X114859413Y-74706588D01*
X115052843Y-74577342D01*
X115217342Y-74412843D01*
X115346588Y-74219413D01*
X115435614Y-74004485D01*
X115481000Y-73776318D01*
X115481000Y-73543682D01*
X115659000Y-73543682D01*
X115659000Y-73776318D01*
X115704386Y-74004485D01*
X115793412Y-74219413D01*
X115922658Y-74412843D01*
X116087157Y-74577342D01*
X116280587Y-74706588D01*
X116495515Y-74795614D01*
X116723682Y-74841000D01*
X116956318Y-74841000D01*
X117184485Y-74795614D01*
X117399413Y-74706588D01*
X117592843Y-74577342D01*
X117757342Y-74412843D01*
X117886588Y-74219413D01*
X117975614Y-74004485D01*
X118021000Y-73776318D01*
X118021000Y-73543682D01*
X118020021Y-73538757D01*
X125769000Y-73538757D01*
X125769000Y-73781243D01*
X125816307Y-74019069D01*
X125909102Y-74243097D01*
X126043820Y-74444717D01*
X126215283Y-74616180D01*
X126416903Y-74750898D01*
X126640931Y-74843693D01*
X126878757Y-74891000D01*
X127121243Y-74891000D01*
X127359069Y-74843693D01*
X127583097Y-74750898D01*
X127784717Y-74616180D01*
X127956180Y-74444717D01*
X128090898Y-74243097D01*
X128183693Y-74019069D01*
X128231000Y-73781243D01*
X128231000Y-73543682D01*
X128359000Y-73543682D01*
X128359000Y-73776318D01*
X128404386Y-74004485D01*
X128493412Y-74219413D01*
X128622658Y-74412843D01*
X128787157Y-74577342D01*
X128980587Y-74706588D01*
X129195515Y-74795614D01*
X129423682Y-74841000D01*
X129656318Y-74841000D01*
X129884485Y-74795614D01*
X130099413Y-74706588D01*
X130292843Y-74577342D01*
X130457342Y-74412843D01*
X130586588Y-74219413D01*
X130675614Y-74004485D01*
X130721000Y-73776318D01*
X130721000Y-73543682D01*
X130899000Y-73543682D01*
X130899000Y-73776318D01*
X130944386Y-74004485D01*
X131033412Y-74219413D01*
X131162658Y-74412843D01*
X131327157Y-74577342D01*
X131520587Y-74706588D01*
X131735515Y-74795614D01*
X131963682Y-74841000D01*
X132196318Y-74841000D01*
X132424485Y-74795614D01*
X132639413Y-74706588D01*
X132832843Y-74577342D01*
X132997342Y-74412843D01*
X133126588Y-74219413D01*
X133215614Y-74004485D01*
X133261000Y-73776318D01*
X133261000Y-73543682D01*
X133215614Y-73315515D01*
X133126588Y-73100587D01*
X132997342Y-72907157D01*
X132832843Y-72742658D01*
X132639413Y-72613412D01*
X132424485Y-72524386D01*
X132196318Y-72479000D01*
X131963682Y-72479000D01*
X131735515Y-72524386D01*
X131520587Y-72613412D01*
X131327157Y-72742658D01*
X131162658Y-72907157D01*
X131033412Y-73100587D01*
X130944386Y-73315515D01*
X130899000Y-73543682D01*
X130721000Y-73543682D01*
X130675614Y-73315515D01*
X130586588Y-73100587D01*
X130457342Y-72907157D01*
X130292843Y-72742658D01*
X130099413Y-72613412D01*
X129884485Y-72524386D01*
X129656318Y-72479000D01*
X129423682Y-72479000D01*
X129195515Y-72524386D01*
X128980587Y-72613412D01*
X128787157Y-72742658D01*
X128622658Y-72907157D01*
X128493412Y-73100587D01*
X128404386Y-73315515D01*
X128359000Y-73543682D01*
X128231000Y-73543682D01*
X128231000Y-73538757D01*
X128183693Y-73300931D01*
X128090898Y-73076903D01*
X127956180Y-72875283D01*
X127784717Y-72703820D01*
X127583097Y-72569102D01*
X127359069Y-72476307D01*
X127121243Y-72429000D01*
X126878757Y-72429000D01*
X126640931Y-72476307D01*
X126416903Y-72569102D01*
X126215283Y-72703820D01*
X126043820Y-72875283D01*
X125909102Y-73076903D01*
X125816307Y-73300931D01*
X125769000Y-73538757D01*
X118020021Y-73538757D01*
X117975614Y-73315515D01*
X117886588Y-73100587D01*
X117757342Y-72907157D01*
X117592843Y-72742658D01*
X117399413Y-72613412D01*
X117184485Y-72524386D01*
X116956318Y-72479000D01*
X116723682Y-72479000D01*
X116495515Y-72524386D01*
X116280587Y-72613412D01*
X116087157Y-72742658D01*
X115922658Y-72907157D01*
X115793412Y-73100587D01*
X115704386Y-73315515D01*
X115659000Y-73543682D01*
X115481000Y-73543682D01*
X115435614Y-73315515D01*
X115346588Y-73100587D01*
X115217342Y-72907157D01*
X115052843Y-72742658D01*
X114859413Y-72613412D01*
X114644485Y-72524386D01*
X114416318Y-72479000D01*
X114183682Y-72479000D01*
X113955515Y-72524386D01*
X113740587Y-72613412D01*
X113547157Y-72742658D01*
X113382658Y-72907157D01*
X113253412Y-73100587D01*
X113164386Y-73315515D01*
X113119000Y-73543682D01*
X112903000Y-73543682D01*
X112903000Y-71003682D01*
X113119000Y-71003682D01*
X113119000Y-71236318D01*
X113164386Y-71464485D01*
X113253412Y-71679413D01*
X113382658Y-71872843D01*
X113547157Y-72037342D01*
X113740587Y-72166588D01*
X113955515Y-72255614D01*
X114183682Y-72301000D01*
X114416318Y-72301000D01*
X114644485Y-72255614D01*
X114859413Y-72166588D01*
X115052843Y-72037342D01*
X115217342Y-71872843D01*
X115346588Y-71679413D01*
X115435614Y-71464485D01*
X115481000Y-71236318D01*
X115481000Y-71003682D01*
X115659000Y-71003682D01*
X115659000Y-71236318D01*
X115704386Y-71464485D01*
X115793412Y-71679413D01*
X115922658Y-71872843D01*
X116087157Y-72037342D01*
X116280587Y-72166588D01*
X116495515Y-72255614D01*
X116723682Y-72301000D01*
X116956318Y-72301000D01*
X117184485Y-72255614D01*
X117399413Y-72166588D01*
X117592843Y-72037342D01*
X117757342Y-71872843D01*
X117886588Y-71679413D01*
X117975614Y-71464485D01*
X118021000Y-71236318D01*
X118021000Y-71003682D01*
X117975614Y-70775515D01*
X117886588Y-70560587D01*
X117757342Y-70367157D01*
X117592843Y-70202658D01*
X117399413Y-70073412D01*
X117184485Y-69984386D01*
X116956318Y-69939000D01*
X116723682Y-69939000D01*
X116495515Y-69984386D01*
X116280587Y-70073412D01*
X116087157Y-70202658D01*
X115922658Y-70367157D01*
X115793412Y-70560587D01*
X115704386Y-70775515D01*
X115659000Y-71003682D01*
X115481000Y-71003682D01*
X115435614Y-70775515D01*
X115346588Y-70560587D01*
X115217342Y-70367157D01*
X115052843Y-70202658D01*
X114859413Y-70073412D01*
X114644485Y-69984386D01*
X114416318Y-69939000D01*
X114183682Y-69939000D01*
X113955515Y-69984386D01*
X113740587Y-70073412D01*
X113547157Y-70202658D01*
X113382658Y-70367157D01*
X113253412Y-70560587D01*
X113164386Y-70775515D01*
X113119000Y-71003682D01*
X112903000Y-71003682D01*
X112903000Y-68463682D01*
X113119000Y-68463682D01*
X113119000Y-68696318D01*
X113164386Y-68924485D01*
X113253412Y-69139413D01*
X113382658Y-69332843D01*
X113547157Y-69497342D01*
X113740587Y-69626588D01*
X113955515Y-69715614D01*
X114183682Y-69761000D01*
X114416318Y-69761000D01*
X114644485Y-69715614D01*
X114859413Y-69626588D01*
X115052843Y-69497342D01*
X115217342Y-69332843D01*
X115346588Y-69139413D01*
X115435614Y-68924485D01*
X115481000Y-68696318D01*
X115481000Y-68463682D01*
X115659000Y-68463682D01*
X115659000Y-68696318D01*
X115704386Y-68924485D01*
X115793412Y-69139413D01*
X115922658Y-69332843D01*
X116087157Y-69497342D01*
X116280587Y-69626588D01*
X116495515Y-69715614D01*
X116723682Y-69761000D01*
X116956318Y-69761000D01*
X117184485Y-69715614D01*
X117399413Y-69626588D01*
X117592843Y-69497342D01*
X117757342Y-69332843D01*
X117886588Y-69139413D01*
X117975614Y-68924485D01*
X118021000Y-68696318D01*
X118021000Y-68463682D01*
X117975614Y-68235515D01*
X117886588Y-68020587D01*
X117757342Y-67827157D01*
X117592843Y-67662658D01*
X117399413Y-67533412D01*
X117184485Y-67444386D01*
X116956318Y-67399000D01*
X116723682Y-67399000D01*
X116495515Y-67444386D01*
X116280587Y-67533412D01*
X116087157Y-67662658D01*
X115922658Y-67827157D01*
X115793412Y-68020587D01*
X115704386Y-68235515D01*
X115659000Y-68463682D01*
X115481000Y-68463682D01*
X115435614Y-68235515D01*
X115346588Y-68020587D01*
X115217342Y-67827157D01*
X115052843Y-67662658D01*
X114859413Y-67533412D01*
X114644485Y-67444386D01*
X114416318Y-67399000D01*
X114183682Y-67399000D01*
X113955515Y-67444386D01*
X113740587Y-67533412D01*
X113547157Y-67662658D01*
X113382658Y-67827157D01*
X113253412Y-68020587D01*
X113164386Y-68235515D01*
X113119000Y-68463682D01*
X112903000Y-68463682D01*
X112903000Y-65923682D01*
X113119000Y-65923682D01*
X113119000Y-66156318D01*
X113164386Y-66384485D01*
X113253412Y-66599413D01*
X113382658Y-66792843D01*
X113547157Y-66957342D01*
X113740587Y-67086588D01*
X113955515Y-67175614D01*
X114183682Y-67221000D01*
X114416318Y-67221000D01*
X114644485Y-67175614D01*
X114859413Y-67086588D01*
X115052843Y-66957342D01*
X115217342Y-66792843D01*
X115346588Y-66599413D01*
X115435614Y-66384485D01*
X115481000Y-66156318D01*
X115481000Y-65923682D01*
X115659000Y-65923682D01*
X115659000Y-66156318D01*
X115704386Y-66384485D01*
X115793412Y-66599413D01*
X115922658Y-66792843D01*
X116087157Y-66957342D01*
X116280587Y-67086588D01*
X116495515Y-67175614D01*
X116723682Y-67221000D01*
X116956318Y-67221000D01*
X117184485Y-67175614D01*
X117399413Y-67086588D01*
X117592843Y-66957342D01*
X117757342Y-66792843D01*
X117886588Y-66599413D01*
X117975614Y-66384485D01*
X118021000Y-66156318D01*
X118021000Y-65923682D01*
X117975614Y-65695515D01*
X117886588Y-65480587D01*
X117757342Y-65287157D01*
X117592843Y-65122658D01*
X117399413Y-64993412D01*
X117184485Y-64904386D01*
X116956318Y-64859000D01*
X116723682Y-64859000D01*
X116495515Y-64904386D01*
X116280587Y-64993412D01*
X116087157Y-65122658D01*
X115922658Y-65287157D01*
X115793412Y-65480587D01*
X115704386Y-65695515D01*
X115659000Y-65923682D01*
X115481000Y-65923682D01*
X115435614Y-65695515D01*
X115346588Y-65480587D01*
X115217342Y-65287157D01*
X115052843Y-65122658D01*
X114859413Y-64993412D01*
X114644485Y-64904386D01*
X114416318Y-64859000D01*
X114183682Y-64859000D01*
X113955515Y-64904386D01*
X113740587Y-64993412D01*
X113547157Y-65122658D01*
X113382658Y-65287157D01*
X113253412Y-65480587D01*
X113164386Y-65695515D01*
X113119000Y-65923682D01*
X112903000Y-65923682D01*
X112903000Y-63383682D01*
X113119000Y-63383682D01*
X113119000Y-63616318D01*
X113164386Y-63844485D01*
X113253412Y-64059413D01*
X113382658Y-64252843D01*
X113547157Y-64417342D01*
X113740587Y-64546588D01*
X113955515Y-64635614D01*
X114183682Y-64681000D01*
X114416318Y-64681000D01*
X114644485Y-64635614D01*
X114859413Y-64546588D01*
X115052843Y-64417342D01*
X115217342Y-64252843D01*
X115346588Y-64059413D01*
X115435614Y-63844485D01*
X115481000Y-63616318D01*
X115481000Y-63383682D01*
X115659000Y-63383682D01*
X115659000Y-63616318D01*
X115704386Y-63844485D01*
X115793412Y-64059413D01*
X115922658Y-64252843D01*
X116087157Y-64417342D01*
X116280587Y-64546588D01*
X116495515Y-64635614D01*
X116723682Y-64681000D01*
X116956318Y-64681000D01*
X117184485Y-64635614D01*
X117399413Y-64546588D01*
X117592843Y-64417342D01*
X117757342Y-64252843D01*
X117886588Y-64059413D01*
X117975614Y-63844485D01*
X118021000Y-63616318D01*
X118021000Y-63383682D01*
X117975614Y-63155515D01*
X117886588Y-62940587D01*
X117757342Y-62747157D01*
X117592843Y-62582658D01*
X117399413Y-62453412D01*
X117184485Y-62364386D01*
X116956318Y-62319000D01*
X116723682Y-62319000D01*
X116495515Y-62364386D01*
X116280587Y-62453412D01*
X116087157Y-62582658D01*
X115922658Y-62747157D01*
X115793412Y-62940587D01*
X115704386Y-63155515D01*
X115659000Y-63383682D01*
X115481000Y-63383682D01*
X115435614Y-63155515D01*
X115346588Y-62940587D01*
X115217342Y-62747157D01*
X115052843Y-62582658D01*
X114859413Y-62453412D01*
X114644485Y-62364386D01*
X114416318Y-62319000D01*
X114183682Y-62319000D01*
X113955515Y-62364386D01*
X113740587Y-62453412D01*
X113547157Y-62582658D01*
X113382658Y-62747157D01*
X113253412Y-62940587D01*
X113164386Y-63155515D01*
X113119000Y-63383682D01*
X112903000Y-63383682D01*
X112903000Y-60843682D01*
X113119000Y-60843682D01*
X113119000Y-61076318D01*
X113164386Y-61304485D01*
X113253412Y-61519413D01*
X113382658Y-61712843D01*
X113547157Y-61877342D01*
X113740587Y-62006588D01*
X113955515Y-62095614D01*
X114183682Y-62141000D01*
X114416318Y-62141000D01*
X114644485Y-62095614D01*
X114859413Y-62006588D01*
X115052843Y-61877342D01*
X115217342Y-61712843D01*
X115346588Y-61519413D01*
X115435614Y-61304485D01*
X115481000Y-61076318D01*
X115481000Y-60843682D01*
X115659000Y-60843682D01*
X115659000Y-61076318D01*
X115704386Y-61304485D01*
X115793412Y-61519413D01*
X115922658Y-61712843D01*
X116087157Y-61877342D01*
X116280587Y-62006588D01*
X116495515Y-62095614D01*
X116723682Y-62141000D01*
X116956318Y-62141000D01*
X117184485Y-62095614D01*
X117399413Y-62006588D01*
X117592843Y-61877342D01*
X117757342Y-61712843D01*
X117886588Y-61519413D01*
X117975614Y-61304485D01*
X118021000Y-61076318D01*
X118021000Y-60843682D01*
X117975614Y-60615515D01*
X117886588Y-60400587D01*
X117757342Y-60207157D01*
X117592843Y-60042658D01*
X117399413Y-59913412D01*
X117184485Y-59824386D01*
X116956318Y-59779000D01*
X116723682Y-59779000D01*
X116495515Y-59824386D01*
X116280587Y-59913412D01*
X116087157Y-60042658D01*
X115922658Y-60207157D01*
X115793412Y-60400587D01*
X115704386Y-60615515D01*
X115659000Y-60843682D01*
X115481000Y-60843682D01*
X115435614Y-60615515D01*
X115346588Y-60400587D01*
X115217342Y-60207157D01*
X115052843Y-60042658D01*
X114859413Y-59913412D01*
X114644485Y-59824386D01*
X114416318Y-59779000D01*
X114183682Y-59779000D01*
X113955515Y-59824386D01*
X113740587Y-59913412D01*
X113547157Y-60042658D01*
X113382658Y-60207157D01*
X113253412Y-60400587D01*
X113164386Y-60615515D01*
X113119000Y-60843682D01*
X112903000Y-60843682D01*
X112903000Y-58303682D01*
X113119000Y-58303682D01*
X113119000Y-58536318D01*
X113164386Y-58764485D01*
X113253412Y-58979413D01*
X113382658Y-59172843D01*
X113547157Y-59337342D01*
X113740587Y-59466588D01*
X113955515Y-59555614D01*
X114183682Y-59601000D01*
X114416318Y-59601000D01*
X114644485Y-59555614D01*
X114859413Y-59466588D01*
X115052843Y-59337342D01*
X115217342Y-59172843D01*
X115346588Y-58979413D01*
X115435614Y-58764485D01*
X115481000Y-58536318D01*
X115481000Y-58303682D01*
X115435614Y-58075515D01*
X115346588Y-57860587D01*
X115217342Y-57667157D01*
X115052843Y-57502658D01*
X114859413Y-57373412D01*
X114644485Y-57284386D01*
X114416318Y-57239000D01*
X114183682Y-57239000D01*
X113955515Y-57284386D01*
X113740587Y-57373412D01*
X113547157Y-57502658D01*
X113382658Y-57667157D01*
X113253412Y-57860587D01*
X113164386Y-58075515D01*
X113119000Y-58303682D01*
X112903000Y-58303682D01*
X112903000Y-55763682D01*
X113119000Y-55763682D01*
X113119000Y-55996318D01*
X113164386Y-56224485D01*
X113253412Y-56439413D01*
X113382658Y-56632843D01*
X113547157Y-56797342D01*
X113740587Y-56926588D01*
X113955515Y-57015614D01*
X114183682Y-57061000D01*
X114416318Y-57061000D01*
X114644485Y-57015614D01*
X114859413Y-56926588D01*
X115052843Y-56797342D01*
X115217342Y-56632843D01*
X115346588Y-56439413D01*
X115435614Y-56224485D01*
X115481000Y-55996318D01*
X115481000Y-55763682D01*
X115435614Y-55535515D01*
X115346588Y-55320587D01*
X115217342Y-55127157D01*
X115052843Y-54962658D01*
X114859413Y-54833412D01*
X114644485Y-54744386D01*
X114416318Y-54699000D01*
X114183682Y-54699000D01*
X113955515Y-54744386D01*
X113740587Y-54833412D01*
X113547157Y-54962658D01*
X113382658Y-55127157D01*
X113253412Y-55320587D01*
X113164386Y-55535515D01*
X113119000Y-55763682D01*
X112903000Y-55763682D01*
X112903000Y-53223682D01*
X113119000Y-53223682D01*
X113119000Y-53456318D01*
X113164386Y-53684485D01*
X113253412Y-53899413D01*
X113382658Y-54092843D01*
X113547157Y-54257342D01*
X113740587Y-54386588D01*
X113955515Y-54475614D01*
X114183682Y-54521000D01*
X114416318Y-54521000D01*
X114644485Y-54475614D01*
X114859413Y-54386588D01*
X115052843Y-54257342D01*
X115217342Y-54092843D01*
X115346588Y-53899413D01*
X115435614Y-53684485D01*
X115481000Y-53456318D01*
X115481000Y-53223682D01*
X115435614Y-52995515D01*
X115346588Y-52780587D01*
X115217342Y-52587157D01*
X115052843Y-52422658D01*
X114859413Y-52293412D01*
X114644485Y-52204386D01*
X114416318Y-52159000D01*
X114183682Y-52159000D01*
X113955515Y-52204386D01*
X113740587Y-52293412D01*
X113547157Y-52422658D01*
X113382658Y-52587157D01*
X113253412Y-52780587D01*
X113164386Y-52995515D01*
X113119000Y-53223682D01*
X112903000Y-53223682D01*
X112903000Y-50000000D01*
X113117157Y-50000000D01*
X113117157Y-51600000D01*
X113124513Y-51674689D01*
X113146299Y-51746508D01*
X113181678Y-51812696D01*
X113229289Y-51870711D01*
X113287304Y-51918322D01*
X113353492Y-51953701D01*
X113425311Y-51975487D01*
X113500000Y-51982843D01*
X115100000Y-51982843D01*
X115174689Y-51975487D01*
X115246508Y-51953701D01*
X115312696Y-51918322D01*
X115370711Y-51870711D01*
X115418322Y-51812696D01*
X115453701Y-51746508D01*
X115475487Y-51674689D01*
X115482843Y-51600000D01*
X115482843Y-50000000D01*
X115475487Y-49925311D01*
X115453701Y-49853492D01*
X115418322Y-49787304D01*
X115370711Y-49729289D01*
X115312696Y-49681678D01*
X115246508Y-49646299D01*
X115174689Y-49624513D01*
X115100000Y-49617157D01*
X113500000Y-49617157D01*
X113425311Y-49624513D01*
X113353492Y-49646299D01*
X113287304Y-49681678D01*
X113229289Y-49729289D01*
X113181678Y-49787304D01*
X113146299Y-49853492D01*
X113124513Y-49925311D01*
X113117157Y-50000000D01*
X112903000Y-50000000D01*
X112903000Y-43800000D01*
X114691553Y-43800000D01*
X114694001Y-43824856D01*
X114694000Y-46375154D01*
X114691553Y-46400000D01*
X114694000Y-46424846D01*
X114694000Y-46424853D01*
X114701322Y-46499192D01*
X114730255Y-46594574D01*
X114777241Y-46682479D01*
X114840473Y-46759527D01*
X114859785Y-46775376D01*
X115424628Y-47340220D01*
X115440473Y-47359527D01*
X115517521Y-47422759D01*
X115605425Y-47469745D01*
X115700806Y-47498678D01*
X115710694Y-47499652D01*
X115775146Y-47506000D01*
X115775153Y-47506000D01*
X115799999Y-47508447D01*
X115824845Y-47506000D01*
X115923815Y-47506000D01*
X115922658Y-47507157D01*
X115793412Y-47700587D01*
X115704386Y-47915515D01*
X115659000Y-48143682D01*
X115659000Y-48376318D01*
X115704386Y-48604485D01*
X115793412Y-48819413D01*
X115922658Y-49012843D01*
X116087157Y-49177342D01*
X116280587Y-49306588D01*
X116495515Y-49395614D01*
X116723682Y-49441000D01*
X116956318Y-49441000D01*
X117184485Y-49395614D01*
X117399413Y-49306588D01*
X117592843Y-49177342D01*
X117694001Y-49076184D01*
X117694001Y-49983816D01*
X117592843Y-49882658D01*
X117399413Y-49753412D01*
X117184485Y-49664386D01*
X116956318Y-49619000D01*
X116723682Y-49619000D01*
X116495515Y-49664386D01*
X116280587Y-49753412D01*
X116087157Y-49882658D01*
X115922658Y-50047157D01*
X115793412Y-50240587D01*
X115704386Y-50455515D01*
X115659000Y-50683682D01*
X115659000Y-50916318D01*
X115704386Y-51144485D01*
X115793412Y-51359413D01*
X115922658Y-51552843D01*
X116087157Y-51717342D01*
X116280587Y-51846588D01*
X116495515Y-51935614D01*
X116723682Y-51981000D01*
X116956318Y-51981000D01*
X117184485Y-51935614D01*
X117399413Y-51846588D01*
X117592843Y-51717342D01*
X117694001Y-51616184D01*
X117694001Y-52523816D01*
X117592843Y-52422658D01*
X117399413Y-52293412D01*
X117184485Y-52204386D01*
X116956318Y-52159000D01*
X116723682Y-52159000D01*
X116495515Y-52204386D01*
X116280587Y-52293412D01*
X116087157Y-52422658D01*
X115922658Y-52587157D01*
X115793412Y-52780587D01*
X115704386Y-52995515D01*
X115659000Y-53223682D01*
X115659000Y-53456318D01*
X115704386Y-53684485D01*
X115793412Y-53899413D01*
X115922658Y-54092843D01*
X116087157Y-54257342D01*
X116280587Y-54386588D01*
X116495515Y-54475614D01*
X116723682Y-54521000D01*
X116956318Y-54521000D01*
X117184485Y-54475614D01*
X117399413Y-54386588D01*
X117592843Y-54257342D01*
X117694000Y-54156185D01*
X117694000Y-55063815D01*
X117592843Y-54962658D01*
X117399413Y-54833412D01*
X117184485Y-54744386D01*
X116956318Y-54699000D01*
X116723682Y-54699000D01*
X116495515Y-54744386D01*
X116280587Y-54833412D01*
X116087157Y-54962658D01*
X115922658Y-55127157D01*
X115793412Y-55320587D01*
X115704386Y-55535515D01*
X115659000Y-55763682D01*
X115659000Y-55996318D01*
X115704386Y-56224485D01*
X115793412Y-56439413D01*
X115922658Y-56632843D01*
X116087157Y-56797342D01*
X116280587Y-56926588D01*
X116495515Y-57015614D01*
X116723682Y-57061000D01*
X116956318Y-57061000D01*
X117184485Y-57015614D01*
X117399413Y-56926588D01*
X117592843Y-56797342D01*
X117694000Y-56696185D01*
X117694000Y-57603815D01*
X117592843Y-57502658D01*
X117399413Y-57373412D01*
X117184485Y-57284386D01*
X116956318Y-57239000D01*
X116723682Y-57239000D01*
X116495515Y-57284386D01*
X116280587Y-57373412D01*
X116087157Y-57502658D01*
X115922658Y-57667157D01*
X115793412Y-57860587D01*
X115704386Y-58075515D01*
X115659000Y-58303682D01*
X115659000Y-58536318D01*
X115704386Y-58764485D01*
X115793412Y-58979413D01*
X115922658Y-59172843D01*
X116087157Y-59337342D01*
X116280587Y-59466588D01*
X116495515Y-59555614D01*
X116723682Y-59601000D01*
X116956318Y-59601000D01*
X117184485Y-59555614D01*
X117399413Y-59466588D01*
X117592843Y-59337342D01*
X117694000Y-59236185D01*
X117694000Y-59755154D01*
X117691553Y-59780000D01*
X117694000Y-59804846D01*
X117694000Y-59804853D01*
X117701322Y-59879192D01*
X117730255Y-59974574D01*
X117777241Y-60062479D01*
X117840473Y-60139527D01*
X117859785Y-60155376D01*
X118228242Y-60523833D01*
X118196307Y-60600931D01*
X118149000Y-60838757D01*
X118149000Y-61081243D01*
X118196307Y-61319069D01*
X118289102Y-61543097D01*
X118423820Y-61744717D01*
X118595283Y-61916180D01*
X118796903Y-62050898D01*
X119020931Y-62143693D01*
X119258757Y-62191000D01*
X119501243Y-62191000D01*
X119739069Y-62143693D01*
X119963097Y-62050898D01*
X120164717Y-61916180D01*
X120336180Y-61744717D01*
X120470898Y-61543097D01*
X120563693Y-61319069D01*
X120611000Y-61081243D01*
X120611000Y-60838757D01*
X120563693Y-60600931D01*
X120470898Y-60376903D01*
X120336180Y-60175283D01*
X120164717Y-60003820D01*
X119963097Y-59869102D01*
X119739069Y-59776307D01*
X119501243Y-59729000D01*
X119258757Y-59729000D01*
X119020931Y-59776307D01*
X118943833Y-59808242D01*
X118706000Y-59570409D01*
X118706000Y-59450159D01*
X118796903Y-59510898D01*
X119020931Y-59603693D01*
X119258757Y-59651000D01*
X119501243Y-59651000D01*
X119739069Y-59603693D01*
X119963097Y-59510898D01*
X120164717Y-59376180D01*
X120336180Y-59204717D01*
X120470898Y-59003097D01*
X120563693Y-58779069D01*
X120611000Y-58541243D01*
X120611000Y-58298757D01*
X120689000Y-58298757D01*
X120689000Y-58541243D01*
X120736307Y-58779069D01*
X120829102Y-59003097D01*
X120963820Y-59204717D01*
X121135283Y-59376180D01*
X121336903Y-59510898D01*
X121560931Y-59603693D01*
X121798757Y-59651000D01*
X122041243Y-59651000D01*
X122279069Y-59603693D01*
X122503097Y-59510898D01*
X122704717Y-59376180D01*
X122876180Y-59204717D01*
X123010898Y-59003097D01*
X123103693Y-58779069D01*
X123151000Y-58541243D01*
X123151000Y-58298757D01*
X123103693Y-58060931D01*
X123010898Y-57836903D01*
X122876180Y-57635283D01*
X122704717Y-57463820D01*
X122503097Y-57329102D01*
X122279069Y-57236307D01*
X122041243Y-57189000D01*
X121798757Y-57189000D01*
X121560931Y-57236307D01*
X121336903Y-57329102D01*
X121135283Y-57463820D01*
X120963820Y-57635283D01*
X120829102Y-57836903D01*
X120736307Y-58060931D01*
X120689000Y-58298757D01*
X120611000Y-58298757D01*
X120563693Y-58060931D01*
X120470898Y-57836903D01*
X120336180Y-57635283D01*
X120164717Y-57463820D01*
X119963097Y-57329102D01*
X119739069Y-57236307D01*
X119501243Y-57189000D01*
X119258757Y-57189000D01*
X119020931Y-57236307D01*
X118796903Y-57329102D01*
X118706000Y-57389841D01*
X118706000Y-47624845D01*
X118708447Y-47599999D01*
X118706000Y-47575153D01*
X118706000Y-47575146D01*
X118699652Y-47510694D01*
X118698678Y-47500806D01*
X118669745Y-47405425D01*
X118666845Y-47399999D01*
X118622759Y-47317521D01*
X118559527Y-47240473D01*
X118540220Y-47224628D01*
X117975376Y-46659785D01*
X117959527Y-46640473D01*
X117882479Y-46577241D01*
X117794575Y-46530255D01*
X117721958Y-46508227D01*
X117757342Y-46472843D01*
X117886588Y-46279413D01*
X117908712Y-46226000D01*
X119910409Y-46226000D01*
X123954001Y-50269593D01*
X123954000Y-57297167D01*
X123876903Y-57329102D01*
X123675283Y-57463820D01*
X123503820Y-57635283D01*
X123369102Y-57836903D01*
X123276307Y-58060931D01*
X123229000Y-58298757D01*
X123229000Y-58541243D01*
X123276307Y-58779069D01*
X123369102Y-59003097D01*
X123503820Y-59204717D01*
X123675283Y-59376180D01*
X123876903Y-59510898D01*
X124100931Y-59603693D01*
X124338757Y-59651000D01*
X124581243Y-59651000D01*
X124819069Y-59603693D01*
X125043097Y-59510898D01*
X125244717Y-59376180D01*
X125393978Y-59226919D01*
X125393978Y-59310430D01*
X124896167Y-59808242D01*
X124819069Y-59776307D01*
X124581243Y-59729000D01*
X124338757Y-59729000D01*
X124100931Y-59776307D01*
X123876903Y-59869102D01*
X123675283Y-60003820D01*
X123503820Y-60175283D01*
X123369102Y-60376903D01*
X123276307Y-60600931D01*
X123229000Y-60838757D01*
X123229000Y-61081243D01*
X123276307Y-61319069D01*
X123369102Y-61543097D01*
X123503820Y-61744717D01*
X123653103Y-61894000D01*
X123569592Y-61894000D01*
X123071758Y-61396167D01*
X123103693Y-61319069D01*
X123151000Y-61081243D01*
X123151000Y-60838757D01*
X123103693Y-60600931D01*
X123010898Y-60376903D01*
X122876180Y-60175283D01*
X122704717Y-60003820D01*
X122503097Y-59869102D01*
X122279069Y-59776307D01*
X122041243Y-59729000D01*
X121798757Y-59729000D01*
X121560931Y-59776307D01*
X121336903Y-59869102D01*
X121135283Y-60003820D01*
X120963820Y-60175283D01*
X120829102Y-60376903D01*
X120736307Y-60600931D01*
X120689000Y-60838757D01*
X120689000Y-61081243D01*
X120736307Y-61319069D01*
X120829102Y-61543097D01*
X120963820Y-61744717D01*
X121135283Y-61916180D01*
X121336903Y-62050898D01*
X121560931Y-62143693D01*
X121798757Y-62191000D01*
X122041243Y-62191000D01*
X122279069Y-62143693D01*
X122356167Y-62111758D01*
X122984628Y-62740220D01*
X123000473Y-62759527D01*
X123077521Y-62822759D01*
X123146309Y-62859527D01*
X123165425Y-62869745D01*
X123260807Y-62898678D01*
X123360000Y-62908448D01*
X123384854Y-62906000D01*
X125375154Y-62906000D01*
X125400000Y-62908447D01*
X125424846Y-62906000D01*
X125424854Y-62906000D01*
X125499193Y-62898678D01*
X125594575Y-62869745D01*
X125682479Y-62822759D01*
X125759527Y-62759527D01*
X125775376Y-62740215D01*
X126294000Y-62221591D01*
X126294000Y-69693073D01*
X126291553Y-69717919D01*
X126294000Y-69742765D01*
X126294000Y-69742772D01*
X126301322Y-69817111D01*
X126330255Y-69912493D01*
X126377241Y-70000398D01*
X126406502Y-70036052D01*
X126215283Y-70163820D01*
X126043820Y-70335283D01*
X125909102Y-70536903D01*
X125816307Y-70760931D01*
X125769000Y-70998757D01*
X125769000Y-71241243D01*
X125816307Y-71479069D01*
X125909102Y-71703097D01*
X126043820Y-71904717D01*
X126215283Y-72076180D01*
X126416903Y-72210898D01*
X126640931Y-72303693D01*
X126878757Y-72351000D01*
X127121243Y-72351000D01*
X127359069Y-72303693D01*
X127583097Y-72210898D01*
X127784717Y-72076180D01*
X127956180Y-71904717D01*
X128090898Y-71703097D01*
X128183693Y-71479069D01*
X128231000Y-71241243D01*
X128231000Y-71003682D01*
X128359000Y-71003682D01*
X128359000Y-71236318D01*
X128404386Y-71464485D01*
X128493412Y-71679413D01*
X128622658Y-71872843D01*
X128787157Y-72037342D01*
X128980587Y-72166588D01*
X129195515Y-72255614D01*
X129423682Y-72301000D01*
X129656318Y-72301000D01*
X129884485Y-72255614D01*
X130099413Y-72166588D01*
X130292843Y-72037342D01*
X130457342Y-71872843D01*
X130586588Y-71679413D01*
X130675614Y-71464485D01*
X130721000Y-71236318D01*
X130721000Y-71003682D01*
X130899000Y-71003682D01*
X130899000Y-71236318D01*
X130944386Y-71464485D01*
X131033412Y-71679413D01*
X131162658Y-71872843D01*
X131327157Y-72037342D01*
X131520587Y-72166588D01*
X131735515Y-72255614D01*
X131963682Y-72301000D01*
X132196318Y-72301000D01*
X132424485Y-72255614D01*
X132639413Y-72166588D01*
X132832843Y-72037342D01*
X132997342Y-71872843D01*
X133126588Y-71679413D01*
X133215614Y-71464485D01*
X133261000Y-71236318D01*
X133261000Y-71003682D01*
X133215614Y-70775515D01*
X133126588Y-70560587D01*
X132997342Y-70367157D01*
X132832843Y-70202658D01*
X132639413Y-70073412D01*
X132424485Y-69984386D01*
X132196318Y-69939000D01*
X131963682Y-69939000D01*
X131735515Y-69984386D01*
X131520587Y-70073412D01*
X131327157Y-70202658D01*
X131162658Y-70367157D01*
X131033412Y-70560587D01*
X130944386Y-70775515D01*
X130899000Y-71003682D01*
X130721000Y-71003682D01*
X130675614Y-70775515D01*
X130586588Y-70560587D01*
X130457342Y-70367157D01*
X130292843Y-70202658D01*
X130099413Y-70073412D01*
X129884485Y-69984386D01*
X129656318Y-69939000D01*
X129423682Y-69939000D01*
X129195515Y-69984386D01*
X128980587Y-70073412D01*
X128787157Y-70202658D01*
X128622658Y-70367157D01*
X128493412Y-70560587D01*
X128404386Y-70775515D01*
X128359000Y-71003682D01*
X128231000Y-71003682D01*
X128231000Y-70998757D01*
X128183693Y-70760931D01*
X128090898Y-70536903D01*
X127956180Y-70335283D01*
X127784717Y-70163820D01*
X127583097Y-70029102D01*
X127506000Y-69997168D01*
X127506000Y-69942773D01*
X127508448Y-69917919D01*
X127498678Y-69818726D01*
X127469745Y-69723344D01*
X127465613Y-69715614D01*
X127422759Y-69635440D01*
X127359527Y-69558392D01*
X127340215Y-69542543D01*
X127306000Y-69508328D01*
X127306000Y-62500000D01*
X127491553Y-62500000D01*
X127494000Y-62524846D01*
X127494001Y-66775144D01*
X127491553Y-66800000D01*
X127501322Y-66899192D01*
X127530255Y-66994574D01*
X127552127Y-67035492D01*
X127577242Y-67082479D01*
X127640474Y-67159527D01*
X127659780Y-67175371D01*
X128124628Y-67640220D01*
X128140473Y-67659527D01*
X128217521Y-67722759D01*
X128305425Y-67769745D01*
X128400807Y-67798678D01*
X128500000Y-67808448D01*
X128524854Y-67806000D01*
X128643815Y-67806000D01*
X128622658Y-67827157D01*
X128493412Y-68020587D01*
X128404386Y-68235515D01*
X128359000Y-68463682D01*
X128359000Y-68696318D01*
X128404386Y-68924485D01*
X128493412Y-69139413D01*
X128622658Y-69332843D01*
X128787157Y-69497342D01*
X128980587Y-69626588D01*
X129195515Y-69715614D01*
X129423682Y-69761000D01*
X129656318Y-69761000D01*
X129884485Y-69715614D01*
X130099413Y-69626588D01*
X130292843Y-69497342D01*
X130457342Y-69332843D01*
X130586588Y-69139413D01*
X130675614Y-68924485D01*
X130721000Y-68696318D01*
X130721000Y-68463682D01*
X130899000Y-68463682D01*
X130899000Y-68696318D01*
X130944386Y-68924485D01*
X131033412Y-69139413D01*
X131162658Y-69332843D01*
X131327157Y-69497342D01*
X131520587Y-69626588D01*
X131735515Y-69715614D01*
X131963682Y-69761000D01*
X132196318Y-69761000D01*
X132424485Y-69715614D01*
X132639413Y-69626588D01*
X132832843Y-69497342D01*
X132997342Y-69332843D01*
X133126588Y-69139413D01*
X133215614Y-68924485D01*
X133261000Y-68696318D01*
X133261000Y-68463682D01*
X133215614Y-68235515D01*
X133126588Y-68020587D01*
X132997342Y-67827157D01*
X132832843Y-67662658D01*
X132639413Y-67533412D01*
X132424485Y-67444386D01*
X132196318Y-67399000D01*
X131963682Y-67399000D01*
X131735515Y-67444386D01*
X131520587Y-67533412D01*
X131327157Y-67662658D01*
X131162658Y-67827157D01*
X131033412Y-68020587D01*
X130944386Y-68235515D01*
X130899000Y-68463682D01*
X130721000Y-68463682D01*
X130675614Y-68235515D01*
X130586588Y-68020587D01*
X130457342Y-67827157D01*
X130436185Y-67806000D01*
X130795154Y-67806000D01*
X130820000Y-67808447D01*
X130844846Y-67806000D01*
X130844854Y-67806000D01*
X130919193Y-67798678D01*
X131014575Y-67769745D01*
X131102479Y-67722759D01*
X131179527Y-67659527D01*
X131195376Y-67640215D01*
X131682102Y-67153490D01*
X131735515Y-67175614D01*
X131963682Y-67221000D01*
X132196318Y-67221000D01*
X132424485Y-67175614D01*
X132639413Y-67086588D01*
X132832843Y-66957342D01*
X132997342Y-66792843D01*
X133126588Y-66599413D01*
X133215614Y-66384485D01*
X133261000Y-66156318D01*
X133261000Y-65923682D01*
X133215614Y-65695515D01*
X133126588Y-65480587D01*
X132997342Y-65287157D01*
X132832843Y-65122658D01*
X132639413Y-64993412D01*
X132424485Y-64904386D01*
X132196318Y-64859000D01*
X131963682Y-64859000D01*
X131735515Y-64904386D01*
X131520587Y-64993412D01*
X131327157Y-65122658D01*
X131162658Y-65287157D01*
X131033412Y-65480587D01*
X130944386Y-65695515D01*
X130899000Y-65923682D01*
X130899000Y-66156318D01*
X130944386Y-66384485D01*
X130966510Y-66437898D01*
X130610409Y-66794000D01*
X130456185Y-66794000D01*
X130457342Y-66792843D01*
X130586588Y-66599413D01*
X130675614Y-66384485D01*
X130721000Y-66156318D01*
X130721000Y-65923682D01*
X130675614Y-65695515D01*
X130653490Y-65642102D01*
X130715369Y-65580223D01*
X130715373Y-65580218D01*
X131140220Y-65155372D01*
X131159527Y-65139527D01*
X131222759Y-65062479D01*
X131269745Y-64974575D01*
X131298678Y-64879193D01*
X131306000Y-64804854D01*
X131308448Y-64780000D01*
X131306000Y-64755146D01*
X131306000Y-64396185D01*
X131327157Y-64417342D01*
X131520587Y-64546588D01*
X131735515Y-64635614D01*
X131963682Y-64681000D01*
X132196318Y-64681000D01*
X132424485Y-64635614D01*
X132639413Y-64546588D01*
X132832843Y-64417342D01*
X132997342Y-64252843D01*
X133126588Y-64059413D01*
X133215614Y-63844485D01*
X133261000Y-63616318D01*
X133261000Y-63383682D01*
X133215614Y-63155515D01*
X133126588Y-62940587D01*
X132997342Y-62747157D01*
X132832843Y-62582658D01*
X132639413Y-62453412D01*
X132424485Y-62364386D01*
X132196318Y-62319000D01*
X131963682Y-62319000D01*
X131735515Y-62364386D01*
X131520587Y-62453412D01*
X131327157Y-62582658D01*
X131306000Y-62603815D01*
X131306000Y-61856185D01*
X131327157Y-61877342D01*
X131520587Y-62006588D01*
X131735515Y-62095614D01*
X131963682Y-62141000D01*
X132196318Y-62141000D01*
X132424485Y-62095614D01*
X132639413Y-62006588D01*
X132832843Y-61877342D01*
X132997342Y-61712843D01*
X133126588Y-61519413D01*
X133215614Y-61304485D01*
X133261000Y-61076318D01*
X133261000Y-60843682D01*
X133215614Y-60615515D01*
X133126588Y-60400587D01*
X132997342Y-60207157D01*
X132832843Y-60042658D01*
X132639413Y-59913412D01*
X132424485Y-59824386D01*
X132196318Y-59779000D01*
X131963682Y-59779000D01*
X131735515Y-59824386D01*
X131520587Y-59913412D01*
X131327157Y-60042658D01*
X131306000Y-60063815D01*
X131306000Y-60009591D01*
X131755919Y-59559673D01*
X131963682Y-59601000D01*
X132196318Y-59601000D01*
X132424485Y-59555614D01*
X132639413Y-59466588D01*
X132832843Y-59337342D01*
X132997342Y-59172843D01*
X133126588Y-58979413D01*
X133215614Y-58764485D01*
X133261000Y-58536318D01*
X133261000Y-58303682D01*
X133215614Y-58075515D01*
X133126588Y-57860587D01*
X132997342Y-57667157D01*
X132832843Y-57502658D01*
X132639413Y-57373412D01*
X132424485Y-57284386D01*
X132196318Y-57239000D01*
X131963682Y-57239000D01*
X131735515Y-57284386D01*
X131520587Y-57373412D01*
X131327157Y-57502658D01*
X131162658Y-57667157D01*
X131033412Y-57860587D01*
X130944386Y-58075515D01*
X130899000Y-58303682D01*
X130899000Y-58536318D01*
X130944386Y-58764485D01*
X130995800Y-58888609D01*
X130459785Y-59424624D01*
X130440473Y-59440473D01*
X130377241Y-59517521D01*
X130330255Y-59605426D01*
X130301322Y-59700808D01*
X130294000Y-59775147D01*
X130294000Y-59775154D01*
X130291553Y-59800000D01*
X130294000Y-59824846D01*
X130294000Y-60043815D01*
X130292843Y-60042658D01*
X130099413Y-59913412D01*
X129884485Y-59824386D01*
X129656318Y-59779000D01*
X129423682Y-59779000D01*
X129195515Y-59824386D01*
X128980587Y-59913412D01*
X128787157Y-60042658D01*
X128622658Y-60207157D01*
X128493412Y-60400587D01*
X128404386Y-60615515D01*
X128359000Y-60843682D01*
X128359000Y-61076318D01*
X128404386Y-61304485D01*
X128426510Y-61357898D01*
X127659785Y-62124624D01*
X127640473Y-62140473D01*
X127577241Y-62217521D01*
X127530255Y-62305426D01*
X127501322Y-62400808D01*
X127494000Y-62475147D01*
X127494000Y-62475154D01*
X127491553Y-62500000D01*
X127306000Y-62500000D01*
X127306000Y-58303682D01*
X128359000Y-58303682D01*
X128359000Y-58536318D01*
X128404386Y-58764485D01*
X128493412Y-58979413D01*
X128622658Y-59172843D01*
X128787157Y-59337342D01*
X128980587Y-59466588D01*
X129195515Y-59555614D01*
X129423682Y-59601000D01*
X129656318Y-59601000D01*
X129884485Y-59555614D01*
X130099413Y-59466588D01*
X130292843Y-59337342D01*
X130457342Y-59172843D01*
X130586588Y-58979413D01*
X130675614Y-58764485D01*
X130721000Y-58536318D01*
X130721000Y-58303682D01*
X130675614Y-58075515D01*
X130586588Y-57860587D01*
X130457342Y-57667157D01*
X130292843Y-57502658D01*
X130099413Y-57373412D01*
X129884485Y-57284386D01*
X129656318Y-57239000D01*
X129423682Y-57239000D01*
X129195515Y-57284386D01*
X128980587Y-57373412D01*
X128787157Y-57502658D01*
X128622658Y-57667157D01*
X128493412Y-57860587D01*
X128404386Y-58075515D01*
X128359000Y-58303682D01*
X127306000Y-58303682D01*
X127306000Y-55763682D01*
X128359000Y-55763682D01*
X128359000Y-55996318D01*
X128404386Y-56224485D01*
X128493412Y-56439413D01*
X128622658Y-56632843D01*
X128787157Y-56797342D01*
X128980587Y-56926588D01*
X129195515Y-57015614D01*
X129423682Y-57061000D01*
X129656318Y-57061000D01*
X129884485Y-57015614D01*
X130099413Y-56926588D01*
X130292843Y-56797342D01*
X130457342Y-56632843D01*
X130586588Y-56439413D01*
X130675614Y-56224485D01*
X130721000Y-55996318D01*
X130721000Y-55763682D01*
X130899000Y-55763682D01*
X130899000Y-55996318D01*
X130944386Y-56224485D01*
X131033412Y-56439413D01*
X131162658Y-56632843D01*
X131327157Y-56797342D01*
X131520587Y-56926588D01*
X131735515Y-57015614D01*
X131963682Y-57061000D01*
X132196318Y-57061000D01*
X132424485Y-57015614D01*
X132639413Y-56926588D01*
X132832843Y-56797342D01*
X132997342Y-56632843D01*
X133126588Y-56439413D01*
X133215614Y-56224485D01*
X133261000Y-55996318D01*
X133261000Y-55763682D01*
X133215614Y-55535515D01*
X133126588Y-55320587D01*
X132997342Y-55127157D01*
X132832843Y-54962658D01*
X132639413Y-54833412D01*
X132424485Y-54744386D01*
X132196318Y-54699000D01*
X131963682Y-54699000D01*
X131735515Y-54744386D01*
X131520587Y-54833412D01*
X131327157Y-54962658D01*
X131162658Y-55127157D01*
X131033412Y-55320587D01*
X130944386Y-55535515D01*
X130899000Y-55763682D01*
X130721000Y-55763682D01*
X130675614Y-55535515D01*
X130586588Y-55320587D01*
X130457342Y-55127157D01*
X130292843Y-54962658D01*
X130099413Y-54833412D01*
X129884485Y-54744386D01*
X129656318Y-54699000D01*
X129423682Y-54699000D01*
X129195515Y-54744386D01*
X128980587Y-54833412D01*
X128787157Y-54962658D01*
X128622658Y-55127157D01*
X128493412Y-55320587D01*
X128404386Y-55535515D01*
X128359000Y-55763682D01*
X127306000Y-55763682D01*
X127306000Y-53223682D01*
X128359000Y-53223682D01*
X128359000Y-53456318D01*
X128404386Y-53684485D01*
X128493412Y-53899413D01*
X128622658Y-54092843D01*
X128787157Y-54257342D01*
X128980587Y-54386588D01*
X129195515Y-54475614D01*
X129423682Y-54521000D01*
X129656318Y-54521000D01*
X129884485Y-54475614D01*
X130099413Y-54386588D01*
X130292843Y-54257342D01*
X130457342Y-54092843D01*
X130586588Y-53899413D01*
X130675614Y-53684485D01*
X130721000Y-53456318D01*
X130721000Y-53223682D01*
X130899000Y-53223682D01*
X130899000Y-53456318D01*
X130944386Y-53684485D01*
X131033412Y-53899413D01*
X131162658Y-54092843D01*
X131327157Y-54257342D01*
X131520587Y-54386588D01*
X131735515Y-54475614D01*
X131963682Y-54521000D01*
X132196318Y-54521000D01*
X132424485Y-54475614D01*
X132639413Y-54386588D01*
X132832843Y-54257342D01*
X132997342Y-54092843D01*
X133126588Y-53899413D01*
X133215614Y-53684485D01*
X133261000Y-53456318D01*
X133261000Y-53223682D01*
X133215614Y-52995515D01*
X133126588Y-52780587D01*
X132997342Y-52587157D01*
X132832843Y-52422658D01*
X132639413Y-52293412D01*
X132424485Y-52204386D01*
X132196318Y-52159000D01*
X131963682Y-52159000D01*
X131735515Y-52204386D01*
X131520587Y-52293412D01*
X131327157Y-52422658D01*
X131162658Y-52587157D01*
X131033412Y-52780587D01*
X130944386Y-52995515D01*
X130899000Y-53223682D01*
X130721000Y-53223682D01*
X130675614Y-52995515D01*
X130586588Y-52780587D01*
X130457342Y-52587157D01*
X130292843Y-52422658D01*
X130099413Y-52293412D01*
X129884485Y-52204386D01*
X129656318Y-52159000D01*
X129423682Y-52159000D01*
X129195515Y-52204386D01*
X128980587Y-52293412D01*
X128787157Y-52422658D01*
X128622658Y-52587157D01*
X128493412Y-52780587D01*
X128404386Y-52995515D01*
X128359000Y-53223682D01*
X127306000Y-53223682D01*
X127306000Y-50683682D01*
X128359000Y-50683682D01*
X128359000Y-50916318D01*
X128404386Y-51144485D01*
X128493412Y-51359413D01*
X128622658Y-51552843D01*
X128787157Y-51717342D01*
X128980587Y-51846588D01*
X129195515Y-51935614D01*
X129423682Y-51981000D01*
X129656318Y-51981000D01*
X129884485Y-51935614D01*
X130099413Y-51846588D01*
X130292843Y-51717342D01*
X130457342Y-51552843D01*
X130586588Y-51359413D01*
X130675614Y-51144485D01*
X130721000Y-50916318D01*
X130721000Y-50683682D01*
X130899000Y-50683682D01*
X130899000Y-50916318D01*
X130944386Y-51144485D01*
X131033412Y-51359413D01*
X131162658Y-51552843D01*
X131327157Y-51717342D01*
X131520587Y-51846588D01*
X131735515Y-51935614D01*
X131963682Y-51981000D01*
X132196318Y-51981000D01*
X132424485Y-51935614D01*
X132639413Y-51846588D01*
X132832843Y-51717342D01*
X132997342Y-51552843D01*
X133126588Y-51359413D01*
X133215614Y-51144485D01*
X133261000Y-50916318D01*
X133261000Y-50683682D01*
X133215614Y-50455515D01*
X133126588Y-50240587D01*
X132997342Y-50047157D01*
X132832843Y-49882658D01*
X132639413Y-49753412D01*
X132424485Y-49664386D01*
X132196318Y-49619000D01*
X131963682Y-49619000D01*
X131735515Y-49664386D01*
X131520587Y-49753412D01*
X131327157Y-49882658D01*
X131162658Y-50047157D01*
X131033412Y-50240587D01*
X130944386Y-50455515D01*
X130899000Y-50683682D01*
X130721000Y-50683682D01*
X130675614Y-50455515D01*
X130586588Y-50240587D01*
X130457342Y-50047157D01*
X130292843Y-49882658D01*
X130175000Y-49803918D01*
X130175000Y-48143682D01*
X130899000Y-48143682D01*
X130899000Y-48376318D01*
X130944386Y-48604485D01*
X131033412Y-48819413D01*
X131162658Y-49012843D01*
X131327157Y-49177342D01*
X131520587Y-49306588D01*
X131735515Y-49395614D01*
X131963682Y-49441000D01*
X132196318Y-49441000D01*
X132424485Y-49395614D01*
X132639413Y-49306588D01*
X132832843Y-49177342D01*
X132997342Y-49012843D01*
X133126588Y-48819413D01*
X133215614Y-48604485D01*
X133261000Y-48376318D01*
X133261000Y-48143682D01*
X133215614Y-47915515D01*
X133126588Y-47700587D01*
X132997342Y-47507157D01*
X132832843Y-47342658D01*
X132639413Y-47213412D01*
X132424485Y-47124386D01*
X132196318Y-47079000D01*
X131963682Y-47079000D01*
X131735515Y-47124386D01*
X131520587Y-47213412D01*
X131327157Y-47342658D01*
X131162658Y-47507157D01*
X131033412Y-47700587D01*
X130944386Y-47915515D01*
X130899000Y-48143682D01*
X130175000Y-48143682D01*
X130175000Y-45603682D01*
X130899000Y-45603682D01*
X130899000Y-45836318D01*
X130944386Y-46064485D01*
X131033412Y-46279413D01*
X131162658Y-46472843D01*
X131327157Y-46637342D01*
X131520587Y-46766588D01*
X131735515Y-46855614D01*
X131963682Y-46901000D01*
X132196318Y-46901000D01*
X132424485Y-46855614D01*
X132639413Y-46766588D01*
X132832843Y-46637342D01*
X132997342Y-46472843D01*
X133126588Y-46279413D01*
X133215614Y-46064485D01*
X133261000Y-45836318D01*
X133261000Y-45603682D01*
X133215614Y-45375515D01*
X133126588Y-45160587D01*
X132997342Y-44967157D01*
X132832843Y-44802658D01*
X132639413Y-44673412D01*
X132424485Y-44584386D01*
X132196318Y-44539000D01*
X131963682Y-44539000D01*
X131735515Y-44584386D01*
X131520587Y-44673412D01*
X131327157Y-44802658D01*
X131162658Y-44967157D01*
X131033412Y-45160587D01*
X130944386Y-45375515D01*
X130899000Y-45603682D01*
X130175000Y-45603682D01*
X130175000Y-43063682D01*
X130899000Y-43063682D01*
X130899000Y-43296318D01*
X130944386Y-43524485D01*
X131033412Y-43739413D01*
X131162658Y-43932843D01*
X131327157Y-44097342D01*
X131520587Y-44226588D01*
X131735515Y-44315614D01*
X131963682Y-44361000D01*
X132196318Y-44361000D01*
X132424485Y-44315614D01*
X132639413Y-44226588D01*
X132832843Y-44097342D01*
X132997342Y-43932843D01*
X133126588Y-43739413D01*
X133215614Y-43524485D01*
X133261000Y-43296318D01*
X133261000Y-43063682D01*
X133215614Y-42835515D01*
X133126588Y-42620587D01*
X132997342Y-42427157D01*
X132832843Y-42262658D01*
X132639413Y-42133412D01*
X132424485Y-42044386D01*
X132196318Y-41999000D01*
X131963682Y-41999000D01*
X131735515Y-42044386D01*
X131520587Y-42133412D01*
X131327157Y-42262658D01*
X131162658Y-42427157D01*
X131033412Y-42620587D01*
X130944386Y-42835515D01*
X130899000Y-43063682D01*
X130175000Y-43063682D01*
X130175000Y-42723024D01*
X131335266Y-41562760D01*
X131520587Y-41686588D01*
X131735515Y-41775614D01*
X131963682Y-41821000D01*
X132196318Y-41821000D01*
X132424485Y-41775614D01*
X132639413Y-41686588D01*
X132832843Y-41557342D01*
X132997342Y-41392843D01*
X133126588Y-41199413D01*
X133215614Y-40984485D01*
X133261000Y-40756318D01*
X133261000Y-40523682D01*
X133215614Y-40295515D01*
X133126588Y-40080587D01*
X132997342Y-39887157D01*
X132832843Y-39722658D01*
X132639413Y-39593412D01*
X132424485Y-39504386D01*
X132196318Y-39459000D01*
X131963682Y-39459000D01*
X131735515Y-39504386D01*
X131520587Y-39593412D01*
X131327157Y-39722658D01*
X131162658Y-39887157D01*
X131033412Y-40080587D01*
X131025986Y-40098515D01*
X131005506Y-40109462D01*
X130933043Y-40168931D01*
X130933039Y-40168935D01*
X130908815Y-40188815D01*
X130888934Y-40213040D01*
X129113050Y-41988926D01*
X129088815Y-42008815D01*
X129009463Y-42105507D01*
X128950498Y-42215821D01*
X128914188Y-42335519D01*
X128905000Y-42428809D01*
X128905000Y-42428819D01*
X128901929Y-42460000D01*
X128905000Y-42491181D01*
X128905001Y-49803917D01*
X128787157Y-49882658D01*
X128622658Y-50047157D01*
X128493412Y-50240587D01*
X128404386Y-50455515D01*
X128359000Y-50683682D01*
X127306000Y-50683682D01*
X127306000Y-48986593D01*
X128540220Y-47752374D01*
X128559527Y-47736529D01*
X128622759Y-47659481D01*
X128669745Y-47571577D01*
X128698678Y-47476195D01*
X128706000Y-47401856D01*
X128706000Y-47401848D01*
X128708447Y-47377002D01*
X128706000Y-47352156D01*
X128706000Y-44888489D01*
X128714875Y-44875207D01*
X128758672Y-44769471D01*
X128781000Y-44657223D01*
X128781000Y-44542777D01*
X128758672Y-44430529D01*
X128714875Y-44324793D01*
X128651292Y-44229634D01*
X128570366Y-44148708D01*
X128475207Y-44085125D01*
X128369471Y-44041328D01*
X128257223Y-44019000D01*
X128142777Y-44019000D01*
X128030529Y-44041328D01*
X127924793Y-44085125D01*
X127829634Y-44148708D01*
X127748708Y-44229634D01*
X127685125Y-44324793D01*
X127641328Y-44430529D01*
X127619000Y-44542777D01*
X127619000Y-44657223D01*
X127641328Y-44769471D01*
X127685125Y-44875207D01*
X127694001Y-44888491D01*
X127694000Y-46626316D01*
X127657223Y-46619000D01*
X127542777Y-46619000D01*
X127430529Y-46641328D01*
X127324793Y-46685125D01*
X127229634Y-46748708D01*
X127148708Y-46829634D01*
X127085125Y-46924793D01*
X127041328Y-47030529D01*
X127038211Y-47046197D01*
X126371883Y-47712525D01*
X126369723Y-47705403D01*
X126357469Y-47682478D01*
X126322737Y-47617499D01*
X126259505Y-47540451D01*
X126240198Y-47524606D01*
X123375375Y-44659784D01*
X123375370Y-44659778D01*
X122938350Y-44222758D01*
X119015376Y-40299785D01*
X118999527Y-40280473D01*
X118922479Y-40217241D01*
X118834575Y-40170255D01*
X118739193Y-40141322D01*
X118664854Y-40134000D01*
X118664846Y-40134000D01*
X118640000Y-40131553D01*
X118615154Y-40134000D01*
X118022843Y-40134000D01*
X118022843Y-39840000D01*
X118015487Y-39765311D01*
X117993701Y-39693492D01*
X117958322Y-39627304D01*
X117910711Y-39569289D01*
X117852696Y-39521678D01*
X117786508Y-39486299D01*
X117714689Y-39464513D01*
X117640000Y-39457157D01*
X116040000Y-39457157D01*
X115965311Y-39464513D01*
X115893492Y-39486299D01*
X115827304Y-39521678D01*
X115769289Y-39569289D01*
X115721678Y-39627304D01*
X115686299Y-39693492D01*
X115664513Y-39765311D01*
X115657157Y-39840000D01*
X115657157Y-41440000D01*
X115664513Y-41514689D01*
X115686299Y-41586508D01*
X115721678Y-41652696D01*
X115769289Y-41710711D01*
X115827304Y-41758322D01*
X115893492Y-41793701D01*
X115965311Y-41815487D01*
X116040000Y-41822843D01*
X117640000Y-41822843D01*
X117714689Y-41815487D01*
X117786508Y-41793701D01*
X117852696Y-41758322D01*
X117910711Y-41710711D01*
X117958322Y-41652696D01*
X117993701Y-41586508D01*
X118015487Y-41514689D01*
X118022843Y-41440000D01*
X118022843Y-41146000D01*
X118430409Y-41146000D01*
X122659778Y-45375370D01*
X122659784Y-45375375D01*
X125393979Y-48109571D01*
X125393978Y-57613081D01*
X125244717Y-57463820D01*
X125043097Y-57329102D01*
X124966000Y-57297168D01*
X124966000Y-50084854D01*
X124968448Y-50060000D01*
X124958678Y-49960807D01*
X124929745Y-49865425D01*
X124882759Y-49777521D01*
X124819527Y-49700473D01*
X124800220Y-49684628D01*
X120495376Y-45379785D01*
X120479527Y-45360473D01*
X120402479Y-45297241D01*
X120314575Y-45250255D01*
X120219193Y-45221322D01*
X120144854Y-45214000D01*
X120144846Y-45214000D01*
X120120000Y-45211553D01*
X120095154Y-45214000D01*
X117908712Y-45214000D01*
X117886588Y-45160587D01*
X117757342Y-44967157D01*
X117592843Y-44802658D01*
X117399413Y-44673412D01*
X117184485Y-44584386D01*
X116956318Y-44539000D01*
X116723682Y-44539000D01*
X116495515Y-44584386D01*
X116280587Y-44673412D01*
X116087157Y-44802658D01*
X115922658Y-44967157D01*
X115793412Y-45160587D01*
X115706000Y-45371618D01*
X115706000Y-44009591D01*
X115866618Y-43848973D01*
X115922658Y-43932843D01*
X116087157Y-44097342D01*
X116280587Y-44226588D01*
X116495515Y-44315614D01*
X116723682Y-44361000D01*
X116956318Y-44361000D01*
X117184485Y-44315614D01*
X117399413Y-44226588D01*
X117592843Y-44097342D01*
X117757342Y-43932843D01*
X117886588Y-43739413D01*
X117975614Y-43524485D01*
X118021000Y-43296318D01*
X118021000Y-43063682D01*
X117975614Y-42835515D01*
X117886588Y-42620587D01*
X117757342Y-42427157D01*
X117592843Y-42262658D01*
X117399413Y-42133412D01*
X117184485Y-42044386D01*
X116956318Y-41999000D01*
X116723682Y-41999000D01*
X116495515Y-42044386D01*
X116280587Y-42133412D01*
X116087157Y-42262658D01*
X115922658Y-42427157D01*
X115793412Y-42620587D01*
X115770273Y-42676450D01*
X115730694Y-42680348D01*
X115720806Y-42681322D01*
X115698607Y-42688056D01*
X115625425Y-42710255D01*
X115537521Y-42757241D01*
X115460473Y-42820473D01*
X115444628Y-42839780D01*
X114859780Y-43424629D01*
X114840474Y-43440473D01*
X114777242Y-43517521D01*
X114752127Y-43564508D01*
X114730255Y-43605426D01*
X114701322Y-43700808D01*
X114691553Y-43800000D01*
X112903000Y-43800000D01*
X112903000Y-39211637D01*
X122126515Y-39239758D01*
M02*
