%TF.GenerationSoftware,KiCad,Pcbnew,(5.1.5-0-10_14)*%
%TF.CreationDate,2021-01-31T16:28:13+01:00*%
%TF.ProjectId,C64-Prog-Adapter-LB,4336342d-5072-46f6-972d-416461707465,1.0*%
%TF.SameCoordinates,Original*%
%TF.FileFunction,Copper,L1,Top*%
%TF.FilePolarity,Positive*%
%FSLAX46Y46*%
G04 Gerber Fmt 4.6, Leading zero omitted, Abs format (unit mm)*
G04 Created by KiCad (PCBNEW (5.1.5-0-10_14)) date 2021-01-31 16:28:13*
%MOMM*%
%LPD*%
G04 APERTURE LIST*
%ADD10C,0.050000*%
%ADD11C,1.600000*%
%ADD12R,1.600000X1.600000*%
%ADD13O,1.600000X1.600000*%
%ADD14C,1.700000*%
%ADD15C,0.400000*%
%ADD16C,0.508000*%
%ADD17C,0.250000*%
%ADD18C,0.254000*%
G04 APERTURE END LIST*
D10*
X124206000Y-38735000D02*
X133350000Y-38735000D01*
X124206000Y-38735000D02*
G75*
G02X122428000Y-38735000I-889000J0D01*
G01*
X133985000Y-80010000D02*
G75*
G02X133350000Y-80645000I-635000J0D01*
G01*
X113030000Y-80645000D02*
G75*
G02X112395000Y-80010000I0J635000D01*
G01*
X112395000Y-39370000D02*
G75*
G02X113030000Y-38735000I635000J0D01*
G01*
X133350000Y-38735000D02*
G75*
G02X133985000Y-39370000I0J-635000D01*
G01*
X112395000Y-80010000D02*
X112395000Y-39370000D01*
X133350000Y-80645000D02*
X113030000Y-80645000D01*
X133985000Y-39370000D02*
X133985000Y-80010000D01*
X113030000Y-38735000D02*
X122428000Y-38735000D01*
D11*
X132080000Y-40640000D03*
X132080000Y-43180000D03*
X132080000Y-45720000D03*
X132080000Y-48260000D03*
X132080000Y-50800000D03*
X116840000Y-78740000D03*
X132080000Y-53340000D03*
X116840000Y-76200000D03*
X132080000Y-55880000D03*
X116840000Y-73660000D03*
X132080000Y-58420000D03*
X116840000Y-71120000D03*
X132080000Y-60960000D03*
X116840000Y-68580000D03*
X132080000Y-63500000D03*
X116840000Y-66040000D03*
X132080000Y-66040000D03*
X116840000Y-63500000D03*
X132080000Y-68580000D03*
X116840000Y-60960000D03*
X132080000Y-71120000D03*
X116840000Y-58420000D03*
X132080000Y-73660000D03*
X116840000Y-55880000D03*
X132080000Y-76200000D03*
X116840000Y-53340000D03*
X132080000Y-78740000D03*
X116840000Y-50800000D03*
X116840000Y-48260000D03*
X116840000Y-45720000D03*
X116840000Y-43180000D03*
D12*
X116840000Y-40640000D03*
D13*
X129540000Y-50800000D03*
X114300000Y-78740000D03*
X129540000Y-53340000D03*
X114300000Y-76200000D03*
X129540000Y-55880000D03*
X114300000Y-73660000D03*
X129540000Y-58420000D03*
X114300000Y-71120000D03*
X129540000Y-60960000D03*
X114300000Y-68580000D03*
X129540000Y-63500000D03*
X114300000Y-66040000D03*
X129540000Y-66040000D03*
X114300000Y-63500000D03*
X129540000Y-68580000D03*
X114300000Y-60960000D03*
X129540000Y-71120000D03*
X114300000Y-58420000D03*
X129540000Y-73660000D03*
X114300000Y-55880000D03*
X129540000Y-76200000D03*
X114300000Y-53340000D03*
X129540000Y-78740000D03*
D12*
X114300000Y-50800000D03*
D14*
X119380000Y-58420000D03*
X121920000Y-58420000D03*
X124460000Y-58420000D03*
X119380000Y-60960000D03*
X121920000Y-60960000D03*
X124460000Y-60960000D03*
X127000000Y-73660000D03*
X127000000Y-71120000D03*
D15*
X127600000Y-47200000D03*
X128200000Y-44600000D03*
D16*
X129540000Y-53340000D02*
X132080000Y-53340000D01*
X114300000Y-76200000D02*
X116840000Y-76200000D01*
X129540000Y-55880000D02*
X132080000Y-55880000D01*
X114300000Y-73660000D02*
X116840000Y-73660000D01*
D17*
X117060000Y-48260000D02*
X116840000Y-48260000D01*
X125360000Y-62600000D02*
X118800000Y-62600000D01*
X118200000Y-49400000D02*
X117060000Y-48260000D01*
X118200000Y-62000000D02*
X118200000Y-49400000D01*
X118800000Y-62600000D02*
X118200000Y-62000000D01*
X129540000Y-58420000D02*
X125360000Y-62600000D01*
D16*
X114300000Y-71120000D02*
X116840000Y-71120000D01*
X114300000Y-68580000D02*
X116840000Y-68580000D01*
X129540000Y-63500000D02*
X132080000Y-63500000D01*
X114300000Y-66040000D02*
X116840000Y-66040000D01*
X114300000Y-63500000D02*
X116840000Y-63500000D01*
X129540000Y-68580000D02*
X132080000Y-68580000D01*
X114300000Y-60960000D02*
X116840000Y-60960000D01*
X129540000Y-71120000D02*
X132080000Y-71120000D01*
X114300000Y-58420000D02*
X116840000Y-58420000D01*
X129540000Y-73660000D02*
X132080000Y-73660000D01*
X114300000Y-55880000D02*
X116840000Y-55880000D01*
X129540000Y-76200000D02*
X132080000Y-76200000D01*
X114300000Y-53340000D02*
X116840000Y-53340000D01*
X129540000Y-78740000D02*
X132080000Y-78740000D01*
X114300000Y-50800000D02*
X116840000Y-50800000D01*
D17*
X121920000Y-58420000D02*
X121920000Y-52880000D01*
X126540000Y-48260000D02*
X132080000Y-48260000D01*
X121920000Y-52880000D02*
X126540000Y-48260000D01*
X130680000Y-49400000D02*
X132080000Y-50800000D01*
X127200000Y-50000000D02*
X127800000Y-49400000D01*
X125500000Y-59700000D02*
X127200000Y-58000000D01*
X127800000Y-49400000D02*
X130680000Y-49400000D01*
X127200000Y-58000000D02*
X127200000Y-50000000D01*
X120660000Y-59700000D02*
X125500000Y-59700000D01*
X119380000Y-58420000D02*
X120660000Y-59700000D01*
X129080000Y-45720000D02*
X127600000Y-47200000D01*
X132080000Y-45720000D02*
X129080000Y-45720000D01*
X131280001Y-61759999D02*
X132080000Y-60960000D01*
X130840000Y-62200000D02*
X131280001Y-61759999D01*
X127400000Y-62200000D02*
X130840000Y-62200000D01*
X125400000Y-64200000D02*
X127400000Y-62200000D01*
X125400000Y-72060000D02*
X125400000Y-64200000D01*
X127000000Y-73660000D02*
X125400000Y-72060000D01*
X128200000Y-44600000D02*
X128200000Y-43800000D01*
X128820000Y-43180000D02*
X132080000Y-43180000D01*
X128200000Y-43800000D02*
X128820000Y-43180000D01*
D18*
G36*
X133477000Y-80105637D02*
G01*
X112903000Y-80168363D01*
X112903000Y-79049114D01*
X113160171Y-79049114D01*
X113180527Y-79116239D01*
X113275438Y-79327408D01*
X113409722Y-79516003D01*
X113578219Y-79674777D01*
X113774454Y-79797628D01*
X113990885Y-79879835D01*
X114173000Y-79818908D01*
X114173000Y-78867000D01*
X114427000Y-78867000D01*
X114427000Y-79818908D01*
X114609115Y-79879835D01*
X114825546Y-79797628D01*
X115021781Y-79674777D01*
X115105019Y-79596342D01*
X116163263Y-79596342D01*
X116249218Y-79769207D01*
X116461358Y-79864687D01*
X116688048Y-79916945D01*
X116920578Y-79923975D01*
X117150012Y-79885505D01*
X117367532Y-79803014D01*
X117430782Y-79769207D01*
X117516737Y-79596342D01*
X116840000Y-78919605D01*
X116163263Y-79596342D01*
X115105019Y-79596342D01*
X115190278Y-79516003D01*
X115324562Y-79327408D01*
X115419473Y-79116239D01*
X115439829Y-79049114D01*
X115378297Y-78867000D01*
X114427000Y-78867000D01*
X114173000Y-78867000D01*
X113221703Y-78867000D01*
X113160171Y-79049114D01*
X112903000Y-79049114D01*
X112903000Y-78820578D01*
X115656025Y-78820578D01*
X115694495Y-79050012D01*
X115776986Y-79267532D01*
X115810793Y-79330782D01*
X115983658Y-79416737D01*
X116660395Y-78740000D01*
X117019605Y-78740000D01*
X117696342Y-79416737D01*
X117869207Y-79330782D01*
X117964687Y-79118642D01*
X118016945Y-78891952D01*
X118023975Y-78659422D01*
X118017983Y-78623682D01*
X128359000Y-78623682D01*
X128359000Y-78856318D01*
X128404386Y-79084485D01*
X128493412Y-79299413D01*
X128622658Y-79492843D01*
X128787157Y-79657342D01*
X128980587Y-79786588D01*
X129195515Y-79875614D01*
X129423682Y-79921000D01*
X129656318Y-79921000D01*
X129884485Y-79875614D01*
X130099413Y-79786588D01*
X130292843Y-79657342D01*
X130457342Y-79492843D01*
X130536082Y-79375000D01*
X131083918Y-79375000D01*
X131162658Y-79492843D01*
X131327157Y-79657342D01*
X131520587Y-79786588D01*
X131735515Y-79875614D01*
X131963682Y-79921000D01*
X132196318Y-79921000D01*
X132424485Y-79875614D01*
X132639413Y-79786588D01*
X132832843Y-79657342D01*
X132997342Y-79492843D01*
X133126588Y-79299413D01*
X133215614Y-79084485D01*
X133261000Y-78856318D01*
X133261000Y-78623682D01*
X133215614Y-78395515D01*
X133126588Y-78180587D01*
X132997342Y-77987157D01*
X132832843Y-77822658D01*
X132639413Y-77693412D01*
X132424485Y-77604386D01*
X132196318Y-77559000D01*
X131963682Y-77559000D01*
X131735515Y-77604386D01*
X131520587Y-77693412D01*
X131327157Y-77822658D01*
X131162658Y-77987157D01*
X131083918Y-78105000D01*
X130536082Y-78105000D01*
X130457342Y-77987157D01*
X130292843Y-77822658D01*
X130099413Y-77693412D01*
X129884485Y-77604386D01*
X129656318Y-77559000D01*
X129423682Y-77559000D01*
X129195515Y-77604386D01*
X128980587Y-77693412D01*
X128787157Y-77822658D01*
X128622658Y-77987157D01*
X128493412Y-78180587D01*
X128404386Y-78395515D01*
X128359000Y-78623682D01*
X118017983Y-78623682D01*
X117985505Y-78429988D01*
X117903014Y-78212468D01*
X117869207Y-78149218D01*
X117696342Y-78063263D01*
X117019605Y-78740000D01*
X116660395Y-78740000D01*
X115983658Y-78063263D01*
X115810793Y-78149218D01*
X115715313Y-78361358D01*
X115663055Y-78588048D01*
X115656025Y-78820578D01*
X112903000Y-78820578D01*
X112903000Y-78430886D01*
X113160171Y-78430886D01*
X113221703Y-78613000D01*
X114173000Y-78613000D01*
X114173000Y-77661092D01*
X114427000Y-77661092D01*
X114427000Y-78613000D01*
X115378297Y-78613000D01*
X115439829Y-78430886D01*
X115419473Y-78363761D01*
X115324562Y-78152592D01*
X115190278Y-77963997D01*
X115105020Y-77883658D01*
X116163263Y-77883658D01*
X116840000Y-78560395D01*
X117516737Y-77883658D01*
X117430782Y-77710793D01*
X117218642Y-77615313D01*
X116991952Y-77563055D01*
X116759422Y-77556025D01*
X116529988Y-77594495D01*
X116312468Y-77676986D01*
X116249218Y-77710793D01*
X116163263Y-77883658D01*
X115105020Y-77883658D01*
X115021781Y-77805223D01*
X114825546Y-77682372D01*
X114609115Y-77600165D01*
X114427000Y-77661092D01*
X114173000Y-77661092D01*
X113990885Y-77600165D01*
X113774454Y-77682372D01*
X113578219Y-77805223D01*
X113409722Y-77963997D01*
X113275438Y-78152592D01*
X113180527Y-78363761D01*
X113160171Y-78430886D01*
X112903000Y-78430886D01*
X112903000Y-76083682D01*
X113119000Y-76083682D01*
X113119000Y-76316318D01*
X113164386Y-76544485D01*
X113253412Y-76759413D01*
X113382658Y-76952843D01*
X113547157Y-77117342D01*
X113740587Y-77246588D01*
X113955515Y-77335614D01*
X114183682Y-77381000D01*
X114416318Y-77381000D01*
X114644485Y-77335614D01*
X114859413Y-77246588D01*
X115052843Y-77117342D01*
X115217342Y-76952843D01*
X115296082Y-76835000D01*
X115843918Y-76835000D01*
X115922658Y-76952843D01*
X116087157Y-77117342D01*
X116280587Y-77246588D01*
X116495515Y-77335614D01*
X116723682Y-77381000D01*
X116956318Y-77381000D01*
X117184485Y-77335614D01*
X117399413Y-77246588D01*
X117592843Y-77117342D01*
X117757342Y-76952843D01*
X117886588Y-76759413D01*
X117975614Y-76544485D01*
X118021000Y-76316318D01*
X118021000Y-76083682D01*
X128359000Y-76083682D01*
X128359000Y-76316318D01*
X128404386Y-76544485D01*
X128493412Y-76759413D01*
X128622658Y-76952843D01*
X128787157Y-77117342D01*
X128980587Y-77246588D01*
X129195515Y-77335614D01*
X129423682Y-77381000D01*
X129656318Y-77381000D01*
X129884485Y-77335614D01*
X130099413Y-77246588D01*
X130292843Y-77117342D01*
X130457342Y-76952843D01*
X130536082Y-76835000D01*
X131083918Y-76835000D01*
X131162658Y-76952843D01*
X131327157Y-77117342D01*
X131520587Y-77246588D01*
X131735515Y-77335614D01*
X131963682Y-77381000D01*
X132196318Y-77381000D01*
X132424485Y-77335614D01*
X132639413Y-77246588D01*
X132832843Y-77117342D01*
X132997342Y-76952843D01*
X133126588Y-76759413D01*
X133215614Y-76544485D01*
X133261000Y-76316318D01*
X133261000Y-76083682D01*
X133215614Y-75855515D01*
X133126588Y-75640587D01*
X132997342Y-75447157D01*
X132832843Y-75282658D01*
X132639413Y-75153412D01*
X132424485Y-75064386D01*
X132196318Y-75019000D01*
X131963682Y-75019000D01*
X131735515Y-75064386D01*
X131520587Y-75153412D01*
X131327157Y-75282658D01*
X131162658Y-75447157D01*
X131083918Y-75565000D01*
X130536082Y-75565000D01*
X130457342Y-75447157D01*
X130292843Y-75282658D01*
X130099413Y-75153412D01*
X129884485Y-75064386D01*
X129656318Y-75019000D01*
X129423682Y-75019000D01*
X129195515Y-75064386D01*
X128980587Y-75153412D01*
X128787157Y-75282658D01*
X128622658Y-75447157D01*
X128493412Y-75640587D01*
X128404386Y-75855515D01*
X128359000Y-76083682D01*
X118021000Y-76083682D01*
X117975614Y-75855515D01*
X117886588Y-75640587D01*
X117757342Y-75447157D01*
X117592843Y-75282658D01*
X117399413Y-75153412D01*
X117184485Y-75064386D01*
X116956318Y-75019000D01*
X116723682Y-75019000D01*
X116495515Y-75064386D01*
X116280587Y-75153412D01*
X116087157Y-75282658D01*
X115922658Y-75447157D01*
X115843918Y-75565000D01*
X115296082Y-75565000D01*
X115217342Y-75447157D01*
X115052843Y-75282658D01*
X114859413Y-75153412D01*
X114644485Y-75064386D01*
X114416318Y-75019000D01*
X114183682Y-75019000D01*
X113955515Y-75064386D01*
X113740587Y-75153412D01*
X113547157Y-75282658D01*
X113382658Y-75447157D01*
X113253412Y-75640587D01*
X113164386Y-75855515D01*
X113119000Y-76083682D01*
X112903000Y-76083682D01*
X112903000Y-73543682D01*
X113119000Y-73543682D01*
X113119000Y-73776318D01*
X113164386Y-74004485D01*
X113253412Y-74219413D01*
X113382658Y-74412843D01*
X113547157Y-74577342D01*
X113740587Y-74706588D01*
X113955515Y-74795614D01*
X114183682Y-74841000D01*
X114416318Y-74841000D01*
X114644485Y-74795614D01*
X114859413Y-74706588D01*
X115052843Y-74577342D01*
X115217342Y-74412843D01*
X115296082Y-74295000D01*
X115843918Y-74295000D01*
X115922658Y-74412843D01*
X116087157Y-74577342D01*
X116280587Y-74706588D01*
X116495515Y-74795614D01*
X116723682Y-74841000D01*
X116956318Y-74841000D01*
X117184485Y-74795614D01*
X117399413Y-74706588D01*
X117592843Y-74577342D01*
X117757342Y-74412843D01*
X117886588Y-74219413D01*
X117975614Y-74004485D01*
X118021000Y-73776318D01*
X118021000Y-73543682D01*
X117975614Y-73315515D01*
X117886588Y-73100587D01*
X117757342Y-72907157D01*
X117592843Y-72742658D01*
X117399413Y-72613412D01*
X117184485Y-72524386D01*
X116956318Y-72479000D01*
X116723682Y-72479000D01*
X116495515Y-72524386D01*
X116280587Y-72613412D01*
X116087157Y-72742658D01*
X115922658Y-72907157D01*
X115843918Y-73025000D01*
X115296082Y-73025000D01*
X115217342Y-72907157D01*
X115052843Y-72742658D01*
X114859413Y-72613412D01*
X114644485Y-72524386D01*
X114416318Y-72479000D01*
X114183682Y-72479000D01*
X113955515Y-72524386D01*
X113740587Y-72613412D01*
X113547157Y-72742658D01*
X113382658Y-72907157D01*
X113253412Y-73100587D01*
X113164386Y-73315515D01*
X113119000Y-73543682D01*
X112903000Y-73543682D01*
X112903000Y-71003682D01*
X113119000Y-71003682D01*
X113119000Y-71236318D01*
X113164386Y-71464485D01*
X113253412Y-71679413D01*
X113382658Y-71872843D01*
X113547157Y-72037342D01*
X113740587Y-72166588D01*
X113955515Y-72255614D01*
X114183682Y-72301000D01*
X114416318Y-72301000D01*
X114644485Y-72255614D01*
X114859413Y-72166588D01*
X115052843Y-72037342D01*
X115217342Y-71872843D01*
X115296082Y-71755000D01*
X115843918Y-71755000D01*
X115922658Y-71872843D01*
X116087157Y-72037342D01*
X116280587Y-72166588D01*
X116495515Y-72255614D01*
X116723682Y-72301000D01*
X116956318Y-72301000D01*
X117184485Y-72255614D01*
X117399413Y-72166588D01*
X117592843Y-72037342D01*
X117757342Y-71872843D01*
X117886588Y-71679413D01*
X117975614Y-71464485D01*
X118021000Y-71236318D01*
X118021000Y-71003682D01*
X117975614Y-70775515D01*
X117886588Y-70560587D01*
X117757342Y-70367157D01*
X117592843Y-70202658D01*
X117399413Y-70073412D01*
X117184485Y-69984386D01*
X116956318Y-69939000D01*
X116723682Y-69939000D01*
X116495515Y-69984386D01*
X116280587Y-70073412D01*
X116087157Y-70202658D01*
X115922658Y-70367157D01*
X115843918Y-70485000D01*
X115296082Y-70485000D01*
X115217342Y-70367157D01*
X115052843Y-70202658D01*
X114859413Y-70073412D01*
X114644485Y-69984386D01*
X114416318Y-69939000D01*
X114183682Y-69939000D01*
X113955515Y-69984386D01*
X113740587Y-70073412D01*
X113547157Y-70202658D01*
X113382658Y-70367157D01*
X113253412Y-70560587D01*
X113164386Y-70775515D01*
X113119000Y-71003682D01*
X112903000Y-71003682D01*
X112903000Y-68463682D01*
X113119000Y-68463682D01*
X113119000Y-68696318D01*
X113164386Y-68924485D01*
X113253412Y-69139413D01*
X113382658Y-69332843D01*
X113547157Y-69497342D01*
X113740587Y-69626588D01*
X113955515Y-69715614D01*
X114183682Y-69761000D01*
X114416318Y-69761000D01*
X114644485Y-69715614D01*
X114859413Y-69626588D01*
X115052843Y-69497342D01*
X115217342Y-69332843D01*
X115296082Y-69215000D01*
X115843918Y-69215000D01*
X115922658Y-69332843D01*
X116087157Y-69497342D01*
X116280587Y-69626588D01*
X116495515Y-69715614D01*
X116723682Y-69761000D01*
X116956318Y-69761000D01*
X117184485Y-69715614D01*
X117399413Y-69626588D01*
X117592843Y-69497342D01*
X117757342Y-69332843D01*
X117886588Y-69139413D01*
X117975614Y-68924485D01*
X118021000Y-68696318D01*
X118021000Y-68463682D01*
X117975614Y-68235515D01*
X117886588Y-68020587D01*
X117757342Y-67827157D01*
X117592843Y-67662658D01*
X117399413Y-67533412D01*
X117184485Y-67444386D01*
X116956318Y-67399000D01*
X116723682Y-67399000D01*
X116495515Y-67444386D01*
X116280587Y-67533412D01*
X116087157Y-67662658D01*
X115922658Y-67827157D01*
X115843918Y-67945000D01*
X115296082Y-67945000D01*
X115217342Y-67827157D01*
X115052843Y-67662658D01*
X114859413Y-67533412D01*
X114644485Y-67444386D01*
X114416318Y-67399000D01*
X114183682Y-67399000D01*
X113955515Y-67444386D01*
X113740587Y-67533412D01*
X113547157Y-67662658D01*
X113382658Y-67827157D01*
X113253412Y-68020587D01*
X113164386Y-68235515D01*
X113119000Y-68463682D01*
X112903000Y-68463682D01*
X112903000Y-65923682D01*
X113119000Y-65923682D01*
X113119000Y-66156318D01*
X113164386Y-66384485D01*
X113253412Y-66599413D01*
X113382658Y-66792843D01*
X113547157Y-66957342D01*
X113740587Y-67086588D01*
X113955515Y-67175614D01*
X114183682Y-67221000D01*
X114416318Y-67221000D01*
X114644485Y-67175614D01*
X114859413Y-67086588D01*
X115052843Y-66957342D01*
X115217342Y-66792843D01*
X115296082Y-66675000D01*
X115843918Y-66675000D01*
X115922658Y-66792843D01*
X116087157Y-66957342D01*
X116280587Y-67086588D01*
X116495515Y-67175614D01*
X116723682Y-67221000D01*
X116956318Y-67221000D01*
X117184485Y-67175614D01*
X117399413Y-67086588D01*
X117592843Y-66957342D01*
X117757342Y-66792843D01*
X117886588Y-66599413D01*
X117975614Y-66384485D01*
X118021000Y-66156318D01*
X118021000Y-65923682D01*
X117975614Y-65695515D01*
X117886588Y-65480587D01*
X117757342Y-65287157D01*
X117592843Y-65122658D01*
X117399413Y-64993412D01*
X117184485Y-64904386D01*
X116956318Y-64859000D01*
X116723682Y-64859000D01*
X116495515Y-64904386D01*
X116280587Y-64993412D01*
X116087157Y-65122658D01*
X115922658Y-65287157D01*
X115843918Y-65405000D01*
X115296082Y-65405000D01*
X115217342Y-65287157D01*
X115052843Y-65122658D01*
X114859413Y-64993412D01*
X114644485Y-64904386D01*
X114416318Y-64859000D01*
X114183682Y-64859000D01*
X113955515Y-64904386D01*
X113740587Y-64993412D01*
X113547157Y-65122658D01*
X113382658Y-65287157D01*
X113253412Y-65480587D01*
X113164386Y-65695515D01*
X113119000Y-65923682D01*
X112903000Y-65923682D01*
X112903000Y-63383682D01*
X113119000Y-63383682D01*
X113119000Y-63616318D01*
X113164386Y-63844485D01*
X113253412Y-64059413D01*
X113382658Y-64252843D01*
X113547157Y-64417342D01*
X113740587Y-64546588D01*
X113955515Y-64635614D01*
X114183682Y-64681000D01*
X114416318Y-64681000D01*
X114644485Y-64635614D01*
X114859413Y-64546588D01*
X115052843Y-64417342D01*
X115217342Y-64252843D01*
X115296082Y-64135000D01*
X115843918Y-64135000D01*
X115922658Y-64252843D01*
X116087157Y-64417342D01*
X116280587Y-64546588D01*
X116495515Y-64635614D01*
X116723682Y-64681000D01*
X116956318Y-64681000D01*
X117184485Y-64635614D01*
X117399413Y-64546588D01*
X117592843Y-64417342D01*
X117757342Y-64252843D01*
X117792650Y-64200000D01*
X124891553Y-64200000D01*
X124894001Y-64224856D01*
X124894000Y-72035154D01*
X124891553Y-72060000D01*
X124894000Y-72084846D01*
X124894000Y-72084853D01*
X124901322Y-72159192D01*
X124930255Y-72254574D01*
X124977241Y-72342479D01*
X125040473Y-72419527D01*
X125059785Y-72435376D01*
X125848242Y-73223833D01*
X125816307Y-73300931D01*
X125769000Y-73538757D01*
X125769000Y-73781243D01*
X125816307Y-74019069D01*
X125909102Y-74243097D01*
X126043820Y-74444717D01*
X126215283Y-74616180D01*
X126416903Y-74750898D01*
X126640931Y-74843693D01*
X126878757Y-74891000D01*
X127121243Y-74891000D01*
X127359069Y-74843693D01*
X127583097Y-74750898D01*
X127784717Y-74616180D01*
X127956180Y-74444717D01*
X128090898Y-74243097D01*
X128183693Y-74019069D01*
X128231000Y-73781243D01*
X128231000Y-73543682D01*
X128359000Y-73543682D01*
X128359000Y-73776318D01*
X128404386Y-74004485D01*
X128493412Y-74219413D01*
X128622658Y-74412843D01*
X128787157Y-74577342D01*
X128980587Y-74706588D01*
X129195515Y-74795614D01*
X129423682Y-74841000D01*
X129656318Y-74841000D01*
X129884485Y-74795614D01*
X130099413Y-74706588D01*
X130292843Y-74577342D01*
X130457342Y-74412843D01*
X130536082Y-74295000D01*
X131083918Y-74295000D01*
X131162658Y-74412843D01*
X131327157Y-74577342D01*
X131520587Y-74706588D01*
X131735515Y-74795614D01*
X131963682Y-74841000D01*
X132196318Y-74841000D01*
X132424485Y-74795614D01*
X132639413Y-74706588D01*
X132832843Y-74577342D01*
X132997342Y-74412843D01*
X133126588Y-74219413D01*
X133215614Y-74004485D01*
X133261000Y-73776318D01*
X133261000Y-73543682D01*
X133215614Y-73315515D01*
X133126588Y-73100587D01*
X132997342Y-72907157D01*
X132832843Y-72742658D01*
X132639413Y-72613412D01*
X132424485Y-72524386D01*
X132196318Y-72479000D01*
X131963682Y-72479000D01*
X131735515Y-72524386D01*
X131520587Y-72613412D01*
X131327157Y-72742658D01*
X131162658Y-72907157D01*
X131083918Y-73025000D01*
X130536082Y-73025000D01*
X130457342Y-72907157D01*
X130292843Y-72742658D01*
X130099413Y-72613412D01*
X129884485Y-72524386D01*
X129656318Y-72479000D01*
X129423682Y-72479000D01*
X129195515Y-72524386D01*
X128980587Y-72613412D01*
X128787157Y-72742658D01*
X128622658Y-72907157D01*
X128493412Y-73100587D01*
X128404386Y-73315515D01*
X128359000Y-73543682D01*
X128231000Y-73543682D01*
X128231000Y-73538757D01*
X128183693Y-73300931D01*
X128090898Y-73076903D01*
X127956180Y-72875283D01*
X127784717Y-72703820D01*
X127583097Y-72569102D01*
X127359069Y-72476307D01*
X127121243Y-72429000D01*
X126878757Y-72429000D01*
X126640931Y-72476307D01*
X126563833Y-72508242D01*
X125906000Y-71850409D01*
X125906000Y-71695608D01*
X125909102Y-71703097D01*
X126043820Y-71904717D01*
X126215283Y-72076180D01*
X126416903Y-72210898D01*
X126640931Y-72303693D01*
X126878757Y-72351000D01*
X127121243Y-72351000D01*
X127359069Y-72303693D01*
X127583097Y-72210898D01*
X127784717Y-72076180D01*
X127956180Y-71904717D01*
X128090898Y-71703097D01*
X128183693Y-71479069D01*
X128231000Y-71241243D01*
X128231000Y-71003682D01*
X128359000Y-71003682D01*
X128359000Y-71236318D01*
X128404386Y-71464485D01*
X128493412Y-71679413D01*
X128622658Y-71872843D01*
X128787157Y-72037342D01*
X128980587Y-72166588D01*
X129195515Y-72255614D01*
X129423682Y-72301000D01*
X129656318Y-72301000D01*
X129884485Y-72255614D01*
X130099413Y-72166588D01*
X130292843Y-72037342D01*
X130457342Y-71872843D01*
X130536082Y-71755000D01*
X131083918Y-71755000D01*
X131162658Y-71872843D01*
X131327157Y-72037342D01*
X131520587Y-72166588D01*
X131735515Y-72255614D01*
X131963682Y-72301000D01*
X132196318Y-72301000D01*
X132424485Y-72255614D01*
X132639413Y-72166588D01*
X132832843Y-72037342D01*
X132997342Y-71872843D01*
X133126588Y-71679413D01*
X133215614Y-71464485D01*
X133261000Y-71236318D01*
X133261000Y-71003682D01*
X133215614Y-70775515D01*
X133126588Y-70560587D01*
X132997342Y-70367157D01*
X132832843Y-70202658D01*
X132639413Y-70073412D01*
X132424485Y-69984386D01*
X132196318Y-69939000D01*
X131963682Y-69939000D01*
X131735515Y-69984386D01*
X131520587Y-70073412D01*
X131327157Y-70202658D01*
X131162658Y-70367157D01*
X131083918Y-70485000D01*
X130536082Y-70485000D01*
X130457342Y-70367157D01*
X130292843Y-70202658D01*
X130099413Y-70073412D01*
X129884485Y-69984386D01*
X129656318Y-69939000D01*
X129423682Y-69939000D01*
X129195515Y-69984386D01*
X128980587Y-70073412D01*
X128787157Y-70202658D01*
X128622658Y-70367157D01*
X128493412Y-70560587D01*
X128404386Y-70775515D01*
X128359000Y-71003682D01*
X128231000Y-71003682D01*
X128231000Y-70998757D01*
X128183693Y-70760931D01*
X128090898Y-70536903D01*
X127956180Y-70335283D01*
X127784717Y-70163820D01*
X127583097Y-70029102D01*
X127359069Y-69936307D01*
X127121243Y-69889000D01*
X126878757Y-69889000D01*
X126640931Y-69936307D01*
X126416903Y-70029102D01*
X126215283Y-70163820D01*
X126043820Y-70335283D01*
X125909102Y-70536903D01*
X125906000Y-70544392D01*
X125906000Y-68463682D01*
X128359000Y-68463682D01*
X128359000Y-68696318D01*
X128404386Y-68924485D01*
X128493412Y-69139413D01*
X128622658Y-69332843D01*
X128787157Y-69497342D01*
X128980587Y-69626588D01*
X129195515Y-69715614D01*
X129423682Y-69761000D01*
X129656318Y-69761000D01*
X129884485Y-69715614D01*
X130099413Y-69626588D01*
X130292843Y-69497342D01*
X130457342Y-69332843D01*
X130536082Y-69215000D01*
X131083918Y-69215000D01*
X131162658Y-69332843D01*
X131327157Y-69497342D01*
X131520587Y-69626588D01*
X131735515Y-69715614D01*
X131963682Y-69761000D01*
X132196318Y-69761000D01*
X132424485Y-69715614D01*
X132639413Y-69626588D01*
X132832843Y-69497342D01*
X132997342Y-69332843D01*
X133126588Y-69139413D01*
X133215614Y-68924485D01*
X133261000Y-68696318D01*
X133261000Y-68463682D01*
X133215614Y-68235515D01*
X133126588Y-68020587D01*
X132997342Y-67827157D01*
X132832843Y-67662658D01*
X132639413Y-67533412D01*
X132424485Y-67444386D01*
X132196318Y-67399000D01*
X131963682Y-67399000D01*
X131735515Y-67444386D01*
X131520587Y-67533412D01*
X131327157Y-67662658D01*
X131162658Y-67827157D01*
X131083918Y-67945000D01*
X130536082Y-67945000D01*
X130457342Y-67827157D01*
X130292843Y-67662658D01*
X130099413Y-67533412D01*
X129884485Y-67444386D01*
X129656318Y-67399000D01*
X129423682Y-67399000D01*
X129195515Y-67444386D01*
X128980587Y-67533412D01*
X128787157Y-67662658D01*
X128622658Y-67827157D01*
X128493412Y-68020587D01*
X128404386Y-68235515D01*
X128359000Y-68463682D01*
X125906000Y-68463682D01*
X125906000Y-65923682D01*
X128359000Y-65923682D01*
X128359000Y-66156318D01*
X128404386Y-66384485D01*
X128493412Y-66599413D01*
X128622658Y-66792843D01*
X128787157Y-66957342D01*
X128980587Y-67086588D01*
X129195515Y-67175614D01*
X129423682Y-67221000D01*
X129656318Y-67221000D01*
X129884485Y-67175614D01*
X130099413Y-67086588D01*
X130292843Y-66957342D01*
X130457342Y-66792843D01*
X130586588Y-66599413D01*
X130675614Y-66384485D01*
X130721000Y-66156318D01*
X130721000Y-65923682D01*
X130899000Y-65923682D01*
X130899000Y-66156318D01*
X130944386Y-66384485D01*
X131033412Y-66599413D01*
X131162658Y-66792843D01*
X131327157Y-66957342D01*
X131520587Y-67086588D01*
X131735515Y-67175614D01*
X131963682Y-67221000D01*
X132196318Y-67221000D01*
X132424485Y-67175614D01*
X132639413Y-67086588D01*
X132832843Y-66957342D01*
X132997342Y-66792843D01*
X133126588Y-66599413D01*
X133215614Y-66384485D01*
X133261000Y-66156318D01*
X133261000Y-65923682D01*
X133215614Y-65695515D01*
X133126588Y-65480587D01*
X132997342Y-65287157D01*
X132832843Y-65122658D01*
X132639413Y-64993412D01*
X132424485Y-64904386D01*
X132196318Y-64859000D01*
X131963682Y-64859000D01*
X131735515Y-64904386D01*
X131520587Y-64993412D01*
X131327157Y-65122658D01*
X131162658Y-65287157D01*
X131033412Y-65480587D01*
X130944386Y-65695515D01*
X130899000Y-65923682D01*
X130721000Y-65923682D01*
X130675614Y-65695515D01*
X130586588Y-65480587D01*
X130457342Y-65287157D01*
X130292843Y-65122658D01*
X130099413Y-64993412D01*
X129884485Y-64904386D01*
X129656318Y-64859000D01*
X129423682Y-64859000D01*
X129195515Y-64904386D01*
X128980587Y-64993412D01*
X128787157Y-65122658D01*
X128622658Y-65287157D01*
X128493412Y-65480587D01*
X128404386Y-65695515D01*
X128359000Y-65923682D01*
X125906000Y-65923682D01*
X125906000Y-64409591D01*
X127609592Y-62706000D01*
X128663815Y-62706000D01*
X128622658Y-62747157D01*
X128493412Y-62940587D01*
X128404386Y-63155515D01*
X128359000Y-63383682D01*
X128359000Y-63616318D01*
X128404386Y-63844485D01*
X128493412Y-64059413D01*
X128622658Y-64252843D01*
X128787157Y-64417342D01*
X128980587Y-64546588D01*
X129195515Y-64635614D01*
X129423682Y-64681000D01*
X129656318Y-64681000D01*
X129884485Y-64635614D01*
X130099413Y-64546588D01*
X130292843Y-64417342D01*
X130457342Y-64252843D01*
X130536082Y-64135000D01*
X131083918Y-64135000D01*
X131162658Y-64252843D01*
X131327157Y-64417342D01*
X131520587Y-64546588D01*
X131735515Y-64635614D01*
X131963682Y-64681000D01*
X132196318Y-64681000D01*
X132424485Y-64635614D01*
X132639413Y-64546588D01*
X132832843Y-64417342D01*
X132997342Y-64252843D01*
X133126588Y-64059413D01*
X133215614Y-63844485D01*
X133261000Y-63616318D01*
X133261000Y-63383682D01*
X133215614Y-63155515D01*
X133126588Y-62940587D01*
X132997342Y-62747157D01*
X132832843Y-62582658D01*
X132639413Y-62453412D01*
X132424485Y-62364386D01*
X132196318Y-62319000D01*
X131963682Y-62319000D01*
X131735515Y-62364386D01*
X131520587Y-62453412D01*
X131327157Y-62582658D01*
X131162658Y-62747157D01*
X131083918Y-62865000D01*
X130536082Y-62865000D01*
X130457342Y-62747157D01*
X130416185Y-62706000D01*
X130815154Y-62706000D01*
X130840000Y-62708447D01*
X130864846Y-62706000D01*
X130864854Y-62706000D01*
X130939193Y-62698678D01*
X131034575Y-62669745D01*
X131122479Y-62622759D01*
X131199527Y-62559527D01*
X131215376Y-62540215D01*
X131655371Y-62100221D01*
X131655375Y-62100216D01*
X131682102Y-62073489D01*
X131735515Y-62095614D01*
X131963682Y-62141000D01*
X132196318Y-62141000D01*
X132424485Y-62095614D01*
X132639413Y-62006588D01*
X132832843Y-61877342D01*
X132997342Y-61712843D01*
X133126588Y-61519413D01*
X133215614Y-61304485D01*
X133261000Y-61076318D01*
X133261000Y-60843682D01*
X133215614Y-60615515D01*
X133126588Y-60400587D01*
X132997342Y-60207157D01*
X132832843Y-60042658D01*
X132639413Y-59913412D01*
X132424485Y-59824386D01*
X132196318Y-59779000D01*
X131963682Y-59779000D01*
X131735515Y-59824386D01*
X131520587Y-59913412D01*
X131327157Y-60042658D01*
X131162658Y-60207157D01*
X131033412Y-60400587D01*
X130944386Y-60615515D01*
X130899000Y-60843682D01*
X130899000Y-61076318D01*
X130944386Y-61304485D01*
X130966511Y-61357898D01*
X130939784Y-61384625D01*
X130939779Y-61384629D01*
X130630409Y-61694000D01*
X130469933Y-61694000D01*
X130586588Y-61519413D01*
X130675614Y-61304485D01*
X130721000Y-61076318D01*
X130721000Y-60843682D01*
X130675614Y-60615515D01*
X130586588Y-60400587D01*
X130457342Y-60207157D01*
X130292843Y-60042658D01*
X130099413Y-59913412D01*
X129884485Y-59824386D01*
X129656318Y-59779000D01*
X129423682Y-59779000D01*
X129195515Y-59824386D01*
X128980587Y-59913412D01*
X128787157Y-60042658D01*
X128622658Y-60207157D01*
X128493412Y-60400587D01*
X128404386Y-60615515D01*
X128359000Y-60843682D01*
X128359000Y-61076318D01*
X128404386Y-61304485D01*
X128493412Y-61519413D01*
X128610067Y-61694000D01*
X127424845Y-61694000D01*
X127399999Y-61691553D01*
X127375153Y-61694000D01*
X127375146Y-61694000D01*
X127310694Y-61700348D01*
X127300806Y-61701322D01*
X127262826Y-61712843D01*
X127205425Y-61730255D01*
X127117521Y-61777241D01*
X127040473Y-61840473D01*
X127024629Y-61859779D01*
X125059781Y-63824628D01*
X125040474Y-63840473D01*
X124977242Y-63917521D01*
X124959248Y-63951185D01*
X124930255Y-64005426D01*
X124901322Y-64100808D01*
X124891553Y-64200000D01*
X117792650Y-64200000D01*
X117886588Y-64059413D01*
X117975614Y-63844485D01*
X118021000Y-63616318D01*
X118021000Y-63383682D01*
X117975614Y-63155515D01*
X117886588Y-62940587D01*
X117757342Y-62747157D01*
X117592843Y-62582658D01*
X117399413Y-62453412D01*
X117184485Y-62364386D01*
X116956318Y-62319000D01*
X116723682Y-62319000D01*
X116495515Y-62364386D01*
X116280587Y-62453412D01*
X116087157Y-62582658D01*
X115922658Y-62747157D01*
X115843918Y-62865000D01*
X115296082Y-62865000D01*
X115217342Y-62747157D01*
X115052843Y-62582658D01*
X114859413Y-62453412D01*
X114644485Y-62364386D01*
X114416318Y-62319000D01*
X114183682Y-62319000D01*
X113955515Y-62364386D01*
X113740587Y-62453412D01*
X113547157Y-62582658D01*
X113382658Y-62747157D01*
X113253412Y-62940587D01*
X113164386Y-63155515D01*
X113119000Y-63383682D01*
X112903000Y-63383682D01*
X112903000Y-50000000D01*
X113117157Y-50000000D01*
X113117157Y-51600000D01*
X113124513Y-51674689D01*
X113146299Y-51746508D01*
X113181678Y-51812696D01*
X113229289Y-51870711D01*
X113287304Y-51918322D01*
X113353492Y-51953701D01*
X113425311Y-51975487D01*
X113500000Y-51982843D01*
X115100000Y-51982843D01*
X115174689Y-51975487D01*
X115246508Y-51953701D01*
X115312696Y-51918322D01*
X115370711Y-51870711D01*
X115418322Y-51812696D01*
X115453701Y-51746508D01*
X115475487Y-51674689D01*
X115482843Y-51600000D01*
X115482843Y-51435000D01*
X115843918Y-51435000D01*
X115922658Y-51552843D01*
X116087157Y-51717342D01*
X116280587Y-51846588D01*
X116495515Y-51935614D01*
X116723682Y-51981000D01*
X116956318Y-51981000D01*
X117184485Y-51935614D01*
X117399413Y-51846588D01*
X117592843Y-51717342D01*
X117694001Y-51616184D01*
X117694001Y-52523816D01*
X117592843Y-52422658D01*
X117399413Y-52293412D01*
X117184485Y-52204386D01*
X116956318Y-52159000D01*
X116723682Y-52159000D01*
X116495515Y-52204386D01*
X116280587Y-52293412D01*
X116087157Y-52422658D01*
X115922658Y-52587157D01*
X115843918Y-52705000D01*
X115296082Y-52705000D01*
X115217342Y-52587157D01*
X115052843Y-52422658D01*
X114859413Y-52293412D01*
X114644485Y-52204386D01*
X114416318Y-52159000D01*
X114183682Y-52159000D01*
X113955515Y-52204386D01*
X113740587Y-52293412D01*
X113547157Y-52422658D01*
X113382658Y-52587157D01*
X113253412Y-52780587D01*
X113164386Y-52995515D01*
X113119000Y-53223682D01*
X113119000Y-53456318D01*
X113164386Y-53684485D01*
X113253412Y-53899413D01*
X113382658Y-54092843D01*
X113547157Y-54257342D01*
X113740587Y-54386588D01*
X113955515Y-54475614D01*
X114183682Y-54521000D01*
X114416318Y-54521000D01*
X114644485Y-54475614D01*
X114859413Y-54386588D01*
X115052843Y-54257342D01*
X115217342Y-54092843D01*
X115296082Y-53975000D01*
X115843918Y-53975000D01*
X115922658Y-54092843D01*
X116087157Y-54257342D01*
X116280587Y-54386588D01*
X116495515Y-54475614D01*
X116723682Y-54521000D01*
X116956318Y-54521000D01*
X117184485Y-54475614D01*
X117399413Y-54386588D01*
X117592843Y-54257342D01*
X117694001Y-54156184D01*
X117694001Y-55063816D01*
X117592843Y-54962658D01*
X117399413Y-54833412D01*
X117184485Y-54744386D01*
X116956318Y-54699000D01*
X116723682Y-54699000D01*
X116495515Y-54744386D01*
X116280587Y-54833412D01*
X116087157Y-54962658D01*
X115922658Y-55127157D01*
X115843918Y-55245000D01*
X115296082Y-55245000D01*
X115217342Y-55127157D01*
X115052843Y-54962658D01*
X114859413Y-54833412D01*
X114644485Y-54744386D01*
X114416318Y-54699000D01*
X114183682Y-54699000D01*
X113955515Y-54744386D01*
X113740587Y-54833412D01*
X113547157Y-54962658D01*
X113382658Y-55127157D01*
X113253412Y-55320587D01*
X113164386Y-55535515D01*
X113119000Y-55763682D01*
X113119000Y-55996318D01*
X113164386Y-56224485D01*
X113253412Y-56439413D01*
X113382658Y-56632843D01*
X113547157Y-56797342D01*
X113740587Y-56926588D01*
X113955515Y-57015614D01*
X114183682Y-57061000D01*
X114416318Y-57061000D01*
X114644485Y-57015614D01*
X114859413Y-56926588D01*
X115052843Y-56797342D01*
X115217342Y-56632843D01*
X115296082Y-56515000D01*
X115843918Y-56515000D01*
X115922658Y-56632843D01*
X116087157Y-56797342D01*
X116280587Y-56926588D01*
X116495515Y-57015614D01*
X116723682Y-57061000D01*
X116956318Y-57061000D01*
X117184485Y-57015614D01*
X117399413Y-56926588D01*
X117592843Y-56797342D01*
X117694000Y-56696185D01*
X117694000Y-57603815D01*
X117592843Y-57502658D01*
X117399413Y-57373412D01*
X117184485Y-57284386D01*
X116956318Y-57239000D01*
X116723682Y-57239000D01*
X116495515Y-57284386D01*
X116280587Y-57373412D01*
X116087157Y-57502658D01*
X115922658Y-57667157D01*
X115843918Y-57785000D01*
X115296082Y-57785000D01*
X115217342Y-57667157D01*
X115052843Y-57502658D01*
X114859413Y-57373412D01*
X114644485Y-57284386D01*
X114416318Y-57239000D01*
X114183682Y-57239000D01*
X113955515Y-57284386D01*
X113740587Y-57373412D01*
X113547157Y-57502658D01*
X113382658Y-57667157D01*
X113253412Y-57860587D01*
X113164386Y-58075515D01*
X113119000Y-58303682D01*
X113119000Y-58536318D01*
X113164386Y-58764485D01*
X113253412Y-58979413D01*
X113382658Y-59172843D01*
X113547157Y-59337342D01*
X113740587Y-59466588D01*
X113955515Y-59555614D01*
X114183682Y-59601000D01*
X114416318Y-59601000D01*
X114644485Y-59555614D01*
X114859413Y-59466588D01*
X115052843Y-59337342D01*
X115217342Y-59172843D01*
X115296082Y-59055000D01*
X115843918Y-59055000D01*
X115922658Y-59172843D01*
X116087157Y-59337342D01*
X116280587Y-59466588D01*
X116495515Y-59555614D01*
X116723682Y-59601000D01*
X116956318Y-59601000D01*
X117184485Y-59555614D01*
X117399413Y-59466588D01*
X117592843Y-59337342D01*
X117694000Y-59236185D01*
X117694000Y-60143815D01*
X117592843Y-60042658D01*
X117399413Y-59913412D01*
X117184485Y-59824386D01*
X116956318Y-59779000D01*
X116723682Y-59779000D01*
X116495515Y-59824386D01*
X116280587Y-59913412D01*
X116087157Y-60042658D01*
X115922658Y-60207157D01*
X115843918Y-60325000D01*
X115296082Y-60325000D01*
X115217342Y-60207157D01*
X115052843Y-60042658D01*
X114859413Y-59913412D01*
X114644485Y-59824386D01*
X114416318Y-59779000D01*
X114183682Y-59779000D01*
X113955515Y-59824386D01*
X113740587Y-59913412D01*
X113547157Y-60042658D01*
X113382658Y-60207157D01*
X113253412Y-60400587D01*
X113164386Y-60615515D01*
X113119000Y-60843682D01*
X113119000Y-61076318D01*
X113164386Y-61304485D01*
X113253412Y-61519413D01*
X113382658Y-61712843D01*
X113547157Y-61877342D01*
X113740587Y-62006588D01*
X113955515Y-62095614D01*
X114183682Y-62141000D01*
X114416318Y-62141000D01*
X114644485Y-62095614D01*
X114859413Y-62006588D01*
X115052843Y-61877342D01*
X115217342Y-61712843D01*
X115296082Y-61595000D01*
X115843918Y-61595000D01*
X115922658Y-61712843D01*
X116087157Y-61877342D01*
X116280587Y-62006588D01*
X116495515Y-62095614D01*
X116723682Y-62141000D01*
X116956318Y-62141000D01*
X117184485Y-62095614D01*
X117399413Y-62006588D01*
X117592843Y-61877342D01*
X117694000Y-61776185D01*
X117694000Y-61975154D01*
X117691553Y-62000000D01*
X117694000Y-62024846D01*
X117694000Y-62024853D01*
X117701322Y-62099192D01*
X117730255Y-62194574D01*
X117777241Y-62282479D01*
X117840473Y-62359527D01*
X117859785Y-62375376D01*
X118424628Y-62940220D01*
X118440473Y-62959527D01*
X118517521Y-63022759D01*
X118605425Y-63069745D01*
X118700806Y-63098678D01*
X118710694Y-63099652D01*
X118775146Y-63106000D01*
X118775153Y-63106000D01*
X118799999Y-63108447D01*
X118824845Y-63106000D01*
X125335154Y-63106000D01*
X125360000Y-63108447D01*
X125384846Y-63106000D01*
X125384854Y-63106000D01*
X125459193Y-63098678D01*
X125554575Y-63069745D01*
X125642479Y-63022759D01*
X125719527Y-62959527D01*
X125735376Y-62940215D01*
X129142102Y-59533490D01*
X129195515Y-59555614D01*
X129423682Y-59601000D01*
X129656318Y-59601000D01*
X129884485Y-59555614D01*
X130099413Y-59466588D01*
X130292843Y-59337342D01*
X130457342Y-59172843D01*
X130586588Y-58979413D01*
X130675614Y-58764485D01*
X130721000Y-58536318D01*
X130721000Y-58303682D01*
X130899000Y-58303682D01*
X130899000Y-58536318D01*
X130944386Y-58764485D01*
X131033412Y-58979413D01*
X131162658Y-59172843D01*
X131327157Y-59337342D01*
X131520587Y-59466588D01*
X131735515Y-59555614D01*
X131963682Y-59601000D01*
X132196318Y-59601000D01*
X132424485Y-59555614D01*
X132639413Y-59466588D01*
X132832843Y-59337342D01*
X132997342Y-59172843D01*
X133126588Y-58979413D01*
X133215614Y-58764485D01*
X133261000Y-58536318D01*
X133261000Y-58303682D01*
X133215614Y-58075515D01*
X133126588Y-57860587D01*
X132997342Y-57667157D01*
X132832843Y-57502658D01*
X132639413Y-57373412D01*
X132424485Y-57284386D01*
X132196318Y-57239000D01*
X131963682Y-57239000D01*
X131735515Y-57284386D01*
X131520587Y-57373412D01*
X131327157Y-57502658D01*
X131162658Y-57667157D01*
X131033412Y-57860587D01*
X130944386Y-58075515D01*
X130899000Y-58303682D01*
X130721000Y-58303682D01*
X130675614Y-58075515D01*
X130586588Y-57860587D01*
X130457342Y-57667157D01*
X130292843Y-57502658D01*
X130099413Y-57373412D01*
X129884485Y-57284386D01*
X129656318Y-57239000D01*
X129423682Y-57239000D01*
X129195515Y-57284386D01*
X128980587Y-57373412D01*
X128787157Y-57502658D01*
X128622658Y-57667157D01*
X128493412Y-57860587D01*
X128404386Y-58075515D01*
X128359000Y-58303682D01*
X128359000Y-58536318D01*
X128404386Y-58764485D01*
X128426510Y-58817898D01*
X125150409Y-62094000D01*
X124939039Y-62094000D01*
X125043097Y-62050898D01*
X125244717Y-61916180D01*
X125416180Y-61744717D01*
X125550898Y-61543097D01*
X125643693Y-61319069D01*
X125691000Y-61081243D01*
X125691000Y-60838757D01*
X125643693Y-60600931D01*
X125550898Y-60376903D01*
X125436704Y-60206000D01*
X125475154Y-60206000D01*
X125500000Y-60208447D01*
X125524846Y-60206000D01*
X125524854Y-60206000D01*
X125599193Y-60198678D01*
X125694575Y-60169745D01*
X125782479Y-60122759D01*
X125859527Y-60059527D01*
X125875376Y-60040215D01*
X127540220Y-58375372D01*
X127559527Y-58359527D01*
X127622759Y-58282479D01*
X127669745Y-58194575D01*
X127698678Y-58099193D01*
X127706000Y-58024854D01*
X127706000Y-58024847D01*
X127708447Y-58000001D01*
X127706000Y-57975155D01*
X127706000Y-55763682D01*
X128359000Y-55763682D01*
X128359000Y-55996318D01*
X128404386Y-56224485D01*
X128493412Y-56439413D01*
X128622658Y-56632843D01*
X128787157Y-56797342D01*
X128980587Y-56926588D01*
X129195515Y-57015614D01*
X129423682Y-57061000D01*
X129656318Y-57061000D01*
X129884485Y-57015614D01*
X130099413Y-56926588D01*
X130292843Y-56797342D01*
X130457342Y-56632843D01*
X130536082Y-56515000D01*
X131083918Y-56515000D01*
X131162658Y-56632843D01*
X131327157Y-56797342D01*
X131520587Y-56926588D01*
X131735515Y-57015614D01*
X131963682Y-57061000D01*
X132196318Y-57061000D01*
X132424485Y-57015614D01*
X132639413Y-56926588D01*
X132832843Y-56797342D01*
X132997342Y-56632843D01*
X133126588Y-56439413D01*
X133215614Y-56224485D01*
X133261000Y-55996318D01*
X133261000Y-55763682D01*
X133215614Y-55535515D01*
X133126588Y-55320587D01*
X132997342Y-55127157D01*
X132832843Y-54962658D01*
X132639413Y-54833412D01*
X132424485Y-54744386D01*
X132196318Y-54699000D01*
X131963682Y-54699000D01*
X131735515Y-54744386D01*
X131520587Y-54833412D01*
X131327157Y-54962658D01*
X131162658Y-55127157D01*
X131083918Y-55245000D01*
X130536082Y-55245000D01*
X130457342Y-55127157D01*
X130292843Y-54962658D01*
X130099413Y-54833412D01*
X129884485Y-54744386D01*
X129656318Y-54699000D01*
X129423682Y-54699000D01*
X129195515Y-54744386D01*
X128980587Y-54833412D01*
X128787157Y-54962658D01*
X128622658Y-55127157D01*
X128493412Y-55320587D01*
X128404386Y-55535515D01*
X128359000Y-55763682D01*
X127706000Y-55763682D01*
X127706000Y-53223682D01*
X128359000Y-53223682D01*
X128359000Y-53456318D01*
X128404386Y-53684485D01*
X128493412Y-53899413D01*
X128622658Y-54092843D01*
X128787157Y-54257342D01*
X128980587Y-54386588D01*
X129195515Y-54475614D01*
X129423682Y-54521000D01*
X129656318Y-54521000D01*
X129884485Y-54475614D01*
X130099413Y-54386588D01*
X130292843Y-54257342D01*
X130457342Y-54092843D01*
X130536082Y-53975000D01*
X131083918Y-53975000D01*
X131162658Y-54092843D01*
X131327157Y-54257342D01*
X131520587Y-54386588D01*
X131735515Y-54475614D01*
X131963682Y-54521000D01*
X132196318Y-54521000D01*
X132424485Y-54475614D01*
X132639413Y-54386588D01*
X132832843Y-54257342D01*
X132997342Y-54092843D01*
X133126588Y-53899413D01*
X133215614Y-53684485D01*
X133261000Y-53456318D01*
X133261000Y-53223682D01*
X133215614Y-52995515D01*
X133126588Y-52780587D01*
X132997342Y-52587157D01*
X132832843Y-52422658D01*
X132639413Y-52293412D01*
X132424485Y-52204386D01*
X132196318Y-52159000D01*
X131963682Y-52159000D01*
X131735515Y-52204386D01*
X131520587Y-52293412D01*
X131327157Y-52422658D01*
X131162658Y-52587157D01*
X131083918Y-52705000D01*
X130536082Y-52705000D01*
X130457342Y-52587157D01*
X130292843Y-52422658D01*
X130099413Y-52293412D01*
X129884485Y-52204386D01*
X129656318Y-52159000D01*
X129423682Y-52159000D01*
X129195515Y-52204386D01*
X128980587Y-52293412D01*
X128787157Y-52422658D01*
X128622658Y-52587157D01*
X128493412Y-52780587D01*
X128404386Y-52995515D01*
X128359000Y-53223682D01*
X127706000Y-53223682D01*
X127706000Y-50209591D01*
X128009592Y-49906000D01*
X128763815Y-49906000D01*
X128622658Y-50047157D01*
X128493412Y-50240587D01*
X128404386Y-50455515D01*
X128359000Y-50683682D01*
X128359000Y-50916318D01*
X128404386Y-51144485D01*
X128493412Y-51359413D01*
X128622658Y-51552843D01*
X128787157Y-51717342D01*
X128980587Y-51846588D01*
X129195515Y-51935614D01*
X129423682Y-51981000D01*
X129656318Y-51981000D01*
X129884485Y-51935614D01*
X130099413Y-51846588D01*
X130292843Y-51717342D01*
X130457342Y-51552843D01*
X130586588Y-51359413D01*
X130675614Y-51144485D01*
X130721000Y-50916318D01*
X130721000Y-50683682D01*
X130675614Y-50455515D01*
X130586588Y-50240587D01*
X130457342Y-50047157D01*
X130316185Y-49906000D01*
X130470409Y-49906000D01*
X130966510Y-50402102D01*
X130944386Y-50455515D01*
X130899000Y-50683682D01*
X130899000Y-50916318D01*
X130944386Y-51144485D01*
X131033412Y-51359413D01*
X131162658Y-51552843D01*
X131327157Y-51717342D01*
X131520587Y-51846588D01*
X131735515Y-51935614D01*
X131963682Y-51981000D01*
X132196318Y-51981000D01*
X132424485Y-51935614D01*
X132639413Y-51846588D01*
X132832843Y-51717342D01*
X132997342Y-51552843D01*
X133126588Y-51359413D01*
X133215614Y-51144485D01*
X133261000Y-50916318D01*
X133261000Y-50683682D01*
X133215614Y-50455515D01*
X133126588Y-50240587D01*
X132997342Y-50047157D01*
X132832843Y-49882658D01*
X132639413Y-49753412D01*
X132424485Y-49664386D01*
X132196318Y-49619000D01*
X131963682Y-49619000D01*
X131735515Y-49664386D01*
X131682102Y-49686510D01*
X131055376Y-49059785D01*
X131039527Y-49040473D01*
X130962479Y-48977241D01*
X130874575Y-48930255D01*
X130779193Y-48901322D01*
X130704854Y-48894000D01*
X130704846Y-48894000D01*
X130680000Y-48891553D01*
X130655154Y-48894000D01*
X127824845Y-48894000D01*
X127799999Y-48891553D01*
X127775153Y-48894000D01*
X127775146Y-48894000D01*
X127710694Y-48900348D01*
X127700806Y-48901322D01*
X127605425Y-48930255D01*
X127517521Y-48977241D01*
X127440473Y-49040473D01*
X127424630Y-49059778D01*
X126859780Y-49624629D01*
X126840474Y-49640473D01*
X126777242Y-49717521D01*
X126770952Y-49729289D01*
X126730255Y-49805426D01*
X126701322Y-49900808D01*
X126691553Y-50000000D01*
X126694001Y-50024856D01*
X126694000Y-57790408D01*
X125600103Y-58884306D01*
X125643693Y-58779069D01*
X125691000Y-58541243D01*
X125691000Y-58298757D01*
X125643693Y-58060931D01*
X125550898Y-57836903D01*
X125416180Y-57635283D01*
X125244717Y-57463820D01*
X125043097Y-57329102D01*
X124819069Y-57236307D01*
X124581243Y-57189000D01*
X124338757Y-57189000D01*
X124100931Y-57236307D01*
X123876903Y-57329102D01*
X123675283Y-57463820D01*
X123503820Y-57635283D01*
X123369102Y-57836903D01*
X123276307Y-58060931D01*
X123229000Y-58298757D01*
X123229000Y-58541243D01*
X123276307Y-58779069D01*
X123369102Y-59003097D01*
X123496659Y-59194000D01*
X122883341Y-59194000D01*
X123010898Y-59003097D01*
X123103693Y-58779069D01*
X123151000Y-58541243D01*
X123151000Y-58298757D01*
X123103693Y-58060931D01*
X123010898Y-57836903D01*
X122876180Y-57635283D01*
X122704717Y-57463820D01*
X122503097Y-57329102D01*
X122426000Y-57297168D01*
X122426000Y-53089591D01*
X126749592Y-48766000D01*
X131011288Y-48766000D01*
X131033412Y-48819413D01*
X131162658Y-49012843D01*
X131327157Y-49177342D01*
X131520587Y-49306588D01*
X131735515Y-49395614D01*
X131963682Y-49441000D01*
X132196318Y-49441000D01*
X132424485Y-49395614D01*
X132639413Y-49306588D01*
X132832843Y-49177342D01*
X132997342Y-49012843D01*
X133126588Y-48819413D01*
X133215614Y-48604485D01*
X133261000Y-48376318D01*
X133261000Y-48143682D01*
X133215614Y-47915515D01*
X133126588Y-47700587D01*
X132997342Y-47507157D01*
X132832843Y-47342658D01*
X132639413Y-47213412D01*
X132424485Y-47124386D01*
X132196318Y-47079000D01*
X131963682Y-47079000D01*
X131735515Y-47124386D01*
X131520587Y-47213412D01*
X131327157Y-47342658D01*
X131162658Y-47507157D01*
X131033412Y-47700587D01*
X131011288Y-47754000D01*
X127780750Y-47754000D01*
X127875207Y-47714875D01*
X127970366Y-47651292D01*
X128051292Y-47570366D01*
X128114875Y-47475207D01*
X128158672Y-47369471D01*
X128161789Y-47353802D01*
X129289592Y-46226000D01*
X131011288Y-46226000D01*
X131033412Y-46279413D01*
X131162658Y-46472843D01*
X131327157Y-46637342D01*
X131520587Y-46766588D01*
X131735515Y-46855614D01*
X131963682Y-46901000D01*
X132196318Y-46901000D01*
X132424485Y-46855614D01*
X132639413Y-46766588D01*
X132832843Y-46637342D01*
X132997342Y-46472843D01*
X133126588Y-46279413D01*
X133215614Y-46064485D01*
X133261000Y-45836318D01*
X133261000Y-45603682D01*
X133215614Y-45375515D01*
X133126588Y-45160587D01*
X132997342Y-44967157D01*
X132832843Y-44802658D01*
X132639413Y-44673412D01*
X132424485Y-44584386D01*
X132196318Y-44539000D01*
X131963682Y-44539000D01*
X131735515Y-44584386D01*
X131520587Y-44673412D01*
X131327157Y-44802658D01*
X131162658Y-44967157D01*
X131033412Y-45160587D01*
X131011288Y-45214000D01*
X129104845Y-45214000D01*
X129079999Y-45211553D01*
X129055153Y-45214000D01*
X129055146Y-45214000D01*
X128980807Y-45221322D01*
X128885425Y-45250255D01*
X128797521Y-45297241D01*
X128720473Y-45360473D01*
X128704628Y-45379780D01*
X127446198Y-46638211D01*
X127430529Y-46641328D01*
X127324793Y-46685125D01*
X127229634Y-46748708D01*
X127148708Y-46829634D01*
X127085125Y-46924793D01*
X127041328Y-47030529D01*
X127019000Y-47142777D01*
X127019000Y-47257223D01*
X127041328Y-47369471D01*
X127085125Y-47475207D01*
X127148708Y-47570366D01*
X127229634Y-47651292D01*
X127324793Y-47714875D01*
X127419250Y-47754000D01*
X126564854Y-47754000D01*
X126540000Y-47751552D01*
X126515146Y-47754000D01*
X126440807Y-47761322D01*
X126345425Y-47790255D01*
X126257521Y-47837241D01*
X126180473Y-47900473D01*
X126164628Y-47919780D01*
X121579781Y-52504628D01*
X121560474Y-52520473D01*
X121497242Y-52597521D01*
X121472127Y-52644508D01*
X121450255Y-52685426D01*
X121421322Y-52780808D01*
X121411553Y-52880000D01*
X121414001Y-52904856D01*
X121414000Y-57297167D01*
X121336903Y-57329102D01*
X121135283Y-57463820D01*
X120963820Y-57635283D01*
X120829102Y-57836903D01*
X120736307Y-58060931D01*
X120689000Y-58298757D01*
X120689000Y-58541243D01*
X120736307Y-58779069D01*
X120829102Y-59003097D01*
X120956659Y-59194000D01*
X120869592Y-59194000D01*
X120531758Y-58856167D01*
X120563693Y-58779069D01*
X120611000Y-58541243D01*
X120611000Y-58298757D01*
X120563693Y-58060931D01*
X120470898Y-57836903D01*
X120336180Y-57635283D01*
X120164717Y-57463820D01*
X119963097Y-57329102D01*
X119739069Y-57236307D01*
X119501243Y-57189000D01*
X119258757Y-57189000D01*
X119020931Y-57236307D01*
X118796903Y-57329102D01*
X118706000Y-57389841D01*
X118706000Y-49424845D01*
X118708447Y-49399999D01*
X118706000Y-49375153D01*
X118706000Y-49375146D01*
X118698678Y-49300807D01*
X118669745Y-49205425D01*
X118622759Y-49117521D01*
X118559527Y-49040473D01*
X118540220Y-49024628D01*
X117999582Y-48483991D01*
X118021000Y-48376318D01*
X118021000Y-48143682D01*
X117975614Y-47915515D01*
X117886588Y-47700587D01*
X117757342Y-47507157D01*
X117592843Y-47342658D01*
X117399413Y-47213412D01*
X117184485Y-47124386D01*
X116956318Y-47079000D01*
X116723682Y-47079000D01*
X116495515Y-47124386D01*
X116280587Y-47213412D01*
X116087157Y-47342658D01*
X115922658Y-47507157D01*
X115793412Y-47700587D01*
X115704386Y-47915515D01*
X115659000Y-48143682D01*
X115659000Y-48376318D01*
X115704386Y-48604485D01*
X115793412Y-48819413D01*
X115922658Y-49012843D01*
X116087157Y-49177342D01*
X116280587Y-49306588D01*
X116495515Y-49395614D01*
X116723682Y-49441000D01*
X116956318Y-49441000D01*
X117184485Y-49395614D01*
X117393462Y-49309053D01*
X117694001Y-49609593D01*
X117694001Y-49983816D01*
X117592843Y-49882658D01*
X117399413Y-49753412D01*
X117184485Y-49664386D01*
X116956318Y-49619000D01*
X116723682Y-49619000D01*
X116495515Y-49664386D01*
X116280587Y-49753412D01*
X116087157Y-49882658D01*
X115922658Y-50047157D01*
X115843918Y-50165000D01*
X115482843Y-50165000D01*
X115482843Y-50000000D01*
X115475487Y-49925311D01*
X115453701Y-49853492D01*
X115418322Y-49787304D01*
X115370711Y-49729289D01*
X115312696Y-49681678D01*
X115246508Y-49646299D01*
X115174689Y-49624513D01*
X115100000Y-49617157D01*
X113500000Y-49617157D01*
X113425311Y-49624513D01*
X113353492Y-49646299D01*
X113287304Y-49681678D01*
X113229289Y-49729289D01*
X113181678Y-49787304D01*
X113146299Y-49853492D01*
X113124513Y-49925311D01*
X113117157Y-50000000D01*
X112903000Y-50000000D01*
X112903000Y-45603682D01*
X115659000Y-45603682D01*
X115659000Y-45836318D01*
X115704386Y-46064485D01*
X115793412Y-46279413D01*
X115922658Y-46472843D01*
X116087157Y-46637342D01*
X116280587Y-46766588D01*
X116495515Y-46855614D01*
X116723682Y-46901000D01*
X116956318Y-46901000D01*
X117184485Y-46855614D01*
X117399413Y-46766588D01*
X117592843Y-46637342D01*
X117757342Y-46472843D01*
X117886588Y-46279413D01*
X117975614Y-46064485D01*
X118021000Y-45836318D01*
X118021000Y-45603682D01*
X117975614Y-45375515D01*
X117886588Y-45160587D01*
X117757342Y-44967157D01*
X117592843Y-44802658D01*
X117399413Y-44673412D01*
X117184485Y-44584386D01*
X116975306Y-44542777D01*
X127619000Y-44542777D01*
X127619000Y-44657223D01*
X127641328Y-44769471D01*
X127685125Y-44875207D01*
X127748708Y-44970366D01*
X127829634Y-45051292D01*
X127924793Y-45114875D01*
X128030529Y-45158672D01*
X128142777Y-45181000D01*
X128257223Y-45181000D01*
X128369471Y-45158672D01*
X128475207Y-45114875D01*
X128570366Y-45051292D01*
X128651292Y-44970366D01*
X128714875Y-44875207D01*
X128758672Y-44769471D01*
X128781000Y-44657223D01*
X128781000Y-44542777D01*
X128758672Y-44430529D01*
X128714875Y-44324793D01*
X128706000Y-44311511D01*
X128706000Y-44009591D01*
X129029592Y-43686000D01*
X131011288Y-43686000D01*
X131033412Y-43739413D01*
X131162658Y-43932843D01*
X131327157Y-44097342D01*
X131520587Y-44226588D01*
X131735515Y-44315614D01*
X131963682Y-44361000D01*
X132196318Y-44361000D01*
X132424485Y-44315614D01*
X132639413Y-44226588D01*
X132832843Y-44097342D01*
X132997342Y-43932843D01*
X133126588Y-43739413D01*
X133215614Y-43524485D01*
X133261000Y-43296318D01*
X133261000Y-43063682D01*
X133215614Y-42835515D01*
X133126588Y-42620587D01*
X132997342Y-42427157D01*
X132832843Y-42262658D01*
X132639413Y-42133412D01*
X132424485Y-42044386D01*
X132196318Y-41999000D01*
X131963682Y-41999000D01*
X131735515Y-42044386D01*
X131520587Y-42133412D01*
X131327157Y-42262658D01*
X131162658Y-42427157D01*
X131033412Y-42620587D01*
X131011288Y-42674000D01*
X128844845Y-42674000D01*
X128819999Y-42671553D01*
X128795153Y-42674000D01*
X128795146Y-42674000D01*
X128730694Y-42680348D01*
X128720806Y-42681322D01*
X128698607Y-42688056D01*
X128625425Y-42710255D01*
X128537521Y-42757241D01*
X128460473Y-42820473D01*
X128444628Y-42839780D01*
X127859780Y-43424629D01*
X127840474Y-43440473D01*
X127777242Y-43517521D01*
X127752127Y-43564508D01*
X127730255Y-43605426D01*
X127701322Y-43700808D01*
X127691553Y-43800000D01*
X127694001Y-43824856D01*
X127694000Y-44311510D01*
X127685125Y-44324793D01*
X127641328Y-44430529D01*
X127619000Y-44542777D01*
X116975306Y-44542777D01*
X116956318Y-44539000D01*
X116723682Y-44539000D01*
X116495515Y-44584386D01*
X116280587Y-44673412D01*
X116087157Y-44802658D01*
X115922658Y-44967157D01*
X115793412Y-45160587D01*
X115704386Y-45375515D01*
X115659000Y-45603682D01*
X112903000Y-45603682D01*
X112903000Y-43063682D01*
X115659000Y-43063682D01*
X115659000Y-43296318D01*
X115704386Y-43524485D01*
X115793412Y-43739413D01*
X115922658Y-43932843D01*
X116087157Y-44097342D01*
X116280587Y-44226588D01*
X116495515Y-44315614D01*
X116723682Y-44361000D01*
X116956318Y-44361000D01*
X117184485Y-44315614D01*
X117399413Y-44226588D01*
X117592843Y-44097342D01*
X117757342Y-43932843D01*
X117886588Y-43739413D01*
X117975614Y-43524485D01*
X118021000Y-43296318D01*
X118021000Y-43063682D01*
X117975614Y-42835515D01*
X117886588Y-42620587D01*
X117757342Y-42427157D01*
X117592843Y-42262658D01*
X117399413Y-42133412D01*
X117184485Y-42044386D01*
X116956318Y-41999000D01*
X116723682Y-41999000D01*
X116495515Y-42044386D01*
X116280587Y-42133412D01*
X116087157Y-42262658D01*
X115922658Y-42427157D01*
X115793412Y-42620587D01*
X115704386Y-42835515D01*
X115659000Y-43063682D01*
X112903000Y-43063682D01*
X112903000Y-39840000D01*
X115657157Y-39840000D01*
X115657157Y-41440000D01*
X115664513Y-41514689D01*
X115686299Y-41586508D01*
X115721678Y-41652696D01*
X115769289Y-41710711D01*
X115827304Y-41758322D01*
X115893492Y-41793701D01*
X115965311Y-41815487D01*
X116040000Y-41822843D01*
X117640000Y-41822843D01*
X117714689Y-41815487D01*
X117786508Y-41793701D01*
X117852696Y-41758322D01*
X117910711Y-41710711D01*
X117958322Y-41652696D01*
X117993701Y-41586508D01*
X118015487Y-41514689D01*
X118022843Y-41440000D01*
X118022843Y-40523682D01*
X130899000Y-40523682D01*
X130899000Y-40756318D01*
X130944386Y-40984485D01*
X131033412Y-41199413D01*
X131162658Y-41392843D01*
X131327157Y-41557342D01*
X131520587Y-41686588D01*
X131735515Y-41775614D01*
X131963682Y-41821000D01*
X132196318Y-41821000D01*
X132424485Y-41775614D01*
X132639413Y-41686588D01*
X132832843Y-41557342D01*
X132997342Y-41392843D01*
X133126588Y-41199413D01*
X133215614Y-40984485D01*
X133261000Y-40756318D01*
X133261000Y-40523682D01*
X133215614Y-40295515D01*
X133126588Y-40080587D01*
X132997342Y-39887157D01*
X132832843Y-39722658D01*
X132639413Y-39593412D01*
X132424485Y-39504386D01*
X132196318Y-39459000D01*
X131963682Y-39459000D01*
X131735515Y-39504386D01*
X131520587Y-39593412D01*
X131327157Y-39722658D01*
X131162658Y-39887157D01*
X131033412Y-40080587D01*
X130944386Y-40295515D01*
X130899000Y-40523682D01*
X118022843Y-40523682D01*
X118022843Y-39840000D01*
X118015487Y-39765311D01*
X117993701Y-39693492D01*
X117958322Y-39627304D01*
X117910711Y-39569289D01*
X117852696Y-39521678D01*
X117786508Y-39486299D01*
X117714689Y-39464513D01*
X117640000Y-39457157D01*
X116040000Y-39457157D01*
X115965311Y-39464513D01*
X115893492Y-39486299D01*
X115827304Y-39521678D01*
X115769289Y-39569289D01*
X115721678Y-39627304D01*
X115686299Y-39693492D01*
X115664513Y-39765311D01*
X115657157Y-39840000D01*
X112903000Y-39840000D01*
X112903000Y-39274363D01*
X122129218Y-39246234D01*
X122141412Y-39275817D01*
X122144106Y-39280801D01*
X122144108Y-39280806D01*
X122144111Y-39280810D01*
X122227693Y-39432847D01*
X122248499Y-39463234D01*
X122268847Y-39493860D01*
X122272460Y-39498228D01*
X122383985Y-39631138D01*
X122410306Y-39656914D01*
X122436205Y-39682994D01*
X122440598Y-39686578D01*
X122575815Y-39795294D01*
X122606607Y-39815444D01*
X122637113Y-39836020D01*
X122642118Y-39838682D01*
X122795877Y-39919065D01*
X122830040Y-39932868D01*
X122863917Y-39947108D01*
X122869338Y-39948745D01*
X122869345Y-39948748D01*
X122869352Y-39948749D01*
X123035787Y-39997734D01*
X123071957Y-40004634D01*
X123107979Y-40012028D01*
X123113619Y-40012582D01*
X123113621Y-40012582D01*
X123286409Y-40028307D01*
X123323206Y-40028050D01*
X123360003Y-40028307D01*
X123365645Y-40027754D01*
X123538196Y-40009618D01*
X123574262Y-40002215D01*
X123610388Y-39995323D01*
X123615815Y-39993685D01*
X123781558Y-39942379D01*
X123815521Y-39928102D01*
X123849599Y-39914334D01*
X123854600Y-39911676D01*
X123854604Y-39911674D01*
X123854607Y-39911672D01*
X124007225Y-39829151D01*
X124037737Y-39808571D01*
X124068522Y-39788426D01*
X124072910Y-39784847D01*
X124072916Y-39784843D01*
X124072921Y-39784838D01*
X124206601Y-39674249D01*
X124232553Y-39648116D01*
X124258821Y-39622392D01*
X124262430Y-39618030D01*
X124262435Y-39618025D01*
X124262439Y-39618020D01*
X124372094Y-39483569D01*
X124392478Y-39452889D01*
X124413247Y-39422557D01*
X124415941Y-39417575D01*
X124415944Y-39417571D01*
X124415946Y-39417567D01*
X124497398Y-39264377D01*
X124507865Y-39238982D01*
X133477000Y-39211637D01*
X133477000Y-80105637D01*
G37*
X133477000Y-80105637D02*
X112903000Y-80168363D01*
X112903000Y-79049114D01*
X113160171Y-79049114D01*
X113180527Y-79116239D01*
X113275438Y-79327408D01*
X113409722Y-79516003D01*
X113578219Y-79674777D01*
X113774454Y-79797628D01*
X113990885Y-79879835D01*
X114173000Y-79818908D01*
X114173000Y-78867000D01*
X114427000Y-78867000D01*
X114427000Y-79818908D01*
X114609115Y-79879835D01*
X114825546Y-79797628D01*
X115021781Y-79674777D01*
X115105019Y-79596342D01*
X116163263Y-79596342D01*
X116249218Y-79769207D01*
X116461358Y-79864687D01*
X116688048Y-79916945D01*
X116920578Y-79923975D01*
X117150012Y-79885505D01*
X117367532Y-79803014D01*
X117430782Y-79769207D01*
X117516737Y-79596342D01*
X116840000Y-78919605D01*
X116163263Y-79596342D01*
X115105019Y-79596342D01*
X115190278Y-79516003D01*
X115324562Y-79327408D01*
X115419473Y-79116239D01*
X115439829Y-79049114D01*
X115378297Y-78867000D01*
X114427000Y-78867000D01*
X114173000Y-78867000D01*
X113221703Y-78867000D01*
X113160171Y-79049114D01*
X112903000Y-79049114D01*
X112903000Y-78820578D01*
X115656025Y-78820578D01*
X115694495Y-79050012D01*
X115776986Y-79267532D01*
X115810793Y-79330782D01*
X115983658Y-79416737D01*
X116660395Y-78740000D01*
X117019605Y-78740000D01*
X117696342Y-79416737D01*
X117869207Y-79330782D01*
X117964687Y-79118642D01*
X118016945Y-78891952D01*
X118023975Y-78659422D01*
X118017983Y-78623682D01*
X128359000Y-78623682D01*
X128359000Y-78856318D01*
X128404386Y-79084485D01*
X128493412Y-79299413D01*
X128622658Y-79492843D01*
X128787157Y-79657342D01*
X128980587Y-79786588D01*
X129195515Y-79875614D01*
X129423682Y-79921000D01*
X129656318Y-79921000D01*
X129884485Y-79875614D01*
X130099413Y-79786588D01*
X130292843Y-79657342D01*
X130457342Y-79492843D01*
X130536082Y-79375000D01*
X131083918Y-79375000D01*
X131162658Y-79492843D01*
X131327157Y-79657342D01*
X131520587Y-79786588D01*
X131735515Y-79875614D01*
X131963682Y-79921000D01*
X132196318Y-79921000D01*
X132424485Y-79875614D01*
X132639413Y-79786588D01*
X132832843Y-79657342D01*
X132997342Y-79492843D01*
X133126588Y-79299413D01*
X133215614Y-79084485D01*
X133261000Y-78856318D01*
X133261000Y-78623682D01*
X133215614Y-78395515D01*
X133126588Y-78180587D01*
X132997342Y-77987157D01*
X132832843Y-77822658D01*
X132639413Y-77693412D01*
X132424485Y-77604386D01*
X132196318Y-77559000D01*
X131963682Y-77559000D01*
X131735515Y-77604386D01*
X131520587Y-77693412D01*
X131327157Y-77822658D01*
X131162658Y-77987157D01*
X131083918Y-78105000D01*
X130536082Y-78105000D01*
X130457342Y-77987157D01*
X130292843Y-77822658D01*
X130099413Y-77693412D01*
X129884485Y-77604386D01*
X129656318Y-77559000D01*
X129423682Y-77559000D01*
X129195515Y-77604386D01*
X128980587Y-77693412D01*
X128787157Y-77822658D01*
X128622658Y-77987157D01*
X128493412Y-78180587D01*
X128404386Y-78395515D01*
X128359000Y-78623682D01*
X118017983Y-78623682D01*
X117985505Y-78429988D01*
X117903014Y-78212468D01*
X117869207Y-78149218D01*
X117696342Y-78063263D01*
X117019605Y-78740000D01*
X116660395Y-78740000D01*
X115983658Y-78063263D01*
X115810793Y-78149218D01*
X115715313Y-78361358D01*
X115663055Y-78588048D01*
X115656025Y-78820578D01*
X112903000Y-78820578D01*
X112903000Y-78430886D01*
X113160171Y-78430886D01*
X113221703Y-78613000D01*
X114173000Y-78613000D01*
X114173000Y-77661092D01*
X114427000Y-77661092D01*
X114427000Y-78613000D01*
X115378297Y-78613000D01*
X115439829Y-78430886D01*
X115419473Y-78363761D01*
X115324562Y-78152592D01*
X115190278Y-77963997D01*
X115105020Y-77883658D01*
X116163263Y-77883658D01*
X116840000Y-78560395D01*
X117516737Y-77883658D01*
X117430782Y-77710793D01*
X117218642Y-77615313D01*
X116991952Y-77563055D01*
X116759422Y-77556025D01*
X116529988Y-77594495D01*
X116312468Y-77676986D01*
X116249218Y-77710793D01*
X116163263Y-77883658D01*
X115105020Y-77883658D01*
X115021781Y-77805223D01*
X114825546Y-77682372D01*
X114609115Y-77600165D01*
X114427000Y-77661092D01*
X114173000Y-77661092D01*
X113990885Y-77600165D01*
X113774454Y-77682372D01*
X113578219Y-77805223D01*
X113409722Y-77963997D01*
X113275438Y-78152592D01*
X113180527Y-78363761D01*
X113160171Y-78430886D01*
X112903000Y-78430886D01*
X112903000Y-76083682D01*
X113119000Y-76083682D01*
X113119000Y-76316318D01*
X113164386Y-76544485D01*
X113253412Y-76759413D01*
X113382658Y-76952843D01*
X113547157Y-77117342D01*
X113740587Y-77246588D01*
X113955515Y-77335614D01*
X114183682Y-77381000D01*
X114416318Y-77381000D01*
X114644485Y-77335614D01*
X114859413Y-77246588D01*
X115052843Y-77117342D01*
X115217342Y-76952843D01*
X115296082Y-76835000D01*
X115843918Y-76835000D01*
X115922658Y-76952843D01*
X116087157Y-77117342D01*
X116280587Y-77246588D01*
X116495515Y-77335614D01*
X116723682Y-77381000D01*
X116956318Y-77381000D01*
X117184485Y-77335614D01*
X117399413Y-77246588D01*
X117592843Y-77117342D01*
X117757342Y-76952843D01*
X117886588Y-76759413D01*
X117975614Y-76544485D01*
X118021000Y-76316318D01*
X118021000Y-76083682D01*
X128359000Y-76083682D01*
X128359000Y-76316318D01*
X128404386Y-76544485D01*
X128493412Y-76759413D01*
X128622658Y-76952843D01*
X128787157Y-77117342D01*
X128980587Y-77246588D01*
X129195515Y-77335614D01*
X129423682Y-77381000D01*
X129656318Y-77381000D01*
X129884485Y-77335614D01*
X130099413Y-77246588D01*
X130292843Y-77117342D01*
X130457342Y-76952843D01*
X130536082Y-76835000D01*
X131083918Y-76835000D01*
X131162658Y-76952843D01*
X131327157Y-77117342D01*
X131520587Y-77246588D01*
X131735515Y-77335614D01*
X131963682Y-77381000D01*
X132196318Y-77381000D01*
X132424485Y-77335614D01*
X132639413Y-77246588D01*
X132832843Y-77117342D01*
X132997342Y-76952843D01*
X133126588Y-76759413D01*
X133215614Y-76544485D01*
X133261000Y-76316318D01*
X133261000Y-76083682D01*
X133215614Y-75855515D01*
X133126588Y-75640587D01*
X132997342Y-75447157D01*
X132832843Y-75282658D01*
X132639413Y-75153412D01*
X132424485Y-75064386D01*
X132196318Y-75019000D01*
X131963682Y-75019000D01*
X131735515Y-75064386D01*
X131520587Y-75153412D01*
X131327157Y-75282658D01*
X131162658Y-75447157D01*
X131083918Y-75565000D01*
X130536082Y-75565000D01*
X130457342Y-75447157D01*
X130292843Y-75282658D01*
X130099413Y-75153412D01*
X129884485Y-75064386D01*
X129656318Y-75019000D01*
X129423682Y-75019000D01*
X129195515Y-75064386D01*
X128980587Y-75153412D01*
X128787157Y-75282658D01*
X128622658Y-75447157D01*
X128493412Y-75640587D01*
X128404386Y-75855515D01*
X128359000Y-76083682D01*
X118021000Y-76083682D01*
X117975614Y-75855515D01*
X117886588Y-75640587D01*
X117757342Y-75447157D01*
X117592843Y-75282658D01*
X117399413Y-75153412D01*
X117184485Y-75064386D01*
X116956318Y-75019000D01*
X116723682Y-75019000D01*
X116495515Y-75064386D01*
X116280587Y-75153412D01*
X116087157Y-75282658D01*
X115922658Y-75447157D01*
X115843918Y-75565000D01*
X115296082Y-75565000D01*
X115217342Y-75447157D01*
X115052843Y-75282658D01*
X114859413Y-75153412D01*
X114644485Y-75064386D01*
X114416318Y-75019000D01*
X114183682Y-75019000D01*
X113955515Y-75064386D01*
X113740587Y-75153412D01*
X113547157Y-75282658D01*
X113382658Y-75447157D01*
X113253412Y-75640587D01*
X113164386Y-75855515D01*
X113119000Y-76083682D01*
X112903000Y-76083682D01*
X112903000Y-73543682D01*
X113119000Y-73543682D01*
X113119000Y-73776318D01*
X113164386Y-74004485D01*
X113253412Y-74219413D01*
X113382658Y-74412843D01*
X113547157Y-74577342D01*
X113740587Y-74706588D01*
X113955515Y-74795614D01*
X114183682Y-74841000D01*
X114416318Y-74841000D01*
X114644485Y-74795614D01*
X114859413Y-74706588D01*
X115052843Y-74577342D01*
X115217342Y-74412843D01*
X115296082Y-74295000D01*
X115843918Y-74295000D01*
X115922658Y-74412843D01*
X116087157Y-74577342D01*
X116280587Y-74706588D01*
X116495515Y-74795614D01*
X116723682Y-74841000D01*
X116956318Y-74841000D01*
X117184485Y-74795614D01*
X117399413Y-74706588D01*
X117592843Y-74577342D01*
X117757342Y-74412843D01*
X117886588Y-74219413D01*
X117975614Y-74004485D01*
X118021000Y-73776318D01*
X118021000Y-73543682D01*
X117975614Y-73315515D01*
X117886588Y-73100587D01*
X117757342Y-72907157D01*
X117592843Y-72742658D01*
X117399413Y-72613412D01*
X117184485Y-72524386D01*
X116956318Y-72479000D01*
X116723682Y-72479000D01*
X116495515Y-72524386D01*
X116280587Y-72613412D01*
X116087157Y-72742658D01*
X115922658Y-72907157D01*
X115843918Y-73025000D01*
X115296082Y-73025000D01*
X115217342Y-72907157D01*
X115052843Y-72742658D01*
X114859413Y-72613412D01*
X114644485Y-72524386D01*
X114416318Y-72479000D01*
X114183682Y-72479000D01*
X113955515Y-72524386D01*
X113740587Y-72613412D01*
X113547157Y-72742658D01*
X113382658Y-72907157D01*
X113253412Y-73100587D01*
X113164386Y-73315515D01*
X113119000Y-73543682D01*
X112903000Y-73543682D01*
X112903000Y-71003682D01*
X113119000Y-71003682D01*
X113119000Y-71236318D01*
X113164386Y-71464485D01*
X113253412Y-71679413D01*
X113382658Y-71872843D01*
X113547157Y-72037342D01*
X113740587Y-72166588D01*
X113955515Y-72255614D01*
X114183682Y-72301000D01*
X114416318Y-72301000D01*
X114644485Y-72255614D01*
X114859413Y-72166588D01*
X115052843Y-72037342D01*
X115217342Y-71872843D01*
X115296082Y-71755000D01*
X115843918Y-71755000D01*
X115922658Y-71872843D01*
X116087157Y-72037342D01*
X116280587Y-72166588D01*
X116495515Y-72255614D01*
X116723682Y-72301000D01*
X116956318Y-72301000D01*
X117184485Y-72255614D01*
X117399413Y-72166588D01*
X117592843Y-72037342D01*
X117757342Y-71872843D01*
X117886588Y-71679413D01*
X117975614Y-71464485D01*
X118021000Y-71236318D01*
X118021000Y-71003682D01*
X117975614Y-70775515D01*
X117886588Y-70560587D01*
X117757342Y-70367157D01*
X117592843Y-70202658D01*
X117399413Y-70073412D01*
X117184485Y-69984386D01*
X116956318Y-69939000D01*
X116723682Y-69939000D01*
X116495515Y-69984386D01*
X116280587Y-70073412D01*
X116087157Y-70202658D01*
X115922658Y-70367157D01*
X115843918Y-70485000D01*
X115296082Y-70485000D01*
X115217342Y-70367157D01*
X115052843Y-70202658D01*
X114859413Y-70073412D01*
X114644485Y-69984386D01*
X114416318Y-69939000D01*
X114183682Y-69939000D01*
X113955515Y-69984386D01*
X113740587Y-70073412D01*
X113547157Y-70202658D01*
X113382658Y-70367157D01*
X113253412Y-70560587D01*
X113164386Y-70775515D01*
X113119000Y-71003682D01*
X112903000Y-71003682D01*
X112903000Y-68463682D01*
X113119000Y-68463682D01*
X113119000Y-68696318D01*
X113164386Y-68924485D01*
X113253412Y-69139413D01*
X113382658Y-69332843D01*
X113547157Y-69497342D01*
X113740587Y-69626588D01*
X113955515Y-69715614D01*
X114183682Y-69761000D01*
X114416318Y-69761000D01*
X114644485Y-69715614D01*
X114859413Y-69626588D01*
X115052843Y-69497342D01*
X115217342Y-69332843D01*
X115296082Y-69215000D01*
X115843918Y-69215000D01*
X115922658Y-69332843D01*
X116087157Y-69497342D01*
X116280587Y-69626588D01*
X116495515Y-69715614D01*
X116723682Y-69761000D01*
X116956318Y-69761000D01*
X117184485Y-69715614D01*
X117399413Y-69626588D01*
X117592843Y-69497342D01*
X117757342Y-69332843D01*
X117886588Y-69139413D01*
X117975614Y-68924485D01*
X118021000Y-68696318D01*
X118021000Y-68463682D01*
X117975614Y-68235515D01*
X117886588Y-68020587D01*
X117757342Y-67827157D01*
X117592843Y-67662658D01*
X117399413Y-67533412D01*
X117184485Y-67444386D01*
X116956318Y-67399000D01*
X116723682Y-67399000D01*
X116495515Y-67444386D01*
X116280587Y-67533412D01*
X116087157Y-67662658D01*
X115922658Y-67827157D01*
X115843918Y-67945000D01*
X115296082Y-67945000D01*
X115217342Y-67827157D01*
X115052843Y-67662658D01*
X114859413Y-67533412D01*
X114644485Y-67444386D01*
X114416318Y-67399000D01*
X114183682Y-67399000D01*
X113955515Y-67444386D01*
X113740587Y-67533412D01*
X113547157Y-67662658D01*
X113382658Y-67827157D01*
X113253412Y-68020587D01*
X113164386Y-68235515D01*
X113119000Y-68463682D01*
X112903000Y-68463682D01*
X112903000Y-65923682D01*
X113119000Y-65923682D01*
X113119000Y-66156318D01*
X113164386Y-66384485D01*
X113253412Y-66599413D01*
X113382658Y-66792843D01*
X113547157Y-66957342D01*
X113740587Y-67086588D01*
X113955515Y-67175614D01*
X114183682Y-67221000D01*
X114416318Y-67221000D01*
X114644485Y-67175614D01*
X114859413Y-67086588D01*
X115052843Y-66957342D01*
X115217342Y-66792843D01*
X115296082Y-66675000D01*
X115843918Y-66675000D01*
X115922658Y-66792843D01*
X116087157Y-66957342D01*
X116280587Y-67086588D01*
X116495515Y-67175614D01*
X116723682Y-67221000D01*
X116956318Y-67221000D01*
X117184485Y-67175614D01*
X117399413Y-67086588D01*
X117592843Y-66957342D01*
X117757342Y-66792843D01*
X117886588Y-66599413D01*
X117975614Y-66384485D01*
X118021000Y-66156318D01*
X118021000Y-65923682D01*
X117975614Y-65695515D01*
X117886588Y-65480587D01*
X117757342Y-65287157D01*
X117592843Y-65122658D01*
X117399413Y-64993412D01*
X117184485Y-64904386D01*
X116956318Y-64859000D01*
X116723682Y-64859000D01*
X116495515Y-64904386D01*
X116280587Y-64993412D01*
X116087157Y-65122658D01*
X115922658Y-65287157D01*
X115843918Y-65405000D01*
X115296082Y-65405000D01*
X115217342Y-65287157D01*
X115052843Y-65122658D01*
X114859413Y-64993412D01*
X114644485Y-64904386D01*
X114416318Y-64859000D01*
X114183682Y-64859000D01*
X113955515Y-64904386D01*
X113740587Y-64993412D01*
X113547157Y-65122658D01*
X113382658Y-65287157D01*
X113253412Y-65480587D01*
X113164386Y-65695515D01*
X113119000Y-65923682D01*
X112903000Y-65923682D01*
X112903000Y-63383682D01*
X113119000Y-63383682D01*
X113119000Y-63616318D01*
X113164386Y-63844485D01*
X113253412Y-64059413D01*
X113382658Y-64252843D01*
X113547157Y-64417342D01*
X113740587Y-64546588D01*
X113955515Y-64635614D01*
X114183682Y-64681000D01*
X114416318Y-64681000D01*
X114644485Y-64635614D01*
X114859413Y-64546588D01*
X115052843Y-64417342D01*
X115217342Y-64252843D01*
X115296082Y-64135000D01*
X115843918Y-64135000D01*
X115922658Y-64252843D01*
X116087157Y-64417342D01*
X116280587Y-64546588D01*
X116495515Y-64635614D01*
X116723682Y-64681000D01*
X116956318Y-64681000D01*
X117184485Y-64635614D01*
X117399413Y-64546588D01*
X117592843Y-64417342D01*
X117757342Y-64252843D01*
X117792650Y-64200000D01*
X124891553Y-64200000D01*
X124894001Y-64224856D01*
X124894000Y-72035154D01*
X124891553Y-72060000D01*
X124894000Y-72084846D01*
X124894000Y-72084853D01*
X124901322Y-72159192D01*
X124930255Y-72254574D01*
X124977241Y-72342479D01*
X125040473Y-72419527D01*
X125059785Y-72435376D01*
X125848242Y-73223833D01*
X125816307Y-73300931D01*
X125769000Y-73538757D01*
X125769000Y-73781243D01*
X125816307Y-74019069D01*
X125909102Y-74243097D01*
X126043820Y-74444717D01*
X126215283Y-74616180D01*
X126416903Y-74750898D01*
X126640931Y-74843693D01*
X126878757Y-74891000D01*
X127121243Y-74891000D01*
X127359069Y-74843693D01*
X127583097Y-74750898D01*
X127784717Y-74616180D01*
X127956180Y-74444717D01*
X128090898Y-74243097D01*
X128183693Y-74019069D01*
X128231000Y-73781243D01*
X128231000Y-73543682D01*
X128359000Y-73543682D01*
X128359000Y-73776318D01*
X128404386Y-74004485D01*
X128493412Y-74219413D01*
X128622658Y-74412843D01*
X128787157Y-74577342D01*
X128980587Y-74706588D01*
X129195515Y-74795614D01*
X129423682Y-74841000D01*
X129656318Y-74841000D01*
X129884485Y-74795614D01*
X130099413Y-74706588D01*
X130292843Y-74577342D01*
X130457342Y-74412843D01*
X130536082Y-74295000D01*
X131083918Y-74295000D01*
X131162658Y-74412843D01*
X131327157Y-74577342D01*
X131520587Y-74706588D01*
X131735515Y-74795614D01*
X131963682Y-74841000D01*
X132196318Y-74841000D01*
X132424485Y-74795614D01*
X132639413Y-74706588D01*
X132832843Y-74577342D01*
X132997342Y-74412843D01*
X133126588Y-74219413D01*
X133215614Y-74004485D01*
X133261000Y-73776318D01*
X133261000Y-73543682D01*
X133215614Y-73315515D01*
X133126588Y-73100587D01*
X132997342Y-72907157D01*
X132832843Y-72742658D01*
X132639413Y-72613412D01*
X132424485Y-72524386D01*
X132196318Y-72479000D01*
X131963682Y-72479000D01*
X131735515Y-72524386D01*
X131520587Y-72613412D01*
X131327157Y-72742658D01*
X131162658Y-72907157D01*
X131083918Y-73025000D01*
X130536082Y-73025000D01*
X130457342Y-72907157D01*
X130292843Y-72742658D01*
X130099413Y-72613412D01*
X129884485Y-72524386D01*
X129656318Y-72479000D01*
X129423682Y-72479000D01*
X129195515Y-72524386D01*
X128980587Y-72613412D01*
X128787157Y-72742658D01*
X128622658Y-72907157D01*
X128493412Y-73100587D01*
X128404386Y-73315515D01*
X128359000Y-73543682D01*
X128231000Y-73543682D01*
X128231000Y-73538757D01*
X128183693Y-73300931D01*
X128090898Y-73076903D01*
X127956180Y-72875283D01*
X127784717Y-72703820D01*
X127583097Y-72569102D01*
X127359069Y-72476307D01*
X127121243Y-72429000D01*
X126878757Y-72429000D01*
X126640931Y-72476307D01*
X126563833Y-72508242D01*
X125906000Y-71850409D01*
X125906000Y-71695608D01*
X125909102Y-71703097D01*
X126043820Y-71904717D01*
X126215283Y-72076180D01*
X126416903Y-72210898D01*
X126640931Y-72303693D01*
X126878757Y-72351000D01*
X127121243Y-72351000D01*
X127359069Y-72303693D01*
X127583097Y-72210898D01*
X127784717Y-72076180D01*
X127956180Y-71904717D01*
X128090898Y-71703097D01*
X128183693Y-71479069D01*
X128231000Y-71241243D01*
X128231000Y-71003682D01*
X128359000Y-71003682D01*
X128359000Y-71236318D01*
X128404386Y-71464485D01*
X128493412Y-71679413D01*
X128622658Y-71872843D01*
X128787157Y-72037342D01*
X128980587Y-72166588D01*
X129195515Y-72255614D01*
X129423682Y-72301000D01*
X129656318Y-72301000D01*
X129884485Y-72255614D01*
X130099413Y-72166588D01*
X130292843Y-72037342D01*
X130457342Y-71872843D01*
X130536082Y-71755000D01*
X131083918Y-71755000D01*
X131162658Y-71872843D01*
X131327157Y-72037342D01*
X131520587Y-72166588D01*
X131735515Y-72255614D01*
X131963682Y-72301000D01*
X132196318Y-72301000D01*
X132424485Y-72255614D01*
X132639413Y-72166588D01*
X132832843Y-72037342D01*
X132997342Y-71872843D01*
X133126588Y-71679413D01*
X133215614Y-71464485D01*
X133261000Y-71236318D01*
X133261000Y-71003682D01*
X133215614Y-70775515D01*
X133126588Y-70560587D01*
X132997342Y-70367157D01*
X132832843Y-70202658D01*
X132639413Y-70073412D01*
X132424485Y-69984386D01*
X132196318Y-69939000D01*
X131963682Y-69939000D01*
X131735515Y-69984386D01*
X131520587Y-70073412D01*
X131327157Y-70202658D01*
X131162658Y-70367157D01*
X131083918Y-70485000D01*
X130536082Y-70485000D01*
X130457342Y-70367157D01*
X130292843Y-70202658D01*
X130099413Y-70073412D01*
X129884485Y-69984386D01*
X129656318Y-69939000D01*
X129423682Y-69939000D01*
X129195515Y-69984386D01*
X128980587Y-70073412D01*
X128787157Y-70202658D01*
X128622658Y-70367157D01*
X128493412Y-70560587D01*
X128404386Y-70775515D01*
X128359000Y-71003682D01*
X128231000Y-71003682D01*
X128231000Y-70998757D01*
X128183693Y-70760931D01*
X128090898Y-70536903D01*
X127956180Y-70335283D01*
X127784717Y-70163820D01*
X127583097Y-70029102D01*
X127359069Y-69936307D01*
X127121243Y-69889000D01*
X126878757Y-69889000D01*
X126640931Y-69936307D01*
X126416903Y-70029102D01*
X126215283Y-70163820D01*
X126043820Y-70335283D01*
X125909102Y-70536903D01*
X125906000Y-70544392D01*
X125906000Y-68463682D01*
X128359000Y-68463682D01*
X128359000Y-68696318D01*
X128404386Y-68924485D01*
X128493412Y-69139413D01*
X128622658Y-69332843D01*
X128787157Y-69497342D01*
X128980587Y-69626588D01*
X129195515Y-69715614D01*
X129423682Y-69761000D01*
X129656318Y-69761000D01*
X129884485Y-69715614D01*
X130099413Y-69626588D01*
X130292843Y-69497342D01*
X130457342Y-69332843D01*
X130536082Y-69215000D01*
X131083918Y-69215000D01*
X131162658Y-69332843D01*
X131327157Y-69497342D01*
X131520587Y-69626588D01*
X131735515Y-69715614D01*
X131963682Y-69761000D01*
X132196318Y-69761000D01*
X132424485Y-69715614D01*
X132639413Y-69626588D01*
X132832843Y-69497342D01*
X132997342Y-69332843D01*
X133126588Y-69139413D01*
X133215614Y-68924485D01*
X133261000Y-68696318D01*
X133261000Y-68463682D01*
X133215614Y-68235515D01*
X133126588Y-68020587D01*
X132997342Y-67827157D01*
X132832843Y-67662658D01*
X132639413Y-67533412D01*
X132424485Y-67444386D01*
X132196318Y-67399000D01*
X131963682Y-67399000D01*
X131735515Y-67444386D01*
X131520587Y-67533412D01*
X131327157Y-67662658D01*
X131162658Y-67827157D01*
X131083918Y-67945000D01*
X130536082Y-67945000D01*
X130457342Y-67827157D01*
X130292843Y-67662658D01*
X130099413Y-67533412D01*
X129884485Y-67444386D01*
X129656318Y-67399000D01*
X129423682Y-67399000D01*
X129195515Y-67444386D01*
X128980587Y-67533412D01*
X128787157Y-67662658D01*
X128622658Y-67827157D01*
X128493412Y-68020587D01*
X128404386Y-68235515D01*
X128359000Y-68463682D01*
X125906000Y-68463682D01*
X125906000Y-65923682D01*
X128359000Y-65923682D01*
X128359000Y-66156318D01*
X128404386Y-66384485D01*
X128493412Y-66599413D01*
X128622658Y-66792843D01*
X128787157Y-66957342D01*
X128980587Y-67086588D01*
X129195515Y-67175614D01*
X129423682Y-67221000D01*
X129656318Y-67221000D01*
X129884485Y-67175614D01*
X130099413Y-67086588D01*
X130292843Y-66957342D01*
X130457342Y-66792843D01*
X130586588Y-66599413D01*
X130675614Y-66384485D01*
X130721000Y-66156318D01*
X130721000Y-65923682D01*
X130899000Y-65923682D01*
X130899000Y-66156318D01*
X130944386Y-66384485D01*
X131033412Y-66599413D01*
X131162658Y-66792843D01*
X131327157Y-66957342D01*
X131520587Y-67086588D01*
X131735515Y-67175614D01*
X131963682Y-67221000D01*
X132196318Y-67221000D01*
X132424485Y-67175614D01*
X132639413Y-67086588D01*
X132832843Y-66957342D01*
X132997342Y-66792843D01*
X133126588Y-66599413D01*
X133215614Y-66384485D01*
X133261000Y-66156318D01*
X133261000Y-65923682D01*
X133215614Y-65695515D01*
X133126588Y-65480587D01*
X132997342Y-65287157D01*
X132832843Y-65122658D01*
X132639413Y-64993412D01*
X132424485Y-64904386D01*
X132196318Y-64859000D01*
X131963682Y-64859000D01*
X131735515Y-64904386D01*
X131520587Y-64993412D01*
X131327157Y-65122658D01*
X131162658Y-65287157D01*
X131033412Y-65480587D01*
X130944386Y-65695515D01*
X130899000Y-65923682D01*
X130721000Y-65923682D01*
X130675614Y-65695515D01*
X130586588Y-65480587D01*
X130457342Y-65287157D01*
X130292843Y-65122658D01*
X130099413Y-64993412D01*
X129884485Y-64904386D01*
X129656318Y-64859000D01*
X129423682Y-64859000D01*
X129195515Y-64904386D01*
X128980587Y-64993412D01*
X128787157Y-65122658D01*
X128622658Y-65287157D01*
X128493412Y-65480587D01*
X128404386Y-65695515D01*
X128359000Y-65923682D01*
X125906000Y-65923682D01*
X125906000Y-64409591D01*
X127609592Y-62706000D01*
X128663815Y-62706000D01*
X128622658Y-62747157D01*
X128493412Y-62940587D01*
X128404386Y-63155515D01*
X128359000Y-63383682D01*
X128359000Y-63616318D01*
X128404386Y-63844485D01*
X128493412Y-64059413D01*
X128622658Y-64252843D01*
X128787157Y-64417342D01*
X128980587Y-64546588D01*
X129195515Y-64635614D01*
X129423682Y-64681000D01*
X129656318Y-64681000D01*
X129884485Y-64635614D01*
X130099413Y-64546588D01*
X130292843Y-64417342D01*
X130457342Y-64252843D01*
X130536082Y-64135000D01*
X131083918Y-64135000D01*
X131162658Y-64252843D01*
X131327157Y-64417342D01*
X131520587Y-64546588D01*
X131735515Y-64635614D01*
X131963682Y-64681000D01*
X132196318Y-64681000D01*
X132424485Y-64635614D01*
X132639413Y-64546588D01*
X132832843Y-64417342D01*
X132997342Y-64252843D01*
X133126588Y-64059413D01*
X133215614Y-63844485D01*
X133261000Y-63616318D01*
X133261000Y-63383682D01*
X133215614Y-63155515D01*
X133126588Y-62940587D01*
X132997342Y-62747157D01*
X132832843Y-62582658D01*
X132639413Y-62453412D01*
X132424485Y-62364386D01*
X132196318Y-62319000D01*
X131963682Y-62319000D01*
X131735515Y-62364386D01*
X131520587Y-62453412D01*
X131327157Y-62582658D01*
X131162658Y-62747157D01*
X131083918Y-62865000D01*
X130536082Y-62865000D01*
X130457342Y-62747157D01*
X130416185Y-62706000D01*
X130815154Y-62706000D01*
X130840000Y-62708447D01*
X130864846Y-62706000D01*
X130864854Y-62706000D01*
X130939193Y-62698678D01*
X131034575Y-62669745D01*
X131122479Y-62622759D01*
X131199527Y-62559527D01*
X131215376Y-62540215D01*
X131655371Y-62100221D01*
X131655375Y-62100216D01*
X131682102Y-62073489D01*
X131735515Y-62095614D01*
X131963682Y-62141000D01*
X132196318Y-62141000D01*
X132424485Y-62095614D01*
X132639413Y-62006588D01*
X132832843Y-61877342D01*
X132997342Y-61712843D01*
X133126588Y-61519413D01*
X133215614Y-61304485D01*
X133261000Y-61076318D01*
X133261000Y-60843682D01*
X133215614Y-60615515D01*
X133126588Y-60400587D01*
X132997342Y-60207157D01*
X132832843Y-60042658D01*
X132639413Y-59913412D01*
X132424485Y-59824386D01*
X132196318Y-59779000D01*
X131963682Y-59779000D01*
X131735515Y-59824386D01*
X131520587Y-59913412D01*
X131327157Y-60042658D01*
X131162658Y-60207157D01*
X131033412Y-60400587D01*
X130944386Y-60615515D01*
X130899000Y-60843682D01*
X130899000Y-61076318D01*
X130944386Y-61304485D01*
X130966511Y-61357898D01*
X130939784Y-61384625D01*
X130939779Y-61384629D01*
X130630409Y-61694000D01*
X130469933Y-61694000D01*
X130586588Y-61519413D01*
X130675614Y-61304485D01*
X130721000Y-61076318D01*
X130721000Y-60843682D01*
X130675614Y-60615515D01*
X130586588Y-60400587D01*
X130457342Y-60207157D01*
X130292843Y-60042658D01*
X130099413Y-59913412D01*
X129884485Y-59824386D01*
X129656318Y-59779000D01*
X129423682Y-59779000D01*
X129195515Y-59824386D01*
X128980587Y-59913412D01*
X128787157Y-60042658D01*
X128622658Y-60207157D01*
X128493412Y-60400587D01*
X128404386Y-60615515D01*
X128359000Y-60843682D01*
X128359000Y-61076318D01*
X128404386Y-61304485D01*
X128493412Y-61519413D01*
X128610067Y-61694000D01*
X127424845Y-61694000D01*
X127399999Y-61691553D01*
X127375153Y-61694000D01*
X127375146Y-61694000D01*
X127310694Y-61700348D01*
X127300806Y-61701322D01*
X127262826Y-61712843D01*
X127205425Y-61730255D01*
X127117521Y-61777241D01*
X127040473Y-61840473D01*
X127024629Y-61859779D01*
X125059781Y-63824628D01*
X125040474Y-63840473D01*
X124977242Y-63917521D01*
X124959248Y-63951185D01*
X124930255Y-64005426D01*
X124901322Y-64100808D01*
X124891553Y-64200000D01*
X117792650Y-64200000D01*
X117886588Y-64059413D01*
X117975614Y-63844485D01*
X118021000Y-63616318D01*
X118021000Y-63383682D01*
X117975614Y-63155515D01*
X117886588Y-62940587D01*
X117757342Y-62747157D01*
X117592843Y-62582658D01*
X117399413Y-62453412D01*
X117184485Y-62364386D01*
X116956318Y-62319000D01*
X116723682Y-62319000D01*
X116495515Y-62364386D01*
X116280587Y-62453412D01*
X116087157Y-62582658D01*
X115922658Y-62747157D01*
X115843918Y-62865000D01*
X115296082Y-62865000D01*
X115217342Y-62747157D01*
X115052843Y-62582658D01*
X114859413Y-62453412D01*
X114644485Y-62364386D01*
X114416318Y-62319000D01*
X114183682Y-62319000D01*
X113955515Y-62364386D01*
X113740587Y-62453412D01*
X113547157Y-62582658D01*
X113382658Y-62747157D01*
X113253412Y-62940587D01*
X113164386Y-63155515D01*
X113119000Y-63383682D01*
X112903000Y-63383682D01*
X112903000Y-50000000D01*
X113117157Y-50000000D01*
X113117157Y-51600000D01*
X113124513Y-51674689D01*
X113146299Y-51746508D01*
X113181678Y-51812696D01*
X113229289Y-51870711D01*
X113287304Y-51918322D01*
X113353492Y-51953701D01*
X113425311Y-51975487D01*
X113500000Y-51982843D01*
X115100000Y-51982843D01*
X115174689Y-51975487D01*
X115246508Y-51953701D01*
X115312696Y-51918322D01*
X115370711Y-51870711D01*
X115418322Y-51812696D01*
X115453701Y-51746508D01*
X115475487Y-51674689D01*
X115482843Y-51600000D01*
X115482843Y-51435000D01*
X115843918Y-51435000D01*
X115922658Y-51552843D01*
X116087157Y-51717342D01*
X116280587Y-51846588D01*
X116495515Y-51935614D01*
X116723682Y-51981000D01*
X116956318Y-51981000D01*
X117184485Y-51935614D01*
X117399413Y-51846588D01*
X117592843Y-51717342D01*
X117694001Y-51616184D01*
X117694001Y-52523816D01*
X117592843Y-52422658D01*
X117399413Y-52293412D01*
X117184485Y-52204386D01*
X116956318Y-52159000D01*
X116723682Y-52159000D01*
X116495515Y-52204386D01*
X116280587Y-52293412D01*
X116087157Y-52422658D01*
X115922658Y-52587157D01*
X115843918Y-52705000D01*
X115296082Y-52705000D01*
X115217342Y-52587157D01*
X115052843Y-52422658D01*
X114859413Y-52293412D01*
X114644485Y-52204386D01*
X114416318Y-52159000D01*
X114183682Y-52159000D01*
X113955515Y-52204386D01*
X113740587Y-52293412D01*
X113547157Y-52422658D01*
X113382658Y-52587157D01*
X113253412Y-52780587D01*
X113164386Y-52995515D01*
X113119000Y-53223682D01*
X113119000Y-53456318D01*
X113164386Y-53684485D01*
X113253412Y-53899413D01*
X113382658Y-54092843D01*
X113547157Y-54257342D01*
X113740587Y-54386588D01*
X113955515Y-54475614D01*
X114183682Y-54521000D01*
X114416318Y-54521000D01*
X114644485Y-54475614D01*
X114859413Y-54386588D01*
X115052843Y-54257342D01*
X115217342Y-54092843D01*
X115296082Y-53975000D01*
X115843918Y-53975000D01*
X115922658Y-54092843D01*
X116087157Y-54257342D01*
X116280587Y-54386588D01*
X116495515Y-54475614D01*
X116723682Y-54521000D01*
X116956318Y-54521000D01*
X117184485Y-54475614D01*
X117399413Y-54386588D01*
X117592843Y-54257342D01*
X117694001Y-54156184D01*
X117694001Y-55063816D01*
X117592843Y-54962658D01*
X117399413Y-54833412D01*
X117184485Y-54744386D01*
X116956318Y-54699000D01*
X116723682Y-54699000D01*
X116495515Y-54744386D01*
X116280587Y-54833412D01*
X116087157Y-54962658D01*
X115922658Y-55127157D01*
X115843918Y-55245000D01*
X115296082Y-55245000D01*
X115217342Y-55127157D01*
X115052843Y-54962658D01*
X114859413Y-54833412D01*
X114644485Y-54744386D01*
X114416318Y-54699000D01*
X114183682Y-54699000D01*
X113955515Y-54744386D01*
X113740587Y-54833412D01*
X113547157Y-54962658D01*
X113382658Y-55127157D01*
X113253412Y-55320587D01*
X113164386Y-55535515D01*
X113119000Y-55763682D01*
X113119000Y-55996318D01*
X113164386Y-56224485D01*
X113253412Y-56439413D01*
X113382658Y-56632843D01*
X113547157Y-56797342D01*
X113740587Y-56926588D01*
X113955515Y-57015614D01*
X114183682Y-57061000D01*
X114416318Y-57061000D01*
X114644485Y-57015614D01*
X114859413Y-56926588D01*
X115052843Y-56797342D01*
X115217342Y-56632843D01*
X115296082Y-56515000D01*
X115843918Y-56515000D01*
X115922658Y-56632843D01*
X116087157Y-56797342D01*
X116280587Y-56926588D01*
X116495515Y-57015614D01*
X116723682Y-57061000D01*
X116956318Y-57061000D01*
X117184485Y-57015614D01*
X117399413Y-56926588D01*
X117592843Y-56797342D01*
X117694000Y-56696185D01*
X117694000Y-57603815D01*
X117592843Y-57502658D01*
X117399413Y-57373412D01*
X117184485Y-57284386D01*
X116956318Y-57239000D01*
X116723682Y-57239000D01*
X116495515Y-57284386D01*
X116280587Y-57373412D01*
X116087157Y-57502658D01*
X115922658Y-57667157D01*
X115843918Y-57785000D01*
X115296082Y-57785000D01*
X115217342Y-57667157D01*
X115052843Y-57502658D01*
X114859413Y-57373412D01*
X114644485Y-57284386D01*
X114416318Y-57239000D01*
X114183682Y-57239000D01*
X113955515Y-57284386D01*
X113740587Y-57373412D01*
X113547157Y-57502658D01*
X113382658Y-57667157D01*
X113253412Y-57860587D01*
X113164386Y-58075515D01*
X113119000Y-58303682D01*
X113119000Y-58536318D01*
X113164386Y-58764485D01*
X113253412Y-58979413D01*
X113382658Y-59172843D01*
X113547157Y-59337342D01*
X113740587Y-59466588D01*
X113955515Y-59555614D01*
X114183682Y-59601000D01*
X114416318Y-59601000D01*
X114644485Y-59555614D01*
X114859413Y-59466588D01*
X115052843Y-59337342D01*
X115217342Y-59172843D01*
X115296082Y-59055000D01*
X115843918Y-59055000D01*
X115922658Y-59172843D01*
X116087157Y-59337342D01*
X116280587Y-59466588D01*
X116495515Y-59555614D01*
X116723682Y-59601000D01*
X116956318Y-59601000D01*
X117184485Y-59555614D01*
X117399413Y-59466588D01*
X117592843Y-59337342D01*
X117694000Y-59236185D01*
X117694000Y-60143815D01*
X117592843Y-60042658D01*
X117399413Y-59913412D01*
X117184485Y-59824386D01*
X116956318Y-59779000D01*
X116723682Y-59779000D01*
X116495515Y-59824386D01*
X116280587Y-59913412D01*
X116087157Y-60042658D01*
X115922658Y-60207157D01*
X115843918Y-60325000D01*
X115296082Y-60325000D01*
X115217342Y-60207157D01*
X115052843Y-60042658D01*
X114859413Y-59913412D01*
X114644485Y-59824386D01*
X114416318Y-59779000D01*
X114183682Y-59779000D01*
X113955515Y-59824386D01*
X113740587Y-59913412D01*
X113547157Y-60042658D01*
X113382658Y-60207157D01*
X113253412Y-60400587D01*
X113164386Y-60615515D01*
X113119000Y-60843682D01*
X113119000Y-61076318D01*
X113164386Y-61304485D01*
X113253412Y-61519413D01*
X113382658Y-61712843D01*
X113547157Y-61877342D01*
X113740587Y-62006588D01*
X113955515Y-62095614D01*
X114183682Y-62141000D01*
X114416318Y-62141000D01*
X114644485Y-62095614D01*
X114859413Y-62006588D01*
X115052843Y-61877342D01*
X115217342Y-61712843D01*
X115296082Y-61595000D01*
X115843918Y-61595000D01*
X115922658Y-61712843D01*
X116087157Y-61877342D01*
X116280587Y-62006588D01*
X116495515Y-62095614D01*
X116723682Y-62141000D01*
X116956318Y-62141000D01*
X117184485Y-62095614D01*
X117399413Y-62006588D01*
X117592843Y-61877342D01*
X117694000Y-61776185D01*
X117694000Y-61975154D01*
X117691553Y-62000000D01*
X117694000Y-62024846D01*
X117694000Y-62024853D01*
X117701322Y-62099192D01*
X117730255Y-62194574D01*
X117777241Y-62282479D01*
X117840473Y-62359527D01*
X117859785Y-62375376D01*
X118424628Y-62940220D01*
X118440473Y-62959527D01*
X118517521Y-63022759D01*
X118605425Y-63069745D01*
X118700806Y-63098678D01*
X118710694Y-63099652D01*
X118775146Y-63106000D01*
X118775153Y-63106000D01*
X118799999Y-63108447D01*
X118824845Y-63106000D01*
X125335154Y-63106000D01*
X125360000Y-63108447D01*
X125384846Y-63106000D01*
X125384854Y-63106000D01*
X125459193Y-63098678D01*
X125554575Y-63069745D01*
X125642479Y-63022759D01*
X125719527Y-62959527D01*
X125735376Y-62940215D01*
X129142102Y-59533490D01*
X129195515Y-59555614D01*
X129423682Y-59601000D01*
X129656318Y-59601000D01*
X129884485Y-59555614D01*
X130099413Y-59466588D01*
X130292843Y-59337342D01*
X130457342Y-59172843D01*
X130586588Y-58979413D01*
X130675614Y-58764485D01*
X130721000Y-58536318D01*
X130721000Y-58303682D01*
X130899000Y-58303682D01*
X130899000Y-58536318D01*
X130944386Y-58764485D01*
X131033412Y-58979413D01*
X131162658Y-59172843D01*
X131327157Y-59337342D01*
X131520587Y-59466588D01*
X131735515Y-59555614D01*
X131963682Y-59601000D01*
X132196318Y-59601000D01*
X132424485Y-59555614D01*
X132639413Y-59466588D01*
X132832843Y-59337342D01*
X132997342Y-59172843D01*
X133126588Y-58979413D01*
X133215614Y-58764485D01*
X133261000Y-58536318D01*
X133261000Y-58303682D01*
X133215614Y-58075515D01*
X133126588Y-57860587D01*
X132997342Y-57667157D01*
X132832843Y-57502658D01*
X132639413Y-57373412D01*
X132424485Y-57284386D01*
X132196318Y-57239000D01*
X131963682Y-57239000D01*
X131735515Y-57284386D01*
X131520587Y-57373412D01*
X131327157Y-57502658D01*
X131162658Y-57667157D01*
X131033412Y-57860587D01*
X130944386Y-58075515D01*
X130899000Y-58303682D01*
X130721000Y-58303682D01*
X130675614Y-58075515D01*
X130586588Y-57860587D01*
X130457342Y-57667157D01*
X130292843Y-57502658D01*
X130099413Y-57373412D01*
X129884485Y-57284386D01*
X129656318Y-57239000D01*
X129423682Y-57239000D01*
X129195515Y-57284386D01*
X128980587Y-57373412D01*
X128787157Y-57502658D01*
X128622658Y-57667157D01*
X128493412Y-57860587D01*
X128404386Y-58075515D01*
X128359000Y-58303682D01*
X128359000Y-58536318D01*
X128404386Y-58764485D01*
X128426510Y-58817898D01*
X125150409Y-62094000D01*
X124939039Y-62094000D01*
X125043097Y-62050898D01*
X125244717Y-61916180D01*
X125416180Y-61744717D01*
X125550898Y-61543097D01*
X125643693Y-61319069D01*
X125691000Y-61081243D01*
X125691000Y-60838757D01*
X125643693Y-60600931D01*
X125550898Y-60376903D01*
X125436704Y-60206000D01*
X125475154Y-60206000D01*
X125500000Y-60208447D01*
X125524846Y-60206000D01*
X125524854Y-60206000D01*
X125599193Y-60198678D01*
X125694575Y-60169745D01*
X125782479Y-60122759D01*
X125859527Y-60059527D01*
X125875376Y-60040215D01*
X127540220Y-58375372D01*
X127559527Y-58359527D01*
X127622759Y-58282479D01*
X127669745Y-58194575D01*
X127698678Y-58099193D01*
X127706000Y-58024854D01*
X127706000Y-58024847D01*
X127708447Y-58000001D01*
X127706000Y-57975155D01*
X127706000Y-55763682D01*
X128359000Y-55763682D01*
X128359000Y-55996318D01*
X128404386Y-56224485D01*
X128493412Y-56439413D01*
X128622658Y-56632843D01*
X128787157Y-56797342D01*
X128980587Y-56926588D01*
X129195515Y-57015614D01*
X129423682Y-57061000D01*
X129656318Y-57061000D01*
X129884485Y-57015614D01*
X130099413Y-56926588D01*
X130292843Y-56797342D01*
X130457342Y-56632843D01*
X130536082Y-56515000D01*
X131083918Y-56515000D01*
X131162658Y-56632843D01*
X131327157Y-56797342D01*
X131520587Y-56926588D01*
X131735515Y-57015614D01*
X131963682Y-57061000D01*
X132196318Y-57061000D01*
X132424485Y-57015614D01*
X132639413Y-56926588D01*
X132832843Y-56797342D01*
X132997342Y-56632843D01*
X133126588Y-56439413D01*
X133215614Y-56224485D01*
X133261000Y-55996318D01*
X133261000Y-55763682D01*
X133215614Y-55535515D01*
X133126588Y-55320587D01*
X132997342Y-55127157D01*
X132832843Y-54962658D01*
X132639413Y-54833412D01*
X132424485Y-54744386D01*
X132196318Y-54699000D01*
X131963682Y-54699000D01*
X131735515Y-54744386D01*
X131520587Y-54833412D01*
X131327157Y-54962658D01*
X131162658Y-55127157D01*
X131083918Y-55245000D01*
X130536082Y-55245000D01*
X130457342Y-55127157D01*
X130292843Y-54962658D01*
X130099413Y-54833412D01*
X129884485Y-54744386D01*
X129656318Y-54699000D01*
X129423682Y-54699000D01*
X129195515Y-54744386D01*
X128980587Y-54833412D01*
X128787157Y-54962658D01*
X128622658Y-55127157D01*
X128493412Y-55320587D01*
X128404386Y-55535515D01*
X128359000Y-55763682D01*
X127706000Y-55763682D01*
X127706000Y-53223682D01*
X128359000Y-53223682D01*
X128359000Y-53456318D01*
X128404386Y-53684485D01*
X128493412Y-53899413D01*
X128622658Y-54092843D01*
X128787157Y-54257342D01*
X128980587Y-54386588D01*
X129195515Y-54475614D01*
X129423682Y-54521000D01*
X129656318Y-54521000D01*
X129884485Y-54475614D01*
X130099413Y-54386588D01*
X130292843Y-54257342D01*
X130457342Y-54092843D01*
X130536082Y-53975000D01*
X131083918Y-53975000D01*
X131162658Y-54092843D01*
X131327157Y-54257342D01*
X131520587Y-54386588D01*
X131735515Y-54475614D01*
X131963682Y-54521000D01*
X132196318Y-54521000D01*
X132424485Y-54475614D01*
X132639413Y-54386588D01*
X132832843Y-54257342D01*
X132997342Y-54092843D01*
X133126588Y-53899413D01*
X133215614Y-53684485D01*
X133261000Y-53456318D01*
X133261000Y-53223682D01*
X133215614Y-52995515D01*
X133126588Y-52780587D01*
X132997342Y-52587157D01*
X132832843Y-52422658D01*
X132639413Y-52293412D01*
X132424485Y-52204386D01*
X132196318Y-52159000D01*
X131963682Y-52159000D01*
X131735515Y-52204386D01*
X131520587Y-52293412D01*
X131327157Y-52422658D01*
X131162658Y-52587157D01*
X131083918Y-52705000D01*
X130536082Y-52705000D01*
X130457342Y-52587157D01*
X130292843Y-52422658D01*
X130099413Y-52293412D01*
X129884485Y-52204386D01*
X129656318Y-52159000D01*
X129423682Y-52159000D01*
X129195515Y-52204386D01*
X128980587Y-52293412D01*
X128787157Y-52422658D01*
X128622658Y-52587157D01*
X128493412Y-52780587D01*
X128404386Y-52995515D01*
X128359000Y-53223682D01*
X127706000Y-53223682D01*
X127706000Y-50209591D01*
X128009592Y-49906000D01*
X128763815Y-49906000D01*
X128622658Y-50047157D01*
X128493412Y-50240587D01*
X128404386Y-50455515D01*
X128359000Y-50683682D01*
X128359000Y-50916318D01*
X128404386Y-51144485D01*
X128493412Y-51359413D01*
X128622658Y-51552843D01*
X128787157Y-51717342D01*
X128980587Y-51846588D01*
X129195515Y-51935614D01*
X129423682Y-51981000D01*
X129656318Y-51981000D01*
X129884485Y-51935614D01*
X130099413Y-51846588D01*
X130292843Y-51717342D01*
X130457342Y-51552843D01*
X130586588Y-51359413D01*
X130675614Y-51144485D01*
X130721000Y-50916318D01*
X130721000Y-50683682D01*
X130675614Y-50455515D01*
X130586588Y-50240587D01*
X130457342Y-50047157D01*
X130316185Y-49906000D01*
X130470409Y-49906000D01*
X130966510Y-50402102D01*
X130944386Y-50455515D01*
X130899000Y-50683682D01*
X130899000Y-50916318D01*
X130944386Y-51144485D01*
X131033412Y-51359413D01*
X131162658Y-51552843D01*
X131327157Y-51717342D01*
X131520587Y-51846588D01*
X131735515Y-51935614D01*
X131963682Y-51981000D01*
X132196318Y-51981000D01*
X132424485Y-51935614D01*
X132639413Y-51846588D01*
X132832843Y-51717342D01*
X132997342Y-51552843D01*
X133126588Y-51359413D01*
X133215614Y-51144485D01*
X133261000Y-50916318D01*
X133261000Y-50683682D01*
X133215614Y-50455515D01*
X133126588Y-50240587D01*
X132997342Y-50047157D01*
X132832843Y-49882658D01*
X132639413Y-49753412D01*
X132424485Y-49664386D01*
X132196318Y-49619000D01*
X131963682Y-49619000D01*
X131735515Y-49664386D01*
X131682102Y-49686510D01*
X131055376Y-49059785D01*
X131039527Y-49040473D01*
X130962479Y-48977241D01*
X130874575Y-48930255D01*
X130779193Y-48901322D01*
X130704854Y-48894000D01*
X130704846Y-48894000D01*
X130680000Y-48891553D01*
X130655154Y-48894000D01*
X127824845Y-48894000D01*
X127799999Y-48891553D01*
X127775153Y-48894000D01*
X127775146Y-48894000D01*
X127710694Y-48900348D01*
X127700806Y-48901322D01*
X127605425Y-48930255D01*
X127517521Y-48977241D01*
X127440473Y-49040473D01*
X127424630Y-49059778D01*
X126859780Y-49624629D01*
X126840474Y-49640473D01*
X126777242Y-49717521D01*
X126770952Y-49729289D01*
X126730255Y-49805426D01*
X126701322Y-49900808D01*
X126691553Y-50000000D01*
X126694001Y-50024856D01*
X126694000Y-57790408D01*
X125600103Y-58884306D01*
X125643693Y-58779069D01*
X125691000Y-58541243D01*
X125691000Y-58298757D01*
X125643693Y-58060931D01*
X125550898Y-57836903D01*
X125416180Y-57635283D01*
X125244717Y-57463820D01*
X125043097Y-57329102D01*
X124819069Y-57236307D01*
X124581243Y-57189000D01*
X124338757Y-57189000D01*
X124100931Y-57236307D01*
X123876903Y-57329102D01*
X123675283Y-57463820D01*
X123503820Y-57635283D01*
X123369102Y-57836903D01*
X123276307Y-58060931D01*
X123229000Y-58298757D01*
X123229000Y-58541243D01*
X123276307Y-58779069D01*
X123369102Y-59003097D01*
X123496659Y-59194000D01*
X122883341Y-59194000D01*
X123010898Y-59003097D01*
X123103693Y-58779069D01*
X123151000Y-58541243D01*
X123151000Y-58298757D01*
X123103693Y-58060931D01*
X123010898Y-57836903D01*
X122876180Y-57635283D01*
X122704717Y-57463820D01*
X122503097Y-57329102D01*
X122426000Y-57297168D01*
X122426000Y-53089591D01*
X126749592Y-48766000D01*
X131011288Y-48766000D01*
X131033412Y-48819413D01*
X131162658Y-49012843D01*
X131327157Y-49177342D01*
X131520587Y-49306588D01*
X131735515Y-49395614D01*
X131963682Y-49441000D01*
X132196318Y-49441000D01*
X132424485Y-49395614D01*
X132639413Y-49306588D01*
X132832843Y-49177342D01*
X132997342Y-49012843D01*
X133126588Y-48819413D01*
X133215614Y-48604485D01*
X133261000Y-48376318D01*
X133261000Y-48143682D01*
X133215614Y-47915515D01*
X133126588Y-47700587D01*
X132997342Y-47507157D01*
X132832843Y-47342658D01*
X132639413Y-47213412D01*
X132424485Y-47124386D01*
X132196318Y-47079000D01*
X131963682Y-47079000D01*
X131735515Y-47124386D01*
X131520587Y-47213412D01*
X131327157Y-47342658D01*
X131162658Y-47507157D01*
X131033412Y-47700587D01*
X131011288Y-47754000D01*
X127780750Y-47754000D01*
X127875207Y-47714875D01*
X127970366Y-47651292D01*
X128051292Y-47570366D01*
X128114875Y-47475207D01*
X128158672Y-47369471D01*
X128161789Y-47353802D01*
X129289592Y-46226000D01*
X131011288Y-46226000D01*
X131033412Y-46279413D01*
X131162658Y-46472843D01*
X131327157Y-46637342D01*
X131520587Y-46766588D01*
X131735515Y-46855614D01*
X131963682Y-46901000D01*
X132196318Y-46901000D01*
X132424485Y-46855614D01*
X132639413Y-46766588D01*
X132832843Y-46637342D01*
X132997342Y-46472843D01*
X133126588Y-46279413D01*
X133215614Y-46064485D01*
X133261000Y-45836318D01*
X133261000Y-45603682D01*
X133215614Y-45375515D01*
X133126588Y-45160587D01*
X132997342Y-44967157D01*
X132832843Y-44802658D01*
X132639413Y-44673412D01*
X132424485Y-44584386D01*
X132196318Y-44539000D01*
X131963682Y-44539000D01*
X131735515Y-44584386D01*
X131520587Y-44673412D01*
X131327157Y-44802658D01*
X131162658Y-44967157D01*
X131033412Y-45160587D01*
X131011288Y-45214000D01*
X129104845Y-45214000D01*
X129079999Y-45211553D01*
X129055153Y-45214000D01*
X129055146Y-45214000D01*
X128980807Y-45221322D01*
X128885425Y-45250255D01*
X128797521Y-45297241D01*
X128720473Y-45360473D01*
X128704628Y-45379780D01*
X127446198Y-46638211D01*
X127430529Y-46641328D01*
X127324793Y-46685125D01*
X127229634Y-46748708D01*
X127148708Y-46829634D01*
X127085125Y-46924793D01*
X127041328Y-47030529D01*
X127019000Y-47142777D01*
X127019000Y-47257223D01*
X127041328Y-47369471D01*
X127085125Y-47475207D01*
X127148708Y-47570366D01*
X127229634Y-47651292D01*
X127324793Y-47714875D01*
X127419250Y-47754000D01*
X126564854Y-47754000D01*
X126540000Y-47751552D01*
X126515146Y-47754000D01*
X126440807Y-47761322D01*
X126345425Y-47790255D01*
X126257521Y-47837241D01*
X126180473Y-47900473D01*
X126164628Y-47919780D01*
X121579781Y-52504628D01*
X121560474Y-52520473D01*
X121497242Y-52597521D01*
X121472127Y-52644508D01*
X121450255Y-52685426D01*
X121421322Y-52780808D01*
X121411553Y-52880000D01*
X121414001Y-52904856D01*
X121414000Y-57297167D01*
X121336903Y-57329102D01*
X121135283Y-57463820D01*
X120963820Y-57635283D01*
X120829102Y-57836903D01*
X120736307Y-58060931D01*
X120689000Y-58298757D01*
X120689000Y-58541243D01*
X120736307Y-58779069D01*
X120829102Y-59003097D01*
X120956659Y-59194000D01*
X120869592Y-59194000D01*
X120531758Y-58856167D01*
X120563693Y-58779069D01*
X120611000Y-58541243D01*
X120611000Y-58298757D01*
X120563693Y-58060931D01*
X120470898Y-57836903D01*
X120336180Y-57635283D01*
X120164717Y-57463820D01*
X119963097Y-57329102D01*
X119739069Y-57236307D01*
X119501243Y-57189000D01*
X119258757Y-57189000D01*
X119020931Y-57236307D01*
X118796903Y-57329102D01*
X118706000Y-57389841D01*
X118706000Y-49424845D01*
X118708447Y-49399999D01*
X118706000Y-49375153D01*
X118706000Y-49375146D01*
X118698678Y-49300807D01*
X118669745Y-49205425D01*
X118622759Y-49117521D01*
X118559527Y-49040473D01*
X118540220Y-49024628D01*
X117999582Y-48483991D01*
X118021000Y-48376318D01*
X118021000Y-48143682D01*
X117975614Y-47915515D01*
X117886588Y-47700587D01*
X117757342Y-47507157D01*
X117592843Y-47342658D01*
X117399413Y-47213412D01*
X117184485Y-47124386D01*
X116956318Y-47079000D01*
X116723682Y-47079000D01*
X116495515Y-47124386D01*
X116280587Y-47213412D01*
X116087157Y-47342658D01*
X115922658Y-47507157D01*
X115793412Y-47700587D01*
X115704386Y-47915515D01*
X115659000Y-48143682D01*
X115659000Y-48376318D01*
X115704386Y-48604485D01*
X115793412Y-48819413D01*
X115922658Y-49012843D01*
X116087157Y-49177342D01*
X116280587Y-49306588D01*
X116495515Y-49395614D01*
X116723682Y-49441000D01*
X116956318Y-49441000D01*
X117184485Y-49395614D01*
X117393462Y-49309053D01*
X117694001Y-49609593D01*
X117694001Y-49983816D01*
X117592843Y-49882658D01*
X117399413Y-49753412D01*
X117184485Y-49664386D01*
X116956318Y-49619000D01*
X116723682Y-49619000D01*
X116495515Y-49664386D01*
X116280587Y-49753412D01*
X116087157Y-49882658D01*
X115922658Y-50047157D01*
X115843918Y-50165000D01*
X115482843Y-50165000D01*
X115482843Y-50000000D01*
X115475487Y-49925311D01*
X115453701Y-49853492D01*
X115418322Y-49787304D01*
X115370711Y-49729289D01*
X115312696Y-49681678D01*
X115246508Y-49646299D01*
X115174689Y-49624513D01*
X115100000Y-49617157D01*
X113500000Y-49617157D01*
X113425311Y-49624513D01*
X113353492Y-49646299D01*
X113287304Y-49681678D01*
X113229289Y-49729289D01*
X113181678Y-49787304D01*
X113146299Y-49853492D01*
X113124513Y-49925311D01*
X113117157Y-50000000D01*
X112903000Y-50000000D01*
X112903000Y-45603682D01*
X115659000Y-45603682D01*
X115659000Y-45836318D01*
X115704386Y-46064485D01*
X115793412Y-46279413D01*
X115922658Y-46472843D01*
X116087157Y-46637342D01*
X116280587Y-46766588D01*
X116495515Y-46855614D01*
X116723682Y-46901000D01*
X116956318Y-46901000D01*
X117184485Y-46855614D01*
X117399413Y-46766588D01*
X117592843Y-46637342D01*
X117757342Y-46472843D01*
X117886588Y-46279413D01*
X117975614Y-46064485D01*
X118021000Y-45836318D01*
X118021000Y-45603682D01*
X117975614Y-45375515D01*
X117886588Y-45160587D01*
X117757342Y-44967157D01*
X117592843Y-44802658D01*
X117399413Y-44673412D01*
X117184485Y-44584386D01*
X116975306Y-44542777D01*
X127619000Y-44542777D01*
X127619000Y-44657223D01*
X127641328Y-44769471D01*
X127685125Y-44875207D01*
X127748708Y-44970366D01*
X127829634Y-45051292D01*
X127924793Y-45114875D01*
X128030529Y-45158672D01*
X128142777Y-45181000D01*
X128257223Y-45181000D01*
X128369471Y-45158672D01*
X128475207Y-45114875D01*
X128570366Y-45051292D01*
X128651292Y-44970366D01*
X128714875Y-44875207D01*
X128758672Y-44769471D01*
X128781000Y-44657223D01*
X128781000Y-44542777D01*
X128758672Y-44430529D01*
X128714875Y-44324793D01*
X128706000Y-44311511D01*
X128706000Y-44009591D01*
X129029592Y-43686000D01*
X131011288Y-43686000D01*
X131033412Y-43739413D01*
X131162658Y-43932843D01*
X131327157Y-44097342D01*
X131520587Y-44226588D01*
X131735515Y-44315614D01*
X131963682Y-44361000D01*
X132196318Y-44361000D01*
X132424485Y-44315614D01*
X132639413Y-44226588D01*
X132832843Y-44097342D01*
X132997342Y-43932843D01*
X133126588Y-43739413D01*
X133215614Y-43524485D01*
X133261000Y-43296318D01*
X133261000Y-43063682D01*
X133215614Y-42835515D01*
X133126588Y-42620587D01*
X132997342Y-42427157D01*
X132832843Y-42262658D01*
X132639413Y-42133412D01*
X132424485Y-42044386D01*
X132196318Y-41999000D01*
X131963682Y-41999000D01*
X131735515Y-42044386D01*
X131520587Y-42133412D01*
X131327157Y-42262658D01*
X131162658Y-42427157D01*
X131033412Y-42620587D01*
X131011288Y-42674000D01*
X128844845Y-42674000D01*
X128819999Y-42671553D01*
X128795153Y-42674000D01*
X128795146Y-42674000D01*
X128730694Y-42680348D01*
X128720806Y-42681322D01*
X128698607Y-42688056D01*
X128625425Y-42710255D01*
X128537521Y-42757241D01*
X128460473Y-42820473D01*
X128444628Y-42839780D01*
X127859780Y-43424629D01*
X127840474Y-43440473D01*
X127777242Y-43517521D01*
X127752127Y-43564508D01*
X127730255Y-43605426D01*
X127701322Y-43700808D01*
X127691553Y-43800000D01*
X127694001Y-43824856D01*
X127694000Y-44311510D01*
X127685125Y-44324793D01*
X127641328Y-44430529D01*
X127619000Y-44542777D01*
X116975306Y-44542777D01*
X116956318Y-44539000D01*
X116723682Y-44539000D01*
X116495515Y-44584386D01*
X116280587Y-44673412D01*
X116087157Y-44802658D01*
X115922658Y-44967157D01*
X115793412Y-45160587D01*
X115704386Y-45375515D01*
X115659000Y-45603682D01*
X112903000Y-45603682D01*
X112903000Y-43063682D01*
X115659000Y-43063682D01*
X115659000Y-43296318D01*
X115704386Y-43524485D01*
X115793412Y-43739413D01*
X115922658Y-43932843D01*
X116087157Y-44097342D01*
X116280587Y-44226588D01*
X116495515Y-44315614D01*
X116723682Y-44361000D01*
X116956318Y-44361000D01*
X117184485Y-44315614D01*
X117399413Y-44226588D01*
X117592843Y-44097342D01*
X117757342Y-43932843D01*
X117886588Y-43739413D01*
X117975614Y-43524485D01*
X118021000Y-43296318D01*
X118021000Y-43063682D01*
X117975614Y-42835515D01*
X117886588Y-42620587D01*
X117757342Y-42427157D01*
X117592843Y-42262658D01*
X117399413Y-42133412D01*
X117184485Y-42044386D01*
X116956318Y-41999000D01*
X116723682Y-41999000D01*
X116495515Y-42044386D01*
X116280587Y-42133412D01*
X116087157Y-42262658D01*
X115922658Y-42427157D01*
X115793412Y-42620587D01*
X115704386Y-42835515D01*
X115659000Y-43063682D01*
X112903000Y-43063682D01*
X112903000Y-39840000D01*
X115657157Y-39840000D01*
X115657157Y-41440000D01*
X115664513Y-41514689D01*
X115686299Y-41586508D01*
X115721678Y-41652696D01*
X115769289Y-41710711D01*
X115827304Y-41758322D01*
X115893492Y-41793701D01*
X115965311Y-41815487D01*
X116040000Y-41822843D01*
X117640000Y-41822843D01*
X117714689Y-41815487D01*
X117786508Y-41793701D01*
X117852696Y-41758322D01*
X117910711Y-41710711D01*
X117958322Y-41652696D01*
X117993701Y-41586508D01*
X118015487Y-41514689D01*
X118022843Y-41440000D01*
X118022843Y-40523682D01*
X130899000Y-40523682D01*
X130899000Y-40756318D01*
X130944386Y-40984485D01*
X131033412Y-41199413D01*
X131162658Y-41392843D01*
X131327157Y-41557342D01*
X131520587Y-41686588D01*
X131735515Y-41775614D01*
X131963682Y-41821000D01*
X132196318Y-41821000D01*
X132424485Y-41775614D01*
X132639413Y-41686588D01*
X132832843Y-41557342D01*
X132997342Y-41392843D01*
X133126588Y-41199413D01*
X133215614Y-40984485D01*
X133261000Y-40756318D01*
X133261000Y-40523682D01*
X133215614Y-40295515D01*
X133126588Y-40080587D01*
X132997342Y-39887157D01*
X132832843Y-39722658D01*
X132639413Y-39593412D01*
X132424485Y-39504386D01*
X132196318Y-39459000D01*
X131963682Y-39459000D01*
X131735515Y-39504386D01*
X131520587Y-39593412D01*
X131327157Y-39722658D01*
X131162658Y-39887157D01*
X131033412Y-40080587D01*
X130944386Y-40295515D01*
X130899000Y-40523682D01*
X118022843Y-40523682D01*
X118022843Y-39840000D01*
X118015487Y-39765311D01*
X117993701Y-39693492D01*
X117958322Y-39627304D01*
X117910711Y-39569289D01*
X117852696Y-39521678D01*
X117786508Y-39486299D01*
X117714689Y-39464513D01*
X117640000Y-39457157D01*
X116040000Y-39457157D01*
X115965311Y-39464513D01*
X115893492Y-39486299D01*
X115827304Y-39521678D01*
X115769289Y-39569289D01*
X115721678Y-39627304D01*
X115686299Y-39693492D01*
X115664513Y-39765311D01*
X115657157Y-39840000D01*
X112903000Y-39840000D01*
X112903000Y-39274363D01*
X122129218Y-39246234D01*
X122141412Y-39275817D01*
X122144106Y-39280801D01*
X122144108Y-39280806D01*
X122144111Y-39280810D01*
X122227693Y-39432847D01*
X122248499Y-39463234D01*
X122268847Y-39493860D01*
X122272460Y-39498228D01*
X122383985Y-39631138D01*
X122410306Y-39656914D01*
X122436205Y-39682994D01*
X122440598Y-39686578D01*
X122575815Y-39795294D01*
X122606607Y-39815444D01*
X122637113Y-39836020D01*
X122642118Y-39838682D01*
X122795877Y-39919065D01*
X122830040Y-39932868D01*
X122863917Y-39947108D01*
X122869338Y-39948745D01*
X122869345Y-39948748D01*
X122869352Y-39948749D01*
X123035787Y-39997734D01*
X123071957Y-40004634D01*
X123107979Y-40012028D01*
X123113619Y-40012582D01*
X123113621Y-40012582D01*
X123286409Y-40028307D01*
X123323206Y-40028050D01*
X123360003Y-40028307D01*
X123365645Y-40027754D01*
X123538196Y-40009618D01*
X123574262Y-40002215D01*
X123610388Y-39995323D01*
X123615815Y-39993685D01*
X123781558Y-39942379D01*
X123815521Y-39928102D01*
X123849599Y-39914334D01*
X123854600Y-39911676D01*
X123854604Y-39911674D01*
X123854607Y-39911672D01*
X124007225Y-39829151D01*
X124037737Y-39808571D01*
X124068522Y-39788426D01*
X124072910Y-39784847D01*
X124072916Y-39784843D01*
X124072921Y-39784838D01*
X124206601Y-39674249D01*
X124232553Y-39648116D01*
X124258821Y-39622392D01*
X124262430Y-39618030D01*
X124262435Y-39618025D01*
X124262439Y-39618020D01*
X124372094Y-39483569D01*
X124392478Y-39452889D01*
X124413247Y-39422557D01*
X124415941Y-39417575D01*
X124415944Y-39417571D01*
X124415946Y-39417567D01*
X124497398Y-39264377D01*
X124507865Y-39238982D01*
X133477000Y-39211637D01*
X133477000Y-80105637D01*
M02*
