%TF.GenerationSoftware,KiCad,Pcbnew,(5.1.5-0-10_14)*%
%TF.CreationDate,2021-01-31T16:28:13+01:00*%
%TF.ProjectId,C64-Prog-Adapter-LB,4336342d-5072-46f6-972d-416461707465,1.0*%
%TF.SameCoordinates,Original*%
%TF.FileFunction,Soldermask,Bot*%
%TF.FilePolarity,Negative*%
%FSLAX46Y46*%
G04 Gerber Fmt 4.6, Leading zero omitted, Abs format (unit mm)*
G04 Created by KiCad (PCBNEW (5.1.5-0-10_14)) date 2021-01-31 16:28:13*
%MOMM*%
%LPD*%
G04 APERTURE LIST*
%ADD10C,0.050000*%
%ADD11C,0.150000*%
G04 APERTURE END LIST*
D10*
X124206000Y-38735000D02*
X133350000Y-38735000D01*
X124206000Y-38735000D02*
G75*
G02X122428000Y-38735000I-889000J0D01*
G01*
X133985000Y-80010000D02*
G75*
G02X133350000Y-80645000I-635000J0D01*
G01*
X113030000Y-80645000D02*
G75*
G02X112395000Y-80010000I0J635000D01*
G01*
X112395000Y-39370000D02*
G75*
G02X113030000Y-38735000I635000J0D01*
G01*
X133350000Y-38735000D02*
G75*
G02X133985000Y-39370000I0J-635000D01*
G01*
X112395000Y-80010000D02*
X112395000Y-39370000D01*
X133350000Y-80645000D02*
X113030000Y-80645000D01*
X133985000Y-39370000D02*
X133985000Y-80010000D01*
X113030000Y-38735000D02*
X122428000Y-38735000D01*
D11*
G36*
X132328228Y-77921703D02*
G01*
X132483100Y-77985853D01*
X132622481Y-78078985D01*
X132741015Y-78197519D01*
X132834147Y-78336900D01*
X132898297Y-78491772D01*
X132931000Y-78656184D01*
X132931000Y-78823816D01*
X132898297Y-78988228D01*
X132834147Y-79143100D01*
X132741015Y-79282481D01*
X132622481Y-79401015D01*
X132483100Y-79494147D01*
X132328228Y-79558297D01*
X132163816Y-79591000D01*
X131996184Y-79591000D01*
X131831772Y-79558297D01*
X131676900Y-79494147D01*
X131537519Y-79401015D01*
X131418985Y-79282481D01*
X131325853Y-79143100D01*
X131261703Y-78988228D01*
X131229000Y-78823816D01*
X131229000Y-78656184D01*
X131261703Y-78491772D01*
X131325853Y-78336900D01*
X131418985Y-78197519D01*
X131537519Y-78078985D01*
X131676900Y-77985853D01*
X131831772Y-77921703D01*
X131996184Y-77889000D01*
X132163816Y-77889000D01*
X132328228Y-77921703D01*
G37*
G36*
X129788228Y-77921703D02*
G01*
X129943100Y-77985853D01*
X130082481Y-78078985D01*
X130201015Y-78197519D01*
X130294147Y-78336900D01*
X130358297Y-78491772D01*
X130391000Y-78656184D01*
X130391000Y-78823816D01*
X130358297Y-78988228D01*
X130294147Y-79143100D01*
X130201015Y-79282481D01*
X130082481Y-79401015D01*
X129943100Y-79494147D01*
X129788228Y-79558297D01*
X129623816Y-79591000D01*
X129456184Y-79591000D01*
X129291772Y-79558297D01*
X129136900Y-79494147D01*
X128997519Y-79401015D01*
X128878985Y-79282481D01*
X128785853Y-79143100D01*
X128721703Y-78988228D01*
X128689000Y-78823816D01*
X128689000Y-78656184D01*
X128721703Y-78491772D01*
X128785853Y-78336900D01*
X128878985Y-78197519D01*
X128997519Y-78078985D01*
X129136900Y-77985853D01*
X129291772Y-77921703D01*
X129456184Y-77889000D01*
X129623816Y-77889000D01*
X129788228Y-77921703D01*
G37*
G36*
X117088228Y-77921703D02*
G01*
X117243100Y-77985853D01*
X117382481Y-78078985D01*
X117501015Y-78197519D01*
X117594147Y-78336900D01*
X117658297Y-78491772D01*
X117691000Y-78656184D01*
X117691000Y-78823816D01*
X117658297Y-78988228D01*
X117594147Y-79143100D01*
X117501015Y-79282481D01*
X117382481Y-79401015D01*
X117243100Y-79494147D01*
X117088228Y-79558297D01*
X116923816Y-79591000D01*
X116756184Y-79591000D01*
X116591772Y-79558297D01*
X116436900Y-79494147D01*
X116297519Y-79401015D01*
X116178985Y-79282481D01*
X116085853Y-79143100D01*
X116021703Y-78988228D01*
X115989000Y-78823816D01*
X115989000Y-78656184D01*
X116021703Y-78491772D01*
X116085853Y-78336900D01*
X116178985Y-78197519D01*
X116297519Y-78078985D01*
X116436900Y-77985853D01*
X116591772Y-77921703D01*
X116756184Y-77889000D01*
X116923816Y-77889000D01*
X117088228Y-77921703D01*
G37*
G36*
X114548228Y-77921703D02*
G01*
X114703100Y-77985853D01*
X114842481Y-78078985D01*
X114961015Y-78197519D01*
X115054147Y-78336900D01*
X115118297Y-78491772D01*
X115151000Y-78656184D01*
X115151000Y-78823816D01*
X115118297Y-78988228D01*
X115054147Y-79143100D01*
X114961015Y-79282481D01*
X114842481Y-79401015D01*
X114703100Y-79494147D01*
X114548228Y-79558297D01*
X114383816Y-79591000D01*
X114216184Y-79591000D01*
X114051772Y-79558297D01*
X113896900Y-79494147D01*
X113757519Y-79401015D01*
X113638985Y-79282481D01*
X113545853Y-79143100D01*
X113481703Y-78988228D01*
X113449000Y-78823816D01*
X113449000Y-78656184D01*
X113481703Y-78491772D01*
X113545853Y-78336900D01*
X113638985Y-78197519D01*
X113757519Y-78078985D01*
X113896900Y-77985853D01*
X114051772Y-77921703D01*
X114216184Y-77889000D01*
X114383816Y-77889000D01*
X114548228Y-77921703D01*
G37*
G36*
X132328228Y-75381703D02*
G01*
X132483100Y-75445853D01*
X132622481Y-75538985D01*
X132741015Y-75657519D01*
X132834147Y-75796900D01*
X132898297Y-75951772D01*
X132931000Y-76116184D01*
X132931000Y-76283816D01*
X132898297Y-76448228D01*
X132834147Y-76603100D01*
X132741015Y-76742481D01*
X132622481Y-76861015D01*
X132483100Y-76954147D01*
X132328228Y-77018297D01*
X132163816Y-77051000D01*
X131996184Y-77051000D01*
X131831772Y-77018297D01*
X131676900Y-76954147D01*
X131537519Y-76861015D01*
X131418985Y-76742481D01*
X131325853Y-76603100D01*
X131261703Y-76448228D01*
X131229000Y-76283816D01*
X131229000Y-76116184D01*
X131261703Y-75951772D01*
X131325853Y-75796900D01*
X131418985Y-75657519D01*
X131537519Y-75538985D01*
X131676900Y-75445853D01*
X131831772Y-75381703D01*
X131996184Y-75349000D01*
X132163816Y-75349000D01*
X132328228Y-75381703D01*
G37*
G36*
X129788228Y-75381703D02*
G01*
X129943100Y-75445853D01*
X130082481Y-75538985D01*
X130201015Y-75657519D01*
X130294147Y-75796900D01*
X130358297Y-75951772D01*
X130391000Y-76116184D01*
X130391000Y-76283816D01*
X130358297Y-76448228D01*
X130294147Y-76603100D01*
X130201015Y-76742481D01*
X130082481Y-76861015D01*
X129943100Y-76954147D01*
X129788228Y-77018297D01*
X129623816Y-77051000D01*
X129456184Y-77051000D01*
X129291772Y-77018297D01*
X129136900Y-76954147D01*
X128997519Y-76861015D01*
X128878985Y-76742481D01*
X128785853Y-76603100D01*
X128721703Y-76448228D01*
X128689000Y-76283816D01*
X128689000Y-76116184D01*
X128721703Y-75951772D01*
X128785853Y-75796900D01*
X128878985Y-75657519D01*
X128997519Y-75538985D01*
X129136900Y-75445853D01*
X129291772Y-75381703D01*
X129456184Y-75349000D01*
X129623816Y-75349000D01*
X129788228Y-75381703D01*
G37*
G36*
X117088228Y-75381703D02*
G01*
X117243100Y-75445853D01*
X117382481Y-75538985D01*
X117501015Y-75657519D01*
X117594147Y-75796900D01*
X117658297Y-75951772D01*
X117691000Y-76116184D01*
X117691000Y-76283816D01*
X117658297Y-76448228D01*
X117594147Y-76603100D01*
X117501015Y-76742481D01*
X117382481Y-76861015D01*
X117243100Y-76954147D01*
X117088228Y-77018297D01*
X116923816Y-77051000D01*
X116756184Y-77051000D01*
X116591772Y-77018297D01*
X116436900Y-76954147D01*
X116297519Y-76861015D01*
X116178985Y-76742481D01*
X116085853Y-76603100D01*
X116021703Y-76448228D01*
X115989000Y-76283816D01*
X115989000Y-76116184D01*
X116021703Y-75951772D01*
X116085853Y-75796900D01*
X116178985Y-75657519D01*
X116297519Y-75538985D01*
X116436900Y-75445853D01*
X116591772Y-75381703D01*
X116756184Y-75349000D01*
X116923816Y-75349000D01*
X117088228Y-75381703D01*
G37*
G36*
X114548228Y-75381703D02*
G01*
X114703100Y-75445853D01*
X114842481Y-75538985D01*
X114961015Y-75657519D01*
X115054147Y-75796900D01*
X115118297Y-75951772D01*
X115151000Y-76116184D01*
X115151000Y-76283816D01*
X115118297Y-76448228D01*
X115054147Y-76603100D01*
X114961015Y-76742481D01*
X114842481Y-76861015D01*
X114703100Y-76954147D01*
X114548228Y-77018297D01*
X114383816Y-77051000D01*
X114216184Y-77051000D01*
X114051772Y-77018297D01*
X113896900Y-76954147D01*
X113757519Y-76861015D01*
X113638985Y-76742481D01*
X113545853Y-76603100D01*
X113481703Y-76448228D01*
X113449000Y-76283816D01*
X113449000Y-76116184D01*
X113481703Y-75951772D01*
X113545853Y-75796900D01*
X113638985Y-75657519D01*
X113757519Y-75538985D01*
X113896900Y-75445853D01*
X114051772Y-75381703D01*
X114216184Y-75349000D01*
X114383816Y-75349000D01*
X114548228Y-75381703D01*
G37*
G36*
X127113512Y-72763927D02*
G01*
X127262812Y-72793624D01*
X127426784Y-72861544D01*
X127574354Y-72960147D01*
X127699853Y-73085646D01*
X127798456Y-73233216D01*
X127866376Y-73397188D01*
X127901000Y-73571259D01*
X127901000Y-73748741D01*
X127866376Y-73922812D01*
X127798456Y-74086784D01*
X127699853Y-74234354D01*
X127574354Y-74359853D01*
X127426784Y-74458456D01*
X127262812Y-74526376D01*
X127113512Y-74556073D01*
X127088742Y-74561000D01*
X126911258Y-74561000D01*
X126886488Y-74556073D01*
X126737188Y-74526376D01*
X126573216Y-74458456D01*
X126425646Y-74359853D01*
X126300147Y-74234354D01*
X126201544Y-74086784D01*
X126133624Y-73922812D01*
X126099000Y-73748741D01*
X126099000Y-73571259D01*
X126133624Y-73397188D01*
X126201544Y-73233216D01*
X126300147Y-73085646D01*
X126425646Y-72960147D01*
X126573216Y-72861544D01*
X126737188Y-72793624D01*
X126886488Y-72763927D01*
X126911258Y-72759000D01*
X127088742Y-72759000D01*
X127113512Y-72763927D01*
G37*
G36*
X132328228Y-72841703D02*
G01*
X132483100Y-72905853D01*
X132622481Y-72998985D01*
X132741015Y-73117519D01*
X132834147Y-73256900D01*
X132898297Y-73411772D01*
X132931000Y-73576184D01*
X132931000Y-73743816D01*
X132898297Y-73908228D01*
X132834147Y-74063100D01*
X132741015Y-74202481D01*
X132622481Y-74321015D01*
X132483100Y-74414147D01*
X132328228Y-74478297D01*
X132163816Y-74511000D01*
X131996184Y-74511000D01*
X131831772Y-74478297D01*
X131676900Y-74414147D01*
X131537519Y-74321015D01*
X131418985Y-74202481D01*
X131325853Y-74063100D01*
X131261703Y-73908228D01*
X131229000Y-73743816D01*
X131229000Y-73576184D01*
X131261703Y-73411772D01*
X131325853Y-73256900D01*
X131418985Y-73117519D01*
X131537519Y-72998985D01*
X131676900Y-72905853D01*
X131831772Y-72841703D01*
X131996184Y-72809000D01*
X132163816Y-72809000D01*
X132328228Y-72841703D01*
G37*
G36*
X129788228Y-72841703D02*
G01*
X129943100Y-72905853D01*
X130082481Y-72998985D01*
X130201015Y-73117519D01*
X130294147Y-73256900D01*
X130358297Y-73411772D01*
X130391000Y-73576184D01*
X130391000Y-73743816D01*
X130358297Y-73908228D01*
X130294147Y-74063100D01*
X130201015Y-74202481D01*
X130082481Y-74321015D01*
X129943100Y-74414147D01*
X129788228Y-74478297D01*
X129623816Y-74511000D01*
X129456184Y-74511000D01*
X129291772Y-74478297D01*
X129136900Y-74414147D01*
X128997519Y-74321015D01*
X128878985Y-74202481D01*
X128785853Y-74063100D01*
X128721703Y-73908228D01*
X128689000Y-73743816D01*
X128689000Y-73576184D01*
X128721703Y-73411772D01*
X128785853Y-73256900D01*
X128878985Y-73117519D01*
X128997519Y-72998985D01*
X129136900Y-72905853D01*
X129291772Y-72841703D01*
X129456184Y-72809000D01*
X129623816Y-72809000D01*
X129788228Y-72841703D01*
G37*
G36*
X117088228Y-72841703D02*
G01*
X117243100Y-72905853D01*
X117382481Y-72998985D01*
X117501015Y-73117519D01*
X117594147Y-73256900D01*
X117658297Y-73411772D01*
X117691000Y-73576184D01*
X117691000Y-73743816D01*
X117658297Y-73908228D01*
X117594147Y-74063100D01*
X117501015Y-74202481D01*
X117382481Y-74321015D01*
X117243100Y-74414147D01*
X117088228Y-74478297D01*
X116923816Y-74511000D01*
X116756184Y-74511000D01*
X116591772Y-74478297D01*
X116436900Y-74414147D01*
X116297519Y-74321015D01*
X116178985Y-74202481D01*
X116085853Y-74063100D01*
X116021703Y-73908228D01*
X115989000Y-73743816D01*
X115989000Y-73576184D01*
X116021703Y-73411772D01*
X116085853Y-73256900D01*
X116178985Y-73117519D01*
X116297519Y-72998985D01*
X116436900Y-72905853D01*
X116591772Y-72841703D01*
X116756184Y-72809000D01*
X116923816Y-72809000D01*
X117088228Y-72841703D01*
G37*
G36*
X114548228Y-72841703D02*
G01*
X114703100Y-72905853D01*
X114842481Y-72998985D01*
X114961015Y-73117519D01*
X115054147Y-73256900D01*
X115118297Y-73411772D01*
X115151000Y-73576184D01*
X115151000Y-73743816D01*
X115118297Y-73908228D01*
X115054147Y-74063100D01*
X114961015Y-74202481D01*
X114842481Y-74321015D01*
X114703100Y-74414147D01*
X114548228Y-74478297D01*
X114383816Y-74511000D01*
X114216184Y-74511000D01*
X114051772Y-74478297D01*
X113896900Y-74414147D01*
X113757519Y-74321015D01*
X113638985Y-74202481D01*
X113545853Y-74063100D01*
X113481703Y-73908228D01*
X113449000Y-73743816D01*
X113449000Y-73576184D01*
X113481703Y-73411772D01*
X113545853Y-73256900D01*
X113638985Y-73117519D01*
X113757519Y-72998985D01*
X113896900Y-72905853D01*
X114051772Y-72841703D01*
X114216184Y-72809000D01*
X114383816Y-72809000D01*
X114548228Y-72841703D01*
G37*
G36*
X127113512Y-70223927D02*
G01*
X127262812Y-70253624D01*
X127426784Y-70321544D01*
X127574354Y-70420147D01*
X127699853Y-70545646D01*
X127798456Y-70693216D01*
X127866376Y-70857188D01*
X127901000Y-71031259D01*
X127901000Y-71208741D01*
X127866376Y-71382812D01*
X127798456Y-71546784D01*
X127699853Y-71694354D01*
X127574354Y-71819853D01*
X127426784Y-71918456D01*
X127262812Y-71986376D01*
X127113512Y-72016073D01*
X127088742Y-72021000D01*
X126911258Y-72021000D01*
X126886488Y-72016073D01*
X126737188Y-71986376D01*
X126573216Y-71918456D01*
X126425646Y-71819853D01*
X126300147Y-71694354D01*
X126201544Y-71546784D01*
X126133624Y-71382812D01*
X126099000Y-71208741D01*
X126099000Y-71031259D01*
X126133624Y-70857188D01*
X126201544Y-70693216D01*
X126300147Y-70545646D01*
X126425646Y-70420147D01*
X126573216Y-70321544D01*
X126737188Y-70253624D01*
X126886488Y-70223927D01*
X126911258Y-70219000D01*
X127088742Y-70219000D01*
X127113512Y-70223927D01*
G37*
G36*
X132328228Y-70301703D02*
G01*
X132483100Y-70365853D01*
X132622481Y-70458985D01*
X132741015Y-70577519D01*
X132834147Y-70716900D01*
X132898297Y-70871772D01*
X132931000Y-71036184D01*
X132931000Y-71203816D01*
X132898297Y-71368228D01*
X132834147Y-71523100D01*
X132741015Y-71662481D01*
X132622481Y-71781015D01*
X132483100Y-71874147D01*
X132328228Y-71938297D01*
X132163816Y-71971000D01*
X131996184Y-71971000D01*
X131831772Y-71938297D01*
X131676900Y-71874147D01*
X131537519Y-71781015D01*
X131418985Y-71662481D01*
X131325853Y-71523100D01*
X131261703Y-71368228D01*
X131229000Y-71203816D01*
X131229000Y-71036184D01*
X131261703Y-70871772D01*
X131325853Y-70716900D01*
X131418985Y-70577519D01*
X131537519Y-70458985D01*
X131676900Y-70365853D01*
X131831772Y-70301703D01*
X131996184Y-70269000D01*
X132163816Y-70269000D01*
X132328228Y-70301703D01*
G37*
G36*
X129788228Y-70301703D02*
G01*
X129943100Y-70365853D01*
X130082481Y-70458985D01*
X130201015Y-70577519D01*
X130294147Y-70716900D01*
X130358297Y-70871772D01*
X130391000Y-71036184D01*
X130391000Y-71203816D01*
X130358297Y-71368228D01*
X130294147Y-71523100D01*
X130201015Y-71662481D01*
X130082481Y-71781015D01*
X129943100Y-71874147D01*
X129788228Y-71938297D01*
X129623816Y-71971000D01*
X129456184Y-71971000D01*
X129291772Y-71938297D01*
X129136900Y-71874147D01*
X128997519Y-71781015D01*
X128878985Y-71662481D01*
X128785853Y-71523100D01*
X128721703Y-71368228D01*
X128689000Y-71203816D01*
X128689000Y-71036184D01*
X128721703Y-70871772D01*
X128785853Y-70716900D01*
X128878985Y-70577519D01*
X128997519Y-70458985D01*
X129136900Y-70365853D01*
X129291772Y-70301703D01*
X129456184Y-70269000D01*
X129623816Y-70269000D01*
X129788228Y-70301703D01*
G37*
G36*
X117088228Y-70301703D02*
G01*
X117243100Y-70365853D01*
X117382481Y-70458985D01*
X117501015Y-70577519D01*
X117594147Y-70716900D01*
X117658297Y-70871772D01*
X117691000Y-71036184D01*
X117691000Y-71203816D01*
X117658297Y-71368228D01*
X117594147Y-71523100D01*
X117501015Y-71662481D01*
X117382481Y-71781015D01*
X117243100Y-71874147D01*
X117088228Y-71938297D01*
X116923816Y-71971000D01*
X116756184Y-71971000D01*
X116591772Y-71938297D01*
X116436900Y-71874147D01*
X116297519Y-71781015D01*
X116178985Y-71662481D01*
X116085853Y-71523100D01*
X116021703Y-71368228D01*
X115989000Y-71203816D01*
X115989000Y-71036184D01*
X116021703Y-70871772D01*
X116085853Y-70716900D01*
X116178985Y-70577519D01*
X116297519Y-70458985D01*
X116436900Y-70365853D01*
X116591772Y-70301703D01*
X116756184Y-70269000D01*
X116923816Y-70269000D01*
X117088228Y-70301703D01*
G37*
G36*
X114548228Y-70301703D02*
G01*
X114703100Y-70365853D01*
X114842481Y-70458985D01*
X114961015Y-70577519D01*
X115054147Y-70716900D01*
X115118297Y-70871772D01*
X115151000Y-71036184D01*
X115151000Y-71203816D01*
X115118297Y-71368228D01*
X115054147Y-71523100D01*
X114961015Y-71662481D01*
X114842481Y-71781015D01*
X114703100Y-71874147D01*
X114548228Y-71938297D01*
X114383816Y-71971000D01*
X114216184Y-71971000D01*
X114051772Y-71938297D01*
X113896900Y-71874147D01*
X113757519Y-71781015D01*
X113638985Y-71662481D01*
X113545853Y-71523100D01*
X113481703Y-71368228D01*
X113449000Y-71203816D01*
X113449000Y-71036184D01*
X113481703Y-70871772D01*
X113545853Y-70716900D01*
X113638985Y-70577519D01*
X113757519Y-70458985D01*
X113896900Y-70365853D01*
X114051772Y-70301703D01*
X114216184Y-70269000D01*
X114383816Y-70269000D01*
X114548228Y-70301703D01*
G37*
G36*
X117088228Y-67761703D02*
G01*
X117243100Y-67825853D01*
X117382481Y-67918985D01*
X117501015Y-68037519D01*
X117594147Y-68176900D01*
X117658297Y-68331772D01*
X117691000Y-68496184D01*
X117691000Y-68663816D01*
X117658297Y-68828228D01*
X117594147Y-68983100D01*
X117501015Y-69122481D01*
X117382481Y-69241015D01*
X117243100Y-69334147D01*
X117088228Y-69398297D01*
X116923816Y-69431000D01*
X116756184Y-69431000D01*
X116591772Y-69398297D01*
X116436900Y-69334147D01*
X116297519Y-69241015D01*
X116178985Y-69122481D01*
X116085853Y-68983100D01*
X116021703Y-68828228D01*
X115989000Y-68663816D01*
X115989000Y-68496184D01*
X116021703Y-68331772D01*
X116085853Y-68176900D01*
X116178985Y-68037519D01*
X116297519Y-67918985D01*
X116436900Y-67825853D01*
X116591772Y-67761703D01*
X116756184Y-67729000D01*
X116923816Y-67729000D01*
X117088228Y-67761703D01*
G37*
G36*
X129788228Y-67761703D02*
G01*
X129943100Y-67825853D01*
X130082481Y-67918985D01*
X130201015Y-68037519D01*
X130294147Y-68176900D01*
X130358297Y-68331772D01*
X130391000Y-68496184D01*
X130391000Y-68663816D01*
X130358297Y-68828228D01*
X130294147Y-68983100D01*
X130201015Y-69122481D01*
X130082481Y-69241015D01*
X129943100Y-69334147D01*
X129788228Y-69398297D01*
X129623816Y-69431000D01*
X129456184Y-69431000D01*
X129291772Y-69398297D01*
X129136900Y-69334147D01*
X128997519Y-69241015D01*
X128878985Y-69122481D01*
X128785853Y-68983100D01*
X128721703Y-68828228D01*
X128689000Y-68663816D01*
X128689000Y-68496184D01*
X128721703Y-68331772D01*
X128785853Y-68176900D01*
X128878985Y-68037519D01*
X128997519Y-67918985D01*
X129136900Y-67825853D01*
X129291772Y-67761703D01*
X129456184Y-67729000D01*
X129623816Y-67729000D01*
X129788228Y-67761703D01*
G37*
G36*
X114548228Y-67761703D02*
G01*
X114703100Y-67825853D01*
X114842481Y-67918985D01*
X114961015Y-68037519D01*
X115054147Y-68176900D01*
X115118297Y-68331772D01*
X115151000Y-68496184D01*
X115151000Y-68663816D01*
X115118297Y-68828228D01*
X115054147Y-68983100D01*
X114961015Y-69122481D01*
X114842481Y-69241015D01*
X114703100Y-69334147D01*
X114548228Y-69398297D01*
X114383816Y-69431000D01*
X114216184Y-69431000D01*
X114051772Y-69398297D01*
X113896900Y-69334147D01*
X113757519Y-69241015D01*
X113638985Y-69122481D01*
X113545853Y-68983100D01*
X113481703Y-68828228D01*
X113449000Y-68663816D01*
X113449000Y-68496184D01*
X113481703Y-68331772D01*
X113545853Y-68176900D01*
X113638985Y-68037519D01*
X113757519Y-67918985D01*
X113896900Y-67825853D01*
X114051772Y-67761703D01*
X114216184Y-67729000D01*
X114383816Y-67729000D01*
X114548228Y-67761703D01*
G37*
G36*
X132328228Y-67761703D02*
G01*
X132483100Y-67825853D01*
X132622481Y-67918985D01*
X132741015Y-68037519D01*
X132834147Y-68176900D01*
X132898297Y-68331772D01*
X132931000Y-68496184D01*
X132931000Y-68663816D01*
X132898297Y-68828228D01*
X132834147Y-68983100D01*
X132741015Y-69122481D01*
X132622481Y-69241015D01*
X132483100Y-69334147D01*
X132328228Y-69398297D01*
X132163816Y-69431000D01*
X131996184Y-69431000D01*
X131831772Y-69398297D01*
X131676900Y-69334147D01*
X131537519Y-69241015D01*
X131418985Y-69122481D01*
X131325853Y-68983100D01*
X131261703Y-68828228D01*
X131229000Y-68663816D01*
X131229000Y-68496184D01*
X131261703Y-68331772D01*
X131325853Y-68176900D01*
X131418985Y-68037519D01*
X131537519Y-67918985D01*
X131676900Y-67825853D01*
X131831772Y-67761703D01*
X131996184Y-67729000D01*
X132163816Y-67729000D01*
X132328228Y-67761703D01*
G37*
G36*
X129788228Y-65221703D02*
G01*
X129943100Y-65285853D01*
X130082481Y-65378985D01*
X130201015Y-65497519D01*
X130294147Y-65636900D01*
X130358297Y-65791772D01*
X130391000Y-65956184D01*
X130391000Y-66123816D01*
X130358297Y-66288228D01*
X130294147Y-66443100D01*
X130201015Y-66582481D01*
X130082481Y-66701015D01*
X129943100Y-66794147D01*
X129788228Y-66858297D01*
X129623816Y-66891000D01*
X129456184Y-66891000D01*
X129291772Y-66858297D01*
X129136900Y-66794147D01*
X128997519Y-66701015D01*
X128878985Y-66582481D01*
X128785853Y-66443100D01*
X128721703Y-66288228D01*
X128689000Y-66123816D01*
X128689000Y-65956184D01*
X128721703Y-65791772D01*
X128785853Y-65636900D01*
X128878985Y-65497519D01*
X128997519Y-65378985D01*
X129136900Y-65285853D01*
X129291772Y-65221703D01*
X129456184Y-65189000D01*
X129623816Y-65189000D01*
X129788228Y-65221703D01*
G37*
G36*
X114548228Y-65221703D02*
G01*
X114703100Y-65285853D01*
X114842481Y-65378985D01*
X114961015Y-65497519D01*
X115054147Y-65636900D01*
X115118297Y-65791772D01*
X115151000Y-65956184D01*
X115151000Y-66123816D01*
X115118297Y-66288228D01*
X115054147Y-66443100D01*
X114961015Y-66582481D01*
X114842481Y-66701015D01*
X114703100Y-66794147D01*
X114548228Y-66858297D01*
X114383816Y-66891000D01*
X114216184Y-66891000D01*
X114051772Y-66858297D01*
X113896900Y-66794147D01*
X113757519Y-66701015D01*
X113638985Y-66582481D01*
X113545853Y-66443100D01*
X113481703Y-66288228D01*
X113449000Y-66123816D01*
X113449000Y-65956184D01*
X113481703Y-65791772D01*
X113545853Y-65636900D01*
X113638985Y-65497519D01*
X113757519Y-65378985D01*
X113896900Y-65285853D01*
X114051772Y-65221703D01*
X114216184Y-65189000D01*
X114383816Y-65189000D01*
X114548228Y-65221703D01*
G37*
G36*
X132328228Y-65221703D02*
G01*
X132483100Y-65285853D01*
X132622481Y-65378985D01*
X132741015Y-65497519D01*
X132834147Y-65636900D01*
X132898297Y-65791772D01*
X132931000Y-65956184D01*
X132931000Y-66123816D01*
X132898297Y-66288228D01*
X132834147Y-66443100D01*
X132741015Y-66582481D01*
X132622481Y-66701015D01*
X132483100Y-66794147D01*
X132328228Y-66858297D01*
X132163816Y-66891000D01*
X131996184Y-66891000D01*
X131831772Y-66858297D01*
X131676900Y-66794147D01*
X131537519Y-66701015D01*
X131418985Y-66582481D01*
X131325853Y-66443100D01*
X131261703Y-66288228D01*
X131229000Y-66123816D01*
X131229000Y-65956184D01*
X131261703Y-65791772D01*
X131325853Y-65636900D01*
X131418985Y-65497519D01*
X131537519Y-65378985D01*
X131676900Y-65285853D01*
X131831772Y-65221703D01*
X131996184Y-65189000D01*
X132163816Y-65189000D01*
X132328228Y-65221703D01*
G37*
G36*
X117088228Y-65221703D02*
G01*
X117243100Y-65285853D01*
X117382481Y-65378985D01*
X117501015Y-65497519D01*
X117594147Y-65636900D01*
X117658297Y-65791772D01*
X117691000Y-65956184D01*
X117691000Y-66123816D01*
X117658297Y-66288228D01*
X117594147Y-66443100D01*
X117501015Y-66582481D01*
X117382481Y-66701015D01*
X117243100Y-66794147D01*
X117088228Y-66858297D01*
X116923816Y-66891000D01*
X116756184Y-66891000D01*
X116591772Y-66858297D01*
X116436900Y-66794147D01*
X116297519Y-66701015D01*
X116178985Y-66582481D01*
X116085853Y-66443100D01*
X116021703Y-66288228D01*
X115989000Y-66123816D01*
X115989000Y-65956184D01*
X116021703Y-65791772D01*
X116085853Y-65636900D01*
X116178985Y-65497519D01*
X116297519Y-65378985D01*
X116436900Y-65285853D01*
X116591772Y-65221703D01*
X116756184Y-65189000D01*
X116923816Y-65189000D01*
X117088228Y-65221703D01*
G37*
G36*
X129788228Y-62681703D02*
G01*
X129943100Y-62745853D01*
X130082481Y-62838985D01*
X130201015Y-62957519D01*
X130294147Y-63096900D01*
X130358297Y-63251772D01*
X130391000Y-63416184D01*
X130391000Y-63583816D01*
X130358297Y-63748228D01*
X130294147Y-63903100D01*
X130201015Y-64042481D01*
X130082481Y-64161015D01*
X129943100Y-64254147D01*
X129788228Y-64318297D01*
X129623816Y-64351000D01*
X129456184Y-64351000D01*
X129291772Y-64318297D01*
X129136900Y-64254147D01*
X128997519Y-64161015D01*
X128878985Y-64042481D01*
X128785853Y-63903100D01*
X128721703Y-63748228D01*
X128689000Y-63583816D01*
X128689000Y-63416184D01*
X128721703Y-63251772D01*
X128785853Y-63096900D01*
X128878985Y-62957519D01*
X128997519Y-62838985D01*
X129136900Y-62745853D01*
X129291772Y-62681703D01*
X129456184Y-62649000D01*
X129623816Y-62649000D01*
X129788228Y-62681703D01*
G37*
G36*
X132328228Y-62681703D02*
G01*
X132483100Y-62745853D01*
X132622481Y-62838985D01*
X132741015Y-62957519D01*
X132834147Y-63096900D01*
X132898297Y-63251772D01*
X132931000Y-63416184D01*
X132931000Y-63583816D01*
X132898297Y-63748228D01*
X132834147Y-63903100D01*
X132741015Y-64042481D01*
X132622481Y-64161015D01*
X132483100Y-64254147D01*
X132328228Y-64318297D01*
X132163816Y-64351000D01*
X131996184Y-64351000D01*
X131831772Y-64318297D01*
X131676900Y-64254147D01*
X131537519Y-64161015D01*
X131418985Y-64042481D01*
X131325853Y-63903100D01*
X131261703Y-63748228D01*
X131229000Y-63583816D01*
X131229000Y-63416184D01*
X131261703Y-63251772D01*
X131325853Y-63096900D01*
X131418985Y-62957519D01*
X131537519Y-62838985D01*
X131676900Y-62745853D01*
X131831772Y-62681703D01*
X131996184Y-62649000D01*
X132163816Y-62649000D01*
X132328228Y-62681703D01*
G37*
G36*
X117088228Y-62681703D02*
G01*
X117243100Y-62745853D01*
X117382481Y-62838985D01*
X117501015Y-62957519D01*
X117594147Y-63096900D01*
X117658297Y-63251772D01*
X117691000Y-63416184D01*
X117691000Y-63583816D01*
X117658297Y-63748228D01*
X117594147Y-63903100D01*
X117501015Y-64042481D01*
X117382481Y-64161015D01*
X117243100Y-64254147D01*
X117088228Y-64318297D01*
X116923816Y-64351000D01*
X116756184Y-64351000D01*
X116591772Y-64318297D01*
X116436900Y-64254147D01*
X116297519Y-64161015D01*
X116178985Y-64042481D01*
X116085853Y-63903100D01*
X116021703Y-63748228D01*
X115989000Y-63583816D01*
X115989000Y-63416184D01*
X116021703Y-63251772D01*
X116085853Y-63096900D01*
X116178985Y-62957519D01*
X116297519Y-62838985D01*
X116436900Y-62745853D01*
X116591772Y-62681703D01*
X116756184Y-62649000D01*
X116923816Y-62649000D01*
X117088228Y-62681703D01*
G37*
G36*
X114548228Y-62681703D02*
G01*
X114703100Y-62745853D01*
X114842481Y-62838985D01*
X114961015Y-62957519D01*
X115054147Y-63096900D01*
X115118297Y-63251772D01*
X115151000Y-63416184D01*
X115151000Y-63583816D01*
X115118297Y-63748228D01*
X115054147Y-63903100D01*
X114961015Y-64042481D01*
X114842481Y-64161015D01*
X114703100Y-64254147D01*
X114548228Y-64318297D01*
X114383816Y-64351000D01*
X114216184Y-64351000D01*
X114051772Y-64318297D01*
X113896900Y-64254147D01*
X113757519Y-64161015D01*
X113638985Y-64042481D01*
X113545853Y-63903100D01*
X113481703Y-63748228D01*
X113449000Y-63583816D01*
X113449000Y-63416184D01*
X113481703Y-63251772D01*
X113545853Y-63096900D01*
X113638985Y-62957519D01*
X113757519Y-62838985D01*
X113896900Y-62745853D01*
X114051772Y-62681703D01*
X114216184Y-62649000D01*
X114383816Y-62649000D01*
X114548228Y-62681703D01*
G37*
G36*
X124573512Y-60063927D02*
G01*
X124722812Y-60093624D01*
X124886784Y-60161544D01*
X125034354Y-60260147D01*
X125159853Y-60385646D01*
X125258456Y-60533216D01*
X125326376Y-60697188D01*
X125361000Y-60871259D01*
X125361000Y-61048741D01*
X125326376Y-61222812D01*
X125258456Y-61386784D01*
X125159853Y-61534354D01*
X125034354Y-61659853D01*
X124886784Y-61758456D01*
X124722812Y-61826376D01*
X124573512Y-61856073D01*
X124548742Y-61861000D01*
X124371258Y-61861000D01*
X124346488Y-61856073D01*
X124197188Y-61826376D01*
X124033216Y-61758456D01*
X123885646Y-61659853D01*
X123760147Y-61534354D01*
X123661544Y-61386784D01*
X123593624Y-61222812D01*
X123559000Y-61048741D01*
X123559000Y-60871259D01*
X123593624Y-60697188D01*
X123661544Y-60533216D01*
X123760147Y-60385646D01*
X123885646Y-60260147D01*
X124033216Y-60161544D01*
X124197188Y-60093624D01*
X124346488Y-60063927D01*
X124371258Y-60059000D01*
X124548742Y-60059000D01*
X124573512Y-60063927D01*
G37*
G36*
X122033512Y-60063927D02*
G01*
X122182812Y-60093624D01*
X122346784Y-60161544D01*
X122494354Y-60260147D01*
X122619853Y-60385646D01*
X122718456Y-60533216D01*
X122786376Y-60697188D01*
X122821000Y-60871259D01*
X122821000Y-61048741D01*
X122786376Y-61222812D01*
X122718456Y-61386784D01*
X122619853Y-61534354D01*
X122494354Y-61659853D01*
X122346784Y-61758456D01*
X122182812Y-61826376D01*
X122033512Y-61856073D01*
X122008742Y-61861000D01*
X121831258Y-61861000D01*
X121806488Y-61856073D01*
X121657188Y-61826376D01*
X121493216Y-61758456D01*
X121345646Y-61659853D01*
X121220147Y-61534354D01*
X121121544Y-61386784D01*
X121053624Y-61222812D01*
X121019000Y-61048741D01*
X121019000Y-60871259D01*
X121053624Y-60697188D01*
X121121544Y-60533216D01*
X121220147Y-60385646D01*
X121345646Y-60260147D01*
X121493216Y-60161544D01*
X121657188Y-60093624D01*
X121806488Y-60063927D01*
X121831258Y-60059000D01*
X122008742Y-60059000D01*
X122033512Y-60063927D01*
G37*
G36*
X119493512Y-60063927D02*
G01*
X119642812Y-60093624D01*
X119806784Y-60161544D01*
X119954354Y-60260147D01*
X120079853Y-60385646D01*
X120178456Y-60533216D01*
X120246376Y-60697188D01*
X120281000Y-60871259D01*
X120281000Y-61048741D01*
X120246376Y-61222812D01*
X120178456Y-61386784D01*
X120079853Y-61534354D01*
X119954354Y-61659853D01*
X119806784Y-61758456D01*
X119642812Y-61826376D01*
X119493512Y-61856073D01*
X119468742Y-61861000D01*
X119291258Y-61861000D01*
X119266488Y-61856073D01*
X119117188Y-61826376D01*
X118953216Y-61758456D01*
X118805646Y-61659853D01*
X118680147Y-61534354D01*
X118581544Y-61386784D01*
X118513624Y-61222812D01*
X118479000Y-61048741D01*
X118479000Y-60871259D01*
X118513624Y-60697188D01*
X118581544Y-60533216D01*
X118680147Y-60385646D01*
X118805646Y-60260147D01*
X118953216Y-60161544D01*
X119117188Y-60093624D01*
X119266488Y-60063927D01*
X119291258Y-60059000D01*
X119468742Y-60059000D01*
X119493512Y-60063927D01*
G37*
G36*
X129788228Y-60141703D02*
G01*
X129943100Y-60205853D01*
X130082481Y-60298985D01*
X130201015Y-60417519D01*
X130294147Y-60556900D01*
X130358297Y-60711772D01*
X130391000Y-60876184D01*
X130391000Y-61043816D01*
X130358297Y-61208228D01*
X130294147Y-61363100D01*
X130201015Y-61502481D01*
X130082481Y-61621015D01*
X129943100Y-61714147D01*
X129788228Y-61778297D01*
X129623816Y-61811000D01*
X129456184Y-61811000D01*
X129291772Y-61778297D01*
X129136900Y-61714147D01*
X128997519Y-61621015D01*
X128878985Y-61502481D01*
X128785853Y-61363100D01*
X128721703Y-61208228D01*
X128689000Y-61043816D01*
X128689000Y-60876184D01*
X128721703Y-60711772D01*
X128785853Y-60556900D01*
X128878985Y-60417519D01*
X128997519Y-60298985D01*
X129136900Y-60205853D01*
X129291772Y-60141703D01*
X129456184Y-60109000D01*
X129623816Y-60109000D01*
X129788228Y-60141703D01*
G37*
G36*
X114548228Y-60141703D02*
G01*
X114703100Y-60205853D01*
X114842481Y-60298985D01*
X114961015Y-60417519D01*
X115054147Y-60556900D01*
X115118297Y-60711772D01*
X115151000Y-60876184D01*
X115151000Y-61043816D01*
X115118297Y-61208228D01*
X115054147Y-61363100D01*
X114961015Y-61502481D01*
X114842481Y-61621015D01*
X114703100Y-61714147D01*
X114548228Y-61778297D01*
X114383816Y-61811000D01*
X114216184Y-61811000D01*
X114051772Y-61778297D01*
X113896900Y-61714147D01*
X113757519Y-61621015D01*
X113638985Y-61502481D01*
X113545853Y-61363100D01*
X113481703Y-61208228D01*
X113449000Y-61043816D01*
X113449000Y-60876184D01*
X113481703Y-60711772D01*
X113545853Y-60556900D01*
X113638985Y-60417519D01*
X113757519Y-60298985D01*
X113896900Y-60205853D01*
X114051772Y-60141703D01*
X114216184Y-60109000D01*
X114383816Y-60109000D01*
X114548228Y-60141703D01*
G37*
G36*
X117088228Y-60141703D02*
G01*
X117243100Y-60205853D01*
X117382481Y-60298985D01*
X117501015Y-60417519D01*
X117594147Y-60556900D01*
X117658297Y-60711772D01*
X117691000Y-60876184D01*
X117691000Y-61043816D01*
X117658297Y-61208228D01*
X117594147Y-61363100D01*
X117501015Y-61502481D01*
X117382481Y-61621015D01*
X117243100Y-61714147D01*
X117088228Y-61778297D01*
X116923816Y-61811000D01*
X116756184Y-61811000D01*
X116591772Y-61778297D01*
X116436900Y-61714147D01*
X116297519Y-61621015D01*
X116178985Y-61502481D01*
X116085853Y-61363100D01*
X116021703Y-61208228D01*
X115989000Y-61043816D01*
X115989000Y-60876184D01*
X116021703Y-60711772D01*
X116085853Y-60556900D01*
X116178985Y-60417519D01*
X116297519Y-60298985D01*
X116436900Y-60205853D01*
X116591772Y-60141703D01*
X116756184Y-60109000D01*
X116923816Y-60109000D01*
X117088228Y-60141703D01*
G37*
G36*
X132328228Y-60141703D02*
G01*
X132483100Y-60205853D01*
X132622481Y-60298985D01*
X132741015Y-60417519D01*
X132834147Y-60556900D01*
X132898297Y-60711772D01*
X132931000Y-60876184D01*
X132931000Y-61043816D01*
X132898297Y-61208228D01*
X132834147Y-61363100D01*
X132741015Y-61502481D01*
X132622481Y-61621015D01*
X132483100Y-61714147D01*
X132328228Y-61778297D01*
X132163816Y-61811000D01*
X131996184Y-61811000D01*
X131831772Y-61778297D01*
X131676900Y-61714147D01*
X131537519Y-61621015D01*
X131418985Y-61502481D01*
X131325853Y-61363100D01*
X131261703Y-61208228D01*
X131229000Y-61043816D01*
X131229000Y-60876184D01*
X131261703Y-60711772D01*
X131325853Y-60556900D01*
X131418985Y-60417519D01*
X131537519Y-60298985D01*
X131676900Y-60205853D01*
X131831772Y-60141703D01*
X131996184Y-60109000D01*
X132163816Y-60109000D01*
X132328228Y-60141703D01*
G37*
G36*
X124573512Y-57523927D02*
G01*
X124722812Y-57553624D01*
X124886784Y-57621544D01*
X125034354Y-57720147D01*
X125159853Y-57845646D01*
X125258456Y-57993216D01*
X125326376Y-58157188D01*
X125361000Y-58331259D01*
X125361000Y-58508741D01*
X125326376Y-58682812D01*
X125258456Y-58846784D01*
X125159853Y-58994354D01*
X125034354Y-59119853D01*
X124886784Y-59218456D01*
X124722812Y-59286376D01*
X124573512Y-59316073D01*
X124548742Y-59321000D01*
X124371258Y-59321000D01*
X124346488Y-59316073D01*
X124197188Y-59286376D01*
X124033216Y-59218456D01*
X123885646Y-59119853D01*
X123760147Y-58994354D01*
X123661544Y-58846784D01*
X123593624Y-58682812D01*
X123559000Y-58508741D01*
X123559000Y-58331259D01*
X123593624Y-58157188D01*
X123661544Y-57993216D01*
X123760147Y-57845646D01*
X123885646Y-57720147D01*
X124033216Y-57621544D01*
X124197188Y-57553624D01*
X124346488Y-57523927D01*
X124371258Y-57519000D01*
X124548742Y-57519000D01*
X124573512Y-57523927D01*
G37*
G36*
X119493512Y-57523927D02*
G01*
X119642812Y-57553624D01*
X119806784Y-57621544D01*
X119954354Y-57720147D01*
X120079853Y-57845646D01*
X120178456Y-57993216D01*
X120246376Y-58157188D01*
X120281000Y-58331259D01*
X120281000Y-58508741D01*
X120246376Y-58682812D01*
X120178456Y-58846784D01*
X120079853Y-58994354D01*
X119954354Y-59119853D01*
X119806784Y-59218456D01*
X119642812Y-59286376D01*
X119493512Y-59316073D01*
X119468742Y-59321000D01*
X119291258Y-59321000D01*
X119266488Y-59316073D01*
X119117188Y-59286376D01*
X118953216Y-59218456D01*
X118805646Y-59119853D01*
X118680147Y-58994354D01*
X118581544Y-58846784D01*
X118513624Y-58682812D01*
X118479000Y-58508741D01*
X118479000Y-58331259D01*
X118513624Y-58157188D01*
X118581544Y-57993216D01*
X118680147Y-57845646D01*
X118805646Y-57720147D01*
X118953216Y-57621544D01*
X119117188Y-57553624D01*
X119266488Y-57523927D01*
X119291258Y-57519000D01*
X119468742Y-57519000D01*
X119493512Y-57523927D01*
G37*
G36*
X122033512Y-57523927D02*
G01*
X122182812Y-57553624D01*
X122346784Y-57621544D01*
X122494354Y-57720147D01*
X122619853Y-57845646D01*
X122718456Y-57993216D01*
X122786376Y-58157188D01*
X122821000Y-58331259D01*
X122821000Y-58508741D01*
X122786376Y-58682812D01*
X122718456Y-58846784D01*
X122619853Y-58994354D01*
X122494354Y-59119853D01*
X122346784Y-59218456D01*
X122182812Y-59286376D01*
X122033512Y-59316073D01*
X122008742Y-59321000D01*
X121831258Y-59321000D01*
X121806488Y-59316073D01*
X121657188Y-59286376D01*
X121493216Y-59218456D01*
X121345646Y-59119853D01*
X121220147Y-58994354D01*
X121121544Y-58846784D01*
X121053624Y-58682812D01*
X121019000Y-58508741D01*
X121019000Y-58331259D01*
X121053624Y-58157188D01*
X121121544Y-57993216D01*
X121220147Y-57845646D01*
X121345646Y-57720147D01*
X121493216Y-57621544D01*
X121657188Y-57553624D01*
X121806488Y-57523927D01*
X121831258Y-57519000D01*
X122008742Y-57519000D01*
X122033512Y-57523927D01*
G37*
G36*
X132328228Y-57601703D02*
G01*
X132483100Y-57665853D01*
X132622481Y-57758985D01*
X132741015Y-57877519D01*
X132834147Y-58016900D01*
X132898297Y-58171772D01*
X132931000Y-58336184D01*
X132931000Y-58503816D01*
X132898297Y-58668228D01*
X132834147Y-58823100D01*
X132741015Y-58962481D01*
X132622481Y-59081015D01*
X132483100Y-59174147D01*
X132328228Y-59238297D01*
X132163816Y-59271000D01*
X131996184Y-59271000D01*
X131831772Y-59238297D01*
X131676900Y-59174147D01*
X131537519Y-59081015D01*
X131418985Y-58962481D01*
X131325853Y-58823100D01*
X131261703Y-58668228D01*
X131229000Y-58503816D01*
X131229000Y-58336184D01*
X131261703Y-58171772D01*
X131325853Y-58016900D01*
X131418985Y-57877519D01*
X131537519Y-57758985D01*
X131676900Y-57665853D01*
X131831772Y-57601703D01*
X131996184Y-57569000D01*
X132163816Y-57569000D01*
X132328228Y-57601703D01*
G37*
G36*
X117088228Y-57601703D02*
G01*
X117243100Y-57665853D01*
X117382481Y-57758985D01*
X117501015Y-57877519D01*
X117594147Y-58016900D01*
X117658297Y-58171772D01*
X117691000Y-58336184D01*
X117691000Y-58503816D01*
X117658297Y-58668228D01*
X117594147Y-58823100D01*
X117501015Y-58962481D01*
X117382481Y-59081015D01*
X117243100Y-59174147D01*
X117088228Y-59238297D01*
X116923816Y-59271000D01*
X116756184Y-59271000D01*
X116591772Y-59238297D01*
X116436900Y-59174147D01*
X116297519Y-59081015D01*
X116178985Y-58962481D01*
X116085853Y-58823100D01*
X116021703Y-58668228D01*
X115989000Y-58503816D01*
X115989000Y-58336184D01*
X116021703Y-58171772D01*
X116085853Y-58016900D01*
X116178985Y-57877519D01*
X116297519Y-57758985D01*
X116436900Y-57665853D01*
X116591772Y-57601703D01*
X116756184Y-57569000D01*
X116923816Y-57569000D01*
X117088228Y-57601703D01*
G37*
G36*
X114548228Y-57601703D02*
G01*
X114703100Y-57665853D01*
X114842481Y-57758985D01*
X114961015Y-57877519D01*
X115054147Y-58016900D01*
X115118297Y-58171772D01*
X115151000Y-58336184D01*
X115151000Y-58503816D01*
X115118297Y-58668228D01*
X115054147Y-58823100D01*
X114961015Y-58962481D01*
X114842481Y-59081015D01*
X114703100Y-59174147D01*
X114548228Y-59238297D01*
X114383816Y-59271000D01*
X114216184Y-59271000D01*
X114051772Y-59238297D01*
X113896900Y-59174147D01*
X113757519Y-59081015D01*
X113638985Y-58962481D01*
X113545853Y-58823100D01*
X113481703Y-58668228D01*
X113449000Y-58503816D01*
X113449000Y-58336184D01*
X113481703Y-58171772D01*
X113545853Y-58016900D01*
X113638985Y-57877519D01*
X113757519Y-57758985D01*
X113896900Y-57665853D01*
X114051772Y-57601703D01*
X114216184Y-57569000D01*
X114383816Y-57569000D01*
X114548228Y-57601703D01*
G37*
G36*
X129788228Y-57601703D02*
G01*
X129943100Y-57665853D01*
X130082481Y-57758985D01*
X130201015Y-57877519D01*
X130294147Y-58016900D01*
X130358297Y-58171772D01*
X130391000Y-58336184D01*
X130391000Y-58503816D01*
X130358297Y-58668228D01*
X130294147Y-58823100D01*
X130201015Y-58962481D01*
X130082481Y-59081015D01*
X129943100Y-59174147D01*
X129788228Y-59238297D01*
X129623816Y-59271000D01*
X129456184Y-59271000D01*
X129291772Y-59238297D01*
X129136900Y-59174147D01*
X128997519Y-59081015D01*
X128878985Y-58962481D01*
X128785853Y-58823100D01*
X128721703Y-58668228D01*
X128689000Y-58503816D01*
X128689000Y-58336184D01*
X128721703Y-58171772D01*
X128785853Y-58016900D01*
X128878985Y-57877519D01*
X128997519Y-57758985D01*
X129136900Y-57665853D01*
X129291772Y-57601703D01*
X129456184Y-57569000D01*
X129623816Y-57569000D01*
X129788228Y-57601703D01*
G37*
G36*
X132328228Y-55061703D02*
G01*
X132483100Y-55125853D01*
X132622481Y-55218985D01*
X132741015Y-55337519D01*
X132834147Y-55476900D01*
X132898297Y-55631772D01*
X132931000Y-55796184D01*
X132931000Y-55963816D01*
X132898297Y-56128228D01*
X132834147Y-56283100D01*
X132741015Y-56422481D01*
X132622481Y-56541015D01*
X132483100Y-56634147D01*
X132328228Y-56698297D01*
X132163816Y-56731000D01*
X131996184Y-56731000D01*
X131831772Y-56698297D01*
X131676900Y-56634147D01*
X131537519Y-56541015D01*
X131418985Y-56422481D01*
X131325853Y-56283100D01*
X131261703Y-56128228D01*
X131229000Y-55963816D01*
X131229000Y-55796184D01*
X131261703Y-55631772D01*
X131325853Y-55476900D01*
X131418985Y-55337519D01*
X131537519Y-55218985D01*
X131676900Y-55125853D01*
X131831772Y-55061703D01*
X131996184Y-55029000D01*
X132163816Y-55029000D01*
X132328228Y-55061703D01*
G37*
G36*
X114548228Y-55061703D02*
G01*
X114703100Y-55125853D01*
X114842481Y-55218985D01*
X114961015Y-55337519D01*
X115054147Y-55476900D01*
X115118297Y-55631772D01*
X115151000Y-55796184D01*
X115151000Y-55963816D01*
X115118297Y-56128228D01*
X115054147Y-56283100D01*
X114961015Y-56422481D01*
X114842481Y-56541015D01*
X114703100Y-56634147D01*
X114548228Y-56698297D01*
X114383816Y-56731000D01*
X114216184Y-56731000D01*
X114051772Y-56698297D01*
X113896900Y-56634147D01*
X113757519Y-56541015D01*
X113638985Y-56422481D01*
X113545853Y-56283100D01*
X113481703Y-56128228D01*
X113449000Y-55963816D01*
X113449000Y-55796184D01*
X113481703Y-55631772D01*
X113545853Y-55476900D01*
X113638985Y-55337519D01*
X113757519Y-55218985D01*
X113896900Y-55125853D01*
X114051772Y-55061703D01*
X114216184Y-55029000D01*
X114383816Y-55029000D01*
X114548228Y-55061703D01*
G37*
G36*
X117088228Y-55061703D02*
G01*
X117243100Y-55125853D01*
X117382481Y-55218985D01*
X117501015Y-55337519D01*
X117594147Y-55476900D01*
X117658297Y-55631772D01*
X117691000Y-55796184D01*
X117691000Y-55963816D01*
X117658297Y-56128228D01*
X117594147Y-56283100D01*
X117501015Y-56422481D01*
X117382481Y-56541015D01*
X117243100Y-56634147D01*
X117088228Y-56698297D01*
X116923816Y-56731000D01*
X116756184Y-56731000D01*
X116591772Y-56698297D01*
X116436900Y-56634147D01*
X116297519Y-56541015D01*
X116178985Y-56422481D01*
X116085853Y-56283100D01*
X116021703Y-56128228D01*
X115989000Y-55963816D01*
X115989000Y-55796184D01*
X116021703Y-55631772D01*
X116085853Y-55476900D01*
X116178985Y-55337519D01*
X116297519Y-55218985D01*
X116436900Y-55125853D01*
X116591772Y-55061703D01*
X116756184Y-55029000D01*
X116923816Y-55029000D01*
X117088228Y-55061703D01*
G37*
G36*
X129788228Y-55061703D02*
G01*
X129943100Y-55125853D01*
X130082481Y-55218985D01*
X130201015Y-55337519D01*
X130294147Y-55476900D01*
X130358297Y-55631772D01*
X130391000Y-55796184D01*
X130391000Y-55963816D01*
X130358297Y-56128228D01*
X130294147Y-56283100D01*
X130201015Y-56422481D01*
X130082481Y-56541015D01*
X129943100Y-56634147D01*
X129788228Y-56698297D01*
X129623816Y-56731000D01*
X129456184Y-56731000D01*
X129291772Y-56698297D01*
X129136900Y-56634147D01*
X128997519Y-56541015D01*
X128878985Y-56422481D01*
X128785853Y-56283100D01*
X128721703Y-56128228D01*
X128689000Y-55963816D01*
X128689000Y-55796184D01*
X128721703Y-55631772D01*
X128785853Y-55476900D01*
X128878985Y-55337519D01*
X128997519Y-55218985D01*
X129136900Y-55125853D01*
X129291772Y-55061703D01*
X129456184Y-55029000D01*
X129623816Y-55029000D01*
X129788228Y-55061703D01*
G37*
G36*
X132328228Y-52521703D02*
G01*
X132483100Y-52585853D01*
X132622481Y-52678985D01*
X132741015Y-52797519D01*
X132834147Y-52936900D01*
X132898297Y-53091772D01*
X132931000Y-53256184D01*
X132931000Y-53423816D01*
X132898297Y-53588228D01*
X132834147Y-53743100D01*
X132741015Y-53882481D01*
X132622481Y-54001015D01*
X132483100Y-54094147D01*
X132328228Y-54158297D01*
X132163816Y-54191000D01*
X131996184Y-54191000D01*
X131831772Y-54158297D01*
X131676900Y-54094147D01*
X131537519Y-54001015D01*
X131418985Y-53882481D01*
X131325853Y-53743100D01*
X131261703Y-53588228D01*
X131229000Y-53423816D01*
X131229000Y-53256184D01*
X131261703Y-53091772D01*
X131325853Y-52936900D01*
X131418985Y-52797519D01*
X131537519Y-52678985D01*
X131676900Y-52585853D01*
X131831772Y-52521703D01*
X131996184Y-52489000D01*
X132163816Y-52489000D01*
X132328228Y-52521703D01*
G37*
G36*
X129788228Y-52521703D02*
G01*
X129943100Y-52585853D01*
X130082481Y-52678985D01*
X130201015Y-52797519D01*
X130294147Y-52936900D01*
X130358297Y-53091772D01*
X130391000Y-53256184D01*
X130391000Y-53423816D01*
X130358297Y-53588228D01*
X130294147Y-53743100D01*
X130201015Y-53882481D01*
X130082481Y-54001015D01*
X129943100Y-54094147D01*
X129788228Y-54158297D01*
X129623816Y-54191000D01*
X129456184Y-54191000D01*
X129291772Y-54158297D01*
X129136900Y-54094147D01*
X128997519Y-54001015D01*
X128878985Y-53882481D01*
X128785853Y-53743100D01*
X128721703Y-53588228D01*
X128689000Y-53423816D01*
X128689000Y-53256184D01*
X128721703Y-53091772D01*
X128785853Y-52936900D01*
X128878985Y-52797519D01*
X128997519Y-52678985D01*
X129136900Y-52585853D01*
X129291772Y-52521703D01*
X129456184Y-52489000D01*
X129623816Y-52489000D01*
X129788228Y-52521703D01*
G37*
G36*
X117088228Y-52521703D02*
G01*
X117243100Y-52585853D01*
X117382481Y-52678985D01*
X117501015Y-52797519D01*
X117594147Y-52936900D01*
X117658297Y-53091772D01*
X117691000Y-53256184D01*
X117691000Y-53423816D01*
X117658297Y-53588228D01*
X117594147Y-53743100D01*
X117501015Y-53882481D01*
X117382481Y-54001015D01*
X117243100Y-54094147D01*
X117088228Y-54158297D01*
X116923816Y-54191000D01*
X116756184Y-54191000D01*
X116591772Y-54158297D01*
X116436900Y-54094147D01*
X116297519Y-54001015D01*
X116178985Y-53882481D01*
X116085853Y-53743100D01*
X116021703Y-53588228D01*
X115989000Y-53423816D01*
X115989000Y-53256184D01*
X116021703Y-53091772D01*
X116085853Y-52936900D01*
X116178985Y-52797519D01*
X116297519Y-52678985D01*
X116436900Y-52585853D01*
X116591772Y-52521703D01*
X116756184Y-52489000D01*
X116923816Y-52489000D01*
X117088228Y-52521703D01*
G37*
G36*
X114548228Y-52521703D02*
G01*
X114703100Y-52585853D01*
X114842481Y-52678985D01*
X114961015Y-52797519D01*
X115054147Y-52936900D01*
X115118297Y-53091772D01*
X115151000Y-53256184D01*
X115151000Y-53423816D01*
X115118297Y-53588228D01*
X115054147Y-53743100D01*
X114961015Y-53882481D01*
X114842481Y-54001015D01*
X114703100Y-54094147D01*
X114548228Y-54158297D01*
X114383816Y-54191000D01*
X114216184Y-54191000D01*
X114051772Y-54158297D01*
X113896900Y-54094147D01*
X113757519Y-54001015D01*
X113638985Y-53882481D01*
X113545853Y-53743100D01*
X113481703Y-53588228D01*
X113449000Y-53423816D01*
X113449000Y-53256184D01*
X113481703Y-53091772D01*
X113545853Y-52936900D01*
X113638985Y-52797519D01*
X113757519Y-52678985D01*
X113896900Y-52585853D01*
X114051772Y-52521703D01*
X114216184Y-52489000D01*
X114383816Y-52489000D01*
X114548228Y-52521703D01*
G37*
G36*
X129788228Y-49981703D02*
G01*
X129943100Y-50045853D01*
X130082481Y-50138985D01*
X130201015Y-50257519D01*
X130294147Y-50396900D01*
X130358297Y-50551772D01*
X130391000Y-50716184D01*
X130391000Y-50883816D01*
X130358297Y-51048228D01*
X130294147Y-51203100D01*
X130201015Y-51342481D01*
X130082481Y-51461015D01*
X129943100Y-51554147D01*
X129788228Y-51618297D01*
X129623816Y-51651000D01*
X129456184Y-51651000D01*
X129291772Y-51618297D01*
X129136900Y-51554147D01*
X128997519Y-51461015D01*
X128878985Y-51342481D01*
X128785853Y-51203100D01*
X128721703Y-51048228D01*
X128689000Y-50883816D01*
X128689000Y-50716184D01*
X128721703Y-50551772D01*
X128785853Y-50396900D01*
X128878985Y-50257519D01*
X128997519Y-50138985D01*
X129136900Y-50045853D01*
X129291772Y-49981703D01*
X129456184Y-49949000D01*
X129623816Y-49949000D01*
X129788228Y-49981703D01*
G37*
G36*
X117088228Y-49981703D02*
G01*
X117243100Y-50045853D01*
X117382481Y-50138985D01*
X117501015Y-50257519D01*
X117594147Y-50396900D01*
X117658297Y-50551772D01*
X117691000Y-50716184D01*
X117691000Y-50883816D01*
X117658297Y-51048228D01*
X117594147Y-51203100D01*
X117501015Y-51342481D01*
X117382481Y-51461015D01*
X117243100Y-51554147D01*
X117088228Y-51618297D01*
X116923816Y-51651000D01*
X116756184Y-51651000D01*
X116591772Y-51618297D01*
X116436900Y-51554147D01*
X116297519Y-51461015D01*
X116178985Y-51342481D01*
X116085853Y-51203100D01*
X116021703Y-51048228D01*
X115989000Y-50883816D01*
X115989000Y-50716184D01*
X116021703Y-50551772D01*
X116085853Y-50396900D01*
X116178985Y-50257519D01*
X116297519Y-50138985D01*
X116436900Y-50045853D01*
X116591772Y-49981703D01*
X116756184Y-49949000D01*
X116923816Y-49949000D01*
X117088228Y-49981703D01*
G37*
G36*
X132328228Y-49981703D02*
G01*
X132483100Y-50045853D01*
X132622481Y-50138985D01*
X132741015Y-50257519D01*
X132834147Y-50396900D01*
X132898297Y-50551772D01*
X132931000Y-50716184D01*
X132931000Y-50883816D01*
X132898297Y-51048228D01*
X132834147Y-51203100D01*
X132741015Y-51342481D01*
X132622481Y-51461015D01*
X132483100Y-51554147D01*
X132328228Y-51618297D01*
X132163816Y-51651000D01*
X131996184Y-51651000D01*
X131831772Y-51618297D01*
X131676900Y-51554147D01*
X131537519Y-51461015D01*
X131418985Y-51342481D01*
X131325853Y-51203100D01*
X131261703Y-51048228D01*
X131229000Y-50883816D01*
X131229000Y-50716184D01*
X131261703Y-50551772D01*
X131325853Y-50396900D01*
X131418985Y-50257519D01*
X131537519Y-50138985D01*
X131676900Y-50045853D01*
X131831772Y-49981703D01*
X131996184Y-49949000D01*
X132163816Y-49949000D01*
X132328228Y-49981703D01*
G37*
G36*
X115151000Y-51651000D02*
G01*
X113449000Y-51651000D01*
X113449000Y-49949000D01*
X115151000Y-49949000D01*
X115151000Y-51651000D01*
G37*
G36*
X117088228Y-47441703D02*
G01*
X117243100Y-47505853D01*
X117382481Y-47598985D01*
X117501015Y-47717519D01*
X117594147Y-47856900D01*
X117658297Y-48011772D01*
X117691000Y-48176184D01*
X117691000Y-48343816D01*
X117658297Y-48508228D01*
X117594147Y-48663100D01*
X117501015Y-48802481D01*
X117382481Y-48921015D01*
X117243100Y-49014147D01*
X117088228Y-49078297D01*
X116923816Y-49111000D01*
X116756184Y-49111000D01*
X116591772Y-49078297D01*
X116436900Y-49014147D01*
X116297519Y-48921015D01*
X116178985Y-48802481D01*
X116085853Y-48663100D01*
X116021703Y-48508228D01*
X115989000Y-48343816D01*
X115989000Y-48176184D01*
X116021703Y-48011772D01*
X116085853Y-47856900D01*
X116178985Y-47717519D01*
X116297519Y-47598985D01*
X116436900Y-47505853D01*
X116591772Y-47441703D01*
X116756184Y-47409000D01*
X116923816Y-47409000D01*
X117088228Y-47441703D01*
G37*
G36*
X132328228Y-47441703D02*
G01*
X132483100Y-47505853D01*
X132622481Y-47598985D01*
X132741015Y-47717519D01*
X132834147Y-47856900D01*
X132898297Y-48011772D01*
X132931000Y-48176184D01*
X132931000Y-48343816D01*
X132898297Y-48508228D01*
X132834147Y-48663100D01*
X132741015Y-48802481D01*
X132622481Y-48921015D01*
X132483100Y-49014147D01*
X132328228Y-49078297D01*
X132163816Y-49111000D01*
X131996184Y-49111000D01*
X131831772Y-49078297D01*
X131676900Y-49014147D01*
X131537519Y-48921015D01*
X131418985Y-48802481D01*
X131325853Y-48663100D01*
X131261703Y-48508228D01*
X131229000Y-48343816D01*
X131229000Y-48176184D01*
X131261703Y-48011772D01*
X131325853Y-47856900D01*
X131418985Y-47717519D01*
X131537519Y-47598985D01*
X131676900Y-47505853D01*
X131831772Y-47441703D01*
X131996184Y-47409000D01*
X132163816Y-47409000D01*
X132328228Y-47441703D01*
G37*
G36*
X117088228Y-44901703D02*
G01*
X117243100Y-44965853D01*
X117382481Y-45058985D01*
X117501015Y-45177519D01*
X117594147Y-45316900D01*
X117658297Y-45471772D01*
X117691000Y-45636184D01*
X117691000Y-45803816D01*
X117658297Y-45968228D01*
X117594147Y-46123100D01*
X117501015Y-46262481D01*
X117382481Y-46381015D01*
X117243100Y-46474147D01*
X117088228Y-46538297D01*
X116923816Y-46571000D01*
X116756184Y-46571000D01*
X116591772Y-46538297D01*
X116436900Y-46474147D01*
X116297519Y-46381015D01*
X116178985Y-46262481D01*
X116085853Y-46123100D01*
X116021703Y-45968228D01*
X115989000Y-45803816D01*
X115989000Y-45636184D01*
X116021703Y-45471772D01*
X116085853Y-45316900D01*
X116178985Y-45177519D01*
X116297519Y-45058985D01*
X116436900Y-44965853D01*
X116591772Y-44901703D01*
X116756184Y-44869000D01*
X116923816Y-44869000D01*
X117088228Y-44901703D01*
G37*
G36*
X132328228Y-44901703D02*
G01*
X132483100Y-44965853D01*
X132622481Y-45058985D01*
X132741015Y-45177519D01*
X132834147Y-45316900D01*
X132898297Y-45471772D01*
X132931000Y-45636184D01*
X132931000Y-45803816D01*
X132898297Y-45968228D01*
X132834147Y-46123100D01*
X132741015Y-46262481D01*
X132622481Y-46381015D01*
X132483100Y-46474147D01*
X132328228Y-46538297D01*
X132163816Y-46571000D01*
X131996184Y-46571000D01*
X131831772Y-46538297D01*
X131676900Y-46474147D01*
X131537519Y-46381015D01*
X131418985Y-46262481D01*
X131325853Y-46123100D01*
X131261703Y-45968228D01*
X131229000Y-45803816D01*
X131229000Y-45636184D01*
X131261703Y-45471772D01*
X131325853Y-45316900D01*
X131418985Y-45177519D01*
X131537519Y-45058985D01*
X131676900Y-44965853D01*
X131831772Y-44901703D01*
X131996184Y-44869000D01*
X132163816Y-44869000D01*
X132328228Y-44901703D01*
G37*
G36*
X117088228Y-42361703D02*
G01*
X117243100Y-42425853D01*
X117382481Y-42518985D01*
X117501015Y-42637519D01*
X117594147Y-42776900D01*
X117658297Y-42931772D01*
X117691000Y-43096184D01*
X117691000Y-43263816D01*
X117658297Y-43428228D01*
X117594147Y-43583100D01*
X117501015Y-43722481D01*
X117382481Y-43841015D01*
X117243100Y-43934147D01*
X117088228Y-43998297D01*
X116923816Y-44031000D01*
X116756184Y-44031000D01*
X116591772Y-43998297D01*
X116436900Y-43934147D01*
X116297519Y-43841015D01*
X116178985Y-43722481D01*
X116085853Y-43583100D01*
X116021703Y-43428228D01*
X115989000Y-43263816D01*
X115989000Y-43096184D01*
X116021703Y-42931772D01*
X116085853Y-42776900D01*
X116178985Y-42637519D01*
X116297519Y-42518985D01*
X116436900Y-42425853D01*
X116591772Y-42361703D01*
X116756184Y-42329000D01*
X116923816Y-42329000D01*
X117088228Y-42361703D01*
G37*
G36*
X132328228Y-42361703D02*
G01*
X132483100Y-42425853D01*
X132622481Y-42518985D01*
X132741015Y-42637519D01*
X132834147Y-42776900D01*
X132898297Y-42931772D01*
X132931000Y-43096184D01*
X132931000Y-43263816D01*
X132898297Y-43428228D01*
X132834147Y-43583100D01*
X132741015Y-43722481D01*
X132622481Y-43841015D01*
X132483100Y-43934147D01*
X132328228Y-43998297D01*
X132163816Y-44031000D01*
X131996184Y-44031000D01*
X131831772Y-43998297D01*
X131676900Y-43934147D01*
X131537519Y-43841015D01*
X131418985Y-43722481D01*
X131325853Y-43583100D01*
X131261703Y-43428228D01*
X131229000Y-43263816D01*
X131229000Y-43096184D01*
X131261703Y-42931772D01*
X131325853Y-42776900D01*
X131418985Y-42637519D01*
X131537519Y-42518985D01*
X131676900Y-42425853D01*
X131831772Y-42361703D01*
X131996184Y-42329000D01*
X132163816Y-42329000D01*
X132328228Y-42361703D01*
G37*
G36*
X117691000Y-41491000D02*
G01*
X115989000Y-41491000D01*
X115989000Y-39789000D01*
X117691000Y-39789000D01*
X117691000Y-41491000D01*
G37*
G36*
X132328228Y-39821703D02*
G01*
X132483100Y-39885853D01*
X132622481Y-39978985D01*
X132741015Y-40097519D01*
X132834147Y-40236900D01*
X132898297Y-40391772D01*
X132931000Y-40556184D01*
X132931000Y-40723816D01*
X132898297Y-40888228D01*
X132834147Y-41043100D01*
X132741015Y-41182481D01*
X132622481Y-41301015D01*
X132483100Y-41394147D01*
X132328228Y-41458297D01*
X132163816Y-41491000D01*
X131996184Y-41491000D01*
X131831772Y-41458297D01*
X131676900Y-41394147D01*
X131537519Y-41301015D01*
X131418985Y-41182481D01*
X131325853Y-41043100D01*
X131261703Y-40888228D01*
X131229000Y-40723816D01*
X131229000Y-40556184D01*
X131261703Y-40391772D01*
X131325853Y-40236900D01*
X131418985Y-40097519D01*
X131537519Y-39978985D01*
X131676900Y-39885853D01*
X131831772Y-39821703D01*
X131996184Y-39789000D01*
X132163816Y-39789000D01*
X132328228Y-39821703D01*
G37*
M02*
