%TF.GenerationSoftware,KiCad,Pcbnew,(5.1.5-0-10_14)*%
%TF.CreationDate,2021-03-11T16:13:23+01:00*%
%TF.ProjectId,C64-ROM-Adapter-LB,4336342d-524f-44d2-9d41-646170746572,1.1*%
%TF.SameCoordinates,Original*%
%TF.FileFunction,Paste,Bot*%
%TF.FilePolarity,Positive*%
%FSLAX46Y46*%
G04 Gerber Fmt 4.6, Leading zero omitted, Abs format (unit mm)*
G04 Created by KiCad (PCBNEW (5.1.5-0-10_14)) date 2021-03-11 16:13:23*
%MOMM*%
%LPD*%
G04 APERTURE LIST*
%ADD10C,0.050000*%
%ADD11R,0.500000X0.800000*%
%ADD12R,0.400000X0.800000*%
%ADD13C,0.150000*%
G04 APERTURE END LIST*
D10*
X122809000Y-48895000D02*
X130810000Y-48895000D01*
X122809000Y-48895000D02*
G75*
G02X121031000Y-48895000I-889000J0D01*
G01*
X131445000Y-80010000D02*
G75*
G02X130810000Y-80645000I-635000J0D01*
G01*
X113030000Y-80645000D02*
G75*
G02X112395000Y-80010000I0J635000D01*
G01*
X112395000Y-49530000D02*
G75*
G02X113030000Y-48895000I635000J0D01*
G01*
X130810000Y-48895000D02*
G75*
G02X131445000Y-49530000I0J-635000D01*
G01*
X112395000Y-80010000D02*
X112395000Y-49530000D01*
X130810000Y-80645000D02*
X113030000Y-80645000D01*
X131445000Y-49530000D02*
X131445000Y-80010000D01*
X113030000Y-48895000D02*
X121031000Y-48895000D01*
D11*
X121215000Y-56145000D03*
D12*
X120415000Y-56145000D03*
D11*
X118815000Y-56145000D03*
D12*
X119615000Y-56145000D03*
D11*
X121215000Y-54345000D03*
D12*
X119615000Y-54345000D03*
X120415000Y-54345000D03*
D11*
X118815000Y-54345000D03*
D13*
G36*
X125752351Y-76770361D02*
G01*
X125759632Y-76771441D01*
X125766771Y-76773229D01*
X125773701Y-76775709D01*
X125780355Y-76778856D01*
X125786668Y-76782640D01*
X125792579Y-76787024D01*
X125798033Y-76791967D01*
X125802976Y-76797421D01*
X125807360Y-76803332D01*
X125811144Y-76809645D01*
X125814291Y-76816299D01*
X125816771Y-76823229D01*
X125818559Y-76830368D01*
X125819639Y-76837649D01*
X125820000Y-76845000D01*
X125820000Y-78995000D01*
X125819639Y-79002351D01*
X125818559Y-79009632D01*
X125816771Y-79016771D01*
X125814291Y-79023701D01*
X125811144Y-79030355D01*
X125807360Y-79036668D01*
X125802976Y-79042579D01*
X125798033Y-79048033D01*
X125792579Y-79052976D01*
X125786668Y-79057360D01*
X125780355Y-79061144D01*
X125773701Y-79064291D01*
X125766771Y-79066771D01*
X125759632Y-79068559D01*
X125752351Y-79069639D01*
X125745000Y-79070000D01*
X125595000Y-79070000D01*
X125587649Y-79069639D01*
X125580368Y-79068559D01*
X125573229Y-79066771D01*
X125566299Y-79064291D01*
X125559645Y-79061144D01*
X125553332Y-79057360D01*
X125547421Y-79052976D01*
X125541967Y-79048033D01*
X125537024Y-79042579D01*
X125532640Y-79036668D01*
X125528856Y-79030355D01*
X125525709Y-79023701D01*
X125523229Y-79016771D01*
X125521441Y-79009632D01*
X125520361Y-79002351D01*
X125520000Y-78995000D01*
X125520000Y-76845000D01*
X125520361Y-76837649D01*
X125521441Y-76830368D01*
X125523229Y-76823229D01*
X125525709Y-76816299D01*
X125528856Y-76809645D01*
X125532640Y-76803332D01*
X125537024Y-76797421D01*
X125541967Y-76791967D01*
X125547421Y-76787024D01*
X125553332Y-76782640D01*
X125559645Y-76778856D01*
X125566299Y-76775709D01*
X125573229Y-76773229D01*
X125580368Y-76771441D01*
X125587649Y-76770361D01*
X125595000Y-76770000D01*
X125745000Y-76770000D01*
X125752351Y-76770361D01*
G37*
G36*
X125252351Y-76770361D02*
G01*
X125259632Y-76771441D01*
X125266771Y-76773229D01*
X125273701Y-76775709D01*
X125280355Y-76778856D01*
X125286668Y-76782640D01*
X125292579Y-76787024D01*
X125298033Y-76791967D01*
X125302976Y-76797421D01*
X125307360Y-76803332D01*
X125311144Y-76809645D01*
X125314291Y-76816299D01*
X125316771Y-76823229D01*
X125318559Y-76830368D01*
X125319639Y-76837649D01*
X125320000Y-76845000D01*
X125320000Y-78995000D01*
X125319639Y-79002351D01*
X125318559Y-79009632D01*
X125316771Y-79016771D01*
X125314291Y-79023701D01*
X125311144Y-79030355D01*
X125307360Y-79036668D01*
X125302976Y-79042579D01*
X125298033Y-79048033D01*
X125292579Y-79052976D01*
X125286668Y-79057360D01*
X125280355Y-79061144D01*
X125273701Y-79064291D01*
X125266771Y-79066771D01*
X125259632Y-79068559D01*
X125252351Y-79069639D01*
X125245000Y-79070000D01*
X125095000Y-79070000D01*
X125087649Y-79069639D01*
X125080368Y-79068559D01*
X125073229Y-79066771D01*
X125066299Y-79064291D01*
X125059645Y-79061144D01*
X125053332Y-79057360D01*
X125047421Y-79052976D01*
X125041967Y-79048033D01*
X125037024Y-79042579D01*
X125032640Y-79036668D01*
X125028856Y-79030355D01*
X125025709Y-79023701D01*
X125023229Y-79016771D01*
X125021441Y-79009632D01*
X125020361Y-79002351D01*
X125020000Y-78995000D01*
X125020000Y-76845000D01*
X125020361Y-76837649D01*
X125021441Y-76830368D01*
X125023229Y-76823229D01*
X125025709Y-76816299D01*
X125028856Y-76809645D01*
X125032640Y-76803332D01*
X125037024Y-76797421D01*
X125041967Y-76791967D01*
X125047421Y-76787024D01*
X125053332Y-76782640D01*
X125059645Y-76778856D01*
X125066299Y-76775709D01*
X125073229Y-76773229D01*
X125080368Y-76771441D01*
X125087649Y-76770361D01*
X125095000Y-76770000D01*
X125245000Y-76770000D01*
X125252351Y-76770361D01*
G37*
G36*
X124752351Y-76770361D02*
G01*
X124759632Y-76771441D01*
X124766771Y-76773229D01*
X124773701Y-76775709D01*
X124780355Y-76778856D01*
X124786668Y-76782640D01*
X124792579Y-76787024D01*
X124798033Y-76791967D01*
X124802976Y-76797421D01*
X124807360Y-76803332D01*
X124811144Y-76809645D01*
X124814291Y-76816299D01*
X124816771Y-76823229D01*
X124818559Y-76830368D01*
X124819639Y-76837649D01*
X124820000Y-76845000D01*
X124820000Y-78995000D01*
X124819639Y-79002351D01*
X124818559Y-79009632D01*
X124816771Y-79016771D01*
X124814291Y-79023701D01*
X124811144Y-79030355D01*
X124807360Y-79036668D01*
X124802976Y-79042579D01*
X124798033Y-79048033D01*
X124792579Y-79052976D01*
X124786668Y-79057360D01*
X124780355Y-79061144D01*
X124773701Y-79064291D01*
X124766771Y-79066771D01*
X124759632Y-79068559D01*
X124752351Y-79069639D01*
X124745000Y-79070000D01*
X124595000Y-79070000D01*
X124587649Y-79069639D01*
X124580368Y-79068559D01*
X124573229Y-79066771D01*
X124566299Y-79064291D01*
X124559645Y-79061144D01*
X124553332Y-79057360D01*
X124547421Y-79052976D01*
X124541967Y-79048033D01*
X124537024Y-79042579D01*
X124532640Y-79036668D01*
X124528856Y-79030355D01*
X124525709Y-79023701D01*
X124523229Y-79016771D01*
X124521441Y-79009632D01*
X124520361Y-79002351D01*
X124520000Y-78995000D01*
X124520000Y-76845000D01*
X124520361Y-76837649D01*
X124521441Y-76830368D01*
X124523229Y-76823229D01*
X124525709Y-76816299D01*
X124528856Y-76809645D01*
X124532640Y-76803332D01*
X124537024Y-76797421D01*
X124541967Y-76791967D01*
X124547421Y-76787024D01*
X124553332Y-76782640D01*
X124559645Y-76778856D01*
X124566299Y-76775709D01*
X124573229Y-76773229D01*
X124580368Y-76771441D01*
X124587649Y-76770361D01*
X124595000Y-76770000D01*
X124745000Y-76770000D01*
X124752351Y-76770361D01*
G37*
G36*
X124252351Y-76770361D02*
G01*
X124259632Y-76771441D01*
X124266771Y-76773229D01*
X124273701Y-76775709D01*
X124280355Y-76778856D01*
X124286668Y-76782640D01*
X124292579Y-76787024D01*
X124298033Y-76791967D01*
X124302976Y-76797421D01*
X124307360Y-76803332D01*
X124311144Y-76809645D01*
X124314291Y-76816299D01*
X124316771Y-76823229D01*
X124318559Y-76830368D01*
X124319639Y-76837649D01*
X124320000Y-76845000D01*
X124320000Y-78995000D01*
X124319639Y-79002351D01*
X124318559Y-79009632D01*
X124316771Y-79016771D01*
X124314291Y-79023701D01*
X124311144Y-79030355D01*
X124307360Y-79036668D01*
X124302976Y-79042579D01*
X124298033Y-79048033D01*
X124292579Y-79052976D01*
X124286668Y-79057360D01*
X124280355Y-79061144D01*
X124273701Y-79064291D01*
X124266771Y-79066771D01*
X124259632Y-79068559D01*
X124252351Y-79069639D01*
X124245000Y-79070000D01*
X124095000Y-79070000D01*
X124087649Y-79069639D01*
X124080368Y-79068559D01*
X124073229Y-79066771D01*
X124066299Y-79064291D01*
X124059645Y-79061144D01*
X124053332Y-79057360D01*
X124047421Y-79052976D01*
X124041967Y-79048033D01*
X124037024Y-79042579D01*
X124032640Y-79036668D01*
X124028856Y-79030355D01*
X124025709Y-79023701D01*
X124023229Y-79016771D01*
X124021441Y-79009632D01*
X124020361Y-79002351D01*
X124020000Y-78995000D01*
X124020000Y-76845000D01*
X124020361Y-76837649D01*
X124021441Y-76830368D01*
X124023229Y-76823229D01*
X124025709Y-76816299D01*
X124028856Y-76809645D01*
X124032640Y-76803332D01*
X124037024Y-76797421D01*
X124041967Y-76791967D01*
X124047421Y-76787024D01*
X124053332Y-76782640D01*
X124059645Y-76778856D01*
X124066299Y-76775709D01*
X124073229Y-76773229D01*
X124080368Y-76771441D01*
X124087649Y-76770361D01*
X124095000Y-76770000D01*
X124245000Y-76770000D01*
X124252351Y-76770361D01*
G37*
G36*
X123752351Y-76770361D02*
G01*
X123759632Y-76771441D01*
X123766771Y-76773229D01*
X123773701Y-76775709D01*
X123780355Y-76778856D01*
X123786668Y-76782640D01*
X123792579Y-76787024D01*
X123798033Y-76791967D01*
X123802976Y-76797421D01*
X123807360Y-76803332D01*
X123811144Y-76809645D01*
X123814291Y-76816299D01*
X123816771Y-76823229D01*
X123818559Y-76830368D01*
X123819639Y-76837649D01*
X123820000Y-76845000D01*
X123820000Y-78995000D01*
X123819639Y-79002351D01*
X123818559Y-79009632D01*
X123816771Y-79016771D01*
X123814291Y-79023701D01*
X123811144Y-79030355D01*
X123807360Y-79036668D01*
X123802976Y-79042579D01*
X123798033Y-79048033D01*
X123792579Y-79052976D01*
X123786668Y-79057360D01*
X123780355Y-79061144D01*
X123773701Y-79064291D01*
X123766771Y-79066771D01*
X123759632Y-79068559D01*
X123752351Y-79069639D01*
X123745000Y-79070000D01*
X123595000Y-79070000D01*
X123587649Y-79069639D01*
X123580368Y-79068559D01*
X123573229Y-79066771D01*
X123566299Y-79064291D01*
X123559645Y-79061144D01*
X123553332Y-79057360D01*
X123547421Y-79052976D01*
X123541967Y-79048033D01*
X123537024Y-79042579D01*
X123532640Y-79036668D01*
X123528856Y-79030355D01*
X123525709Y-79023701D01*
X123523229Y-79016771D01*
X123521441Y-79009632D01*
X123520361Y-79002351D01*
X123520000Y-78995000D01*
X123520000Y-76845000D01*
X123520361Y-76837649D01*
X123521441Y-76830368D01*
X123523229Y-76823229D01*
X123525709Y-76816299D01*
X123528856Y-76809645D01*
X123532640Y-76803332D01*
X123537024Y-76797421D01*
X123541967Y-76791967D01*
X123547421Y-76787024D01*
X123553332Y-76782640D01*
X123559645Y-76778856D01*
X123566299Y-76775709D01*
X123573229Y-76773229D01*
X123580368Y-76771441D01*
X123587649Y-76770361D01*
X123595000Y-76770000D01*
X123745000Y-76770000D01*
X123752351Y-76770361D01*
G37*
G36*
X123252351Y-76770361D02*
G01*
X123259632Y-76771441D01*
X123266771Y-76773229D01*
X123273701Y-76775709D01*
X123280355Y-76778856D01*
X123286668Y-76782640D01*
X123292579Y-76787024D01*
X123298033Y-76791967D01*
X123302976Y-76797421D01*
X123307360Y-76803332D01*
X123311144Y-76809645D01*
X123314291Y-76816299D01*
X123316771Y-76823229D01*
X123318559Y-76830368D01*
X123319639Y-76837649D01*
X123320000Y-76845000D01*
X123320000Y-78995000D01*
X123319639Y-79002351D01*
X123318559Y-79009632D01*
X123316771Y-79016771D01*
X123314291Y-79023701D01*
X123311144Y-79030355D01*
X123307360Y-79036668D01*
X123302976Y-79042579D01*
X123298033Y-79048033D01*
X123292579Y-79052976D01*
X123286668Y-79057360D01*
X123280355Y-79061144D01*
X123273701Y-79064291D01*
X123266771Y-79066771D01*
X123259632Y-79068559D01*
X123252351Y-79069639D01*
X123245000Y-79070000D01*
X123095000Y-79070000D01*
X123087649Y-79069639D01*
X123080368Y-79068559D01*
X123073229Y-79066771D01*
X123066299Y-79064291D01*
X123059645Y-79061144D01*
X123053332Y-79057360D01*
X123047421Y-79052976D01*
X123041967Y-79048033D01*
X123037024Y-79042579D01*
X123032640Y-79036668D01*
X123028856Y-79030355D01*
X123025709Y-79023701D01*
X123023229Y-79016771D01*
X123021441Y-79009632D01*
X123020361Y-79002351D01*
X123020000Y-78995000D01*
X123020000Y-76845000D01*
X123020361Y-76837649D01*
X123021441Y-76830368D01*
X123023229Y-76823229D01*
X123025709Y-76816299D01*
X123028856Y-76809645D01*
X123032640Y-76803332D01*
X123037024Y-76797421D01*
X123041967Y-76791967D01*
X123047421Y-76787024D01*
X123053332Y-76782640D01*
X123059645Y-76778856D01*
X123066299Y-76775709D01*
X123073229Y-76773229D01*
X123080368Y-76771441D01*
X123087649Y-76770361D01*
X123095000Y-76770000D01*
X123245000Y-76770000D01*
X123252351Y-76770361D01*
G37*
G36*
X122752351Y-76770361D02*
G01*
X122759632Y-76771441D01*
X122766771Y-76773229D01*
X122773701Y-76775709D01*
X122780355Y-76778856D01*
X122786668Y-76782640D01*
X122792579Y-76787024D01*
X122798033Y-76791967D01*
X122802976Y-76797421D01*
X122807360Y-76803332D01*
X122811144Y-76809645D01*
X122814291Y-76816299D01*
X122816771Y-76823229D01*
X122818559Y-76830368D01*
X122819639Y-76837649D01*
X122820000Y-76845000D01*
X122820000Y-78995000D01*
X122819639Y-79002351D01*
X122818559Y-79009632D01*
X122816771Y-79016771D01*
X122814291Y-79023701D01*
X122811144Y-79030355D01*
X122807360Y-79036668D01*
X122802976Y-79042579D01*
X122798033Y-79048033D01*
X122792579Y-79052976D01*
X122786668Y-79057360D01*
X122780355Y-79061144D01*
X122773701Y-79064291D01*
X122766771Y-79066771D01*
X122759632Y-79068559D01*
X122752351Y-79069639D01*
X122745000Y-79070000D01*
X122595000Y-79070000D01*
X122587649Y-79069639D01*
X122580368Y-79068559D01*
X122573229Y-79066771D01*
X122566299Y-79064291D01*
X122559645Y-79061144D01*
X122553332Y-79057360D01*
X122547421Y-79052976D01*
X122541967Y-79048033D01*
X122537024Y-79042579D01*
X122532640Y-79036668D01*
X122528856Y-79030355D01*
X122525709Y-79023701D01*
X122523229Y-79016771D01*
X122521441Y-79009632D01*
X122520361Y-79002351D01*
X122520000Y-78995000D01*
X122520000Y-76845000D01*
X122520361Y-76837649D01*
X122521441Y-76830368D01*
X122523229Y-76823229D01*
X122525709Y-76816299D01*
X122528856Y-76809645D01*
X122532640Y-76803332D01*
X122537024Y-76797421D01*
X122541967Y-76791967D01*
X122547421Y-76787024D01*
X122553332Y-76782640D01*
X122559645Y-76778856D01*
X122566299Y-76775709D01*
X122573229Y-76773229D01*
X122580368Y-76771441D01*
X122587649Y-76770361D01*
X122595000Y-76770000D01*
X122745000Y-76770000D01*
X122752351Y-76770361D01*
G37*
G36*
X122252351Y-76770361D02*
G01*
X122259632Y-76771441D01*
X122266771Y-76773229D01*
X122273701Y-76775709D01*
X122280355Y-76778856D01*
X122286668Y-76782640D01*
X122292579Y-76787024D01*
X122298033Y-76791967D01*
X122302976Y-76797421D01*
X122307360Y-76803332D01*
X122311144Y-76809645D01*
X122314291Y-76816299D01*
X122316771Y-76823229D01*
X122318559Y-76830368D01*
X122319639Y-76837649D01*
X122320000Y-76845000D01*
X122320000Y-78995000D01*
X122319639Y-79002351D01*
X122318559Y-79009632D01*
X122316771Y-79016771D01*
X122314291Y-79023701D01*
X122311144Y-79030355D01*
X122307360Y-79036668D01*
X122302976Y-79042579D01*
X122298033Y-79048033D01*
X122292579Y-79052976D01*
X122286668Y-79057360D01*
X122280355Y-79061144D01*
X122273701Y-79064291D01*
X122266771Y-79066771D01*
X122259632Y-79068559D01*
X122252351Y-79069639D01*
X122245000Y-79070000D01*
X122095000Y-79070000D01*
X122087649Y-79069639D01*
X122080368Y-79068559D01*
X122073229Y-79066771D01*
X122066299Y-79064291D01*
X122059645Y-79061144D01*
X122053332Y-79057360D01*
X122047421Y-79052976D01*
X122041967Y-79048033D01*
X122037024Y-79042579D01*
X122032640Y-79036668D01*
X122028856Y-79030355D01*
X122025709Y-79023701D01*
X122023229Y-79016771D01*
X122021441Y-79009632D01*
X122020361Y-79002351D01*
X122020000Y-78995000D01*
X122020000Y-76845000D01*
X122020361Y-76837649D01*
X122021441Y-76830368D01*
X122023229Y-76823229D01*
X122025709Y-76816299D01*
X122028856Y-76809645D01*
X122032640Y-76803332D01*
X122037024Y-76797421D01*
X122041967Y-76791967D01*
X122047421Y-76787024D01*
X122053332Y-76782640D01*
X122059645Y-76778856D01*
X122066299Y-76775709D01*
X122073229Y-76773229D01*
X122080368Y-76771441D01*
X122087649Y-76770361D01*
X122095000Y-76770000D01*
X122245000Y-76770000D01*
X122252351Y-76770361D01*
G37*
G36*
X121752351Y-76770361D02*
G01*
X121759632Y-76771441D01*
X121766771Y-76773229D01*
X121773701Y-76775709D01*
X121780355Y-76778856D01*
X121786668Y-76782640D01*
X121792579Y-76787024D01*
X121798033Y-76791967D01*
X121802976Y-76797421D01*
X121807360Y-76803332D01*
X121811144Y-76809645D01*
X121814291Y-76816299D01*
X121816771Y-76823229D01*
X121818559Y-76830368D01*
X121819639Y-76837649D01*
X121820000Y-76845000D01*
X121820000Y-78995000D01*
X121819639Y-79002351D01*
X121818559Y-79009632D01*
X121816771Y-79016771D01*
X121814291Y-79023701D01*
X121811144Y-79030355D01*
X121807360Y-79036668D01*
X121802976Y-79042579D01*
X121798033Y-79048033D01*
X121792579Y-79052976D01*
X121786668Y-79057360D01*
X121780355Y-79061144D01*
X121773701Y-79064291D01*
X121766771Y-79066771D01*
X121759632Y-79068559D01*
X121752351Y-79069639D01*
X121745000Y-79070000D01*
X121595000Y-79070000D01*
X121587649Y-79069639D01*
X121580368Y-79068559D01*
X121573229Y-79066771D01*
X121566299Y-79064291D01*
X121559645Y-79061144D01*
X121553332Y-79057360D01*
X121547421Y-79052976D01*
X121541967Y-79048033D01*
X121537024Y-79042579D01*
X121532640Y-79036668D01*
X121528856Y-79030355D01*
X121525709Y-79023701D01*
X121523229Y-79016771D01*
X121521441Y-79009632D01*
X121520361Y-79002351D01*
X121520000Y-78995000D01*
X121520000Y-76845000D01*
X121520361Y-76837649D01*
X121521441Y-76830368D01*
X121523229Y-76823229D01*
X121525709Y-76816299D01*
X121528856Y-76809645D01*
X121532640Y-76803332D01*
X121537024Y-76797421D01*
X121541967Y-76791967D01*
X121547421Y-76787024D01*
X121553332Y-76782640D01*
X121559645Y-76778856D01*
X121566299Y-76775709D01*
X121573229Y-76773229D01*
X121580368Y-76771441D01*
X121587649Y-76770361D01*
X121595000Y-76770000D01*
X121745000Y-76770000D01*
X121752351Y-76770361D01*
G37*
G36*
X121252351Y-76770361D02*
G01*
X121259632Y-76771441D01*
X121266771Y-76773229D01*
X121273701Y-76775709D01*
X121280355Y-76778856D01*
X121286668Y-76782640D01*
X121292579Y-76787024D01*
X121298033Y-76791967D01*
X121302976Y-76797421D01*
X121307360Y-76803332D01*
X121311144Y-76809645D01*
X121314291Y-76816299D01*
X121316771Y-76823229D01*
X121318559Y-76830368D01*
X121319639Y-76837649D01*
X121320000Y-76845000D01*
X121320000Y-78995000D01*
X121319639Y-79002351D01*
X121318559Y-79009632D01*
X121316771Y-79016771D01*
X121314291Y-79023701D01*
X121311144Y-79030355D01*
X121307360Y-79036668D01*
X121302976Y-79042579D01*
X121298033Y-79048033D01*
X121292579Y-79052976D01*
X121286668Y-79057360D01*
X121280355Y-79061144D01*
X121273701Y-79064291D01*
X121266771Y-79066771D01*
X121259632Y-79068559D01*
X121252351Y-79069639D01*
X121245000Y-79070000D01*
X121095000Y-79070000D01*
X121087649Y-79069639D01*
X121080368Y-79068559D01*
X121073229Y-79066771D01*
X121066299Y-79064291D01*
X121059645Y-79061144D01*
X121053332Y-79057360D01*
X121047421Y-79052976D01*
X121041967Y-79048033D01*
X121037024Y-79042579D01*
X121032640Y-79036668D01*
X121028856Y-79030355D01*
X121025709Y-79023701D01*
X121023229Y-79016771D01*
X121021441Y-79009632D01*
X121020361Y-79002351D01*
X121020000Y-78995000D01*
X121020000Y-76845000D01*
X121020361Y-76837649D01*
X121021441Y-76830368D01*
X121023229Y-76823229D01*
X121025709Y-76816299D01*
X121028856Y-76809645D01*
X121032640Y-76803332D01*
X121037024Y-76797421D01*
X121041967Y-76791967D01*
X121047421Y-76787024D01*
X121053332Y-76782640D01*
X121059645Y-76778856D01*
X121066299Y-76775709D01*
X121073229Y-76773229D01*
X121080368Y-76771441D01*
X121087649Y-76770361D01*
X121095000Y-76770000D01*
X121245000Y-76770000D01*
X121252351Y-76770361D01*
G37*
G36*
X120752351Y-76770361D02*
G01*
X120759632Y-76771441D01*
X120766771Y-76773229D01*
X120773701Y-76775709D01*
X120780355Y-76778856D01*
X120786668Y-76782640D01*
X120792579Y-76787024D01*
X120798033Y-76791967D01*
X120802976Y-76797421D01*
X120807360Y-76803332D01*
X120811144Y-76809645D01*
X120814291Y-76816299D01*
X120816771Y-76823229D01*
X120818559Y-76830368D01*
X120819639Y-76837649D01*
X120820000Y-76845000D01*
X120820000Y-78995000D01*
X120819639Y-79002351D01*
X120818559Y-79009632D01*
X120816771Y-79016771D01*
X120814291Y-79023701D01*
X120811144Y-79030355D01*
X120807360Y-79036668D01*
X120802976Y-79042579D01*
X120798033Y-79048033D01*
X120792579Y-79052976D01*
X120786668Y-79057360D01*
X120780355Y-79061144D01*
X120773701Y-79064291D01*
X120766771Y-79066771D01*
X120759632Y-79068559D01*
X120752351Y-79069639D01*
X120745000Y-79070000D01*
X120595000Y-79070000D01*
X120587649Y-79069639D01*
X120580368Y-79068559D01*
X120573229Y-79066771D01*
X120566299Y-79064291D01*
X120559645Y-79061144D01*
X120553332Y-79057360D01*
X120547421Y-79052976D01*
X120541967Y-79048033D01*
X120537024Y-79042579D01*
X120532640Y-79036668D01*
X120528856Y-79030355D01*
X120525709Y-79023701D01*
X120523229Y-79016771D01*
X120521441Y-79009632D01*
X120520361Y-79002351D01*
X120520000Y-78995000D01*
X120520000Y-76845000D01*
X120520361Y-76837649D01*
X120521441Y-76830368D01*
X120523229Y-76823229D01*
X120525709Y-76816299D01*
X120528856Y-76809645D01*
X120532640Y-76803332D01*
X120537024Y-76797421D01*
X120541967Y-76791967D01*
X120547421Y-76787024D01*
X120553332Y-76782640D01*
X120559645Y-76778856D01*
X120566299Y-76775709D01*
X120573229Y-76773229D01*
X120580368Y-76771441D01*
X120587649Y-76770361D01*
X120595000Y-76770000D01*
X120745000Y-76770000D01*
X120752351Y-76770361D01*
G37*
G36*
X120252351Y-76770361D02*
G01*
X120259632Y-76771441D01*
X120266771Y-76773229D01*
X120273701Y-76775709D01*
X120280355Y-76778856D01*
X120286668Y-76782640D01*
X120292579Y-76787024D01*
X120298033Y-76791967D01*
X120302976Y-76797421D01*
X120307360Y-76803332D01*
X120311144Y-76809645D01*
X120314291Y-76816299D01*
X120316771Y-76823229D01*
X120318559Y-76830368D01*
X120319639Y-76837649D01*
X120320000Y-76845000D01*
X120320000Y-78995000D01*
X120319639Y-79002351D01*
X120318559Y-79009632D01*
X120316771Y-79016771D01*
X120314291Y-79023701D01*
X120311144Y-79030355D01*
X120307360Y-79036668D01*
X120302976Y-79042579D01*
X120298033Y-79048033D01*
X120292579Y-79052976D01*
X120286668Y-79057360D01*
X120280355Y-79061144D01*
X120273701Y-79064291D01*
X120266771Y-79066771D01*
X120259632Y-79068559D01*
X120252351Y-79069639D01*
X120245000Y-79070000D01*
X120095000Y-79070000D01*
X120087649Y-79069639D01*
X120080368Y-79068559D01*
X120073229Y-79066771D01*
X120066299Y-79064291D01*
X120059645Y-79061144D01*
X120053332Y-79057360D01*
X120047421Y-79052976D01*
X120041967Y-79048033D01*
X120037024Y-79042579D01*
X120032640Y-79036668D01*
X120028856Y-79030355D01*
X120025709Y-79023701D01*
X120023229Y-79016771D01*
X120021441Y-79009632D01*
X120020361Y-79002351D01*
X120020000Y-78995000D01*
X120020000Y-76845000D01*
X120020361Y-76837649D01*
X120021441Y-76830368D01*
X120023229Y-76823229D01*
X120025709Y-76816299D01*
X120028856Y-76809645D01*
X120032640Y-76803332D01*
X120037024Y-76797421D01*
X120041967Y-76791967D01*
X120047421Y-76787024D01*
X120053332Y-76782640D01*
X120059645Y-76778856D01*
X120066299Y-76775709D01*
X120073229Y-76773229D01*
X120080368Y-76771441D01*
X120087649Y-76770361D01*
X120095000Y-76770000D01*
X120245000Y-76770000D01*
X120252351Y-76770361D01*
G37*
G36*
X119752351Y-76770361D02*
G01*
X119759632Y-76771441D01*
X119766771Y-76773229D01*
X119773701Y-76775709D01*
X119780355Y-76778856D01*
X119786668Y-76782640D01*
X119792579Y-76787024D01*
X119798033Y-76791967D01*
X119802976Y-76797421D01*
X119807360Y-76803332D01*
X119811144Y-76809645D01*
X119814291Y-76816299D01*
X119816771Y-76823229D01*
X119818559Y-76830368D01*
X119819639Y-76837649D01*
X119820000Y-76845000D01*
X119820000Y-78995000D01*
X119819639Y-79002351D01*
X119818559Y-79009632D01*
X119816771Y-79016771D01*
X119814291Y-79023701D01*
X119811144Y-79030355D01*
X119807360Y-79036668D01*
X119802976Y-79042579D01*
X119798033Y-79048033D01*
X119792579Y-79052976D01*
X119786668Y-79057360D01*
X119780355Y-79061144D01*
X119773701Y-79064291D01*
X119766771Y-79066771D01*
X119759632Y-79068559D01*
X119752351Y-79069639D01*
X119745000Y-79070000D01*
X119595000Y-79070000D01*
X119587649Y-79069639D01*
X119580368Y-79068559D01*
X119573229Y-79066771D01*
X119566299Y-79064291D01*
X119559645Y-79061144D01*
X119553332Y-79057360D01*
X119547421Y-79052976D01*
X119541967Y-79048033D01*
X119537024Y-79042579D01*
X119532640Y-79036668D01*
X119528856Y-79030355D01*
X119525709Y-79023701D01*
X119523229Y-79016771D01*
X119521441Y-79009632D01*
X119520361Y-79002351D01*
X119520000Y-78995000D01*
X119520000Y-76845000D01*
X119520361Y-76837649D01*
X119521441Y-76830368D01*
X119523229Y-76823229D01*
X119525709Y-76816299D01*
X119528856Y-76809645D01*
X119532640Y-76803332D01*
X119537024Y-76797421D01*
X119541967Y-76791967D01*
X119547421Y-76787024D01*
X119553332Y-76782640D01*
X119559645Y-76778856D01*
X119566299Y-76775709D01*
X119573229Y-76773229D01*
X119580368Y-76771441D01*
X119587649Y-76770361D01*
X119595000Y-76770000D01*
X119745000Y-76770000D01*
X119752351Y-76770361D01*
G37*
G36*
X119252351Y-76770361D02*
G01*
X119259632Y-76771441D01*
X119266771Y-76773229D01*
X119273701Y-76775709D01*
X119280355Y-76778856D01*
X119286668Y-76782640D01*
X119292579Y-76787024D01*
X119298033Y-76791967D01*
X119302976Y-76797421D01*
X119307360Y-76803332D01*
X119311144Y-76809645D01*
X119314291Y-76816299D01*
X119316771Y-76823229D01*
X119318559Y-76830368D01*
X119319639Y-76837649D01*
X119320000Y-76845000D01*
X119320000Y-78995000D01*
X119319639Y-79002351D01*
X119318559Y-79009632D01*
X119316771Y-79016771D01*
X119314291Y-79023701D01*
X119311144Y-79030355D01*
X119307360Y-79036668D01*
X119302976Y-79042579D01*
X119298033Y-79048033D01*
X119292579Y-79052976D01*
X119286668Y-79057360D01*
X119280355Y-79061144D01*
X119273701Y-79064291D01*
X119266771Y-79066771D01*
X119259632Y-79068559D01*
X119252351Y-79069639D01*
X119245000Y-79070000D01*
X119095000Y-79070000D01*
X119087649Y-79069639D01*
X119080368Y-79068559D01*
X119073229Y-79066771D01*
X119066299Y-79064291D01*
X119059645Y-79061144D01*
X119053332Y-79057360D01*
X119047421Y-79052976D01*
X119041967Y-79048033D01*
X119037024Y-79042579D01*
X119032640Y-79036668D01*
X119028856Y-79030355D01*
X119025709Y-79023701D01*
X119023229Y-79016771D01*
X119021441Y-79009632D01*
X119020361Y-79002351D01*
X119020000Y-78995000D01*
X119020000Y-76845000D01*
X119020361Y-76837649D01*
X119021441Y-76830368D01*
X119023229Y-76823229D01*
X119025709Y-76816299D01*
X119028856Y-76809645D01*
X119032640Y-76803332D01*
X119037024Y-76797421D01*
X119041967Y-76791967D01*
X119047421Y-76787024D01*
X119053332Y-76782640D01*
X119059645Y-76778856D01*
X119066299Y-76775709D01*
X119073229Y-76773229D01*
X119080368Y-76771441D01*
X119087649Y-76770361D01*
X119095000Y-76770000D01*
X119245000Y-76770000D01*
X119252351Y-76770361D01*
G37*
G36*
X118752351Y-76770361D02*
G01*
X118759632Y-76771441D01*
X118766771Y-76773229D01*
X118773701Y-76775709D01*
X118780355Y-76778856D01*
X118786668Y-76782640D01*
X118792579Y-76787024D01*
X118798033Y-76791967D01*
X118802976Y-76797421D01*
X118807360Y-76803332D01*
X118811144Y-76809645D01*
X118814291Y-76816299D01*
X118816771Y-76823229D01*
X118818559Y-76830368D01*
X118819639Y-76837649D01*
X118820000Y-76845000D01*
X118820000Y-78995000D01*
X118819639Y-79002351D01*
X118818559Y-79009632D01*
X118816771Y-79016771D01*
X118814291Y-79023701D01*
X118811144Y-79030355D01*
X118807360Y-79036668D01*
X118802976Y-79042579D01*
X118798033Y-79048033D01*
X118792579Y-79052976D01*
X118786668Y-79057360D01*
X118780355Y-79061144D01*
X118773701Y-79064291D01*
X118766771Y-79066771D01*
X118759632Y-79068559D01*
X118752351Y-79069639D01*
X118745000Y-79070000D01*
X118595000Y-79070000D01*
X118587649Y-79069639D01*
X118580368Y-79068559D01*
X118573229Y-79066771D01*
X118566299Y-79064291D01*
X118559645Y-79061144D01*
X118553332Y-79057360D01*
X118547421Y-79052976D01*
X118541967Y-79048033D01*
X118537024Y-79042579D01*
X118532640Y-79036668D01*
X118528856Y-79030355D01*
X118525709Y-79023701D01*
X118523229Y-79016771D01*
X118521441Y-79009632D01*
X118520361Y-79002351D01*
X118520000Y-78995000D01*
X118520000Y-76845000D01*
X118520361Y-76837649D01*
X118521441Y-76830368D01*
X118523229Y-76823229D01*
X118525709Y-76816299D01*
X118528856Y-76809645D01*
X118532640Y-76803332D01*
X118537024Y-76797421D01*
X118541967Y-76791967D01*
X118547421Y-76787024D01*
X118553332Y-76782640D01*
X118559645Y-76778856D01*
X118566299Y-76775709D01*
X118573229Y-76773229D01*
X118580368Y-76771441D01*
X118587649Y-76770361D01*
X118595000Y-76770000D01*
X118745000Y-76770000D01*
X118752351Y-76770361D01*
G37*
G36*
X118252351Y-76770361D02*
G01*
X118259632Y-76771441D01*
X118266771Y-76773229D01*
X118273701Y-76775709D01*
X118280355Y-76778856D01*
X118286668Y-76782640D01*
X118292579Y-76787024D01*
X118298033Y-76791967D01*
X118302976Y-76797421D01*
X118307360Y-76803332D01*
X118311144Y-76809645D01*
X118314291Y-76816299D01*
X118316771Y-76823229D01*
X118318559Y-76830368D01*
X118319639Y-76837649D01*
X118320000Y-76845000D01*
X118320000Y-78995000D01*
X118319639Y-79002351D01*
X118318559Y-79009632D01*
X118316771Y-79016771D01*
X118314291Y-79023701D01*
X118311144Y-79030355D01*
X118307360Y-79036668D01*
X118302976Y-79042579D01*
X118298033Y-79048033D01*
X118292579Y-79052976D01*
X118286668Y-79057360D01*
X118280355Y-79061144D01*
X118273701Y-79064291D01*
X118266771Y-79066771D01*
X118259632Y-79068559D01*
X118252351Y-79069639D01*
X118245000Y-79070000D01*
X118095000Y-79070000D01*
X118087649Y-79069639D01*
X118080368Y-79068559D01*
X118073229Y-79066771D01*
X118066299Y-79064291D01*
X118059645Y-79061144D01*
X118053332Y-79057360D01*
X118047421Y-79052976D01*
X118041967Y-79048033D01*
X118037024Y-79042579D01*
X118032640Y-79036668D01*
X118028856Y-79030355D01*
X118025709Y-79023701D01*
X118023229Y-79016771D01*
X118021441Y-79009632D01*
X118020361Y-79002351D01*
X118020000Y-78995000D01*
X118020000Y-76845000D01*
X118020361Y-76837649D01*
X118021441Y-76830368D01*
X118023229Y-76823229D01*
X118025709Y-76816299D01*
X118028856Y-76809645D01*
X118032640Y-76803332D01*
X118037024Y-76797421D01*
X118041967Y-76791967D01*
X118047421Y-76787024D01*
X118053332Y-76782640D01*
X118059645Y-76778856D01*
X118066299Y-76775709D01*
X118073229Y-76773229D01*
X118080368Y-76771441D01*
X118087649Y-76770361D01*
X118095000Y-76770000D01*
X118245000Y-76770000D01*
X118252351Y-76770361D01*
G37*
G36*
X118252351Y-63170361D02*
G01*
X118259632Y-63171441D01*
X118266771Y-63173229D01*
X118273701Y-63175709D01*
X118280355Y-63178856D01*
X118286668Y-63182640D01*
X118292579Y-63187024D01*
X118298033Y-63191967D01*
X118302976Y-63197421D01*
X118307360Y-63203332D01*
X118311144Y-63209645D01*
X118314291Y-63216299D01*
X118316771Y-63223229D01*
X118318559Y-63230368D01*
X118319639Y-63237649D01*
X118320000Y-63245000D01*
X118320000Y-65395000D01*
X118319639Y-65402351D01*
X118318559Y-65409632D01*
X118316771Y-65416771D01*
X118314291Y-65423701D01*
X118311144Y-65430355D01*
X118307360Y-65436668D01*
X118302976Y-65442579D01*
X118298033Y-65448033D01*
X118292579Y-65452976D01*
X118286668Y-65457360D01*
X118280355Y-65461144D01*
X118273701Y-65464291D01*
X118266771Y-65466771D01*
X118259632Y-65468559D01*
X118252351Y-65469639D01*
X118245000Y-65470000D01*
X118095000Y-65470000D01*
X118087649Y-65469639D01*
X118080368Y-65468559D01*
X118073229Y-65466771D01*
X118066299Y-65464291D01*
X118059645Y-65461144D01*
X118053332Y-65457360D01*
X118047421Y-65452976D01*
X118041967Y-65448033D01*
X118037024Y-65442579D01*
X118032640Y-65436668D01*
X118028856Y-65430355D01*
X118025709Y-65423701D01*
X118023229Y-65416771D01*
X118021441Y-65409632D01*
X118020361Y-65402351D01*
X118020000Y-65395000D01*
X118020000Y-63245000D01*
X118020361Y-63237649D01*
X118021441Y-63230368D01*
X118023229Y-63223229D01*
X118025709Y-63216299D01*
X118028856Y-63209645D01*
X118032640Y-63203332D01*
X118037024Y-63197421D01*
X118041967Y-63191967D01*
X118047421Y-63187024D01*
X118053332Y-63182640D01*
X118059645Y-63178856D01*
X118066299Y-63175709D01*
X118073229Y-63173229D01*
X118080368Y-63171441D01*
X118087649Y-63170361D01*
X118095000Y-63170000D01*
X118245000Y-63170000D01*
X118252351Y-63170361D01*
G37*
G36*
X118752351Y-63170361D02*
G01*
X118759632Y-63171441D01*
X118766771Y-63173229D01*
X118773701Y-63175709D01*
X118780355Y-63178856D01*
X118786668Y-63182640D01*
X118792579Y-63187024D01*
X118798033Y-63191967D01*
X118802976Y-63197421D01*
X118807360Y-63203332D01*
X118811144Y-63209645D01*
X118814291Y-63216299D01*
X118816771Y-63223229D01*
X118818559Y-63230368D01*
X118819639Y-63237649D01*
X118820000Y-63245000D01*
X118820000Y-65395000D01*
X118819639Y-65402351D01*
X118818559Y-65409632D01*
X118816771Y-65416771D01*
X118814291Y-65423701D01*
X118811144Y-65430355D01*
X118807360Y-65436668D01*
X118802976Y-65442579D01*
X118798033Y-65448033D01*
X118792579Y-65452976D01*
X118786668Y-65457360D01*
X118780355Y-65461144D01*
X118773701Y-65464291D01*
X118766771Y-65466771D01*
X118759632Y-65468559D01*
X118752351Y-65469639D01*
X118745000Y-65470000D01*
X118595000Y-65470000D01*
X118587649Y-65469639D01*
X118580368Y-65468559D01*
X118573229Y-65466771D01*
X118566299Y-65464291D01*
X118559645Y-65461144D01*
X118553332Y-65457360D01*
X118547421Y-65452976D01*
X118541967Y-65448033D01*
X118537024Y-65442579D01*
X118532640Y-65436668D01*
X118528856Y-65430355D01*
X118525709Y-65423701D01*
X118523229Y-65416771D01*
X118521441Y-65409632D01*
X118520361Y-65402351D01*
X118520000Y-65395000D01*
X118520000Y-63245000D01*
X118520361Y-63237649D01*
X118521441Y-63230368D01*
X118523229Y-63223229D01*
X118525709Y-63216299D01*
X118528856Y-63209645D01*
X118532640Y-63203332D01*
X118537024Y-63197421D01*
X118541967Y-63191967D01*
X118547421Y-63187024D01*
X118553332Y-63182640D01*
X118559645Y-63178856D01*
X118566299Y-63175709D01*
X118573229Y-63173229D01*
X118580368Y-63171441D01*
X118587649Y-63170361D01*
X118595000Y-63170000D01*
X118745000Y-63170000D01*
X118752351Y-63170361D01*
G37*
G36*
X119252351Y-63170361D02*
G01*
X119259632Y-63171441D01*
X119266771Y-63173229D01*
X119273701Y-63175709D01*
X119280355Y-63178856D01*
X119286668Y-63182640D01*
X119292579Y-63187024D01*
X119298033Y-63191967D01*
X119302976Y-63197421D01*
X119307360Y-63203332D01*
X119311144Y-63209645D01*
X119314291Y-63216299D01*
X119316771Y-63223229D01*
X119318559Y-63230368D01*
X119319639Y-63237649D01*
X119320000Y-63245000D01*
X119320000Y-65395000D01*
X119319639Y-65402351D01*
X119318559Y-65409632D01*
X119316771Y-65416771D01*
X119314291Y-65423701D01*
X119311144Y-65430355D01*
X119307360Y-65436668D01*
X119302976Y-65442579D01*
X119298033Y-65448033D01*
X119292579Y-65452976D01*
X119286668Y-65457360D01*
X119280355Y-65461144D01*
X119273701Y-65464291D01*
X119266771Y-65466771D01*
X119259632Y-65468559D01*
X119252351Y-65469639D01*
X119245000Y-65470000D01*
X119095000Y-65470000D01*
X119087649Y-65469639D01*
X119080368Y-65468559D01*
X119073229Y-65466771D01*
X119066299Y-65464291D01*
X119059645Y-65461144D01*
X119053332Y-65457360D01*
X119047421Y-65452976D01*
X119041967Y-65448033D01*
X119037024Y-65442579D01*
X119032640Y-65436668D01*
X119028856Y-65430355D01*
X119025709Y-65423701D01*
X119023229Y-65416771D01*
X119021441Y-65409632D01*
X119020361Y-65402351D01*
X119020000Y-65395000D01*
X119020000Y-63245000D01*
X119020361Y-63237649D01*
X119021441Y-63230368D01*
X119023229Y-63223229D01*
X119025709Y-63216299D01*
X119028856Y-63209645D01*
X119032640Y-63203332D01*
X119037024Y-63197421D01*
X119041967Y-63191967D01*
X119047421Y-63187024D01*
X119053332Y-63182640D01*
X119059645Y-63178856D01*
X119066299Y-63175709D01*
X119073229Y-63173229D01*
X119080368Y-63171441D01*
X119087649Y-63170361D01*
X119095000Y-63170000D01*
X119245000Y-63170000D01*
X119252351Y-63170361D01*
G37*
G36*
X119752351Y-63170361D02*
G01*
X119759632Y-63171441D01*
X119766771Y-63173229D01*
X119773701Y-63175709D01*
X119780355Y-63178856D01*
X119786668Y-63182640D01*
X119792579Y-63187024D01*
X119798033Y-63191967D01*
X119802976Y-63197421D01*
X119807360Y-63203332D01*
X119811144Y-63209645D01*
X119814291Y-63216299D01*
X119816771Y-63223229D01*
X119818559Y-63230368D01*
X119819639Y-63237649D01*
X119820000Y-63245000D01*
X119820000Y-65395000D01*
X119819639Y-65402351D01*
X119818559Y-65409632D01*
X119816771Y-65416771D01*
X119814291Y-65423701D01*
X119811144Y-65430355D01*
X119807360Y-65436668D01*
X119802976Y-65442579D01*
X119798033Y-65448033D01*
X119792579Y-65452976D01*
X119786668Y-65457360D01*
X119780355Y-65461144D01*
X119773701Y-65464291D01*
X119766771Y-65466771D01*
X119759632Y-65468559D01*
X119752351Y-65469639D01*
X119745000Y-65470000D01*
X119595000Y-65470000D01*
X119587649Y-65469639D01*
X119580368Y-65468559D01*
X119573229Y-65466771D01*
X119566299Y-65464291D01*
X119559645Y-65461144D01*
X119553332Y-65457360D01*
X119547421Y-65452976D01*
X119541967Y-65448033D01*
X119537024Y-65442579D01*
X119532640Y-65436668D01*
X119528856Y-65430355D01*
X119525709Y-65423701D01*
X119523229Y-65416771D01*
X119521441Y-65409632D01*
X119520361Y-65402351D01*
X119520000Y-65395000D01*
X119520000Y-63245000D01*
X119520361Y-63237649D01*
X119521441Y-63230368D01*
X119523229Y-63223229D01*
X119525709Y-63216299D01*
X119528856Y-63209645D01*
X119532640Y-63203332D01*
X119537024Y-63197421D01*
X119541967Y-63191967D01*
X119547421Y-63187024D01*
X119553332Y-63182640D01*
X119559645Y-63178856D01*
X119566299Y-63175709D01*
X119573229Y-63173229D01*
X119580368Y-63171441D01*
X119587649Y-63170361D01*
X119595000Y-63170000D01*
X119745000Y-63170000D01*
X119752351Y-63170361D01*
G37*
G36*
X120252351Y-63170361D02*
G01*
X120259632Y-63171441D01*
X120266771Y-63173229D01*
X120273701Y-63175709D01*
X120280355Y-63178856D01*
X120286668Y-63182640D01*
X120292579Y-63187024D01*
X120298033Y-63191967D01*
X120302976Y-63197421D01*
X120307360Y-63203332D01*
X120311144Y-63209645D01*
X120314291Y-63216299D01*
X120316771Y-63223229D01*
X120318559Y-63230368D01*
X120319639Y-63237649D01*
X120320000Y-63245000D01*
X120320000Y-65395000D01*
X120319639Y-65402351D01*
X120318559Y-65409632D01*
X120316771Y-65416771D01*
X120314291Y-65423701D01*
X120311144Y-65430355D01*
X120307360Y-65436668D01*
X120302976Y-65442579D01*
X120298033Y-65448033D01*
X120292579Y-65452976D01*
X120286668Y-65457360D01*
X120280355Y-65461144D01*
X120273701Y-65464291D01*
X120266771Y-65466771D01*
X120259632Y-65468559D01*
X120252351Y-65469639D01*
X120245000Y-65470000D01*
X120095000Y-65470000D01*
X120087649Y-65469639D01*
X120080368Y-65468559D01*
X120073229Y-65466771D01*
X120066299Y-65464291D01*
X120059645Y-65461144D01*
X120053332Y-65457360D01*
X120047421Y-65452976D01*
X120041967Y-65448033D01*
X120037024Y-65442579D01*
X120032640Y-65436668D01*
X120028856Y-65430355D01*
X120025709Y-65423701D01*
X120023229Y-65416771D01*
X120021441Y-65409632D01*
X120020361Y-65402351D01*
X120020000Y-65395000D01*
X120020000Y-63245000D01*
X120020361Y-63237649D01*
X120021441Y-63230368D01*
X120023229Y-63223229D01*
X120025709Y-63216299D01*
X120028856Y-63209645D01*
X120032640Y-63203332D01*
X120037024Y-63197421D01*
X120041967Y-63191967D01*
X120047421Y-63187024D01*
X120053332Y-63182640D01*
X120059645Y-63178856D01*
X120066299Y-63175709D01*
X120073229Y-63173229D01*
X120080368Y-63171441D01*
X120087649Y-63170361D01*
X120095000Y-63170000D01*
X120245000Y-63170000D01*
X120252351Y-63170361D01*
G37*
G36*
X120752351Y-63170361D02*
G01*
X120759632Y-63171441D01*
X120766771Y-63173229D01*
X120773701Y-63175709D01*
X120780355Y-63178856D01*
X120786668Y-63182640D01*
X120792579Y-63187024D01*
X120798033Y-63191967D01*
X120802976Y-63197421D01*
X120807360Y-63203332D01*
X120811144Y-63209645D01*
X120814291Y-63216299D01*
X120816771Y-63223229D01*
X120818559Y-63230368D01*
X120819639Y-63237649D01*
X120820000Y-63245000D01*
X120820000Y-65395000D01*
X120819639Y-65402351D01*
X120818559Y-65409632D01*
X120816771Y-65416771D01*
X120814291Y-65423701D01*
X120811144Y-65430355D01*
X120807360Y-65436668D01*
X120802976Y-65442579D01*
X120798033Y-65448033D01*
X120792579Y-65452976D01*
X120786668Y-65457360D01*
X120780355Y-65461144D01*
X120773701Y-65464291D01*
X120766771Y-65466771D01*
X120759632Y-65468559D01*
X120752351Y-65469639D01*
X120745000Y-65470000D01*
X120595000Y-65470000D01*
X120587649Y-65469639D01*
X120580368Y-65468559D01*
X120573229Y-65466771D01*
X120566299Y-65464291D01*
X120559645Y-65461144D01*
X120553332Y-65457360D01*
X120547421Y-65452976D01*
X120541967Y-65448033D01*
X120537024Y-65442579D01*
X120532640Y-65436668D01*
X120528856Y-65430355D01*
X120525709Y-65423701D01*
X120523229Y-65416771D01*
X120521441Y-65409632D01*
X120520361Y-65402351D01*
X120520000Y-65395000D01*
X120520000Y-63245000D01*
X120520361Y-63237649D01*
X120521441Y-63230368D01*
X120523229Y-63223229D01*
X120525709Y-63216299D01*
X120528856Y-63209645D01*
X120532640Y-63203332D01*
X120537024Y-63197421D01*
X120541967Y-63191967D01*
X120547421Y-63187024D01*
X120553332Y-63182640D01*
X120559645Y-63178856D01*
X120566299Y-63175709D01*
X120573229Y-63173229D01*
X120580368Y-63171441D01*
X120587649Y-63170361D01*
X120595000Y-63170000D01*
X120745000Y-63170000D01*
X120752351Y-63170361D01*
G37*
G36*
X121252351Y-63170361D02*
G01*
X121259632Y-63171441D01*
X121266771Y-63173229D01*
X121273701Y-63175709D01*
X121280355Y-63178856D01*
X121286668Y-63182640D01*
X121292579Y-63187024D01*
X121298033Y-63191967D01*
X121302976Y-63197421D01*
X121307360Y-63203332D01*
X121311144Y-63209645D01*
X121314291Y-63216299D01*
X121316771Y-63223229D01*
X121318559Y-63230368D01*
X121319639Y-63237649D01*
X121320000Y-63245000D01*
X121320000Y-65395000D01*
X121319639Y-65402351D01*
X121318559Y-65409632D01*
X121316771Y-65416771D01*
X121314291Y-65423701D01*
X121311144Y-65430355D01*
X121307360Y-65436668D01*
X121302976Y-65442579D01*
X121298033Y-65448033D01*
X121292579Y-65452976D01*
X121286668Y-65457360D01*
X121280355Y-65461144D01*
X121273701Y-65464291D01*
X121266771Y-65466771D01*
X121259632Y-65468559D01*
X121252351Y-65469639D01*
X121245000Y-65470000D01*
X121095000Y-65470000D01*
X121087649Y-65469639D01*
X121080368Y-65468559D01*
X121073229Y-65466771D01*
X121066299Y-65464291D01*
X121059645Y-65461144D01*
X121053332Y-65457360D01*
X121047421Y-65452976D01*
X121041967Y-65448033D01*
X121037024Y-65442579D01*
X121032640Y-65436668D01*
X121028856Y-65430355D01*
X121025709Y-65423701D01*
X121023229Y-65416771D01*
X121021441Y-65409632D01*
X121020361Y-65402351D01*
X121020000Y-65395000D01*
X121020000Y-63245000D01*
X121020361Y-63237649D01*
X121021441Y-63230368D01*
X121023229Y-63223229D01*
X121025709Y-63216299D01*
X121028856Y-63209645D01*
X121032640Y-63203332D01*
X121037024Y-63197421D01*
X121041967Y-63191967D01*
X121047421Y-63187024D01*
X121053332Y-63182640D01*
X121059645Y-63178856D01*
X121066299Y-63175709D01*
X121073229Y-63173229D01*
X121080368Y-63171441D01*
X121087649Y-63170361D01*
X121095000Y-63170000D01*
X121245000Y-63170000D01*
X121252351Y-63170361D01*
G37*
G36*
X121752351Y-63170361D02*
G01*
X121759632Y-63171441D01*
X121766771Y-63173229D01*
X121773701Y-63175709D01*
X121780355Y-63178856D01*
X121786668Y-63182640D01*
X121792579Y-63187024D01*
X121798033Y-63191967D01*
X121802976Y-63197421D01*
X121807360Y-63203332D01*
X121811144Y-63209645D01*
X121814291Y-63216299D01*
X121816771Y-63223229D01*
X121818559Y-63230368D01*
X121819639Y-63237649D01*
X121820000Y-63245000D01*
X121820000Y-65395000D01*
X121819639Y-65402351D01*
X121818559Y-65409632D01*
X121816771Y-65416771D01*
X121814291Y-65423701D01*
X121811144Y-65430355D01*
X121807360Y-65436668D01*
X121802976Y-65442579D01*
X121798033Y-65448033D01*
X121792579Y-65452976D01*
X121786668Y-65457360D01*
X121780355Y-65461144D01*
X121773701Y-65464291D01*
X121766771Y-65466771D01*
X121759632Y-65468559D01*
X121752351Y-65469639D01*
X121745000Y-65470000D01*
X121595000Y-65470000D01*
X121587649Y-65469639D01*
X121580368Y-65468559D01*
X121573229Y-65466771D01*
X121566299Y-65464291D01*
X121559645Y-65461144D01*
X121553332Y-65457360D01*
X121547421Y-65452976D01*
X121541967Y-65448033D01*
X121537024Y-65442579D01*
X121532640Y-65436668D01*
X121528856Y-65430355D01*
X121525709Y-65423701D01*
X121523229Y-65416771D01*
X121521441Y-65409632D01*
X121520361Y-65402351D01*
X121520000Y-65395000D01*
X121520000Y-63245000D01*
X121520361Y-63237649D01*
X121521441Y-63230368D01*
X121523229Y-63223229D01*
X121525709Y-63216299D01*
X121528856Y-63209645D01*
X121532640Y-63203332D01*
X121537024Y-63197421D01*
X121541967Y-63191967D01*
X121547421Y-63187024D01*
X121553332Y-63182640D01*
X121559645Y-63178856D01*
X121566299Y-63175709D01*
X121573229Y-63173229D01*
X121580368Y-63171441D01*
X121587649Y-63170361D01*
X121595000Y-63170000D01*
X121745000Y-63170000D01*
X121752351Y-63170361D01*
G37*
G36*
X122252351Y-63170361D02*
G01*
X122259632Y-63171441D01*
X122266771Y-63173229D01*
X122273701Y-63175709D01*
X122280355Y-63178856D01*
X122286668Y-63182640D01*
X122292579Y-63187024D01*
X122298033Y-63191967D01*
X122302976Y-63197421D01*
X122307360Y-63203332D01*
X122311144Y-63209645D01*
X122314291Y-63216299D01*
X122316771Y-63223229D01*
X122318559Y-63230368D01*
X122319639Y-63237649D01*
X122320000Y-63245000D01*
X122320000Y-65395000D01*
X122319639Y-65402351D01*
X122318559Y-65409632D01*
X122316771Y-65416771D01*
X122314291Y-65423701D01*
X122311144Y-65430355D01*
X122307360Y-65436668D01*
X122302976Y-65442579D01*
X122298033Y-65448033D01*
X122292579Y-65452976D01*
X122286668Y-65457360D01*
X122280355Y-65461144D01*
X122273701Y-65464291D01*
X122266771Y-65466771D01*
X122259632Y-65468559D01*
X122252351Y-65469639D01*
X122245000Y-65470000D01*
X122095000Y-65470000D01*
X122087649Y-65469639D01*
X122080368Y-65468559D01*
X122073229Y-65466771D01*
X122066299Y-65464291D01*
X122059645Y-65461144D01*
X122053332Y-65457360D01*
X122047421Y-65452976D01*
X122041967Y-65448033D01*
X122037024Y-65442579D01*
X122032640Y-65436668D01*
X122028856Y-65430355D01*
X122025709Y-65423701D01*
X122023229Y-65416771D01*
X122021441Y-65409632D01*
X122020361Y-65402351D01*
X122020000Y-65395000D01*
X122020000Y-63245000D01*
X122020361Y-63237649D01*
X122021441Y-63230368D01*
X122023229Y-63223229D01*
X122025709Y-63216299D01*
X122028856Y-63209645D01*
X122032640Y-63203332D01*
X122037024Y-63197421D01*
X122041967Y-63191967D01*
X122047421Y-63187024D01*
X122053332Y-63182640D01*
X122059645Y-63178856D01*
X122066299Y-63175709D01*
X122073229Y-63173229D01*
X122080368Y-63171441D01*
X122087649Y-63170361D01*
X122095000Y-63170000D01*
X122245000Y-63170000D01*
X122252351Y-63170361D01*
G37*
G36*
X122752351Y-63170361D02*
G01*
X122759632Y-63171441D01*
X122766771Y-63173229D01*
X122773701Y-63175709D01*
X122780355Y-63178856D01*
X122786668Y-63182640D01*
X122792579Y-63187024D01*
X122798033Y-63191967D01*
X122802976Y-63197421D01*
X122807360Y-63203332D01*
X122811144Y-63209645D01*
X122814291Y-63216299D01*
X122816771Y-63223229D01*
X122818559Y-63230368D01*
X122819639Y-63237649D01*
X122820000Y-63245000D01*
X122820000Y-65395000D01*
X122819639Y-65402351D01*
X122818559Y-65409632D01*
X122816771Y-65416771D01*
X122814291Y-65423701D01*
X122811144Y-65430355D01*
X122807360Y-65436668D01*
X122802976Y-65442579D01*
X122798033Y-65448033D01*
X122792579Y-65452976D01*
X122786668Y-65457360D01*
X122780355Y-65461144D01*
X122773701Y-65464291D01*
X122766771Y-65466771D01*
X122759632Y-65468559D01*
X122752351Y-65469639D01*
X122745000Y-65470000D01*
X122595000Y-65470000D01*
X122587649Y-65469639D01*
X122580368Y-65468559D01*
X122573229Y-65466771D01*
X122566299Y-65464291D01*
X122559645Y-65461144D01*
X122553332Y-65457360D01*
X122547421Y-65452976D01*
X122541967Y-65448033D01*
X122537024Y-65442579D01*
X122532640Y-65436668D01*
X122528856Y-65430355D01*
X122525709Y-65423701D01*
X122523229Y-65416771D01*
X122521441Y-65409632D01*
X122520361Y-65402351D01*
X122520000Y-65395000D01*
X122520000Y-63245000D01*
X122520361Y-63237649D01*
X122521441Y-63230368D01*
X122523229Y-63223229D01*
X122525709Y-63216299D01*
X122528856Y-63209645D01*
X122532640Y-63203332D01*
X122537024Y-63197421D01*
X122541967Y-63191967D01*
X122547421Y-63187024D01*
X122553332Y-63182640D01*
X122559645Y-63178856D01*
X122566299Y-63175709D01*
X122573229Y-63173229D01*
X122580368Y-63171441D01*
X122587649Y-63170361D01*
X122595000Y-63170000D01*
X122745000Y-63170000D01*
X122752351Y-63170361D01*
G37*
G36*
X123252351Y-63170361D02*
G01*
X123259632Y-63171441D01*
X123266771Y-63173229D01*
X123273701Y-63175709D01*
X123280355Y-63178856D01*
X123286668Y-63182640D01*
X123292579Y-63187024D01*
X123298033Y-63191967D01*
X123302976Y-63197421D01*
X123307360Y-63203332D01*
X123311144Y-63209645D01*
X123314291Y-63216299D01*
X123316771Y-63223229D01*
X123318559Y-63230368D01*
X123319639Y-63237649D01*
X123320000Y-63245000D01*
X123320000Y-65395000D01*
X123319639Y-65402351D01*
X123318559Y-65409632D01*
X123316771Y-65416771D01*
X123314291Y-65423701D01*
X123311144Y-65430355D01*
X123307360Y-65436668D01*
X123302976Y-65442579D01*
X123298033Y-65448033D01*
X123292579Y-65452976D01*
X123286668Y-65457360D01*
X123280355Y-65461144D01*
X123273701Y-65464291D01*
X123266771Y-65466771D01*
X123259632Y-65468559D01*
X123252351Y-65469639D01*
X123245000Y-65470000D01*
X123095000Y-65470000D01*
X123087649Y-65469639D01*
X123080368Y-65468559D01*
X123073229Y-65466771D01*
X123066299Y-65464291D01*
X123059645Y-65461144D01*
X123053332Y-65457360D01*
X123047421Y-65452976D01*
X123041967Y-65448033D01*
X123037024Y-65442579D01*
X123032640Y-65436668D01*
X123028856Y-65430355D01*
X123025709Y-65423701D01*
X123023229Y-65416771D01*
X123021441Y-65409632D01*
X123020361Y-65402351D01*
X123020000Y-65395000D01*
X123020000Y-63245000D01*
X123020361Y-63237649D01*
X123021441Y-63230368D01*
X123023229Y-63223229D01*
X123025709Y-63216299D01*
X123028856Y-63209645D01*
X123032640Y-63203332D01*
X123037024Y-63197421D01*
X123041967Y-63191967D01*
X123047421Y-63187024D01*
X123053332Y-63182640D01*
X123059645Y-63178856D01*
X123066299Y-63175709D01*
X123073229Y-63173229D01*
X123080368Y-63171441D01*
X123087649Y-63170361D01*
X123095000Y-63170000D01*
X123245000Y-63170000D01*
X123252351Y-63170361D01*
G37*
G36*
X123752351Y-63170361D02*
G01*
X123759632Y-63171441D01*
X123766771Y-63173229D01*
X123773701Y-63175709D01*
X123780355Y-63178856D01*
X123786668Y-63182640D01*
X123792579Y-63187024D01*
X123798033Y-63191967D01*
X123802976Y-63197421D01*
X123807360Y-63203332D01*
X123811144Y-63209645D01*
X123814291Y-63216299D01*
X123816771Y-63223229D01*
X123818559Y-63230368D01*
X123819639Y-63237649D01*
X123820000Y-63245000D01*
X123820000Y-65395000D01*
X123819639Y-65402351D01*
X123818559Y-65409632D01*
X123816771Y-65416771D01*
X123814291Y-65423701D01*
X123811144Y-65430355D01*
X123807360Y-65436668D01*
X123802976Y-65442579D01*
X123798033Y-65448033D01*
X123792579Y-65452976D01*
X123786668Y-65457360D01*
X123780355Y-65461144D01*
X123773701Y-65464291D01*
X123766771Y-65466771D01*
X123759632Y-65468559D01*
X123752351Y-65469639D01*
X123745000Y-65470000D01*
X123595000Y-65470000D01*
X123587649Y-65469639D01*
X123580368Y-65468559D01*
X123573229Y-65466771D01*
X123566299Y-65464291D01*
X123559645Y-65461144D01*
X123553332Y-65457360D01*
X123547421Y-65452976D01*
X123541967Y-65448033D01*
X123537024Y-65442579D01*
X123532640Y-65436668D01*
X123528856Y-65430355D01*
X123525709Y-65423701D01*
X123523229Y-65416771D01*
X123521441Y-65409632D01*
X123520361Y-65402351D01*
X123520000Y-65395000D01*
X123520000Y-63245000D01*
X123520361Y-63237649D01*
X123521441Y-63230368D01*
X123523229Y-63223229D01*
X123525709Y-63216299D01*
X123528856Y-63209645D01*
X123532640Y-63203332D01*
X123537024Y-63197421D01*
X123541967Y-63191967D01*
X123547421Y-63187024D01*
X123553332Y-63182640D01*
X123559645Y-63178856D01*
X123566299Y-63175709D01*
X123573229Y-63173229D01*
X123580368Y-63171441D01*
X123587649Y-63170361D01*
X123595000Y-63170000D01*
X123745000Y-63170000D01*
X123752351Y-63170361D01*
G37*
G36*
X124252351Y-63170361D02*
G01*
X124259632Y-63171441D01*
X124266771Y-63173229D01*
X124273701Y-63175709D01*
X124280355Y-63178856D01*
X124286668Y-63182640D01*
X124292579Y-63187024D01*
X124298033Y-63191967D01*
X124302976Y-63197421D01*
X124307360Y-63203332D01*
X124311144Y-63209645D01*
X124314291Y-63216299D01*
X124316771Y-63223229D01*
X124318559Y-63230368D01*
X124319639Y-63237649D01*
X124320000Y-63245000D01*
X124320000Y-65395000D01*
X124319639Y-65402351D01*
X124318559Y-65409632D01*
X124316771Y-65416771D01*
X124314291Y-65423701D01*
X124311144Y-65430355D01*
X124307360Y-65436668D01*
X124302976Y-65442579D01*
X124298033Y-65448033D01*
X124292579Y-65452976D01*
X124286668Y-65457360D01*
X124280355Y-65461144D01*
X124273701Y-65464291D01*
X124266771Y-65466771D01*
X124259632Y-65468559D01*
X124252351Y-65469639D01*
X124245000Y-65470000D01*
X124095000Y-65470000D01*
X124087649Y-65469639D01*
X124080368Y-65468559D01*
X124073229Y-65466771D01*
X124066299Y-65464291D01*
X124059645Y-65461144D01*
X124053332Y-65457360D01*
X124047421Y-65452976D01*
X124041967Y-65448033D01*
X124037024Y-65442579D01*
X124032640Y-65436668D01*
X124028856Y-65430355D01*
X124025709Y-65423701D01*
X124023229Y-65416771D01*
X124021441Y-65409632D01*
X124020361Y-65402351D01*
X124020000Y-65395000D01*
X124020000Y-63245000D01*
X124020361Y-63237649D01*
X124021441Y-63230368D01*
X124023229Y-63223229D01*
X124025709Y-63216299D01*
X124028856Y-63209645D01*
X124032640Y-63203332D01*
X124037024Y-63197421D01*
X124041967Y-63191967D01*
X124047421Y-63187024D01*
X124053332Y-63182640D01*
X124059645Y-63178856D01*
X124066299Y-63175709D01*
X124073229Y-63173229D01*
X124080368Y-63171441D01*
X124087649Y-63170361D01*
X124095000Y-63170000D01*
X124245000Y-63170000D01*
X124252351Y-63170361D01*
G37*
G36*
X124752351Y-63170361D02*
G01*
X124759632Y-63171441D01*
X124766771Y-63173229D01*
X124773701Y-63175709D01*
X124780355Y-63178856D01*
X124786668Y-63182640D01*
X124792579Y-63187024D01*
X124798033Y-63191967D01*
X124802976Y-63197421D01*
X124807360Y-63203332D01*
X124811144Y-63209645D01*
X124814291Y-63216299D01*
X124816771Y-63223229D01*
X124818559Y-63230368D01*
X124819639Y-63237649D01*
X124820000Y-63245000D01*
X124820000Y-65395000D01*
X124819639Y-65402351D01*
X124818559Y-65409632D01*
X124816771Y-65416771D01*
X124814291Y-65423701D01*
X124811144Y-65430355D01*
X124807360Y-65436668D01*
X124802976Y-65442579D01*
X124798033Y-65448033D01*
X124792579Y-65452976D01*
X124786668Y-65457360D01*
X124780355Y-65461144D01*
X124773701Y-65464291D01*
X124766771Y-65466771D01*
X124759632Y-65468559D01*
X124752351Y-65469639D01*
X124745000Y-65470000D01*
X124595000Y-65470000D01*
X124587649Y-65469639D01*
X124580368Y-65468559D01*
X124573229Y-65466771D01*
X124566299Y-65464291D01*
X124559645Y-65461144D01*
X124553332Y-65457360D01*
X124547421Y-65452976D01*
X124541967Y-65448033D01*
X124537024Y-65442579D01*
X124532640Y-65436668D01*
X124528856Y-65430355D01*
X124525709Y-65423701D01*
X124523229Y-65416771D01*
X124521441Y-65409632D01*
X124520361Y-65402351D01*
X124520000Y-65395000D01*
X124520000Y-63245000D01*
X124520361Y-63237649D01*
X124521441Y-63230368D01*
X124523229Y-63223229D01*
X124525709Y-63216299D01*
X124528856Y-63209645D01*
X124532640Y-63203332D01*
X124537024Y-63197421D01*
X124541967Y-63191967D01*
X124547421Y-63187024D01*
X124553332Y-63182640D01*
X124559645Y-63178856D01*
X124566299Y-63175709D01*
X124573229Y-63173229D01*
X124580368Y-63171441D01*
X124587649Y-63170361D01*
X124595000Y-63170000D01*
X124745000Y-63170000D01*
X124752351Y-63170361D01*
G37*
G36*
X125252351Y-63170361D02*
G01*
X125259632Y-63171441D01*
X125266771Y-63173229D01*
X125273701Y-63175709D01*
X125280355Y-63178856D01*
X125286668Y-63182640D01*
X125292579Y-63187024D01*
X125298033Y-63191967D01*
X125302976Y-63197421D01*
X125307360Y-63203332D01*
X125311144Y-63209645D01*
X125314291Y-63216299D01*
X125316771Y-63223229D01*
X125318559Y-63230368D01*
X125319639Y-63237649D01*
X125320000Y-63245000D01*
X125320000Y-65395000D01*
X125319639Y-65402351D01*
X125318559Y-65409632D01*
X125316771Y-65416771D01*
X125314291Y-65423701D01*
X125311144Y-65430355D01*
X125307360Y-65436668D01*
X125302976Y-65442579D01*
X125298033Y-65448033D01*
X125292579Y-65452976D01*
X125286668Y-65457360D01*
X125280355Y-65461144D01*
X125273701Y-65464291D01*
X125266771Y-65466771D01*
X125259632Y-65468559D01*
X125252351Y-65469639D01*
X125245000Y-65470000D01*
X125095000Y-65470000D01*
X125087649Y-65469639D01*
X125080368Y-65468559D01*
X125073229Y-65466771D01*
X125066299Y-65464291D01*
X125059645Y-65461144D01*
X125053332Y-65457360D01*
X125047421Y-65452976D01*
X125041967Y-65448033D01*
X125037024Y-65442579D01*
X125032640Y-65436668D01*
X125028856Y-65430355D01*
X125025709Y-65423701D01*
X125023229Y-65416771D01*
X125021441Y-65409632D01*
X125020361Y-65402351D01*
X125020000Y-65395000D01*
X125020000Y-63245000D01*
X125020361Y-63237649D01*
X125021441Y-63230368D01*
X125023229Y-63223229D01*
X125025709Y-63216299D01*
X125028856Y-63209645D01*
X125032640Y-63203332D01*
X125037024Y-63197421D01*
X125041967Y-63191967D01*
X125047421Y-63187024D01*
X125053332Y-63182640D01*
X125059645Y-63178856D01*
X125066299Y-63175709D01*
X125073229Y-63173229D01*
X125080368Y-63171441D01*
X125087649Y-63170361D01*
X125095000Y-63170000D01*
X125245000Y-63170000D01*
X125252351Y-63170361D01*
G37*
G36*
X125752351Y-63170361D02*
G01*
X125759632Y-63171441D01*
X125766771Y-63173229D01*
X125773701Y-63175709D01*
X125780355Y-63178856D01*
X125786668Y-63182640D01*
X125792579Y-63187024D01*
X125798033Y-63191967D01*
X125802976Y-63197421D01*
X125807360Y-63203332D01*
X125811144Y-63209645D01*
X125814291Y-63216299D01*
X125816771Y-63223229D01*
X125818559Y-63230368D01*
X125819639Y-63237649D01*
X125820000Y-63245000D01*
X125820000Y-65395000D01*
X125819639Y-65402351D01*
X125818559Y-65409632D01*
X125816771Y-65416771D01*
X125814291Y-65423701D01*
X125811144Y-65430355D01*
X125807360Y-65436668D01*
X125802976Y-65442579D01*
X125798033Y-65448033D01*
X125792579Y-65452976D01*
X125786668Y-65457360D01*
X125780355Y-65461144D01*
X125773701Y-65464291D01*
X125766771Y-65466771D01*
X125759632Y-65468559D01*
X125752351Y-65469639D01*
X125745000Y-65470000D01*
X125595000Y-65470000D01*
X125587649Y-65469639D01*
X125580368Y-65468559D01*
X125573229Y-65466771D01*
X125566299Y-65464291D01*
X125559645Y-65461144D01*
X125553332Y-65457360D01*
X125547421Y-65452976D01*
X125541967Y-65448033D01*
X125537024Y-65442579D01*
X125532640Y-65436668D01*
X125528856Y-65430355D01*
X125525709Y-65423701D01*
X125523229Y-65416771D01*
X125521441Y-65409632D01*
X125520361Y-65402351D01*
X125520000Y-65395000D01*
X125520000Y-63245000D01*
X125520361Y-63237649D01*
X125521441Y-63230368D01*
X125523229Y-63223229D01*
X125525709Y-63216299D01*
X125528856Y-63209645D01*
X125532640Y-63203332D01*
X125537024Y-63197421D01*
X125541967Y-63191967D01*
X125547421Y-63187024D01*
X125553332Y-63182640D01*
X125559645Y-63178856D01*
X125566299Y-63175709D01*
X125573229Y-63173229D01*
X125580368Y-63171441D01*
X125587649Y-63170361D01*
X125595000Y-63170000D01*
X125745000Y-63170000D01*
X125752351Y-63170361D01*
G37*
D11*
X125025000Y-56145000D03*
D12*
X124225000Y-56145000D03*
D11*
X122625000Y-56145000D03*
D12*
X123425000Y-56145000D03*
D11*
X125025000Y-54345000D03*
D12*
X123425000Y-54345000D03*
X124225000Y-54345000D03*
D11*
X122625000Y-54345000D03*
M02*
