%TF.GenerationSoftware,KiCad,Pcbnew,(5.1.5-0-10_14)*%
%TF.CreationDate,2021-03-11T16:13:23+01:00*%
%TF.ProjectId,C64-ROM-Adapter-LB,4336342d-524f-44d2-9d41-646170746572,1.1*%
%TF.SameCoordinates,Original*%
%TF.FileFunction,Copper,L2,Bot*%
%TF.FilePolarity,Positive*%
%FSLAX46Y46*%
G04 Gerber Fmt 4.6, Leading zero omitted, Abs format (unit mm)*
G04 Created by KiCad (PCBNEW (5.1.5-0-10_14)) date 2021-03-11 16:13:23*
%MOMM*%
%LPD*%
G04 APERTURE LIST*
%ADD10C,0.050000*%
%ADD11R,0.500000X0.800000*%
%ADD12R,0.400000X0.800000*%
%ADD13O,1.600000X1.600000*%
%ADD14R,1.600000X1.600000*%
%ADD15C,0.150000*%
%ADD16C,1.000000*%
%ADD17C,1.700000*%
%ADD18C,0.400000*%
%ADD19C,0.200000*%
%ADD20C,0.508000*%
%ADD21C,0.254000*%
G04 APERTURE END LIST*
D10*
X122809000Y-48895000D02*
X130810000Y-48895000D01*
X122809000Y-48895000D02*
G75*
G02X121031000Y-48895000I-889000J0D01*
G01*
X131445000Y-80010000D02*
G75*
G02X130810000Y-80645000I-635000J0D01*
G01*
X113030000Y-80645000D02*
G75*
G02X112395000Y-80010000I0J635000D01*
G01*
X112395000Y-49530000D02*
G75*
G02X113030000Y-48895000I635000J0D01*
G01*
X130810000Y-48895000D02*
G75*
G02X131445000Y-49530000I0J-635000D01*
G01*
X112395000Y-80010000D02*
X112395000Y-49530000D01*
X130810000Y-80645000D02*
X113030000Y-80645000D01*
X131445000Y-49530000D02*
X131445000Y-80010000D01*
X113030000Y-48895000D02*
X121031000Y-48895000D01*
D11*
X121215000Y-56145000D03*
D12*
X120415000Y-56145000D03*
D11*
X118815000Y-56145000D03*
D12*
X119615000Y-56145000D03*
D11*
X121215000Y-54345000D03*
D12*
X119615000Y-54345000D03*
X120415000Y-54345000D03*
D11*
X118815000Y-54345000D03*
D13*
X129540000Y-50800000D03*
X114300000Y-78740000D03*
X129540000Y-53340000D03*
X114300000Y-76200000D03*
X129540000Y-55880000D03*
X114300000Y-73660000D03*
X129540000Y-58420000D03*
X114300000Y-71120000D03*
X129540000Y-60960000D03*
X114300000Y-68580000D03*
X129540000Y-63500000D03*
X114300000Y-66040000D03*
X129540000Y-66040000D03*
X114300000Y-63500000D03*
X129540000Y-68580000D03*
X114300000Y-60960000D03*
X129540000Y-71120000D03*
X114300000Y-58420000D03*
X129540000Y-73660000D03*
X114300000Y-55880000D03*
X129540000Y-76200000D03*
X114300000Y-53340000D03*
X129540000Y-78740000D03*
D14*
X114300000Y-50800000D03*
%TA.AperFunction,SMDPad,CuDef*%
D15*
G36*
X125752351Y-76770361D02*
G01*
X125759632Y-76771441D01*
X125766771Y-76773229D01*
X125773701Y-76775709D01*
X125780355Y-76778856D01*
X125786668Y-76782640D01*
X125792579Y-76787024D01*
X125798033Y-76791967D01*
X125802976Y-76797421D01*
X125807360Y-76803332D01*
X125811144Y-76809645D01*
X125814291Y-76816299D01*
X125816771Y-76823229D01*
X125818559Y-76830368D01*
X125819639Y-76837649D01*
X125820000Y-76845000D01*
X125820000Y-78995000D01*
X125819639Y-79002351D01*
X125818559Y-79009632D01*
X125816771Y-79016771D01*
X125814291Y-79023701D01*
X125811144Y-79030355D01*
X125807360Y-79036668D01*
X125802976Y-79042579D01*
X125798033Y-79048033D01*
X125792579Y-79052976D01*
X125786668Y-79057360D01*
X125780355Y-79061144D01*
X125773701Y-79064291D01*
X125766771Y-79066771D01*
X125759632Y-79068559D01*
X125752351Y-79069639D01*
X125745000Y-79070000D01*
X125595000Y-79070000D01*
X125587649Y-79069639D01*
X125580368Y-79068559D01*
X125573229Y-79066771D01*
X125566299Y-79064291D01*
X125559645Y-79061144D01*
X125553332Y-79057360D01*
X125547421Y-79052976D01*
X125541967Y-79048033D01*
X125537024Y-79042579D01*
X125532640Y-79036668D01*
X125528856Y-79030355D01*
X125525709Y-79023701D01*
X125523229Y-79016771D01*
X125521441Y-79009632D01*
X125520361Y-79002351D01*
X125520000Y-78995000D01*
X125520000Y-76845000D01*
X125520361Y-76837649D01*
X125521441Y-76830368D01*
X125523229Y-76823229D01*
X125525709Y-76816299D01*
X125528856Y-76809645D01*
X125532640Y-76803332D01*
X125537024Y-76797421D01*
X125541967Y-76791967D01*
X125547421Y-76787024D01*
X125553332Y-76782640D01*
X125559645Y-76778856D01*
X125566299Y-76775709D01*
X125573229Y-76773229D01*
X125580368Y-76771441D01*
X125587649Y-76770361D01*
X125595000Y-76770000D01*
X125745000Y-76770000D01*
X125752351Y-76770361D01*
G37*
%TD.AperFunction*%
%TA.AperFunction,SMDPad,CuDef*%
G36*
X125252351Y-76770361D02*
G01*
X125259632Y-76771441D01*
X125266771Y-76773229D01*
X125273701Y-76775709D01*
X125280355Y-76778856D01*
X125286668Y-76782640D01*
X125292579Y-76787024D01*
X125298033Y-76791967D01*
X125302976Y-76797421D01*
X125307360Y-76803332D01*
X125311144Y-76809645D01*
X125314291Y-76816299D01*
X125316771Y-76823229D01*
X125318559Y-76830368D01*
X125319639Y-76837649D01*
X125320000Y-76845000D01*
X125320000Y-78995000D01*
X125319639Y-79002351D01*
X125318559Y-79009632D01*
X125316771Y-79016771D01*
X125314291Y-79023701D01*
X125311144Y-79030355D01*
X125307360Y-79036668D01*
X125302976Y-79042579D01*
X125298033Y-79048033D01*
X125292579Y-79052976D01*
X125286668Y-79057360D01*
X125280355Y-79061144D01*
X125273701Y-79064291D01*
X125266771Y-79066771D01*
X125259632Y-79068559D01*
X125252351Y-79069639D01*
X125245000Y-79070000D01*
X125095000Y-79070000D01*
X125087649Y-79069639D01*
X125080368Y-79068559D01*
X125073229Y-79066771D01*
X125066299Y-79064291D01*
X125059645Y-79061144D01*
X125053332Y-79057360D01*
X125047421Y-79052976D01*
X125041967Y-79048033D01*
X125037024Y-79042579D01*
X125032640Y-79036668D01*
X125028856Y-79030355D01*
X125025709Y-79023701D01*
X125023229Y-79016771D01*
X125021441Y-79009632D01*
X125020361Y-79002351D01*
X125020000Y-78995000D01*
X125020000Y-76845000D01*
X125020361Y-76837649D01*
X125021441Y-76830368D01*
X125023229Y-76823229D01*
X125025709Y-76816299D01*
X125028856Y-76809645D01*
X125032640Y-76803332D01*
X125037024Y-76797421D01*
X125041967Y-76791967D01*
X125047421Y-76787024D01*
X125053332Y-76782640D01*
X125059645Y-76778856D01*
X125066299Y-76775709D01*
X125073229Y-76773229D01*
X125080368Y-76771441D01*
X125087649Y-76770361D01*
X125095000Y-76770000D01*
X125245000Y-76770000D01*
X125252351Y-76770361D01*
G37*
%TD.AperFunction*%
%TA.AperFunction,SMDPad,CuDef*%
G36*
X124752351Y-76770361D02*
G01*
X124759632Y-76771441D01*
X124766771Y-76773229D01*
X124773701Y-76775709D01*
X124780355Y-76778856D01*
X124786668Y-76782640D01*
X124792579Y-76787024D01*
X124798033Y-76791967D01*
X124802976Y-76797421D01*
X124807360Y-76803332D01*
X124811144Y-76809645D01*
X124814291Y-76816299D01*
X124816771Y-76823229D01*
X124818559Y-76830368D01*
X124819639Y-76837649D01*
X124820000Y-76845000D01*
X124820000Y-78995000D01*
X124819639Y-79002351D01*
X124818559Y-79009632D01*
X124816771Y-79016771D01*
X124814291Y-79023701D01*
X124811144Y-79030355D01*
X124807360Y-79036668D01*
X124802976Y-79042579D01*
X124798033Y-79048033D01*
X124792579Y-79052976D01*
X124786668Y-79057360D01*
X124780355Y-79061144D01*
X124773701Y-79064291D01*
X124766771Y-79066771D01*
X124759632Y-79068559D01*
X124752351Y-79069639D01*
X124745000Y-79070000D01*
X124595000Y-79070000D01*
X124587649Y-79069639D01*
X124580368Y-79068559D01*
X124573229Y-79066771D01*
X124566299Y-79064291D01*
X124559645Y-79061144D01*
X124553332Y-79057360D01*
X124547421Y-79052976D01*
X124541967Y-79048033D01*
X124537024Y-79042579D01*
X124532640Y-79036668D01*
X124528856Y-79030355D01*
X124525709Y-79023701D01*
X124523229Y-79016771D01*
X124521441Y-79009632D01*
X124520361Y-79002351D01*
X124520000Y-78995000D01*
X124520000Y-76845000D01*
X124520361Y-76837649D01*
X124521441Y-76830368D01*
X124523229Y-76823229D01*
X124525709Y-76816299D01*
X124528856Y-76809645D01*
X124532640Y-76803332D01*
X124537024Y-76797421D01*
X124541967Y-76791967D01*
X124547421Y-76787024D01*
X124553332Y-76782640D01*
X124559645Y-76778856D01*
X124566299Y-76775709D01*
X124573229Y-76773229D01*
X124580368Y-76771441D01*
X124587649Y-76770361D01*
X124595000Y-76770000D01*
X124745000Y-76770000D01*
X124752351Y-76770361D01*
G37*
%TD.AperFunction*%
%TA.AperFunction,SMDPad,CuDef*%
G36*
X124252351Y-76770361D02*
G01*
X124259632Y-76771441D01*
X124266771Y-76773229D01*
X124273701Y-76775709D01*
X124280355Y-76778856D01*
X124286668Y-76782640D01*
X124292579Y-76787024D01*
X124298033Y-76791967D01*
X124302976Y-76797421D01*
X124307360Y-76803332D01*
X124311144Y-76809645D01*
X124314291Y-76816299D01*
X124316771Y-76823229D01*
X124318559Y-76830368D01*
X124319639Y-76837649D01*
X124320000Y-76845000D01*
X124320000Y-78995000D01*
X124319639Y-79002351D01*
X124318559Y-79009632D01*
X124316771Y-79016771D01*
X124314291Y-79023701D01*
X124311144Y-79030355D01*
X124307360Y-79036668D01*
X124302976Y-79042579D01*
X124298033Y-79048033D01*
X124292579Y-79052976D01*
X124286668Y-79057360D01*
X124280355Y-79061144D01*
X124273701Y-79064291D01*
X124266771Y-79066771D01*
X124259632Y-79068559D01*
X124252351Y-79069639D01*
X124245000Y-79070000D01*
X124095000Y-79070000D01*
X124087649Y-79069639D01*
X124080368Y-79068559D01*
X124073229Y-79066771D01*
X124066299Y-79064291D01*
X124059645Y-79061144D01*
X124053332Y-79057360D01*
X124047421Y-79052976D01*
X124041967Y-79048033D01*
X124037024Y-79042579D01*
X124032640Y-79036668D01*
X124028856Y-79030355D01*
X124025709Y-79023701D01*
X124023229Y-79016771D01*
X124021441Y-79009632D01*
X124020361Y-79002351D01*
X124020000Y-78995000D01*
X124020000Y-76845000D01*
X124020361Y-76837649D01*
X124021441Y-76830368D01*
X124023229Y-76823229D01*
X124025709Y-76816299D01*
X124028856Y-76809645D01*
X124032640Y-76803332D01*
X124037024Y-76797421D01*
X124041967Y-76791967D01*
X124047421Y-76787024D01*
X124053332Y-76782640D01*
X124059645Y-76778856D01*
X124066299Y-76775709D01*
X124073229Y-76773229D01*
X124080368Y-76771441D01*
X124087649Y-76770361D01*
X124095000Y-76770000D01*
X124245000Y-76770000D01*
X124252351Y-76770361D01*
G37*
%TD.AperFunction*%
%TA.AperFunction,SMDPad,CuDef*%
G36*
X123752351Y-76770361D02*
G01*
X123759632Y-76771441D01*
X123766771Y-76773229D01*
X123773701Y-76775709D01*
X123780355Y-76778856D01*
X123786668Y-76782640D01*
X123792579Y-76787024D01*
X123798033Y-76791967D01*
X123802976Y-76797421D01*
X123807360Y-76803332D01*
X123811144Y-76809645D01*
X123814291Y-76816299D01*
X123816771Y-76823229D01*
X123818559Y-76830368D01*
X123819639Y-76837649D01*
X123820000Y-76845000D01*
X123820000Y-78995000D01*
X123819639Y-79002351D01*
X123818559Y-79009632D01*
X123816771Y-79016771D01*
X123814291Y-79023701D01*
X123811144Y-79030355D01*
X123807360Y-79036668D01*
X123802976Y-79042579D01*
X123798033Y-79048033D01*
X123792579Y-79052976D01*
X123786668Y-79057360D01*
X123780355Y-79061144D01*
X123773701Y-79064291D01*
X123766771Y-79066771D01*
X123759632Y-79068559D01*
X123752351Y-79069639D01*
X123745000Y-79070000D01*
X123595000Y-79070000D01*
X123587649Y-79069639D01*
X123580368Y-79068559D01*
X123573229Y-79066771D01*
X123566299Y-79064291D01*
X123559645Y-79061144D01*
X123553332Y-79057360D01*
X123547421Y-79052976D01*
X123541967Y-79048033D01*
X123537024Y-79042579D01*
X123532640Y-79036668D01*
X123528856Y-79030355D01*
X123525709Y-79023701D01*
X123523229Y-79016771D01*
X123521441Y-79009632D01*
X123520361Y-79002351D01*
X123520000Y-78995000D01*
X123520000Y-76845000D01*
X123520361Y-76837649D01*
X123521441Y-76830368D01*
X123523229Y-76823229D01*
X123525709Y-76816299D01*
X123528856Y-76809645D01*
X123532640Y-76803332D01*
X123537024Y-76797421D01*
X123541967Y-76791967D01*
X123547421Y-76787024D01*
X123553332Y-76782640D01*
X123559645Y-76778856D01*
X123566299Y-76775709D01*
X123573229Y-76773229D01*
X123580368Y-76771441D01*
X123587649Y-76770361D01*
X123595000Y-76770000D01*
X123745000Y-76770000D01*
X123752351Y-76770361D01*
G37*
%TD.AperFunction*%
%TA.AperFunction,SMDPad,CuDef*%
G36*
X123252351Y-76770361D02*
G01*
X123259632Y-76771441D01*
X123266771Y-76773229D01*
X123273701Y-76775709D01*
X123280355Y-76778856D01*
X123286668Y-76782640D01*
X123292579Y-76787024D01*
X123298033Y-76791967D01*
X123302976Y-76797421D01*
X123307360Y-76803332D01*
X123311144Y-76809645D01*
X123314291Y-76816299D01*
X123316771Y-76823229D01*
X123318559Y-76830368D01*
X123319639Y-76837649D01*
X123320000Y-76845000D01*
X123320000Y-78995000D01*
X123319639Y-79002351D01*
X123318559Y-79009632D01*
X123316771Y-79016771D01*
X123314291Y-79023701D01*
X123311144Y-79030355D01*
X123307360Y-79036668D01*
X123302976Y-79042579D01*
X123298033Y-79048033D01*
X123292579Y-79052976D01*
X123286668Y-79057360D01*
X123280355Y-79061144D01*
X123273701Y-79064291D01*
X123266771Y-79066771D01*
X123259632Y-79068559D01*
X123252351Y-79069639D01*
X123245000Y-79070000D01*
X123095000Y-79070000D01*
X123087649Y-79069639D01*
X123080368Y-79068559D01*
X123073229Y-79066771D01*
X123066299Y-79064291D01*
X123059645Y-79061144D01*
X123053332Y-79057360D01*
X123047421Y-79052976D01*
X123041967Y-79048033D01*
X123037024Y-79042579D01*
X123032640Y-79036668D01*
X123028856Y-79030355D01*
X123025709Y-79023701D01*
X123023229Y-79016771D01*
X123021441Y-79009632D01*
X123020361Y-79002351D01*
X123020000Y-78995000D01*
X123020000Y-76845000D01*
X123020361Y-76837649D01*
X123021441Y-76830368D01*
X123023229Y-76823229D01*
X123025709Y-76816299D01*
X123028856Y-76809645D01*
X123032640Y-76803332D01*
X123037024Y-76797421D01*
X123041967Y-76791967D01*
X123047421Y-76787024D01*
X123053332Y-76782640D01*
X123059645Y-76778856D01*
X123066299Y-76775709D01*
X123073229Y-76773229D01*
X123080368Y-76771441D01*
X123087649Y-76770361D01*
X123095000Y-76770000D01*
X123245000Y-76770000D01*
X123252351Y-76770361D01*
G37*
%TD.AperFunction*%
%TA.AperFunction,SMDPad,CuDef*%
G36*
X122752351Y-76770361D02*
G01*
X122759632Y-76771441D01*
X122766771Y-76773229D01*
X122773701Y-76775709D01*
X122780355Y-76778856D01*
X122786668Y-76782640D01*
X122792579Y-76787024D01*
X122798033Y-76791967D01*
X122802976Y-76797421D01*
X122807360Y-76803332D01*
X122811144Y-76809645D01*
X122814291Y-76816299D01*
X122816771Y-76823229D01*
X122818559Y-76830368D01*
X122819639Y-76837649D01*
X122820000Y-76845000D01*
X122820000Y-78995000D01*
X122819639Y-79002351D01*
X122818559Y-79009632D01*
X122816771Y-79016771D01*
X122814291Y-79023701D01*
X122811144Y-79030355D01*
X122807360Y-79036668D01*
X122802976Y-79042579D01*
X122798033Y-79048033D01*
X122792579Y-79052976D01*
X122786668Y-79057360D01*
X122780355Y-79061144D01*
X122773701Y-79064291D01*
X122766771Y-79066771D01*
X122759632Y-79068559D01*
X122752351Y-79069639D01*
X122745000Y-79070000D01*
X122595000Y-79070000D01*
X122587649Y-79069639D01*
X122580368Y-79068559D01*
X122573229Y-79066771D01*
X122566299Y-79064291D01*
X122559645Y-79061144D01*
X122553332Y-79057360D01*
X122547421Y-79052976D01*
X122541967Y-79048033D01*
X122537024Y-79042579D01*
X122532640Y-79036668D01*
X122528856Y-79030355D01*
X122525709Y-79023701D01*
X122523229Y-79016771D01*
X122521441Y-79009632D01*
X122520361Y-79002351D01*
X122520000Y-78995000D01*
X122520000Y-76845000D01*
X122520361Y-76837649D01*
X122521441Y-76830368D01*
X122523229Y-76823229D01*
X122525709Y-76816299D01*
X122528856Y-76809645D01*
X122532640Y-76803332D01*
X122537024Y-76797421D01*
X122541967Y-76791967D01*
X122547421Y-76787024D01*
X122553332Y-76782640D01*
X122559645Y-76778856D01*
X122566299Y-76775709D01*
X122573229Y-76773229D01*
X122580368Y-76771441D01*
X122587649Y-76770361D01*
X122595000Y-76770000D01*
X122745000Y-76770000D01*
X122752351Y-76770361D01*
G37*
%TD.AperFunction*%
%TA.AperFunction,SMDPad,CuDef*%
G36*
X122252351Y-76770361D02*
G01*
X122259632Y-76771441D01*
X122266771Y-76773229D01*
X122273701Y-76775709D01*
X122280355Y-76778856D01*
X122286668Y-76782640D01*
X122292579Y-76787024D01*
X122298033Y-76791967D01*
X122302976Y-76797421D01*
X122307360Y-76803332D01*
X122311144Y-76809645D01*
X122314291Y-76816299D01*
X122316771Y-76823229D01*
X122318559Y-76830368D01*
X122319639Y-76837649D01*
X122320000Y-76845000D01*
X122320000Y-78995000D01*
X122319639Y-79002351D01*
X122318559Y-79009632D01*
X122316771Y-79016771D01*
X122314291Y-79023701D01*
X122311144Y-79030355D01*
X122307360Y-79036668D01*
X122302976Y-79042579D01*
X122298033Y-79048033D01*
X122292579Y-79052976D01*
X122286668Y-79057360D01*
X122280355Y-79061144D01*
X122273701Y-79064291D01*
X122266771Y-79066771D01*
X122259632Y-79068559D01*
X122252351Y-79069639D01*
X122245000Y-79070000D01*
X122095000Y-79070000D01*
X122087649Y-79069639D01*
X122080368Y-79068559D01*
X122073229Y-79066771D01*
X122066299Y-79064291D01*
X122059645Y-79061144D01*
X122053332Y-79057360D01*
X122047421Y-79052976D01*
X122041967Y-79048033D01*
X122037024Y-79042579D01*
X122032640Y-79036668D01*
X122028856Y-79030355D01*
X122025709Y-79023701D01*
X122023229Y-79016771D01*
X122021441Y-79009632D01*
X122020361Y-79002351D01*
X122020000Y-78995000D01*
X122020000Y-76845000D01*
X122020361Y-76837649D01*
X122021441Y-76830368D01*
X122023229Y-76823229D01*
X122025709Y-76816299D01*
X122028856Y-76809645D01*
X122032640Y-76803332D01*
X122037024Y-76797421D01*
X122041967Y-76791967D01*
X122047421Y-76787024D01*
X122053332Y-76782640D01*
X122059645Y-76778856D01*
X122066299Y-76775709D01*
X122073229Y-76773229D01*
X122080368Y-76771441D01*
X122087649Y-76770361D01*
X122095000Y-76770000D01*
X122245000Y-76770000D01*
X122252351Y-76770361D01*
G37*
%TD.AperFunction*%
%TA.AperFunction,SMDPad,CuDef*%
G36*
X121752351Y-76770361D02*
G01*
X121759632Y-76771441D01*
X121766771Y-76773229D01*
X121773701Y-76775709D01*
X121780355Y-76778856D01*
X121786668Y-76782640D01*
X121792579Y-76787024D01*
X121798033Y-76791967D01*
X121802976Y-76797421D01*
X121807360Y-76803332D01*
X121811144Y-76809645D01*
X121814291Y-76816299D01*
X121816771Y-76823229D01*
X121818559Y-76830368D01*
X121819639Y-76837649D01*
X121820000Y-76845000D01*
X121820000Y-78995000D01*
X121819639Y-79002351D01*
X121818559Y-79009632D01*
X121816771Y-79016771D01*
X121814291Y-79023701D01*
X121811144Y-79030355D01*
X121807360Y-79036668D01*
X121802976Y-79042579D01*
X121798033Y-79048033D01*
X121792579Y-79052976D01*
X121786668Y-79057360D01*
X121780355Y-79061144D01*
X121773701Y-79064291D01*
X121766771Y-79066771D01*
X121759632Y-79068559D01*
X121752351Y-79069639D01*
X121745000Y-79070000D01*
X121595000Y-79070000D01*
X121587649Y-79069639D01*
X121580368Y-79068559D01*
X121573229Y-79066771D01*
X121566299Y-79064291D01*
X121559645Y-79061144D01*
X121553332Y-79057360D01*
X121547421Y-79052976D01*
X121541967Y-79048033D01*
X121537024Y-79042579D01*
X121532640Y-79036668D01*
X121528856Y-79030355D01*
X121525709Y-79023701D01*
X121523229Y-79016771D01*
X121521441Y-79009632D01*
X121520361Y-79002351D01*
X121520000Y-78995000D01*
X121520000Y-76845000D01*
X121520361Y-76837649D01*
X121521441Y-76830368D01*
X121523229Y-76823229D01*
X121525709Y-76816299D01*
X121528856Y-76809645D01*
X121532640Y-76803332D01*
X121537024Y-76797421D01*
X121541967Y-76791967D01*
X121547421Y-76787024D01*
X121553332Y-76782640D01*
X121559645Y-76778856D01*
X121566299Y-76775709D01*
X121573229Y-76773229D01*
X121580368Y-76771441D01*
X121587649Y-76770361D01*
X121595000Y-76770000D01*
X121745000Y-76770000D01*
X121752351Y-76770361D01*
G37*
%TD.AperFunction*%
%TA.AperFunction,SMDPad,CuDef*%
G36*
X121252351Y-76770361D02*
G01*
X121259632Y-76771441D01*
X121266771Y-76773229D01*
X121273701Y-76775709D01*
X121280355Y-76778856D01*
X121286668Y-76782640D01*
X121292579Y-76787024D01*
X121298033Y-76791967D01*
X121302976Y-76797421D01*
X121307360Y-76803332D01*
X121311144Y-76809645D01*
X121314291Y-76816299D01*
X121316771Y-76823229D01*
X121318559Y-76830368D01*
X121319639Y-76837649D01*
X121320000Y-76845000D01*
X121320000Y-78995000D01*
X121319639Y-79002351D01*
X121318559Y-79009632D01*
X121316771Y-79016771D01*
X121314291Y-79023701D01*
X121311144Y-79030355D01*
X121307360Y-79036668D01*
X121302976Y-79042579D01*
X121298033Y-79048033D01*
X121292579Y-79052976D01*
X121286668Y-79057360D01*
X121280355Y-79061144D01*
X121273701Y-79064291D01*
X121266771Y-79066771D01*
X121259632Y-79068559D01*
X121252351Y-79069639D01*
X121245000Y-79070000D01*
X121095000Y-79070000D01*
X121087649Y-79069639D01*
X121080368Y-79068559D01*
X121073229Y-79066771D01*
X121066299Y-79064291D01*
X121059645Y-79061144D01*
X121053332Y-79057360D01*
X121047421Y-79052976D01*
X121041967Y-79048033D01*
X121037024Y-79042579D01*
X121032640Y-79036668D01*
X121028856Y-79030355D01*
X121025709Y-79023701D01*
X121023229Y-79016771D01*
X121021441Y-79009632D01*
X121020361Y-79002351D01*
X121020000Y-78995000D01*
X121020000Y-76845000D01*
X121020361Y-76837649D01*
X121021441Y-76830368D01*
X121023229Y-76823229D01*
X121025709Y-76816299D01*
X121028856Y-76809645D01*
X121032640Y-76803332D01*
X121037024Y-76797421D01*
X121041967Y-76791967D01*
X121047421Y-76787024D01*
X121053332Y-76782640D01*
X121059645Y-76778856D01*
X121066299Y-76775709D01*
X121073229Y-76773229D01*
X121080368Y-76771441D01*
X121087649Y-76770361D01*
X121095000Y-76770000D01*
X121245000Y-76770000D01*
X121252351Y-76770361D01*
G37*
%TD.AperFunction*%
%TA.AperFunction,SMDPad,CuDef*%
G36*
X120752351Y-76770361D02*
G01*
X120759632Y-76771441D01*
X120766771Y-76773229D01*
X120773701Y-76775709D01*
X120780355Y-76778856D01*
X120786668Y-76782640D01*
X120792579Y-76787024D01*
X120798033Y-76791967D01*
X120802976Y-76797421D01*
X120807360Y-76803332D01*
X120811144Y-76809645D01*
X120814291Y-76816299D01*
X120816771Y-76823229D01*
X120818559Y-76830368D01*
X120819639Y-76837649D01*
X120820000Y-76845000D01*
X120820000Y-78995000D01*
X120819639Y-79002351D01*
X120818559Y-79009632D01*
X120816771Y-79016771D01*
X120814291Y-79023701D01*
X120811144Y-79030355D01*
X120807360Y-79036668D01*
X120802976Y-79042579D01*
X120798033Y-79048033D01*
X120792579Y-79052976D01*
X120786668Y-79057360D01*
X120780355Y-79061144D01*
X120773701Y-79064291D01*
X120766771Y-79066771D01*
X120759632Y-79068559D01*
X120752351Y-79069639D01*
X120745000Y-79070000D01*
X120595000Y-79070000D01*
X120587649Y-79069639D01*
X120580368Y-79068559D01*
X120573229Y-79066771D01*
X120566299Y-79064291D01*
X120559645Y-79061144D01*
X120553332Y-79057360D01*
X120547421Y-79052976D01*
X120541967Y-79048033D01*
X120537024Y-79042579D01*
X120532640Y-79036668D01*
X120528856Y-79030355D01*
X120525709Y-79023701D01*
X120523229Y-79016771D01*
X120521441Y-79009632D01*
X120520361Y-79002351D01*
X120520000Y-78995000D01*
X120520000Y-76845000D01*
X120520361Y-76837649D01*
X120521441Y-76830368D01*
X120523229Y-76823229D01*
X120525709Y-76816299D01*
X120528856Y-76809645D01*
X120532640Y-76803332D01*
X120537024Y-76797421D01*
X120541967Y-76791967D01*
X120547421Y-76787024D01*
X120553332Y-76782640D01*
X120559645Y-76778856D01*
X120566299Y-76775709D01*
X120573229Y-76773229D01*
X120580368Y-76771441D01*
X120587649Y-76770361D01*
X120595000Y-76770000D01*
X120745000Y-76770000D01*
X120752351Y-76770361D01*
G37*
%TD.AperFunction*%
%TA.AperFunction,SMDPad,CuDef*%
G36*
X120252351Y-76770361D02*
G01*
X120259632Y-76771441D01*
X120266771Y-76773229D01*
X120273701Y-76775709D01*
X120280355Y-76778856D01*
X120286668Y-76782640D01*
X120292579Y-76787024D01*
X120298033Y-76791967D01*
X120302976Y-76797421D01*
X120307360Y-76803332D01*
X120311144Y-76809645D01*
X120314291Y-76816299D01*
X120316771Y-76823229D01*
X120318559Y-76830368D01*
X120319639Y-76837649D01*
X120320000Y-76845000D01*
X120320000Y-78995000D01*
X120319639Y-79002351D01*
X120318559Y-79009632D01*
X120316771Y-79016771D01*
X120314291Y-79023701D01*
X120311144Y-79030355D01*
X120307360Y-79036668D01*
X120302976Y-79042579D01*
X120298033Y-79048033D01*
X120292579Y-79052976D01*
X120286668Y-79057360D01*
X120280355Y-79061144D01*
X120273701Y-79064291D01*
X120266771Y-79066771D01*
X120259632Y-79068559D01*
X120252351Y-79069639D01*
X120245000Y-79070000D01*
X120095000Y-79070000D01*
X120087649Y-79069639D01*
X120080368Y-79068559D01*
X120073229Y-79066771D01*
X120066299Y-79064291D01*
X120059645Y-79061144D01*
X120053332Y-79057360D01*
X120047421Y-79052976D01*
X120041967Y-79048033D01*
X120037024Y-79042579D01*
X120032640Y-79036668D01*
X120028856Y-79030355D01*
X120025709Y-79023701D01*
X120023229Y-79016771D01*
X120021441Y-79009632D01*
X120020361Y-79002351D01*
X120020000Y-78995000D01*
X120020000Y-76845000D01*
X120020361Y-76837649D01*
X120021441Y-76830368D01*
X120023229Y-76823229D01*
X120025709Y-76816299D01*
X120028856Y-76809645D01*
X120032640Y-76803332D01*
X120037024Y-76797421D01*
X120041967Y-76791967D01*
X120047421Y-76787024D01*
X120053332Y-76782640D01*
X120059645Y-76778856D01*
X120066299Y-76775709D01*
X120073229Y-76773229D01*
X120080368Y-76771441D01*
X120087649Y-76770361D01*
X120095000Y-76770000D01*
X120245000Y-76770000D01*
X120252351Y-76770361D01*
G37*
%TD.AperFunction*%
%TA.AperFunction,SMDPad,CuDef*%
G36*
X119752351Y-76770361D02*
G01*
X119759632Y-76771441D01*
X119766771Y-76773229D01*
X119773701Y-76775709D01*
X119780355Y-76778856D01*
X119786668Y-76782640D01*
X119792579Y-76787024D01*
X119798033Y-76791967D01*
X119802976Y-76797421D01*
X119807360Y-76803332D01*
X119811144Y-76809645D01*
X119814291Y-76816299D01*
X119816771Y-76823229D01*
X119818559Y-76830368D01*
X119819639Y-76837649D01*
X119820000Y-76845000D01*
X119820000Y-78995000D01*
X119819639Y-79002351D01*
X119818559Y-79009632D01*
X119816771Y-79016771D01*
X119814291Y-79023701D01*
X119811144Y-79030355D01*
X119807360Y-79036668D01*
X119802976Y-79042579D01*
X119798033Y-79048033D01*
X119792579Y-79052976D01*
X119786668Y-79057360D01*
X119780355Y-79061144D01*
X119773701Y-79064291D01*
X119766771Y-79066771D01*
X119759632Y-79068559D01*
X119752351Y-79069639D01*
X119745000Y-79070000D01*
X119595000Y-79070000D01*
X119587649Y-79069639D01*
X119580368Y-79068559D01*
X119573229Y-79066771D01*
X119566299Y-79064291D01*
X119559645Y-79061144D01*
X119553332Y-79057360D01*
X119547421Y-79052976D01*
X119541967Y-79048033D01*
X119537024Y-79042579D01*
X119532640Y-79036668D01*
X119528856Y-79030355D01*
X119525709Y-79023701D01*
X119523229Y-79016771D01*
X119521441Y-79009632D01*
X119520361Y-79002351D01*
X119520000Y-78995000D01*
X119520000Y-76845000D01*
X119520361Y-76837649D01*
X119521441Y-76830368D01*
X119523229Y-76823229D01*
X119525709Y-76816299D01*
X119528856Y-76809645D01*
X119532640Y-76803332D01*
X119537024Y-76797421D01*
X119541967Y-76791967D01*
X119547421Y-76787024D01*
X119553332Y-76782640D01*
X119559645Y-76778856D01*
X119566299Y-76775709D01*
X119573229Y-76773229D01*
X119580368Y-76771441D01*
X119587649Y-76770361D01*
X119595000Y-76770000D01*
X119745000Y-76770000D01*
X119752351Y-76770361D01*
G37*
%TD.AperFunction*%
%TA.AperFunction,SMDPad,CuDef*%
G36*
X119252351Y-76770361D02*
G01*
X119259632Y-76771441D01*
X119266771Y-76773229D01*
X119273701Y-76775709D01*
X119280355Y-76778856D01*
X119286668Y-76782640D01*
X119292579Y-76787024D01*
X119298033Y-76791967D01*
X119302976Y-76797421D01*
X119307360Y-76803332D01*
X119311144Y-76809645D01*
X119314291Y-76816299D01*
X119316771Y-76823229D01*
X119318559Y-76830368D01*
X119319639Y-76837649D01*
X119320000Y-76845000D01*
X119320000Y-78995000D01*
X119319639Y-79002351D01*
X119318559Y-79009632D01*
X119316771Y-79016771D01*
X119314291Y-79023701D01*
X119311144Y-79030355D01*
X119307360Y-79036668D01*
X119302976Y-79042579D01*
X119298033Y-79048033D01*
X119292579Y-79052976D01*
X119286668Y-79057360D01*
X119280355Y-79061144D01*
X119273701Y-79064291D01*
X119266771Y-79066771D01*
X119259632Y-79068559D01*
X119252351Y-79069639D01*
X119245000Y-79070000D01*
X119095000Y-79070000D01*
X119087649Y-79069639D01*
X119080368Y-79068559D01*
X119073229Y-79066771D01*
X119066299Y-79064291D01*
X119059645Y-79061144D01*
X119053332Y-79057360D01*
X119047421Y-79052976D01*
X119041967Y-79048033D01*
X119037024Y-79042579D01*
X119032640Y-79036668D01*
X119028856Y-79030355D01*
X119025709Y-79023701D01*
X119023229Y-79016771D01*
X119021441Y-79009632D01*
X119020361Y-79002351D01*
X119020000Y-78995000D01*
X119020000Y-76845000D01*
X119020361Y-76837649D01*
X119021441Y-76830368D01*
X119023229Y-76823229D01*
X119025709Y-76816299D01*
X119028856Y-76809645D01*
X119032640Y-76803332D01*
X119037024Y-76797421D01*
X119041967Y-76791967D01*
X119047421Y-76787024D01*
X119053332Y-76782640D01*
X119059645Y-76778856D01*
X119066299Y-76775709D01*
X119073229Y-76773229D01*
X119080368Y-76771441D01*
X119087649Y-76770361D01*
X119095000Y-76770000D01*
X119245000Y-76770000D01*
X119252351Y-76770361D01*
G37*
%TD.AperFunction*%
%TA.AperFunction,SMDPad,CuDef*%
G36*
X118752351Y-76770361D02*
G01*
X118759632Y-76771441D01*
X118766771Y-76773229D01*
X118773701Y-76775709D01*
X118780355Y-76778856D01*
X118786668Y-76782640D01*
X118792579Y-76787024D01*
X118798033Y-76791967D01*
X118802976Y-76797421D01*
X118807360Y-76803332D01*
X118811144Y-76809645D01*
X118814291Y-76816299D01*
X118816771Y-76823229D01*
X118818559Y-76830368D01*
X118819639Y-76837649D01*
X118820000Y-76845000D01*
X118820000Y-78995000D01*
X118819639Y-79002351D01*
X118818559Y-79009632D01*
X118816771Y-79016771D01*
X118814291Y-79023701D01*
X118811144Y-79030355D01*
X118807360Y-79036668D01*
X118802976Y-79042579D01*
X118798033Y-79048033D01*
X118792579Y-79052976D01*
X118786668Y-79057360D01*
X118780355Y-79061144D01*
X118773701Y-79064291D01*
X118766771Y-79066771D01*
X118759632Y-79068559D01*
X118752351Y-79069639D01*
X118745000Y-79070000D01*
X118595000Y-79070000D01*
X118587649Y-79069639D01*
X118580368Y-79068559D01*
X118573229Y-79066771D01*
X118566299Y-79064291D01*
X118559645Y-79061144D01*
X118553332Y-79057360D01*
X118547421Y-79052976D01*
X118541967Y-79048033D01*
X118537024Y-79042579D01*
X118532640Y-79036668D01*
X118528856Y-79030355D01*
X118525709Y-79023701D01*
X118523229Y-79016771D01*
X118521441Y-79009632D01*
X118520361Y-79002351D01*
X118520000Y-78995000D01*
X118520000Y-76845000D01*
X118520361Y-76837649D01*
X118521441Y-76830368D01*
X118523229Y-76823229D01*
X118525709Y-76816299D01*
X118528856Y-76809645D01*
X118532640Y-76803332D01*
X118537024Y-76797421D01*
X118541967Y-76791967D01*
X118547421Y-76787024D01*
X118553332Y-76782640D01*
X118559645Y-76778856D01*
X118566299Y-76775709D01*
X118573229Y-76773229D01*
X118580368Y-76771441D01*
X118587649Y-76770361D01*
X118595000Y-76770000D01*
X118745000Y-76770000D01*
X118752351Y-76770361D01*
G37*
%TD.AperFunction*%
%TA.AperFunction,SMDPad,CuDef*%
G36*
X118252351Y-76770361D02*
G01*
X118259632Y-76771441D01*
X118266771Y-76773229D01*
X118273701Y-76775709D01*
X118280355Y-76778856D01*
X118286668Y-76782640D01*
X118292579Y-76787024D01*
X118298033Y-76791967D01*
X118302976Y-76797421D01*
X118307360Y-76803332D01*
X118311144Y-76809645D01*
X118314291Y-76816299D01*
X118316771Y-76823229D01*
X118318559Y-76830368D01*
X118319639Y-76837649D01*
X118320000Y-76845000D01*
X118320000Y-78995000D01*
X118319639Y-79002351D01*
X118318559Y-79009632D01*
X118316771Y-79016771D01*
X118314291Y-79023701D01*
X118311144Y-79030355D01*
X118307360Y-79036668D01*
X118302976Y-79042579D01*
X118298033Y-79048033D01*
X118292579Y-79052976D01*
X118286668Y-79057360D01*
X118280355Y-79061144D01*
X118273701Y-79064291D01*
X118266771Y-79066771D01*
X118259632Y-79068559D01*
X118252351Y-79069639D01*
X118245000Y-79070000D01*
X118095000Y-79070000D01*
X118087649Y-79069639D01*
X118080368Y-79068559D01*
X118073229Y-79066771D01*
X118066299Y-79064291D01*
X118059645Y-79061144D01*
X118053332Y-79057360D01*
X118047421Y-79052976D01*
X118041967Y-79048033D01*
X118037024Y-79042579D01*
X118032640Y-79036668D01*
X118028856Y-79030355D01*
X118025709Y-79023701D01*
X118023229Y-79016771D01*
X118021441Y-79009632D01*
X118020361Y-79002351D01*
X118020000Y-78995000D01*
X118020000Y-76845000D01*
X118020361Y-76837649D01*
X118021441Y-76830368D01*
X118023229Y-76823229D01*
X118025709Y-76816299D01*
X118028856Y-76809645D01*
X118032640Y-76803332D01*
X118037024Y-76797421D01*
X118041967Y-76791967D01*
X118047421Y-76787024D01*
X118053332Y-76782640D01*
X118059645Y-76778856D01*
X118066299Y-76775709D01*
X118073229Y-76773229D01*
X118080368Y-76771441D01*
X118087649Y-76770361D01*
X118095000Y-76770000D01*
X118245000Y-76770000D01*
X118252351Y-76770361D01*
G37*
%TD.AperFunction*%
%TA.AperFunction,SMDPad,CuDef*%
G36*
X118252351Y-63170361D02*
G01*
X118259632Y-63171441D01*
X118266771Y-63173229D01*
X118273701Y-63175709D01*
X118280355Y-63178856D01*
X118286668Y-63182640D01*
X118292579Y-63187024D01*
X118298033Y-63191967D01*
X118302976Y-63197421D01*
X118307360Y-63203332D01*
X118311144Y-63209645D01*
X118314291Y-63216299D01*
X118316771Y-63223229D01*
X118318559Y-63230368D01*
X118319639Y-63237649D01*
X118320000Y-63245000D01*
X118320000Y-65395000D01*
X118319639Y-65402351D01*
X118318559Y-65409632D01*
X118316771Y-65416771D01*
X118314291Y-65423701D01*
X118311144Y-65430355D01*
X118307360Y-65436668D01*
X118302976Y-65442579D01*
X118298033Y-65448033D01*
X118292579Y-65452976D01*
X118286668Y-65457360D01*
X118280355Y-65461144D01*
X118273701Y-65464291D01*
X118266771Y-65466771D01*
X118259632Y-65468559D01*
X118252351Y-65469639D01*
X118245000Y-65470000D01*
X118095000Y-65470000D01*
X118087649Y-65469639D01*
X118080368Y-65468559D01*
X118073229Y-65466771D01*
X118066299Y-65464291D01*
X118059645Y-65461144D01*
X118053332Y-65457360D01*
X118047421Y-65452976D01*
X118041967Y-65448033D01*
X118037024Y-65442579D01*
X118032640Y-65436668D01*
X118028856Y-65430355D01*
X118025709Y-65423701D01*
X118023229Y-65416771D01*
X118021441Y-65409632D01*
X118020361Y-65402351D01*
X118020000Y-65395000D01*
X118020000Y-63245000D01*
X118020361Y-63237649D01*
X118021441Y-63230368D01*
X118023229Y-63223229D01*
X118025709Y-63216299D01*
X118028856Y-63209645D01*
X118032640Y-63203332D01*
X118037024Y-63197421D01*
X118041967Y-63191967D01*
X118047421Y-63187024D01*
X118053332Y-63182640D01*
X118059645Y-63178856D01*
X118066299Y-63175709D01*
X118073229Y-63173229D01*
X118080368Y-63171441D01*
X118087649Y-63170361D01*
X118095000Y-63170000D01*
X118245000Y-63170000D01*
X118252351Y-63170361D01*
G37*
%TD.AperFunction*%
%TA.AperFunction,SMDPad,CuDef*%
G36*
X118752351Y-63170361D02*
G01*
X118759632Y-63171441D01*
X118766771Y-63173229D01*
X118773701Y-63175709D01*
X118780355Y-63178856D01*
X118786668Y-63182640D01*
X118792579Y-63187024D01*
X118798033Y-63191967D01*
X118802976Y-63197421D01*
X118807360Y-63203332D01*
X118811144Y-63209645D01*
X118814291Y-63216299D01*
X118816771Y-63223229D01*
X118818559Y-63230368D01*
X118819639Y-63237649D01*
X118820000Y-63245000D01*
X118820000Y-65395000D01*
X118819639Y-65402351D01*
X118818559Y-65409632D01*
X118816771Y-65416771D01*
X118814291Y-65423701D01*
X118811144Y-65430355D01*
X118807360Y-65436668D01*
X118802976Y-65442579D01*
X118798033Y-65448033D01*
X118792579Y-65452976D01*
X118786668Y-65457360D01*
X118780355Y-65461144D01*
X118773701Y-65464291D01*
X118766771Y-65466771D01*
X118759632Y-65468559D01*
X118752351Y-65469639D01*
X118745000Y-65470000D01*
X118595000Y-65470000D01*
X118587649Y-65469639D01*
X118580368Y-65468559D01*
X118573229Y-65466771D01*
X118566299Y-65464291D01*
X118559645Y-65461144D01*
X118553332Y-65457360D01*
X118547421Y-65452976D01*
X118541967Y-65448033D01*
X118537024Y-65442579D01*
X118532640Y-65436668D01*
X118528856Y-65430355D01*
X118525709Y-65423701D01*
X118523229Y-65416771D01*
X118521441Y-65409632D01*
X118520361Y-65402351D01*
X118520000Y-65395000D01*
X118520000Y-63245000D01*
X118520361Y-63237649D01*
X118521441Y-63230368D01*
X118523229Y-63223229D01*
X118525709Y-63216299D01*
X118528856Y-63209645D01*
X118532640Y-63203332D01*
X118537024Y-63197421D01*
X118541967Y-63191967D01*
X118547421Y-63187024D01*
X118553332Y-63182640D01*
X118559645Y-63178856D01*
X118566299Y-63175709D01*
X118573229Y-63173229D01*
X118580368Y-63171441D01*
X118587649Y-63170361D01*
X118595000Y-63170000D01*
X118745000Y-63170000D01*
X118752351Y-63170361D01*
G37*
%TD.AperFunction*%
%TA.AperFunction,SMDPad,CuDef*%
G36*
X119252351Y-63170361D02*
G01*
X119259632Y-63171441D01*
X119266771Y-63173229D01*
X119273701Y-63175709D01*
X119280355Y-63178856D01*
X119286668Y-63182640D01*
X119292579Y-63187024D01*
X119298033Y-63191967D01*
X119302976Y-63197421D01*
X119307360Y-63203332D01*
X119311144Y-63209645D01*
X119314291Y-63216299D01*
X119316771Y-63223229D01*
X119318559Y-63230368D01*
X119319639Y-63237649D01*
X119320000Y-63245000D01*
X119320000Y-65395000D01*
X119319639Y-65402351D01*
X119318559Y-65409632D01*
X119316771Y-65416771D01*
X119314291Y-65423701D01*
X119311144Y-65430355D01*
X119307360Y-65436668D01*
X119302976Y-65442579D01*
X119298033Y-65448033D01*
X119292579Y-65452976D01*
X119286668Y-65457360D01*
X119280355Y-65461144D01*
X119273701Y-65464291D01*
X119266771Y-65466771D01*
X119259632Y-65468559D01*
X119252351Y-65469639D01*
X119245000Y-65470000D01*
X119095000Y-65470000D01*
X119087649Y-65469639D01*
X119080368Y-65468559D01*
X119073229Y-65466771D01*
X119066299Y-65464291D01*
X119059645Y-65461144D01*
X119053332Y-65457360D01*
X119047421Y-65452976D01*
X119041967Y-65448033D01*
X119037024Y-65442579D01*
X119032640Y-65436668D01*
X119028856Y-65430355D01*
X119025709Y-65423701D01*
X119023229Y-65416771D01*
X119021441Y-65409632D01*
X119020361Y-65402351D01*
X119020000Y-65395000D01*
X119020000Y-63245000D01*
X119020361Y-63237649D01*
X119021441Y-63230368D01*
X119023229Y-63223229D01*
X119025709Y-63216299D01*
X119028856Y-63209645D01*
X119032640Y-63203332D01*
X119037024Y-63197421D01*
X119041967Y-63191967D01*
X119047421Y-63187024D01*
X119053332Y-63182640D01*
X119059645Y-63178856D01*
X119066299Y-63175709D01*
X119073229Y-63173229D01*
X119080368Y-63171441D01*
X119087649Y-63170361D01*
X119095000Y-63170000D01*
X119245000Y-63170000D01*
X119252351Y-63170361D01*
G37*
%TD.AperFunction*%
%TA.AperFunction,SMDPad,CuDef*%
G36*
X119752351Y-63170361D02*
G01*
X119759632Y-63171441D01*
X119766771Y-63173229D01*
X119773701Y-63175709D01*
X119780355Y-63178856D01*
X119786668Y-63182640D01*
X119792579Y-63187024D01*
X119798033Y-63191967D01*
X119802976Y-63197421D01*
X119807360Y-63203332D01*
X119811144Y-63209645D01*
X119814291Y-63216299D01*
X119816771Y-63223229D01*
X119818559Y-63230368D01*
X119819639Y-63237649D01*
X119820000Y-63245000D01*
X119820000Y-65395000D01*
X119819639Y-65402351D01*
X119818559Y-65409632D01*
X119816771Y-65416771D01*
X119814291Y-65423701D01*
X119811144Y-65430355D01*
X119807360Y-65436668D01*
X119802976Y-65442579D01*
X119798033Y-65448033D01*
X119792579Y-65452976D01*
X119786668Y-65457360D01*
X119780355Y-65461144D01*
X119773701Y-65464291D01*
X119766771Y-65466771D01*
X119759632Y-65468559D01*
X119752351Y-65469639D01*
X119745000Y-65470000D01*
X119595000Y-65470000D01*
X119587649Y-65469639D01*
X119580368Y-65468559D01*
X119573229Y-65466771D01*
X119566299Y-65464291D01*
X119559645Y-65461144D01*
X119553332Y-65457360D01*
X119547421Y-65452976D01*
X119541967Y-65448033D01*
X119537024Y-65442579D01*
X119532640Y-65436668D01*
X119528856Y-65430355D01*
X119525709Y-65423701D01*
X119523229Y-65416771D01*
X119521441Y-65409632D01*
X119520361Y-65402351D01*
X119520000Y-65395000D01*
X119520000Y-63245000D01*
X119520361Y-63237649D01*
X119521441Y-63230368D01*
X119523229Y-63223229D01*
X119525709Y-63216299D01*
X119528856Y-63209645D01*
X119532640Y-63203332D01*
X119537024Y-63197421D01*
X119541967Y-63191967D01*
X119547421Y-63187024D01*
X119553332Y-63182640D01*
X119559645Y-63178856D01*
X119566299Y-63175709D01*
X119573229Y-63173229D01*
X119580368Y-63171441D01*
X119587649Y-63170361D01*
X119595000Y-63170000D01*
X119745000Y-63170000D01*
X119752351Y-63170361D01*
G37*
%TD.AperFunction*%
%TA.AperFunction,SMDPad,CuDef*%
G36*
X120252351Y-63170361D02*
G01*
X120259632Y-63171441D01*
X120266771Y-63173229D01*
X120273701Y-63175709D01*
X120280355Y-63178856D01*
X120286668Y-63182640D01*
X120292579Y-63187024D01*
X120298033Y-63191967D01*
X120302976Y-63197421D01*
X120307360Y-63203332D01*
X120311144Y-63209645D01*
X120314291Y-63216299D01*
X120316771Y-63223229D01*
X120318559Y-63230368D01*
X120319639Y-63237649D01*
X120320000Y-63245000D01*
X120320000Y-65395000D01*
X120319639Y-65402351D01*
X120318559Y-65409632D01*
X120316771Y-65416771D01*
X120314291Y-65423701D01*
X120311144Y-65430355D01*
X120307360Y-65436668D01*
X120302976Y-65442579D01*
X120298033Y-65448033D01*
X120292579Y-65452976D01*
X120286668Y-65457360D01*
X120280355Y-65461144D01*
X120273701Y-65464291D01*
X120266771Y-65466771D01*
X120259632Y-65468559D01*
X120252351Y-65469639D01*
X120245000Y-65470000D01*
X120095000Y-65470000D01*
X120087649Y-65469639D01*
X120080368Y-65468559D01*
X120073229Y-65466771D01*
X120066299Y-65464291D01*
X120059645Y-65461144D01*
X120053332Y-65457360D01*
X120047421Y-65452976D01*
X120041967Y-65448033D01*
X120037024Y-65442579D01*
X120032640Y-65436668D01*
X120028856Y-65430355D01*
X120025709Y-65423701D01*
X120023229Y-65416771D01*
X120021441Y-65409632D01*
X120020361Y-65402351D01*
X120020000Y-65395000D01*
X120020000Y-63245000D01*
X120020361Y-63237649D01*
X120021441Y-63230368D01*
X120023229Y-63223229D01*
X120025709Y-63216299D01*
X120028856Y-63209645D01*
X120032640Y-63203332D01*
X120037024Y-63197421D01*
X120041967Y-63191967D01*
X120047421Y-63187024D01*
X120053332Y-63182640D01*
X120059645Y-63178856D01*
X120066299Y-63175709D01*
X120073229Y-63173229D01*
X120080368Y-63171441D01*
X120087649Y-63170361D01*
X120095000Y-63170000D01*
X120245000Y-63170000D01*
X120252351Y-63170361D01*
G37*
%TD.AperFunction*%
%TA.AperFunction,SMDPad,CuDef*%
G36*
X120752351Y-63170361D02*
G01*
X120759632Y-63171441D01*
X120766771Y-63173229D01*
X120773701Y-63175709D01*
X120780355Y-63178856D01*
X120786668Y-63182640D01*
X120792579Y-63187024D01*
X120798033Y-63191967D01*
X120802976Y-63197421D01*
X120807360Y-63203332D01*
X120811144Y-63209645D01*
X120814291Y-63216299D01*
X120816771Y-63223229D01*
X120818559Y-63230368D01*
X120819639Y-63237649D01*
X120820000Y-63245000D01*
X120820000Y-65395000D01*
X120819639Y-65402351D01*
X120818559Y-65409632D01*
X120816771Y-65416771D01*
X120814291Y-65423701D01*
X120811144Y-65430355D01*
X120807360Y-65436668D01*
X120802976Y-65442579D01*
X120798033Y-65448033D01*
X120792579Y-65452976D01*
X120786668Y-65457360D01*
X120780355Y-65461144D01*
X120773701Y-65464291D01*
X120766771Y-65466771D01*
X120759632Y-65468559D01*
X120752351Y-65469639D01*
X120745000Y-65470000D01*
X120595000Y-65470000D01*
X120587649Y-65469639D01*
X120580368Y-65468559D01*
X120573229Y-65466771D01*
X120566299Y-65464291D01*
X120559645Y-65461144D01*
X120553332Y-65457360D01*
X120547421Y-65452976D01*
X120541967Y-65448033D01*
X120537024Y-65442579D01*
X120532640Y-65436668D01*
X120528856Y-65430355D01*
X120525709Y-65423701D01*
X120523229Y-65416771D01*
X120521441Y-65409632D01*
X120520361Y-65402351D01*
X120520000Y-65395000D01*
X120520000Y-63245000D01*
X120520361Y-63237649D01*
X120521441Y-63230368D01*
X120523229Y-63223229D01*
X120525709Y-63216299D01*
X120528856Y-63209645D01*
X120532640Y-63203332D01*
X120537024Y-63197421D01*
X120541967Y-63191967D01*
X120547421Y-63187024D01*
X120553332Y-63182640D01*
X120559645Y-63178856D01*
X120566299Y-63175709D01*
X120573229Y-63173229D01*
X120580368Y-63171441D01*
X120587649Y-63170361D01*
X120595000Y-63170000D01*
X120745000Y-63170000D01*
X120752351Y-63170361D01*
G37*
%TD.AperFunction*%
%TA.AperFunction,SMDPad,CuDef*%
G36*
X121252351Y-63170361D02*
G01*
X121259632Y-63171441D01*
X121266771Y-63173229D01*
X121273701Y-63175709D01*
X121280355Y-63178856D01*
X121286668Y-63182640D01*
X121292579Y-63187024D01*
X121298033Y-63191967D01*
X121302976Y-63197421D01*
X121307360Y-63203332D01*
X121311144Y-63209645D01*
X121314291Y-63216299D01*
X121316771Y-63223229D01*
X121318559Y-63230368D01*
X121319639Y-63237649D01*
X121320000Y-63245000D01*
X121320000Y-65395000D01*
X121319639Y-65402351D01*
X121318559Y-65409632D01*
X121316771Y-65416771D01*
X121314291Y-65423701D01*
X121311144Y-65430355D01*
X121307360Y-65436668D01*
X121302976Y-65442579D01*
X121298033Y-65448033D01*
X121292579Y-65452976D01*
X121286668Y-65457360D01*
X121280355Y-65461144D01*
X121273701Y-65464291D01*
X121266771Y-65466771D01*
X121259632Y-65468559D01*
X121252351Y-65469639D01*
X121245000Y-65470000D01*
X121095000Y-65470000D01*
X121087649Y-65469639D01*
X121080368Y-65468559D01*
X121073229Y-65466771D01*
X121066299Y-65464291D01*
X121059645Y-65461144D01*
X121053332Y-65457360D01*
X121047421Y-65452976D01*
X121041967Y-65448033D01*
X121037024Y-65442579D01*
X121032640Y-65436668D01*
X121028856Y-65430355D01*
X121025709Y-65423701D01*
X121023229Y-65416771D01*
X121021441Y-65409632D01*
X121020361Y-65402351D01*
X121020000Y-65395000D01*
X121020000Y-63245000D01*
X121020361Y-63237649D01*
X121021441Y-63230368D01*
X121023229Y-63223229D01*
X121025709Y-63216299D01*
X121028856Y-63209645D01*
X121032640Y-63203332D01*
X121037024Y-63197421D01*
X121041967Y-63191967D01*
X121047421Y-63187024D01*
X121053332Y-63182640D01*
X121059645Y-63178856D01*
X121066299Y-63175709D01*
X121073229Y-63173229D01*
X121080368Y-63171441D01*
X121087649Y-63170361D01*
X121095000Y-63170000D01*
X121245000Y-63170000D01*
X121252351Y-63170361D01*
G37*
%TD.AperFunction*%
%TA.AperFunction,SMDPad,CuDef*%
G36*
X121752351Y-63170361D02*
G01*
X121759632Y-63171441D01*
X121766771Y-63173229D01*
X121773701Y-63175709D01*
X121780355Y-63178856D01*
X121786668Y-63182640D01*
X121792579Y-63187024D01*
X121798033Y-63191967D01*
X121802976Y-63197421D01*
X121807360Y-63203332D01*
X121811144Y-63209645D01*
X121814291Y-63216299D01*
X121816771Y-63223229D01*
X121818559Y-63230368D01*
X121819639Y-63237649D01*
X121820000Y-63245000D01*
X121820000Y-65395000D01*
X121819639Y-65402351D01*
X121818559Y-65409632D01*
X121816771Y-65416771D01*
X121814291Y-65423701D01*
X121811144Y-65430355D01*
X121807360Y-65436668D01*
X121802976Y-65442579D01*
X121798033Y-65448033D01*
X121792579Y-65452976D01*
X121786668Y-65457360D01*
X121780355Y-65461144D01*
X121773701Y-65464291D01*
X121766771Y-65466771D01*
X121759632Y-65468559D01*
X121752351Y-65469639D01*
X121745000Y-65470000D01*
X121595000Y-65470000D01*
X121587649Y-65469639D01*
X121580368Y-65468559D01*
X121573229Y-65466771D01*
X121566299Y-65464291D01*
X121559645Y-65461144D01*
X121553332Y-65457360D01*
X121547421Y-65452976D01*
X121541967Y-65448033D01*
X121537024Y-65442579D01*
X121532640Y-65436668D01*
X121528856Y-65430355D01*
X121525709Y-65423701D01*
X121523229Y-65416771D01*
X121521441Y-65409632D01*
X121520361Y-65402351D01*
X121520000Y-65395000D01*
X121520000Y-63245000D01*
X121520361Y-63237649D01*
X121521441Y-63230368D01*
X121523229Y-63223229D01*
X121525709Y-63216299D01*
X121528856Y-63209645D01*
X121532640Y-63203332D01*
X121537024Y-63197421D01*
X121541967Y-63191967D01*
X121547421Y-63187024D01*
X121553332Y-63182640D01*
X121559645Y-63178856D01*
X121566299Y-63175709D01*
X121573229Y-63173229D01*
X121580368Y-63171441D01*
X121587649Y-63170361D01*
X121595000Y-63170000D01*
X121745000Y-63170000D01*
X121752351Y-63170361D01*
G37*
%TD.AperFunction*%
%TA.AperFunction,SMDPad,CuDef*%
G36*
X122252351Y-63170361D02*
G01*
X122259632Y-63171441D01*
X122266771Y-63173229D01*
X122273701Y-63175709D01*
X122280355Y-63178856D01*
X122286668Y-63182640D01*
X122292579Y-63187024D01*
X122298033Y-63191967D01*
X122302976Y-63197421D01*
X122307360Y-63203332D01*
X122311144Y-63209645D01*
X122314291Y-63216299D01*
X122316771Y-63223229D01*
X122318559Y-63230368D01*
X122319639Y-63237649D01*
X122320000Y-63245000D01*
X122320000Y-65395000D01*
X122319639Y-65402351D01*
X122318559Y-65409632D01*
X122316771Y-65416771D01*
X122314291Y-65423701D01*
X122311144Y-65430355D01*
X122307360Y-65436668D01*
X122302976Y-65442579D01*
X122298033Y-65448033D01*
X122292579Y-65452976D01*
X122286668Y-65457360D01*
X122280355Y-65461144D01*
X122273701Y-65464291D01*
X122266771Y-65466771D01*
X122259632Y-65468559D01*
X122252351Y-65469639D01*
X122245000Y-65470000D01*
X122095000Y-65470000D01*
X122087649Y-65469639D01*
X122080368Y-65468559D01*
X122073229Y-65466771D01*
X122066299Y-65464291D01*
X122059645Y-65461144D01*
X122053332Y-65457360D01*
X122047421Y-65452976D01*
X122041967Y-65448033D01*
X122037024Y-65442579D01*
X122032640Y-65436668D01*
X122028856Y-65430355D01*
X122025709Y-65423701D01*
X122023229Y-65416771D01*
X122021441Y-65409632D01*
X122020361Y-65402351D01*
X122020000Y-65395000D01*
X122020000Y-63245000D01*
X122020361Y-63237649D01*
X122021441Y-63230368D01*
X122023229Y-63223229D01*
X122025709Y-63216299D01*
X122028856Y-63209645D01*
X122032640Y-63203332D01*
X122037024Y-63197421D01*
X122041967Y-63191967D01*
X122047421Y-63187024D01*
X122053332Y-63182640D01*
X122059645Y-63178856D01*
X122066299Y-63175709D01*
X122073229Y-63173229D01*
X122080368Y-63171441D01*
X122087649Y-63170361D01*
X122095000Y-63170000D01*
X122245000Y-63170000D01*
X122252351Y-63170361D01*
G37*
%TD.AperFunction*%
%TA.AperFunction,SMDPad,CuDef*%
G36*
X122752351Y-63170361D02*
G01*
X122759632Y-63171441D01*
X122766771Y-63173229D01*
X122773701Y-63175709D01*
X122780355Y-63178856D01*
X122786668Y-63182640D01*
X122792579Y-63187024D01*
X122798033Y-63191967D01*
X122802976Y-63197421D01*
X122807360Y-63203332D01*
X122811144Y-63209645D01*
X122814291Y-63216299D01*
X122816771Y-63223229D01*
X122818559Y-63230368D01*
X122819639Y-63237649D01*
X122820000Y-63245000D01*
X122820000Y-65395000D01*
X122819639Y-65402351D01*
X122818559Y-65409632D01*
X122816771Y-65416771D01*
X122814291Y-65423701D01*
X122811144Y-65430355D01*
X122807360Y-65436668D01*
X122802976Y-65442579D01*
X122798033Y-65448033D01*
X122792579Y-65452976D01*
X122786668Y-65457360D01*
X122780355Y-65461144D01*
X122773701Y-65464291D01*
X122766771Y-65466771D01*
X122759632Y-65468559D01*
X122752351Y-65469639D01*
X122745000Y-65470000D01*
X122595000Y-65470000D01*
X122587649Y-65469639D01*
X122580368Y-65468559D01*
X122573229Y-65466771D01*
X122566299Y-65464291D01*
X122559645Y-65461144D01*
X122553332Y-65457360D01*
X122547421Y-65452976D01*
X122541967Y-65448033D01*
X122537024Y-65442579D01*
X122532640Y-65436668D01*
X122528856Y-65430355D01*
X122525709Y-65423701D01*
X122523229Y-65416771D01*
X122521441Y-65409632D01*
X122520361Y-65402351D01*
X122520000Y-65395000D01*
X122520000Y-63245000D01*
X122520361Y-63237649D01*
X122521441Y-63230368D01*
X122523229Y-63223229D01*
X122525709Y-63216299D01*
X122528856Y-63209645D01*
X122532640Y-63203332D01*
X122537024Y-63197421D01*
X122541967Y-63191967D01*
X122547421Y-63187024D01*
X122553332Y-63182640D01*
X122559645Y-63178856D01*
X122566299Y-63175709D01*
X122573229Y-63173229D01*
X122580368Y-63171441D01*
X122587649Y-63170361D01*
X122595000Y-63170000D01*
X122745000Y-63170000D01*
X122752351Y-63170361D01*
G37*
%TD.AperFunction*%
%TA.AperFunction,SMDPad,CuDef*%
G36*
X123252351Y-63170361D02*
G01*
X123259632Y-63171441D01*
X123266771Y-63173229D01*
X123273701Y-63175709D01*
X123280355Y-63178856D01*
X123286668Y-63182640D01*
X123292579Y-63187024D01*
X123298033Y-63191967D01*
X123302976Y-63197421D01*
X123307360Y-63203332D01*
X123311144Y-63209645D01*
X123314291Y-63216299D01*
X123316771Y-63223229D01*
X123318559Y-63230368D01*
X123319639Y-63237649D01*
X123320000Y-63245000D01*
X123320000Y-65395000D01*
X123319639Y-65402351D01*
X123318559Y-65409632D01*
X123316771Y-65416771D01*
X123314291Y-65423701D01*
X123311144Y-65430355D01*
X123307360Y-65436668D01*
X123302976Y-65442579D01*
X123298033Y-65448033D01*
X123292579Y-65452976D01*
X123286668Y-65457360D01*
X123280355Y-65461144D01*
X123273701Y-65464291D01*
X123266771Y-65466771D01*
X123259632Y-65468559D01*
X123252351Y-65469639D01*
X123245000Y-65470000D01*
X123095000Y-65470000D01*
X123087649Y-65469639D01*
X123080368Y-65468559D01*
X123073229Y-65466771D01*
X123066299Y-65464291D01*
X123059645Y-65461144D01*
X123053332Y-65457360D01*
X123047421Y-65452976D01*
X123041967Y-65448033D01*
X123037024Y-65442579D01*
X123032640Y-65436668D01*
X123028856Y-65430355D01*
X123025709Y-65423701D01*
X123023229Y-65416771D01*
X123021441Y-65409632D01*
X123020361Y-65402351D01*
X123020000Y-65395000D01*
X123020000Y-63245000D01*
X123020361Y-63237649D01*
X123021441Y-63230368D01*
X123023229Y-63223229D01*
X123025709Y-63216299D01*
X123028856Y-63209645D01*
X123032640Y-63203332D01*
X123037024Y-63197421D01*
X123041967Y-63191967D01*
X123047421Y-63187024D01*
X123053332Y-63182640D01*
X123059645Y-63178856D01*
X123066299Y-63175709D01*
X123073229Y-63173229D01*
X123080368Y-63171441D01*
X123087649Y-63170361D01*
X123095000Y-63170000D01*
X123245000Y-63170000D01*
X123252351Y-63170361D01*
G37*
%TD.AperFunction*%
%TA.AperFunction,SMDPad,CuDef*%
G36*
X123752351Y-63170361D02*
G01*
X123759632Y-63171441D01*
X123766771Y-63173229D01*
X123773701Y-63175709D01*
X123780355Y-63178856D01*
X123786668Y-63182640D01*
X123792579Y-63187024D01*
X123798033Y-63191967D01*
X123802976Y-63197421D01*
X123807360Y-63203332D01*
X123811144Y-63209645D01*
X123814291Y-63216299D01*
X123816771Y-63223229D01*
X123818559Y-63230368D01*
X123819639Y-63237649D01*
X123820000Y-63245000D01*
X123820000Y-65395000D01*
X123819639Y-65402351D01*
X123818559Y-65409632D01*
X123816771Y-65416771D01*
X123814291Y-65423701D01*
X123811144Y-65430355D01*
X123807360Y-65436668D01*
X123802976Y-65442579D01*
X123798033Y-65448033D01*
X123792579Y-65452976D01*
X123786668Y-65457360D01*
X123780355Y-65461144D01*
X123773701Y-65464291D01*
X123766771Y-65466771D01*
X123759632Y-65468559D01*
X123752351Y-65469639D01*
X123745000Y-65470000D01*
X123595000Y-65470000D01*
X123587649Y-65469639D01*
X123580368Y-65468559D01*
X123573229Y-65466771D01*
X123566299Y-65464291D01*
X123559645Y-65461144D01*
X123553332Y-65457360D01*
X123547421Y-65452976D01*
X123541967Y-65448033D01*
X123537024Y-65442579D01*
X123532640Y-65436668D01*
X123528856Y-65430355D01*
X123525709Y-65423701D01*
X123523229Y-65416771D01*
X123521441Y-65409632D01*
X123520361Y-65402351D01*
X123520000Y-65395000D01*
X123520000Y-63245000D01*
X123520361Y-63237649D01*
X123521441Y-63230368D01*
X123523229Y-63223229D01*
X123525709Y-63216299D01*
X123528856Y-63209645D01*
X123532640Y-63203332D01*
X123537024Y-63197421D01*
X123541967Y-63191967D01*
X123547421Y-63187024D01*
X123553332Y-63182640D01*
X123559645Y-63178856D01*
X123566299Y-63175709D01*
X123573229Y-63173229D01*
X123580368Y-63171441D01*
X123587649Y-63170361D01*
X123595000Y-63170000D01*
X123745000Y-63170000D01*
X123752351Y-63170361D01*
G37*
%TD.AperFunction*%
%TA.AperFunction,SMDPad,CuDef*%
G36*
X124252351Y-63170361D02*
G01*
X124259632Y-63171441D01*
X124266771Y-63173229D01*
X124273701Y-63175709D01*
X124280355Y-63178856D01*
X124286668Y-63182640D01*
X124292579Y-63187024D01*
X124298033Y-63191967D01*
X124302976Y-63197421D01*
X124307360Y-63203332D01*
X124311144Y-63209645D01*
X124314291Y-63216299D01*
X124316771Y-63223229D01*
X124318559Y-63230368D01*
X124319639Y-63237649D01*
X124320000Y-63245000D01*
X124320000Y-65395000D01*
X124319639Y-65402351D01*
X124318559Y-65409632D01*
X124316771Y-65416771D01*
X124314291Y-65423701D01*
X124311144Y-65430355D01*
X124307360Y-65436668D01*
X124302976Y-65442579D01*
X124298033Y-65448033D01*
X124292579Y-65452976D01*
X124286668Y-65457360D01*
X124280355Y-65461144D01*
X124273701Y-65464291D01*
X124266771Y-65466771D01*
X124259632Y-65468559D01*
X124252351Y-65469639D01*
X124245000Y-65470000D01*
X124095000Y-65470000D01*
X124087649Y-65469639D01*
X124080368Y-65468559D01*
X124073229Y-65466771D01*
X124066299Y-65464291D01*
X124059645Y-65461144D01*
X124053332Y-65457360D01*
X124047421Y-65452976D01*
X124041967Y-65448033D01*
X124037024Y-65442579D01*
X124032640Y-65436668D01*
X124028856Y-65430355D01*
X124025709Y-65423701D01*
X124023229Y-65416771D01*
X124021441Y-65409632D01*
X124020361Y-65402351D01*
X124020000Y-65395000D01*
X124020000Y-63245000D01*
X124020361Y-63237649D01*
X124021441Y-63230368D01*
X124023229Y-63223229D01*
X124025709Y-63216299D01*
X124028856Y-63209645D01*
X124032640Y-63203332D01*
X124037024Y-63197421D01*
X124041967Y-63191967D01*
X124047421Y-63187024D01*
X124053332Y-63182640D01*
X124059645Y-63178856D01*
X124066299Y-63175709D01*
X124073229Y-63173229D01*
X124080368Y-63171441D01*
X124087649Y-63170361D01*
X124095000Y-63170000D01*
X124245000Y-63170000D01*
X124252351Y-63170361D01*
G37*
%TD.AperFunction*%
%TA.AperFunction,SMDPad,CuDef*%
G36*
X124752351Y-63170361D02*
G01*
X124759632Y-63171441D01*
X124766771Y-63173229D01*
X124773701Y-63175709D01*
X124780355Y-63178856D01*
X124786668Y-63182640D01*
X124792579Y-63187024D01*
X124798033Y-63191967D01*
X124802976Y-63197421D01*
X124807360Y-63203332D01*
X124811144Y-63209645D01*
X124814291Y-63216299D01*
X124816771Y-63223229D01*
X124818559Y-63230368D01*
X124819639Y-63237649D01*
X124820000Y-63245000D01*
X124820000Y-65395000D01*
X124819639Y-65402351D01*
X124818559Y-65409632D01*
X124816771Y-65416771D01*
X124814291Y-65423701D01*
X124811144Y-65430355D01*
X124807360Y-65436668D01*
X124802976Y-65442579D01*
X124798033Y-65448033D01*
X124792579Y-65452976D01*
X124786668Y-65457360D01*
X124780355Y-65461144D01*
X124773701Y-65464291D01*
X124766771Y-65466771D01*
X124759632Y-65468559D01*
X124752351Y-65469639D01*
X124745000Y-65470000D01*
X124595000Y-65470000D01*
X124587649Y-65469639D01*
X124580368Y-65468559D01*
X124573229Y-65466771D01*
X124566299Y-65464291D01*
X124559645Y-65461144D01*
X124553332Y-65457360D01*
X124547421Y-65452976D01*
X124541967Y-65448033D01*
X124537024Y-65442579D01*
X124532640Y-65436668D01*
X124528856Y-65430355D01*
X124525709Y-65423701D01*
X124523229Y-65416771D01*
X124521441Y-65409632D01*
X124520361Y-65402351D01*
X124520000Y-65395000D01*
X124520000Y-63245000D01*
X124520361Y-63237649D01*
X124521441Y-63230368D01*
X124523229Y-63223229D01*
X124525709Y-63216299D01*
X124528856Y-63209645D01*
X124532640Y-63203332D01*
X124537024Y-63197421D01*
X124541967Y-63191967D01*
X124547421Y-63187024D01*
X124553332Y-63182640D01*
X124559645Y-63178856D01*
X124566299Y-63175709D01*
X124573229Y-63173229D01*
X124580368Y-63171441D01*
X124587649Y-63170361D01*
X124595000Y-63170000D01*
X124745000Y-63170000D01*
X124752351Y-63170361D01*
G37*
%TD.AperFunction*%
%TA.AperFunction,SMDPad,CuDef*%
G36*
X125252351Y-63170361D02*
G01*
X125259632Y-63171441D01*
X125266771Y-63173229D01*
X125273701Y-63175709D01*
X125280355Y-63178856D01*
X125286668Y-63182640D01*
X125292579Y-63187024D01*
X125298033Y-63191967D01*
X125302976Y-63197421D01*
X125307360Y-63203332D01*
X125311144Y-63209645D01*
X125314291Y-63216299D01*
X125316771Y-63223229D01*
X125318559Y-63230368D01*
X125319639Y-63237649D01*
X125320000Y-63245000D01*
X125320000Y-65395000D01*
X125319639Y-65402351D01*
X125318559Y-65409632D01*
X125316771Y-65416771D01*
X125314291Y-65423701D01*
X125311144Y-65430355D01*
X125307360Y-65436668D01*
X125302976Y-65442579D01*
X125298033Y-65448033D01*
X125292579Y-65452976D01*
X125286668Y-65457360D01*
X125280355Y-65461144D01*
X125273701Y-65464291D01*
X125266771Y-65466771D01*
X125259632Y-65468559D01*
X125252351Y-65469639D01*
X125245000Y-65470000D01*
X125095000Y-65470000D01*
X125087649Y-65469639D01*
X125080368Y-65468559D01*
X125073229Y-65466771D01*
X125066299Y-65464291D01*
X125059645Y-65461144D01*
X125053332Y-65457360D01*
X125047421Y-65452976D01*
X125041967Y-65448033D01*
X125037024Y-65442579D01*
X125032640Y-65436668D01*
X125028856Y-65430355D01*
X125025709Y-65423701D01*
X125023229Y-65416771D01*
X125021441Y-65409632D01*
X125020361Y-65402351D01*
X125020000Y-65395000D01*
X125020000Y-63245000D01*
X125020361Y-63237649D01*
X125021441Y-63230368D01*
X125023229Y-63223229D01*
X125025709Y-63216299D01*
X125028856Y-63209645D01*
X125032640Y-63203332D01*
X125037024Y-63197421D01*
X125041967Y-63191967D01*
X125047421Y-63187024D01*
X125053332Y-63182640D01*
X125059645Y-63178856D01*
X125066299Y-63175709D01*
X125073229Y-63173229D01*
X125080368Y-63171441D01*
X125087649Y-63170361D01*
X125095000Y-63170000D01*
X125245000Y-63170000D01*
X125252351Y-63170361D01*
G37*
%TD.AperFunction*%
%TA.AperFunction,SMDPad,CuDef*%
G36*
X125752351Y-63170361D02*
G01*
X125759632Y-63171441D01*
X125766771Y-63173229D01*
X125773701Y-63175709D01*
X125780355Y-63178856D01*
X125786668Y-63182640D01*
X125792579Y-63187024D01*
X125798033Y-63191967D01*
X125802976Y-63197421D01*
X125807360Y-63203332D01*
X125811144Y-63209645D01*
X125814291Y-63216299D01*
X125816771Y-63223229D01*
X125818559Y-63230368D01*
X125819639Y-63237649D01*
X125820000Y-63245000D01*
X125820000Y-65395000D01*
X125819639Y-65402351D01*
X125818559Y-65409632D01*
X125816771Y-65416771D01*
X125814291Y-65423701D01*
X125811144Y-65430355D01*
X125807360Y-65436668D01*
X125802976Y-65442579D01*
X125798033Y-65448033D01*
X125792579Y-65452976D01*
X125786668Y-65457360D01*
X125780355Y-65461144D01*
X125773701Y-65464291D01*
X125766771Y-65466771D01*
X125759632Y-65468559D01*
X125752351Y-65469639D01*
X125745000Y-65470000D01*
X125595000Y-65470000D01*
X125587649Y-65469639D01*
X125580368Y-65468559D01*
X125573229Y-65466771D01*
X125566299Y-65464291D01*
X125559645Y-65461144D01*
X125553332Y-65457360D01*
X125547421Y-65452976D01*
X125541967Y-65448033D01*
X125537024Y-65442579D01*
X125532640Y-65436668D01*
X125528856Y-65430355D01*
X125525709Y-65423701D01*
X125523229Y-65416771D01*
X125521441Y-65409632D01*
X125520361Y-65402351D01*
X125520000Y-65395000D01*
X125520000Y-63245000D01*
X125520361Y-63237649D01*
X125521441Y-63230368D01*
X125523229Y-63223229D01*
X125525709Y-63216299D01*
X125528856Y-63209645D01*
X125532640Y-63203332D01*
X125537024Y-63197421D01*
X125541967Y-63191967D01*
X125547421Y-63187024D01*
X125553332Y-63182640D01*
X125559645Y-63178856D01*
X125566299Y-63175709D01*
X125573229Y-63173229D01*
X125580368Y-63171441D01*
X125587649Y-63170361D01*
X125595000Y-63170000D01*
X125745000Y-63170000D01*
X125752351Y-63170361D01*
G37*
%TD.AperFunction*%
D16*
X119380000Y-58420000D03*
X121920000Y-58420000D03*
X124460000Y-58420000D03*
X119380000Y-60960000D03*
X121920000Y-60960000D03*
X124460000Y-60960000D03*
X127000000Y-73660000D03*
X127000000Y-71120000D03*
D11*
X125025000Y-56145000D03*
D12*
X124225000Y-56145000D03*
D11*
X122625000Y-56145000D03*
D12*
X123425000Y-56145000D03*
D11*
X125025000Y-54345000D03*
D12*
X123425000Y-54345000D03*
X124225000Y-54345000D03*
D11*
X122625000Y-54345000D03*
D17*
X116840000Y-54610000D03*
X116840000Y-52070000D03*
X119380000Y-52070000D03*
X121920000Y-52070000D03*
X124460000Y-52070000D03*
X127000000Y-52070000D03*
X127000000Y-54610000D03*
D18*
X121800000Y-79600000D03*
X126799996Y-56800000D03*
X118800000Y-69600000D03*
X126000000Y-57800000D03*
X117400000Y-57800000D03*
X118200000Y-50400000D03*
X125800000Y-50400000D03*
X126200000Y-62400000D03*
X127400000Y-74999998D03*
X127400000Y-76000000D03*
X120000000Y-69000000D03*
X120000000Y-74000000D03*
X127400000Y-77000000D03*
X116800000Y-74200000D03*
X116800000Y-73200000D03*
X116800000Y-72200000D03*
X125400000Y-73600000D03*
X116800000Y-75200000D03*
X119600000Y-56200000D03*
X122800000Y-72800000D03*
X118800000Y-56200000D03*
X123200000Y-72200000D03*
X125400000Y-66800000D03*
X128600000Y-64800000D03*
X120400000Y-56200000D03*
X120600000Y-71600000D03*
X121200000Y-56200000D03*
X119380000Y-60960000D03*
X120600000Y-70800000D03*
X122600000Y-69000000D03*
X125400000Y-67400000D03*
X123800000Y-69400000D03*
X122600000Y-56200000D03*
X121920000Y-60960000D03*
X122000000Y-70800000D03*
X123400000Y-56200000D03*
X124460000Y-60960000D03*
X121800000Y-71600000D03*
X124200000Y-56200000D03*
D19*
X122170000Y-77920000D02*
X122170000Y-79230000D01*
X122170000Y-79230000D02*
X121800000Y-79600000D01*
D20*
X123425000Y-54345000D02*
X124225000Y-54345000D01*
X122625000Y-54345000D02*
X123425000Y-54345000D01*
X118815000Y-54345000D02*
X119615000Y-54345000D01*
X119615000Y-54345000D02*
X120415000Y-54345000D01*
X120415000Y-54345000D02*
X121215000Y-54345000D01*
X121215000Y-54345000D02*
X122625000Y-54345000D01*
D19*
X124225000Y-54945000D02*
X124480000Y-55200000D01*
X124225000Y-54345000D02*
X124225000Y-54945000D01*
X125270002Y-55200000D02*
X126800000Y-56729998D01*
X124480000Y-55200000D02*
X125270002Y-55200000D01*
X124225000Y-54345000D02*
X124225000Y-54007002D01*
X127700000Y-53300000D02*
X124670000Y-53300000D01*
X129600000Y-51400000D02*
X127700000Y-53300000D01*
X124670000Y-53300000D02*
X124225000Y-53745000D01*
X124225000Y-53745000D02*
X124225000Y-54345000D01*
X129600000Y-50860000D02*
X129600000Y-51400000D01*
X129540000Y-50800000D02*
X129600000Y-50860000D01*
X121670000Y-64320000D02*
X121670000Y-66730000D01*
X121670000Y-66730000D02*
X121000000Y-67400000D01*
X121670000Y-64320000D02*
X121670000Y-62470000D01*
X124670000Y-76330000D02*
X126000002Y-74999998D01*
X124670000Y-77920000D02*
X124670000Y-76330000D01*
X127117158Y-74999998D02*
X127400000Y-74999998D01*
X126000002Y-74999998D02*
X127117158Y-74999998D01*
X115800000Y-71600000D02*
X121170000Y-66230000D01*
X114300000Y-76100000D02*
X115400000Y-75000000D01*
X115800000Y-72400000D02*
X115800000Y-71600000D01*
X115400000Y-75000000D02*
X115400000Y-72800000D01*
X115400000Y-72800000D02*
X115800000Y-72400000D01*
X121170000Y-66230000D02*
X121170000Y-64320000D01*
X114300000Y-76200000D02*
X114300000Y-76100000D01*
X125170000Y-76430000D02*
X125600000Y-76000000D01*
X125600000Y-76000000D02*
X127117158Y-76000000D01*
X125170000Y-77920000D02*
X125170000Y-76430000D01*
X127117158Y-76000000D02*
X127400000Y-76000000D01*
X114300000Y-73080000D02*
X114300000Y-73660000D01*
X115400000Y-71400000D02*
X115400000Y-71980000D01*
X120670000Y-66130000D02*
X115400000Y-71400000D01*
X115400000Y-71980000D02*
X114300000Y-73080000D01*
X120670000Y-64320000D02*
X120670000Y-66130000D01*
X120170000Y-74170000D02*
X120000000Y-74000000D01*
X120200000Y-74400000D02*
X120170000Y-74170000D01*
X120170000Y-77920000D02*
X120200000Y-74400000D01*
X120000000Y-74000000D02*
X120200000Y-74200000D01*
X120200000Y-74200000D02*
X120200000Y-74400000D01*
X120000000Y-69000000D02*
X120000000Y-74000000D01*
X120170000Y-66030000D02*
X115080000Y-71120000D01*
X120170000Y-64320000D02*
X120170000Y-66030000D01*
X115080000Y-71120000D02*
X114300000Y-71120000D01*
X126000000Y-61000000D02*
X129500000Y-61000000D01*
X124670000Y-62330000D02*
X126000000Y-61000000D01*
X129500000Y-61000000D02*
X129540000Y-60960000D01*
X124670000Y-64320000D02*
X124670000Y-62330000D01*
X115431370Y-68580000D02*
X114300000Y-68580000D01*
X117054300Y-68580000D02*
X115431370Y-68580000D01*
X119670000Y-64320000D02*
X119670000Y-65964300D01*
X119670000Y-65964300D02*
X117054300Y-68580000D01*
X126200000Y-61400000D02*
X127440000Y-61400000D01*
X125170000Y-62430000D02*
X126200000Y-61400000D01*
X127440000Y-61400000D02*
X129540000Y-63500000D01*
X125170000Y-64320000D02*
X125170000Y-62430000D01*
X118228601Y-66839999D02*
X115099999Y-66839999D01*
X119170000Y-64320000D02*
X119170000Y-65898600D01*
X119170000Y-65898600D02*
X118228601Y-66839999D01*
X115099999Y-66839999D02*
X114300000Y-66040000D01*
X126480000Y-77920000D02*
X127400000Y-77000000D01*
X125670000Y-77920000D02*
X126480000Y-77920000D01*
X116999989Y-66199989D02*
X115099999Y-64299999D01*
X118670000Y-64320000D02*
X118670000Y-65832900D01*
X118670000Y-65832900D02*
X118302911Y-66199989D01*
X118302911Y-66199989D02*
X116999989Y-66199989D01*
X115099999Y-64299999D02*
X114300000Y-63500000D01*
X125780000Y-68580000D02*
X128408630Y-68580000D01*
X128408630Y-68580000D02*
X129540000Y-68580000D01*
X124170000Y-66970000D02*
X125780000Y-68580000D01*
X124170000Y-64320000D02*
X124170000Y-66970000D01*
X117660000Y-64320000D02*
X114300000Y-60960000D01*
X118170000Y-64320000D02*
X117660000Y-64320000D01*
X129540000Y-70740000D02*
X129540000Y-71120000D01*
X127780010Y-68980010D02*
X129540000Y-70740000D01*
X125511406Y-68980010D02*
X127780010Y-68980010D01*
X123670000Y-67138604D02*
X125511406Y-68980010D01*
X123670000Y-64320000D02*
X123670000Y-67138604D01*
X118170000Y-77920000D02*
X118170000Y-75570000D01*
X118170000Y-75570000D02*
X116800000Y-74200000D01*
X129540000Y-73140000D02*
X129540000Y-73660000D01*
X128400011Y-72000011D02*
X129540000Y-73140000D01*
X128400011Y-70200011D02*
X128400011Y-72000011D01*
X123170000Y-64320000D02*
X123170000Y-67204302D01*
X127600000Y-69400000D02*
X128400011Y-70200011D01*
X123170000Y-67204302D02*
X125365698Y-69400000D01*
X125365698Y-69400000D02*
X127600000Y-69400000D01*
X118670000Y-75070000D02*
X116999999Y-73399999D01*
X118670000Y-77920000D02*
X118670000Y-75070000D01*
X116999999Y-73399999D02*
X116800000Y-73200000D01*
X128740001Y-75400001D02*
X129540000Y-76200000D01*
X128439999Y-72639999D02*
X128439999Y-75099999D01*
X128000000Y-72200000D02*
X128439999Y-72639999D01*
X122670000Y-64320000D02*
X122670000Y-67270000D01*
X127400000Y-69800000D02*
X128000000Y-70400000D01*
X122670000Y-67270000D02*
X125200000Y-69800000D01*
X125200000Y-69800000D02*
X127400000Y-69800000D01*
X128439999Y-75099999D02*
X128740001Y-75400001D01*
X128000000Y-70400000D02*
X128000000Y-72200000D01*
X119170000Y-74570000D02*
X116999999Y-72399999D01*
X116999999Y-72399999D02*
X116800000Y-72200000D01*
X119170000Y-77920000D02*
X119170000Y-74570000D01*
X124434302Y-70800000D02*
X125400000Y-71765698D01*
X122000000Y-68200000D02*
X122000000Y-70000000D01*
X125400000Y-71765698D02*
X125400000Y-73600000D01*
X122800000Y-70800000D02*
X124434302Y-70800000D01*
X122000000Y-70000000D02*
X122800000Y-70800000D01*
X122170000Y-68030000D02*
X122000000Y-68200000D01*
X122170000Y-64320000D02*
X122170000Y-68030000D01*
X114300000Y-51300000D02*
X114300000Y-50800000D01*
X117400000Y-75800000D02*
X116800000Y-75200000D01*
X117800000Y-79600000D02*
X117400000Y-79200000D01*
X119400000Y-79600000D02*
X117800000Y-79600000D01*
X119670000Y-79330000D02*
X119400000Y-79600000D01*
X117400000Y-79200000D02*
X117400000Y-75800000D01*
X119670000Y-77920000D02*
X119670000Y-79330000D01*
X121212894Y-58420000D02*
X121920000Y-58420000D01*
X119615000Y-56822106D02*
X121212894Y-58420000D01*
X119615000Y-56145000D02*
X119615000Y-56822106D01*
X123670000Y-77920000D02*
X123670000Y-73670000D01*
X123670000Y-73670000D02*
X122800000Y-72800000D01*
X118800000Y-57840000D02*
X119380000Y-58420000D01*
X118800000Y-56200000D02*
X118800000Y-57840000D01*
X116334999Y-56145000D02*
X118815000Y-56145000D01*
X115600000Y-55410001D02*
X116334999Y-56145000D01*
X115600000Y-53310000D02*
X115600000Y-55410001D01*
X116840000Y-52070000D02*
X115600000Y-53310000D01*
X124170000Y-73170000D02*
X123200000Y-72200000D01*
X124170000Y-77920000D02*
X124170000Y-73170000D01*
X127400000Y-64800000D02*
X128600000Y-64800000D01*
X125400000Y-66800000D02*
X127400000Y-64800000D01*
X123440000Y-57400000D02*
X123960001Y-57920001D01*
X121279998Y-57400000D02*
X123440000Y-57400000D01*
X120415000Y-56535002D02*
X121279998Y-57400000D01*
X123960001Y-57920001D02*
X124460000Y-58420000D01*
X120415000Y-56145000D02*
X120415000Y-56535002D01*
X120670000Y-71670000D02*
X120600000Y-71600000D01*
X120670000Y-77920000D02*
X120670000Y-71670000D01*
X121170000Y-71370000D02*
X120600000Y-70800000D01*
X121170000Y-77920000D02*
X121170000Y-71370000D01*
X127000000Y-72800000D02*
X127000000Y-73660000D01*
X124583553Y-70383553D02*
X127000000Y-72800000D01*
X123016447Y-70383553D02*
X124583553Y-70383553D01*
X122600000Y-69967106D02*
X123016447Y-70383553D01*
X122600000Y-69000000D02*
X122600000Y-69967106D01*
X125601716Y-65568630D02*
X125620010Y-65550336D01*
X125601716Y-65798284D02*
X125601716Y-65568630D01*
X125400000Y-66000000D02*
X125601716Y-65798284D01*
X125620010Y-65234102D02*
X125670000Y-64320000D01*
X125200000Y-66000000D02*
X125400000Y-66000000D01*
X125620010Y-65550336D02*
X125620010Y-65234102D01*
X124800000Y-66400000D02*
X125200000Y-66000000D01*
X124800000Y-67000000D02*
X124800000Y-66400000D01*
X125200000Y-67400000D02*
X124800000Y-67000000D01*
X125400000Y-67400000D02*
X125200000Y-67400000D01*
X126080000Y-70200000D02*
X127000000Y-71120000D01*
X125000000Y-70200000D02*
X126080000Y-70200000D01*
X124200000Y-69400000D02*
X125000000Y-70200000D01*
X123800000Y-69400000D02*
X124200000Y-69400000D01*
X122670000Y-79070000D02*
X122670000Y-77920000D01*
X122670000Y-79270000D02*
X122670000Y-79070000D01*
X123000000Y-79600000D02*
X122670000Y-79270000D01*
X126000000Y-79600000D02*
X123000000Y-79600000D01*
X128000000Y-77600000D02*
X126000000Y-79600000D01*
X128000000Y-73000000D02*
X128000000Y-77600000D01*
X127000000Y-72000000D02*
X128000000Y-73000000D01*
X127000000Y-71120000D02*
X127000000Y-72000000D01*
X123170000Y-73970000D02*
X123170000Y-76770000D01*
X123170000Y-76770000D02*
X123170000Y-77920000D01*
X122299999Y-72559999D02*
X122299999Y-73099999D01*
X122300001Y-72559997D02*
X122299999Y-72559999D01*
X122300001Y-71100001D02*
X122300001Y-72559997D01*
X122299999Y-73099999D02*
X123170000Y-73970000D01*
X122000000Y-70800000D02*
X122300001Y-71100001D01*
X121670000Y-77920000D02*
X121670000Y-71730000D01*
X121670000Y-71730000D02*
X121800000Y-71600000D01*
X117430000Y-55200000D02*
X116840000Y-54610000D01*
X123620002Y-55200000D02*
X117430000Y-55200000D01*
X124200000Y-55779998D02*
X123620002Y-55200000D01*
X124200000Y-56200000D02*
X124200000Y-55779998D01*
D21*
G36*
X120715894Y-49367977D02*
G01*
X120730406Y-49401837D01*
X120744412Y-49435817D01*
X120747106Y-49440801D01*
X120747108Y-49440806D01*
X120747111Y-49440810D01*
X120830693Y-49592847D01*
X120851499Y-49623234D01*
X120871847Y-49653860D01*
X120875460Y-49658228D01*
X120986985Y-49791138D01*
X121013306Y-49816914D01*
X121039205Y-49842994D01*
X121043598Y-49846578D01*
X121178815Y-49955294D01*
X121209607Y-49975444D01*
X121240113Y-49996020D01*
X121245118Y-49998682D01*
X121398877Y-50079065D01*
X121433040Y-50092868D01*
X121466917Y-50107108D01*
X121472338Y-50108745D01*
X121472345Y-50108748D01*
X121472352Y-50108749D01*
X121638787Y-50157734D01*
X121674957Y-50164634D01*
X121710979Y-50172028D01*
X121716619Y-50172582D01*
X121716621Y-50172582D01*
X121889409Y-50188307D01*
X121926206Y-50188050D01*
X121963003Y-50188307D01*
X121968645Y-50187754D01*
X122141196Y-50169618D01*
X122177262Y-50162215D01*
X122213388Y-50155323D01*
X122218815Y-50153685D01*
X122384558Y-50102379D01*
X122418521Y-50088102D01*
X122452599Y-50074334D01*
X122457600Y-50071676D01*
X122457604Y-50071674D01*
X122457607Y-50071672D01*
X122610225Y-49989151D01*
X122640737Y-49968571D01*
X122671522Y-49948426D01*
X122675910Y-49944847D01*
X122675916Y-49944843D01*
X122675921Y-49944838D01*
X122809601Y-49834249D01*
X122835553Y-49808116D01*
X122861821Y-49782392D01*
X122865430Y-49778030D01*
X122865435Y-49778025D01*
X122865439Y-49778020D01*
X122975094Y-49643569D01*
X122995478Y-49612889D01*
X123016247Y-49582557D01*
X123018941Y-49577575D01*
X123018944Y-49577571D01*
X123018946Y-49577567D01*
X123100398Y-49424377D01*
X123114420Y-49390356D01*
X123128916Y-49356535D01*
X123130593Y-49351119D01*
X123145725Y-49301000D01*
X129219753Y-49301000D01*
X130846988Y-49306573D01*
X130854099Y-49307270D01*
X130896524Y-49320079D01*
X130935647Y-49340881D01*
X130969987Y-49368888D01*
X130998235Y-49403034D01*
X131019312Y-49442016D01*
X131032415Y-49484343D01*
X131039000Y-49546992D01*
X131039001Y-79990130D01*
X131032730Y-80054100D01*
X131019921Y-80096523D01*
X130999119Y-80135647D01*
X130971110Y-80169989D01*
X130936966Y-80198235D01*
X130897984Y-80219312D01*
X130855657Y-80232415D01*
X130793008Y-80239000D01*
X113049860Y-80239000D01*
X112985900Y-80232730D01*
X112943477Y-80219921D01*
X112904353Y-80199119D01*
X112870011Y-80171110D01*
X112841765Y-80136966D01*
X112820688Y-80097984D01*
X112807585Y-80055657D01*
X112801000Y-79993008D01*
X112801000Y-79049114D01*
X113160171Y-79049114D01*
X113180527Y-79116239D01*
X113275438Y-79327408D01*
X113409722Y-79516003D01*
X113578219Y-79674777D01*
X113774454Y-79797628D01*
X113990885Y-79879835D01*
X114173000Y-79818908D01*
X114173000Y-78867000D01*
X114427000Y-78867000D01*
X114427000Y-79818908D01*
X114609115Y-79879835D01*
X114825546Y-79797628D01*
X115021781Y-79674777D01*
X115190278Y-79516003D01*
X115324562Y-79327408D01*
X115419473Y-79116239D01*
X115439829Y-79049114D01*
X115378297Y-78867000D01*
X114427000Y-78867000D01*
X114173000Y-78867000D01*
X113221703Y-78867000D01*
X113160171Y-79049114D01*
X112801000Y-79049114D01*
X112801000Y-78430886D01*
X113160171Y-78430886D01*
X113221703Y-78613000D01*
X114173000Y-78613000D01*
X114173000Y-77661092D01*
X114427000Y-77661092D01*
X114427000Y-78613000D01*
X115378297Y-78613000D01*
X115439829Y-78430886D01*
X115419473Y-78363761D01*
X115324562Y-78152592D01*
X115190278Y-77963997D01*
X115021781Y-77805223D01*
X114825546Y-77682372D01*
X114609115Y-77600165D01*
X114427000Y-77661092D01*
X114173000Y-77661092D01*
X113990885Y-77600165D01*
X113774454Y-77682372D01*
X113578219Y-77805223D01*
X113409722Y-77963997D01*
X113275438Y-78152592D01*
X113180527Y-78363761D01*
X113160171Y-78430886D01*
X112801000Y-78430886D01*
X112801000Y-60843682D01*
X113119000Y-60843682D01*
X113119000Y-61076318D01*
X113164386Y-61304485D01*
X113253412Y-61519413D01*
X113382658Y-61712843D01*
X113547157Y-61877342D01*
X113740587Y-62006588D01*
X113955515Y-62095614D01*
X114183682Y-62141000D01*
X114416318Y-62141000D01*
X114644485Y-62095614D01*
X114722898Y-62063134D01*
X117303170Y-64643406D01*
X117318236Y-64661764D01*
X117391478Y-64721872D01*
X117430374Y-64742662D01*
X117475038Y-64766536D01*
X117565707Y-64794040D01*
X117637157Y-64801077D01*
X117637157Y-65395000D01*
X117645954Y-65484321D01*
X117672008Y-65570209D01*
X117714317Y-65649364D01*
X117771256Y-65718744D01*
X117771555Y-65718989D01*
X117199225Y-65718989D01*
X115456828Y-63976592D01*
X115456823Y-63976586D01*
X115403134Y-63922898D01*
X115435614Y-63844485D01*
X115481000Y-63616318D01*
X115481000Y-63383682D01*
X115435614Y-63155515D01*
X115346588Y-62940587D01*
X115217342Y-62747157D01*
X115052843Y-62582658D01*
X114859413Y-62453412D01*
X114644485Y-62364386D01*
X114416318Y-62319000D01*
X114183682Y-62319000D01*
X113955515Y-62364386D01*
X113740587Y-62453412D01*
X113547157Y-62582658D01*
X113382658Y-62747157D01*
X113253412Y-62940587D01*
X113164386Y-63155515D01*
X113119000Y-63383682D01*
X113119000Y-63616318D01*
X113164386Y-63844485D01*
X113253412Y-64059413D01*
X113382658Y-64252843D01*
X113547157Y-64417342D01*
X113740587Y-64546588D01*
X113955515Y-64635614D01*
X114183682Y-64681000D01*
X114416318Y-64681000D01*
X114644485Y-64635614D01*
X114722898Y-64603134D01*
X114776586Y-64656823D01*
X114776592Y-64656828D01*
X116478763Y-66358999D01*
X115440684Y-66358999D01*
X115481000Y-66156318D01*
X115481000Y-65923682D01*
X115435614Y-65695515D01*
X115346588Y-65480587D01*
X115217342Y-65287157D01*
X115052843Y-65122658D01*
X114859413Y-64993412D01*
X114644485Y-64904386D01*
X114416318Y-64859000D01*
X114183682Y-64859000D01*
X113955515Y-64904386D01*
X113740587Y-64993412D01*
X113547157Y-65122658D01*
X113382658Y-65287157D01*
X113253412Y-65480587D01*
X113164386Y-65695515D01*
X113119000Y-65923682D01*
X113119000Y-66156318D01*
X113164386Y-66384485D01*
X113253412Y-66599413D01*
X113382658Y-66792843D01*
X113547157Y-66957342D01*
X113740587Y-67086588D01*
X113955515Y-67175614D01*
X114183682Y-67221000D01*
X114416318Y-67221000D01*
X114644485Y-67175614D01*
X114722898Y-67143134D01*
X114743173Y-67163410D01*
X114758235Y-67181763D01*
X114831477Y-67241871D01*
X114915038Y-67286535D01*
X115005707Y-67314039D01*
X115076373Y-67320999D01*
X115076382Y-67320999D01*
X115099998Y-67323325D01*
X115123614Y-67320999D01*
X117633065Y-67320999D01*
X116855064Y-68099000D01*
X115379068Y-68099000D01*
X115346588Y-68020587D01*
X115217342Y-67827157D01*
X115052843Y-67662658D01*
X114859413Y-67533412D01*
X114644485Y-67444386D01*
X114416318Y-67399000D01*
X114183682Y-67399000D01*
X113955515Y-67444386D01*
X113740587Y-67533412D01*
X113547157Y-67662658D01*
X113382658Y-67827157D01*
X113253412Y-68020587D01*
X113164386Y-68235515D01*
X113119000Y-68463682D01*
X113119000Y-68696318D01*
X113164386Y-68924485D01*
X113253412Y-69139413D01*
X113382658Y-69332843D01*
X113547157Y-69497342D01*
X113740587Y-69626588D01*
X113955515Y-69715614D01*
X114183682Y-69761000D01*
X114416318Y-69761000D01*
X114644485Y-69715614D01*
X114859413Y-69626588D01*
X115052843Y-69497342D01*
X115217342Y-69332843D01*
X115346588Y-69139413D01*
X115379068Y-69061000D01*
X116458764Y-69061000D01*
X115184974Y-70334789D01*
X115052843Y-70202658D01*
X114859413Y-70073412D01*
X114644485Y-69984386D01*
X114416318Y-69939000D01*
X114183682Y-69939000D01*
X113955515Y-69984386D01*
X113740587Y-70073412D01*
X113547157Y-70202658D01*
X113382658Y-70367157D01*
X113253412Y-70560587D01*
X113164386Y-70775515D01*
X113119000Y-71003682D01*
X113119000Y-71236318D01*
X113164386Y-71464485D01*
X113253412Y-71679413D01*
X113382658Y-71872843D01*
X113547157Y-72037342D01*
X113740587Y-72166588D01*
X113955515Y-72255614D01*
X114183682Y-72301000D01*
X114398764Y-72301000D01*
X114220764Y-72479000D01*
X114183682Y-72479000D01*
X113955515Y-72524386D01*
X113740587Y-72613412D01*
X113547157Y-72742658D01*
X113382658Y-72907157D01*
X113253412Y-73100587D01*
X113164386Y-73315515D01*
X113119000Y-73543682D01*
X113119000Y-73776318D01*
X113164386Y-74004485D01*
X113253412Y-74219413D01*
X113382658Y-74412843D01*
X113547157Y-74577342D01*
X113740587Y-74706588D01*
X113955515Y-74795614D01*
X114183682Y-74841000D01*
X114416318Y-74841000D01*
X114644485Y-74795614D01*
X114859413Y-74706588D01*
X114919000Y-74666773D01*
X114919000Y-74800763D01*
X114652187Y-75067576D01*
X114644485Y-75064386D01*
X114416318Y-75019000D01*
X114183682Y-75019000D01*
X113955515Y-75064386D01*
X113740587Y-75153412D01*
X113547157Y-75282658D01*
X113382658Y-75447157D01*
X113253412Y-75640587D01*
X113164386Y-75855515D01*
X113119000Y-76083682D01*
X113119000Y-76316318D01*
X113164386Y-76544485D01*
X113253412Y-76759413D01*
X113382658Y-76952843D01*
X113547157Y-77117342D01*
X113740587Y-77246588D01*
X113955515Y-77335614D01*
X114183682Y-77381000D01*
X114416318Y-77381000D01*
X114644485Y-77335614D01*
X114859413Y-77246588D01*
X115052843Y-77117342D01*
X115217342Y-76952843D01*
X115346588Y-76759413D01*
X115435614Y-76544485D01*
X115481000Y-76316318D01*
X115481000Y-76083682D01*
X115435614Y-75855515D01*
X115373845Y-75706392D01*
X115723412Y-75356825D01*
X115741764Y-75341764D01*
X115801872Y-75268522D01*
X115846536Y-75184961D01*
X115874040Y-75094292D01*
X115874791Y-75086673D01*
X115883327Y-75000000D01*
X115881000Y-74976374D01*
X115881000Y-72999236D01*
X116123411Y-72756826D01*
X116141764Y-72741764D01*
X116201872Y-72668522D01*
X116246536Y-72584961D01*
X116274040Y-72494292D01*
X116277688Y-72457253D01*
X116285125Y-72475207D01*
X116348708Y-72570366D01*
X116429634Y-72651292D01*
X116502531Y-72700000D01*
X116429634Y-72748708D01*
X116348708Y-72829634D01*
X116285125Y-72924793D01*
X116241328Y-73030529D01*
X116219000Y-73142777D01*
X116219000Y-73257223D01*
X116241328Y-73369471D01*
X116285125Y-73475207D01*
X116348708Y-73570366D01*
X116429634Y-73651292D01*
X116502531Y-73700000D01*
X116429634Y-73748708D01*
X116348708Y-73829634D01*
X116285125Y-73924793D01*
X116241328Y-74030529D01*
X116219000Y-74142777D01*
X116219000Y-74257223D01*
X116241328Y-74369471D01*
X116285125Y-74475207D01*
X116348708Y-74570366D01*
X116429634Y-74651292D01*
X116502531Y-74700000D01*
X116429634Y-74748708D01*
X116348708Y-74829634D01*
X116285125Y-74924793D01*
X116241328Y-75030529D01*
X116219000Y-75142777D01*
X116219000Y-75257223D01*
X116241328Y-75369471D01*
X116285125Y-75475207D01*
X116348708Y-75570366D01*
X116429634Y-75651292D01*
X116524793Y-75714875D01*
X116630529Y-75758672D01*
X116690331Y-75770568D01*
X116919001Y-75999238D01*
X116919000Y-79176374D01*
X116916673Y-79200000D01*
X116925960Y-79294292D01*
X116933378Y-79318744D01*
X116953464Y-79384960D01*
X116998128Y-79468522D01*
X117058236Y-79541764D01*
X117076593Y-79556830D01*
X117443174Y-79923411D01*
X117458236Y-79941764D01*
X117531478Y-80001872D01*
X117615039Y-80046536D01*
X117705708Y-80074040D01*
X117776374Y-80081000D01*
X117776383Y-80081000D01*
X117799999Y-80083326D01*
X117823615Y-80081000D01*
X119376374Y-80081000D01*
X119400000Y-80083327D01*
X119423626Y-80081000D01*
X119494292Y-80074040D01*
X119584961Y-80046536D01*
X119668522Y-80001872D01*
X119741764Y-79941764D01*
X119756830Y-79923406D01*
X119993406Y-79686830D01*
X120011764Y-79671764D01*
X120071872Y-79598522D01*
X120102210Y-79541764D01*
X120116536Y-79514962D01*
X120135379Y-79452843D01*
X120245000Y-79452843D01*
X120334321Y-79444046D01*
X120420000Y-79418055D01*
X120505679Y-79444046D01*
X120595000Y-79452843D01*
X120745000Y-79452843D01*
X120834321Y-79444046D01*
X120920000Y-79418055D01*
X121005679Y-79444046D01*
X121095000Y-79452843D01*
X121236889Y-79452843D01*
X121219000Y-79542777D01*
X121219000Y-79657223D01*
X121241328Y-79769471D01*
X121285125Y-79875207D01*
X121348708Y-79970366D01*
X121429634Y-80051292D01*
X121524793Y-80114875D01*
X121630529Y-80158672D01*
X121742777Y-80181000D01*
X121857223Y-80181000D01*
X121969471Y-80158672D01*
X122075207Y-80114875D01*
X122170366Y-80051292D01*
X122251292Y-79970366D01*
X122314875Y-79875207D01*
X122358672Y-79769471D01*
X122370568Y-79709669D01*
X122400000Y-79680236D01*
X122643174Y-79923411D01*
X122658236Y-79941764D01*
X122731478Y-80001872D01*
X122815039Y-80046536D01*
X122905708Y-80074040D01*
X122976374Y-80081000D01*
X122976383Y-80081000D01*
X122999999Y-80083326D01*
X123023615Y-80081000D01*
X125976374Y-80081000D01*
X126000000Y-80083327D01*
X126023626Y-80081000D01*
X126094292Y-80074040D01*
X126184961Y-80046536D01*
X126268522Y-80001872D01*
X126341764Y-79941764D01*
X126356830Y-79923406D01*
X127656554Y-78623682D01*
X128359000Y-78623682D01*
X128359000Y-78856318D01*
X128404386Y-79084485D01*
X128493412Y-79299413D01*
X128622658Y-79492843D01*
X128787157Y-79657342D01*
X128980587Y-79786588D01*
X129195515Y-79875614D01*
X129423682Y-79921000D01*
X129656318Y-79921000D01*
X129884485Y-79875614D01*
X130099413Y-79786588D01*
X130292843Y-79657342D01*
X130457342Y-79492843D01*
X130586588Y-79299413D01*
X130675614Y-79084485D01*
X130721000Y-78856318D01*
X130721000Y-78623682D01*
X130675614Y-78395515D01*
X130586588Y-78180587D01*
X130457342Y-77987157D01*
X130292843Y-77822658D01*
X130099413Y-77693412D01*
X129884485Y-77604386D01*
X129656318Y-77559000D01*
X129423682Y-77559000D01*
X129195515Y-77604386D01*
X128980587Y-77693412D01*
X128787157Y-77822658D01*
X128622658Y-77987157D01*
X128493412Y-78180587D01*
X128404386Y-78395515D01*
X128359000Y-78623682D01*
X127656554Y-78623682D01*
X128323412Y-77956825D01*
X128341764Y-77941764D01*
X128401872Y-77868522D01*
X128446536Y-77784961D01*
X128474040Y-77694292D01*
X128481000Y-77623626D01*
X128483327Y-77600001D01*
X128481000Y-77576374D01*
X128481000Y-76729448D01*
X128493412Y-76759413D01*
X128622658Y-76952843D01*
X128787157Y-77117342D01*
X128980587Y-77246588D01*
X129195515Y-77335614D01*
X129423682Y-77381000D01*
X129656318Y-77381000D01*
X129884485Y-77335614D01*
X130099413Y-77246588D01*
X130292843Y-77117342D01*
X130457342Y-76952843D01*
X130586588Y-76759413D01*
X130675614Y-76544485D01*
X130721000Y-76316318D01*
X130721000Y-76083682D01*
X130675614Y-75855515D01*
X130586588Y-75640587D01*
X130457342Y-75447157D01*
X130292843Y-75282658D01*
X130099413Y-75153412D01*
X129884485Y-75064386D01*
X129656318Y-75019000D01*
X129423682Y-75019000D01*
X129195515Y-75064386D01*
X129117102Y-75096866D01*
X128920999Y-74900763D01*
X128920999Y-74666773D01*
X128980587Y-74706588D01*
X129195515Y-74795614D01*
X129423682Y-74841000D01*
X129656318Y-74841000D01*
X129884485Y-74795614D01*
X130099413Y-74706588D01*
X130292843Y-74577342D01*
X130457342Y-74412843D01*
X130586588Y-74219413D01*
X130675614Y-74004485D01*
X130721000Y-73776318D01*
X130721000Y-73543682D01*
X130675614Y-73315515D01*
X130586588Y-73100587D01*
X130457342Y-72907157D01*
X130292843Y-72742658D01*
X130099413Y-72613412D01*
X129884485Y-72524386D01*
X129656318Y-72479000D01*
X129559237Y-72479000D01*
X129370697Y-72290460D01*
X129423682Y-72301000D01*
X129656318Y-72301000D01*
X129884485Y-72255614D01*
X130099413Y-72166588D01*
X130292843Y-72037342D01*
X130457342Y-71872843D01*
X130586588Y-71679413D01*
X130675614Y-71464485D01*
X130721000Y-71236318D01*
X130721000Y-71003682D01*
X130675614Y-70775515D01*
X130586588Y-70560587D01*
X130457342Y-70367157D01*
X130292843Y-70202658D01*
X130099413Y-70073412D01*
X129884485Y-69984386D01*
X129656318Y-69939000D01*
X129423682Y-69939000D01*
X129419974Y-69939738D01*
X129195934Y-69715697D01*
X129423682Y-69761000D01*
X129656318Y-69761000D01*
X129884485Y-69715614D01*
X130099413Y-69626588D01*
X130292843Y-69497342D01*
X130457342Y-69332843D01*
X130586588Y-69139413D01*
X130675614Y-68924485D01*
X130721000Y-68696318D01*
X130721000Y-68463682D01*
X130675614Y-68235515D01*
X130586588Y-68020587D01*
X130457342Y-67827157D01*
X130292843Y-67662658D01*
X130099413Y-67533412D01*
X129884485Y-67444386D01*
X129656318Y-67399000D01*
X129423682Y-67399000D01*
X129195515Y-67444386D01*
X128980587Y-67533412D01*
X128787157Y-67662658D01*
X128622658Y-67827157D01*
X128493412Y-68020587D01*
X128460932Y-68099000D01*
X125979237Y-68099000D01*
X125747085Y-67866848D01*
X125770366Y-67851292D01*
X125851292Y-67770366D01*
X125914875Y-67675207D01*
X125958672Y-67569471D01*
X125981000Y-67457223D01*
X125981000Y-67342777D01*
X125958672Y-67230529D01*
X125914875Y-67124793D01*
X125898309Y-67100000D01*
X125914875Y-67075207D01*
X125958672Y-66969471D01*
X125970568Y-66909668D01*
X127599237Y-65281000D01*
X128274095Y-65281000D01*
X128324793Y-65314875D01*
X128430529Y-65358672D01*
X128542777Y-65381000D01*
X128559954Y-65381000D01*
X128493412Y-65480587D01*
X128404386Y-65695515D01*
X128359000Y-65923682D01*
X128359000Y-66156318D01*
X128404386Y-66384485D01*
X128493412Y-66599413D01*
X128622658Y-66792843D01*
X128787157Y-66957342D01*
X128980587Y-67086588D01*
X129195515Y-67175614D01*
X129423682Y-67221000D01*
X129656318Y-67221000D01*
X129884485Y-67175614D01*
X130099413Y-67086588D01*
X130292843Y-66957342D01*
X130457342Y-66792843D01*
X130586588Y-66599413D01*
X130675614Y-66384485D01*
X130721000Y-66156318D01*
X130721000Y-65923682D01*
X130675614Y-65695515D01*
X130586588Y-65480587D01*
X130457342Y-65287157D01*
X130292843Y-65122658D01*
X130099413Y-64993412D01*
X129884485Y-64904386D01*
X129656318Y-64859000D01*
X129423682Y-64859000D01*
X129195515Y-64904386D01*
X129169473Y-64915173D01*
X129181000Y-64857223D01*
X129181000Y-64742777D01*
X129158672Y-64630529D01*
X129153584Y-64618246D01*
X129195515Y-64635614D01*
X129423682Y-64681000D01*
X129656318Y-64681000D01*
X129884485Y-64635614D01*
X130099413Y-64546588D01*
X130292843Y-64417342D01*
X130457342Y-64252843D01*
X130586588Y-64059413D01*
X130675614Y-63844485D01*
X130721000Y-63616318D01*
X130721000Y-63383682D01*
X130675614Y-63155515D01*
X130586588Y-62940587D01*
X130457342Y-62747157D01*
X130292843Y-62582658D01*
X130099413Y-62453412D01*
X129884485Y-62364386D01*
X129656318Y-62319000D01*
X129423682Y-62319000D01*
X129195515Y-62364386D01*
X129117102Y-62396866D01*
X128201236Y-61481000D01*
X128477501Y-61481000D01*
X128493412Y-61519413D01*
X128622658Y-61712843D01*
X128787157Y-61877342D01*
X128980587Y-62006588D01*
X129195515Y-62095614D01*
X129423682Y-62141000D01*
X129656318Y-62141000D01*
X129884485Y-62095614D01*
X130099413Y-62006588D01*
X130292843Y-61877342D01*
X130457342Y-61712843D01*
X130586588Y-61519413D01*
X130675614Y-61304485D01*
X130721000Y-61076318D01*
X130721000Y-60843682D01*
X130675614Y-60615515D01*
X130586588Y-60400587D01*
X130457342Y-60207157D01*
X130292843Y-60042658D01*
X130099413Y-59913412D01*
X129884485Y-59824386D01*
X129656318Y-59779000D01*
X129423682Y-59779000D01*
X129195515Y-59824386D01*
X128980587Y-59913412D01*
X128787157Y-60042658D01*
X128622658Y-60207157D01*
X128493412Y-60400587D01*
X128444364Y-60519000D01*
X126023626Y-60519000D01*
X125999999Y-60516673D01*
X125905707Y-60525960D01*
X125878203Y-60534304D01*
X125815039Y-60553464D01*
X125731478Y-60598128D01*
X125658236Y-60658236D01*
X125643175Y-60676588D01*
X125341000Y-60978763D01*
X125341000Y-60873229D01*
X125307144Y-60703022D01*
X125240732Y-60542690D01*
X125144318Y-60398395D01*
X125021605Y-60275682D01*
X124877310Y-60179268D01*
X124716978Y-60112856D01*
X124546771Y-60079000D01*
X124373229Y-60079000D01*
X124203022Y-60112856D01*
X124042690Y-60179268D01*
X123898395Y-60275682D01*
X123775682Y-60398395D01*
X123679268Y-60542690D01*
X123612856Y-60703022D01*
X123579000Y-60873229D01*
X123579000Y-61046771D01*
X123612856Y-61216978D01*
X123679268Y-61377310D01*
X123775682Y-61521605D01*
X123898395Y-61644318D01*
X124042690Y-61740732D01*
X124203022Y-61807144D01*
X124373229Y-61841000D01*
X124478764Y-61841000D01*
X124346589Y-61973175D01*
X124328237Y-61988236D01*
X124313176Y-62006588D01*
X124268129Y-62061478D01*
X124223465Y-62145039D01*
X124195960Y-62235708D01*
X124186673Y-62330000D01*
X124189001Y-62353636D01*
X124189001Y-62787157D01*
X124095000Y-62787157D01*
X124005679Y-62795954D01*
X123920000Y-62821945D01*
X123834321Y-62795954D01*
X123745000Y-62787157D01*
X123595000Y-62787157D01*
X123505679Y-62795954D01*
X123420000Y-62821945D01*
X123334321Y-62795954D01*
X123245000Y-62787157D01*
X123095000Y-62787157D01*
X123005679Y-62795954D01*
X122920000Y-62821945D01*
X122834321Y-62795954D01*
X122745000Y-62787157D01*
X122595000Y-62787157D01*
X122505679Y-62795954D01*
X122420000Y-62821945D01*
X122334321Y-62795954D01*
X122245000Y-62787157D01*
X122095000Y-62787157D01*
X122005679Y-62795954D01*
X121952559Y-62812068D01*
X121894689Y-62794513D01*
X121820000Y-62787157D01*
X121788250Y-62789000D01*
X121693000Y-62884250D01*
X121693000Y-63030518D01*
X121672008Y-63069791D01*
X121670000Y-63076410D01*
X121667992Y-63069791D01*
X121647000Y-63030518D01*
X121647000Y-62884250D01*
X121551750Y-62789000D01*
X121520000Y-62787157D01*
X121445311Y-62794513D01*
X121387441Y-62812068D01*
X121334321Y-62795954D01*
X121245000Y-62787157D01*
X121095000Y-62787157D01*
X121005679Y-62795954D01*
X120920000Y-62821945D01*
X120834321Y-62795954D01*
X120745000Y-62787157D01*
X120595000Y-62787157D01*
X120505679Y-62795954D01*
X120420000Y-62821945D01*
X120334321Y-62795954D01*
X120245000Y-62787157D01*
X120095000Y-62787157D01*
X120005679Y-62795954D01*
X119920000Y-62821945D01*
X119834321Y-62795954D01*
X119745000Y-62787157D01*
X119595000Y-62787157D01*
X119505679Y-62795954D01*
X119420000Y-62821945D01*
X119334321Y-62795954D01*
X119245000Y-62787157D01*
X119095000Y-62787157D01*
X119005679Y-62795954D01*
X118920000Y-62821945D01*
X118834321Y-62795954D01*
X118745000Y-62787157D01*
X118595000Y-62787157D01*
X118505679Y-62795954D01*
X118420000Y-62821945D01*
X118334321Y-62795954D01*
X118245000Y-62787157D01*
X118095000Y-62787157D01*
X118005679Y-62795954D01*
X117919791Y-62822008D01*
X117840636Y-62864317D01*
X117771256Y-62921256D01*
X117714317Y-62990636D01*
X117672008Y-63069791D01*
X117645954Y-63155679D01*
X117637157Y-63245000D01*
X117637157Y-63616921D01*
X115403134Y-61382898D01*
X115435614Y-61304485D01*
X115481000Y-61076318D01*
X115481000Y-60873229D01*
X118499000Y-60873229D01*
X118499000Y-61046771D01*
X118532856Y-61216978D01*
X118599268Y-61377310D01*
X118695682Y-61521605D01*
X118818395Y-61644318D01*
X118962690Y-61740732D01*
X119123022Y-61807144D01*
X119293229Y-61841000D01*
X119466771Y-61841000D01*
X119636978Y-61807144D01*
X119797310Y-61740732D01*
X119941605Y-61644318D01*
X120064318Y-61521605D01*
X120160732Y-61377310D01*
X120227144Y-61216978D01*
X120261000Y-61046771D01*
X120261000Y-60873229D01*
X121039000Y-60873229D01*
X121039000Y-61046771D01*
X121072856Y-61216978D01*
X121139268Y-61377310D01*
X121235682Y-61521605D01*
X121358395Y-61644318D01*
X121502690Y-61740732D01*
X121663022Y-61807144D01*
X121833229Y-61841000D01*
X122006771Y-61841000D01*
X122176978Y-61807144D01*
X122337310Y-61740732D01*
X122481605Y-61644318D01*
X122604318Y-61521605D01*
X122700732Y-61377310D01*
X122767144Y-61216978D01*
X122801000Y-61046771D01*
X122801000Y-60873229D01*
X122767144Y-60703022D01*
X122700732Y-60542690D01*
X122604318Y-60398395D01*
X122481605Y-60275682D01*
X122337310Y-60179268D01*
X122176978Y-60112856D01*
X122006771Y-60079000D01*
X121833229Y-60079000D01*
X121663022Y-60112856D01*
X121502690Y-60179268D01*
X121358395Y-60275682D01*
X121235682Y-60398395D01*
X121139268Y-60542690D01*
X121072856Y-60703022D01*
X121039000Y-60873229D01*
X120261000Y-60873229D01*
X120227144Y-60703022D01*
X120160732Y-60542690D01*
X120064318Y-60398395D01*
X119941605Y-60275682D01*
X119797310Y-60179268D01*
X119636978Y-60112856D01*
X119466771Y-60079000D01*
X119293229Y-60079000D01*
X119123022Y-60112856D01*
X118962690Y-60179268D01*
X118818395Y-60275682D01*
X118695682Y-60398395D01*
X118599268Y-60542690D01*
X118532856Y-60703022D01*
X118499000Y-60873229D01*
X115481000Y-60873229D01*
X115481000Y-60843682D01*
X115435614Y-60615515D01*
X115346588Y-60400587D01*
X115217342Y-60207157D01*
X115052843Y-60042658D01*
X114859413Y-59913412D01*
X114644485Y-59824386D01*
X114416318Y-59779000D01*
X114183682Y-59779000D01*
X113955515Y-59824386D01*
X113740587Y-59913412D01*
X113547157Y-60042658D01*
X113382658Y-60207157D01*
X113253412Y-60400587D01*
X113164386Y-60615515D01*
X113119000Y-60843682D01*
X112801000Y-60843682D01*
X112801000Y-58303682D01*
X113119000Y-58303682D01*
X113119000Y-58536318D01*
X113164386Y-58764485D01*
X113253412Y-58979413D01*
X113382658Y-59172843D01*
X113547157Y-59337342D01*
X113740587Y-59466588D01*
X113955515Y-59555614D01*
X114183682Y-59601000D01*
X114416318Y-59601000D01*
X114644485Y-59555614D01*
X114859413Y-59466588D01*
X115052843Y-59337342D01*
X115217342Y-59172843D01*
X115346588Y-58979413D01*
X115435614Y-58764485D01*
X115481000Y-58536318D01*
X115481000Y-58303682D01*
X115435614Y-58075515D01*
X115346588Y-57860587D01*
X115217342Y-57667157D01*
X115052843Y-57502658D01*
X114859413Y-57373412D01*
X114644485Y-57284386D01*
X114416318Y-57239000D01*
X114183682Y-57239000D01*
X113955515Y-57284386D01*
X113740587Y-57373412D01*
X113547157Y-57502658D01*
X113382658Y-57667157D01*
X113253412Y-57860587D01*
X113164386Y-58075515D01*
X113119000Y-58303682D01*
X112801000Y-58303682D01*
X112801000Y-53223682D01*
X113119000Y-53223682D01*
X113119000Y-53456318D01*
X113164386Y-53684485D01*
X113253412Y-53899413D01*
X113382658Y-54092843D01*
X113547157Y-54257342D01*
X113740587Y-54386588D01*
X113955515Y-54475614D01*
X114183682Y-54521000D01*
X114416318Y-54521000D01*
X114644485Y-54475614D01*
X114859413Y-54386588D01*
X115052843Y-54257342D01*
X115119000Y-54191185D01*
X115119001Y-55028816D01*
X115052843Y-54962658D01*
X114859413Y-54833412D01*
X114644485Y-54744386D01*
X114416318Y-54699000D01*
X114183682Y-54699000D01*
X113955515Y-54744386D01*
X113740587Y-54833412D01*
X113547157Y-54962658D01*
X113382658Y-55127157D01*
X113253412Y-55320587D01*
X113164386Y-55535515D01*
X113119000Y-55763682D01*
X113119000Y-55996318D01*
X113164386Y-56224485D01*
X113253412Y-56439413D01*
X113382658Y-56632843D01*
X113547157Y-56797342D01*
X113740587Y-56926588D01*
X113955515Y-57015614D01*
X114183682Y-57061000D01*
X114416318Y-57061000D01*
X114644485Y-57015614D01*
X114859413Y-56926588D01*
X115052843Y-56797342D01*
X115217342Y-56632843D01*
X115346588Y-56439413D01*
X115435614Y-56224485D01*
X115481000Y-55996318D01*
X115481000Y-55971237D01*
X115978169Y-56468406D01*
X115993235Y-56486764D01*
X116066477Y-56546872D01*
X116088471Y-56558628D01*
X116150037Y-56591536D01*
X116240706Y-56619040D01*
X116334999Y-56628327D01*
X116358626Y-56626000D01*
X118191427Y-56626000D01*
X118211299Y-56691508D01*
X118246678Y-56757696D01*
X118294289Y-56815711D01*
X118319000Y-56835991D01*
X118319001Y-57816364D01*
X118316673Y-57840000D01*
X118325960Y-57934292D01*
X118346709Y-58002690D01*
X118353465Y-58024961D01*
X118398129Y-58108522D01*
X118458237Y-58181764D01*
X118476589Y-58196825D01*
X118517913Y-58238149D01*
X118499000Y-58333229D01*
X118499000Y-58506771D01*
X118532856Y-58676978D01*
X118599268Y-58837310D01*
X118695682Y-58981605D01*
X118818395Y-59104318D01*
X118962690Y-59200732D01*
X119123022Y-59267144D01*
X119293229Y-59301000D01*
X119466771Y-59301000D01*
X119636978Y-59267144D01*
X119797310Y-59200732D01*
X119941605Y-59104318D01*
X120064318Y-58981605D01*
X120160732Y-58837310D01*
X120227144Y-58676978D01*
X120261000Y-58506771D01*
X120261000Y-58333229D01*
X120227144Y-58163022D01*
X120192824Y-58080167D01*
X120856069Y-58743412D01*
X120871130Y-58761764D01*
X120944372Y-58821872D01*
X121027933Y-58866536D01*
X121118602Y-58894040D01*
X121181300Y-58900215D01*
X121235682Y-58981605D01*
X121358395Y-59104318D01*
X121502690Y-59200732D01*
X121663022Y-59267144D01*
X121833229Y-59301000D01*
X122006771Y-59301000D01*
X122176978Y-59267144D01*
X122337310Y-59200732D01*
X122481605Y-59104318D01*
X122604318Y-58981605D01*
X122700732Y-58837310D01*
X122767144Y-58676978D01*
X122801000Y-58506771D01*
X122801000Y-58333229D01*
X122767144Y-58163022D01*
X122700732Y-58002690D01*
X122619422Y-57881000D01*
X123240764Y-57881000D01*
X123597912Y-58238149D01*
X123579000Y-58333229D01*
X123579000Y-58506771D01*
X123612856Y-58676978D01*
X123679268Y-58837310D01*
X123775682Y-58981605D01*
X123898395Y-59104318D01*
X124042690Y-59200732D01*
X124203022Y-59267144D01*
X124373229Y-59301000D01*
X124546771Y-59301000D01*
X124716978Y-59267144D01*
X124877310Y-59200732D01*
X125021605Y-59104318D01*
X125144318Y-58981605D01*
X125240732Y-58837310D01*
X125307144Y-58676978D01*
X125341000Y-58506771D01*
X125341000Y-58333229D01*
X125335123Y-58303682D01*
X128359000Y-58303682D01*
X128359000Y-58536318D01*
X128404386Y-58764485D01*
X128493412Y-58979413D01*
X128622658Y-59172843D01*
X128787157Y-59337342D01*
X128980587Y-59466588D01*
X129195515Y-59555614D01*
X129423682Y-59601000D01*
X129656318Y-59601000D01*
X129884485Y-59555614D01*
X130099413Y-59466588D01*
X130292843Y-59337342D01*
X130457342Y-59172843D01*
X130586588Y-58979413D01*
X130675614Y-58764485D01*
X130721000Y-58536318D01*
X130721000Y-58303682D01*
X130675614Y-58075515D01*
X130586588Y-57860587D01*
X130457342Y-57667157D01*
X130292843Y-57502658D01*
X130099413Y-57373412D01*
X129884485Y-57284386D01*
X129656318Y-57239000D01*
X129423682Y-57239000D01*
X129195515Y-57284386D01*
X128980587Y-57373412D01*
X128787157Y-57502658D01*
X128622658Y-57667157D01*
X128493412Y-57860587D01*
X128404386Y-58075515D01*
X128359000Y-58303682D01*
X125335123Y-58303682D01*
X125307144Y-58163022D01*
X125240732Y-58002690D01*
X125144318Y-57858395D01*
X125021605Y-57735682D01*
X124877310Y-57639268D01*
X124716978Y-57572856D01*
X124546771Y-57539000D01*
X124373229Y-57539000D01*
X124278149Y-57557912D01*
X123796830Y-57076594D01*
X123781764Y-57058236D01*
X123708522Y-56998128D01*
X123624961Y-56953464D01*
X123540499Y-56927843D01*
X123625000Y-56927843D01*
X123699689Y-56920487D01*
X123771508Y-56898701D01*
X123825000Y-56870108D01*
X123878492Y-56898701D01*
X123950311Y-56920487D01*
X124025000Y-56927843D01*
X124425000Y-56927843D01*
X124499689Y-56920487D01*
X124571508Y-56898701D01*
X124600000Y-56883471D01*
X124628492Y-56898701D01*
X124700311Y-56920487D01*
X124775000Y-56927843D01*
X125275000Y-56927843D01*
X125349689Y-56920487D01*
X125421508Y-56898701D01*
X125487696Y-56863322D01*
X125545711Y-56815711D01*
X125593322Y-56757696D01*
X125628701Y-56691508D01*
X125650487Y-56619689D01*
X125657843Y-56545000D01*
X125657843Y-56268077D01*
X126218996Y-56829231D01*
X126218996Y-56857223D01*
X126241324Y-56969471D01*
X126285121Y-57075207D01*
X126348704Y-57170366D01*
X126429630Y-57251292D01*
X126524789Y-57314875D01*
X126630525Y-57358672D01*
X126742773Y-57381000D01*
X126857219Y-57381000D01*
X126969467Y-57358672D01*
X127075203Y-57314875D01*
X127170362Y-57251292D01*
X127251288Y-57170366D01*
X127314871Y-57075207D01*
X127358668Y-56969471D01*
X127380996Y-56857223D01*
X127380996Y-56742777D01*
X127358668Y-56630529D01*
X127314871Y-56524793D01*
X127251288Y-56429634D01*
X127170362Y-56348708D01*
X127075203Y-56285125D01*
X127007194Y-56256955D01*
X126475343Y-55725105D01*
X126640931Y-55793693D01*
X126878757Y-55841000D01*
X127121243Y-55841000D01*
X127359069Y-55793693D01*
X127431522Y-55763682D01*
X128359000Y-55763682D01*
X128359000Y-55996318D01*
X128404386Y-56224485D01*
X128493412Y-56439413D01*
X128622658Y-56632843D01*
X128787157Y-56797342D01*
X128980587Y-56926588D01*
X129195515Y-57015614D01*
X129423682Y-57061000D01*
X129656318Y-57061000D01*
X129884485Y-57015614D01*
X130099413Y-56926588D01*
X130292843Y-56797342D01*
X130457342Y-56632843D01*
X130586588Y-56439413D01*
X130675614Y-56224485D01*
X130721000Y-55996318D01*
X130721000Y-55763682D01*
X130675614Y-55535515D01*
X130586588Y-55320587D01*
X130457342Y-55127157D01*
X130292843Y-54962658D01*
X130099413Y-54833412D01*
X129884485Y-54744386D01*
X129656318Y-54699000D01*
X129423682Y-54699000D01*
X129195515Y-54744386D01*
X128980587Y-54833412D01*
X128787157Y-54962658D01*
X128622658Y-55127157D01*
X128493412Y-55320587D01*
X128404386Y-55535515D01*
X128359000Y-55763682D01*
X127431522Y-55763682D01*
X127583097Y-55700898D01*
X127784717Y-55566180D01*
X127956180Y-55394717D01*
X128090898Y-55193097D01*
X128183693Y-54969069D01*
X128231000Y-54731243D01*
X128231000Y-54488757D01*
X128183693Y-54250931D01*
X128090898Y-54026903D01*
X127956180Y-53825283D01*
X127879185Y-53748288D01*
X127884961Y-53746536D01*
X127968522Y-53701872D01*
X128041764Y-53641764D01*
X128056830Y-53623406D01*
X128359000Y-53321236D01*
X128359000Y-53456318D01*
X128404386Y-53684485D01*
X128493412Y-53899413D01*
X128622658Y-54092843D01*
X128787157Y-54257342D01*
X128980587Y-54386588D01*
X129195515Y-54475614D01*
X129423682Y-54521000D01*
X129656318Y-54521000D01*
X129884485Y-54475614D01*
X130099413Y-54386588D01*
X130292843Y-54257342D01*
X130457342Y-54092843D01*
X130586588Y-53899413D01*
X130675614Y-53684485D01*
X130721000Y-53456318D01*
X130721000Y-53223682D01*
X130675614Y-52995515D01*
X130586588Y-52780587D01*
X130457342Y-52587157D01*
X130292843Y-52422658D01*
X130099413Y-52293412D01*
X129884485Y-52204386D01*
X129656318Y-52159000D01*
X129521237Y-52159000D01*
X129709894Y-51970343D01*
X129884485Y-51935614D01*
X130099413Y-51846588D01*
X130292843Y-51717342D01*
X130457342Y-51552843D01*
X130586588Y-51359413D01*
X130675614Y-51144485D01*
X130721000Y-50916318D01*
X130721000Y-50683682D01*
X130675614Y-50455515D01*
X130586588Y-50240587D01*
X130457342Y-50047157D01*
X130292843Y-49882658D01*
X130099413Y-49753412D01*
X129884485Y-49664386D01*
X129656318Y-49619000D01*
X129423682Y-49619000D01*
X129195515Y-49664386D01*
X128980587Y-49753412D01*
X128787157Y-49882658D01*
X128622658Y-50047157D01*
X128493412Y-50240587D01*
X128404386Y-50455515D01*
X128359000Y-50683682D01*
X128359000Y-50916318D01*
X128404386Y-51144485D01*
X128493412Y-51359413D01*
X128622658Y-51552843D01*
X128694789Y-51624974D01*
X128231000Y-52088764D01*
X128231000Y-51948757D01*
X128183693Y-51710931D01*
X128090898Y-51486903D01*
X127956180Y-51285283D01*
X127784717Y-51113820D01*
X127583097Y-50979102D01*
X127359069Y-50886307D01*
X127121243Y-50839000D01*
X126878757Y-50839000D01*
X126640931Y-50886307D01*
X126416903Y-50979102D01*
X126215283Y-51113820D01*
X126043820Y-51285283D01*
X125909102Y-51486903D01*
X125816307Y-51710931D01*
X125769000Y-51948757D01*
X125769000Y-52191243D01*
X125816307Y-52429069D01*
X125909102Y-52653097D01*
X126019955Y-52819000D01*
X125440045Y-52819000D01*
X125550898Y-52653097D01*
X125643693Y-52429069D01*
X125691000Y-52191243D01*
X125691000Y-51948757D01*
X125643693Y-51710931D01*
X125550898Y-51486903D01*
X125416180Y-51285283D01*
X125244717Y-51113820D01*
X125043097Y-50979102D01*
X124819069Y-50886307D01*
X124581243Y-50839000D01*
X124338757Y-50839000D01*
X124100931Y-50886307D01*
X123876903Y-50979102D01*
X123675283Y-51113820D01*
X123503820Y-51285283D01*
X123369102Y-51486903D01*
X123276307Y-51710931D01*
X123229000Y-51948757D01*
X123229000Y-52191243D01*
X123276307Y-52429069D01*
X123369102Y-52653097D01*
X123503820Y-52854717D01*
X123675283Y-53026180D01*
X123876903Y-53160898D01*
X124055068Y-53234696D01*
X123901594Y-53388170D01*
X123883236Y-53403236D01*
X123823128Y-53476478D01*
X123778464Y-53560040D01*
X123772858Y-53578522D01*
X123769195Y-53590597D01*
X123699689Y-53569513D01*
X123625000Y-53562157D01*
X123225000Y-53562157D01*
X123150311Y-53569513D01*
X123078492Y-53591299D01*
X123050000Y-53606529D01*
X123021508Y-53591299D01*
X122949689Y-53569513D01*
X122875000Y-53562157D01*
X122375000Y-53562157D01*
X122300311Y-53569513D01*
X122228492Y-53591299D01*
X122162304Y-53626678D01*
X122104289Y-53674289D01*
X122074982Y-53710000D01*
X121765018Y-53710000D01*
X121735711Y-53674289D01*
X121677696Y-53626678D01*
X121611508Y-53591299D01*
X121539689Y-53569513D01*
X121465000Y-53562157D01*
X120965000Y-53562157D01*
X120890311Y-53569513D01*
X120818492Y-53591299D01*
X120790000Y-53606529D01*
X120761508Y-53591299D01*
X120689689Y-53569513D01*
X120615000Y-53562157D01*
X120215000Y-53562157D01*
X120140311Y-53569513D01*
X120068492Y-53591299D01*
X120015000Y-53619892D01*
X119961508Y-53591299D01*
X119889689Y-53569513D01*
X119815000Y-53562157D01*
X119415000Y-53562157D01*
X119340311Y-53569513D01*
X119268492Y-53591299D01*
X119240000Y-53606529D01*
X119211508Y-53591299D01*
X119139689Y-53569513D01*
X119065000Y-53562157D01*
X118565000Y-53562157D01*
X118490311Y-53569513D01*
X118418492Y-53591299D01*
X118352304Y-53626678D01*
X118294289Y-53674289D01*
X118246678Y-53732304D01*
X118211299Y-53798492D01*
X118189513Y-53870311D01*
X118182157Y-53945000D01*
X118182157Y-54291907D01*
X118176928Y-54345000D01*
X118182157Y-54398093D01*
X118182157Y-54719000D01*
X118071000Y-54719000D01*
X118071000Y-54488757D01*
X118023693Y-54250931D01*
X117930898Y-54026903D01*
X117796180Y-53825283D01*
X117624717Y-53653820D01*
X117423097Y-53519102D01*
X117199069Y-53426307D01*
X116961243Y-53379000D01*
X116718757Y-53379000D01*
X116480931Y-53426307D01*
X116256903Y-53519102D01*
X116081000Y-53636636D01*
X116081000Y-53509236D01*
X116378833Y-53211403D01*
X116480931Y-53253693D01*
X116718757Y-53301000D01*
X116961243Y-53301000D01*
X117199069Y-53253693D01*
X117423097Y-53160898D01*
X117624717Y-53026180D01*
X117796180Y-52854717D01*
X117930898Y-52653097D01*
X118023693Y-52429069D01*
X118071000Y-52191243D01*
X118071000Y-51948757D01*
X118149000Y-51948757D01*
X118149000Y-52191243D01*
X118196307Y-52429069D01*
X118289102Y-52653097D01*
X118423820Y-52854717D01*
X118595283Y-53026180D01*
X118796903Y-53160898D01*
X119020931Y-53253693D01*
X119258757Y-53301000D01*
X119501243Y-53301000D01*
X119739069Y-53253693D01*
X119963097Y-53160898D01*
X120164717Y-53026180D01*
X120336180Y-52854717D01*
X120470898Y-52653097D01*
X120563693Y-52429069D01*
X120611000Y-52191243D01*
X120611000Y-51948757D01*
X120689000Y-51948757D01*
X120689000Y-52191243D01*
X120736307Y-52429069D01*
X120829102Y-52653097D01*
X120963820Y-52854717D01*
X121135283Y-53026180D01*
X121336903Y-53160898D01*
X121560931Y-53253693D01*
X121798757Y-53301000D01*
X122041243Y-53301000D01*
X122279069Y-53253693D01*
X122503097Y-53160898D01*
X122704717Y-53026180D01*
X122876180Y-52854717D01*
X123010898Y-52653097D01*
X123103693Y-52429069D01*
X123151000Y-52191243D01*
X123151000Y-51948757D01*
X123103693Y-51710931D01*
X123010898Y-51486903D01*
X122876180Y-51285283D01*
X122704717Y-51113820D01*
X122503097Y-50979102D01*
X122279069Y-50886307D01*
X122041243Y-50839000D01*
X121798757Y-50839000D01*
X121560931Y-50886307D01*
X121336903Y-50979102D01*
X121135283Y-51113820D01*
X120963820Y-51285283D01*
X120829102Y-51486903D01*
X120736307Y-51710931D01*
X120689000Y-51948757D01*
X120611000Y-51948757D01*
X120563693Y-51710931D01*
X120470898Y-51486903D01*
X120336180Y-51285283D01*
X120164717Y-51113820D01*
X119963097Y-50979102D01*
X119739069Y-50886307D01*
X119501243Y-50839000D01*
X119258757Y-50839000D01*
X119020931Y-50886307D01*
X118796903Y-50979102D01*
X118595283Y-51113820D01*
X118423820Y-51285283D01*
X118289102Y-51486903D01*
X118196307Y-51710931D01*
X118149000Y-51948757D01*
X118071000Y-51948757D01*
X118023693Y-51710931D01*
X117930898Y-51486903D01*
X117796180Y-51285283D01*
X117624717Y-51113820D01*
X117423097Y-50979102D01*
X117199069Y-50886307D01*
X116961243Y-50839000D01*
X116718757Y-50839000D01*
X116480931Y-50886307D01*
X116256903Y-50979102D01*
X116055283Y-51113820D01*
X115883820Y-51285283D01*
X115749102Y-51486903D01*
X115656307Y-51710931D01*
X115609000Y-51948757D01*
X115609000Y-52191243D01*
X115656307Y-52429069D01*
X115698597Y-52531167D01*
X115376636Y-52853128D01*
X115346588Y-52780587D01*
X115217342Y-52587157D01*
X115052843Y-52422658D01*
X114859413Y-52293412D01*
X114644485Y-52204386D01*
X114416318Y-52159000D01*
X114183682Y-52159000D01*
X113955515Y-52204386D01*
X113740587Y-52293412D01*
X113547157Y-52422658D01*
X113382658Y-52587157D01*
X113253412Y-52780587D01*
X113164386Y-52995515D01*
X113119000Y-53223682D01*
X112801000Y-53223682D01*
X112801000Y-50000000D01*
X113117157Y-50000000D01*
X113117157Y-51600000D01*
X113124513Y-51674689D01*
X113146299Y-51746508D01*
X113181678Y-51812696D01*
X113229289Y-51870711D01*
X113287304Y-51918322D01*
X113353492Y-51953701D01*
X113425311Y-51975487D01*
X113500000Y-51982843D01*
X115100000Y-51982843D01*
X115174689Y-51975487D01*
X115246508Y-51953701D01*
X115312696Y-51918322D01*
X115370711Y-51870711D01*
X115418322Y-51812696D01*
X115453701Y-51746508D01*
X115475487Y-51674689D01*
X115482843Y-51600000D01*
X115482843Y-50000000D01*
X115475487Y-49925311D01*
X115453701Y-49853492D01*
X115418322Y-49787304D01*
X115370711Y-49729289D01*
X115312696Y-49681678D01*
X115246508Y-49646299D01*
X115174689Y-49624513D01*
X115100000Y-49617157D01*
X113500000Y-49617157D01*
X113425311Y-49624513D01*
X113353492Y-49646299D01*
X113287304Y-49681678D01*
X113229289Y-49729289D01*
X113181678Y-49787304D01*
X113146299Y-49853492D01*
X113124513Y-49925311D01*
X113117157Y-50000000D01*
X112801000Y-50000000D01*
X112801000Y-49549851D01*
X112807270Y-49485901D01*
X112820079Y-49443476D01*
X112840881Y-49404353D01*
X112868888Y-49370013D01*
X112903034Y-49341765D01*
X112942016Y-49320688D01*
X112984343Y-49307585D01*
X113046992Y-49301000D01*
X120694648Y-49301000D01*
X120715894Y-49367977D01*
G37*
X120715894Y-49367977D02*
X120730406Y-49401837D01*
X120744412Y-49435817D01*
X120747106Y-49440801D01*
X120747108Y-49440806D01*
X120747111Y-49440810D01*
X120830693Y-49592847D01*
X120851499Y-49623234D01*
X120871847Y-49653860D01*
X120875460Y-49658228D01*
X120986985Y-49791138D01*
X121013306Y-49816914D01*
X121039205Y-49842994D01*
X121043598Y-49846578D01*
X121178815Y-49955294D01*
X121209607Y-49975444D01*
X121240113Y-49996020D01*
X121245118Y-49998682D01*
X121398877Y-50079065D01*
X121433040Y-50092868D01*
X121466917Y-50107108D01*
X121472338Y-50108745D01*
X121472345Y-50108748D01*
X121472352Y-50108749D01*
X121638787Y-50157734D01*
X121674957Y-50164634D01*
X121710979Y-50172028D01*
X121716619Y-50172582D01*
X121716621Y-50172582D01*
X121889409Y-50188307D01*
X121926206Y-50188050D01*
X121963003Y-50188307D01*
X121968645Y-50187754D01*
X122141196Y-50169618D01*
X122177262Y-50162215D01*
X122213388Y-50155323D01*
X122218815Y-50153685D01*
X122384558Y-50102379D01*
X122418521Y-50088102D01*
X122452599Y-50074334D01*
X122457600Y-50071676D01*
X122457604Y-50071674D01*
X122457607Y-50071672D01*
X122610225Y-49989151D01*
X122640737Y-49968571D01*
X122671522Y-49948426D01*
X122675910Y-49944847D01*
X122675916Y-49944843D01*
X122675921Y-49944838D01*
X122809601Y-49834249D01*
X122835553Y-49808116D01*
X122861821Y-49782392D01*
X122865430Y-49778030D01*
X122865435Y-49778025D01*
X122865439Y-49778020D01*
X122975094Y-49643569D01*
X122995478Y-49612889D01*
X123016247Y-49582557D01*
X123018941Y-49577575D01*
X123018944Y-49577571D01*
X123018946Y-49577567D01*
X123100398Y-49424377D01*
X123114420Y-49390356D01*
X123128916Y-49356535D01*
X123130593Y-49351119D01*
X123145725Y-49301000D01*
X129219753Y-49301000D01*
X130846988Y-49306573D01*
X130854099Y-49307270D01*
X130896524Y-49320079D01*
X130935647Y-49340881D01*
X130969987Y-49368888D01*
X130998235Y-49403034D01*
X131019312Y-49442016D01*
X131032415Y-49484343D01*
X131039000Y-49546992D01*
X131039001Y-79990130D01*
X131032730Y-80054100D01*
X131019921Y-80096523D01*
X130999119Y-80135647D01*
X130971110Y-80169989D01*
X130936966Y-80198235D01*
X130897984Y-80219312D01*
X130855657Y-80232415D01*
X130793008Y-80239000D01*
X113049860Y-80239000D01*
X112985900Y-80232730D01*
X112943477Y-80219921D01*
X112904353Y-80199119D01*
X112870011Y-80171110D01*
X112841765Y-80136966D01*
X112820688Y-80097984D01*
X112807585Y-80055657D01*
X112801000Y-79993008D01*
X112801000Y-79049114D01*
X113160171Y-79049114D01*
X113180527Y-79116239D01*
X113275438Y-79327408D01*
X113409722Y-79516003D01*
X113578219Y-79674777D01*
X113774454Y-79797628D01*
X113990885Y-79879835D01*
X114173000Y-79818908D01*
X114173000Y-78867000D01*
X114427000Y-78867000D01*
X114427000Y-79818908D01*
X114609115Y-79879835D01*
X114825546Y-79797628D01*
X115021781Y-79674777D01*
X115190278Y-79516003D01*
X115324562Y-79327408D01*
X115419473Y-79116239D01*
X115439829Y-79049114D01*
X115378297Y-78867000D01*
X114427000Y-78867000D01*
X114173000Y-78867000D01*
X113221703Y-78867000D01*
X113160171Y-79049114D01*
X112801000Y-79049114D01*
X112801000Y-78430886D01*
X113160171Y-78430886D01*
X113221703Y-78613000D01*
X114173000Y-78613000D01*
X114173000Y-77661092D01*
X114427000Y-77661092D01*
X114427000Y-78613000D01*
X115378297Y-78613000D01*
X115439829Y-78430886D01*
X115419473Y-78363761D01*
X115324562Y-78152592D01*
X115190278Y-77963997D01*
X115021781Y-77805223D01*
X114825546Y-77682372D01*
X114609115Y-77600165D01*
X114427000Y-77661092D01*
X114173000Y-77661092D01*
X113990885Y-77600165D01*
X113774454Y-77682372D01*
X113578219Y-77805223D01*
X113409722Y-77963997D01*
X113275438Y-78152592D01*
X113180527Y-78363761D01*
X113160171Y-78430886D01*
X112801000Y-78430886D01*
X112801000Y-60843682D01*
X113119000Y-60843682D01*
X113119000Y-61076318D01*
X113164386Y-61304485D01*
X113253412Y-61519413D01*
X113382658Y-61712843D01*
X113547157Y-61877342D01*
X113740587Y-62006588D01*
X113955515Y-62095614D01*
X114183682Y-62141000D01*
X114416318Y-62141000D01*
X114644485Y-62095614D01*
X114722898Y-62063134D01*
X117303170Y-64643406D01*
X117318236Y-64661764D01*
X117391478Y-64721872D01*
X117430374Y-64742662D01*
X117475038Y-64766536D01*
X117565707Y-64794040D01*
X117637157Y-64801077D01*
X117637157Y-65395000D01*
X117645954Y-65484321D01*
X117672008Y-65570209D01*
X117714317Y-65649364D01*
X117771256Y-65718744D01*
X117771555Y-65718989D01*
X117199225Y-65718989D01*
X115456828Y-63976592D01*
X115456823Y-63976586D01*
X115403134Y-63922898D01*
X115435614Y-63844485D01*
X115481000Y-63616318D01*
X115481000Y-63383682D01*
X115435614Y-63155515D01*
X115346588Y-62940587D01*
X115217342Y-62747157D01*
X115052843Y-62582658D01*
X114859413Y-62453412D01*
X114644485Y-62364386D01*
X114416318Y-62319000D01*
X114183682Y-62319000D01*
X113955515Y-62364386D01*
X113740587Y-62453412D01*
X113547157Y-62582658D01*
X113382658Y-62747157D01*
X113253412Y-62940587D01*
X113164386Y-63155515D01*
X113119000Y-63383682D01*
X113119000Y-63616318D01*
X113164386Y-63844485D01*
X113253412Y-64059413D01*
X113382658Y-64252843D01*
X113547157Y-64417342D01*
X113740587Y-64546588D01*
X113955515Y-64635614D01*
X114183682Y-64681000D01*
X114416318Y-64681000D01*
X114644485Y-64635614D01*
X114722898Y-64603134D01*
X114776586Y-64656823D01*
X114776592Y-64656828D01*
X116478763Y-66358999D01*
X115440684Y-66358999D01*
X115481000Y-66156318D01*
X115481000Y-65923682D01*
X115435614Y-65695515D01*
X115346588Y-65480587D01*
X115217342Y-65287157D01*
X115052843Y-65122658D01*
X114859413Y-64993412D01*
X114644485Y-64904386D01*
X114416318Y-64859000D01*
X114183682Y-64859000D01*
X113955515Y-64904386D01*
X113740587Y-64993412D01*
X113547157Y-65122658D01*
X113382658Y-65287157D01*
X113253412Y-65480587D01*
X113164386Y-65695515D01*
X113119000Y-65923682D01*
X113119000Y-66156318D01*
X113164386Y-66384485D01*
X113253412Y-66599413D01*
X113382658Y-66792843D01*
X113547157Y-66957342D01*
X113740587Y-67086588D01*
X113955515Y-67175614D01*
X114183682Y-67221000D01*
X114416318Y-67221000D01*
X114644485Y-67175614D01*
X114722898Y-67143134D01*
X114743173Y-67163410D01*
X114758235Y-67181763D01*
X114831477Y-67241871D01*
X114915038Y-67286535D01*
X115005707Y-67314039D01*
X115076373Y-67320999D01*
X115076382Y-67320999D01*
X115099998Y-67323325D01*
X115123614Y-67320999D01*
X117633065Y-67320999D01*
X116855064Y-68099000D01*
X115379068Y-68099000D01*
X115346588Y-68020587D01*
X115217342Y-67827157D01*
X115052843Y-67662658D01*
X114859413Y-67533412D01*
X114644485Y-67444386D01*
X114416318Y-67399000D01*
X114183682Y-67399000D01*
X113955515Y-67444386D01*
X113740587Y-67533412D01*
X113547157Y-67662658D01*
X113382658Y-67827157D01*
X113253412Y-68020587D01*
X113164386Y-68235515D01*
X113119000Y-68463682D01*
X113119000Y-68696318D01*
X113164386Y-68924485D01*
X113253412Y-69139413D01*
X113382658Y-69332843D01*
X113547157Y-69497342D01*
X113740587Y-69626588D01*
X113955515Y-69715614D01*
X114183682Y-69761000D01*
X114416318Y-69761000D01*
X114644485Y-69715614D01*
X114859413Y-69626588D01*
X115052843Y-69497342D01*
X115217342Y-69332843D01*
X115346588Y-69139413D01*
X115379068Y-69061000D01*
X116458764Y-69061000D01*
X115184974Y-70334789D01*
X115052843Y-70202658D01*
X114859413Y-70073412D01*
X114644485Y-69984386D01*
X114416318Y-69939000D01*
X114183682Y-69939000D01*
X113955515Y-69984386D01*
X113740587Y-70073412D01*
X113547157Y-70202658D01*
X113382658Y-70367157D01*
X113253412Y-70560587D01*
X113164386Y-70775515D01*
X113119000Y-71003682D01*
X113119000Y-71236318D01*
X113164386Y-71464485D01*
X113253412Y-71679413D01*
X113382658Y-71872843D01*
X113547157Y-72037342D01*
X113740587Y-72166588D01*
X113955515Y-72255614D01*
X114183682Y-72301000D01*
X114398764Y-72301000D01*
X114220764Y-72479000D01*
X114183682Y-72479000D01*
X113955515Y-72524386D01*
X113740587Y-72613412D01*
X113547157Y-72742658D01*
X113382658Y-72907157D01*
X113253412Y-73100587D01*
X113164386Y-73315515D01*
X113119000Y-73543682D01*
X113119000Y-73776318D01*
X113164386Y-74004485D01*
X113253412Y-74219413D01*
X113382658Y-74412843D01*
X113547157Y-74577342D01*
X113740587Y-74706588D01*
X113955515Y-74795614D01*
X114183682Y-74841000D01*
X114416318Y-74841000D01*
X114644485Y-74795614D01*
X114859413Y-74706588D01*
X114919000Y-74666773D01*
X114919000Y-74800763D01*
X114652187Y-75067576D01*
X114644485Y-75064386D01*
X114416318Y-75019000D01*
X114183682Y-75019000D01*
X113955515Y-75064386D01*
X113740587Y-75153412D01*
X113547157Y-75282658D01*
X113382658Y-75447157D01*
X113253412Y-75640587D01*
X113164386Y-75855515D01*
X113119000Y-76083682D01*
X113119000Y-76316318D01*
X113164386Y-76544485D01*
X113253412Y-76759413D01*
X113382658Y-76952843D01*
X113547157Y-77117342D01*
X113740587Y-77246588D01*
X113955515Y-77335614D01*
X114183682Y-77381000D01*
X114416318Y-77381000D01*
X114644485Y-77335614D01*
X114859413Y-77246588D01*
X115052843Y-77117342D01*
X115217342Y-76952843D01*
X115346588Y-76759413D01*
X115435614Y-76544485D01*
X115481000Y-76316318D01*
X115481000Y-76083682D01*
X115435614Y-75855515D01*
X115373845Y-75706392D01*
X115723412Y-75356825D01*
X115741764Y-75341764D01*
X115801872Y-75268522D01*
X115846536Y-75184961D01*
X115874040Y-75094292D01*
X115874791Y-75086673D01*
X115883327Y-75000000D01*
X115881000Y-74976374D01*
X115881000Y-72999236D01*
X116123411Y-72756826D01*
X116141764Y-72741764D01*
X116201872Y-72668522D01*
X116246536Y-72584961D01*
X116274040Y-72494292D01*
X116277688Y-72457253D01*
X116285125Y-72475207D01*
X116348708Y-72570366D01*
X116429634Y-72651292D01*
X116502531Y-72700000D01*
X116429634Y-72748708D01*
X116348708Y-72829634D01*
X116285125Y-72924793D01*
X116241328Y-73030529D01*
X116219000Y-73142777D01*
X116219000Y-73257223D01*
X116241328Y-73369471D01*
X116285125Y-73475207D01*
X116348708Y-73570366D01*
X116429634Y-73651292D01*
X116502531Y-73700000D01*
X116429634Y-73748708D01*
X116348708Y-73829634D01*
X116285125Y-73924793D01*
X116241328Y-74030529D01*
X116219000Y-74142777D01*
X116219000Y-74257223D01*
X116241328Y-74369471D01*
X116285125Y-74475207D01*
X116348708Y-74570366D01*
X116429634Y-74651292D01*
X116502531Y-74700000D01*
X116429634Y-74748708D01*
X116348708Y-74829634D01*
X116285125Y-74924793D01*
X116241328Y-75030529D01*
X116219000Y-75142777D01*
X116219000Y-75257223D01*
X116241328Y-75369471D01*
X116285125Y-75475207D01*
X116348708Y-75570366D01*
X116429634Y-75651292D01*
X116524793Y-75714875D01*
X116630529Y-75758672D01*
X116690331Y-75770568D01*
X116919001Y-75999238D01*
X116919000Y-79176374D01*
X116916673Y-79200000D01*
X116925960Y-79294292D01*
X116933378Y-79318744D01*
X116953464Y-79384960D01*
X116998128Y-79468522D01*
X117058236Y-79541764D01*
X117076593Y-79556830D01*
X117443174Y-79923411D01*
X117458236Y-79941764D01*
X117531478Y-80001872D01*
X117615039Y-80046536D01*
X117705708Y-80074040D01*
X117776374Y-80081000D01*
X117776383Y-80081000D01*
X117799999Y-80083326D01*
X117823615Y-80081000D01*
X119376374Y-80081000D01*
X119400000Y-80083327D01*
X119423626Y-80081000D01*
X119494292Y-80074040D01*
X119584961Y-80046536D01*
X119668522Y-80001872D01*
X119741764Y-79941764D01*
X119756830Y-79923406D01*
X119993406Y-79686830D01*
X120011764Y-79671764D01*
X120071872Y-79598522D01*
X120102210Y-79541764D01*
X120116536Y-79514962D01*
X120135379Y-79452843D01*
X120245000Y-79452843D01*
X120334321Y-79444046D01*
X120420000Y-79418055D01*
X120505679Y-79444046D01*
X120595000Y-79452843D01*
X120745000Y-79452843D01*
X120834321Y-79444046D01*
X120920000Y-79418055D01*
X121005679Y-79444046D01*
X121095000Y-79452843D01*
X121236889Y-79452843D01*
X121219000Y-79542777D01*
X121219000Y-79657223D01*
X121241328Y-79769471D01*
X121285125Y-79875207D01*
X121348708Y-79970366D01*
X121429634Y-80051292D01*
X121524793Y-80114875D01*
X121630529Y-80158672D01*
X121742777Y-80181000D01*
X121857223Y-80181000D01*
X121969471Y-80158672D01*
X122075207Y-80114875D01*
X122170366Y-80051292D01*
X122251292Y-79970366D01*
X122314875Y-79875207D01*
X122358672Y-79769471D01*
X122370568Y-79709669D01*
X122400000Y-79680236D01*
X122643174Y-79923411D01*
X122658236Y-79941764D01*
X122731478Y-80001872D01*
X122815039Y-80046536D01*
X122905708Y-80074040D01*
X122976374Y-80081000D01*
X122976383Y-80081000D01*
X122999999Y-80083326D01*
X123023615Y-80081000D01*
X125976374Y-80081000D01*
X126000000Y-80083327D01*
X126023626Y-80081000D01*
X126094292Y-80074040D01*
X126184961Y-80046536D01*
X126268522Y-80001872D01*
X126341764Y-79941764D01*
X126356830Y-79923406D01*
X127656554Y-78623682D01*
X128359000Y-78623682D01*
X128359000Y-78856318D01*
X128404386Y-79084485D01*
X128493412Y-79299413D01*
X128622658Y-79492843D01*
X128787157Y-79657342D01*
X128980587Y-79786588D01*
X129195515Y-79875614D01*
X129423682Y-79921000D01*
X129656318Y-79921000D01*
X129884485Y-79875614D01*
X130099413Y-79786588D01*
X130292843Y-79657342D01*
X130457342Y-79492843D01*
X130586588Y-79299413D01*
X130675614Y-79084485D01*
X130721000Y-78856318D01*
X130721000Y-78623682D01*
X130675614Y-78395515D01*
X130586588Y-78180587D01*
X130457342Y-77987157D01*
X130292843Y-77822658D01*
X130099413Y-77693412D01*
X129884485Y-77604386D01*
X129656318Y-77559000D01*
X129423682Y-77559000D01*
X129195515Y-77604386D01*
X128980587Y-77693412D01*
X128787157Y-77822658D01*
X128622658Y-77987157D01*
X128493412Y-78180587D01*
X128404386Y-78395515D01*
X128359000Y-78623682D01*
X127656554Y-78623682D01*
X128323412Y-77956825D01*
X128341764Y-77941764D01*
X128401872Y-77868522D01*
X128446536Y-77784961D01*
X128474040Y-77694292D01*
X128481000Y-77623626D01*
X128483327Y-77600001D01*
X128481000Y-77576374D01*
X128481000Y-76729448D01*
X128493412Y-76759413D01*
X128622658Y-76952843D01*
X128787157Y-77117342D01*
X128980587Y-77246588D01*
X129195515Y-77335614D01*
X129423682Y-77381000D01*
X129656318Y-77381000D01*
X129884485Y-77335614D01*
X130099413Y-77246588D01*
X130292843Y-77117342D01*
X130457342Y-76952843D01*
X130586588Y-76759413D01*
X130675614Y-76544485D01*
X130721000Y-76316318D01*
X130721000Y-76083682D01*
X130675614Y-75855515D01*
X130586588Y-75640587D01*
X130457342Y-75447157D01*
X130292843Y-75282658D01*
X130099413Y-75153412D01*
X129884485Y-75064386D01*
X129656318Y-75019000D01*
X129423682Y-75019000D01*
X129195515Y-75064386D01*
X129117102Y-75096866D01*
X128920999Y-74900763D01*
X128920999Y-74666773D01*
X128980587Y-74706588D01*
X129195515Y-74795614D01*
X129423682Y-74841000D01*
X129656318Y-74841000D01*
X129884485Y-74795614D01*
X130099413Y-74706588D01*
X130292843Y-74577342D01*
X130457342Y-74412843D01*
X130586588Y-74219413D01*
X130675614Y-74004485D01*
X130721000Y-73776318D01*
X130721000Y-73543682D01*
X130675614Y-73315515D01*
X130586588Y-73100587D01*
X130457342Y-72907157D01*
X130292843Y-72742658D01*
X130099413Y-72613412D01*
X129884485Y-72524386D01*
X129656318Y-72479000D01*
X129559237Y-72479000D01*
X129370697Y-72290460D01*
X129423682Y-72301000D01*
X129656318Y-72301000D01*
X129884485Y-72255614D01*
X130099413Y-72166588D01*
X130292843Y-72037342D01*
X130457342Y-71872843D01*
X130586588Y-71679413D01*
X130675614Y-71464485D01*
X130721000Y-71236318D01*
X130721000Y-71003682D01*
X130675614Y-70775515D01*
X130586588Y-70560587D01*
X130457342Y-70367157D01*
X130292843Y-70202658D01*
X130099413Y-70073412D01*
X129884485Y-69984386D01*
X129656318Y-69939000D01*
X129423682Y-69939000D01*
X129419974Y-69939738D01*
X129195934Y-69715697D01*
X129423682Y-69761000D01*
X129656318Y-69761000D01*
X129884485Y-69715614D01*
X130099413Y-69626588D01*
X130292843Y-69497342D01*
X130457342Y-69332843D01*
X130586588Y-69139413D01*
X130675614Y-68924485D01*
X130721000Y-68696318D01*
X130721000Y-68463682D01*
X130675614Y-68235515D01*
X130586588Y-68020587D01*
X130457342Y-67827157D01*
X130292843Y-67662658D01*
X130099413Y-67533412D01*
X129884485Y-67444386D01*
X129656318Y-67399000D01*
X129423682Y-67399000D01*
X129195515Y-67444386D01*
X128980587Y-67533412D01*
X128787157Y-67662658D01*
X128622658Y-67827157D01*
X128493412Y-68020587D01*
X128460932Y-68099000D01*
X125979237Y-68099000D01*
X125747085Y-67866848D01*
X125770366Y-67851292D01*
X125851292Y-67770366D01*
X125914875Y-67675207D01*
X125958672Y-67569471D01*
X125981000Y-67457223D01*
X125981000Y-67342777D01*
X125958672Y-67230529D01*
X125914875Y-67124793D01*
X125898309Y-67100000D01*
X125914875Y-67075207D01*
X125958672Y-66969471D01*
X125970568Y-66909668D01*
X127599237Y-65281000D01*
X128274095Y-65281000D01*
X128324793Y-65314875D01*
X128430529Y-65358672D01*
X128542777Y-65381000D01*
X128559954Y-65381000D01*
X128493412Y-65480587D01*
X128404386Y-65695515D01*
X128359000Y-65923682D01*
X128359000Y-66156318D01*
X128404386Y-66384485D01*
X128493412Y-66599413D01*
X128622658Y-66792843D01*
X128787157Y-66957342D01*
X128980587Y-67086588D01*
X129195515Y-67175614D01*
X129423682Y-67221000D01*
X129656318Y-67221000D01*
X129884485Y-67175614D01*
X130099413Y-67086588D01*
X130292843Y-66957342D01*
X130457342Y-66792843D01*
X130586588Y-66599413D01*
X130675614Y-66384485D01*
X130721000Y-66156318D01*
X130721000Y-65923682D01*
X130675614Y-65695515D01*
X130586588Y-65480587D01*
X130457342Y-65287157D01*
X130292843Y-65122658D01*
X130099413Y-64993412D01*
X129884485Y-64904386D01*
X129656318Y-64859000D01*
X129423682Y-64859000D01*
X129195515Y-64904386D01*
X129169473Y-64915173D01*
X129181000Y-64857223D01*
X129181000Y-64742777D01*
X129158672Y-64630529D01*
X129153584Y-64618246D01*
X129195515Y-64635614D01*
X129423682Y-64681000D01*
X129656318Y-64681000D01*
X129884485Y-64635614D01*
X130099413Y-64546588D01*
X130292843Y-64417342D01*
X130457342Y-64252843D01*
X130586588Y-64059413D01*
X130675614Y-63844485D01*
X130721000Y-63616318D01*
X130721000Y-63383682D01*
X130675614Y-63155515D01*
X130586588Y-62940587D01*
X130457342Y-62747157D01*
X130292843Y-62582658D01*
X130099413Y-62453412D01*
X129884485Y-62364386D01*
X129656318Y-62319000D01*
X129423682Y-62319000D01*
X129195515Y-62364386D01*
X129117102Y-62396866D01*
X128201236Y-61481000D01*
X128477501Y-61481000D01*
X128493412Y-61519413D01*
X128622658Y-61712843D01*
X128787157Y-61877342D01*
X128980587Y-62006588D01*
X129195515Y-62095614D01*
X129423682Y-62141000D01*
X129656318Y-62141000D01*
X129884485Y-62095614D01*
X130099413Y-62006588D01*
X130292843Y-61877342D01*
X130457342Y-61712843D01*
X130586588Y-61519413D01*
X130675614Y-61304485D01*
X130721000Y-61076318D01*
X130721000Y-60843682D01*
X130675614Y-60615515D01*
X130586588Y-60400587D01*
X130457342Y-60207157D01*
X130292843Y-60042658D01*
X130099413Y-59913412D01*
X129884485Y-59824386D01*
X129656318Y-59779000D01*
X129423682Y-59779000D01*
X129195515Y-59824386D01*
X128980587Y-59913412D01*
X128787157Y-60042658D01*
X128622658Y-60207157D01*
X128493412Y-60400587D01*
X128444364Y-60519000D01*
X126023626Y-60519000D01*
X125999999Y-60516673D01*
X125905707Y-60525960D01*
X125878203Y-60534304D01*
X125815039Y-60553464D01*
X125731478Y-60598128D01*
X125658236Y-60658236D01*
X125643175Y-60676588D01*
X125341000Y-60978763D01*
X125341000Y-60873229D01*
X125307144Y-60703022D01*
X125240732Y-60542690D01*
X125144318Y-60398395D01*
X125021605Y-60275682D01*
X124877310Y-60179268D01*
X124716978Y-60112856D01*
X124546771Y-60079000D01*
X124373229Y-60079000D01*
X124203022Y-60112856D01*
X124042690Y-60179268D01*
X123898395Y-60275682D01*
X123775682Y-60398395D01*
X123679268Y-60542690D01*
X123612856Y-60703022D01*
X123579000Y-60873229D01*
X123579000Y-61046771D01*
X123612856Y-61216978D01*
X123679268Y-61377310D01*
X123775682Y-61521605D01*
X123898395Y-61644318D01*
X124042690Y-61740732D01*
X124203022Y-61807144D01*
X124373229Y-61841000D01*
X124478764Y-61841000D01*
X124346589Y-61973175D01*
X124328237Y-61988236D01*
X124313176Y-62006588D01*
X124268129Y-62061478D01*
X124223465Y-62145039D01*
X124195960Y-62235708D01*
X124186673Y-62330000D01*
X124189001Y-62353636D01*
X124189001Y-62787157D01*
X124095000Y-62787157D01*
X124005679Y-62795954D01*
X123920000Y-62821945D01*
X123834321Y-62795954D01*
X123745000Y-62787157D01*
X123595000Y-62787157D01*
X123505679Y-62795954D01*
X123420000Y-62821945D01*
X123334321Y-62795954D01*
X123245000Y-62787157D01*
X123095000Y-62787157D01*
X123005679Y-62795954D01*
X122920000Y-62821945D01*
X122834321Y-62795954D01*
X122745000Y-62787157D01*
X122595000Y-62787157D01*
X122505679Y-62795954D01*
X122420000Y-62821945D01*
X122334321Y-62795954D01*
X122245000Y-62787157D01*
X122095000Y-62787157D01*
X122005679Y-62795954D01*
X121952559Y-62812068D01*
X121894689Y-62794513D01*
X121820000Y-62787157D01*
X121788250Y-62789000D01*
X121693000Y-62884250D01*
X121693000Y-63030518D01*
X121672008Y-63069791D01*
X121670000Y-63076410D01*
X121667992Y-63069791D01*
X121647000Y-63030518D01*
X121647000Y-62884250D01*
X121551750Y-62789000D01*
X121520000Y-62787157D01*
X121445311Y-62794513D01*
X121387441Y-62812068D01*
X121334321Y-62795954D01*
X121245000Y-62787157D01*
X121095000Y-62787157D01*
X121005679Y-62795954D01*
X120920000Y-62821945D01*
X120834321Y-62795954D01*
X120745000Y-62787157D01*
X120595000Y-62787157D01*
X120505679Y-62795954D01*
X120420000Y-62821945D01*
X120334321Y-62795954D01*
X120245000Y-62787157D01*
X120095000Y-62787157D01*
X120005679Y-62795954D01*
X119920000Y-62821945D01*
X119834321Y-62795954D01*
X119745000Y-62787157D01*
X119595000Y-62787157D01*
X119505679Y-62795954D01*
X119420000Y-62821945D01*
X119334321Y-62795954D01*
X119245000Y-62787157D01*
X119095000Y-62787157D01*
X119005679Y-62795954D01*
X118920000Y-62821945D01*
X118834321Y-62795954D01*
X118745000Y-62787157D01*
X118595000Y-62787157D01*
X118505679Y-62795954D01*
X118420000Y-62821945D01*
X118334321Y-62795954D01*
X118245000Y-62787157D01*
X118095000Y-62787157D01*
X118005679Y-62795954D01*
X117919791Y-62822008D01*
X117840636Y-62864317D01*
X117771256Y-62921256D01*
X117714317Y-62990636D01*
X117672008Y-63069791D01*
X117645954Y-63155679D01*
X117637157Y-63245000D01*
X117637157Y-63616921D01*
X115403134Y-61382898D01*
X115435614Y-61304485D01*
X115481000Y-61076318D01*
X115481000Y-60873229D01*
X118499000Y-60873229D01*
X118499000Y-61046771D01*
X118532856Y-61216978D01*
X118599268Y-61377310D01*
X118695682Y-61521605D01*
X118818395Y-61644318D01*
X118962690Y-61740732D01*
X119123022Y-61807144D01*
X119293229Y-61841000D01*
X119466771Y-61841000D01*
X119636978Y-61807144D01*
X119797310Y-61740732D01*
X119941605Y-61644318D01*
X120064318Y-61521605D01*
X120160732Y-61377310D01*
X120227144Y-61216978D01*
X120261000Y-61046771D01*
X120261000Y-60873229D01*
X121039000Y-60873229D01*
X121039000Y-61046771D01*
X121072856Y-61216978D01*
X121139268Y-61377310D01*
X121235682Y-61521605D01*
X121358395Y-61644318D01*
X121502690Y-61740732D01*
X121663022Y-61807144D01*
X121833229Y-61841000D01*
X122006771Y-61841000D01*
X122176978Y-61807144D01*
X122337310Y-61740732D01*
X122481605Y-61644318D01*
X122604318Y-61521605D01*
X122700732Y-61377310D01*
X122767144Y-61216978D01*
X122801000Y-61046771D01*
X122801000Y-60873229D01*
X122767144Y-60703022D01*
X122700732Y-60542690D01*
X122604318Y-60398395D01*
X122481605Y-60275682D01*
X122337310Y-60179268D01*
X122176978Y-60112856D01*
X122006771Y-60079000D01*
X121833229Y-60079000D01*
X121663022Y-60112856D01*
X121502690Y-60179268D01*
X121358395Y-60275682D01*
X121235682Y-60398395D01*
X121139268Y-60542690D01*
X121072856Y-60703022D01*
X121039000Y-60873229D01*
X120261000Y-60873229D01*
X120227144Y-60703022D01*
X120160732Y-60542690D01*
X120064318Y-60398395D01*
X119941605Y-60275682D01*
X119797310Y-60179268D01*
X119636978Y-60112856D01*
X119466771Y-60079000D01*
X119293229Y-60079000D01*
X119123022Y-60112856D01*
X118962690Y-60179268D01*
X118818395Y-60275682D01*
X118695682Y-60398395D01*
X118599268Y-60542690D01*
X118532856Y-60703022D01*
X118499000Y-60873229D01*
X115481000Y-60873229D01*
X115481000Y-60843682D01*
X115435614Y-60615515D01*
X115346588Y-60400587D01*
X115217342Y-60207157D01*
X115052843Y-60042658D01*
X114859413Y-59913412D01*
X114644485Y-59824386D01*
X114416318Y-59779000D01*
X114183682Y-59779000D01*
X113955515Y-59824386D01*
X113740587Y-59913412D01*
X113547157Y-60042658D01*
X113382658Y-60207157D01*
X113253412Y-60400587D01*
X113164386Y-60615515D01*
X113119000Y-60843682D01*
X112801000Y-60843682D01*
X112801000Y-58303682D01*
X113119000Y-58303682D01*
X113119000Y-58536318D01*
X113164386Y-58764485D01*
X113253412Y-58979413D01*
X113382658Y-59172843D01*
X113547157Y-59337342D01*
X113740587Y-59466588D01*
X113955515Y-59555614D01*
X114183682Y-59601000D01*
X114416318Y-59601000D01*
X114644485Y-59555614D01*
X114859413Y-59466588D01*
X115052843Y-59337342D01*
X115217342Y-59172843D01*
X115346588Y-58979413D01*
X115435614Y-58764485D01*
X115481000Y-58536318D01*
X115481000Y-58303682D01*
X115435614Y-58075515D01*
X115346588Y-57860587D01*
X115217342Y-57667157D01*
X115052843Y-57502658D01*
X114859413Y-57373412D01*
X114644485Y-57284386D01*
X114416318Y-57239000D01*
X114183682Y-57239000D01*
X113955515Y-57284386D01*
X113740587Y-57373412D01*
X113547157Y-57502658D01*
X113382658Y-57667157D01*
X113253412Y-57860587D01*
X113164386Y-58075515D01*
X113119000Y-58303682D01*
X112801000Y-58303682D01*
X112801000Y-53223682D01*
X113119000Y-53223682D01*
X113119000Y-53456318D01*
X113164386Y-53684485D01*
X113253412Y-53899413D01*
X113382658Y-54092843D01*
X113547157Y-54257342D01*
X113740587Y-54386588D01*
X113955515Y-54475614D01*
X114183682Y-54521000D01*
X114416318Y-54521000D01*
X114644485Y-54475614D01*
X114859413Y-54386588D01*
X115052843Y-54257342D01*
X115119000Y-54191185D01*
X115119001Y-55028816D01*
X115052843Y-54962658D01*
X114859413Y-54833412D01*
X114644485Y-54744386D01*
X114416318Y-54699000D01*
X114183682Y-54699000D01*
X113955515Y-54744386D01*
X113740587Y-54833412D01*
X113547157Y-54962658D01*
X113382658Y-55127157D01*
X113253412Y-55320587D01*
X113164386Y-55535515D01*
X113119000Y-55763682D01*
X113119000Y-55996318D01*
X113164386Y-56224485D01*
X113253412Y-56439413D01*
X113382658Y-56632843D01*
X113547157Y-56797342D01*
X113740587Y-56926588D01*
X113955515Y-57015614D01*
X114183682Y-57061000D01*
X114416318Y-57061000D01*
X114644485Y-57015614D01*
X114859413Y-56926588D01*
X115052843Y-56797342D01*
X115217342Y-56632843D01*
X115346588Y-56439413D01*
X115435614Y-56224485D01*
X115481000Y-55996318D01*
X115481000Y-55971237D01*
X115978169Y-56468406D01*
X115993235Y-56486764D01*
X116066477Y-56546872D01*
X116088471Y-56558628D01*
X116150037Y-56591536D01*
X116240706Y-56619040D01*
X116334999Y-56628327D01*
X116358626Y-56626000D01*
X118191427Y-56626000D01*
X118211299Y-56691508D01*
X118246678Y-56757696D01*
X118294289Y-56815711D01*
X118319000Y-56835991D01*
X118319001Y-57816364D01*
X118316673Y-57840000D01*
X118325960Y-57934292D01*
X118346709Y-58002690D01*
X118353465Y-58024961D01*
X118398129Y-58108522D01*
X118458237Y-58181764D01*
X118476589Y-58196825D01*
X118517913Y-58238149D01*
X118499000Y-58333229D01*
X118499000Y-58506771D01*
X118532856Y-58676978D01*
X118599268Y-58837310D01*
X118695682Y-58981605D01*
X118818395Y-59104318D01*
X118962690Y-59200732D01*
X119123022Y-59267144D01*
X119293229Y-59301000D01*
X119466771Y-59301000D01*
X119636978Y-59267144D01*
X119797310Y-59200732D01*
X119941605Y-59104318D01*
X120064318Y-58981605D01*
X120160732Y-58837310D01*
X120227144Y-58676978D01*
X120261000Y-58506771D01*
X120261000Y-58333229D01*
X120227144Y-58163022D01*
X120192824Y-58080167D01*
X120856069Y-58743412D01*
X120871130Y-58761764D01*
X120944372Y-58821872D01*
X121027933Y-58866536D01*
X121118602Y-58894040D01*
X121181300Y-58900215D01*
X121235682Y-58981605D01*
X121358395Y-59104318D01*
X121502690Y-59200732D01*
X121663022Y-59267144D01*
X121833229Y-59301000D01*
X122006771Y-59301000D01*
X122176978Y-59267144D01*
X122337310Y-59200732D01*
X122481605Y-59104318D01*
X122604318Y-58981605D01*
X122700732Y-58837310D01*
X122767144Y-58676978D01*
X122801000Y-58506771D01*
X122801000Y-58333229D01*
X122767144Y-58163022D01*
X122700732Y-58002690D01*
X122619422Y-57881000D01*
X123240764Y-57881000D01*
X123597912Y-58238149D01*
X123579000Y-58333229D01*
X123579000Y-58506771D01*
X123612856Y-58676978D01*
X123679268Y-58837310D01*
X123775682Y-58981605D01*
X123898395Y-59104318D01*
X124042690Y-59200732D01*
X124203022Y-59267144D01*
X124373229Y-59301000D01*
X124546771Y-59301000D01*
X124716978Y-59267144D01*
X124877310Y-59200732D01*
X125021605Y-59104318D01*
X125144318Y-58981605D01*
X125240732Y-58837310D01*
X125307144Y-58676978D01*
X125341000Y-58506771D01*
X125341000Y-58333229D01*
X125335123Y-58303682D01*
X128359000Y-58303682D01*
X128359000Y-58536318D01*
X128404386Y-58764485D01*
X128493412Y-58979413D01*
X128622658Y-59172843D01*
X128787157Y-59337342D01*
X128980587Y-59466588D01*
X129195515Y-59555614D01*
X129423682Y-59601000D01*
X129656318Y-59601000D01*
X129884485Y-59555614D01*
X130099413Y-59466588D01*
X130292843Y-59337342D01*
X130457342Y-59172843D01*
X130586588Y-58979413D01*
X130675614Y-58764485D01*
X130721000Y-58536318D01*
X130721000Y-58303682D01*
X130675614Y-58075515D01*
X130586588Y-57860587D01*
X130457342Y-57667157D01*
X130292843Y-57502658D01*
X130099413Y-57373412D01*
X129884485Y-57284386D01*
X129656318Y-57239000D01*
X129423682Y-57239000D01*
X129195515Y-57284386D01*
X128980587Y-57373412D01*
X128787157Y-57502658D01*
X128622658Y-57667157D01*
X128493412Y-57860587D01*
X128404386Y-58075515D01*
X128359000Y-58303682D01*
X125335123Y-58303682D01*
X125307144Y-58163022D01*
X125240732Y-58002690D01*
X125144318Y-57858395D01*
X125021605Y-57735682D01*
X124877310Y-57639268D01*
X124716978Y-57572856D01*
X124546771Y-57539000D01*
X124373229Y-57539000D01*
X124278149Y-57557912D01*
X123796830Y-57076594D01*
X123781764Y-57058236D01*
X123708522Y-56998128D01*
X123624961Y-56953464D01*
X123540499Y-56927843D01*
X123625000Y-56927843D01*
X123699689Y-56920487D01*
X123771508Y-56898701D01*
X123825000Y-56870108D01*
X123878492Y-56898701D01*
X123950311Y-56920487D01*
X124025000Y-56927843D01*
X124425000Y-56927843D01*
X124499689Y-56920487D01*
X124571508Y-56898701D01*
X124600000Y-56883471D01*
X124628492Y-56898701D01*
X124700311Y-56920487D01*
X124775000Y-56927843D01*
X125275000Y-56927843D01*
X125349689Y-56920487D01*
X125421508Y-56898701D01*
X125487696Y-56863322D01*
X125545711Y-56815711D01*
X125593322Y-56757696D01*
X125628701Y-56691508D01*
X125650487Y-56619689D01*
X125657843Y-56545000D01*
X125657843Y-56268077D01*
X126218996Y-56829231D01*
X126218996Y-56857223D01*
X126241324Y-56969471D01*
X126285121Y-57075207D01*
X126348704Y-57170366D01*
X126429630Y-57251292D01*
X126524789Y-57314875D01*
X126630525Y-57358672D01*
X126742773Y-57381000D01*
X126857219Y-57381000D01*
X126969467Y-57358672D01*
X127075203Y-57314875D01*
X127170362Y-57251292D01*
X127251288Y-57170366D01*
X127314871Y-57075207D01*
X127358668Y-56969471D01*
X127380996Y-56857223D01*
X127380996Y-56742777D01*
X127358668Y-56630529D01*
X127314871Y-56524793D01*
X127251288Y-56429634D01*
X127170362Y-56348708D01*
X127075203Y-56285125D01*
X127007194Y-56256955D01*
X126475343Y-55725105D01*
X126640931Y-55793693D01*
X126878757Y-55841000D01*
X127121243Y-55841000D01*
X127359069Y-55793693D01*
X127431522Y-55763682D01*
X128359000Y-55763682D01*
X128359000Y-55996318D01*
X128404386Y-56224485D01*
X128493412Y-56439413D01*
X128622658Y-56632843D01*
X128787157Y-56797342D01*
X128980587Y-56926588D01*
X129195515Y-57015614D01*
X129423682Y-57061000D01*
X129656318Y-57061000D01*
X129884485Y-57015614D01*
X130099413Y-56926588D01*
X130292843Y-56797342D01*
X130457342Y-56632843D01*
X130586588Y-56439413D01*
X130675614Y-56224485D01*
X130721000Y-55996318D01*
X130721000Y-55763682D01*
X130675614Y-55535515D01*
X130586588Y-55320587D01*
X130457342Y-55127157D01*
X130292843Y-54962658D01*
X130099413Y-54833412D01*
X129884485Y-54744386D01*
X129656318Y-54699000D01*
X129423682Y-54699000D01*
X129195515Y-54744386D01*
X128980587Y-54833412D01*
X128787157Y-54962658D01*
X128622658Y-55127157D01*
X128493412Y-55320587D01*
X128404386Y-55535515D01*
X128359000Y-55763682D01*
X127431522Y-55763682D01*
X127583097Y-55700898D01*
X127784717Y-55566180D01*
X127956180Y-55394717D01*
X128090898Y-55193097D01*
X128183693Y-54969069D01*
X128231000Y-54731243D01*
X128231000Y-54488757D01*
X128183693Y-54250931D01*
X128090898Y-54026903D01*
X127956180Y-53825283D01*
X127879185Y-53748288D01*
X127884961Y-53746536D01*
X127968522Y-53701872D01*
X128041764Y-53641764D01*
X128056830Y-53623406D01*
X128359000Y-53321236D01*
X128359000Y-53456318D01*
X128404386Y-53684485D01*
X128493412Y-53899413D01*
X128622658Y-54092843D01*
X128787157Y-54257342D01*
X128980587Y-54386588D01*
X129195515Y-54475614D01*
X129423682Y-54521000D01*
X129656318Y-54521000D01*
X129884485Y-54475614D01*
X130099413Y-54386588D01*
X130292843Y-54257342D01*
X130457342Y-54092843D01*
X130586588Y-53899413D01*
X130675614Y-53684485D01*
X130721000Y-53456318D01*
X130721000Y-53223682D01*
X130675614Y-52995515D01*
X130586588Y-52780587D01*
X130457342Y-52587157D01*
X130292843Y-52422658D01*
X130099413Y-52293412D01*
X129884485Y-52204386D01*
X129656318Y-52159000D01*
X129521237Y-52159000D01*
X129709894Y-51970343D01*
X129884485Y-51935614D01*
X130099413Y-51846588D01*
X130292843Y-51717342D01*
X130457342Y-51552843D01*
X130586588Y-51359413D01*
X130675614Y-51144485D01*
X130721000Y-50916318D01*
X130721000Y-50683682D01*
X130675614Y-50455515D01*
X130586588Y-50240587D01*
X130457342Y-50047157D01*
X130292843Y-49882658D01*
X130099413Y-49753412D01*
X129884485Y-49664386D01*
X129656318Y-49619000D01*
X129423682Y-49619000D01*
X129195515Y-49664386D01*
X128980587Y-49753412D01*
X128787157Y-49882658D01*
X128622658Y-50047157D01*
X128493412Y-50240587D01*
X128404386Y-50455515D01*
X128359000Y-50683682D01*
X128359000Y-50916318D01*
X128404386Y-51144485D01*
X128493412Y-51359413D01*
X128622658Y-51552843D01*
X128694789Y-51624974D01*
X128231000Y-52088764D01*
X128231000Y-51948757D01*
X128183693Y-51710931D01*
X128090898Y-51486903D01*
X127956180Y-51285283D01*
X127784717Y-51113820D01*
X127583097Y-50979102D01*
X127359069Y-50886307D01*
X127121243Y-50839000D01*
X126878757Y-50839000D01*
X126640931Y-50886307D01*
X126416903Y-50979102D01*
X126215283Y-51113820D01*
X126043820Y-51285283D01*
X125909102Y-51486903D01*
X125816307Y-51710931D01*
X125769000Y-51948757D01*
X125769000Y-52191243D01*
X125816307Y-52429069D01*
X125909102Y-52653097D01*
X126019955Y-52819000D01*
X125440045Y-52819000D01*
X125550898Y-52653097D01*
X125643693Y-52429069D01*
X125691000Y-52191243D01*
X125691000Y-51948757D01*
X125643693Y-51710931D01*
X125550898Y-51486903D01*
X125416180Y-51285283D01*
X125244717Y-51113820D01*
X125043097Y-50979102D01*
X124819069Y-50886307D01*
X124581243Y-50839000D01*
X124338757Y-50839000D01*
X124100931Y-50886307D01*
X123876903Y-50979102D01*
X123675283Y-51113820D01*
X123503820Y-51285283D01*
X123369102Y-51486903D01*
X123276307Y-51710931D01*
X123229000Y-51948757D01*
X123229000Y-52191243D01*
X123276307Y-52429069D01*
X123369102Y-52653097D01*
X123503820Y-52854717D01*
X123675283Y-53026180D01*
X123876903Y-53160898D01*
X124055068Y-53234696D01*
X123901594Y-53388170D01*
X123883236Y-53403236D01*
X123823128Y-53476478D01*
X123778464Y-53560040D01*
X123772858Y-53578522D01*
X123769195Y-53590597D01*
X123699689Y-53569513D01*
X123625000Y-53562157D01*
X123225000Y-53562157D01*
X123150311Y-53569513D01*
X123078492Y-53591299D01*
X123050000Y-53606529D01*
X123021508Y-53591299D01*
X122949689Y-53569513D01*
X122875000Y-53562157D01*
X122375000Y-53562157D01*
X122300311Y-53569513D01*
X122228492Y-53591299D01*
X122162304Y-53626678D01*
X122104289Y-53674289D01*
X122074982Y-53710000D01*
X121765018Y-53710000D01*
X121735711Y-53674289D01*
X121677696Y-53626678D01*
X121611508Y-53591299D01*
X121539689Y-53569513D01*
X121465000Y-53562157D01*
X120965000Y-53562157D01*
X120890311Y-53569513D01*
X120818492Y-53591299D01*
X120790000Y-53606529D01*
X120761508Y-53591299D01*
X120689689Y-53569513D01*
X120615000Y-53562157D01*
X120215000Y-53562157D01*
X120140311Y-53569513D01*
X120068492Y-53591299D01*
X120015000Y-53619892D01*
X119961508Y-53591299D01*
X119889689Y-53569513D01*
X119815000Y-53562157D01*
X119415000Y-53562157D01*
X119340311Y-53569513D01*
X119268492Y-53591299D01*
X119240000Y-53606529D01*
X119211508Y-53591299D01*
X119139689Y-53569513D01*
X119065000Y-53562157D01*
X118565000Y-53562157D01*
X118490311Y-53569513D01*
X118418492Y-53591299D01*
X118352304Y-53626678D01*
X118294289Y-53674289D01*
X118246678Y-53732304D01*
X118211299Y-53798492D01*
X118189513Y-53870311D01*
X118182157Y-53945000D01*
X118182157Y-54291907D01*
X118176928Y-54345000D01*
X118182157Y-54398093D01*
X118182157Y-54719000D01*
X118071000Y-54719000D01*
X118071000Y-54488757D01*
X118023693Y-54250931D01*
X117930898Y-54026903D01*
X117796180Y-53825283D01*
X117624717Y-53653820D01*
X117423097Y-53519102D01*
X117199069Y-53426307D01*
X116961243Y-53379000D01*
X116718757Y-53379000D01*
X116480931Y-53426307D01*
X116256903Y-53519102D01*
X116081000Y-53636636D01*
X116081000Y-53509236D01*
X116378833Y-53211403D01*
X116480931Y-53253693D01*
X116718757Y-53301000D01*
X116961243Y-53301000D01*
X117199069Y-53253693D01*
X117423097Y-53160898D01*
X117624717Y-53026180D01*
X117796180Y-52854717D01*
X117930898Y-52653097D01*
X118023693Y-52429069D01*
X118071000Y-52191243D01*
X118071000Y-51948757D01*
X118149000Y-51948757D01*
X118149000Y-52191243D01*
X118196307Y-52429069D01*
X118289102Y-52653097D01*
X118423820Y-52854717D01*
X118595283Y-53026180D01*
X118796903Y-53160898D01*
X119020931Y-53253693D01*
X119258757Y-53301000D01*
X119501243Y-53301000D01*
X119739069Y-53253693D01*
X119963097Y-53160898D01*
X120164717Y-53026180D01*
X120336180Y-52854717D01*
X120470898Y-52653097D01*
X120563693Y-52429069D01*
X120611000Y-52191243D01*
X120611000Y-51948757D01*
X120689000Y-51948757D01*
X120689000Y-52191243D01*
X120736307Y-52429069D01*
X120829102Y-52653097D01*
X120963820Y-52854717D01*
X121135283Y-53026180D01*
X121336903Y-53160898D01*
X121560931Y-53253693D01*
X121798757Y-53301000D01*
X122041243Y-53301000D01*
X122279069Y-53253693D01*
X122503097Y-53160898D01*
X122704717Y-53026180D01*
X122876180Y-52854717D01*
X123010898Y-52653097D01*
X123103693Y-52429069D01*
X123151000Y-52191243D01*
X123151000Y-51948757D01*
X123103693Y-51710931D01*
X123010898Y-51486903D01*
X122876180Y-51285283D01*
X122704717Y-51113820D01*
X122503097Y-50979102D01*
X122279069Y-50886307D01*
X122041243Y-50839000D01*
X121798757Y-50839000D01*
X121560931Y-50886307D01*
X121336903Y-50979102D01*
X121135283Y-51113820D01*
X120963820Y-51285283D01*
X120829102Y-51486903D01*
X120736307Y-51710931D01*
X120689000Y-51948757D01*
X120611000Y-51948757D01*
X120563693Y-51710931D01*
X120470898Y-51486903D01*
X120336180Y-51285283D01*
X120164717Y-51113820D01*
X119963097Y-50979102D01*
X119739069Y-50886307D01*
X119501243Y-50839000D01*
X119258757Y-50839000D01*
X119020931Y-50886307D01*
X118796903Y-50979102D01*
X118595283Y-51113820D01*
X118423820Y-51285283D01*
X118289102Y-51486903D01*
X118196307Y-51710931D01*
X118149000Y-51948757D01*
X118071000Y-51948757D01*
X118023693Y-51710931D01*
X117930898Y-51486903D01*
X117796180Y-51285283D01*
X117624717Y-51113820D01*
X117423097Y-50979102D01*
X117199069Y-50886307D01*
X116961243Y-50839000D01*
X116718757Y-50839000D01*
X116480931Y-50886307D01*
X116256903Y-50979102D01*
X116055283Y-51113820D01*
X115883820Y-51285283D01*
X115749102Y-51486903D01*
X115656307Y-51710931D01*
X115609000Y-51948757D01*
X115609000Y-52191243D01*
X115656307Y-52429069D01*
X115698597Y-52531167D01*
X115376636Y-52853128D01*
X115346588Y-52780587D01*
X115217342Y-52587157D01*
X115052843Y-52422658D01*
X114859413Y-52293412D01*
X114644485Y-52204386D01*
X114416318Y-52159000D01*
X114183682Y-52159000D01*
X113955515Y-52204386D01*
X113740587Y-52293412D01*
X113547157Y-52422658D01*
X113382658Y-52587157D01*
X113253412Y-52780587D01*
X113164386Y-52995515D01*
X113119000Y-53223682D01*
X112801000Y-53223682D01*
X112801000Y-50000000D01*
X113117157Y-50000000D01*
X113117157Y-51600000D01*
X113124513Y-51674689D01*
X113146299Y-51746508D01*
X113181678Y-51812696D01*
X113229289Y-51870711D01*
X113287304Y-51918322D01*
X113353492Y-51953701D01*
X113425311Y-51975487D01*
X113500000Y-51982843D01*
X115100000Y-51982843D01*
X115174689Y-51975487D01*
X115246508Y-51953701D01*
X115312696Y-51918322D01*
X115370711Y-51870711D01*
X115418322Y-51812696D01*
X115453701Y-51746508D01*
X115475487Y-51674689D01*
X115482843Y-51600000D01*
X115482843Y-50000000D01*
X115475487Y-49925311D01*
X115453701Y-49853492D01*
X115418322Y-49787304D01*
X115370711Y-49729289D01*
X115312696Y-49681678D01*
X115246508Y-49646299D01*
X115174689Y-49624513D01*
X115100000Y-49617157D01*
X113500000Y-49617157D01*
X113425311Y-49624513D01*
X113353492Y-49646299D01*
X113287304Y-49681678D01*
X113229289Y-49729289D01*
X113181678Y-49787304D01*
X113146299Y-49853492D01*
X113124513Y-49925311D01*
X113117157Y-50000000D01*
X112801000Y-50000000D01*
X112801000Y-49549851D01*
X112807270Y-49485901D01*
X112820079Y-49443476D01*
X112840881Y-49404353D01*
X112868888Y-49370013D01*
X112903034Y-49341765D01*
X112942016Y-49320688D01*
X112984343Y-49307585D01*
X113046992Y-49301000D01*
X120694648Y-49301000D01*
X120715894Y-49367977D01*
G36*
X121672008Y-65570209D02*
G01*
X121689000Y-65602000D01*
X121689001Y-67830763D01*
X121676594Y-67843170D01*
X121658236Y-67858236D01*
X121598128Y-67931478D01*
X121553464Y-68015040D01*
X121548926Y-68030001D01*
X121525960Y-68105708D01*
X121516673Y-68200000D01*
X121519000Y-68223627D01*
X121519001Y-69976364D01*
X121516673Y-70000000D01*
X121525960Y-70094292D01*
X121550864Y-70176386D01*
X121553465Y-70184961D01*
X121598129Y-70268522D01*
X121651788Y-70333905D01*
X121629634Y-70348708D01*
X121548708Y-70429634D01*
X121485125Y-70524793D01*
X121441328Y-70630529D01*
X121419000Y-70742777D01*
X121419000Y-70857223D01*
X121439247Y-70959010D01*
X121170568Y-70690331D01*
X121158672Y-70630529D01*
X121114875Y-70524793D01*
X121051292Y-70429634D01*
X120970366Y-70348708D01*
X120875207Y-70285125D01*
X120769471Y-70241328D01*
X120657223Y-70219000D01*
X120542777Y-70219000D01*
X120481000Y-70231288D01*
X120481000Y-69325905D01*
X120514875Y-69275207D01*
X120558672Y-69169471D01*
X120581000Y-69057223D01*
X120581000Y-68942777D01*
X120558672Y-68830529D01*
X120514875Y-68724793D01*
X120451292Y-68629634D01*
X120370366Y-68548708D01*
X120275207Y-68485125D01*
X120169471Y-68441328D01*
X120057223Y-68419000D01*
X119942777Y-68419000D01*
X119830529Y-68441328D01*
X119724793Y-68485125D01*
X119629634Y-68548708D01*
X119548708Y-68629634D01*
X119485125Y-68724793D01*
X119441328Y-68830529D01*
X119419000Y-68942777D01*
X119419000Y-69057223D01*
X119441328Y-69169471D01*
X119485125Y-69275207D01*
X119519000Y-69325905D01*
X119519001Y-73674094D01*
X119485125Y-73724793D01*
X119441328Y-73830529D01*
X119419000Y-73942777D01*
X119419000Y-74057223D01*
X119439247Y-74159010D01*
X117370568Y-72090332D01*
X117358672Y-72030529D01*
X117314875Y-71924793D01*
X117251292Y-71829634D01*
X117170366Y-71748708D01*
X117075207Y-71685125D01*
X116969471Y-71641328D01*
X116857223Y-71619000D01*
X116742777Y-71619000D01*
X116630529Y-71641328D01*
X116524793Y-71685125D01*
X116429634Y-71748708D01*
X116348708Y-71829634D01*
X116285125Y-71924793D01*
X116281000Y-71934752D01*
X116281000Y-71799236D01*
X121493412Y-66586825D01*
X121511764Y-66571764D01*
X121571872Y-66498522D01*
X121616536Y-66414961D01*
X121644040Y-66324292D01*
X121651000Y-66253626D01*
X121651000Y-66253625D01*
X121653327Y-66230000D01*
X121651000Y-66206374D01*
X121651000Y-65601999D01*
X121667992Y-65570209D01*
X121670000Y-65563590D01*
X121672008Y-65570209D01*
G37*
X121672008Y-65570209D02*
X121689000Y-65602000D01*
X121689001Y-67830763D01*
X121676594Y-67843170D01*
X121658236Y-67858236D01*
X121598128Y-67931478D01*
X121553464Y-68015040D01*
X121548926Y-68030001D01*
X121525960Y-68105708D01*
X121516673Y-68200000D01*
X121519000Y-68223627D01*
X121519001Y-69976364D01*
X121516673Y-70000000D01*
X121525960Y-70094292D01*
X121550864Y-70176386D01*
X121553465Y-70184961D01*
X121598129Y-70268522D01*
X121651788Y-70333905D01*
X121629634Y-70348708D01*
X121548708Y-70429634D01*
X121485125Y-70524793D01*
X121441328Y-70630529D01*
X121419000Y-70742777D01*
X121419000Y-70857223D01*
X121439247Y-70959010D01*
X121170568Y-70690331D01*
X121158672Y-70630529D01*
X121114875Y-70524793D01*
X121051292Y-70429634D01*
X120970366Y-70348708D01*
X120875207Y-70285125D01*
X120769471Y-70241328D01*
X120657223Y-70219000D01*
X120542777Y-70219000D01*
X120481000Y-70231288D01*
X120481000Y-69325905D01*
X120514875Y-69275207D01*
X120558672Y-69169471D01*
X120581000Y-69057223D01*
X120581000Y-68942777D01*
X120558672Y-68830529D01*
X120514875Y-68724793D01*
X120451292Y-68629634D01*
X120370366Y-68548708D01*
X120275207Y-68485125D01*
X120169471Y-68441328D01*
X120057223Y-68419000D01*
X119942777Y-68419000D01*
X119830529Y-68441328D01*
X119724793Y-68485125D01*
X119629634Y-68548708D01*
X119548708Y-68629634D01*
X119485125Y-68724793D01*
X119441328Y-68830529D01*
X119419000Y-68942777D01*
X119419000Y-69057223D01*
X119441328Y-69169471D01*
X119485125Y-69275207D01*
X119519000Y-69325905D01*
X119519001Y-73674094D01*
X119485125Y-73724793D01*
X119441328Y-73830529D01*
X119419000Y-73942777D01*
X119419000Y-74057223D01*
X119439247Y-74159010D01*
X117370568Y-72090332D01*
X117358672Y-72030529D01*
X117314875Y-71924793D01*
X117251292Y-71829634D01*
X117170366Y-71748708D01*
X117075207Y-71685125D01*
X116969471Y-71641328D01*
X116857223Y-71619000D01*
X116742777Y-71619000D01*
X116630529Y-71641328D01*
X116524793Y-71685125D01*
X116429634Y-71748708D01*
X116348708Y-71829634D01*
X116285125Y-71924793D01*
X116281000Y-71934752D01*
X116281000Y-71799236D01*
X121493412Y-66586825D01*
X121511764Y-66571764D01*
X121571872Y-66498522D01*
X121616536Y-66414961D01*
X121644040Y-66324292D01*
X121651000Y-66253626D01*
X121651000Y-66253625D01*
X121653327Y-66230000D01*
X121651000Y-66206374D01*
X121651000Y-65601999D01*
X121667992Y-65570209D01*
X121670000Y-65563590D01*
X121672008Y-65570209D01*
G36*
X128436866Y-63077102D02*
G01*
X128404386Y-63155515D01*
X128359000Y-63383682D01*
X128359000Y-63616318D01*
X128404386Y-63844485D01*
X128493412Y-64059413D01*
X128600045Y-64219000D01*
X128542777Y-64219000D01*
X128430529Y-64241328D01*
X128324793Y-64285125D01*
X128274095Y-64319000D01*
X127423626Y-64319000D01*
X127399999Y-64316673D01*
X127305707Y-64325960D01*
X127278203Y-64334304D01*
X127215039Y-64353464D01*
X127131478Y-64398128D01*
X127058236Y-64458236D01*
X127043175Y-64476588D01*
X126202843Y-65316920D01*
X126202843Y-63245000D01*
X126194046Y-63155679D01*
X126167992Y-63069791D01*
X126125683Y-62990636D01*
X126068744Y-62921256D01*
X125999364Y-62864317D01*
X125920209Y-62822008D01*
X125834321Y-62795954D01*
X125745000Y-62787157D01*
X125651000Y-62787157D01*
X125651000Y-62629236D01*
X126399237Y-61881000D01*
X127240764Y-61881000D01*
X128436866Y-63077102D01*
G37*
X128436866Y-63077102D02*
X128404386Y-63155515D01*
X128359000Y-63383682D01*
X128359000Y-63616318D01*
X128404386Y-63844485D01*
X128493412Y-64059413D01*
X128600045Y-64219000D01*
X128542777Y-64219000D01*
X128430529Y-64241328D01*
X128324793Y-64285125D01*
X128274095Y-64319000D01*
X127423626Y-64319000D01*
X127399999Y-64316673D01*
X127305707Y-64325960D01*
X127278203Y-64334304D01*
X127215039Y-64353464D01*
X127131478Y-64398128D01*
X127058236Y-64458236D01*
X127043175Y-64476588D01*
X126202843Y-65316920D01*
X126202843Y-63245000D01*
X126194046Y-63155679D01*
X126167992Y-63069791D01*
X126125683Y-62990636D01*
X126068744Y-62921256D01*
X125999364Y-62864317D01*
X125920209Y-62822008D01*
X125834321Y-62795954D01*
X125745000Y-62787157D01*
X125651000Y-62787157D01*
X125651000Y-62629236D01*
X126399237Y-61881000D01*
X127240764Y-61881000D01*
X128436866Y-63077102D01*
M02*
