%TF.GenerationSoftware,KiCad,Pcbnew,(5.1.5-0-10_14)*%
%TF.CreationDate,2021-03-11T16:13:23+01:00*%
%TF.ProjectId,C64-ROM-Adapter-LB,4336342d-524f-44d2-9d41-646170746572,1.1*%
%TF.SameCoordinates,Original*%
%TF.FileFunction,Legend,Top*%
%TF.FilePolarity,Positive*%
%FSLAX46Y46*%
G04 Gerber Fmt 4.6, Leading zero omitted, Abs format (unit mm)*
G04 Created by KiCad (PCBNEW (5.1.5-0-10_14)) date 2021-03-11 16:13:23*
%MOMM*%
%LPD*%
G04 APERTURE LIST*
%ADD10C,0.100000*%
%ADD11C,0.050000*%
%ADD12C,0.120000*%
G04 APERTURE END LIST*
D10*
X118971428Y-67271428D02*
X118628571Y-67271428D01*
X118800000Y-67271428D02*
X118800000Y-66671428D01*
X118742857Y-66757142D01*
X118685714Y-66814285D01*
X118628571Y-66842857D01*
X124042857Y-76871428D02*
X123757142Y-76871428D01*
X123728571Y-77157142D01*
X123757142Y-77128571D01*
X123814285Y-77100000D01*
X123957142Y-77100000D01*
X124014285Y-77128571D01*
X124042857Y-77157142D01*
X124071428Y-77214285D01*
X124071428Y-77357142D01*
X124042857Y-77414285D01*
X124014285Y-77442857D01*
X123957142Y-77471428D01*
X123814285Y-77471428D01*
X123757142Y-77442857D01*
X123728571Y-77414285D01*
X125214285Y-76871428D02*
X125100000Y-76871428D01*
X125042857Y-76900000D01*
X125014285Y-76928571D01*
X124957142Y-77014285D01*
X124928571Y-77128571D01*
X124928571Y-77357142D01*
X124957142Y-77414285D01*
X124985714Y-77442857D01*
X125042857Y-77471428D01*
X125157142Y-77471428D01*
X125214285Y-77442857D01*
X125242857Y-77414285D01*
X125271428Y-77357142D01*
X125271428Y-77214285D01*
X125242857Y-77157142D01*
X125214285Y-77128571D01*
X125157142Y-77100000D01*
X125042857Y-77100000D01*
X124985714Y-77128571D01*
X124957142Y-77157142D01*
X124928571Y-77214285D01*
X122714285Y-77071428D02*
X122714285Y-77471428D01*
X122571428Y-76842857D02*
X122428571Y-77271428D01*
X122800000Y-77271428D01*
X118971428Y-77471428D02*
X118628571Y-77471428D01*
X118800000Y-77471428D02*
X118800000Y-76871428D01*
X118742857Y-76957142D01*
X118685714Y-77014285D01*
X118628571Y-77042857D01*
X121200000Y-76871428D02*
X121571428Y-76871428D01*
X121371428Y-77100000D01*
X121457142Y-77100000D01*
X121514285Y-77128571D01*
X121542857Y-77157142D01*
X121571428Y-77214285D01*
X121571428Y-77357142D01*
X121542857Y-77414285D01*
X121514285Y-77442857D01*
X121457142Y-77471428D01*
X121285714Y-77471428D01*
X121228571Y-77442857D01*
X121200000Y-77414285D01*
X119928571Y-76928571D02*
X119957142Y-76900000D01*
X120014285Y-76871428D01*
X120157142Y-76871428D01*
X120214285Y-76900000D01*
X120242857Y-76928571D01*
X120271428Y-76985714D01*
X120271428Y-77042857D01*
X120242857Y-77128571D01*
X119900000Y-77471428D01*
X120271428Y-77471428D01*
X125214285Y-66671428D02*
X125100000Y-66671428D01*
X125042857Y-66700000D01*
X125014285Y-66728571D01*
X124957142Y-66814285D01*
X124928571Y-66928571D01*
X124928571Y-67157142D01*
X124957142Y-67214285D01*
X124985714Y-67242857D01*
X125042857Y-67271428D01*
X125157142Y-67271428D01*
X125214285Y-67242857D01*
X125242857Y-67214285D01*
X125271428Y-67157142D01*
X125271428Y-67014285D01*
X125242857Y-66957142D01*
X125214285Y-66928571D01*
X125157142Y-66900000D01*
X125042857Y-66900000D01*
X124985714Y-66928571D01*
X124957142Y-66957142D01*
X124928571Y-67014285D01*
X124042857Y-66671428D02*
X123757142Y-66671428D01*
X123728571Y-66957142D01*
X123757142Y-66928571D01*
X123814285Y-66900000D01*
X123957142Y-66900000D01*
X124014285Y-66928571D01*
X124042857Y-66957142D01*
X124071428Y-67014285D01*
X124071428Y-67157142D01*
X124042857Y-67214285D01*
X124014285Y-67242857D01*
X123957142Y-67271428D01*
X123814285Y-67271428D01*
X123757142Y-67242857D01*
X123728571Y-67214285D01*
X122714285Y-66871428D02*
X122714285Y-67271428D01*
X122571428Y-66642857D02*
X122428571Y-67071428D01*
X122800000Y-67071428D01*
X121200000Y-66671428D02*
X121571428Y-66671428D01*
X121371428Y-66900000D01*
X121457142Y-66900000D01*
X121514285Y-66928571D01*
X121542857Y-66957142D01*
X121571428Y-67014285D01*
X121571428Y-67157142D01*
X121542857Y-67214285D01*
X121514285Y-67242857D01*
X121457142Y-67271428D01*
X121285714Y-67271428D01*
X121228571Y-67242857D01*
X121200000Y-67214285D01*
X119928571Y-66728571D02*
X119957142Y-66700000D01*
X120014285Y-66671428D01*
X120157142Y-66671428D01*
X120214285Y-66700000D01*
X120242857Y-66728571D01*
X120271428Y-66785714D01*
X120271428Y-66842857D01*
X120242857Y-66928571D01*
X119900000Y-67271428D01*
X120271428Y-67271428D01*
D11*
X122809000Y-48895000D02*
X130810000Y-48895000D01*
X122809000Y-48895000D02*
G75*
G02X121031000Y-48895000I-889000J0D01*
G01*
X131445000Y-80010000D02*
G75*
G02X130810000Y-80645000I-635000J0D01*
G01*
X113030000Y-80645000D02*
G75*
G02X112395000Y-80010000I0J635000D01*
G01*
X112395000Y-49530000D02*
G75*
G02X113030000Y-48895000I635000J0D01*
G01*
X130810000Y-48895000D02*
G75*
G02X131445000Y-49530000I0J-635000D01*
G01*
D10*
X117300000Y-78714285D02*
X117271428Y-78742857D01*
X117185714Y-78771428D01*
X117128571Y-78771428D01*
X117042857Y-78742857D01*
X116985714Y-78685714D01*
X116957142Y-78628571D01*
X116928571Y-78514285D01*
X116928571Y-78428571D01*
X116957142Y-78314285D01*
X116985714Y-78257142D01*
X117042857Y-78200000D01*
X117128571Y-78171428D01*
X117185714Y-78171428D01*
X117271428Y-78200000D01*
X117300000Y-78228571D01*
X117814285Y-78171428D02*
X117700000Y-78171428D01*
X117642857Y-78200000D01*
X117614285Y-78228571D01*
X117557142Y-78314285D01*
X117528571Y-78428571D01*
X117528571Y-78657142D01*
X117557142Y-78714285D01*
X117585714Y-78742857D01*
X117642857Y-78771428D01*
X117757142Y-78771428D01*
X117814285Y-78742857D01*
X117842857Y-78714285D01*
X117871428Y-78657142D01*
X117871428Y-78514285D01*
X117842857Y-78457142D01*
X117814285Y-78428571D01*
X117757142Y-78400000D01*
X117642857Y-78400000D01*
X117585714Y-78428571D01*
X117557142Y-78457142D01*
X117528571Y-78514285D01*
X118385714Y-78371428D02*
X118385714Y-78771428D01*
X118242857Y-78142857D02*
X118100000Y-78571428D01*
X118471428Y-78571428D01*
X118700000Y-78542857D02*
X119157142Y-78542857D01*
X119785714Y-78771428D02*
X119585714Y-78485714D01*
X119442857Y-78771428D02*
X119442857Y-78171428D01*
X119671428Y-78171428D01*
X119728571Y-78200000D01*
X119757142Y-78228571D01*
X119785714Y-78285714D01*
X119785714Y-78371428D01*
X119757142Y-78428571D01*
X119728571Y-78457142D01*
X119671428Y-78485714D01*
X119442857Y-78485714D01*
X120157142Y-78171428D02*
X120271428Y-78171428D01*
X120328571Y-78200000D01*
X120385714Y-78257142D01*
X120414285Y-78371428D01*
X120414285Y-78571428D01*
X120385714Y-78685714D01*
X120328571Y-78742857D01*
X120271428Y-78771428D01*
X120157142Y-78771428D01*
X120100000Y-78742857D01*
X120042857Y-78685714D01*
X120014285Y-78571428D01*
X120014285Y-78371428D01*
X120042857Y-78257142D01*
X120100000Y-78200000D01*
X120157142Y-78171428D01*
X120671428Y-78771428D02*
X120671428Y-78171428D01*
X120871428Y-78600000D01*
X121071428Y-78171428D01*
X121071428Y-78771428D01*
X121357142Y-78542857D02*
X121814285Y-78542857D01*
X122071428Y-78600000D02*
X122357142Y-78600000D01*
X122014285Y-78771428D02*
X122214285Y-78171428D01*
X122414285Y-78771428D01*
X122871428Y-78771428D02*
X122871428Y-78171428D01*
X122871428Y-78742857D02*
X122814285Y-78771428D01*
X122700000Y-78771428D01*
X122642857Y-78742857D01*
X122614285Y-78714285D01*
X122585714Y-78657142D01*
X122585714Y-78485714D01*
X122614285Y-78428571D01*
X122642857Y-78400000D01*
X122700000Y-78371428D01*
X122814285Y-78371428D01*
X122871428Y-78400000D01*
X123414285Y-78771428D02*
X123414285Y-78457142D01*
X123385714Y-78400000D01*
X123328571Y-78371428D01*
X123214285Y-78371428D01*
X123157142Y-78400000D01*
X123414285Y-78742857D02*
X123357142Y-78771428D01*
X123214285Y-78771428D01*
X123157142Y-78742857D01*
X123128571Y-78685714D01*
X123128571Y-78628571D01*
X123157142Y-78571428D01*
X123214285Y-78542857D01*
X123357142Y-78542857D01*
X123414285Y-78514285D01*
X123700000Y-78371428D02*
X123700000Y-78971428D01*
X123700000Y-78400000D02*
X123757142Y-78371428D01*
X123871428Y-78371428D01*
X123928571Y-78400000D01*
X123957142Y-78428571D01*
X123985714Y-78485714D01*
X123985714Y-78657142D01*
X123957142Y-78714285D01*
X123928571Y-78742857D01*
X123871428Y-78771428D01*
X123757142Y-78771428D01*
X123700000Y-78742857D01*
X124157142Y-78371428D02*
X124385714Y-78371428D01*
X124242857Y-78171428D02*
X124242857Y-78685714D01*
X124271428Y-78742857D01*
X124328571Y-78771428D01*
X124385714Y-78771428D01*
X124671428Y-78771428D02*
X124614285Y-78742857D01*
X124585714Y-78714285D01*
X124557142Y-78657142D01*
X124557142Y-78485714D01*
X124585714Y-78428571D01*
X124614285Y-78400000D01*
X124671428Y-78371428D01*
X124757142Y-78371428D01*
X124814285Y-78400000D01*
X124842857Y-78428571D01*
X124871428Y-78485714D01*
X124871428Y-78657142D01*
X124842857Y-78714285D01*
X124814285Y-78742857D01*
X124757142Y-78771428D01*
X124671428Y-78771428D01*
X125128571Y-78771428D02*
X125128571Y-78371428D01*
X125128571Y-78485714D02*
X125157142Y-78428571D01*
X125185714Y-78400000D01*
X125242857Y-78371428D01*
X125300000Y-78371428D01*
X125500000Y-78542857D02*
X125957142Y-78542857D01*
X126528571Y-78771428D02*
X126242857Y-78771428D01*
X126242857Y-78171428D01*
X126928571Y-78457142D02*
X127014285Y-78485714D01*
X127042857Y-78514285D01*
X127071428Y-78571428D01*
X127071428Y-78657142D01*
X127042857Y-78714285D01*
X127014285Y-78742857D01*
X126957142Y-78771428D01*
X126728571Y-78771428D01*
X126728571Y-78171428D01*
X126928571Y-78171428D01*
X126985714Y-78200000D01*
X127014285Y-78228571D01*
X127042857Y-78285714D01*
X127042857Y-78342857D01*
X127014285Y-78400000D01*
X126985714Y-78428571D01*
X126928571Y-78457142D01*
X126728571Y-78457142D01*
X117842857Y-79171428D02*
X118185714Y-79171428D01*
X118014285Y-79771428D02*
X118014285Y-79171428D01*
X118385714Y-79771428D02*
X118385714Y-79171428D01*
X118585714Y-79600000D01*
X118785714Y-79171428D01*
X118785714Y-79771428D01*
X119185714Y-79171428D02*
X119300000Y-79171428D01*
X119357142Y-79200000D01*
X119414285Y-79257142D01*
X119442857Y-79371428D01*
X119442857Y-79571428D01*
X119414285Y-79685714D01*
X119357142Y-79742857D01*
X119300000Y-79771428D01*
X119185714Y-79771428D01*
X119128571Y-79742857D01*
X119071428Y-79685714D01*
X119042857Y-79571428D01*
X119042857Y-79371428D01*
X119071428Y-79257142D01*
X119128571Y-79200000D01*
X119185714Y-79171428D01*
X120128571Y-79228571D02*
X120157142Y-79200000D01*
X120214285Y-79171428D01*
X120357142Y-79171428D01*
X120414285Y-79200000D01*
X120442857Y-79228571D01*
X120471428Y-79285714D01*
X120471428Y-79342857D01*
X120442857Y-79428571D01*
X120100000Y-79771428D01*
X120471428Y-79771428D01*
X120842857Y-79171428D02*
X120900000Y-79171428D01*
X120957142Y-79200000D01*
X120985714Y-79228571D01*
X121014285Y-79285714D01*
X121042857Y-79400000D01*
X121042857Y-79542857D01*
X121014285Y-79657142D01*
X120985714Y-79714285D01*
X120957142Y-79742857D01*
X120900000Y-79771428D01*
X120842857Y-79771428D01*
X120785714Y-79742857D01*
X120757142Y-79714285D01*
X120728571Y-79657142D01*
X120700000Y-79542857D01*
X120700000Y-79400000D01*
X120728571Y-79285714D01*
X120757142Y-79228571D01*
X120785714Y-79200000D01*
X120842857Y-79171428D01*
X121271428Y-79228571D02*
X121300000Y-79200000D01*
X121357142Y-79171428D01*
X121500000Y-79171428D01*
X121557142Y-79200000D01*
X121585714Y-79228571D01*
X121614285Y-79285714D01*
X121614285Y-79342857D01*
X121585714Y-79428571D01*
X121242857Y-79771428D01*
X121614285Y-79771428D01*
X122185714Y-79771428D02*
X121842857Y-79771428D01*
X122014285Y-79771428D02*
X122014285Y-79171428D01*
X121957142Y-79257142D01*
X121900000Y-79314285D01*
X121842857Y-79342857D01*
X123242857Y-79771428D02*
X123042857Y-79485714D01*
X122900000Y-79771428D02*
X122900000Y-79171428D01*
X123128571Y-79171428D01*
X123185714Y-79200000D01*
X123214285Y-79228571D01*
X123242857Y-79285714D01*
X123242857Y-79371428D01*
X123214285Y-79428571D01*
X123185714Y-79457142D01*
X123128571Y-79485714D01*
X122900000Y-79485714D01*
X123728571Y-79742857D02*
X123671428Y-79771428D01*
X123557142Y-79771428D01*
X123500000Y-79742857D01*
X123471428Y-79685714D01*
X123471428Y-79457142D01*
X123500000Y-79400000D01*
X123557142Y-79371428D01*
X123671428Y-79371428D01*
X123728571Y-79400000D01*
X123757142Y-79457142D01*
X123757142Y-79514285D01*
X123471428Y-79571428D01*
X123957142Y-79371428D02*
X124100000Y-79771428D01*
X124242857Y-79371428D01*
X125242857Y-79771428D02*
X124900000Y-79771428D01*
X125071428Y-79771428D02*
X125071428Y-79171428D01*
X125014285Y-79257142D01*
X124957142Y-79314285D01*
X124900000Y-79342857D01*
X125500000Y-79714285D02*
X125528571Y-79742857D01*
X125500000Y-79771428D01*
X125471428Y-79742857D01*
X125500000Y-79714285D01*
X125500000Y-79771428D01*
X126100000Y-79771428D02*
X125757142Y-79771428D01*
X125928571Y-79771428D02*
X125928571Y-79171428D01*
X125871428Y-79257142D01*
X125814285Y-79314285D01*
X125757142Y-79342857D01*
D11*
X112395000Y-80010000D02*
X112395000Y-49530000D01*
X130810000Y-80645000D02*
X113030000Y-80645000D01*
X131445000Y-49530000D02*
X131445000Y-80010000D01*
X113030000Y-48895000D02*
X121031000Y-48895000D01*
D12*
X124820000Y-70155000D02*
X126090000Y-70155000D01*
X124820000Y-74515000D02*
X126090000Y-74515000D01*
X117721000Y-70155000D02*
X118990000Y-70155000D01*
X117690000Y-74515000D02*
X117690000Y-70155000D01*
X117690000Y-74515000D02*
X118065000Y-74515000D01*
X118065000Y-76365000D02*
X118065000Y-74515000D01*
X126090000Y-74515000D02*
X126090000Y-70155000D01*
X126090000Y-64355000D02*
X126090000Y-59995000D01*
X118065000Y-66205000D02*
X118065000Y-64355000D01*
X117690000Y-64355000D02*
X118065000Y-64355000D01*
X117690000Y-64355000D02*
X117690000Y-59995000D01*
X117721000Y-59995000D02*
X118990000Y-59995000D01*
X124820000Y-64355000D02*
X126090000Y-64355000D01*
X124820000Y-59995000D02*
X126090000Y-59995000D01*
X115443000Y-80130000D02*
X128397000Y-80137000D01*
X128380000Y-49470000D02*
X122920000Y-49470000D01*
X128380000Y-80070000D02*
X128380000Y-49470000D01*
X115460000Y-80070000D02*
X128380000Y-80070000D01*
X115460000Y-49470000D02*
X115460000Y-80070000D01*
X120920000Y-49470000D02*
X115460000Y-49470000D01*
X122920000Y-49470000D02*
G75*
G02X120920000Y-49470000I-1000000J0D01*
G01*
D10*
X116000000Y-75842857D02*
X116085714Y-75871428D01*
X116228571Y-75871428D01*
X116285714Y-75842857D01*
X116314285Y-75814285D01*
X116342857Y-75757142D01*
X116342857Y-75700000D01*
X116314285Y-75642857D01*
X116285714Y-75614285D01*
X116228571Y-75585714D01*
X116114285Y-75557142D01*
X116057142Y-75528571D01*
X116028571Y-75500000D01*
X116000000Y-75442857D01*
X116000000Y-75385714D01*
X116028571Y-75328571D01*
X116057142Y-75300000D01*
X116114285Y-75271428D01*
X116257142Y-75271428D01*
X116342857Y-75300000D01*
X116542857Y-75271428D02*
X116685714Y-75871428D01*
X116800000Y-75442857D01*
X116914285Y-75871428D01*
X117057142Y-75271428D01*
X117257142Y-75328571D02*
X117285714Y-75300000D01*
X117342857Y-75271428D01*
X117485714Y-75271428D01*
X117542857Y-75300000D01*
X117571428Y-75328571D01*
X117600000Y-75385714D01*
X117600000Y-75442857D01*
X117571428Y-75528571D01*
X117228571Y-75871428D01*
X117600000Y-75871428D01*
X116000000Y-65642857D02*
X116085714Y-65671428D01*
X116228571Y-65671428D01*
X116285714Y-65642857D01*
X116314285Y-65614285D01*
X116342857Y-65557142D01*
X116342857Y-65500000D01*
X116314285Y-65442857D01*
X116285714Y-65414285D01*
X116228571Y-65385714D01*
X116114285Y-65357142D01*
X116057142Y-65328571D01*
X116028571Y-65300000D01*
X116000000Y-65242857D01*
X116000000Y-65185714D01*
X116028571Y-65128571D01*
X116057142Y-65100000D01*
X116114285Y-65071428D01*
X116257142Y-65071428D01*
X116342857Y-65100000D01*
X116542857Y-65071428D02*
X116685714Y-65671428D01*
X116800000Y-65242857D01*
X116914285Y-65671428D01*
X117057142Y-65071428D01*
X117600000Y-65671428D02*
X117257142Y-65671428D01*
X117428571Y-65671428D02*
X117428571Y-65071428D01*
X117371428Y-65157142D01*
X117314285Y-65214285D01*
X117257142Y-65242857D01*
X116085714Y-56100000D02*
X116371428Y-56100000D01*
X116028571Y-56271428D02*
X116228571Y-55671428D01*
X116428571Y-56271428D01*
X116942857Y-56271428D02*
X116600000Y-56271428D01*
X116771428Y-56271428D02*
X116771428Y-55671428D01*
X116714285Y-55757142D01*
X116657142Y-55814285D01*
X116600000Y-55842857D01*
X117171428Y-55728571D02*
X117200000Y-55700000D01*
X117257142Y-55671428D01*
X117400000Y-55671428D01*
X117457142Y-55700000D01*
X117485714Y-55728571D01*
X117514285Y-55785714D01*
X117514285Y-55842857D01*
X117485714Y-55928571D01*
X117142857Y-56271428D01*
X117514285Y-56271428D01*
X117624213Y-52965634D02*
X117826243Y-53167664D01*
X117462588Y-53046446D02*
X118028274Y-52763603D01*
X117745431Y-53329289D01*
X118109086Y-53692944D02*
X117866649Y-53450507D01*
X117987867Y-53571725D02*
X118412132Y-53147461D01*
X118311116Y-53167664D01*
X118230304Y-53167664D01*
X118169695Y-53147461D01*
X118674771Y-53410101D02*
X118937411Y-53672741D01*
X118634365Y-53692944D01*
X118694974Y-53753553D01*
X118715177Y-53814162D01*
X118715177Y-53854568D01*
X118694974Y-53915177D01*
X118593959Y-54016193D01*
X118533350Y-54036396D01*
X118492944Y-54036396D01*
X118432335Y-54016193D01*
X118311116Y-53894974D01*
X118290913Y-53834365D01*
X118290913Y-53793959D01*
X119900000Y-54714285D02*
X119900000Y-54428571D01*
X120071428Y-54771428D02*
X119471428Y-54571428D01*
X120071428Y-54371428D01*
X120071428Y-53857142D02*
X120071428Y-54200000D01*
X120071428Y-54028571D02*
X119471428Y-54028571D01*
X119557142Y-54085714D01*
X119614285Y-54142857D01*
X119642857Y-54200000D01*
X119671428Y-53342857D02*
X120071428Y-53342857D01*
X119442857Y-53485714D02*
X119871428Y-53628571D01*
X119871428Y-53257142D01*
X122100000Y-54714285D02*
X122100000Y-54428571D01*
X122271428Y-54771428D02*
X121671428Y-54571428D01*
X122271428Y-54371428D01*
X122271428Y-53857142D02*
X122271428Y-54200000D01*
X122271428Y-54028571D02*
X121671428Y-54028571D01*
X121757142Y-54085714D01*
X121814285Y-54142857D01*
X121842857Y-54200000D01*
X121671428Y-53314285D02*
X121671428Y-53600000D01*
X121957142Y-53628571D01*
X121928571Y-53600000D01*
X121900000Y-53542857D01*
X121900000Y-53400000D01*
X121928571Y-53342857D01*
X121957142Y-53314285D01*
X122014285Y-53285714D01*
X122157142Y-53285714D01*
X122214285Y-53314285D01*
X122242857Y-53342857D01*
X122271428Y-53400000D01*
X122271428Y-53542857D01*
X122242857Y-53600000D01*
X122214285Y-53628571D01*
X124100000Y-54714285D02*
X124100000Y-54428571D01*
X124271428Y-54771428D02*
X123671428Y-54571428D01*
X124271428Y-54371428D01*
X124271428Y-53857142D02*
X124271428Y-54200000D01*
X124271428Y-54028571D02*
X123671428Y-54028571D01*
X123757142Y-54085714D01*
X123814285Y-54142857D01*
X123842857Y-54200000D01*
X123671428Y-53342857D02*
X123671428Y-53457142D01*
X123700000Y-53514285D01*
X123728571Y-53542857D01*
X123814285Y-53600000D01*
X123928571Y-53628571D01*
X124157142Y-53628571D01*
X124214285Y-53600000D01*
X124242857Y-53571428D01*
X124271428Y-53514285D01*
X124271428Y-53400000D01*
X124242857Y-53342857D01*
X124214285Y-53314285D01*
X124157142Y-53285714D01*
X124014285Y-53285714D01*
X123957142Y-53314285D01*
X123928571Y-53342857D01*
X123900000Y-53400000D01*
X123900000Y-53514285D01*
X123928571Y-53571428D01*
X123957142Y-53600000D01*
X124014285Y-53628571D01*
X125365634Y-53975786D02*
X125567664Y-53773756D01*
X125446446Y-54137411D02*
X125163603Y-53571725D01*
X125729289Y-53854568D01*
X126092944Y-53490913D02*
X125850507Y-53733350D01*
X125971725Y-53612132D02*
X125547461Y-53187867D01*
X125567664Y-53288883D01*
X125567664Y-53369695D01*
X125547461Y-53430304D01*
X125810101Y-52925228D02*
X126092944Y-52642385D01*
X126335380Y-53248477D01*
X126285714Y-56100000D02*
X126571428Y-56100000D01*
X126228571Y-56271428D02*
X126428571Y-55671428D01*
X126628571Y-56271428D01*
X127142857Y-56271428D02*
X126800000Y-56271428D01*
X126971428Y-56271428D02*
X126971428Y-55671428D01*
X126914285Y-55757142D01*
X126857142Y-55814285D01*
X126800000Y-55842857D01*
X127485714Y-55928571D02*
X127428571Y-55900000D01*
X127400000Y-55871428D01*
X127371428Y-55814285D01*
X127371428Y-55785714D01*
X127400000Y-55728571D01*
X127428571Y-55700000D01*
X127485714Y-55671428D01*
X127600000Y-55671428D01*
X127657142Y-55700000D01*
X127685714Y-55728571D01*
X127714285Y-55785714D01*
X127714285Y-55814285D01*
X127685714Y-55871428D01*
X127657142Y-55900000D01*
X127600000Y-55928571D01*
X127485714Y-55928571D01*
X127428571Y-55957142D01*
X127400000Y-55985714D01*
X127371428Y-56042857D01*
X127371428Y-56157142D01*
X127400000Y-56214285D01*
X127428571Y-56242857D01*
X127485714Y-56271428D01*
X127600000Y-56271428D01*
X127657142Y-56242857D01*
X127685714Y-56214285D01*
X127714285Y-56157142D01*
X127714285Y-56042857D01*
X127685714Y-55985714D01*
X127657142Y-55957142D01*
X127600000Y-55928571D01*
M02*
