%TF.GenerationSoftware,KiCad,Pcbnew,(5.1.5-0-10_14)*%
%TF.CreationDate,2021-03-11T16:13:23+01:00*%
%TF.ProjectId,C64-ROM-Adapter-LB,4336342d-524f-44d2-9d41-646170746572,1.1*%
%TF.SameCoordinates,Original*%
%TF.FileFunction,Soldermask,Bot*%
%TF.FilePolarity,Negative*%
%FSLAX46Y46*%
G04 Gerber Fmt 4.6, Leading zero omitted, Abs format (unit mm)*
G04 Created by KiCad (PCBNEW (5.1.5-0-10_14)) date 2021-03-11 16:13:23*
%MOMM*%
%LPD*%
G04 APERTURE LIST*
%ADD10C,0.050000*%
%ADD11C,0.150000*%
G04 APERTURE END LIST*
D10*
X122809000Y-48895000D02*
X130810000Y-48895000D01*
X122809000Y-48895000D02*
G75*
G02X121031000Y-48895000I-889000J0D01*
G01*
X131445000Y-80010000D02*
G75*
G02X130810000Y-80645000I-635000J0D01*
G01*
X113030000Y-80645000D02*
G75*
G02X112395000Y-80010000I0J635000D01*
G01*
X112395000Y-49530000D02*
G75*
G02X113030000Y-48895000I635000J0D01*
G01*
X130810000Y-48895000D02*
G75*
G02X131445000Y-49530000I0J-635000D01*
G01*
X112395000Y-80010000D02*
X112395000Y-49530000D01*
X130810000Y-80645000D02*
X113030000Y-80645000D01*
X131445000Y-49530000D02*
X131445000Y-80010000D01*
X113030000Y-48895000D02*
X121031000Y-48895000D01*
D11*
G36*
X129788228Y-77921703D02*
G01*
X129943100Y-77985853D01*
X130082481Y-78078985D01*
X130201015Y-78197519D01*
X130294147Y-78336900D01*
X130358297Y-78491772D01*
X130391000Y-78656184D01*
X130391000Y-78823816D01*
X130358297Y-78988228D01*
X130294147Y-79143100D01*
X130201015Y-79282481D01*
X130082481Y-79401015D01*
X129943100Y-79494147D01*
X129788228Y-79558297D01*
X129623816Y-79591000D01*
X129456184Y-79591000D01*
X129291772Y-79558297D01*
X129136900Y-79494147D01*
X128997519Y-79401015D01*
X128878985Y-79282481D01*
X128785853Y-79143100D01*
X128721703Y-78988228D01*
X128689000Y-78823816D01*
X128689000Y-78656184D01*
X128721703Y-78491772D01*
X128785853Y-78336900D01*
X128878985Y-78197519D01*
X128997519Y-78078985D01*
X129136900Y-77985853D01*
X129291772Y-77921703D01*
X129456184Y-77889000D01*
X129623816Y-77889000D01*
X129788228Y-77921703D01*
G37*
G36*
X114548228Y-77921703D02*
G01*
X114703100Y-77985853D01*
X114842481Y-78078985D01*
X114961015Y-78197519D01*
X115054147Y-78336900D01*
X115118297Y-78491772D01*
X115151000Y-78656184D01*
X115151000Y-78823816D01*
X115118297Y-78988228D01*
X115054147Y-79143100D01*
X114961015Y-79282481D01*
X114842481Y-79401015D01*
X114703100Y-79494147D01*
X114548228Y-79558297D01*
X114383816Y-79591000D01*
X114216184Y-79591000D01*
X114051772Y-79558297D01*
X113896900Y-79494147D01*
X113757519Y-79401015D01*
X113638985Y-79282481D01*
X113545853Y-79143100D01*
X113481703Y-78988228D01*
X113449000Y-78823816D01*
X113449000Y-78656184D01*
X113481703Y-78491772D01*
X113545853Y-78336900D01*
X113638985Y-78197519D01*
X113757519Y-78078985D01*
X113896900Y-77985853D01*
X114051772Y-77921703D01*
X114216184Y-77889000D01*
X114383816Y-77889000D01*
X114548228Y-77921703D01*
G37*
G36*
X118340295Y-76720323D02*
G01*
X118347309Y-76722451D01*
X118361077Y-76729810D01*
X118383716Y-76739187D01*
X118407749Y-76743967D01*
X118432253Y-76743967D01*
X118456286Y-76739186D01*
X118478923Y-76729810D01*
X118492691Y-76722451D01*
X118499705Y-76720323D01*
X118513140Y-76719000D01*
X118826860Y-76719000D01*
X118840295Y-76720323D01*
X118847309Y-76722451D01*
X118861077Y-76729810D01*
X118883716Y-76739187D01*
X118907749Y-76743967D01*
X118932253Y-76743967D01*
X118956286Y-76739186D01*
X118978923Y-76729810D01*
X118992691Y-76722451D01*
X118999705Y-76720323D01*
X119013140Y-76719000D01*
X119326860Y-76719000D01*
X119340295Y-76720323D01*
X119347309Y-76722451D01*
X119361077Y-76729810D01*
X119383716Y-76739187D01*
X119407749Y-76743967D01*
X119432253Y-76743967D01*
X119456286Y-76739186D01*
X119478923Y-76729810D01*
X119492691Y-76722451D01*
X119499705Y-76720323D01*
X119513140Y-76719000D01*
X119826860Y-76719000D01*
X119840295Y-76720323D01*
X119847309Y-76722451D01*
X119861077Y-76729810D01*
X119883716Y-76739187D01*
X119907749Y-76743967D01*
X119932253Y-76743967D01*
X119956286Y-76739186D01*
X119978923Y-76729810D01*
X119992691Y-76722451D01*
X119999705Y-76720323D01*
X120013140Y-76719000D01*
X120326860Y-76719000D01*
X120340295Y-76720323D01*
X120347309Y-76722451D01*
X120361077Y-76729810D01*
X120383716Y-76739187D01*
X120407749Y-76743967D01*
X120432253Y-76743967D01*
X120456286Y-76739186D01*
X120478923Y-76729810D01*
X120492691Y-76722451D01*
X120499705Y-76720323D01*
X120513140Y-76719000D01*
X120826860Y-76719000D01*
X120840295Y-76720323D01*
X120847309Y-76722451D01*
X120861077Y-76729810D01*
X120883716Y-76739187D01*
X120907749Y-76743967D01*
X120932253Y-76743967D01*
X120956286Y-76739186D01*
X120978923Y-76729810D01*
X120992691Y-76722451D01*
X120999705Y-76720323D01*
X121013140Y-76719000D01*
X121326860Y-76719000D01*
X121340295Y-76720323D01*
X121347309Y-76722451D01*
X121361077Y-76729810D01*
X121383716Y-76739187D01*
X121407749Y-76743967D01*
X121432253Y-76743967D01*
X121456286Y-76739186D01*
X121478923Y-76729810D01*
X121492691Y-76722451D01*
X121499705Y-76720323D01*
X121513140Y-76719000D01*
X121826860Y-76719000D01*
X121840295Y-76720323D01*
X121847309Y-76722451D01*
X121861077Y-76729810D01*
X121883716Y-76739187D01*
X121907749Y-76743967D01*
X121932253Y-76743967D01*
X121956286Y-76739186D01*
X121978923Y-76729810D01*
X121992691Y-76722451D01*
X121999705Y-76720323D01*
X122013140Y-76719000D01*
X122326860Y-76719000D01*
X122340295Y-76720323D01*
X122347309Y-76722451D01*
X122361077Y-76729810D01*
X122383716Y-76739187D01*
X122407749Y-76743967D01*
X122432253Y-76743967D01*
X122456286Y-76739186D01*
X122478923Y-76729810D01*
X122492691Y-76722451D01*
X122499705Y-76720323D01*
X122513140Y-76719000D01*
X122826860Y-76719000D01*
X122840295Y-76720323D01*
X122847309Y-76722451D01*
X122861077Y-76729810D01*
X122883716Y-76739187D01*
X122907749Y-76743967D01*
X122932253Y-76743967D01*
X122956286Y-76739186D01*
X122978923Y-76729810D01*
X122992691Y-76722451D01*
X122999705Y-76720323D01*
X123013140Y-76719000D01*
X123326860Y-76719000D01*
X123340295Y-76720323D01*
X123347309Y-76722451D01*
X123361077Y-76729810D01*
X123383716Y-76739187D01*
X123407749Y-76743967D01*
X123432253Y-76743967D01*
X123456286Y-76739186D01*
X123478923Y-76729810D01*
X123492691Y-76722451D01*
X123499705Y-76720323D01*
X123513140Y-76719000D01*
X123826860Y-76719000D01*
X123840295Y-76720323D01*
X123847309Y-76722451D01*
X123861077Y-76729810D01*
X123883716Y-76739187D01*
X123907749Y-76743967D01*
X123932253Y-76743967D01*
X123956286Y-76739186D01*
X123978923Y-76729810D01*
X123992691Y-76722451D01*
X123999705Y-76720323D01*
X124013140Y-76719000D01*
X124326860Y-76719000D01*
X124340295Y-76720323D01*
X124347309Y-76722451D01*
X124361077Y-76729810D01*
X124383716Y-76739187D01*
X124407749Y-76743967D01*
X124432253Y-76743967D01*
X124456286Y-76739186D01*
X124478923Y-76729810D01*
X124492691Y-76722451D01*
X124499705Y-76720323D01*
X124513140Y-76719000D01*
X124826860Y-76719000D01*
X124840295Y-76720323D01*
X124847309Y-76722451D01*
X124861077Y-76729810D01*
X124883716Y-76739187D01*
X124907749Y-76743967D01*
X124932253Y-76743967D01*
X124956286Y-76739186D01*
X124978923Y-76729810D01*
X124992691Y-76722451D01*
X124999705Y-76720323D01*
X125013140Y-76719000D01*
X125326860Y-76719000D01*
X125340295Y-76720323D01*
X125347309Y-76722451D01*
X125361077Y-76729810D01*
X125383716Y-76739187D01*
X125407749Y-76743967D01*
X125432253Y-76743967D01*
X125456286Y-76739186D01*
X125478923Y-76729810D01*
X125492691Y-76722451D01*
X125499705Y-76720323D01*
X125513140Y-76719000D01*
X125826860Y-76719000D01*
X125840295Y-76720323D01*
X125847310Y-76722451D01*
X125853776Y-76725908D01*
X125859442Y-76730558D01*
X125864092Y-76736224D01*
X125867549Y-76742690D01*
X125869677Y-76749705D01*
X125871000Y-76763140D01*
X125871000Y-79076860D01*
X125869677Y-79090295D01*
X125867549Y-79097310D01*
X125864092Y-79103776D01*
X125859442Y-79109442D01*
X125853776Y-79114092D01*
X125847310Y-79117549D01*
X125840295Y-79119677D01*
X125826860Y-79121000D01*
X125513140Y-79121000D01*
X125499705Y-79119677D01*
X125492691Y-79117549D01*
X125478923Y-79110190D01*
X125456284Y-79100813D01*
X125432251Y-79096033D01*
X125407747Y-79096033D01*
X125383714Y-79100814D01*
X125361077Y-79110190D01*
X125347309Y-79117549D01*
X125340295Y-79119677D01*
X125326860Y-79121000D01*
X125013140Y-79121000D01*
X124999705Y-79119677D01*
X124992691Y-79117549D01*
X124978923Y-79110190D01*
X124956284Y-79100813D01*
X124932251Y-79096033D01*
X124907747Y-79096033D01*
X124883714Y-79100814D01*
X124861077Y-79110190D01*
X124847309Y-79117549D01*
X124840295Y-79119677D01*
X124826860Y-79121000D01*
X124513140Y-79121000D01*
X124499705Y-79119677D01*
X124492691Y-79117549D01*
X124478923Y-79110190D01*
X124456284Y-79100813D01*
X124432251Y-79096033D01*
X124407747Y-79096033D01*
X124383714Y-79100814D01*
X124361077Y-79110190D01*
X124347309Y-79117549D01*
X124340295Y-79119677D01*
X124326860Y-79121000D01*
X124013140Y-79121000D01*
X123999705Y-79119677D01*
X123992691Y-79117549D01*
X123978923Y-79110190D01*
X123956284Y-79100813D01*
X123932251Y-79096033D01*
X123907747Y-79096033D01*
X123883714Y-79100814D01*
X123861077Y-79110190D01*
X123847309Y-79117549D01*
X123840295Y-79119677D01*
X123826860Y-79121000D01*
X123513140Y-79121000D01*
X123499705Y-79119677D01*
X123492691Y-79117549D01*
X123478923Y-79110190D01*
X123456284Y-79100813D01*
X123432251Y-79096033D01*
X123407747Y-79096033D01*
X123383714Y-79100814D01*
X123361077Y-79110190D01*
X123347309Y-79117549D01*
X123340295Y-79119677D01*
X123326860Y-79121000D01*
X123013140Y-79121000D01*
X122999705Y-79119677D01*
X122992691Y-79117549D01*
X122978923Y-79110190D01*
X122956284Y-79100813D01*
X122932251Y-79096033D01*
X122907747Y-79096033D01*
X122883714Y-79100814D01*
X122861077Y-79110190D01*
X122847309Y-79117549D01*
X122840295Y-79119677D01*
X122826860Y-79121000D01*
X122513140Y-79121000D01*
X122499705Y-79119677D01*
X122492691Y-79117549D01*
X122478923Y-79110190D01*
X122456284Y-79100813D01*
X122432251Y-79096033D01*
X122407747Y-79096033D01*
X122383714Y-79100814D01*
X122361077Y-79110190D01*
X122347309Y-79117549D01*
X122340295Y-79119677D01*
X122326860Y-79121000D01*
X122013140Y-79121000D01*
X121999705Y-79119677D01*
X121992691Y-79117549D01*
X121978923Y-79110190D01*
X121956284Y-79100813D01*
X121932251Y-79096033D01*
X121907747Y-79096033D01*
X121883714Y-79100814D01*
X121861077Y-79110190D01*
X121847309Y-79117549D01*
X121840295Y-79119677D01*
X121826860Y-79121000D01*
X121513140Y-79121000D01*
X121499705Y-79119677D01*
X121492691Y-79117549D01*
X121478923Y-79110190D01*
X121456284Y-79100813D01*
X121432251Y-79096033D01*
X121407747Y-79096033D01*
X121383714Y-79100814D01*
X121361077Y-79110190D01*
X121347309Y-79117549D01*
X121340295Y-79119677D01*
X121326860Y-79121000D01*
X121013140Y-79121000D01*
X120999705Y-79119677D01*
X120992691Y-79117549D01*
X120978923Y-79110190D01*
X120956284Y-79100813D01*
X120932251Y-79096033D01*
X120907747Y-79096033D01*
X120883714Y-79100814D01*
X120861077Y-79110190D01*
X120847309Y-79117549D01*
X120840295Y-79119677D01*
X120826860Y-79121000D01*
X120513140Y-79121000D01*
X120499705Y-79119677D01*
X120492691Y-79117549D01*
X120478923Y-79110190D01*
X120456284Y-79100813D01*
X120432251Y-79096033D01*
X120407747Y-79096033D01*
X120383714Y-79100814D01*
X120361077Y-79110190D01*
X120347309Y-79117549D01*
X120340295Y-79119677D01*
X120326860Y-79121000D01*
X120013140Y-79121000D01*
X119999705Y-79119677D01*
X119992691Y-79117549D01*
X119978923Y-79110190D01*
X119956284Y-79100813D01*
X119932251Y-79096033D01*
X119907747Y-79096033D01*
X119883714Y-79100814D01*
X119861077Y-79110190D01*
X119847309Y-79117549D01*
X119840295Y-79119677D01*
X119826860Y-79121000D01*
X119513140Y-79121000D01*
X119499705Y-79119677D01*
X119492691Y-79117549D01*
X119478923Y-79110190D01*
X119456284Y-79100813D01*
X119432251Y-79096033D01*
X119407747Y-79096033D01*
X119383714Y-79100814D01*
X119361077Y-79110190D01*
X119347309Y-79117549D01*
X119340295Y-79119677D01*
X119326860Y-79121000D01*
X119013140Y-79121000D01*
X118999705Y-79119677D01*
X118992691Y-79117549D01*
X118978923Y-79110190D01*
X118956284Y-79100813D01*
X118932251Y-79096033D01*
X118907747Y-79096033D01*
X118883714Y-79100814D01*
X118861077Y-79110190D01*
X118847309Y-79117549D01*
X118840295Y-79119677D01*
X118826860Y-79121000D01*
X118513140Y-79121000D01*
X118499705Y-79119677D01*
X118492691Y-79117549D01*
X118478923Y-79110190D01*
X118456284Y-79100813D01*
X118432251Y-79096033D01*
X118407747Y-79096033D01*
X118383714Y-79100814D01*
X118361077Y-79110190D01*
X118347309Y-79117549D01*
X118340295Y-79119677D01*
X118326860Y-79121000D01*
X118013140Y-79121000D01*
X117999705Y-79119677D01*
X117992690Y-79117549D01*
X117986224Y-79114092D01*
X117980558Y-79109442D01*
X117975908Y-79103776D01*
X117972451Y-79097310D01*
X117970323Y-79090295D01*
X117969000Y-79076860D01*
X117969000Y-76763140D01*
X117970323Y-76749705D01*
X117972451Y-76742690D01*
X117975908Y-76736224D01*
X117980558Y-76730558D01*
X117986224Y-76725908D01*
X117992690Y-76722451D01*
X117999705Y-76720323D01*
X118013140Y-76719000D01*
X118326860Y-76719000D01*
X118340295Y-76720323D01*
G37*
G36*
X114548228Y-75381703D02*
G01*
X114703100Y-75445853D01*
X114842481Y-75538985D01*
X114961015Y-75657519D01*
X115054147Y-75796900D01*
X115118297Y-75951772D01*
X115151000Y-76116184D01*
X115151000Y-76283816D01*
X115118297Y-76448228D01*
X115054147Y-76603100D01*
X114961015Y-76742481D01*
X114842481Y-76861015D01*
X114703100Y-76954147D01*
X114548228Y-77018297D01*
X114383816Y-77051000D01*
X114216184Y-77051000D01*
X114051772Y-77018297D01*
X113896900Y-76954147D01*
X113757519Y-76861015D01*
X113638985Y-76742481D01*
X113545853Y-76603100D01*
X113481703Y-76448228D01*
X113449000Y-76283816D01*
X113449000Y-76116184D01*
X113481703Y-75951772D01*
X113545853Y-75796900D01*
X113638985Y-75657519D01*
X113757519Y-75538985D01*
X113896900Y-75445853D01*
X114051772Y-75381703D01*
X114216184Y-75349000D01*
X114383816Y-75349000D01*
X114548228Y-75381703D01*
G37*
G36*
X129788228Y-75381703D02*
G01*
X129943100Y-75445853D01*
X130082481Y-75538985D01*
X130201015Y-75657519D01*
X130294147Y-75796900D01*
X130358297Y-75951772D01*
X130391000Y-76116184D01*
X130391000Y-76283816D01*
X130358297Y-76448228D01*
X130294147Y-76603100D01*
X130201015Y-76742481D01*
X130082481Y-76861015D01*
X129943100Y-76954147D01*
X129788228Y-77018297D01*
X129623816Y-77051000D01*
X129456184Y-77051000D01*
X129291772Y-77018297D01*
X129136900Y-76954147D01*
X128997519Y-76861015D01*
X128878985Y-76742481D01*
X128785853Y-76603100D01*
X128721703Y-76448228D01*
X128689000Y-76283816D01*
X128689000Y-76116184D01*
X128721703Y-75951772D01*
X128785853Y-75796900D01*
X128878985Y-75657519D01*
X128997519Y-75538985D01*
X129136900Y-75445853D01*
X129291772Y-75381703D01*
X129456184Y-75349000D01*
X129623816Y-75349000D01*
X129788228Y-75381703D01*
G37*
G36*
X114548228Y-72841703D02*
G01*
X114703100Y-72905853D01*
X114842481Y-72998985D01*
X114961015Y-73117519D01*
X115054147Y-73256900D01*
X115118297Y-73411772D01*
X115151000Y-73576184D01*
X115151000Y-73743816D01*
X115118297Y-73908228D01*
X115054147Y-74063100D01*
X114961015Y-74202481D01*
X114842481Y-74321015D01*
X114703100Y-74414147D01*
X114548228Y-74478297D01*
X114383816Y-74511000D01*
X114216184Y-74511000D01*
X114051772Y-74478297D01*
X113896900Y-74414147D01*
X113757519Y-74321015D01*
X113638985Y-74202481D01*
X113545853Y-74063100D01*
X113481703Y-73908228D01*
X113449000Y-73743816D01*
X113449000Y-73576184D01*
X113481703Y-73411772D01*
X113545853Y-73256900D01*
X113638985Y-73117519D01*
X113757519Y-72998985D01*
X113896900Y-72905853D01*
X114051772Y-72841703D01*
X114216184Y-72809000D01*
X114383816Y-72809000D01*
X114548228Y-72841703D01*
G37*
G36*
X129788228Y-72841703D02*
G01*
X129943100Y-72905853D01*
X130082481Y-72998985D01*
X130201015Y-73117519D01*
X130294147Y-73256900D01*
X130358297Y-73411772D01*
X130391000Y-73576184D01*
X130391000Y-73743816D01*
X130358297Y-73908228D01*
X130294147Y-74063100D01*
X130201015Y-74202481D01*
X130082481Y-74321015D01*
X129943100Y-74414147D01*
X129788228Y-74478297D01*
X129623816Y-74511000D01*
X129456184Y-74511000D01*
X129291772Y-74478297D01*
X129136900Y-74414147D01*
X128997519Y-74321015D01*
X128878985Y-74202481D01*
X128785853Y-74063100D01*
X128721703Y-73908228D01*
X128689000Y-73743816D01*
X128689000Y-73576184D01*
X128721703Y-73411772D01*
X128785853Y-73256900D01*
X128878985Y-73117519D01*
X128997519Y-72998985D01*
X129136900Y-72905853D01*
X129291772Y-72841703D01*
X129456184Y-72809000D01*
X129623816Y-72809000D01*
X129788228Y-72841703D01*
G37*
G36*
X127160721Y-73130174D02*
G01*
X127260995Y-73171709D01*
X127260996Y-73171710D01*
X127351242Y-73232010D01*
X127427990Y-73308758D01*
X127427991Y-73308760D01*
X127488291Y-73399005D01*
X127529826Y-73499279D01*
X127551000Y-73605730D01*
X127551000Y-73714270D01*
X127529826Y-73820721D01*
X127488291Y-73920995D01*
X127488290Y-73920996D01*
X127427990Y-74011242D01*
X127351242Y-74087990D01*
X127305812Y-74118345D01*
X127260995Y-74148291D01*
X127160721Y-74189826D01*
X127054270Y-74211000D01*
X126945730Y-74211000D01*
X126839279Y-74189826D01*
X126739005Y-74148291D01*
X126694188Y-74118345D01*
X126648758Y-74087990D01*
X126572010Y-74011242D01*
X126511710Y-73920996D01*
X126511709Y-73920995D01*
X126470174Y-73820721D01*
X126449000Y-73714270D01*
X126449000Y-73605730D01*
X126470174Y-73499279D01*
X126511709Y-73399005D01*
X126572009Y-73308760D01*
X126572010Y-73308758D01*
X126648758Y-73232010D01*
X126739004Y-73171710D01*
X126739005Y-73171709D01*
X126839279Y-73130174D01*
X126945730Y-73109000D01*
X127054270Y-73109000D01*
X127160721Y-73130174D01*
G37*
G36*
X129788228Y-70301703D02*
G01*
X129943100Y-70365853D01*
X130082481Y-70458985D01*
X130201015Y-70577519D01*
X130294147Y-70716900D01*
X130358297Y-70871772D01*
X130391000Y-71036184D01*
X130391000Y-71203816D01*
X130358297Y-71368228D01*
X130294147Y-71523100D01*
X130201015Y-71662481D01*
X130082481Y-71781015D01*
X129943100Y-71874147D01*
X129788228Y-71938297D01*
X129623816Y-71971000D01*
X129456184Y-71971000D01*
X129291772Y-71938297D01*
X129136900Y-71874147D01*
X128997519Y-71781015D01*
X128878985Y-71662481D01*
X128785853Y-71523100D01*
X128721703Y-71368228D01*
X128689000Y-71203816D01*
X128689000Y-71036184D01*
X128721703Y-70871772D01*
X128785853Y-70716900D01*
X128878985Y-70577519D01*
X128997519Y-70458985D01*
X129136900Y-70365853D01*
X129291772Y-70301703D01*
X129456184Y-70269000D01*
X129623816Y-70269000D01*
X129788228Y-70301703D01*
G37*
G36*
X114548228Y-70301703D02*
G01*
X114703100Y-70365853D01*
X114842481Y-70458985D01*
X114961015Y-70577519D01*
X115054147Y-70716900D01*
X115118297Y-70871772D01*
X115151000Y-71036184D01*
X115151000Y-71203816D01*
X115118297Y-71368228D01*
X115054147Y-71523100D01*
X114961015Y-71662481D01*
X114842481Y-71781015D01*
X114703100Y-71874147D01*
X114548228Y-71938297D01*
X114383816Y-71971000D01*
X114216184Y-71971000D01*
X114051772Y-71938297D01*
X113896900Y-71874147D01*
X113757519Y-71781015D01*
X113638985Y-71662481D01*
X113545853Y-71523100D01*
X113481703Y-71368228D01*
X113449000Y-71203816D01*
X113449000Y-71036184D01*
X113481703Y-70871772D01*
X113545853Y-70716900D01*
X113638985Y-70577519D01*
X113757519Y-70458985D01*
X113896900Y-70365853D01*
X114051772Y-70301703D01*
X114216184Y-70269000D01*
X114383816Y-70269000D01*
X114548228Y-70301703D01*
G37*
G36*
X127160721Y-70590174D02*
G01*
X127260995Y-70631709D01*
X127260996Y-70631710D01*
X127351242Y-70692010D01*
X127427990Y-70768758D01*
X127427991Y-70768760D01*
X127488291Y-70859005D01*
X127529826Y-70959279D01*
X127551000Y-71065730D01*
X127551000Y-71174270D01*
X127529826Y-71280721D01*
X127488291Y-71380995D01*
X127488290Y-71380996D01*
X127427990Y-71471242D01*
X127351242Y-71547990D01*
X127305812Y-71578345D01*
X127260995Y-71608291D01*
X127160721Y-71649826D01*
X127054270Y-71671000D01*
X126945730Y-71671000D01*
X126839279Y-71649826D01*
X126739005Y-71608291D01*
X126694188Y-71578345D01*
X126648758Y-71547990D01*
X126572010Y-71471242D01*
X126511710Y-71380996D01*
X126511709Y-71380995D01*
X126470174Y-71280721D01*
X126449000Y-71174270D01*
X126449000Y-71065730D01*
X126470174Y-70959279D01*
X126511709Y-70859005D01*
X126572009Y-70768760D01*
X126572010Y-70768758D01*
X126648758Y-70692010D01*
X126739004Y-70631710D01*
X126739005Y-70631709D01*
X126839279Y-70590174D01*
X126945730Y-70569000D01*
X127054270Y-70569000D01*
X127160721Y-70590174D01*
G37*
G36*
X114548228Y-67761703D02*
G01*
X114703100Y-67825853D01*
X114842481Y-67918985D01*
X114961015Y-68037519D01*
X115054147Y-68176900D01*
X115118297Y-68331772D01*
X115151000Y-68496184D01*
X115151000Y-68663816D01*
X115118297Y-68828228D01*
X115054147Y-68983100D01*
X114961015Y-69122481D01*
X114842481Y-69241015D01*
X114703100Y-69334147D01*
X114548228Y-69398297D01*
X114383816Y-69431000D01*
X114216184Y-69431000D01*
X114051772Y-69398297D01*
X113896900Y-69334147D01*
X113757519Y-69241015D01*
X113638985Y-69122481D01*
X113545853Y-68983100D01*
X113481703Y-68828228D01*
X113449000Y-68663816D01*
X113449000Y-68496184D01*
X113481703Y-68331772D01*
X113545853Y-68176900D01*
X113638985Y-68037519D01*
X113757519Y-67918985D01*
X113896900Y-67825853D01*
X114051772Y-67761703D01*
X114216184Y-67729000D01*
X114383816Y-67729000D01*
X114548228Y-67761703D01*
G37*
G36*
X129788228Y-67761703D02*
G01*
X129943100Y-67825853D01*
X130082481Y-67918985D01*
X130201015Y-68037519D01*
X130294147Y-68176900D01*
X130358297Y-68331772D01*
X130391000Y-68496184D01*
X130391000Y-68663816D01*
X130358297Y-68828228D01*
X130294147Y-68983100D01*
X130201015Y-69122481D01*
X130082481Y-69241015D01*
X129943100Y-69334147D01*
X129788228Y-69398297D01*
X129623816Y-69431000D01*
X129456184Y-69431000D01*
X129291772Y-69398297D01*
X129136900Y-69334147D01*
X128997519Y-69241015D01*
X128878985Y-69122481D01*
X128785853Y-68983100D01*
X128721703Y-68828228D01*
X128689000Y-68663816D01*
X128689000Y-68496184D01*
X128721703Y-68331772D01*
X128785853Y-68176900D01*
X128878985Y-68037519D01*
X128997519Y-67918985D01*
X129136900Y-67825853D01*
X129291772Y-67761703D01*
X129456184Y-67729000D01*
X129623816Y-67729000D01*
X129788228Y-67761703D01*
G37*
G36*
X129788228Y-65221703D02*
G01*
X129943100Y-65285853D01*
X130082481Y-65378985D01*
X130201015Y-65497519D01*
X130294147Y-65636900D01*
X130358297Y-65791772D01*
X130391000Y-65956184D01*
X130391000Y-66123816D01*
X130358297Y-66288228D01*
X130294147Y-66443100D01*
X130201015Y-66582481D01*
X130082481Y-66701015D01*
X129943100Y-66794147D01*
X129788228Y-66858297D01*
X129623816Y-66891000D01*
X129456184Y-66891000D01*
X129291772Y-66858297D01*
X129136900Y-66794147D01*
X128997519Y-66701015D01*
X128878985Y-66582481D01*
X128785853Y-66443100D01*
X128721703Y-66288228D01*
X128689000Y-66123816D01*
X128689000Y-65956184D01*
X128721703Y-65791772D01*
X128785853Y-65636900D01*
X128878985Y-65497519D01*
X128997519Y-65378985D01*
X129136900Y-65285853D01*
X129291772Y-65221703D01*
X129456184Y-65189000D01*
X129623816Y-65189000D01*
X129788228Y-65221703D01*
G37*
G36*
X114548228Y-65221703D02*
G01*
X114703100Y-65285853D01*
X114842481Y-65378985D01*
X114961015Y-65497519D01*
X115054147Y-65636900D01*
X115118297Y-65791772D01*
X115151000Y-65956184D01*
X115151000Y-66123816D01*
X115118297Y-66288228D01*
X115054147Y-66443100D01*
X114961015Y-66582481D01*
X114842481Y-66701015D01*
X114703100Y-66794147D01*
X114548228Y-66858297D01*
X114383816Y-66891000D01*
X114216184Y-66891000D01*
X114051772Y-66858297D01*
X113896900Y-66794147D01*
X113757519Y-66701015D01*
X113638985Y-66582481D01*
X113545853Y-66443100D01*
X113481703Y-66288228D01*
X113449000Y-66123816D01*
X113449000Y-65956184D01*
X113481703Y-65791772D01*
X113545853Y-65636900D01*
X113638985Y-65497519D01*
X113757519Y-65378985D01*
X113896900Y-65285853D01*
X114051772Y-65221703D01*
X114216184Y-65189000D01*
X114383816Y-65189000D01*
X114548228Y-65221703D01*
G37*
G36*
X118340295Y-63120323D02*
G01*
X118347309Y-63122451D01*
X118361077Y-63129810D01*
X118383716Y-63139187D01*
X118407749Y-63143967D01*
X118432253Y-63143967D01*
X118456286Y-63139186D01*
X118478923Y-63129810D01*
X118492691Y-63122451D01*
X118499705Y-63120323D01*
X118513140Y-63119000D01*
X118826860Y-63119000D01*
X118840295Y-63120323D01*
X118847309Y-63122451D01*
X118861077Y-63129810D01*
X118883716Y-63139187D01*
X118907749Y-63143967D01*
X118932253Y-63143967D01*
X118956286Y-63139186D01*
X118978923Y-63129810D01*
X118992691Y-63122451D01*
X118999705Y-63120323D01*
X119013140Y-63119000D01*
X119326860Y-63119000D01*
X119340295Y-63120323D01*
X119347309Y-63122451D01*
X119361077Y-63129810D01*
X119383716Y-63139187D01*
X119407749Y-63143967D01*
X119432253Y-63143967D01*
X119456286Y-63139186D01*
X119478923Y-63129810D01*
X119492691Y-63122451D01*
X119499705Y-63120323D01*
X119513140Y-63119000D01*
X119826860Y-63119000D01*
X119840295Y-63120323D01*
X119847309Y-63122451D01*
X119861077Y-63129810D01*
X119883716Y-63139187D01*
X119907749Y-63143967D01*
X119932253Y-63143967D01*
X119956286Y-63139186D01*
X119978923Y-63129810D01*
X119992691Y-63122451D01*
X119999705Y-63120323D01*
X120013140Y-63119000D01*
X120326860Y-63119000D01*
X120340295Y-63120323D01*
X120347309Y-63122451D01*
X120361077Y-63129810D01*
X120383716Y-63139187D01*
X120407749Y-63143967D01*
X120432253Y-63143967D01*
X120456286Y-63139186D01*
X120478923Y-63129810D01*
X120492691Y-63122451D01*
X120499705Y-63120323D01*
X120513140Y-63119000D01*
X120826860Y-63119000D01*
X120840295Y-63120323D01*
X120847309Y-63122451D01*
X120861077Y-63129810D01*
X120883716Y-63139187D01*
X120907749Y-63143967D01*
X120932253Y-63143967D01*
X120956286Y-63139186D01*
X120978923Y-63129810D01*
X120992691Y-63122451D01*
X120999705Y-63120323D01*
X121013140Y-63119000D01*
X121326860Y-63119000D01*
X121340295Y-63120323D01*
X121347309Y-63122451D01*
X121361077Y-63129810D01*
X121383716Y-63139187D01*
X121407749Y-63143967D01*
X121432253Y-63143967D01*
X121456286Y-63139186D01*
X121478923Y-63129810D01*
X121492691Y-63122451D01*
X121499705Y-63120323D01*
X121513140Y-63119000D01*
X121826860Y-63119000D01*
X121840295Y-63120323D01*
X121847309Y-63122451D01*
X121861077Y-63129810D01*
X121883716Y-63139187D01*
X121907749Y-63143967D01*
X121932253Y-63143967D01*
X121956286Y-63139186D01*
X121978923Y-63129810D01*
X121992691Y-63122451D01*
X121999705Y-63120323D01*
X122013140Y-63119000D01*
X122326860Y-63119000D01*
X122340295Y-63120323D01*
X122347309Y-63122451D01*
X122361077Y-63129810D01*
X122383716Y-63139187D01*
X122407749Y-63143967D01*
X122432253Y-63143967D01*
X122456286Y-63139186D01*
X122478923Y-63129810D01*
X122492691Y-63122451D01*
X122499705Y-63120323D01*
X122513140Y-63119000D01*
X122826860Y-63119000D01*
X122840295Y-63120323D01*
X122847309Y-63122451D01*
X122861077Y-63129810D01*
X122883716Y-63139187D01*
X122907749Y-63143967D01*
X122932253Y-63143967D01*
X122956286Y-63139186D01*
X122978923Y-63129810D01*
X122992691Y-63122451D01*
X122999705Y-63120323D01*
X123013140Y-63119000D01*
X123326860Y-63119000D01*
X123340295Y-63120323D01*
X123347309Y-63122451D01*
X123361077Y-63129810D01*
X123383716Y-63139187D01*
X123407749Y-63143967D01*
X123432253Y-63143967D01*
X123456286Y-63139186D01*
X123478923Y-63129810D01*
X123492691Y-63122451D01*
X123499705Y-63120323D01*
X123513140Y-63119000D01*
X123826860Y-63119000D01*
X123840295Y-63120323D01*
X123847309Y-63122451D01*
X123861077Y-63129810D01*
X123883716Y-63139187D01*
X123907749Y-63143967D01*
X123932253Y-63143967D01*
X123956286Y-63139186D01*
X123978923Y-63129810D01*
X123992691Y-63122451D01*
X123999705Y-63120323D01*
X124013140Y-63119000D01*
X124326860Y-63119000D01*
X124340295Y-63120323D01*
X124347309Y-63122451D01*
X124361077Y-63129810D01*
X124383716Y-63139187D01*
X124407749Y-63143967D01*
X124432253Y-63143967D01*
X124456286Y-63139186D01*
X124478923Y-63129810D01*
X124492691Y-63122451D01*
X124499705Y-63120323D01*
X124513140Y-63119000D01*
X124826860Y-63119000D01*
X124840295Y-63120323D01*
X124847309Y-63122451D01*
X124861077Y-63129810D01*
X124883716Y-63139187D01*
X124907749Y-63143967D01*
X124932253Y-63143967D01*
X124956286Y-63139186D01*
X124978923Y-63129810D01*
X124992691Y-63122451D01*
X124999705Y-63120323D01*
X125013140Y-63119000D01*
X125326860Y-63119000D01*
X125340295Y-63120323D01*
X125347309Y-63122451D01*
X125361077Y-63129810D01*
X125383716Y-63139187D01*
X125407749Y-63143967D01*
X125432253Y-63143967D01*
X125456286Y-63139186D01*
X125478923Y-63129810D01*
X125492691Y-63122451D01*
X125499705Y-63120323D01*
X125513140Y-63119000D01*
X125826860Y-63119000D01*
X125840295Y-63120323D01*
X125847310Y-63122451D01*
X125853776Y-63125908D01*
X125859442Y-63130558D01*
X125864092Y-63136224D01*
X125867549Y-63142690D01*
X125869677Y-63149705D01*
X125871000Y-63163140D01*
X125871000Y-65476860D01*
X125869677Y-65490295D01*
X125867549Y-65497310D01*
X125864092Y-65503776D01*
X125859442Y-65509442D01*
X125853776Y-65514092D01*
X125847310Y-65517549D01*
X125840295Y-65519677D01*
X125826860Y-65521000D01*
X125513140Y-65521000D01*
X125499705Y-65519677D01*
X125492691Y-65517549D01*
X125478923Y-65510190D01*
X125456284Y-65500813D01*
X125432251Y-65496033D01*
X125407747Y-65496033D01*
X125383714Y-65500814D01*
X125361077Y-65510190D01*
X125347309Y-65517549D01*
X125340295Y-65519677D01*
X125326860Y-65521000D01*
X125013140Y-65521000D01*
X124999705Y-65519677D01*
X124992691Y-65517549D01*
X124978923Y-65510190D01*
X124956284Y-65500813D01*
X124932251Y-65496033D01*
X124907747Y-65496033D01*
X124883714Y-65500814D01*
X124861077Y-65510190D01*
X124847309Y-65517549D01*
X124840295Y-65519677D01*
X124826860Y-65521000D01*
X124513140Y-65521000D01*
X124499705Y-65519677D01*
X124492691Y-65517549D01*
X124478923Y-65510190D01*
X124456284Y-65500813D01*
X124432251Y-65496033D01*
X124407747Y-65496033D01*
X124383714Y-65500814D01*
X124361077Y-65510190D01*
X124347309Y-65517549D01*
X124340295Y-65519677D01*
X124326860Y-65521000D01*
X124013140Y-65521000D01*
X123999705Y-65519677D01*
X123992691Y-65517549D01*
X123978923Y-65510190D01*
X123956284Y-65500813D01*
X123932251Y-65496033D01*
X123907747Y-65496033D01*
X123883714Y-65500814D01*
X123861077Y-65510190D01*
X123847309Y-65517549D01*
X123840295Y-65519677D01*
X123826860Y-65521000D01*
X123513140Y-65521000D01*
X123499705Y-65519677D01*
X123492691Y-65517549D01*
X123478923Y-65510190D01*
X123456284Y-65500813D01*
X123432251Y-65496033D01*
X123407747Y-65496033D01*
X123383714Y-65500814D01*
X123361077Y-65510190D01*
X123347309Y-65517549D01*
X123340295Y-65519677D01*
X123326860Y-65521000D01*
X123013140Y-65521000D01*
X122999705Y-65519677D01*
X122992691Y-65517549D01*
X122978923Y-65510190D01*
X122956284Y-65500813D01*
X122932251Y-65496033D01*
X122907747Y-65496033D01*
X122883714Y-65500814D01*
X122861077Y-65510190D01*
X122847309Y-65517549D01*
X122840295Y-65519677D01*
X122826860Y-65521000D01*
X122513140Y-65521000D01*
X122499705Y-65519677D01*
X122492691Y-65517549D01*
X122478923Y-65510190D01*
X122456284Y-65500813D01*
X122432251Y-65496033D01*
X122407747Y-65496033D01*
X122383714Y-65500814D01*
X122361077Y-65510190D01*
X122347309Y-65517549D01*
X122340295Y-65519677D01*
X122326860Y-65521000D01*
X122013140Y-65521000D01*
X121999705Y-65519677D01*
X121992691Y-65517549D01*
X121978923Y-65510190D01*
X121956284Y-65500813D01*
X121932251Y-65496033D01*
X121907747Y-65496033D01*
X121883714Y-65500814D01*
X121861077Y-65510190D01*
X121847309Y-65517549D01*
X121840295Y-65519677D01*
X121826860Y-65521000D01*
X121513140Y-65521000D01*
X121499705Y-65519677D01*
X121492691Y-65517549D01*
X121478923Y-65510190D01*
X121456284Y-65500813D01*
X121432251Y-65496033D01*
X121407747Y-65496033D01*
X121383714Y-65500814D01*
X121361077Y-65510190D01*
X121347309Y-65517549D01*
X121340295Y-65519677D01*
X121326860Y-65521000D01*
X121013140Y-65521000D01*
X120999705Y-65519677D01*
X120992691Y-65517549D01*
X120978923Y-65510190D01*
X120956284Y-65500813D01*
X120932251Y-65496033D01*
X120907747Y-65496033D01*
X120883714Y-65500814D01*
X120861077Y-65510190D01*
X120847309Y-65517549D01*
X120840295Y-65519677D01*
X120826860Y-65521000D01*
X120513140Y-65521000D01*
X120499705Y-65519677D01*
X120492691Y-65517549D01*
X120478923Y-65510190D01*
X120456284Y-65500813D01*
X120432251Y-65496033D01*
X120407747Y-65496033D01*
X120383714Y-65500814D01*
X120361077Y-65510190D01*
X120347309Y-65517549D01*
X120340295Y-65519677D01*
X120326860Y-65521000D01*
X120013140Y-65521000D01*
X119999705Y-65519677D01*
X119992691Y-65517549D01*
X119978923Y-65510190D01*
X119956284Y-65500813D01*
X119932251Y-65496033D01*
X119907747Y-65496033D01*
X119883714Y-65500814D01*
X119861077Y-65510190D01*
X119847309Y-65517549D01*
X119840295Y-65519677D01*
X119826860Y-65521000D01*
X119513140Y-65521000D01*
X119499705Y-65519677D01*
X119492691Y-65517549D01*
X119478923Y-65510190D01*
X119456284Y-65500813D01*
X119432251Y-65496033D01*
X119407747Y-65496033D01*
X119383714Y-65500814D01*
X119361077Y-65510190D01*
X119347309Y-65517549D01*
X119340295Y-65519677D01*
X119326860Y-65521000D01*
X119013140Y-65521000D01*
X118999705Y-65519677D01*
X118992691Y-65517549D01*
X118978923Y-65510190D01*
X118956284Y-65500813D01*
X118932251Y-65496033D01*
X118907747Y-65496033D01*
X118883714Y-65500814D01*
X118861077Y-65510190D01*
X118847309Y-65517549D01*
X118840295Y-65519677D01*
X118826860Y-65521000D01*
X118513140Y-65521000D01*
X118499705Y-65519677D01*
X118492691Y-65517549D01*
X118478923Y-65510190D01*
X118456284Y-65500813D01*
X118432251Y-65496033D01*
X118407747Y-65496033D01*
X118383714Y-65500814D01*
X118361077Y-65510190D01*
X118347309Y-65517549D01*
X118340295Y-65519677D01*
X118326860Y-65521000D01*
X118013140Y-65521000D01*
X117999705Y-65519677D01*
X117992690Y-65517549D01*
X117986224Y-65514092D01*
X117980558Y-65509442D01*
X117975908Y-65503776D01*
X117972451Y-65497310D01*
X117970323Y-65490295D01*
X117969000Y-65476860D01*
X117969000Y-63163140D01*
X117970323Y-63149705D01*
X117972451Y-63142690D01*
X117975908Y-63136224D01*
X117980558Y-63130558D01*
X117986224Y-63125908D01*
X117992690Y-63122451D01*
X117999705Y-63120323D01*
X118013140Y-63119000D01*
X118326860Y-63119000D01*
X118340295Y-63120323D01*
G37*
G36*
X129788228Y-62681703D02*
G01*
X129943100Y-62745853D01*
X130082481Y-62838985D01*
X130201015Y-62957519D01*
X130294147Y-63096900D01*
X130358297Y-63251772D01*
X130391000Y-63416184D01*
X130391000Y-63583816D01*
X130358297Y-63748228D01*
X130294147Y-63903100D01*
X130201015Y-64042481D01*
X130082481Y-64161015D01*
X129943100Y-64254147D01*
X129788228Y-64318297D01*
X129623816Y-64351000D01*
X129456184Y-64351000D01*
X129291772Y-64318297D01*
X129136900Y-64254147D01*
X128997519Y-64161015D01*
X128878985Y-64042481D01*
X128785853Y-63903100D01*
X128721703Y-63748228D01*
X128689000Y-63583816D01*
X128689000Y-63416184D01*
X128721703Y-63251772D01*
X128785853Y-63096900D01*
X128878985Y-62957519D01*
X128997519Y-62838985D01*
X129136900Y-62745853D01*
X129291772Y-62681703D01*
X129456184Y-62649000D01*
X129623816Y-62649000D01*
X129788228Y-62681703D01*
G37*
G36*
X114548228Y-62681703D02*
G01*
X114703100Y-62745853D01*
X114842481Y-62838985D01*
X114961015Y-62957519D01*
X115054147Y-63096900D01*
X115118297Y-63251772D01*
X115151000Y-63416184D01*
X115151000Y-63583816D01*
X115118297Y-63748228D01*
X115054147Y-63903100D01*
X114961015Y-64042481D01*
X114842481Y-64161015D01*
X114703100Y-64254147D01*
X114548228Y-64318297D01*
X114383816Y-64351000D01*
X114216184Y-64351000D01*
X114051772Y-64318297D01*
X113896900Y-64254147D01*
X113757519Y-64161015D01*
X113638985Y-64042481D01*
X113545853Y-63903100D01*
X113481703Y-63748228D01*
X113449000Y-63583816D01*
X113449000Y-63416184D01*
X113481703Y-63251772D01*
X113545853Y-63096900D01*
X113638985Y-62957519D01*
X113757519Y-62838985D01*
X113896900Y-62745853D01*
X114051772Y-62681703D01*
X114216184Y-62649000D01*
X114383816Y-62649000D01*
X114548228Y-62681703D01*
G37*
G36*
X129788228Y-60141703D02*
G01*
X129943100Y-60205853D01*
X130082481Y-60298985D01*
X130201015Y-60417519D01*
X130294147Y-60556900D01*
X130358297Y-60711772D01*
X130391000Y-60876184D01*
X130391000Y-61043816D01*
X130358297Y-61208228D01*
X130294147Y-61363100D01*
X130201015Y-61502481D01*
X130082481Y-61621015D01*
X129943100Y-61714147D01*
X129788228Y-61778297D01*
X129623816Y-61811000D01*
X129456184Y-61811000D01*
X129291772Y-61778297D01*
X129136900Y-61714147D01*
X128997519Y-61621015D01*
X128878985Y-61502481D01*
X128785853Y-61363100D01*
X128721703Y-61208228D01*
X128689000Y-61043816D01*
X128689000Y-60876184D01*
X128721703Y-60711772D01*
X128785853Y-60556900D01*
X128878985Y-60417519D01*
X128997519Y-60298985D01*
X129136900Y-60205853D01*
X129291772Y-60141703D01*
X129456184Y-60109000D01*
X129623816Y-60109000D01*
X129788228Y-60141703D01*
G37*
G36*
X114548228Y-60141703D02*
G01*
X114703100Y-60205853D01*
X114842481Y-60298985D01*
X114961015Y-60417519D01*
X115054147Y-60556900D01*
X115118297Y-60711772D01*
X115151000Y-60876184D01*
X115151000Y-61043816D01*
X115118297Y-61208228D01*
X115054147Y-61363100D01*
X114961015Y-61502481D01*
X114842481Y-61621015D01*
X114703100Y-61714147D01*
X114548228Y-61778297D01*
X114383816Y-61811000D01*
X114216184Y-61811000D01*
X114051772Y-61778297D01*
X113896900Y-61714147D01*
X113757519Y-61621015D01*
X113638985Y-61502481D01*
X113545853Y-61363100D01*
X113481703Y-61208228D01*
X113449000Y-61043816D01*
X113449000Y-60876184D01*
X113481703Y-60711772D01*
X113545853Y-60556900D01*
X113638985Y-60417519D01*
X113757519Y-60298985D01*
X113896900Y-60205853D01*
X114051772Y-60141703D01*
X114216184Y-60109000D01*
X114383816Y-60109000D01*
X114548228Y-60141703D01*
G37*
G36*
X122080721Y-60430174D02*
G01*
X122180995Y-60471709D01*
X122180996Y-60471710D01*
X122271242Y-60532010D01*
X122347990Y-60608758D01*
X122347991Y-60608760D01*
X122408291Y-60699005D01*
X122449826Y-60799279D01*
X122471000Y-60905730D01*
X122471000Y-61014270D01*
X122449826Y-61120721D01*
X122408291Y-61220995D01*
X122408290Y-61220996D01*
X122347990Y-61311242D01*
X122271242Y-61387990D01*
X122225812Y-61418345D01*
X122180995Y-61448291D01*
X122080721Y-61489826D01*
X121974270Y-61511000D01*
X121865730Y-61511000D01*
X121759279Y-61489826D01*
X121659005Y-61448291D01*
X121614188Y-61418345D01*
X121568758Y-61387990D01*
X121492010Y-61311242D01*
X121431710Y-61220996D01*
X121431709Y-61220995D01*
X121390174Y-61120721D01*
X121369000Y-61014270D01*
X121369000Y-60905730D01*
X121390174Y-60799279D01*
X121431709Y-60699005D01*
X121492009Y-60608760D01*
X121492010Y-60608758D01*
X121568758Y-60532010D01*
X121659004Y-60471710D01*
X121659005Y-60471709D01*
X121759279Y-60430174D01*
X121865730Y-60409000D01*
X121974270Y-60409000D01*
X122080721Y-60430174D01*
G37*
G36*
X124620721Y-60430174D02*
G01*
X124720995Y-60471709D01*
X124720996Y-60471710D01*
X124811242Y-60532010D01*
X124887990Y-60608758D01*
X124887991Y-60608760D01*
X124948291Y-60699005D01*
X124989826Y-60799279D01*
X125011000Y-60905730D01*
X125011000Y-61014270D01*
X124989826Y-61120721D01*
X124948291Y-61220995D01*
X124948290Y-61220996D01*
X124887990Y-61311242D01*
X124811242Y-61387990D01*
X124765812Y-61418345D01*
X124720995Y-61448291D01*
X124620721Y-61489826D01*
X124514270Y-61511000D01*
X124405730Y-61511000D01*
X124299279Y-61489826D01*
X124199005Y-61448291D01*
X124154188Y-61418345D01*
X124108758Y-61387990D01*
X124032010Y-61311242D01*
X123971710Y-61220996D01*
X123971709Y-61220995D01*
X123930174Y-61120721D01*
X123909000Y-61014270D01*
X123909000Y-60905730D01*
X123930174Y-60799279D01*
X123971709Y-60699005D01*
X124032009Y-60608760D01*
X124032010Y-60608758D01*
X124108758Y-60532010D01*
X124199004Y-60471710D01*
X124199005Y-60471709D01*
X124299279Y-60430174D01*
X124405730Y-60409000D01*
X124514270Y-60409000D01*
X124620721Y-60430174D01*
G37*
G36*
X119540721Y-60430174D02*
G01*
X119640995Y-60471709D01*
X119640996Y-60471710D01*
X119731242Y-60532010D01*
X119807990Y-60608758D01*
X119807991Y-60608760D01*
X119868291Y-60699005D01*
X119909826Y-60799279D01*
X119931000Y-60905730D01*
X119931000Y-61014270D01*
X119909826Y-61120721D01*
X119868291Y-61220995D01*
X119868290Y-61220996D01*
X119807990Y-61311242D01*
X119731242Y-61387990D01*
X119685812Y-61418345D01*
X119640995Y-61448291D01*
X119540721Y-61489826D01*
X119434270Y-61511000D01*
X119325730Y-61511000D01*
X119219279Y-61489826D01*
X119119005Y-61448291D01*
X119074188Y-61418345D01*
X119028758Y-61387990D01*
X118952010Y-61311242D01*
X118891710Y-61220996D01*
X118891709Y-61220995D01*
X118850174Y-61120721D01*
X118829000Y-61014270D01*
X118829000Y-60905730D01*
X118850174Y-60799279D01*
X118891709Y-60699005D01*
X118952009Y-60608760D01*
X118952010Y-60608758D01*
X119028758Y-60532010D01*
X119119004Y-60471710D01*
X119119005Y-60471709D01*
X119219279Y-60430174D01*
X119325730Y-60409000D01*
X119434270Y-60409000D01*
X119540721Y-60430174D01*
G37*
G36*
X129788228Y-57601703D02*
G01*
X129943100Y-57665853D01*
X130082481Y-57758985D01*
X130201015Y-57877519D01*
X130294147Y-58016900D01*
X130358297Y-58171772D01*
X130391000Y-58336184D01*
X130391000Y-58503816D01*
X130358297Y-58668228D01*
X130294147Y-58823100D01*
X130201015Y-58962481D01*
X130082481Y-59081015D01*
X129943100Y-59174147D01*
X129788228Y-59238297D01*
X129623816Y-59271000D01*
X129456184Y-59271000D01*
X129291772Y-59238297D01*
X129136900Y-59174147D01*
X128997519Y-59081015D01*
X128878985Y-58962481D01*
X128785853Y-58823100D01*
X128721703Y-58668228D01*
X128689000Y-58503816D01*
X128689000Y-58336184D01*
X128721703Y-58171772D01*
X128785853Y-58016900D01*
X128878985Y-57877519D01*
X128997519Y-57758985D01*
X129136900Y-57665853D01*
X129291772Y-57601703D01*
X129456184Y-57569000D01*
X129623816Y-57569000D01*
X129788228Y-57601703D01*
G37*
G36*
X114548228Y-57601703D02*
G01*
X114703100Y-57665853D01*
X114842481Y-57758985D01*
X114961015Y-57877519D01*
X115054147Y-58016900D01*
X115118297Y-58171772D01*
X115151000Y-58336184D01*
X115151000Y-58503816D01*
X115118297Y-58668228D01*
X115054147Y-58823100D01*
X114961015Y-58962481D01*
X114842481Y-59081015D01*
X114703100Y-59174147D01*
X114548228Y-59238297D01*
X114383816Y-59271000D01*
X114216184Y-59271000D01*
X114051772Y-59238297D01*
X113896900Y-59174147D01*
X113757519Y-59081015D01*
X113638985Y-58962481D01*
X113545853Y-58823100D01*
X113481703Y-58668228D01*
X113449000Y-58503816D01*
X113449000Y-58336184D01*
X113481703Y-58171772D01*
X113545853Y-58016900D01*
X113638985Y-57877519D01*
X113757519Y-57758985D01*
X113896900Y-57665853D01*
X114051772Y-57601703D01*
X114216184Y-57569000D01*
X114383816Y-57569000D01*
X114548228Y-57601703D01*
G37*
G36*
X122080721Y-57890174D02*
G01*
X122180995Y-57931709D01*
X122180996Y-57931710D01*
X122271242Y-57992010D01*
X122347990Y-58068758D01*
X122347991Y-58068760D01*
X122408291Y-58159005D01*
X122449826Y-58259279D01*
X122471000Y-58365730D01*
X122471000Y-58474270D01*
X122449826Y-58580721D01*
X122408291Y-58680995D01*
X122408290Y-58680996D01*
X122347990Y-58771242D01*
X122271242Y-58847990D01*
X122225812Y-58878345D01*
X122180995Y-58908291D01*
X122080721Y-58949826D01*
X121974270Y-58971000D01*
X121865730Y-58971000D01*
X121759279Y-58949826D01*
X121659005Y-58908291D01*
X121614188Y-58878345D01*
X121568758Y-58847990D01*
X121492010Y-58771242D01*
X121431710Y-58680996D01*
X121431709Y-58680995D01*
X121390174Y-58580721D01*
X121369000Y-58474270D01*
X121369000Y-58365730D01*
X121390174Y-58259279D01*
X121431709Y-58159005D01*
X121492009Y-58068760D01*
X121492010Y-58068758D01*
X121568758Y-57992010D01*
X121659004Y-57931710D01*
X121659005Y-57931709D01*
X121759279Y-57890174D01*
X121865730Y-57869000D01*
X121974270Y-57869000D01*
X122080721Y-57890174D01*
G37*
G36*
X119540721Y-57890174D02*
G01*
X119640995Y-57931709D01*
X119640996Y-57931710D01*
X119731242Y-57992010D01*
X119807990Y-58068758D01*
X119807991Y-58068760D01*
X119868291Y-58159005D01*
X119909826Y-58259279D01*
X119931000Y-58365730D01*
X119931000Y-58474270D01*
X119909826Y-58580721D01*
X119868291Y-58680995D01*
X119868290Y-58680996D01*
X119807990Y-58771242D01*
X119731242Y-58847990D01*
X119685812Y-58878345D01*
X119640995Y-58908291D01*
X119540721Y-58949826D01*
X119434270Y-58971000D01*
X119325730Y-58971000D01*
X119219279Y-58949826D01*
X119119005Y-58908291D01*
X119074188Y-58878345D01*
X119028758Y-58847990D01*
X118952010Y-58771242D01*
X118891710Y-58680996D01*
X118891709Y-58680995D01*
X118850174Y-58580721D01*
X118829000Y-58474270D01*
X118829000Y-58365730D01*
X118850174Y-58259279D01*
X118891709Y-58159005D01*
X118952009Y-58068760D01*
X118952010Y-58068758D01*
X119028758Y-57992010D01*
X119119004Y-57931710D01*
X119119005Y-57931709D01*
X119219279Y-57890174D01*
X119325730Y-57869000D01*
X119434270Y-57869000D01*
X119540721Y-57890174D01*
G37*
G36*
X124620721Y-57890174D02*
G01*
X124720995Y-57931709D01*
X124720996Y-57931710D01*
X124811242Y-57992010D01*
X124887990Y-58068758D01*
X124887991Y-58068760D01*
X124948291Y-58159005D01*
X124989826Y-58259279D01*
X125011000Y-58365730D01*
X125011000Y-58474270D01*
X124989826Y-58580721D01*
X124948291Y-58680995D01*
X124948290Y-58680996D01*
X124887990Y-58771242D01*
X124811242Y-58847990D01*
X124765812Y-58878345D01*
X124720995Y-58908291D01*
X124620721Y-58949826D01*
X124514270Y-58971000D01*
X124405730Y-58971000D01*
X124299279Y-58949826D01*
X124199005Y-58908291D01*
X124154188Y-58878345D01*
X124108758Y-58847990D01*
X124032010Y-58771242D01*
X123971710Y-58680996D01*
X123971709Y-58680995D01*
X123930174Y-58580721D01*
X123909000Y-58474270D01*
X123909000Y-58365730D01*
X123930174Y-58259279D01*
X123971709Y-58159005D01*
X124032009Y-58068760D01*
X124032010Y-58068758D01*
X124108758Y-57992010D01*
X124199004Y-57931710D01*
X124199005Y-57931709D01*
X124299279Y-57890174D01*
X124405730Y-57869000D01*
X124514270Y-57869000D01*
X124620721Y-57890174D01*
G37*
G36*
X129788228Y-55061703D02*
G01*
X129943100Y-55125853D01*
X130082481Y-55218985D01*
X130201015Y-55337519D01*
X130294147Y-55476900D01*
X130358297Y-55631772D01*
X130391000Y-55796184D01*
X130391000Y-55963816D01*
X130358297Y-56128228D01*
X130294147Y-56283100D01*
X130201015Y-56422481D01*
X130082481Y-56541015D01*
X129943100Y-56634147D01*
X129788228Y-56698297D01*
X129623816Y-56731000D01*
X129456184Y-56731000D01*
X129291772Y-56698297D01*
X129136900Y-56634147D01*
X128997519Y-56541015D01*
X128878985Y-56422481D01*
X128785853Y-56283100D01*
X128721703Y-56128228D01*
X128689000Y-55963816D01*
X128689000Y-55796184D01*
X128721703Y-55631772D01*
X128785853Y-55476900D01*
X128878985Y-55337519D01*
X128997519Y-55218985D01*
X129136900Y-55125853D01*
X129291772Y-55061703D01*
X129456184Y-55029000D01*
X129623816Y-55029000D01*
X129788228Y-55061703D01*
G37*
G36*
X114548228Y-55061703D02*
G01*
X114703100Y-55125853D01*
X114842481Y-55218985D01*
X114961015Y-55337519D01*
X115054147Y-55476900D01*
X115118297Y-55631772D01*
X115151000Y-55796184D01*
X115151000Y-55963816D01*
X115118297Y-56128228D01*
X115054147Y-56283100D01*
X114961015Y-56422481D01*
X114842481Y-56541015D01*
X114703100Y-56634147D01*
X114548228Y-56698297D01*
X114383816Y-56731000D01*
X114216184Y-56731000D01*
X114051772Y-56698297D01*
X113896900Y-56634147D01*
X113757519Y-56541015D01*
X113638985Y-56422481D01*
X113545853Y-56283100D01*
X113481703Y-56128228D01*
X113449000Y-55963816D01*
X113449000Y-55796184D01*
X113481703Y-55631772D01*
X113545853Y-55476900D01*
X113638985Y-55337519D01*
X113757519Y-55218985D01*
X113896900Y-55125853D01*
X114051772Y-55061703D01*
X114216184Y-55029000D01*
X114383816Y-55029000D01*
X114548228Y-55061703D01*
G37*
G36*
X125326000Y-56596000D02*
G01*
X123974000Y-56596000D01*
X123974000Y-55694000D01*
X125326000Y-55694000D01*
X125326000Y-56596000D01*
G37*
G36*
X123676000Y-56596000D02*
G01*
X122324000Y-56596000D01*
X122324000Y-55694000D01*
X123676000Y-55694000D01*
X123676000Y-56596000D01*
G37*
G36*
X121516000Y-56596000D02*
G01*
X120164000Y-56596000D01*
X120164000Y-55694000D01*
X121516000Y-55694000D01*
X121516000Y-56596000D01*
G37*
G36*
X119866000Y-56596000D02*
G01*
X118514000Y-56596000D01*
X118514000Y-55694000D01*
X119866000Y-55694000D01*
X119866000Y-56596000D01*
G37*
G36*
X127113512Y-53713927D02*
G01*
X127262812Y-53743624D01*
X127426784Y-53811544D01*
X127574354Y-53910147D01*
X127699853Y-54035646D01*
X127798456Y-54183216D01*
X127866376Y-54347188D01*
X127901000Y-54521259D01*
X127901000Y-54698741D01*
X127866376Y-54872812D01*
X127798456Y-55036784D01*
X127699853Y-55184354D01*
X127574354Y-55309853D01*
X127426784Y-55408456D01*
X127262812Y-55476376D01*
X127113512Y-55506073D01*
X127088742Y-55511000D01*
X126911258Y-55511000D01*
X126886488Y-55506073D01*
X126737188Y-55476376D01*
X126573216Y-55408456D01*
X126425646Y-55309853D01*
X126300147Y-55184354D01*
X126201544Y-55036784D01*
X126133624Y-54872812D01*
X126099000Y-54698741D01*
X126099000Y-54521259D01*
X126133624Y-54347188D01*
X126201544Y-54183216D01*
X126300147Y-54035646D01*
X126425646Y-53910147D01*
X126573216Y-53811544D01*
X126737188Y-53743624D01*
X126886488Y-53713927D01*
X126911258Y-53709000D01*
X127088742Y-53709000D01*
X127113512Y-53713927D01*
G37*
G36*
X116953512Y-53713927D02*
G01*
X117102812Y-53743624D01*
X117266784Y-53811544D01*
X117414354Y-53910147D01*
X117539853Y-54035646D01*
X117638456Y-54183216D01*
X117706376Y-54347188D01*
X117741000Y-54521259D01*
X117741000Y-54698741D01*
X117706376Y-54872812D01*
X117638456Y-55036784D01*
X117539853Y-55184354D01*
X117414354Y-55309853D01*
X117266784Y-55408456D01*
X117102812Y-55476376D01*
X116953512Y-55506073D01*
X116928742Y-55511000D01*
X116751258Y-55511000D01*
X116726488Y-55506073D01*
X116577188Y-55476376D01*
X116413216Y-55408456D01*
X116265646Y-55309853D01*
X116140147Y-55184354D01*
X116041544Y-55036784D01*
X115973624Y-54872812D01*
X115939000Y-54698741D01*
X115939000Y-54521259D01*
X115973624Y-54347188D01*
X116041544Y-54183216D01*
X116140147Y-54035646D01*
X116265646Y-53910147D01*
X116413216Y-53811544D01*
X116577188Y-53743624D01*
X116726488Y-53713927D01*
X116751258Y-53709000D01*
X116928742Y-53709000D01*
X116953512Y-53713927D01*
G37*
G36*
X119866000Y-54796000D02*
G01*
X118514000Y-54796000D01*
X118514000Y-53894000D01*
X119866000Y-53894000D01*
X119866000Y-54796000D01*
G37*
G36*
X121516000Y-54796000D02*
G01*
X120164000Y-54796000D01*
X120164000Y-53894000D01*
X121516000Y-53894000D01*
X121516000Y-54796000D01*
G37*
G36*
X123676000Y-54796000D02*
G01*
X122324000Y-54796000D01*
X122324000Y-53894000D01*
X123676000Y-53894000D01*
X123676000Y-54796000D01*
G37*
G36*
X125326000Y-54796000D02*
G01*
X123974000Y-54796000D01*
X123974000Y-53894000D01*
X125326000Y-53894000D01*
X125326000Y-54796000D01*
G37*
G36*
X114548228Y-52521703D02*
G01*
X114703100Y-52585853D01*
X114842481Y-52678985D01*
X114961015Y-52797519D01*
X115054147Y-52936900D01*
X115118297Y-53091772D01*
X115151000Y-53256184D01*
X115151000Y-53423816D01*
X115118297Y-53588228D01*
X115054147Y-53743100D01*
X114961015Y-53882481D01*
X114842481Y-54001015D01*
X114703100Y-54094147D01*
X114548228Y-54158297D01*
X114383816Y-54191000D01*
X114216184Y-54191000D01*
X114051772Y-54158297D01*
X113896900Y-54094147D01*
X113757519Y-54001015D01*
X113638985Y-53882481D01*
X113545853Y-53743100D01*
X113481703Y-53588228D01*
X113449000Y-53423816D01*
X113449000Y-53256184D01*
X113481703Y-53091772D01*
X113545853Y-52936900D01*
X113638985Y-52797519D01*
X113757519Y-52678985D01*
X113896900Y-52585853D01*
X114051772Y-52521703D01*
X114216184Y-52489000D01*
X114383816Y-52489000D01*
X114548228Y-52521703D01*
G37*
G36*
X129788228Y-52521703D02*
G01*
X129943100Y-52585853D01*
X130082481Y-52678985D01*
X130201015Y-52797519D01*
X130294147Y-52936900D01*
X130358297Y-53091772D01*
X130391000Y-53256184D01*
X130391000Y-53423816D01*
X130358297Y-53588228D01*
X130294147Y-53743100D01*
X130201015Y-53882481D01*
X130082481Y-54001015D01*
X129943100Y-54094147D01*
X129788228Y-54158297D01*
X129623816Y-54191000D01*
X129456184Y-54191000D01*
X129291772Y-54158297D01*
X129136900Y-54094147D01*
X128997519Y-54001015D01*
X128878985Y-53882481D01*
X128785853Y-53743100D01*
X128721703Y-53588228D01*
X128689000Y-53423816D01*
X128689000Y-53256184D01*
X128721703Y-53091772D01*
X128785853Y-52936900D01*
X128878985Y-52797519D01*
X128997519Y-52678985D01*
X129136900Y-52585853D01*
X129291772Y-52521703D01*
X129456184Y-52489000D01*
X129623816Y-52489000D01*
X129788228Y-52521703D01*
G37*
G36*
X116953512Y-51173927D02*
G01*
X117102812Y-51203624D01*
X117266784Y-51271544D01*
X117414354Y-51370147D01*
X117539853Y-51495646D01*
X117638456Y-51643216D01*
X117706376Y-51807188D01*
X117741000Y-51981259D01*
X117741000Y-52158741D01*
X117706376Y-52332812D01*
X117638456Y-52496784D01*
X117539853Y-52644354D01*
X117414354Y-52769853D01*
X117266784Y-52868456D01*
X117102812Y-52936376D01*
X116953512Y-52966073D01*
X116928742Y-52971000D01*
X116751258Y-52971000D01*
X116726488Y-52966073D01*
X116577188Y-52936376D01*
X116413216Y-52868456D01*
X116265646Y-52769853D01*
X116140147Y-52644354D01*
X116041544Y-52496784D01*
X115973624Y-52332812D01*
X115939000Y-52158741D01*
X115939000Y-51981259D01*
X115973624Y-51807188D01*
X116041544Y-51643216D01*
X116140147Y-51495646D01*
X116265646Y-51370147D01*
X116413216Y-51271544D01*
X116577188Y-51203624D01*
X116726488Y-51173927D01*
X116751258Y-51169000D01*
X116928742Y-51169000D01*
X116953512Y-51173927D01*
G37*
G36*
X119493512Y-51173927D02*
G01*
X119642812Y-51203624D01*
X119806784Y-51271544D01*
X119954354Y-51370147D01*
X120079853Y-51495646D01*
X120178456Y-51643216D01*
X120246376Y-51807188D01*
X120281000Y-51981259D01*
X120281000Y-52158741D01*
X120246376Y-52332812D01*
X120178456Y-52496784D01*
X120079853Y-52644354D01*
X119954354Y-52769853D01*
X119806784Y-52868456D01*
X119642812Y-52936376D01*
X119493512Y-52966073D01*
X119468742Y-52971000D01*
X119291258Y-52971000D01*
X119266488Y-52966073D01*
X119117188Y-52936376D01*
X118953216Y-52868456D01*
X118805646Y-52769853D01*
X118680147Y-52644354D01*
X118581544Y-52496784D01*
X118513624Y-52332812D01*
X118479000Y-52158741D01*
X118479000Y-51981259D01*
X118513624Y-51807188D01*
X118581544Y-51643216D01*
X118680147Y-51495646D01*
X118805646Y-51370147D01*
X118953216Y-51271544D01*
X119117188Y-51203624D01*
X119266488Y-51173927D01*
X119291258Y-51169000D01*
X119468742Y-51169000D01*
X119493512Y-51173927D01*
G37*
G36*
X122033512Y-51173927D02*
G01*
X122182812Y-51203624D01*
X122346784Y-51271544D01*
X122494354Y-51370147D01*
X122619853Y-51495646D01*
X122718456Y-51643216D01*
X122786376Y-51807188D01*
X122821000Y-51981259D01*
X122821000Y-52158741D01*
X122786376Y-52332812D01*
X122718456Y-52496784D01*
X122619853Y-52644354D01*
X122494354Y-52769853D01*
X122346784Y-52868456D01*
X122182812Y-52936376D01*
X122033512Y-52966073D01*
X122008742Y-52971000D01*
X121831258Y-52971000D01*
X121806488Y-52966073D01*
X121657188Y-52936376D01*
X121493216Y-52868456D01*
X121345646Y-52769853D01*
X121220147Y-52644354D01*
X121121544Y-52496784D01*
X121053624Y-52332812D01*
X121019000Y-52158741D01*
X121019000Y-51981259D01*
X121053624Y-51807188D01*
X121121544Y-51643216D01*
X121220147Y-51495646D01*
X121345646Y-51370147D01*
X121493216Y-51271544D01*
X121657188Y-51203624D01*
X121806488Y-51173927D01*
X121831258Y-51169000D01*
X122008742Y-51169000D01*
X122033512Y-51173927D01*
G37*
G36*
X124573512Y-51173927D02*
G01*
X124722812Y-51203624D01*
X124886784Y-51271544D01*
X125034354Y-51370147D01*
X125159853Y-51495646D01*
X125258456Y-51643216D01*
X125326376Y-51807188D01*
X125361000Y-51981259D01*
X125361000Y-52158741D01*
X125326376Y-52332812D01*
X125258456Y-52496784D01*
X125159853Y-52644354D01*
X125034354Y-52769853D01*
X124886784Y-52868456D01*
X124722812Y-52936376D01*
X124573512Y-52966073D01*
X124548742Y-52971000D01*
X124371258Y-52971000D01*
X124346488Y-52966073D01*
X124197188Y-52936376D01*
X124033216Y-52868456D01*
X123885646Y-52769853D01*
X123760147Y-52644354D01*
X123661544Y-52496784D01*
X123593624Y-52332812D01*
X123559000Y-52158741D01*
X123559000Y-51981259D01*
X123593624Y-51807188D01*
X123661544Y-51643216D01*
X123760147Y-51495646D01*
X123885646Y-51370147D01*
X124033216Y-51271544D01*
X124197188Y-51203624D01*
X124346488Y-51173927D01*
X124371258Y-51169000D01*
X124548742Y-51169000D01*
X124573512Y-51173927D01*
G37*
G36*
X127113512Y-51173927D02*
G01*
X127262812Y-51203624D01*
X127426784Y-51271544D01*
X127574354Y-51370147D01*
X127699853Y-51495646D01*
X127798456Y-51643216D01*
X127866376Y-51807188D01*
X127901000Y-51981259D01*
X127901000Y-52158741D01*
X127866376Y-52332812D01*
X127798456Y-52496784D01*
X127699853Y-52644354D01*
X127574354Y-52769853D01*
X127426784Y-52868456D01*
X127262812Y-52936376D01*
X127113512Y-52966073D01*
X127088742Y-52971000D01*
X126911258Y-52971000D01*
X126886488Y-52966073D01*
X126737188Y-52936376D01*
X126573216Y-52868456D01*
X126425646Y-52769853D01*
X126300147Y-52644354D01*
X126201544Y-52496784D01*
X126133624Y-52332812D01*
X126099000Y-52158741D01*
X126099000Y-51981259D01*
X126133624Y-51807188D01*
X126201544Y-51643216D01*
X126300147Y-51495646D01*
X126425646Y-51370147D01*
X126573216Y-51271544D01*
X126737188Y-51203624D01*
X126886488Y-51173927D01*
X126911258Y-51169000D01*
X127088742Y-51169000D01*
X127113512Y-51173927D01*
G37*
G36*
X115151000Y-51651000D02*
G01*
X113449000Y-51651000D01*
X113449000Y-49949000D01*
X115151000Y-49949000D01*
X115151000Y-51651000D01*
G37*
G36*
X129788228Y-49981703D02*
G01*
X129943100Y-50045853D01*
X130082481Y-50138985D01*
X130201015Y-50257519D01*
X130294147Y-50396900D01*
X130358297Y-50551772D01*
X130391000Y-50716184D01*
X130391000Y-50883816D01*
X130358297Y-51048228D01*
X130294147Y-51203100D01*
X130201015Y-51342481D01*
X130082481Y-51461015D01*
X129943100Y-51554147D01*
X129788228Y-51618297D01*
X129623816Y-51651000D01*
X129456184Y-51651000D01*
X129291772Y-51618297D01*
X129136900Y-51554147D01*
X128997519Y-51461015D01*
X128878985Y-51342481D01*
X128785853Y-51203100D01*
X128721703Y-51048228D01*
X128689000Y-50883816D01*
X128689000Y-50716184D01*
X128721703Y-50551772D01*
X128785853Y-50396900D01*
X128878985Y-50257519D01*
X128997519Y-50138985D01*
X129136900Y-50045853D01*
X129291772Y-49981703D01*
X129456184Y-49949000D01*
X129623816Y-49949000D01*
X129788228Y-49981703D01*
G37*
M02*
