%TF.GenerationSoftware,KiCad,Pcbnew,(5.1.5-0-10_14)*%
%TF.CreationDate,2021-03-11T16:13:23+01:00*%
%TF.ProjectId,C64-ROM-Adapter-LB,4336342d-524f-44d2-9d41-646170746572,1.1*%
%TF.SameCoordinates,Original*%
%TF.FileFunction,Copper,L1,Top*%
%TF.FilePolarity,Positive*%
%FSLAX46Y46*%
G04 Gerber Fmt 4.6, Leading zero omitted, Abs format (unit mm)*
G04 Created by KiCad (PCBNEW (5.1.5-0-10_14)) date 2021-03-11 16:13:23*
%MOMM*%
%LPD*%
G04 APERTURE LIST*
%ADD10C,0.050000*%
%ADD11R,0.760000X1.600000*%
%ADD12O,1.600000X1.600000*%
%ADD13R,1.600000X1.600000*%
%ADD14C,1.700000*%
%ADD15C,0.400000*%
%ADD16C,0.200000*%
%ADD17C,0.508000*%
%ADD18C,0.254000*%
G04 APERTURE END LIST*
D10*
X122809000Y-48895000D02*
X130810000Y-48895000D01*
X122809000Y-48895000D02*
G75*
G02X121031000Y-48895000I-889000J0D01*
G01*
X131445000Y-80010000D02*
G75*
G02X130810000Y-80645000I-635000J0D01*
G01*
X113030000Y-80645000D02*
G75*
G02X112395000Y-80010000I0J635000D01*
G01*
X112395000Y-49530000D02*
G75*
G02X113030000Y-48895000I635000J0D01*
G01*
X130810000Y-48895000D02*
G75*
G02X131445000Y-49530000I0J-635000D01*
G01*
X112395000Y-80010000D02*
X112395000Y-49530000D01*
X130810000Y-80645000D02*
X113030000Y-80645000D01*
X131445000Y-49530000D02*
X131445000Y-80010000D01*
X113030000Y-48895000D02*
X121031000Y-48895000D01*
D11*
X118745000Y-69055000D03*
X120015000Y-69045000D03*
X121285000Y-69045000D03*
X125095000Y-75565000D03*
X122555000Y-69045000D03*
X123825000Y-75565000D03*
X123825000Y-69045000D03*
X122555000Y-75565000D03*
X125095000Y-69045000D03*
X121285000Y-75565000D03*
X120015000Y-75565000D03*
X118745000Y-75565000D03*
X118745000Y-65405000D03*
X120015000Y-65405000D03*
X121285000Y-65405000D03*
X125095000Y-58885000D03*
X122555000Y-65405000D03*
X123825000Y-58885000D03*
X123825000Y-65405000D03*
X122555000Y-58885000D03*
X125095000Y-65405000D03*
X121285000Y-58885000D03*
X120015000Y-58885000D03*
X118745000Y-58895000D03*
D12*
X129540000Y-50800000D03*
X114300000Y-78740000D03*
X129540000Y-53340000D03*
X114300000Y-76200000D03*
X129540000Y-55880000D03*
X114300000Y-73660000D03*
X129540000Y-58420000D03*
X114300000Y-71120000D03*
X129540000Y-60960000D03*
X114300000Y-68580000D03*
X129540000Y-63500000D03*
X114300000Y-66040000D03*
X129540000Y-66040000D03*
X114300000Y-63500000D03*
X129540000Y-68580000D03*
X114300000Y-60960000D03*
X129540000Y-71120000D03*
X114300000Y-58420000D03*
X129540000Y-73660000D03*
X114300000Y-55880000D03*
X129540000Y-76200000D03*
X114300000Y-53340000D03*
X129540000Y-78740000D03*
D13*
X114300000Y-50800000D03*
D14*
X116840000Y-54610000D03*
X116840000Y-52070000D03*
X119380000Y-52070000D03*
X121920000Y-52070000D03*
X124460000Y-52070000D03*
X127000000Y-52070000D03*
X127000000Y-54610000D03*
D15*
X121800000Y-79600000D03*
X126799996Y-56800000D03*
X118800000Y-69600000D03*
X126000000Y-57800000D03*
X117400000Y-57800000D03*
X118200000Y-50400000D03*
X125800000Y-50400000D03*
X126200000Y-62400000D03*
X127400000Y-74999998D03*
X127400000Y-76000000D03*
X120000000Y-69000000D03*
X120000000Y-74000000D03*
X127400000Y-77000000D03*
X116800000Y-74200000D03*
X116800000Y-73200000D03*
X116800000Y-72200000D03*
X125400000Y-73600000D03*
X116800000Y-75200000D03*
X119600000Y-56200000D03*
X122800000Y-72800000D03*
X118800000Y-56200000D03*
X123200000Y-72200000D03*
X125400000Y-66800000D03*
X128600000Y-64800000D03*
X120400000Y-56200000D03*
X120600000Y-71600000D03*
X121200000Y-56200000D03*
X119380000Y-60960000D03*
X120600000Y-70800000D03*
X122600000Y-69000000D03*
X125400000Y-67400000D03*
X123800000Y-69400000D03*
X122600000Y-56200000D03*
X121920000Y-60960000D03*
X122000000Y-70800000D03*
X123400000Y-56200000D03*
X124460000Y-60960000D03*
X121800000Y-71600000D03*
X124200000Y-56200000D03*
D16*
X123825000Y-77575000D02*
X121999999Y-79400001D01*
X121999999Y-79400001D02*
X121800000Y-79600000D01*
X123825000Y-75565000D02*
X123825000Y-77575000D01*
X125000000Y-72400000D02*
X126200000Y-72400000D01*
X123825000Y-75565000D02*
X123825000Y-73575000D01*
X123825000Y-73575000D02*
X125000000Y-72400000D01*
X126200000Y-72400000D02*
X127200000Y-71400000D01*
X127200000Y-71400000D02*
X127200000Y-57200004D01*
X127200000Y-57200004D02*
X126999995Y-56999999D01*
X126999995Y-56999999D02*
X126799996Y-56800000D01*
X123200000Y-74199996D02*
X123200004Y-74200000D01*
D17*
X118745000Y-65405000D02*
X120015000Y-65405000D01*
X120015000Y-65405000D02*
X121285000Y-65405000D01*
X121285000Y-65405000D02*
X122555000Y-65405000D01*
X122555000Y-65405000D02*
X123825000Y-65405000D01*
X123825000Y-65405000D02*
X125095000Y-65405000D01*
D16*
X128400000Y-54480000D02*
X129540000Y-53340000D01*
X128400000Y-55200000D02*
X128400000Y-54480000D01*
X127600000Y-56000000D02*
X128400000Y-55200000D01*
X127600000Y-74799998D02*
X127600000Y-56000000D01*
X127400000Y-74999998D02*
X127600000Y-74799998D01*
X127599999Y-75800001D02*
X127400000Y-76000000D01*
X128000000Y-75400000D02*
X127599999Y-75800001D01*
X128000000Y-65400000D02*
X128000000Y-75400000D01*
X128000000Y-65200000D02*
X128000000Y-65400000D01*
X128000000Y-64200000D02*
X128000000Y-65400000D01*
X128000000Y-64400000D02*
X128000000Y-64200000D01*
X128000000Y-57400000D02*
X129520000Y-55880000D01*
X129520000Y-55880000D02*
X129540000Y-55880000D01*
X128000000Y-64200000D02*
X128000000Y-57400000D01*
X121285000Y-75565000D02*
X121285000Y-74565000D01*
X120720000Y-74000000D02*
X120000000Y-74000000D01*
X121285000Y-74565000D02*
X120720000Y-74000000D01*
X129540000Y-60960000D02*
X129540000Y-60940000D01*
X128439999Y-75960001D02*
X127800000Y-76600000D01*
X128439999Y-67140001D02*
X128439999Y-75960001D01*
X129540000Y-66040000D02*
X128439999Y-67140001D01*
X127400000Y-77000000D02*
X127800000Y-76600000D01*
X116600001Y-74000001D02*
X116800000Y-74200000D01*
X114300000Y-58420000D02*
X115400001Y-59520001D01*
X115400001Y-72800001D02*
X116600001Y-74000001D01*
X115400001Y-59520001D02*
X115400001Y-72800001D01*
X114300000Y-55880000D02*
X115800012Y-57380012D01*
X115800012Y-57380012D02*
X115800012Y-72200012D01*
X115800012Y-72200012D02*
X116600001Y-73000001D01*
X116600001Y-73000001D02*
X116800000Y-73200000D01*
X114300000Y-53340000D02*
X115600000Y-54640000D01*
X115600000Y-56614302D02*
X116200023Y-57214325D01*
X115600000Y-54640000D02*
X115600000Y-56614302D01*
X116200023Y-57214325D02*
X116200023Y-71600023D01*
X116600001Y-72000001D02*
X116800000Y-72200000D01*
X116200023Y-71600023D02*
X116600001Y-72000001D01*
X127000000Y-78600000D02*
X129400000Y-78600000D01*
X126000000Y-74200000D02*
X126000000Y-77600000D01*
X129400000Y-78600000D02*
X129540000Y-78740000D01*
X126000000Y-77600000D02*
X127000000Y-78600000D01*
X125400000Y-73600000D02*
X126000000Y-74200000D01*
X114300000Y-50800000D02*
X114300000Y-51500000D01*
X113000000Y-74200000D02*
X113800001Y-75000001D01*
X114300000Y-50800000D02*
X113300000Y-50800000D01*
X113000000Y-51100000D02*
X113000000Y-74200000D01*
X113800001Y-75000001D02*
X116600001Y-75000001D01*
X113300000Y-50800000D02*
X113000000Y-51100000D01*
X116600001Y-75000001D02*
X116800000Y-75200000D01*
X119380000Y-52130000D02*
X119380000Y-52070000D01*
X119600000Y-56200000D02*
X119600000Y-57000000D01*
X120015000Y-57415000D02*
X120015000Y-58885000D01*
X119600000Y-57000000D02*
X120015000Y-57415000D01*
X119600000Y-52290000D02*
X119380000Y-52070000D01*
X119600000Y-56200000D02*
X119600000Y-52290000D01*
X118400000Y-72800000D02*
X122517158Y-72800000D01*
X116600033Y-71000033D02*
X118400000Y-72800000D01*
X119600000Y-56200000D02*
X119000000Y-55600000D01*
X122517158Y-72800000D02*
X122800000Y-72800000D01*
X119000000Y-55600000D02*
X117800000Y-55600000D01*
X117800000Y-55600000D02*
X116600033Y-56799967D01*
X116600033Y-56799967D02*
X116600033Y-71000033D01*
X118800000Y-58840000D02*
X118800000Y-56200000D01*
X118745000Y-58895000D02*
X118800000Y-58840000D01*
X118400000Y-72200000D02*
X122917158Y-72200000D01*
X117000045Y-60059955D02*
X117000045Y-70800045D01*
X117000045Y-70800045D02*
X118400000Y-72200000D01*
X118165000Y-58895000D02*
X117000045Y-60059955D01*
X122917158Y-72200000D02*
X123200000Y-72200000D01*
X118745000Y-58895000D02*
X118165000Y-58895000D01*
X121285000Y-68045000D02*
X122530000Y-66800000D01*
X121285000Y-69045000D02*
X121285000Y-68045000D01*
X122530000Y-66800000D02*
X125400000Y-66800000D01*
X128400001Y-59559999D02*
X128740001Y-59219999D01*
X128740001Y-59219999D02*
X129540000Y-58420000D01*
X128400001Y-64600001D02*
X128400001Y-59559999D01*
X128600000Y-64800000D02*
X128400001Y-64600001D01*
X121285000Y-52705000D02*
X121920000Y-52070000D01*
X120400000Y-56200000D02*
X120400000Y-57000000D01*
X121285000Y-57885000D02*
X121285000Y-58885000D01*
X120400000Y-57000000D02*
X121285000Y-57885000D01*
X117400056Y-70400056D02*
X118600000Y-71600000D01*
X118600000Y-71600000D02*
X120317158Y-71600000D01*
X117400056Y-61199944D02*
X117400056Y-70400056D01*
X120317158Y-71600000D02*
X120600000Y-71600000D01*
X120770000Y-60400000D02*
X118200000Y-60400000D01*
X121285000Y-58885000D02*
X121285000Y-59885000D01*
X121285000Y-59885000D02*
X120770000Y-60400000D01*
X118200000Y-60400000D02*
X117400056Y-61199944D01*
X121920000Y-53480000D02*
X121920000Y-52070000D01*
X120400000Y-55000000D02*
X121920000Y-53480000D01*
X120400000Y-56200000D02*
X120400000Y-55000000D01*
X125025000Y-52635000D02*
X124460000Y-52070000D01*
X120840000Y-60960000D02*
X119380000Y-60960000D01*
X121600000Y-60200000D02*
X120840000Y-60960000D01*
X122555000Y-59885000D02*
X122240000Y-60200000D01*
X122240000Y-60200000D02*
X121600000Y-60200000D01*
X122555000Y-58885000D02*
X122555000Y-59885000D01*
X122555000Y-57885000D02*
X122555000Y-58885000D01*
X121200000Y-56530000D02*
X122555000Y-57885000D01*
X121200000Y-56200000D02*
X121200000Y-56530000D01*
X120317158Y-70800000D02*
X120600000Y-70800000D01*
X118400000Y-70800000D02*
X120317158Y-70800000D01*
X117800067Y-70200067D02*
X118400000Y-70800000D01*
X117800067Y-61399933D02*
X117800067Y-70200067D01*
X118240000Y-60960000D02*
X117800067Y-61399933D01*
X119380000Y-60960000D02*
X118240000Y-60960000D01*
X124460000Y-52340000D02*
X124460000Y-52070000D01*
X121200000Y-55600000D02*
X124460000Y-52340000D01*
X121200000Y-56200000D02*
X121200000Y-55600000D01*
X122555000Y-69045000D02*
X122555000Y-68045000D01*
X122555000Y-68045000D02*
X123200000Y-67400000D01*
X123200000Y-67400000D02*
X125117158Y-67400000D01*
X125117158Y-67400000D02*
X125400000Y-67400000D01*
X122750000Y-60960000D02*
X122627106Y-60960000D01*
X123825000Y-59885000D02*
X122750000Y-60960000D01*
X122627106Y-60960000D02*
X121920000Y-60960000D01*
X123825000Y-58885000D02*
X123825000Y-59885000D01*
X122760000Y-60960000D02*
X126000000Y-64200000D01*
X122750000Y-60960000D02*
X122760000Y-60960000D01*
X126000000Y-70200000D02*
X125400000Y-70800000D01*
X125400000Y-70800000D02*
X122000000Y-70800000D01*
X126000000Y-64200000D02*
X126000000Y-70200000D01*
X127000000Y-52200000D02*
X127000000Y-52070000D01*
X123800000Y-54200000D02*
X125000000Y-54200000D01*
X125000000Y-54200000D02*
X127000000Y-52200000D01*
X122600000Y-55400000D02*
X123800000Y-54200000D01*
X122600000Y-56200000D02*
X122600000Y-55400000D01*
X123825000Y-57885000D02*
X123825000Y-58885000D01*
X123200000Y-57200000D02*
X123825000Y-57885000D01*
X122600000Y-56600000D02*
X123200000Y-57200000D01*
X122600000Y-56200000D02*
X122600000Y-56600000D01*
X125095000Y-60325000D02*
X125095000Y-58885000D01*
X124460000Y-60960000D02*
X125095000Y-60325000D01*
X124990000Y-54610000D02*
X127000000Y-54610000D01*
X123400000Y-56200000D02*
X123400000Y-55400000D01*
X124200000Y-54600000D02*
X125000000Y-54600000D01*
X123400000Y-55400000D02*
X124200000Y-54600000D01*
X125000000Y-54600000D02*
X124990000Y-54610000D01*
X122082842Y-71600000D02*
X121800000Y-71600000D01*
X126400000Y-71000000D02*
X125800000Y-71600000D01*
X125800000Y-71600000D02*
X122082842Y-71600000D01*
X126400000Y-64000000D02*
X126400000Y-71000000D01*
X124460000Y-62060000D02*
X126400000Y-64000000D01*
X124460000Y-60960000D02*
X124460000Y-62060000D01*
X125095000Y-58095000D02*
X125095000Y-58885000D01*
X123400000Y-56400000D02*
X125095000Y-58095000D01*
X123400000Y-56200000D02*
X123400000Y-56400000D01*
D17*
X118745000Y-75565000D02*
X120015000Y-75565000D01*
D16*
X118745000Y-74565000D02*
X118745000Y-75565000D01*
X118745000Y-74114998D02*
X118745000Y-74565000D01*
X119459998Y-73400000D02*
X118745000Y-74114998D01*
X126800000Y-71200000D02*
X126000000Y-72000000D01*
X123400000Y-73400000D02*
X119459998Y-73400000D01*
X124800000Y-72000000D02*
X123400000Y-73400000D01*
X126000000Y-72000000D02*
X124800000Y-72000000D01*
X126800000Y-57600000D02*
X126800000Y-71200000D01*
X125400000Y-56200000D02*
X126800000Y-57600000D01*
X124200000Y-56200000D02*
X125400000Y-56200000D01*
D18*
G36*
X120715894Y-49367977D02*
G01*
X120730406Y-49401837D01*
X120744412Y-49435817D01*
X120747106Y-49440801D01*
X120747108Y-49440806D01*
X120747111Y-49440810D01*
X120830693Y-49592847D01*
X120851499Y-49623234D01*
X120871847Y-49653860D01*
X120875460Y-49658228D01*
X120986985Y-49791138D01*
X121013306Y-49816914D01*
X121039205Y-49842994D01*
X121043598Y-49846578D01*
X121178815Y-49955294D01*
X121209607Y-49975444D01*
X121240113Y-49996020D01*
X121245118Y-49998682D01*
X121398877Y-50079065D01*
X121433040Y-50092868D01*
X121466917Y-50107108D01*
X121472338Y-50108745D01*
X121472345Y-50108748D01*
X121472352Y-50108749D01*
X121638787Y-50157734D01*
X121674957Y-50164634D01*
X121710979Y-50172028D01*
X121716619Y-50172582D01*
X121716621Y-50172582D01*
X121889409Y-50188307D01*
X121926206Y-50188050D01*
X121963003Y-50188307D01*
X121968645Y-50187754D01*
X122141196Y-50169618D01*
X122177262Y-50162215D01*
X122213388Y-50155323D01*
X122218815Y-50153685D01*
X122384558Y-50102379D01*
X122418521Y-50088102D01*
X122452599Y-50074334D01*
X122457600Y-50071676D01*
X122457604Y-50071674D01*
X122457607Y-50071672D01*
X122610225Y-49989151D01*
X122640737Y-49968571D01*
X122671522Y-49948426D01*
X122675910Y-49944847D01*
X122675916Y-49944843D01*
X122675921Y-49944838D01*
X122809601Y-49834249D01*
X122835553Y-49808116D01*
X122861821Y-49782392D01*
X122865430Y-49778030D01*
X122865435Y-49778025D01*
X122865439Y-49778020D01*
X122975094Y-49643569D01*
X122995478Y-49612889D01*
X123016247Y-49582557D01*
X123018941Y-49577575D01*
X123018944Y-49577571D01*
X123018946Y-49577567D01*
X123100398Y-49424377D01*
X123114420Y-49390356D01*
X123128916Y-49356535D01*
X123130593Y-49351119D01*
X123145725Y-49301000D01*
X130790149Y-49301000D01*
X130854099Y-49307270D01*
X130896524Y-49320079D01*
X130935647Y-49340881D01*
X130969987Y-49368888D01*
X130998235Y-49403034D01*
X131019312Y-49442016D01*
X131032415Y-49484343D01*
X131039000Y-49546992D01*
X131039001Y-79990130D01*
X131032730Y-80054100D01*
X131019921Y-80096523D01*
X130999119Y-80135647D01*
X130971110Y-80169989D01*
X130936966Y-80198235D01*
X130897984Y-80219312D01*
X130855657Y-80232415D01*
X130793008Y-80239000D01*
X113049860Y-80239000D01*
X112985900Y-80232730D01*
X112943477Y-80219921D01*
X112904353Y-80199119D01*
X112870011Y-80171110D01*
X112841765Y-80136966D01*
X112820688Y-80097984D01*
X112807585Y-80055657D01*
X112801000Y-79993008D01*
X112801000Y-79049114D01*
X113160171Y-79049114D01*
X113180527Y-79116239D01*
X113275438Y-79327408D01*
X113409722Y-79516003D01*
X113578219Y-79674777D01*
X113774454Y-79797628D01*
X113990885Y-79879835D01*
X114173000Y-79818908D01*
X114173000Y-78867000D01*
X114427000Y-78867000D01*
X114427000Y-79818908D01*
X114609115Y-79879835D01*
X114825546Y-79797628D01*
X115021781Y-79674777D01*
X115190278Y-79516003D01*
X115324562Y-79327408D01*
X115419473Y-79116239D01*
X115439829Y-79049114D01*
X115378297Y-78867000D01*
X114427000Y-78867000D01*
X114173000Y-78867000D01*
X113221703Y-78867000D01*
X113160171Y-79049114D01*
X112801000Y-79049114D01*
X112801000Y-78430886D01*
X113160171Y-78430886D01*
X113221703Y-78613000D01*
X114173000Y-78613000D01*
X114173000Y-77661092D01*
X114427000Y-77661092D01*
X114427000Y-78613000D01*
X115378297Y-78613000D01*
X115439829Y-78430886D01*
X115419473Y-78363761D01*
X115324562Y-78152592D01*
X115190278Y-77963997D01*
X115021781Y-77805223D01*
X114825546Y-77682372D01*
X114609115Y-77600165D01*
X114427000Y-77661092D01*
X114173000Y-77661092D01*
X113990885Y-77600165D01*
X113774454Y-77682372D01*
X113578219Y-77805223D01*
X113409722Y-77963997D01*
X113275438Y-78152592D01*
X113180527Y-78363761D01*
X113160171Y-78430886D01*
X112801000Y-78430886D01*
X112801000Y-74681236D01*
X113443175Y-75323412D01*
X113458237Y-75341765D01*
X113474612Y-75355203D01*
X113382658Y-75447157D01*
X113253412Y-75640587D01*
X113164386Y-75855515D01*
X113119000Y-76083682D01*
X113119000Y-76316318D01*
X113164386Y-76544485D01*
X113253412Y-76759413D01*
X113382658Y-76952843D01*
X113547157Y-77117342D01*
X113740587Y-77246588D01*
X113955515Y-77335614D01*
X114183682Y-77381000D01*
X114416318Y-77381000D01*
X114644485Y-77335614D01*
X114859413Y-77246588D01*
X115052843Y-77117342D01*
X115217342Y-76952843D01*
X115346588Y-76759413D01*
X115435614Y-76544485D01*
X115481000Y-76316318D01*
X115481000Y-76083682D01*
X115435614Y-75855515D01*
X115346588Y-75640587D01*
X115239956Y-75481001D01*
X116288996Y-75481001D01*
X116348708Y-75570366D01*
X116429634Y-75651292D01*
X116524793Y-75714875D01*
X116630529Y-75758672D01*
X116742777Y-75781000D01*
X116857223Y-75781000D01*
X116969471Y-75758672D01*
X117075207Y-75714875D01*
X117170366Y-75651292D01*
X117251292Y-75570366D01*
X117314875Y-75475207D01*
X117358672Y-75369471D01*
X117381000Y-75257223D01*
X117381000Y-75142777D01*
X117358672Y-75030529D01*
X117314875Y-74924793D01*
X117251292Y-74829634D01*
X117170366Y-74748708D01*
X117097469Y-74700000D01*
X117170366Y-74651292D01*
X117251292Y-74570366D01*
X117314875Y-74475207D01*
X117358672Y-74369471D01*
X117381000Y-74257223D01*
X117381000Y-74142777D01*
X117358672Y-74030529D01*
X117314875Y-73924793D01*
X117251292Y-73829634D01*
X117170366Y-73748708D01*
X117097469Y-73700000D01*
X117170366Y-73651292D01*
X117251292Y-73570366D01*
X117314875Y-73475207D01*
X117358672Y-73369471D01*
X117381000Y-73257223D01*
X117381000Y-73142777D01*
X117358672Y-73030529D01*
X117314875Y-72924793D01*
X117251292Y-72829634D01*
X117170366Y-72748708D01*
X117097469Y-72700000D01*
X117170366Y-72651292D01*
X117251292Y-72570366D01*
X117314875Y-72475207D01*
X117338334Y-72418571D01*
X118043175Y-73123412D01*
X118058236Y-73141764D01*
X118131478Y-73201872D01*
X118215039Y-73246536D01*
X118278203Y-73265696D01*
X118305707Y-73274040D01*
X118400000Y-73283327D01*
X118423626Y-73281000D01*
X118898761Y-73281000D01*
X118421594Y-73758168D01*
X118403236Y-73773234D01*
X118343128Y-73846476D01*
X118298464Y-73930038D01*
X118279304Y-73993202D01*
X118270960Y-74020706D01*
X118261673Y-74114998D01*
X118264000Y-74138624D01*
X118264000Y-74397494D01*
X118218492Y-74411299D01*
X118152304Y-74446678D01*
X118094289Y-74494289D01*
X118046678Y-74552304D01*
X118011299Y-74618492D01*
X117989513Y-74690311D01*
X117982157Y-74765000D01*
X117982157Y-76365000D01*
X117989513Y-76439689D01*
X118011299Y-76511508D01*
X118046678Y-76577696D01*
X118094289Y-76635711D01*
X118152304Y-76683322D01*
X118218492Y-76718701D01*
X118290311Y-76740487D01*
X118365000Y-76747843D01*
X119125000Y-76747843D01*
X119199689Y-76740487D01*
X119271508Y-76718701D01*
X119337696Y-76683322D01*
X119380000Y-76648605D01*
X119422304Y-76683322D01*
X119488492Y-76718701D01*
X119560311Y-76740487D01*
X119635000Y-76747843D01*
X120395000Y-76747843D01*
X120469689Y-76740487D01*
X120541508Y-76718701D01*
X120607696Y-76683322D01*
X120650000Y-76648605D01*
X120692304Y-76683322D01*
X120758492Y-76718701D01*
X120830311Y-76740487D01*
X120905000Y-76747843D01*
X121665000Y-76747843D01*
X121739689Y-76740487D01*
X121811508Y-76718701D01*
X121877696Y-76683322D01*
X121920000Y-76648605D01*
X121962304Y-76683322D01*
X122028492Y-76718701D01*
X122100311Y-76740487D01*
X122175000Y-76747843D01*
X122332750Y-76746000D01*
X122428000Y-76650750D01*
X122428000Y-75692000D01*
X122408000Y-75692000D01*
X122408000Y-75438000D01*
X122428000Y-75438000D01*
X122428000Y-74479250D01*
X122332750Y-74384000D01*
X122175000Y-74382157D01*
X122100311Y-74389513D01*
X122028492Y-74411299D01*
X121962304Y-74446678D01*
X121920000Y-74481395D01*
X121877696Y-74446678D01*
X121811508Y-74411299D01*
X121739689Y-74389513D01*
X121734248Y-74388977D01*
X121731536Y-74380038D01*
X121697665Y-74316671D01*
X121686872Y-74296478D01*
X121626764Y-74223236D01*
X121608411Y-74208174D01*
X121281236Y-73881000D01*
X123344001Y-73881000D01*
X123344001Y-74397494D01*
X123298492Y-74411299D01*
X123232304Y-74446678D01*
X123190000Y-74481395D01*
X123147696Y-74446678D01*
X123081508Y-74411299D01*
X123009689Y-74389513D01*
X122935000Y-74382157D01*
X122777250Y-74384000D01*
X122682000Y-74479250D01*
X122682000Y-75438000D01*
X122702000Y-75438000D01*
X122702000Y-75692000D01*
X122682000Y-75692000D01*
X122682000Y-76650750D01*
X122777250Y-76746000D01*
X122935000Y-76747843D01*
X123009689Y-76740487D01*
X123081508Y-76718701D01*
X123147696Y-76683322D01*
X123190000Y-76648605D01*
X123232304Y-76683322D01*
X123298492Y-76718701D01*
X123344001Y-76732506D01*
X123344001Y-77375762D01*
X121690332Y-79029432D01*
X121630529Y-79041328D01*
X121524793Y-79085125D01*
X121429634Y-79148708D01*
X121348708Y-79229634D01*
X121285125Y-79324793D01*
X121241328Y-79430529D01*
X121219000Y-79542777D01*
X121219000Y-79657223D01*
X121241328Y-79769471D01*
X121285125Y-79875207D01*
X121348708Y-79970366D01*
X121429634Y-80051292D01*
X121524793Y-80114875D01*
X121630529Y-80158672D01*
X121742777Y-80181000D01*
X121857223Y-80181000D01*
X121969471Y-80158672D01*
X122075207Y-80114875D01*
X122170366Y-80051292D01*
X122251292Y-79970366D01*
X122314875Y-79875207D01*
X122358672Y-79769471D01*
X122370568Y-79709668D01*
X124148412Y-77931825D01*
X124166764Y-77916764D01*
X124226872Y-77843522D01*
X124271536Y-77759961D01*
X124299040Y-77669292D01*
X124305433Y-77604386D01*
X124308327Y-77575001D01*
X124306000Y-77551374D01*
X124306000Y-76732506D01*
X124351508Y-76718701D01*
X124417696Y-76683322D01*
X124460000Y-76648605D01*
X124502304Y-76683322D01*
X124568492Y-76718701D01*
X124640311Y-76740487D01*
X124715000Y-76747843D01*
X125475000Y-76747843D01*
X125519001Y-76743509D01*
X125519001Y-77576364D01*
X125516673Y-77600000D01*
X125525960Y-77694292D01*
X125553465Y-77784961D01*
X125598129Y-77868522D01*
X125658237Y-77941764D01*
X125676589Y-77956825D01*
X126643170Y-78923406D01*
X126658236Y-78941764D01*
X126731478Y-79001872D01*
X126770374Y-79022662D01*
X126815038Y-79046536D01*
X126905707Y-79074040D01*
X127000000Y-79083327D01*
X127023626Y-79081000D01*
X128403693Y-79081000D01*
X128404386Y-79084485D01*
X128493412Y-79299413D01*
X128622658Y-79492843D01*
X128787157Y-79657342D01*
X128980587Y-79786588D01*
X129195515Y-79875614D01*
X129423682Y-79921000D01*
X129656318Y-79921000D01*
X129884485Y-79875614D01*
X130099413Y-79786588D01*
X130292843Y-79657342D01*
X130457342Y-79492843D01*
X130586588Y-79299413D01*
X130675614Y-79084485D01*
X130721000Y-78856318D01*
X130721000Y-78623682D01*
X130675614Y-78395515D01*
X130586588Y-78180587D01*
X130457342Y-77987157D01*
X130292843Y-77822658D01*
X130099413Y-77693412D01*
X129884485Y-77604386D01*
X129656318Y-77559000D01*
X129423682Y-77559000D01*
X129195515Y-77604386D01*
X128980587Y-77693412D01*
X128787157Y-77822658D01*
X128622658Y-77987157D01*
X128534563Y-78119000D01*
X127199236Y-78119000D01*
X126481000Y-77400764D01*
X126481000Y-74223626D01*
X126483327Y-74199999D01*
X126474040Y-74105707D01*
X126456850Y-74049040D01*
X126446536Y-74015039D01*
X126401872Y-73931478D01*
X126341764Y-73858236D01*
X126323411Y-73843174D01*
X125970568Y-73490331D01*
X125958672Y-73430529D01*
X125914875Y-73324793D01*
X125851292Y-73229634D01*
X125770366Y-73148708D01*
X125675207Y-73085125D01*
X125569471Y-73041328D01*
X125457223Y-73019000D01*
X125342777Y-73019000D01*
X125230529Y-73041328D01*
X125124793Y-73085125D01*
X125029634Y-73148708D01*
X124948708Y-73229634D01*
X124885125Y-73324793D01*
X124841328Y-73430529D01*
X124819000Y-73542777D01*
X124819000Y-73657223D01*
X124841328Y-73769471D01*
X124885125Y-73875207D01*
X124948708Y-73970366D01*
X125029634Y-74051292D01*
X125124793Y-74114875D01*
X125230529Y-74158672D01*
X125290331Y-74170568D01*
X125504861Y-74385098D01*
X125475000Y-74382157D01*
X124715000Y-74382157D01*
X124640311Y-74389513D01*
X124568492Y-74411299D01*
X124502304Y-74446678D01*
X124460000Y-74481395D01*
X124417696Y-74446678D01*
X124351508Y-74411299D01*
X124306000Y-74397494D01*
X124306000Y-73774236D01*
X125199237Y-72881000D01*
X126176374Y-72881000D01*
X126200000Y-72883327D01*
X126223626Y-72881000D01*
X126294292Y-72874040D01*
X126384961Y-72846536D01*
X126468522Y-72801872D01*
X126541764Y-72741764D01*
X126556830Y-72723406D01*
X127119000Y-72161236D01*
X127119000Y-74488994D01*
X127029634Y-74548706D01*
X126948708Y-74629632D01*
X126885125Y-74724791D01*
X126841328Y-74830527D01*
X126819000Y-74942775D01*
X126819000Y-75057221D01*
X126841328Y-75169469D01*
X126885125Y-75275205D01*
X126948708Y-75370364D01*
X127029634Y-75451290D01*
X127102532Y-75499999D01*
X127029634Y-75548708D01*
X126948708Y-75629634D01*
X126885125Y-75724793D01*
X126841328Y-75830529D01*
X126819000Y-75942777D01*
X126819000Y-76057223D01*
X126841328Y-76169471D01*
X126885125Y-76275207D01*
X126948708Y-76370366D01*
X127029634Y-76451292D01*
X127102531Y-76500000D01*
X127029634Y-76548708D01*
X126948708Y-76629634D01*
X126885125Y-76724793D01*
X126841328Y-76830529D01*
X126819000Y-76942777D01*
X126819000Y-77057223D01*
X126841328Y-77169471D01*
X126885125Y-77275207D01*
X126948708Y-77370366D01*
X127029634Y-77451292D01*
X127124793Y-77514875D01*
X127230529Y-77558672D01*
X127342777Y-77581000D01*
X127457223Y-77581000D01*
X127569471Y-77558672D01*
X127675207Y-77514875D01*
X127770366Y-77451292D01*
X127851292Y-77370366D01*
X127914875Y-77275207D01*
X127958672Y-77169471D01*
X127970568Y-77109669D01*
X128156824Y-76923413D01*
X128156828Y-76923408D01*
X128442862Y-76637374D01*
X128493412Y-76759413D01*
X128622658Y-76952843D01*
X128787157Y-77117342D01*
X128980587Y-77246588D01*
X129195515Y-77335614D01*
X129423682Y-77381000D01*
X129656318Y-77381000D01*
X129884485Y-77335614D01*
X130099413Y-77246588D01*
X130292843Y-77117342D01*
X130457342Y-76952843D01*
X130586588Y-76759413D01*
X130675614Y-76544485D01*
X130721000Y-76316318D01*
X130721000Y-76083682D01*
X130675614Y-75855515D01*
X130586588Y-75640587D01*
X130457342Y-75447157D01*
X130292843Y-75282658D01*
X130099413Y-75153412D01*
X129884485Y-75064386D01*
X129656318Y-75019000D01*
X129423682Y-75019000D01*
X129195515Y-75064386D01*
X128980587Y-75153412D01*
X128920999Y-75193227D01*
X128920999Y-74666773D01*
X128980587Y-74706588D01*
X129195515Y-74795614D01*
X129423682Y-74841000D01*
X129656318Y-74841000D01*
X129884485Y-74795614D01*
X130099413Y-74706588D01*
X130292843Y-74577342D01*
X130457342Y-74412843D01*
X130586588Y-74219413D01*
X130675614Y-74004485D01*
X130721000Y-73776318D01*
X130721000Y-73543682D01*
X130675614Y-73315515D01*
X130586588Y-73100587D01*
X130457342Y-72907157D01*
X130292843Y-72742658D01*
X130099413Y-72613412D01*
X129884485Y-72524386D01*
X129656318Y-72479000D01*
X129423682Y-72479000D01*
X129195515Y-72524386D01*
X128980587Y-72613412D01*
X128920999Y-72653227D01*
X128920999Y-72126773D01*
X128980587Y-72166588D01*
X129195515Y-72255614D01*
X129423682Y-72301000D01*
X129656318Y-72301000D01*
X129884485Y-72255614D01*
X130099413Y-72166588D01*
X130292843Y-72037342D01*
X130457342Y-71872843D01*
X130586588Y-71679413D01*
X130675614Y-71464485D01*
X130721000Y-71236318D01*
X130721000Y-71003682D01*
X130675614Y-70775515D01*
X130586588Y-70560587D01*
X130457342Y-70367157D01*
X130292843Y-70202658D01*
X130099413Y-70073412D01*
X129884485Y-69984386D01*
X129656318Y-69939000D01*
X129423682Y-69939000D01*
X129195515Y-69984386D01*
X128980587Y-70073412D01*
X128920999Y-70113227D01*
X128920999Y-69586773D01*
X128980587Y-69626588D01*
X129195515Y-69715614D01*
X129423682Y-69761000D01*
X129656318Y-69761000D01*
X129884485Y-69715614D01*
X130099413Y-69626588D01*
X130292843Y-69497342D01*
X130457342Y-69332843D01*
X130586588Y-69139413D01*
X130675614Y-68924485D01*
X130721000Y-68696318D01*
X130721000Y-68463682D01*
X130675614Y-68235515D01*
X130586588Y-68020587D01*
X130457342Y-67827157D01*
X130292843Y-67662658D01*
X130099413Y-67533412D01*
X129884485Y-67444386D01*
X129656318Y-67399000D01*
X129423682Y-67399000D01*
X129195515Y-67444386D01*
X128980587Y-67533412D01*
X128920999Y-67573227D01*
X128920999Y-67339237D01*
X129117102Y-67143134D01*
X129195515Y-67175614D01*
X129423682Y-67221000D01*
X129656318Y-67221000D01*
X129884485Y-67175614D01*
X130099413Y-67086588D01*
X130292843Y-66957342D01*
X130457342Y-66792843D01*
X130586588Y-66599413D01*
X130675614Y-66384485D01*
X130721000Y-66156318D01*
X130721000Y-65923682D01*
X130675614Y-65695515D01*
X130586588Y-65480587D01*
X130457342Y-65287157D01*
X130292843Y-65122658D01*
X130099413Y-64993412D01*
X129884485Y-64904386D01*
X129656318Y-64859000D01*
X129423682Y-64859000D01*
X129195515Y-64904386D01*
X129169473Y-64915173D01*
X129181000Y-64857223D01*
X129181000Y-64742777D01*
X129158672Y-64630529D01*
X129153584Y-64618246D01*
X129195515Y-64635614D01*
X129423682Y-64681000D01*
X129656318Y-64681000D01*
X129884485Y-64635614D01*
X130099413Y-64546588D01*
X130292843Y-64417342D01*
X130457342Y-64252843D01*
X130586588Y-64059413D01*
X130675614Y-63844485D01*
X130721000Y-63616318D01*
X130721000Y-63383682D01*
X130675614Y-63155515D01*
X130586588Y-62940587D01*
X130457342Y-62747157D01*
X130292843Y-62582658D01*
X130099413Y-62453412D01*
X129884485Y-62364386D01*
X129656318Y-62319000D01*
X129423682Y-62319000D01*
X129195515Y-62364386D01*
X128980587Y-62453412D01*
X128881001Y-62519953D01*
X128881001Y-61940047D01*
X128980587Y-62006588D01*
X129195515Y-62095614D01*
X129423682Y-62141000D01*
X129656318Y-62141000D01*
X129884485Y-62095614D01*
X130099413Y-62006588D01*
X130292843Y-61877342D01*
X130457342Y-61712843D01*
X130586588Y-61519413D01*
X130675614Y-61304485D01*
X130721000Y-61076318D01*
X130721000Y-60843682D01*
X130675614Y-60615515D01*
X130586588Y-60400587D01*
X130457342Y-60207157D01*
X130292843Y-60042658D01*
X130099413Y-59913412D01*
X129884485Y-59824386D01*
X129656318Y-59779000D01*
X129423682Y-59779000D01*
X129195515Y-59824386D01*
X128980587Y-59913412D01*
X128881001Y-59979953D01*
X128881001Y-59759235D01*
X129117102Y-59523134D01*
X129195515Y-59555614D01*
X129423682Y-59601000D01*
X129656318Y-59601000D01*
X129884485Y-59555614D01*
X130099413Y-59466588D01*
X130292843Y-59337342D01*
X130457342Y-59172843D01*
X130586588Y-58979413D01*
X130675614Y-58764485D01*
X130721000Y-58536318D01*
X130721000Y-58303682D01*
X130675614Y-58075515D01*
X130586588Y-57860587D01*
X130457342Y-57667157D01*
X130292843Y-57502658D01*
X130099413Y-57373412D01*
X129884485Y-57284386D01*
X129656318Y-57239000D01*
X129423682Y-57239000D01*
X129195515Y-57284386D01*
X128980587Y-57373412D01*
X128787157Y-57502658D01*
X128622658Y-57667157D01*
X128493412Y-57860587D01*
X128481000Y-57890552D01*
X128481000Y-57599236D01*
X129102960Y-56977276D01*
X129195515Y-57015614D01*
X129423682Y-57061000D01*
X129656318Y-57061000D01*
X129884485Y-57015614D01*
X130099413Y-56926588D01*
X130292843Y-56797342D01*
X130457342Y-56632843D01*
X130586588Y-56439413D01*
X130675614Y-56224485D01*
X130721000Y-55996318D01*
X130721000Y-55763682D01*
X130675614Y-55535515D01*
X130586588Y-55320587D01*
X130457342Y-55127157D01*
X130292843Y-54962658D01*
X130099413Y-54833412D01*
X129884485Y-54744386D01*
X129656318Y-54699000D01*
X129423682Y-54699000D01*
X129195515Y-54744386D01*
X128980587Y-54833412D01*
X128881000Y-54899954D01*
X128881000Y-54679236D01*
X129117102Y-54443134D01*
X129195515Y-54475614D01*
X129423682Y-54521000D01*
X129656318Y-54521000D01*
X129884485Y-54475614D01*
X130099413Y-54386588D01*
X130292843Y-54257342D01*
X130457342Y-54092843D01*
X130586588Y-53899413D01*
X130675614Y-53684485D01*
X130721000Y-53456318D01*
X130721000Y-53223682D01*
X130675614Y-52995515D01*
X130586588Y-52780587D01*
X130457342Y-52587157D01*
X130292843Y-52422658D01*
X130099413Y-52293412D01*
X129884485Y-52204386D01*
X129656318Y-52159000D01*
X129423682Y-52159000D01*
X129195515Y-52204386D01*
X128980587Y-52293412D01*
X128787157Y-52422658D01*
X128622658Y-52587157D01*
X128493412Y-52780587D01*
X128404386Y-52995515D01*
X128359000Y-53223682D01*
X128359000Y-53456318D01*
X128404386Y-53684485D01*
X128436866Y-53762898D01*
X128114904Y-54084860D01*
X128090898Y-54026903D01*
X127956180Y-53825283D01*
X127784717Y-53653820D01*
X127583097Y-53519102D01*
X127359069Y-53426307D01*
X127121243Y-53379000D01*
X126878757Y-53379000D01*
X126640931Y-53426307D01*
X126416903Y-53519102D01*
X126248835Y-53631401D01*
X126630758Y-53249479D01*
X126640931Y-53253693D01*
X126878757Y-53301000D01*
X127121243Y-53301000D01*
X127359069Y-53253693D01*
X127583097Y-53160898D01*
X127784717Y-53026180D01*
X127956180Y-52854717D01*
X128090898Y-52653097D01*
X128183693Y-52429069D01*
X128231000Y-52191243D01*
X128231000Y-51948757D01*
X128183693Y-51710931D01*
X128090898Y-51486903D01*
X127956180Y-51285283D01*
X127784717Y-51113820D01*
X127583097Y-50979102D01*
X127359069Y-50886307D01*
X127121243Y-50839000D01*
X126878757Y-50839000D01*
X126640931Y-50886307D01*
X126416903Y-50979102D01*
X126215283Y-51113820D01*
X126043820Y-51285283D01*
X125909102Y-51486903D01*
X125816307Y-51710931D01*
X125769000Y-51948757D01*
X125769000Y-52191243D01*
X125816307Y-52429069D01*
X125896673Y-52623090D01*
X124800764Y-53719000D01*
X123823623Y-53719000D01*
X123799999Y-53716673D01*
X123776375Y-53719000D01*
X123776374Y-53719000D01*
X123759583Y-53720654D01*
X124205703Y-53274534D01*
X124338757Y-53301000D01*
X124581243Y-53301000D01*
X124819069Y-53253693D01*
X125043097Y-53160898D01*
X125121886Y-53108253D01*
X125209961Y-53081536D01*
X125293522Y-53036871D01*
X125366764Y-52976764D01*
X125426871Y-52903522D01*
X125471536Y-52819961D01*
X125498253Y-52731886D01*
X125550898Y-52653097D01*
X125643693Y-52429069D01*
X125691000Y-52191243D01*
X125691000Y-51948757D01*
X125643693Y-51710931D01*
X125550898Y-51486903D01*
X125416180Y-51285283D01*
X125244717Y-51113820D01*
X125043097Y-50979102D01*
X124819069Y-50886307D01*
X124581243Y-50839000D01*
X124338757Y-50839000D01*
X124100931Y-50886307D01*
X123876903Y-50979102D01*
X123675283Y-51113820D01*
X123503820Y-51285283D01*
X123369102Y-51486903D01*
X123276307Y-51710931D01*
X123229000Y-51948757D01*
X123229000Y-52191243D01*
X123276307Y-52429069D01*
X123369102Y-52653097D01*
X123408181Y-52711583D01*
X120881000Y-55238764D01*
X120881000Y-55199236D01*
X122243406Y-53836830D01*
X122261764Y-53821764D01*
X122321872Y-53748522D01*
X122342662Y-53709626D01*
X122366536Y-53664962D01*
X122394040Y-53574293D01*
X122403327Y-53480000D01*
X122401000Y-53456374D01*
X122401000Y-53203188D01*
X122503097Y-53160898D01*
X122704717Y-53026180D01*
X122876180Y-52854717D01*
X123010898Y-52653097D01*
X123103693Y-52429069D01*
X123151000Y-52191243D01*
X123151000Y-51948757D01*
X123103693Y-51710931D01*
X123010898Y-51486903D01*
X122876180Y-51285283D01*
X122704717Y-51113820D01*
X122503097Y-50979102D01*
X122279069Y-50886307D01*
X122041243Y-50839000D01*
X121798757Y-50839000D01*
X121560931Y-50886307D01*
X121336903Y-50979102D01*
X121135283Y-51113820D01*
X120963820Y-51285283D01*
X120829102Y-51486903D01*
X120736307Y-51710931D01*
X120689000Y-51948757D01*
X120689000Y-52191243D01*
X120736307Y-52429069D01*
X120811207Y-52609894D01*
X120810960Y-52610708D01*
X120801673Y-52705000D01*
X120810960Y-52799292D01*
X120838465Y-52889961D01*
X120883129Y-52973522D01*
X120943237Y-53046763D01*
X121016478Y-53106871D01*
X121100039Y-53151535D01*
X121190708Y-53179040D01*
X121285000Y-53188327D01*
X121379292Y-53179040D01*
X121380106Y-53178793D01*
X121439000Y-53203188D01*
X121439000Y-53280764D01*
X120081000Y-54638764D01*
X120081000Y-53082118D01*
X120164717Y-53026180D01*
X120336180Y-52854717D01*
X120470898Y-52653097D01*
X120563693Y-52429069D01*
X120611000Y-52191243D01*
X120611000Y-51948757D01*
X120563693Y-51710931D01*
X120470898Y-51486903D01*
X120336180Y-51285283D01*
X120164717Y-51113820D01*
X119963097Y-50979102D01*
X119739069Y-50886307D01*
X119501243Y-50839000D01*
X119258757Y-50839000D01*
X119020931Y-50886307D01*
X118796903Y-50979102D01*
X118595283Y-51113820D01*
X118423820Y-51285283D01*
X118289102Y-51486903D01*
X118196307Y-51710931D01*
X118149000Y-51948757D01*
X118149000Y-52191243D01*
X118196307Y-52429069D01*
X118289102Y-52653097D01*
X118423820Y-52854717D01*
X118595283Y-53026180D01*
X118796903Y-53160898D01*
X119020931Y-53253693D01*
X119119001Y-53273200D01*
X119119000Y-55133455D01*
X119094292Y-55125960D01*
X119023626Y-55119000D01*
X119000000Y-55116673D01*
X118976374Y-55119000D01*
X117961590Y-55119000D01*
X118023693Y-54969069D01*
X118071000Y-54731243D01*
X118071000Y-54488757D01*
X118023693Y-54250931D01*
X117930898Y-54026903D01*
X117796180Y-53825283D01*
X117624717Y-53653820D01*
X117423097Y-53519102D01*
X117199069Y-53426307D01*
X116961243Y-53379000D01*
X116718757Y-53379000D01*
X116480931Y-53426307D01*
X116256903Y-53519102D01*
X116055283Y-53653820D01*
X115883820Y-53825283D01*
X115749102Y-54026903D01*
X115725096Y-54084860D01*
X115403134Y-53762898D01*
X115435614Y-53684485D01*
X115481000Y-53456318D01*
X115481000Y-53223682D01*
X115435614Y-52995515D01*
X115346588Y-52780587D01*
X115217342Y-52587157D01*
X115052843Y-52422658D01*
X114859413Y-52293412D01*
X114644485Y-52204386D01*
X114416318Y-52159000D01*
X114183682Y-52159000D01*
X113955515Y-52204386D01*
X113740587Y-52293412D01*
X113547157Y-52422658D01*
X113481000Y-52488815D01*
X113481000Y-51980972D01*
X113500000Y-51982843D01*
X114295086Y-51982843D01*
X114300000Y-51983327D01*
X114304914Y-51982843D01*
X115100000Y-51982843D01*
X115174689Y-51975487D01*
X115246508Y-51953701D01*
X115255757Y-51948757D01*
X115609000Y-51948757D01*
X115609000Y-52191243D01*
X115656307Y-52429069D01*
X115749102Y-52653097D01*
X115883820Y-52854717D01*
X116055283Y-53026180D01*
X116256903Y-53160898D01*
X116480931Y-53253693D01*
X116718757Y-53301000D01*
X116961243Y-53301000D01*
X117199069Y-53253693D01*
X117423097Y-53160898D01*
X117624717Y-53026180D01*
X117796180Y-52854717D01*
X117930898Y-52653097D01*
X118023693Y-52429069D01*
X118071000Y-52191243D01*
X118071000Y-51948757D01*
X118023693Y-51710931D01*
X117930898Y-51486903D01*
X117796180Y-51285283D01*
X117624717Y-51113820D01*
X117423097Y-50979102D01*
X117199069Y-50886307D01*
X116961243Y-50839000D01*
X116718757Y-50839000D01*
X116480931Y-50886307D01*
X116256903Y-50979102D01*
X116055283Y-51113820D01*
X115883820Y-51285283D01*
X115749102Y-51486903D01*
X115656307Y-51710931D01*
X115609000Y-51948757D01*
X115255757Y-51948757D01*
X115312696Y-51918322D01*
X115370711Y-51870711D01*
X115418322Y-51812696D01*
X115453701Y-51746508D01*
X115475487Y-51674689D01*
X115482843Y-51600000D01*
X115482843Y-50683682D01*
X128359000Y-50683682D01*
X128359000Y-50916318D01*
X128404386Y-51144485D01*
X128493412Y-51359413D01*
X128622658Y-51552843D01*
X128787157Y-51717342D01*
X128980587Y-51846588D01*
X129195515Y-51935614D01*
X129423682Y-51981000D01*
X129656318Y-51981000D01*
X129884485Y-51935614D01*
X130099413Y-51846588D01*
X130292843Y-51717342D01*
X130457342Y-51552843D01*
X130586588Y-51359413D01*
X130675614Y-51144485D01*
X130721000Y-50916318D01*
X130721000Y-50683682D01*
X130675614Y-50455515D01*
X130586588Y-50240587D01*
X130457342Y-50047157D01*
X130292843Y-49882658D01*
X130099413Y-49753412D01*
X129884485Y-49664386D01*
X129656318Y-49619000D01*
X129423682Y-49619000D01*
X129195515Y-49664386D01*
X128980587Y-49753412D01*
X128787157Y-49882658D01*
X128622658Y-50047157D01*
X128493412Y-50240587D01*
X128404386Y-50455515D01*
X128359000Y-50683682D01*
X115482843Y-50683682D01*
X115482843Y-50000000D01*
X115475487Y-49925311D01*
X115453701Y-49853492D01*
X115418322Y-49787304D01*
X115370711Y-49729289D01*
X115312696Y-49681678D01*
X115246508Y-49646299D01*
X115174689Y-49624513D01*
X115100000Y-49617157D01*
X113500000Y-49617157D01*
X113425311Y-49624513D01*
X113353492Y-49646299D01*
X113287304Y-49681678D01*
X113229289Y-49729289D01*
X113181678Y-49787304D01*
X113146299Y-49853492D01*
X113124513Y-49925311D01*
X113117157Y-50000000D01*
X113117157Y-50352822D01*
X113115039Y-50353464D01*
X113031478Y-50398128D01*
X112958236Y-50458236D01*
X112943170Y-50476594D01*
X112801000Y-50618764D01*
X112801000Y-49549851D01*
X112807270Y-49485901D01*
X112820079Y-49443476D01*
X112840881Y-49404353D01*
X112868888Y-49370013D01*
X112903034Y-49341765D01*
X112942016Y-49320688D01*
X112984343Y-49307585D01*
X113046992Y-49301000D01*
X120694648Y-49301000D01*
X120715894Y-49367977D01*
G37*
X120715894Y-49367977D02*
X120730406Y-49401837D01*
X120744412Y-49435817D01*
X120747106Y-49440801D01*
X120747108Y-49440806D01*
X120747111Y-49440810D01*
X120830693Y-49592847D01*
X120851499Y-49623234D01*
X120871847Y-49653860D01*
X120875460Y-49658228D01*
X120986985Y-49791138D01*
X121013306Y-49816914D01*
X121039205Y-49842994D01*
X121043598Y-49846578D01*
X121178815Y-49955294D01*
X121209607Y-49975444D01*
X121240113Y-49996020D01*
X121245118Y-49998682D01*
X121398877Y-50079065D01*
X121433040Y-50092868D01*
X121466917Y-50107108D01*
X121472338Y-50108745D01*
X121472345Y-50108748D01*
X121472352Y-50108749D01*
X121638787Y-50157734D01*
X121674957Y-50164634D01*
X121710979Y-50172028D01*
X121716619Y-50172582D01*
X121716621Y-50172582D01*
X121889409Y-50188307D01*
X121926206Y-50188050D01*
X121963003Y-50188307D01*
X121968645Y-50187754D01*
X122141196Y-50169618D01*
X122177262Y-50162215D01*
X122213388Y-50155323D01*
X122218815Y-50153685D01*
X122384558Y-50102379D01*
X122418521Y-50088102D01*
X122452599Y-50074334D01*
X122457600Y-50071676D01*
X122457604Y-50071674D01*
X122457607Y-50071672D01*
X122610225Y-49989151D01*
X122640737Y-49968571D01*
X122671522Y-49948426D01*
X122675910Y-49944847D01*
X122675916Y-49944843D01*
X122675921Y-49944838D01*
X122809601Y-49834249D01*
X122835553Y-49808116D01*
X122861821Y-49782392D01*
X122865430Y-49778030D01*
X122865435Y-49778025D01*
X122865439Y-49778020D01*
X122975094Y-49643569D01*
X122995478Y-49612889D01*
X123016247Y-49582557D01*
X123018941Y-49577575D01*
X123018944Y-49577571D01*
X123018946Y-49577567D01*
X123100398Y-49424377D01*
X123114420Y-49390356D01*
X123128916Y-49356535D01*
X123130593Y-49351119D01*
X123145725Y-49301000D01*
X130790149Y-49301000D01*
X130854099Y-49307270D01*
X130896524Y-49320079D01*
X130935647Y-49340881D01*
X130969987Y-49368888D01*
X130998235Y-49403034D01*
X131019312Y-49442016D01*
X131032415Y-49484343D01*
X131039000Y-49546992D01*
X131039001Y-79990130D01*
X131032730Y-80054100D01*
X131019921Y-80096523D01*
X130999119Y-80135647D01*
X130971110Y-80169989D01*
X130936966Y-80198235D01*
X130897984Y-80219312D01*
X130855657Y-80232415D01*
X130793008Y-80239000D01*
X113049860Y-80239000D01*
X112985900Y-80232730D01*
X112943477Y-80219921D01*
X112904353Y-80199119D01*
X112870011Y-80171110D01*
X112841765Y-80136966D01*
X112820688Y-80097984D01*
X112807585Y-80055657D01*
X112801000Y-79993008D01*
X112801000Y-79049114D01*
X113160171Y-79049114D01*
X113180527Y-79116239D01*
X113275438Y-79327408D01*
X113409722Y-79516003D01*
X113578219Y-79674777D01*
X113774454Y-79797628D01*
X113990885Y-79879835D01*
X114173000Y-79818908D01*
X114173000Y-78867000D01*
X114427000Y-78867000D01*
X114427000Y-79818908D01*
X114609115Y-79879835D01*
X114825546Y-79797628D01*
X115021781Y-79674777D01*
X115190278Y-79516003D01*
X115324562Y-79327408D01*
X115419473Y-79116239D01*
X115439829Y-79049114D01*
X115378297Y-78867000D01*
X114427000Y-78867000D01*
X114173000Y-78867000D01*
X113221703Y-78867000D01*
X113160171Y-79049114D01*
X112801000Y-79049114D01*
X112801000Y-78430886D01*
X113160171Y-78430886D01*
X113221703Y-78613000D01*
X114173000Y-78613000D01*
X114173000Y-77661092D01*
X114427000Y-77661092D01*
X114427000Y-78613000D01*
X115378297Y-78613000D01*
X115439829Y-78430886D01*
X115419473Y-78363761D01*
X115324562Y-78152592D01*
X115190278Y-77963997D01*
X115021781Y-77805223D01*
X114825546Y-77682372D01*
X114609115Y-77600165D01*
X114427000Y-77661092D01*
X114173000Y-77661092D01*
X113990885Y-77600165D01*
X113774454Y-77682372D01*
X113578219Y-77805223D01*
X113409722Y-77963997D01*
X113275438Y-78152592D01*
X113180527Y-78363761D01*
X113160171Y-78430886D01*
X112801000Y-78430886D01*
X112801000Y-74681236D01*
X113443175Y-75323412D01*
X113458237Y-75341765D01*
X113474612Y-75355203D01*
X113382658Y-75447157D01*
X113253412Y-75640587D01*
X113164386Y-75855515D01*
X113119000Y-76083682D01*
X113119000Y-76316318D01*
X113164386Y-76544485D01*
X113253412Y-76759413D01*
X113382658Y-76952843D01*
X113547157Y-77117342D01*
X113740587Y-77246588D01*
X113955515Y-77335614D01*
X114183682Y-77381000D01*
X114416318Y-77381000D01*
X114644485Y-77335614D01*
X114859413Y-77246588D01*
X115052843Y-77117342D01*
X115217342Y-76952843D01*
X115346588Y-76759413D01*
X115435614Y-76544485D01*
X115481000Y-76316318D01*
X115481000Y-76083682D01*
X115435614Y-75855515D01*
X115346588Y-75640587D01*
X115239956Y-75481001D01*
X116288996Y-75481001D01*
X116348708Y-75570366D01*
X116429634Y-75651292D01*
X116524793Y-75714875D01*
X116630529Y-75758672D01*
X116742777Y-75781000D01*
X116857223Y-75781000D01*
X116969471Y-75758672D01*
X117075207Y-75714875D01*
X117170366Y-75651292D01*
X117251292Y-75570366D01*
X117314875Y-75475207D01*
X117358672Y-75369471D01*
X117381000Y-75257223D01*
X117381000Y-75142777D01*
X117358672Y-75030529D01*
X117314875Y-74924793D01*
X117251292Y-74829634D01*
X117170366Y-74748708D01*
X117097469Y-74700000D01*
X117170366Y-74651292D01*
X117251292Y-74570366D01*
X117314875Y-74475207D01*
X117358672Y-74369471D01*
X117381000Y-74257223D01*
X117381000Y-74142777D01*
X117358672Y-74030529D01*
X117314875Y-73924793D01*
X117251292Y-73829634D01*
X117170366Y-73748708D01*
X117097469Y-73700000D01*
X117170366Y-73651292D01*
X117251292Y-73570366D01*
X117314875Y-73475207D01*
X117358672Y-73369471D01*
X117381000Y-73257223D01*
X117381000Y-73142777D01*
X117358672Y-73030529D01*
X117314875Y-72924793D01*
X117251292Y-72829634D01*
X117170366Y-72748708D01*
X117097469Y-72700000D01*
X117170366Y-72651292D01*
X117251292Y-72570366D01*
X117314875Y-72475207D01*
X117338334Y-72418571D01*
X118043175Y-73123412D01*
X118058236Y-73141764D01*
X118131478Y-73201872D01*
X118215039Y-73246536D01*
X118278203Y-73265696D01*
X118305707Y-73274040D01*
X118400000Y-73283327D01*
X118423626Y-73281000D01*
X118898761Y-73281000D01*
X118421594Y-73758168D01*
X118403236Y-73773234D01*
X118343128Y-73846476D01*
X118298464Y-73930038D01*
X118279304Y-73993202D01*
X118270960Y-74020706D01*
X118261673Y-74114998D01*
X118264000Y-74138624D01*
X118264000Y-74397494D01*
X118218492Y-74411299D01*
X118152304Y-74446678D01*
X118094289Y-74494289D01*
X118046678Y-74552304D01*
X118011299Y-74618492D01*
X117989513Y-74690311D01*
X117982157Y-74765000D01*
X117982157Y-76365000D01*
X117989513Y-76439689D01*
X118011299Y-76511508D01*
X118046678Y-76577696D01*
X118094289Y-76635711D01*
X118152304Y-76683322D01*
X118218492Y-76718701D01*
X118290311Y-76740487D01*
X118365000Y-76747843D01*
X119125000Y-76747843D01*
X119199689Y-76740487D01*
X119271508Y-76718701D01*
X119337696Y-76683322D01*
X119380000Y-76648605D01*
X119422304Y-76683322D01*
X119488492Y-76718701D01*
X119560311Y-76740487D01*
X119635000Y-76747843D01*
X120395000Y-76747843D01*
X120469689Y-76740487D01*
X120541508Y-76718701D01*
X120607696Y-76683322D01*
X120650000Y-76648605D01*
X120692304Y-76683322D01*
X120758492Y-76718701D01*
X120830311Y-76740487D01*
X120905000Y-76747843D01*
X121665000Y-76747843D01*
X121739689Y-76740487D01*
X121811508Y-76718701D01*
X121877696Y-76683322D01*
X121920000Y-76648605D01*
X121962304Y-76683322D01*
X122028492Y-76718701D01*
X122100311Y-76740487D01*
X122175000Y-76747843D01*
X122332750Y-76746000D01*
X122428000Y-76650750D01*
X122428000Y-75692000D01*
X122408000Y-75692000D01*
X122408000Y-75438000D01*
X122428000Y-75438000D01*
X122428000Y-74479250D01*
X122332750Y-74384000D01*
X122175000Y-74382157D01*
X122100311Y-74389513D01*
X122028492Y-74411299D01*
X121962304Y-74446678D01*
X121920000Y-74481395D01*
X121877696Y-74446678D01*
X121811508Y-74411299D01*
X121739689Y-74389513D01*
X121734248Y-74388977D01*
X121731536Y-74380038D01*
X121697665Y-74316671D01*
X121686872Y-74296478D01*
X121626764Y-74223236D01*
X121608411Y-74208174D01*
X121281236Y-73881000D01*
X123344001Y-73881000D01*
X123344001Y-74397494D01*
X123298492Y-74411299D01*
X123232304Y-74446678D01*
X123190000Y-74481395D01*
X123147696Y-74446678D01*
X123081508Y-74411299D01*
X123009689Y-74389513D01*
X122935000Y-74382157D01*
X122777250Y-74384000D01*
X122682000Y-74479250D01*
X122682000Y-75438000D01*
X122702000Y-75438000D01*
X122702000Y-75692000D01*
X122682000Y-75692000D01*
X122682000Y-76650750D01*
X122777250Y-76746000D01*
X122935000Y-76747843D01*
X123009689Y-76740487D01*
X123081508Y-76718701D01*
X123147696Y-76683322D01*
X123190000Y-76648605D01*
X123232304Y-76683322D01*
X123298492Y-76718701D01*
X123344001Y-76732506D01*
X123344001Y-77375762D01*
X121690332Y-79029432D01*
X121630529Y-79041328D01*
X121524793Y-79085125D01*
X121429634Y-79148708D01*
X121348708Y-79229634D01*
X121285125Y-79324793D01*
X121241328Y-79430529D01*
X121219000Y-79542777D01*
X121219000Y-79657223D01*
X121241328Y-79769471D01*
X121285125Y-79875207D01*
X121348708Y-79970366D01*
X121429634Y-80051292D01*
X121524793Y-80114875D01*
X121630529Y-80158672D01*
X121742777Y-80181000D01*
X121857223Y-80181000D01*
X121969471Y-80158672D01*
X122075207Y-80114875D01*
X122170366Y-80051292D01*
X122251292Y-79970366D01*
X122314875Y-79875207D01*
X122358672Y-79769471D01*
X122370568Y-79709668D01*
X124148412Y-77931825D01*
X124166764Y-77916764D01*
X124226872Y-77843522D01*
X124271536Y-77759961D01*
X124299040Y-77669292D01*
X124305433Y-77604386D01*
X124308327Y-77575001D01*
X124306000Y-77551374D01*
X124306000Y-76732506D01*
X124351508Y-76718701D01*
X124417696Y-76683322D01*
X124460000Y-76648605D01*
X124502304Y-76683322D01*
X124568492Y-76718701D01*
X124640311Y-76740487D01*
X124715000Y-76747843D01*
X125475000Y-76747843D01*
X125519001Y-76743509D01*
X125519001Y-77576364D01*
X125516673Y-77600000D01*
X125525960Y-77694292D01*
X125553465Y-77784961D01*
X125598129Y-77868522D01*
X125658237Y-77941764D01*
X125676589Y-77956825D01*
X126643170Y-78923406D01*
X126658236Y-78941764D01*
X126731478Y-79001872D01*
X126770374Y-79022662D01*
X126815038Y-79046536D01*
X126905707Y-79074040D01*
X127000000Y-79083327D01*
X127023626Y-79081000D01*
X128403693Y-79081000D01*
X128404386Y-79084485D01*
X128493412Y-79299413D01*
X128622658Y-79492843D01*
X128787157Y-79657342D01*
X128980587Y-79786588D01*
X129195515Y-79875614D01*
X129423682Y-79921000D01*
X129656318Y-79921000D01*
X129884485Y-79875614D01*
X130099413Y-79786588D01*
X130292843Y-79657342D01*
X130457342Y-79492843D01*
X130586588Y-79299413D01*
X130675614Y-79084485D01*
X130721000Y-78856318D01*
X130721000Y-78623682D01*
X130675614Y-78395515D01*
X130586588Y-78180587D01*
X130457342Y-77987157D01*
X130292843Y-77822658D01*
X130099413Y-77693412D01*
X129884485Y-77604386D01*
X129656318Y-77559000D01*
X129423682Y-77559000D01*
X129195515Y-77604386D01*
X128980587Y-77693412D01*
X128787157Y-77822658D01*
X128622658Y-77987157D01*
X128534563Y-78119000D01*
X127199236Y-78119000D01*
X126481000Y-77400764D01*
X126481000Y-74223626D01*
X126483327Y-74199999D01*
X126474040Y-74105707D01*
X126456850Y-74049040D01*
X126446536Y-74015039D01*
X126401872Y-73931478D01*
X126341764Y-73858236D01*
X126323411Y-73843174D01*
X125970568Y-73490331D01*
X125958672Y-73430529D01*
X125914875Y-73324793D01*
X125851292Y-73229634D01*
X125770366Y-73148708D01*
X125675207Y-73085125D01*
X125569471Y-73041328D01*
X125457223Y-73019000D01*
X125342777Y-73019000D01*
X125230529Y-73041328D01*
X125124793Y-73085125D01*
X125029634Y-73148708D01*
X124948708Y-73229634D01*
X124885125Y-73324793D01*
X124841328Y-73430529D01*
X124819000Y-73542777D01*
X124819000Y-73657223D01*
X124841328Y-73769471D01*
X124885125Y-73875207D01*
X124948708Y-73970366D01*
X125029634Y-74051292D01*
X125124793Y-74114875D01*
X125230529Y-74158672D01*
X125290331Y-74170568D01*
X125504861Y-74385098D01*
X125475000Y-74382157D01*
X124715000Y-74382157D01*
X124640311Y-74389513D01*
X124568492Y-74411299D01*
X124502304Y-74446678D01*
X124460000Y-74481395D01*
X124417696Y-74446678D01*
X124351508Y-74411299D01*
X124306000Y-74397494D01*
X124306000Y-73774236D01*
X125199237Y-72881000D01*
X126176374Y-72881000D01*
X126200000Y-72883327D01*
X126223626Y-72881000D01*
X126294292Y-72874040D01*
X126384961Y-72846536D01*
X126468522Y-72801872D01*
X126541764Y-72741764D01*
X126556830Y-72723406D01*
X127119000Y-72161236D01*
X127119000Y-74488994D01*
X127029634Y-74548706D01*
X126948708Y-74629632D01*
X126885125Y-74724791D01*
X126841328Y-74830527D01*
X126819000Y-74942775D01*
X126819000Y-75057221D01*
X126841328Y-75169469D01*
X126885125Y-75275205D01*
X126948708Y-75370364D01*
X127029634Y-75451290D01*
X127102532Y-75499999D01*
X127029634Y-75548708D01*
X126948708Y-75629634D01*
X126885125Y-75724793D01*
X126841328Y-75830529D01*
X126819000Y-75942777D01*
X126819000Y-76057223D01*
X126841328Y-76169471D01*
X126885125Y-76275207D01*
X126948708Y-76370366D01*
X127029634Y-76451292D01*
X127102531Y-76500000D01*
X127029634Y-76548708D01*
X126948708Y-76629634D01*
X126885125Y-76724793D01*
X126841328Y-76830529D01*
X126819000Y-76942777D01*
X126819000Y-77057223D01*
X126841328Y-77169471D01*
X126885125Y-77275207D01*
X126948708Y-77370366D01*
X127029634Y-77451292D01*
X127124793Y-77514875D01*
X127230529Y-77558672D01*
X127342777Y-77581000D01*
X127457223Y-77581000D01*
X127569471Y-77558672D01*
X127675207Y-77514875D01*
X127770366Y-77451292D01*
X127851292Y-77370366D01*
X127914875Y-77275207D01*
X127958672Y-77169471D01*
X127970568Y-77109669D01*
X128156824Y-76923413D01*
X128156828Y-76923408D01*
X128442862Y-76637374D01*
X128493412Y-76759413D01*
X128622658Y-76952843D01*
X128787157Y-77117342D01*
X128980587Y-77246588D01*
X129195515Y-77335614D01*
X129423682Y-77381000D01*
X129656318Y-77381000D01*
X129884485Y-77335614D01*
X130099413Y-77246588D01*
X130292843Y-77117342D01*
X130457342Y-76952843D01*
X130586588Y-76759413D01*
X130675614Y-76544485D01*
X130721000Y-76316318D01*
X130721000Y-76083682D01*
X130675614Y-75855515D01*
X130586588Y-75640587D01*
X130457342Y-75447157D01*
X130292843Y-75282658D01*
X130099413Y-75153412D01*
X129884485Y-75064386D01*
X129656318Y-75019000D01*
X129423682Y-75019000D01*
X129195515Y-75064386D01*
X128980587Y-75153412D01*
X128920999Y-75193227D01*
X128920999Y-74666773D01*
X128980587Y-74706588D01*
X129195515Y-74795614D01*
X129423682Y-74841000D01*
X129656318Y-74841000D01*
X129884485Y-74795614D01*
X130099413Y-74706588D01*
X130292843Y-74577342D01*
X130457342Y-74412843D01*
X130586588Y-74219413D01*
X130675614Y-74004485D01*
X130721000Y-73776318D01*
X130721000Y-73543682D01*
X130675614Y-73315515D01*
X130586588Y-73100587D01*
X130457342Y-72907157D01*
X130292843Y-72742658D01*
X130099413Y-72613412D01*
X129884485Y-72524386D01*
X129656318Y-72479000D01*
X129423682Y-72479000D01*
X129195515Y-72524386D01*
X128980587Y-72613412D01*
X128920999Y-72653227D01*
X128920999Y-72126773D01*
X128980587Y-72166588D01*
X129195515Y-72255614D01*
X129423682Y-72301000D01*
X129656318Y-72301000D01*
X129884485Y-72255614D01*
X130099413Y-72166588D01*
X130292843Y-72037342D01*
X130457342Y-71872843D01*
X130586588Y-71679413D01*
X130675614Y-71464485D01*
X130721000Y-71236318D01*
X130721000Y-71003682D01*
X130675614Y-70775515D01*
X130586588Y-70560587D01*
X130457342Y-70367157D01*
X130292843Y-70202658D01*
X130099413Y-70073412D01*
X129884485Y-69984386D01*
X129656318Y-69939000D01*
X129423682Y-69939000D01*
X129195515Y-69984386D01*
X128980587Y-70073412D01*
X128920999Y-70113227D01*
X128920999Y-69586773D01*
X128980587Y-69626588D01*
X129195515Y-69715614D01*
X129423682Y-69761000D01*
X129656318Y-69761000D01*
X129884485Y-69715614D01*
X130099413Y-69626588D01*
X130292843Y-69497342D01*
X130457342Y-69332843D01*
X130586588Y-69139413D01*
X130675614Y-68924485D01*
X130721000Y-68696318D01*
X130721000Y-68463682D01*
X130675614Y-68235515D01*
X130586588Y-68020587D01*
X130457342Y-67827157D01*
X130292843Y-67662658D01*
X130099413Y-67533412D01*
X129884485Y-67444386D01*
X129656318Y-67399000D01*
X129423682Y-67399000D01*
X129195515Y-67444386D01*
X128980587Y-67533412D01*
X128920999Y-67573227D01*
X128920999Y-67339237D01*
X129117102Y-67143134D01*
X129195515Y-67175614D01*
X129423682Y-67221000D01*
X129656318Y-67221000D01*
X129884485Y-67175614D01*
X130099413Y-67086588D01*
X130292843Y-66957342D01*
X130457342Y-66792843D01*
X130586588Y-66599413D01*
X130675614Y-66384485D01*
X130721000Y-66156318D01*
X130721000Y-65923682D01*
X130675614Y-65695515D01*
X130586588Y-65480587D01*
X130457342Y-65287157D01*
X130292843Y-65122658D01*
X130099413Y-64993412D01*
X129884485Y-64904386D01*
X129656318Y-64859000D01*
X129423682Y-64859000D01*
X129195515Y-64904386D01*
X129169473Y-64915173D01*
X129181000Y-64857223D01*
X129181000Y-64742777D01*
X129158672Y-64630529D01*
X129153584Y-64618246D01*
X129195515Y-64635614D01*
X129423682Y-64681000D01*
X129656318Y-64681000D01*
X129884485Y-64635614D01*
X130099413Y-64546588D01*
X130292843Y-64417342D01*
X130457342Y-64252843D01*
X130586588Y-64059413D01*
X130675614Y-63844485D01*
X130721000Y-63616318D01*
X130721000Y-63383682D01*
X130675614Y-63155515D01*
X130586588Y-62940587D01*
X130457342Y-62747157D01*
X130292843Y-62582658D01*
X130099413Y-62453412D01*
X129884485Y-62364386D01*
X129656318Y-62319000D01*
X129423682Y-62319000D01*
X129195515Y-62364386D01*
X128980587Y-62453412D01*
X128881001Y-62519953D01*
X128881001Y-61940047D01*
X128980587Y-62006588D01*
X129195515Y-62095614D01*
X129423682Y-62141000D01*
X129656318Y-62141000D01*
X129884485Y-62095614D01*
X130099413Y-62006588D01*
X130292843Y-61877342D01*
X130457342Y-61712843D01*
X130586588Y-61519413D01*
X130675614Y-61304485D01*
X130721000Y-61076318D01*
X130721000Y-60843682D01*
X130675614Y-60615515D01*
X130586588Y-60400587D01*
X130457342Y-60207157D01*
X130292843Y-60042658D01*
X130099413Y-59913412D01*
X129884485Y-59824386D01*
X129656318Y-59779000D01*
X129423682Y-59779000D01*
X129195515Y-59824386D01*
X128980587Y-59913412D01*
X128881001Y-59979953D01*
X128881001Y-59759235D01*
X129117102Y-59523134D01*
X129195515Y-59555614D01*
X129423682Y-59601000D01*
X129656318Y-59601000D01*
X129884485Y-59555614D01*
X130099413Y-59466588D01*
X130292843Y-59337342D01*
X130457342Y-59172843D01*
X130586588Y-58979413D01*
X130675614Y-58764485D01*
X130721000Y-58536318D01*
X130721000Y-58303682D01*
X130675614Y-58075515D01*
X130586588Y-57860587D01*
X130457342Y-57667157D01*
X130292843Y-57502658D01*
X130099413Y-57373412D01*
X129884485Y-57284386D01*
X129656318Y-57239000D01*
X129423682Y-57239000D01*
X129195515Y-57284386D01*
X128980587Y-57373412D01*
X128787157Y-57502658D01*
X128622658Y-57667157D01*
X128493412Y-57860587D01*
X128481000Y-57890552D01*
X128481000Y-57599236D01*
X129102960Y-56977276D01*
X129195515Y-57015614D01*
X129423682Y-57061000D01*
X129656318Y-57061000D01*
X129884485Y-57015614D01*
X130099413Y-56926588D01*
X130292843Y-56797342D01*
X130457342Y-56632843D01*
X130586588Y-56439413D01*
X130675614Y-56224485D01*
X130721000Y-55996318D01*
X130721000Y-55763682D01*
X130675614Y-55535515D01*
X130586588Y-55320587D01*
X130457342Y-55127157D01*
X130292843Y-54962658D01*
X130099413Y-54833412D01*
X129884485Y-54744386D01*
X129656318Y-54699000D01*
X129423682Y-54699000D01*
X129195515Y-54744386D01*
X128980587Y-54833412D01*
X128881000Y-54899954D01*
X128881000Y-54679236D01*
X129117102Y-54443134D01*
X129195515Y-54475614D01*
X129423682Y-54521000D01*
X129656318Y-54521000D01*
X129884485Y-54475614D01*
X130099413Y-54386588D01*
X130292843Y-54257342D01*
X130457342Y-54092843D01*
X130586588Y-53899413D01*
X130675614Y-53684485D01*
X130721000Y-53456318D01*
X130721000Y-53223682D01*
X130675614Y-52995515D01*
X130586588Y-52780587D01*
X130457342Y-52587157D01*
X130292843Y-52422658D01*
X130099413Y-52293412D01*
X129884485Y-52204386D01*
X129656318Y-52159000D01*
X129423682Y-52159000D01*
X129195515Y-52204386D01*
X128980587Y-52293412D01*
X128787157Y-52422658D01*
X128622658Y-52587157D01*
X128493412Y-52780587D01*
X128404386Y-52995515D01*
X128359000Y-53223682D01*
X128359000Y-53456318D01*
X128404386Y-53684485D01*
X128436866Y-53762898D01*
X128114904Y-54084860D01*
X128090898Y-54026903D01*
X127956180Y-53825283D01*
X127784717Y-53653820D01*
X127583097Y-53519102D01*
X127359069Y-53426307D01*
X127121243Y-53379000D01*
X126878757Y-53379000D01*
X126640931Y-53426307D01*
X126416903Y-53519102D01*
X126248835Y-53631401D01*
X126630758Y-53249479D01*
X126640931Y-53253693D01*
X126878757Y-53301000D01*
X127121243Y-53301000D01*
X127359069Y-53253693D01*
X127583097Y-53160898D01*
X127784717Y-53026180D01*
X127956180Y-52854717D01*
X128090898Y-52653097D01*
X128183693Y-52429069D01*
X128231000Y-52191243D01*
X128231000Y-51948757D01*
X128183693Y-51710931D01*
X128090898Y-51486903D01*
X127956180Y-51285283D01*
X127784717Y-51113820D01*
X127583097Y-50979102D01*
X127359069Y-50886307D01*
X127121243Y-50839000D01*
X126878757Y-50839000D01*
X126640931Y-50886307D01*
X126416903Y-50979102D01*
X126215283Y-51113820D01*
X126043820Y-51285283D01*
X125909102Y-51486903D01*
X125816307Y-51710931D01*
X125769000Y-51948757D01*
X125769000Y-52191243D01*
X125816307Y-52429069D01*
X125896673Y-52623090D01*
X124800764Y-53719000D01*
X123823623Y-53719000D01*
X123799999Y-53716673D01*
X123776375Y-53719000D01*
X123776374Y-53719000D01*
X123759583Y-53720654D01*
X124205703Y-53274534D01*
X124338757Y-53301000D01*
X124581243Y-53301000D01*
X124819069Y-53253693D01*
X125043097Y-53160898D01*
X125121886Y-53108253D01*
X125209961Y-53081536D01*
X125293522Y-53036871D01*
X125366764Y-52976764D01*
X125426871Y-52903522D01*
X125471536Y-52819961D01*
X125498253Y-52731886D01*
X125550898Y-52653097D01*
X125643693Y-52429069D01*
X125691000Y-52191243D01*
X125691000Y-51948757D01*
X125643693Y-51710931D01*
X125550898Y-51486903D01*
X125416180Y-51285283D01*
X125244717Y-51113820D01*
X125043097Y-50979102D01*
X124819069Y-50886307D01*
X124581243Y-50839000D01*
X124338757Y-50839000D01*
X124100931Y-50886307D01*
X123876903Y-50979102D01*
X123675283Y-51113820D01*
X123503820Y-51285283D01*
X123369102Y-51486903D01*
X123276307Y-51710931D01*
X123229000Y-51948757D01*
X123229000Y-52191243D01*
X123276307Y-52429069D01*
X123369102Y-52653097D01*
X123408181Y-52711583D01*
X120881000Y-55238764D01*
X120881000Y-55199236D01*
X122243406Y-53836830D01*
X122261764Y-53821764D01*
X122321872Y-53748522D01*
X122342662Y-53709626D01*
X122366536Y-53664962D01*
X122394040Y-53574293D01*
X122403327Y-53480000D01*
X122401000Y-53456374D01*
X122401000Y-53203188D01*
X122503097Y-53160898D01*
X122704717Y-53026180D01*
X122876180Y-52854717D01*
X123010898Y-52653097D01*
X123103693Y-52429069D01*
X123151000Y-52191243D01*
X123151000Y-51948757D01*
X123103693Y-51710931D01*
X123010898Y-51486903D01*
X122876180Y-51285283D01*
X122704717Y-51113820D01*
X122503097Y-50979102D01*
X122279069Y-50886307D01*
X122041243Y-50839000D01*
X121798757Y-50839000D01*
X121560931Y-50886307D01*
X121336903Y-50979102D01*
X121135283Y-51113820D01*
X120963820Y-51285283D01*
X120829102Y-51486903D01*
X120736307Y-51710931D01*
X120689000Y-51948757D01*
X120689000Y-52191243D01*
X120736307Y-52429069D01*
X120811207Y-52609894D01*
X120810960Y-52610708D01*
X120801673Y-52705000D01*
X120810960Y-52799292D01*
X120838465Y-52889961D01*
X120883129Y-52973522D01*
X120943237Y-53046763D01*
X121016478Y-53106871D01*
X121100039Y-53151535D01*
X121190708Y-53179040D01*
X121285000Y-53188327D01*
X121379292Y-53179040D01*
X121380106Y-53178793D01*
X121439000Y-53203188D01*
X121439000Y-53280764D01*
X120081000Y-54638764D01*
X120081000Y-53082118D01*
X120164717Y-53026180D01*
X120336180Y-52854717D01*
X120470898Y-52653097D01*
X120563693Y-52429069D01*
X120611000Y-52191243D01*
X120611000Y-51948757D01*
X120563693Y-51710931D01*
X120470898Y-51486903D01*
X120336180Y-51285283D01*
X120164717Y-51113820D01*
X119963097Y-50979102D01*
X119739069Y-50886307D01*
X119501243Y-50839000D01*
X119258757Y-50839000D01*
X119020931Y-50886307D01*
X118796903Y-50979102D01*
X118595283Y-51113820D01*
X118423820Y-51285283D01*
X118289102Y-51486903D01*
X118196307Y-51710931D01*
X118149000Y-51948757D01*
X118149000Y-52191243D01*
X118196307Y-52429069D01*
X118289102Y-52653097D01*
X118423820Y-52854717D01*
X118595283Y-53026180D01*
X118796903Y-53160898D01*
X119020931Y-53253693D01*
X119119001Y-53273200D01*
X119119000Y-55133455D01*
X119094292Y-55125960D01*
X119023626Y-55119000D01*
X119000000Y-55116673D01*
X118976374Y-55119000D01*
X117961590Y-55119000D01*
X118023693Y-54969069D01*
X118071000Y-54731243D01*
X118071000Y-54488757D01*
X118023693Y-54250931D01*
X117930898Y-54026903D01*
X117796180Y-53825283D01*
X117624717Y-53653820D01*
X117423097Y-53519102D01*
X117199069Y-53426307D01*
X116961243Y-53379000D01*
X116718757Y-53379000D01*
X116480931Y-53426307D01*
X116256903Y-53519102D01*
X116055283Y-53653820D01*
X115883820Y-53825283D01*
X115749102Y-54026903D01*
X115725096Y-54084860D01*
X115403134Y-53762898D01*
X115435614Y-53684485D01*
X115481000Y-53456318D01*
X115481000Y-53223682D01*
X115435614Y-52995515D01*
X115346588Y-52780587D01*
X115217342Y-52587157D01*
X115052843Y-52422658D01*
X114859413Y-52293412D01*
X114644485Y-52204386D01*
X114416318Y-52159000D01*
X114183682Y-52159000D01*
X113955515Y-52204386D01*
X113740587Y-52293412D01*
X113547157Y-52422658D01*
X113481000Y-52488815D01*
X113481000Y-51980972D01*
X113500000Y-51982843D01*
X114295086Y-51982843D01*
X114300000Y-51983327D01*
X114304914Y-51982843D01*
X115100000Y-51982843D01*
X115174689Y-51975487D01*
X115246508Y-51953701D01*
X115255757Y-51948757D01*
X115609000Y-51948757D01*
X115609000Y-52191243D01*
X115656307Y-52429069D01*
X115749102Y-52653097D01*
X115883820Y-52854717D01*
X116055283Y-53026180D01*
X116256903Y-53160898D01*
X116480931Y-53253693D01*
X116718757Y-53301000D01*
X116961243Y-53301000D01*
X117199069Y-53253693D01*
X117423097Y-53160898D01*
X117624717Y-53026180D01*
X117796180Y-52854717D01*
X117930898Y-52653097D01*
X118023693Y-52429069D01*
X118071000Y-52191243D01*
X118071000Y-51948757D01*
X118023693Y-51710931D01*
X117930898Y-51486903D01*
X117796180Y-51285283D01*
X117624717Y-51113820D01*
X117423097Y-50979102D01*
X117199069Y-50886307D01*
X116961243Y-50839000D01*
X116718757Y-50839000D01*
X116480931Y-50886307D01*
X116256903Y-50979102D01*
X116055283Y-51113820D01*
X115883820Y-51285283D01*
X115749102Y-51486903D01*
X115656307Y-51710931D01*
X115609000Y-51948757D01*
X115255757Y-51948757D01*
X115312696Y-51918322D01*
X115370711Y-51870711D01*
X115418322Y-51812696D01*
X115453701Y-51746508D01*
X115475487Y-51674689D01*
X115482843Y-51600000D01*
X115482843Y-50683682D01*
X128359000Y-50683682D01*
X128359000Y-50916318D01*
X128404386Y-51144485D01*
X128493412Y-51359413D01*
X128622658Y-51552843D01*
X128787157Y-51717342D01*
X128980587Y-51846588D01*
X129195515Y-51935614D01*
X129423682Y-51981000D01*
X129656318Y-51981000D01*
X129884485Y-51935614D01*
X130099413Y-51846588D01*
X130292843Y-51717342D01*
X130457342Y-51552843D01*
X130586588Y-51359413D01*
X130675614Y-51144485D01*
X130721000Y-50916318D01*
X130721000Y-50683682D01*
X130675614Y-50455515D01*
X130586588Y-50240587D01*
X130457342Y-50047157D01*
X130292843Y-49882658D01*
X130099413Y-49753412D01*
X129884485Y-49664386D01*
X129656318Y-49619000D01*
X129423682Y-49619000D01*
X129195515Y-49664386D01*
X128980587Y-49753412D01*
X128787157Y-49882658D01*
X128622658Y-50047157D01*
X128493412Y-50240587D01*
X128404386Y-50455515D01*
X128359000Y-50683682D01*
X115482843Y-50683682D01*
X115482843Y-50000000D01*
X115475487Y-49925311D01*
X115453701Y-49853492D01*
X115418322Y-49787304D01*
X115370711Y-49729289D01*
X115312696Y-49681678D01*
X115246508Y-49646299D01*
X115174689Y-49624513D01*
X115100000Y-49617157D01*
X113500000Y-49617157D01*
X113425311Y-49624513D01*
X113353492Y-49646299D01*
X113287304Y-49681678D01*
X113229289Y-49729289D01*
X113181678Y-49787304D01*
X113146299Y-49853492D01*
X113124513Y-49925311D01*
X113117157Y-50000000D01*
X113117157Y-50352822D01*
X113115039Y-50353464D01*
X113031478Y-50398128D01*
X112958236Y-50458236D01*
X112943170Y-50476594D01*
X112801000Y-50618764D01*
X112801000Y-49549851D01*
X112807270Y-49485901D01*
X112820079Y-49443476D01*
X112840881Y-49404353D01*
X112868888Y-49370013D01*
X112903034Y-49341765D01*
X112942016Y-49320688D01*
X112984343Y-49307585D01*
X113046992Y-49301000D01*
X120694648Y-49301000D01*
X120715894Y-49367977D01*
G36*
X121361328Y-61129471D02*
G01*
X121405125Y-61235207D01*
X121468708Y-61330366D01*
X121549634Y-61411292D01*
X121644793Y-61474875D01*
X121750529Y-61518672D01*
X121862777Y-61541000D01*
X121977223Y-61541000D01*
X122089471Y-61518672D01*
X122195207Y-61474875D01*
X122245905Y-61441000D01*
X122560764Y-61441000D01*
X125343457Y-64223694D01*
X125317250Y-64224000D01*
X125222000Y-64319250D01*
X125222000Y-65278000D01*
X125242000Y-65278000D01*
X125242000Y-65532000D01*
X125222000Y-65532000D01*
X125222000Y-65552000D01*
X124968000Y-65552000D01*
X124968000Y-65532000D01*
X123952000Y-65532000D01*
X123952000Y-65552000D01*
X123698000Y-65552000D01*
X123698000Y-65532000D01*
X122682000Y-65532000D01*
X122682000Y-65552000D01*
X122428000Y-65552000D01*
X122428000Y-65532000D01*
X121412000Y-65532000D01*
X121412000Y-66490750D01*
X121507250Y-66586000D01*
X121665000Y-66587843D01*
X121739689Y-66580487D01*
X121811508Y-66558701D01*
X121877696Y-66523322D01*
X121920000Y-66488605D01*
X121962304Y-66523322D01*
X122028492Y-66558701D01*
X122076499Y-66573264D01*
X120961589Y-67688175D01*
X120943237Y-67703236D01*
X120928176Y-67721588D01*
X120883129Y-67776478D01*
X120838465Y-67860039D01*
X120835754Y-67868977D01*
X120830311Y-67869513D01*
X120758492Y-67891299D01*
X120692304Y-67926678D01*
X120650000Y-67961395D01*
X120607696Y-67926678D01*
X120541508Y-67891299D01*
X120469689Y-67869513D01*
X120395000Y-67862157D01*
X119635000Y-67862157D01*
X119560311Y-67869513D01*
X119488492Y-67891299D01*
X119422304Y-67926678D01*
X119373907Y-67966395D01*
X119337696Y-67936678D01*
X119271508Y-67901299D01*
X119199689Y-67879513D01*
X119125000Y-67872157D01*
X118967250Y-67874000D01*
X118872000Y-67969250D01*
X118872000Y-68928000D01*
X118892000Y-68928000D01*
X118892000Y-69182000D01*
X118872000Y-69182000D01*
X118872000Y-70140750D01*
X118967250Y-70236000D01*
X119125000Y-70237843D01*
X119199689Y-70230487D01*
X119271508Y-70208701D01*
X119337696Y-70173322D01*
X119386093Y-70133605D01*
X119422304Y-70163322D01*
X119488492Y-70198701D01*
X119560311Y-70220487D01*
X119635000Y-70227843D01*
X120395000Y-70227843D01*
X120469689Y-70220487D01*
X120541508Y-70198701D01*
X120607696Y-70163322D01*
X120650000Y-70128605D01*
X120692304Y-70163322D01*
X120758492Y-70198701D01*
X120830311Y-70220487D01*
X120905000Y-70227843D01*
X121665000Y-70227843D01*
X121739689Y-70220487D01*
X121811508Y-70198701D01*
X121877696Y-70163322D01*
X121920000Y-70128605D01*
X121962304Y-70163322D01*
X122028492Y-70198701D01*
X122100311Y-70220487D01*
X122175000Y-70227843D01*
X122935000Y-70227843D01*
X123009689Y-70220487D01*
X123081508Y-70198701D01*
X123147696Y-70163322D01*
X123190000Y-70128605D01*
X123232304Y-70163322D01*
X123298492Y-70198701D01*
X123370311Y-70220487D01*
X123445000Y-70227843D01*
X124205000Y-70227843D01*
X124279689Y-70220487D01*
X124351508Y-70198701D01*
X124417696Y-70163322D01*
X124460000Y-70128605D01*
X124502304Y-70163322D01*
X124568492Y-70198701D01*
X124640311Y-70220487D01*
X124715000Y-70227843D01*
X125291921Y-70227843D01*
X125200764Y-70319000D01*
X122325905Y-70319000D01*
X122275207Y-70285125D01*
X122169471Y-70241328D01*
X122057223Y-70219000D01*
X121942777Y-70219000D01*
X121830529Y-70241328D01*
X121724793Y-70285125D01*
X121629634Y-70348708D01*
X121548708Y-70429634D01*
X121485125Y-70524793D01*
X121441328Y-70630529D01*
X121419000Y-70742777D01*
X121419000Y-70857223D01*
X121441328Y-70969471D01*
X121485125Y-71075207D01*
X121501950Y-71100388D01*
X121429634Y-71148708D01*
X121348708Y-71229634D01*
X121285125Y-71324793D01*
X121241328Y-71430529D01*
X121219000Y-71542777D01*
X121219000Y-71657223D01*
X121231288Y-71719000D01*
X121168712Y-71719000D01*
X121181000Y-71657223D01*
X121181000Y-71542777D01*
X121158672Y-71430529D01*
X121114875Y-71324793D01*
X121051292Y-71229634D01*
X121021658Y-71200000D01*
X121051292Y-71170366D01*
X121114875Y-71075207D01*
X121158672Y-70969471D01*
X121181000Y-70857223D01*
X121181000Y-70742777D01*
X121158672Y-70630529D01*
X121114875Y-70524793D01*
X121051292Y-70429634D01*
X120970366Y-70348708D01*
X120875207Y-70285125D01*
X120769471Y-70241328D01*
X120657223Y-70219000D01*
X120542777Y-70219000D01*
X120430529Y-70241328D01*
X120324793Y-70285125D01*
X120274095Y-70319000D01*
X118599237Y-70319000D01*
X118516312Y-70236075D01*
X118522750Y-70236000D01*
X118618000Y-70140750D01*
X118618000Y-69182000D01*
X118598000Y-69182000D01*
X118598000Y-68928000D01*
X118618000Y-68928000D01*
X118618000Y-67969250D01*
X118522750Y-67874000D01*
X118365000Y-67872157D01*
X118290311Y-67879513D01*
X118281067Y-67882317D01*
X118281067Y-66577683D01*
X118290311Y-66580487D01*
X118365000Y-66587843D01*
X118522750Y-66586000D01*
X118618000Y-66490750D01*
X118618000Y-65532000D01*
X118872000Y-65532000D01*
X118872000Y-66490750D01*
X118967250Y-66586000D01*
X119125000Y-66587843D01*
X119199689Y-66580487D01*
X119271508Y-66558701D01*
X119337696Y-66523322D01*
X119380000Y-66488605D01*
X119422304Y-66523322D01*
X119488492Y-66558701D01*
X119560311Y-66580487D01*
X119635000Y-66587843D01*
X119792750Y-66586000D01*
X119888000Y-66490750D01*
X119888000Y-65532000D01*
X120142000Y-65532000D01*
X120142000Y-66490750D01*
X120237250Y-66586000D01*
X120395000Y-66587843D01*
X120469689Y-66580487D01*
X120541508Y-66558701D01*
X120607696Y-66523322D01*
X120650000Y-66488605D01*
X120692304Y-66523322D01*
X120758492Y-66558701D01*
X120830311Y-66580487D01*
X120905000Y-66587843D01*
X121062750Y-66586000D01*
X121158000Y-66490750D01*
X121158000Y-65532000D01*
X120142000Y-65532000D01*
X119888000Y-65532000D01*
X118872000Y-65532000D01*
X118618000Y-65532000D01*
X118598000Y-65532000D01*
X118598000Y-65278000D01*
X118618000Y-65278000D01*
X118618000Y-64319250D01*
X118872000Y-64319250D01*
X118872000Y-65278000D01*
X119888000Y-65278000D01*
X119888000Y-64319250D01*
X120142000Y-64319250D01*
X120142000Y-65278000D01*
X121158000Y-65278000D01*
X121158000Y-64319250D01*
X121412000Y-64319250D01*
X121412000Y-65278000D01*
X122428000Y-65278000D01*
X122428000Y-64319250D01*
X122682000Y-64319250D01*
X122682000Y-65278000D01*
X123698000Y-65278000D01*
X123698000Y-64319250D01*
X123952000Y-64319250D01*
X123952000Y-65278000D01*
X124968000Y-65278000D01*
X124968000Y-64319250D01*
X124872750Y-64224000D01*
X124715000Y-64222157D01*
X124640311Y-64229513D01*
X124568492Y-64251299D01*
X124502304Y-64286678D01*
X124460000Y-64321395D01*
X124417696Y-64286678D01*
X124351508Y-64251299D01*
X124279689Y-64229513D01*
X124205000Y-64222157D01*
X124047250Y-64224000D01*
X123952000Y-64319250D01*
X123698000Y-64319250D01*
X123602750Y-64224000D01*
X123445000Y-64222157D01*
X123370311Y-64229513D01*
X123298492Y-64251299D01*
X123232304Y-64286678D01*
X123190000Y-64321395D01*
X123147696Y-64286678D01*
X123081508Y-64251299D01*
X123009689Y-64229513D01*
X122935000Y-64222157D01*
X122777250Y-64224000D01*
X122682000Y-64319250D01*
X122428000Y-64319250D01*
X122332750Y-64224000D01*
X122175000Y-64222157D01*
X122100311Y-64229513D01*
X122028492Y-64251299D01*
X121962304Y-64286678D01*
X121920000Y-64321395D01*
X121877696Y-64286678D01*
X121811508Y-64251299D01*
X121739689Y-64229513D01*
X121665000Y-64222157D01*
X121507250Y-64224000D01*
X121412000Y-64319250D01*
X121158000Y-64319250D01*
X121062750Y-64224000D01*
X120905000Y-64222157D01*
X120830311Y-64229513D01*
X120758492Y-64251299D01*
X120692304Y-64286678D01*
X120650000Y-64321395D01*
X120607696Y-64286678D01*
X120541508Y-64251299D01*
X120469689Y-64229513D01*
X120395000Y-64222157D01*
X120237250Y-64224000D01*
X120142000Y-64319250D01*
X119888000Y-64319250D01*
X119792750Y-64224000D01*
X119635000Y-64222157D01*
X119560311Y-64229513D01*
X119488492Y-64251299D01*
X119422304Y-64286678D01*
X119380000Y-64321395D01*
X119337696Y-64286678D01*
X119271508Y-64251299D01*
X119199689Y-64229513D01*
X119125000Y-64222157D01*
X118967250Y-64224000D01*
X118872000Y-64319250D01*
X118618000Y-64319250D01*
X118522750Y-64224000D01*
X118365000Y-64222157D01*
X118290311Y-64229513D01*
X118281067Y-64232317D01*
X118281067Y-61599169D01*
X118439237Y-61441000D01*
X119054095Y-61441000D01*
X119104793Y-61474875D01*
X119210529Y-61518672D01*
X119322777Y-61541000D01*
X119437223Y-61541000D01*
X119549471Y-61518672D01*
X119655207Y-61474875D01*
X119705905Y-61441000D01*
X120816374Y-61441000D01*
X120840000Y-61443327D01*
X120863626Y-61441000D01*
X120934292Y-61434040D01*
X121024961Y-61406536D01*
X121108522Y-61361872D01*
X121181764Y-61301764D01*
X121196830Y-61283406D01*
X121359575Y-61120661D01*
X121361328Y-61129471D01*
G37*
X121361328Y-61129471D02*
X121405125Y-61235207D01*
X121468708Y-61330366D01*
X121549634Y-61411292D01*
X121644793Y-61474875D01*
X121750529Y-61518672D01*
X121862777Y-61541000D01*
X121977223Y-61541000D01*
X122089471Y-61518672D01*
X122195207Y-61474875D01*
X122245905Y-61441000D01*
X122560764Y-61441000D01*
X125343457Y-64223694D01*
X125317250Y-64224000D01*
X125222000Y-64319250D01*
X125222000Y-65278000D01*
X125242000Y-65278000D01*
X125242000Y-65532000D01*
X125222000Y-65532000D01*
X125222000Y-65552000D01*
X124968000Y-65552000D01*
X124968000Y-65532000D01*
X123952000Y-65532000D01*
X123952000Y-65552000D01*
X123698000Y-65552000D01*
X123698000Y-65532000D01*
X122682000Y-65532000D01*
X122682000Y-65552000D01*
X122428000Y-65552000D01*
X122428000Y-65532000D01*
X121412000Y-65532000D01*
X121412000Y-66490750D01*
X121507250Y-66586000D01*
X121665000Y-66587843D01*
X121739689Y-66580487D01*
X121811508Y-66558701D01*
X121877696Y-66523322D01*
X121920000Y-66488605D01*
X121962304Y-66523322D01*
X122028492Y-66558701D01*
X122076499Y-66573264D01*
X120961589Y-67688175D01*
X120943237Y-67703236D01*
X120928176Y-67721588D01*
X120883129Y-67776478D01*
X120838465Y-67860039D01*
X120835754Y-67868977D01*
X120830311Y-67869513D01*
X120758492Y-67891299D01*
X120692304Y-67926678D01*
X120650000Y-67961395D01*
X120607696Y-67926678D01*
X120541508Y-67891299D01*
X120469689Y-67869513D01*
X120395000Y-67862157D01*
X119635000Y-67862157D01*
X119560311Y-67869513D01*
X119488492Y-67891299D01*
X119422304Y-67926678D01*
X119373907Y-67966395D01*
X119337696Y-67936678D01*
X119271508Y-67901299D01*
X119199689Y-67879513D01*
X119125000Y-67872157D01*
X118967250Y-67874000D01*
X118872000Y-67969250D01*
X118872000Y-68928000D01*
X118892000Y-68928000D01*
X118892000Y-69182000D01*
X118872000Y-69182000D01*
X118872000Y-70140750D01*
X118967250Y-70236000D01*
X119125000Y-70237843D01*
X119199689Y-70230487D01*
X119271508Y-70208701D01*
X119337696Y-70173322D01*
X119386093Y-70133605D01*
X119422304Y-70163322D01*
X119488492Y-70198701D01*
X119560311Y-70220487D01*
X119635000Y-70227843D01*
X120395000Y-70227843D01*
X120469689Y-70220487D01*
X120541508Y-70198701D01*
X120607696Y-70163322D01*
X120650000Y-70128605D01*
X120692304Y-70163322D01*
X120758492Y-70198701D01*
X120830311Y-70220487D01*
X120905000Y-70227843D01*
X121665000Y-70227843D01*
X121739689Y-70220487D01*
X121811508Y-70198701D01*
X121877696Y-70163322D01*
X121920000Y-70128605D01*
X121962304Y-70163322D01*
X122028492Y-70198701D01*
X122100311Y-70220487D01*
X122175000Y-70227843D01*
X122935000Y-70227843D01*
X123009689Y-70220487D01*
X123081508Y-70198701D01*
X123147696Y-70163322D01*
X123190000Y-70128605D01*
X123232304Y-70163322D01*
X123298492Y-70198701D01*
X123370311Y-70220487D01*
X123445000Y-70227843D01*
X124205000Y-70227843D01*
X124279689Y-70220487D01*
X124351508Y-70198701D01*
X124417696Y-70163322D01*
X124460000Y-70128605D01*
X124502304Y-70163322D01*
X124568492Y-70198701D01*
X124640311Y-70220487D01*
X124715000Y-70227843D01*
X125291921Y-70227843D01*
X125200764Y-70319000D01*
X122325905Y-70319000D01*
X122275207Y-70285125D01*
X122169471Y-70241328D01*
X122057223Y-70219000D01*
X121942777Y-70219000D01*
X121830529Y-70241328D01*
X121724793Y-70285125D01*
X121629634Y-70348708D01*
X121548708Y-70429634D01*
X121485125Y-70524793D01*
X121441328Y-70630529D01*
X121419000Y-70742777D01*
X121419000Y-70857223D01*
X121441328Y-70969471D01*
X121485125Y-71075207D01*
X121501950Y-71100388D01*
X121429634Y-71148708D01*
X121348708Y-71229634D01*
X121285125Y-71324793D01*
X121241328Y-71430529D01*
X121219000Y-71542777D01*
X121219000Y-71657223D01*
X121231288Y-71719000D01*
X121168712Y-71719000D01*
X121181000Y-71657223D01*
X121181000Y-71542777D01*
X121158672Y-71430529D01*
X121114875Y-71324793D01*
X121051292Y-71229634D01*
X121021658Y-71200000D01*
X121051292Y-71170366D01*
X121114875Y-71075207D01*
X121158672Y-70969471D01*
X121181000Y-70857223D01*
X121181000Y-70742777D01*
X121158672Y-70630529D01*
X121114875Y-70524793D01*
X121051292Y-70429634D01*
X120970366Y-70348708D01*
X120875207Y-70285125D01*
X120769471Y-70241328D01*
X120657223Y-70219000D01*
X120542777Y-70219000D01*
X120430529Y-70241328D01*
X120324793Y-70285125D01*
X120274095Y-70319000D01*
X118599237Y-70319000D01*
X118516312Y-70236075D01*
X118522750Y-70236000D01*
X118618000Y-70140750D01*
X118618000Y-69182000D01*
X118598000Y-69182000D01*
X118598000Y-68928000D01*
X118618000Y-68928000D01*
X118618000Y-67969250D01*
X118522750Y-67874000D01*
X118365000Y-67872157D01*
X118290311Y-67879513D01*
X118281067Y-67882317D01*
X118281067Y-66577683D01*
X118290311Y-66580487D01*
X118365000Y-66587843D01*
X118522750Y-66586000D01*
X118618000Y-66490750D01*
X118618000Y-65532000D01*
X118872000Y-65532000D01*
X118872000Y-66490750D01*
X118967250Y-66586000D01*
X119125000Y-66587843D01*
X119199689Y-66580487D01*
X119271508Y-66558701D01*
X119337696Y-66523322D01*
X119380000Y-66488605D01*
X119422304Y-66523322D01*
X119488492Y-66558701D01*
X119560311Y-66580487D01*
X119635000Y-66587843D01*
X119792750Y-66586000D01*
X119888000Y-66490750D01*
X119888000Y-65532000D01*
X120142000Y-65532000D01*
X120142000Y-66490750D01*
X120237250Y-66586000D01*
X120395000Y-66587843D01*
X120469689Y-66580487D01*
X120541508Y-66558701D01*
X120607696Y-66523322D01*
X120650000Y-66488605D01*
X120692304Y-66523322D01*
X120758492Y-66558701D01*
X120830311Y-66580487D01*
X120905000Y-66587843D01*
X121062750Y-66586000D01*
X121158000Y-66490750D01*
X121158000Y-65532000D01*
X120142000Y-65532000D01*
X119888000Y-65532000D01*
X118872000Y-65532000D01*
X118618000Y-65532000D01*
X118598000Y-65532000D01*
X118598000Y-65278000D01*
X118618000Y-65278000D01*
X118618000Y-64319250D01*
X118872000Y-64319250D01*
X118872000Y-65278000D01*
X119888000Y-65278000D01*
X119888000Y-64319250D01*
X120142000Y-64319250D01*
X120142000Y-65278000D01*
X121158000Y-65278000D01*
X121158000Y-64319250D01*
X121412000Y-64319250D01*
X121412000Y-65278000D01*
X122428000Y-65278000D01*
X122428000Y-64319250D01*
X122682000Y-64319250D01*
X122682000Y-65278000D01*
X123698000Y-65278000D01*
X123698000Y-64319250D01*
X123952000Y-64319250D01*
X123952000Y-65278000D01*
X124968000Y-65278000D01*
X124968000Y-64319250D01*
X124872750Y-64224000D01*
X124715000Y-64222157D01*
X124640311Y-64229513D01*
X124568492Y-64251299D01*
X124502304Y-64286678D01*
X124460000Y-64321395D01*
X124417696Y-64286678D01*
X124351508Y-64251299D01*
X124279689Y-64229513D01*
X124205000Y-64222157D01*
X124047250Y-64224000D01*
X123952000Y-64319250D01*
X123698000Y-64319250D01*
X123602750Y-64224000D01*
X123445000Y-64222157D01*
X123370311Y-64229513D01*
X123298492Y-64251299D01*
X123232304Y-64286678D01*
X123190000Y-64321395D01*
X123147696Y-64286678D01*
X123081508Y-64251299D01*
X123009689Y-64229513D01*
X122935000Y-64222157D01*
X122777250Y-64224000D01*
X122682000Y-64319250D01*
X122428000Y-64319250D01*
X122332750Y-64224000D01*
X122175000Y-64222157D01*
X122100311Y-64229513D01*
X122028492Y-64251299D01*
X121962304Y-64286678D01*
X121920000Y-64321395D01*
X121877696Y-64286678D01*
X121811508Y-64251299D01*
X121739689Y-64229513D01*
X121665000Y-64222157D01*
X121507250Y-64224000D01*
X121412000Y-64319250D01*
X121158000Y-64319250D01*
X121062750Y-64224000D01*
X120905000Y-64222157D01*
X120830311Y-64229513D01*
X120758492Y-64251299D01*
X120692304Y-64286678D01*
X120650000Y-64321395D01*
X120607696Y-64286678D01*
X120541508Y-64251299D01*
X120469689Y-64229513D01*
X120395000Y-64222157D01*
X120237250Y-64224000D01*
X120142000Y-64319250D01*
X119888000Y-64319250D01*
X119792750Y-64224000D01*
X119635000Y-64222157D01*
X119560311Y-64229513D01*
X119488492Y-64251299D01*
X119422304Y-64286678D01*
X119380000Y-64321395D01*
X119337696Y-64286678D01*
X119271508Y-64251299D01*
X119199689Y-64229513D01*
X119125000Y-64222157D01*
X118967250Y-64224000D01*
X118872000Y-64319250D01*
X118618000Y-64319250D01*
X118522750Y-64224000D01*
X118365000Y-64222157D01*
X118290311Y-64229513D01*
X118281067Y-64232317D01*
X118281067Y-61599169D01*
X118439237Y-61441000D01*
X119054095Y-61441000D01*
X119104793Y-61474875D01*
X119210529Y-61518672D01*
X119322777Y-61541000D01*
X119437223Y-61541000D01*
X119549471Y-61518672D01*
X119655207Y-61474875D01*
X119705905Y-61441000D01*
X120816374Y-61441000D01*
X120840000Y-61443327D01*
X120863626Y-61441000D01*
X120934292Y-61434040D01*
X121024961Y-61406536D01*
X121108522Y-61361872D01*
X121181764Y-61301764D01*
X121196830Y-61283406D01*
X121359575Y-61120661D01*
X121361328Y-61129471D01*
G36*
X126319000Y-57799237D02*
G01*
X126319000Y-63238764D01*
X124941000Y-61860764D01*
X124941000Y-61285905D01*
X124974875Y-61235207D01*
X125018672Y-61129471D01*
X125030568Y-61069668D01*
X125418406Y-60681830D01*
X125436764Y-60666764D01*
X125496872Y-60593522D01*
X125534346Y-60523413D01*
X125541536Y-60509962D01*
X125569040Y-60419293D01*
X125578327Y-60325000D01*
X125576000Y-60301374D01*
X125576000Y-60052506D01*
X125621508Y-60038701D01*
X125687696Y-60003322D01*
X125745711Y-59955711D01*
X125793322Y-59897696D01*
X125828701Y-59831508D01*
X125850487Y-59759689D01*
X125857843Y-59685000D01*
X125857843Y-58085000D01*
X125850487Y-58010311D01*
X125828701Y-57938492D01*
X125793322Y-57872304D01*
X125745711Y-57814289D01*
X125687696Y-57766678D01*
X125621508Y-57731299D01*
X125549689Y-57709513D01*
X125475000Y-57702157D01*
X125382394Y-57702157D01*
X124418571Y-56738334D01*
X124475207Y-56714875D01*
X124525905Y-56681000D01*
X125200764Y-56681000D01*
X126319000Y-57799237D01*
G37*
X126319000Y-57799237D02*
X126319000Y-63238764D01*
X124941000Y-61860764D01*
X124941000Y-61285905D01*
X124974875Y-61235207D01*
X125018672Y-61129471D01*
X125030568Y-61069668D01*
X125418406Y-60681830D01*
X125436764Y-60666764D01*
X125496872Y-60593522D01*
X125534346Y-60523413D01*
X125541536Y-60509962D01*
X125569040Y-60419293D01*
X125578327Y-60325000D01*
X125576000Y-60301374D01*
X125576000Y-60052506D01*
X125621508Y-60038701D01*
X125687696Y-60003322D01*
X125745711Y-59955711D01*
X125793322Y-59897696D01*
X125828701Y-59831508D01*
X125850487Y-59759689D01*
X125857843Y-59685000D01*
X125857843Y-58085000D01*
X125850487Y-58010311D01*
X125828701Y-57938492D01*
X125793322Y-57872304D01*
X125745711Y-57814289D01*
X125687696Y-57766678D01*
X125621508Y-57731299D01*
X125549689Y-57709513D01*
X125475000Y-57702157D01*
X125382394Y-57702157D01*
X124418571Y-56738334D01*
X124475207Y-56714875D01*
X124525905Y-56681000D01*
X125200764Y-56681000D01*
X126319000Y-57799237D01*
G36*
X118219000Y-56142777D02*
G01*
X118219000Y-56257223D01*
X118241328Y-56369471D01*
X118285125Y-56475207D01*
X118319001Y-56525906D01*
X118319000Y-57716687D01*
X118290311Y-57719513D01*
X118218492Y-57741299D01*
X118152304Y-57776678D01*
X118094289Y-57824289D01*
X118046678Y-57882304D01*
X118011299Y-57948492D01*
X117989513Y-58020311D01*
X117982157Y-58095000D01*
X117982157Y-58447822D01*
X117980039Y-58448464D01*
X117896478Y-58493128D01*
X117823236Y-58553236D01*
X117808175Y-58571588D01*
X117081033Y-59298731D01*
X117081033Y-56999203D01*
X117999236Y-56081000D01*
X118231288Y-56081000D01*
X118219000Y-56142777D01*
G37*
X118219000Y-56142777D02*
X118219000Y-56257223D01*
X118241328Y-56369471D01*
X118285125Y-56475207D01*
X118319001Y-56525906D01*
X118319000Y-57716687D01*
X118290311Y-57719513D01*
X118218492Y-57741299D01*
X118152304Y-57776678D01*
X118094289Y-57824289D01*
X118046678Y-57882304D01*
X118011299Y-57948492D01*
X117989513Y-58020311D01*
X117982157Y-58095000D01*
X117982157Y-58447822D01*
X117980039Y-58448464D01*
X117896478Y-58493128D01*
X117823236Y-58553236D01*
X117808175Y-58571588D01*
X117081033Y-59298731D01*
X117081033Y-56999203D01*
X117999236Y-56081000D01*
X118231288Y-56081000D01*
X118219000Y-56142777D01*
M02*
