%TF.GenerationSoftware,KiCad,Pcbnew,(5.1.5-0-10_14)*%
%TF.CreationDate,2021-03-11T16:13:23+01:00*%
%TF.ProjectId,C64-ROM-Adapter-LB,4336342d-524f-44d2-9d41-646170746572,1.1*%
%TF.SameCoordinates,Original*%
%TF.FileFunction,Paste,Top*%
%TF.FilePolarity,Positive*%
%FSLAX46Y46*%
G04 Gerber Fmt 4.6, Leading zero omitted, Abs format (unit mm)*
G04 Created by KiCad (PCBNEW (5.1.5-0-10_14)) date 2021-03-11 16:13:23*
%MOMM*%
%LPD*%
G04 APERTURE LIST*
%ADD10C,0.050000*%
%ADD11R,0.760000X1.600000*%
G04 APERTURE END LIST*
D10*
X122809000Y-48895000D02*
X130810000Y-48895000D01*
X122809000Y-48895000D02*
G75*
G02X121031000Y-48895000I-889000J0D01*
G01*
X131445000Y-80010000D02*
G75*
G02X130810000Y-80645000I-635000J0D01*
G01*
X113030000Y-80645000D02*
G75*
G02X112395000Y-80010000I0J635000D01*
G01*
X112395000Y-49530000D02*
G75*
G02X113030000Y-48895000I635000J0D01*
G01*
X130810000Y-48895000D02*
G75*
G02X131445000Y-49530000I0J-635000D01*
G01*
X112395000Y-80010000D02*
X112395000Y-49530000D01*
X130810000Y-80645000D02*
X113030000Y-80645000D01*
X131445000Y-49530000D02*
X131445000Y-80010000D01*
X113030000Y-48895000D02*
X121031000Y-48895000D01*
D11*
X118745000Y-69055000D03*
X120015000Y-69045000D03*
X121285000Y-69045000D03*
X125095000Y-75565000D03*
X122555000Y-69045000D03*
X123825000Y-75565000D03*
X123825000Y-69045000D03*
X122555000Y-75565000D03*
X125095000Y-69045000D03*
X121285000Y-75565000D03*
X120015000Y-75565000D03*
X118745000Y-75565000D03*
X118745000Y-65405000D03*
X120015000Y-65405000D03*
X121285000Y-65405000D03*
X125095000Y-58885000D03*
X122555000Y-65405000D03*
X123825000Y-58885000D03*
X123825000Y-65405000D03*
X122555000Y-58885000D03*
X125095000Y-65405000D03*
X121285000Y-58885000D03*
X120015000Y-58885000D03*
X118745000Y-58895000D03*
M02*
